<?xml version="1.0" encoding="UTF-8" standalone="no"?>
<!DOCTYPE svg PUBLIC "-//W3C//DTD SVG 1.1//EN"
 "http://www.w3.org/Graphics/SVG/1.1/DTD/svg11.dtd">
<!-- Generated by graphviz version 2.47.1 (20210417.1919)
 -->
<!-- Title: amadeus Pages: 1 -->
<svg width="1932pt" height="2844pt"
 viewBox="0.00 0.00 1932.00 2844.00" xmlns="http://www.w3.org/2000/svg" xmlns:xlink="http://www.w3.org/1999/xlink">
<g id="graph0" class="graph" transform="scale(1 1) rotate(0) translate(144 2700)">
<title>amadeus</title>
<text text-anchor="middle" x="822" y="-9" font-family="Sans-Serif" font-size="15.00" fill="#2d3436">amadeus</text>
<g id="clust1" class="cluster">
<title>cluster_amadeus</title>
<path fill="#e5f5fd" stroke="#aeb6be" d="M20,-33C20,-33 1624,-33 1624,-33 1630,-33 1636,-39 1636,-45 1636,-45 1636,-2536 1636,-2536 1636,-2542 1630,-2548 1624,-2548 1624,-2548 20,-2548 20,-2548 14,-2548 8,-2542 8,-2536 8,-2536 8,-45 8,-45 8,-39 14,-33 20,-33"/>
<text text-anchor="middle" x="40" y="-2534.4" font-family="Sans-Serif" font-size="12.00" fill="#2d3436">amadeus</text>
</g>
<!-- 2fda918aa33d436eb6ad7c174292b643 -->
<g id="node1" class="node">
<title>2fda918aa33d436eb6ad7c174292b643</title>
<image xlink:href="icons/storage.png" width="101px" height="101px" preserveAspectRatio="xMinYMin meet" x="16" y="-2500.5"/>
<text text-anchor="middle" x="66.5" y="-2385.1" font-family="Sans-Serif" font-size="13.00" fill="#2d3436">amadeus_bi.formulaires/GA_VENT_DIGT_</text>
</g>
<!-- 4a8f72f6ce7a49feb30d546f080e1727 -->
<g id="node2" class="node">
<title>4a8f72f6ce7a49feb30d546f080e1727</title>
<image xlink:href="icons/bigquery.png" width="101px" height="101px" preserveAspectRatio="xMinYMin meet" x="426" y="-2500.5"/>
<text text-anchor="middle" x="476.5" y="-2385.1" font-family="Sans-Serif" font-size="13.00" fill="#2d3436">amadeus.e_ama_formulaires_stor</text>
</g>
<!-- 2fda918aa33d436eb6ad7c174292b643&#45;&gt;4a8f72f6ce7a49feb30d546f080e1727 -->
<g id="edge1" class="edge">
<title>2fda918aa33d436eb6ad7c174292b643&#45;&gt;4a8f72f6ce7a49feb30d546f080e1727</title>
<path fill="none" stroke="#7b8894" d="M117.19,-2450C117.19,-2450 415.93,-2450 415.93,-2450"/>
<polygon fill="#7b8894" stroke="#7b8894" points="415.93,-2453.5 425.93,-2450 415.93,-2446.5 415.93,-2453.5"/>
<text text-anchor="middle" x="271.5" y="-2453.6" font-family="Sans-Serif" font-size="13.00" fill="darkgrey">e_formulaires</text>
</g>
<!-- 775fdd0279cb4675b29332a2b3703db8 -->
<g id="node5" class="node">
<title>775fdd0279cb4675b29332a2b3703db8</title>
<image xlink:href="icons/bigquery.png" width="101px" height="101px" preserveAspectRatio="xMinYMin meet" x="798" y="-2320.5"/>
<text text-anchor="middle" x="848.5" y="-2205.1" font-family="Sans-Serif" font-size="13.00" fill="#2d3436">amadeus.t_ama_formulaires_campagnes</text>
</g>
<!-- 4a8f72f6ce7a49feb30d546f080e1727&#45;&gt;775fdd0279cb4675b29332a2b3703db8 -->
<g id="edge3" class="edge">
<title>4a8f72f6ce7a49feb30d546f080e1727&#45;&gt;775fdd0279cb4675b29332a2b3703db8</title>
<path fill="none" stroke="#7b8894" d="M494,-2381.33C494,-2369.01 494,-2360 494,-2360 494,-2360 849,-2360 849,-2360 849,-2360 849,-2348.67 849,-2348.67"/>
<polygon fill="#7b8894" stroke="#7b8894" points="852.5,-2348.67 849,-2338.67 845.5,-2348.67 852.5,-2348.67"/>
<text text-anchor="middle" x="662.5" y="-2394.6" font-family="Sans-Serif" font-size="13.00" fill="darkgrey">t_formulaires_campagnes</text>
</g>
<!-- 21c29ec3f0eb4635a7c71ebf8e746082 -->
<g id="node11" class="node">
<title>21c29ec3f0eb4635a7c71ebf8e746082</title>
<image xlink:href="icons/bigquery.png" width="101px" height="101px" preserveAspectRatio="xMinYMin meet" x="798" y="-2500.5"/>
<text text-anchor="middle" x="848.5" y="-2385.1" font-family="Sans-Serif" font-size="13.00" fill="#2d3436">amadeus.t_ama_formulaires_verif_flux_ga</text>
</g>
<!-- 4a8f72f6ce7a49feb30d546f080e1727&#45;&gt;21c29ec3f0eb4635a7c71ebf8e746082 -->
<g id="edge9" class="edge">
<title>4a8f72f6ce7a49feb30d546f080e1727&#45;&gt;21c29ec3f0eb4635a7c71ebf8e746082</title>
<path fill="none" stroke="#7b8894" d="M527.06,-2450C527.06,-2450 787.76,-2450 787.76,-2450"/>
<polygon fill="#7b8894" stroke="#7b8894" points="787.76,-2453.5 797.76,-2450 787.76,-2446.5 787.76,-2453.5"/>
<text text-anchor="middle" x="662.5" y="-2456.6" font-family="Sans-Serif" font-size="13.00" fill="darkgrey">t_formulaires_verif_flux_ga</text>
</g>
<!-- e59de13136a948d295503fe29628526e -->
<g id="node3" class="node">
<title>e59de13136a948d295503fe29628526e</title>
<image xlink:href="icons/storage.png" width="101px" height="101px" preserveAspectRatio="xMinYMin meet" x="16" y="-1960.5"/>
<text text-anchor="middle" x="66.5" y="-1845.1" font-family="Sans-Serif" font-size="13.00" fill="#2d3436">amadeus_bi.appels/GA_SVI_</text>
</g>
<!-- 399195fbb4e94e2eba3dfda5f8424d0e -->
<g id="node4" class="node">
<title>399195fbb4e94e2eba3dfda5f8424d0e</title>
<image xlink:href="icons/bigquery.png" width="101px" height="101px" preserveAspectRatio="xMinYMin meet" x="426" y="-1960.5"/>
<text text-anchor="middle" x="476.5" y="-1845.1" font-family="Sans-Serif" font-size="13.00" fill="#2d3436">amadeus.e_ama_appels</text>
</g>
<!-- e59de13136a948d295503fe29628526e&#45;&gt;399195fbb4e94e2eba3dfda5f8424d0e -->
<g id="edge2" class="edge">
<title>e59de13136a948d295503fe29628526e&#45;&gt;399195fbb4e94e2eba3dfda5f8424d0e</title>
<path fill="none" stroke="#7b8894" d="M117.19,-1910C117.19,-1910 415.93,-1910 415.93,-1910"/>
<polygon fill="#7b8894" stroke="#7b8894" points="415.93,-1913.5 425.93,-1910 415.93,-1906.5 415.93,-1913.5"/>
<text text-anchor="middle" x="271.5" y="-1913.6" font-family="Sans-Serif" font-size="13.00" fill="darkgrey">e_appels</text>
</g>
<!-- 5297bbb4fe4c4327be3f8a978085a1ec -->
<g id="node14" class="node">
<title>5297bbb4fe4c4327be3f8a978085a1ec</title>
<image xlink:href="icons/bigquery.png" width="101px" height="101px" preserveAspectRatio="xMinYMin meet" x="798" y="-1675.5"/>
<text text-anchor="middle" x="848.5" y="-1560.1" font-family="Sans-Serif" font-size="13.00" fill="#2d3436">amadeus.t_ama_appels</text>
</g>
<!-- 399195fbb4e94e2eba3dfda5f8424d0e&#45;&gt;5297bbb4fe4c4327be3f8a978085a1ec -->
<g id="edge14" class="edge">
<title>399195fbb4e94e2eba3dfda5f8424d0e&#45;&gt;5297bbb4fe4c4327be3f8a978085a1ec</title>
<path fill="none" stroke="#7b8894" d="M527.46,-1910C582.68,-1910 663,-1910 663,-1910 663,-1910 663,-1682.83 663,-1682.83 663,-1682.83 787.81,-1682.83 787.81,-1682.83"/>
<polygon fill="#7b8894" stroke="#7b8894" points="787.81,-1686.33 797.81,-1682.83 787.81,-1679.33 787.81,-1686.33"/>
<text text-anchor="middle" x="662.5" y="-1853.6" font-family="Sans-Serif" font-size="13.00" fill="darkgrey">t_appels</text>
</g>
<!-- cabc8c2e93b14b1a97920d4b96144e4e -->
<g id="node24" class="node">
<title>cabc8c2e93b14b1a97920d4b96144e4e</title>
<image xlink:href="icons/bigquery.png" width="101px" height="101px" preserveAspectRatio="xMinYMin meet" x="798" y="-2140.5"/>
<text text-anchor="middle" x="848.5" y="-2025.1" font-family="Sans-Serif" font-size="13.00" fill="#2d3436">amadeus.t_ama_import_gads</text>
</g>
<!-- 399195fbb4e94e2eba3dfda5f8424d0e&#45;&gt;cabc8c2e93b14b1a97920d4b96144e4e -->
<g id="edge25" class="edge">
<title>399195fbb4e94e2eba3dfda5f8424d0e&#45;&gt;cabc8c2e93b14b1a97920d4b96144e4e</title>
<path fill="none" stroke="#7b8894" d="M477,-1978.54C477,-1994.62 477,-2007.17 477,-2007.17 477,-2007.17 832,-2007.17 832,-2007.17 832,-2007.17 832,-2011.22 832,-2011.22"/>
<polygon fill="#7b8894" stroke="#7b8894" points="828.5,-2011.22 832,-2021.22 835.5,-2011.22 828.5,-2011.22"/>
<text text-anchor="middle" x="662.5" y="-1972.6" font-family="Sans-Serif" font-size="13.00" fill="darkgrey">t_import_gads</text>
</g>
<!-- ae4cef52cd0f427188934dbe0f5caf01 -->
<g id="node8" class="node">
<title>ae4cef52cd0f427188934dbe0f5caf01</title>
<image xlink:href="icons/bigquery.png" width="101px" height="101px" preserveAspectRatio="xMinYMin meet" x="1208" y="-2320.5"/>
<text text-anchor="middle" x="1258.5" y="-2205.1" font-family="Sans-Serif" font-size="13.00" fill="#2d3436">amadeus.t_ama_contrats_formulaires</text>
</g>
<!-- 775fdd0279cb4675b29332a2b3703db8&#45;&gt;ae4cef52cd0f427188934dbe0f5caf01 -->
<g id="edge6" class="edge">
<title>775fdd0279cb4675b29332a2b3703db8&#45;&gt;ae4cef52cd0f427188934dbe0f5caf01</title>
<path fill="none" stroke="#7b8894" d="M899.19,-2292.83C899.19,-2292.83 1197.93,-2292.83 1197.93,-2292.83"/>
<polygon fill="#7b8894" stroke="#7b8894" points="1197.93,-2296.33 1207.93,-2292.83 1197.93,-2289.33 1197.93,-2296.33"/>
<text text-anchor="middle" x="1043" y="-2273.6" font-family="Sans-Serif" font-size="13.00" fill="darkgrey">t_contrats_formulaires</text>
</g>
<!-- 577b8834a77e4fce8a6de30cfe9176a6 -->
<g id="node10" class="node">
<title>577b8834a77e4fce8a6de30cfe9176a6</title>
<image xlink:href="icons/bigquery.png" width="101px" height="101px" preserveAspectRatio="xMinYMin meet" x="1208" y="-2500.5"/>
<text text-anchor="middle" x="1258.5" y="-2385.1" font-family="Sans-Serif" font-size="13.00" fill="#2d3436">amadeus.t_ama_leads_formulaires</text>
</g>
<!-- 775fdd0279cb4675b29332a2b3703db8&#45;&gt;577b8834a77e4fce8a6de30cfe9176a6 -->
<g id="edge8" class="edge">
<title>775fdd0279cb4675b29332a2b3703db8&#45;&gt;577b8834a77e4fce8a6de30cfe9176a6</title>
<path fill="none" stroke="#7b8894" d="M874,-2338.56C874,-2345.04 874,-2349.25 874,-2349.25 874,-2349.25 1259,-2349.25 1259,-2349.25 1259,-2349.25 1259,-2371.4 1259,-2371.4"/>
<polygon fill="#7b8894" stroke="#7b8894" points="1255.5,-2371.4 1259,-2381.4 1262.5,-2371.4 1255.5,-2371.4"/>
<text text-anchor="middle" x="1043" y="-2394.6" font-family="Sans-Serif" font-size="13.00" fill="darkgrey">t_leads_formulaires</text>
</g>
<!-- e6a4f2e818a849ae8254eaf9b93ce342 -->
<g id="node6" class="node">
<title>e6a4f2e818a849ae8254eaf9b93ce342</title>
<image xlink:href="icons/bigquery.png" width="101px" height="101px" preserveAspectRatio="xMinYMin meet" x="426" y="-2320.5"/>
<text text-anchor="middle" x="476.5" y="-2205.1" font-family="Sans-Serif" font-size="13.00" fill="#2d3436">ga.l_ga_to_ama_ga_formulaires_stor_*</text>
</g>
<!-- e6a4f2e818a849ae8254eaf9b93ce342&#45;&gt;775fdd0279cb4675b29332a2b3703db8 -->
<g id="edge4" class="edge">
<title>e6a4f2e818a849ae8254eaf9b93ce342&#45;&gt;775fdd0279cb4675b29332a2b3703db8</title>
<path fill="none" stroke="#7b8894" d="M527.06,-2270C527.06,-2270 787.76,-2270 787.76,-2270"/>
<polygon fill="#7b8894" stroke="#7b8894" points="787.76,-2273.5 797.76,-2270 787.76,-2266.5 787.76,-2273.5"/>
<text text-anchor="middle" x="662.5" y="-2270.6" font-family="Sans-Serif" font-size="13.00" fill="darkgrey">t_formulaires_campagnes</text>
</g>
<!-- e6a4f2e818a849ae8254eaf9b93ce342&#45;&gt;21c29ec3f0eb4635a7c71ebf8e746082 -->
<g id="edge10" class="edge">
<title>e6a4f2e818a849ae8254eaf9b93ce342&#45;&gt;21c29ec3f0eb4635a7c71ebf8e746082</title>
<path fill="none" stroke="#7b8894" d="M460,-2338.6C460,-2356.43 460,-2370.75 460,-2370.75 460,-2370.75 824,-2370.75 824,-2370.75 824,-2370.75 824,-2371.82 824,-2371.82"/>
<polygon fill="#7b8894" stroke="#7b8894" points="820.5,-2371.44 824,-2381.44 827.5,-2371.44 820.5,-2371.44"/>
<text text-anchor="middle" x="662.5" y="-2332.6" font-family="Sans-Serif" font-size="13.00" fill="darkgrey">t_formulaires_verif_flux_ga</text>
</g>
<!-- cc37ad358d4343f39639fb70a6b0d083 -->
<g id="node7" class="node">
<title>cc37ad358d4343f39639fb70a6b0d083</title>
<image xlink:href="icons/bigquery.png" width="101px" height="101px" preserveAspectRatio="xMinYMin meet" x="426" y="-2140.5"/>
<text text-anchor="middle" x="476.5" y="-2025.1" font-family="Sans-Serif" font-size="13.00" fill="#2d3436">ga.t_ga_correspondance_hash_campagnes</text>
</g>
<!-- cc37ad358d4343f39639fb70a6b0d083&#45;&gt;775fdd0279cb4675b29332a2b3703db8 -->
<g id="edge5" class="edge">
<title>cc37ad358d4343f39639fb70a6b0d083&#45;&gt;775fdd0279cb4675b29332a2b3703db8</title>
<path fill="none" stroke="#7b8894" d="M477,-2158.67C477,-2170.99 477,-2180 477,-2180 477,-2180 849,-2180 849,-2180 849,-2180 849,-2191.33 849,-2191.33"/>
<polygon fill="#7b8894" stroke="#7b8894" points="845.5,-2191.33 849,-2201.33 852.5,-2191.33 845.5,-2191.33"/>
<text text-anchor="middle" x="662.5" y="-2152.6" font-family="Sans-Serif" font-size="13.00" fill="darkgrey">t_formulaires_campagnes</text>
</g>
<!-- 01a5bc703f80484d9081892078bb9301 -->
<g id="node9" class="node">
<title>01a5bc703f80484d9081892078bb9301</title>
<image xlink:href="icons/bigquery.png" width="101px" height="101px" preserveAspectRatio="xMinYMin meet" x="798" y="-1960.5"/>
<text text-anchor="middle" x="848.5" y="-1845.1" font-family="Sans-Serif" font-size="13.00" fill="#2d3436">comper.e_v_digi_import_cube_valeur</text>
</g>
<!-- 01a5bc703f80484d9081892078bb9301&#45;&gt;ae4cef52cd0f427188934dbe0f5caf01 -->
<g id="edge7" class="edge">
<title>01a5bc703f80484d9081892078bb9301&#45;&gt;ae4cef52cd0f427188934dbe0f5caf01</title>
<path fill="none" stroke="#7b8894" d="M899.03,-1932.83C959.88,-1932.83 1054,-1932.83 1054,-1932.83 1054,-1932.83 1054,-2247.17 1054,-2247.17 1054,-2247.17 1197.95,-2247.17 1197.95,-2247.17"/>
<polygon fill="#7b8894" stroke="#7b8894" points="1197.95,-2250.67 1207.95,-2247.17 1197.95,-2243.67 1197.95,-2250.67"/>
<text text-anchor="middle" x="1043" y="-2169.6" font-family="Sans-Serif" font-size="13.00" fill="darkgrey">t_contrats_formulaires</text>
</g>
<!-- 726a379cecc846d683d5ec4b9b6679ef -->
<g id="node19" class="node">
<title>726a379cecc846d683d5ec4b9b6679ef</title>
<image xlink:href="icons/bigquery.png" width="101px" height="101px" preserveAspectRatio="xMinYMin meet" x="1208" y="-2140.5"/>
<text text-anchor="middle" x="1258.5" y="-2025.1" font-family="Sans-Serif" font-size="13.00" fill="#2d3436">amadeus.t_ama_contrats_appels</text>
</g>
<!-- 01a5bc703f80484d9081892078bb9301&#45;&gt;726a379cecc846d683d5ec4b9b6679ef -->
<g id="edge19" class="edge">
<title>01a5bc703f80484d9081892078bb9301&#45;&gt;726a379cecc846d683d5ec4b9b6679ef</title>
<path fill="none" stroke="#7b8894" d="M866,-1978.78C866,-1987.16 866,-1992.83 866,-1992.83 866,-1992.83 1259,-1992.83 1259,-1992.83 1259,-1992.83 1259,-2011.46 1259,-2011.46"/>
<polygon fill="#7b8894" stroke="#7b8894" points="1255.5,-2011.46 1259,-2021.46 1262.5,-2011.46 1255.5,-2011.46"/>
<text text-anchor="middle" x="1043" y="-2065.6" font-family="Sans-Serif" font-size="13.00" fill="darkgrey">t_contrats_appels</text>
</g>
<!-- 2f2760d786904c17bb4f1e7f4288a3e5 -->
<g id="node12" class="node">
<title>2f2760d786904c17bb4f1e7f4288a3e5</title>
<image xlink:href="icons/bigquery.png" width="101px" height="101px" preserveAspectRatio="xMinYMin meet" x="426" y="-1420.5"/>
<text text-anchor="middle" x="476.5" y="-1305.1" font-family="Sans-Serif" font-size="13.00" fill="#2d3436">ga.t_ga_sessions</text>
</g>
<!-- cbebc021624a415c91b25afdee5ce6c4 -->
<g id="node13" class="node">
<title>cbebc021624a415c91b25afdee5ce6c4</title>
<image xlink:href="icons/bigquery.png" width="101px" height="101px" preserveAspectRatio="xMinYMin meet" x="798" y="-1420.5"/>
<text text-anchor="middle" x="848.5" y="-1305.1" font-family="Sans-Serif" font-size="13.00" fill="#2d3436">amadeus.t_ama_appels_ga</text>
</g>
<!-- 2f2760d786904c17bb4f1e7f4288a3e5&#45;&gt;cbebc021624a415c91b25afdee5ce6c4 -->
<g id="edge11" class="edge">
<title>2f2760d786904c17bb4f1e7f4288a3e5&#45;&gt;cbebc021624a415c91b25afdee5ce6c4</title>
<path fill="none" stroke="#7b8894" d="M527.06,-1370C527.06,-1370 787.76,-1370 787.76,-1370"/>
<polygon fill="#7b8894" stroke="#7b8894" points="787.76,-1373.5 797.76,-1370 787.76,-1366.5 787.76,-1373.5"/>
<text text-anchor="middle" x="662.5" y="-1373.6" font-family="Sans-Serif" font-size="13.00" fill="darkgrey">t_appels_ga</text>
</g>
<!-- 763bbc0f8d3548f7bab7ac3708a1c4db -->
<g id="node23" class="node">
<title>763bbc0f8d3548f7bab7ac3708a1c4db</title>
<image xlink:href="icons/bigquery.png" width="101px" height="101px" preserveAspectRatio="xMinYMin meet" x="798" y="-1240.5"/>
<text text-anchor="middle" x="848.5" y="-1125.1" font-family="Sans-Serif" font-size="13.00" fill="#2d3436">eloqua.t_elq_promo_applis_mobiles_tlgt_appli</text>
</g>
<!-- 2f2760d786904c17bb4f1e7f4288a3e5&#45;&gt;763bbc0f8d3548f7bab7ac3708a1c4db -->
<g id="edge24" class="edge">
<title>2f2760d786904c17bb4f1e7f4288a3e5&#45;&gt;763bbc0f8d3548f7bab7ac3708a1c4db</title>
<path fill="none" stroke="#7b8894" d="M477,-1301.35C477,-1282.67 477,-1267.5 477,-1267.5 477,-1267.5 866,-1267.5 866,-1267.5 866,-1267.5 866,-1266.61 866,-1266.61"/>
<polygon fill="#7b8894" stroke="#7b8894" points="869.5,-1268.61 866,-1258.61 862.5,-1268.61 869.5,-1268.61"/>
<text text-anchor="middle" x="662.5" y="-1283.6" font-family="Sans-Serif" font-size="13.00" fill="darkgrey">t_elq_promo_applis_mobiles_tlgt_appli</text>
</g>
<!-- f3060382e0c34c44823308c160a92d77 -->
<g id="node15" class="node">
<title>f3060382e0c34c44823308c160a92d77</title>
<image xlink:href="icons/bigquery.png" width="101px" height="101px" preserveAspectRatio="xMinYMin meet" x="1208" y="-959.5"/>
<text text-anchor="middle" x="1258.5" y="-844.1" font-family="Sans-Serif" font-size="13.00" fill="#2d3436">amadeus.t_ama_appels_leviers</text>
</g>
<!-- cbebc021624a415c91b25afdee5ce6c4&#45;&gt;f3060382e0c34c44823308c160a92d77 -->
<g id="edge13" class="edge">
<title>cbebc021624a415c91b25afdee5ce6c4&#45;&gt;f3060382e0c34c44823308c160a92d77</title>
<path fill="none" stroke="#7b8894" d="M899,-1347.17C919.31,-1347.17 938,-1347.17 938,-1347.17 938,-1347.17 938,-953.5 938,-953.5 938,-953.5 1197.72,-953.5 1197.72,-953.5"/>
<polygon fill="#7b8894" stroke="#7b8894" points="1197.72,-957 1207.72,-953.5 1197.72,-950 1197.72,-957"/>
<text text-anchor="middle" x="1043" y="-979.6" font-family="Sans-Serif" font-size="13.00" fill="darkgrey">t_appels_leviers</text>
</g>
<!-- bb609a0a261241f8bae3a8da02fa9025 -->
<g id="node20" class="node">
<title>bb609a0a261241f8bae3a8da02fa9025</title>
<image xlink:href="icons/bigquery.png" width="101px" height="101px" preserveAspectRatio="xMinYMin meet" x="1527" y="-1395.5"/>
<text text-anchor="middle" x="1577.5" y="-1280.1" font-family="Sans-Serif" font-size="13.00" fill="#2d3436">amadeus.t_ama_contrats_appels_leviers</text>
</g>
<!-- cbebc021624a415c91b25afdee5ce6c4&#45;&gt;bb609a0a261241f8bae3a8da02fa9025 -->
<g id="edge21" class="edge">
<title>cbebc021624a415c91b25afdee5ce6c4&#45;&gt;bb609a0a261241f8bae3a8da02fa9025</title>
<path fill="none" stroke="#7b8894" d="M832,-1301.3C832,-1293.91 832,-1289 832,-1289 832,-1289 1516.84,-1289 1516.84,-1289"/>
<polygon fill="#7b8894" stroke="#7b8894" points="1516.84,-1292.5 1526.84,-1289 1516.84,-1285.5 1516.84,-1292.5"/>
<text text-anchor="middle" x="1258.5" y="-1067.6" font-family="Sans-Serif" font-size="13.00" fill="darkgrey">t_contrats_appels_leviers</text>
</g>
<!-- 5297bbb4fe4c4327be3f8a978085a1ec&#45;&gt;f3060382e0c34c44823308c160a92d77 -->
<g id="edge12" class="edge">
<title>5297bbb4fe4c4327be3f8a978085a1ec&#45;&gt;f3060382e0c34c44823308c160a92d77</title>
<path fill="none" stroke="#7b8894" d="M899.29,-1568.9C935.2,-1568.9 977,-1568.9 977,-1568.9 977,-1568.9 977,-965.5 977,-965.5 977,-965.5 1197.85,-965.5 1197.85,-965.5"/>
<polygon fill="#7b8894" stroke="#7b8894" points="1197.85,-969 1207.85,-965.5 1197.85,-962 1197.85,-969"/>
<text text-anchor="middle" x="1043" y="-1224.6" font-family="Sans-Serif" font-size="13.00" fill="darkgrey">t_appels_leviers</text>
</g>
<!-- 5297bbb4fe4c4327be3f8a978085a1ec&#45;&gt;726a379cecc846d683d5ec4b9b6679ef -->
<g id="edge18" class="edge">
<title>5297bbb4fe4c4327be3f8a978085a1ec&#45;&gt;726a379cecc846d683d5ec4b9b6679ef</title>
<path fill="none" stroke="#7b8894" d="M899.16,-1685.5C970.78,-1685.5 1093,-1685.5 1093,-1685.5 1093,-1685.5 1093,-2090 1093,-2090 1093,-2090 1197.95,-2090 1197.95,-2090"/>
<polygon fill="#7b8894" stroke="#7b8894" points="1197.95,-2093.5 1207.95,-2090 1197.95,-2086.5 1197.95,-2093.5"/>
<text text-anchor="middle" x="1043" y="-1945.6" font-family="Sans-Serif" font-size="13.00" fill="darkgrey">t_contrats_appels</text>
</g>
<!-- 853bd90260a54da6a562804af059198e -->
<g id="node25" class="node">
<title>853bd90260a54da6a562804af059198e</title>
<image xlink:href="icons/bigquery.png" width="101px" height="101px" preserveAspectRatio="xMinYMin meet" x="1208" y="-1420.5"/>
<text text-anchor="middle" x="1258.5" y="-1305.1" font-family="Sans-Serif" font-size="13.00" fill="#2d3436">amadeus.t_ama_valeurs_plus40_datastudio_gads</text>
</g>
<!-- 5297bbb4fe4c4327be3f8a978085a1ec&#45;&gt;853bd90260a54da6a562804af059198e -->
<g id="edge26" class="edge">
<title>5297bbb4fe4c4327be3f8a978085a1ec&#45;&gt;853bd90260a54da6a562804af059198e</title>
<path fill="none" stroke="#7b8894" d="M899.09,-1593.7C989.63,-1593.7 1170,-1593.7 1170,-1593.7 1170,-1593.7 1170,-1392.83 1170,-1392.83 1170,-1392.83 1197.79,-1392.83 1197.79,-1392.83"/>
<polygon fill="#7b8894" stroke="#7b8894" points="1197.79,-1396.33 1207.79,-1392.83 1197.79,-1389.33 1197.79,-1396.33"/>
<text text-anchor="middle" x="1043" y="-1447.6" font-family="Sans-Serif" font-size="13.00" fill="darkgrey">t_valeurs_plus40_datastudio_gads</text>
</g>
<!-- 864d1f9326874f648fe74e4de8fd9027 -->
<g id="node26" class="node">
<title>864d1f9326874f648fe74e4de8fd9027</title>
<image xlink:href="icons/bigquery.png" width="101px" height="101px" preserveAspectRatio="xMinYMin meet" x="1208" y="-1600.5"/>
<text text-anchor="middle" x="1258.5" y="-1485.1" font-family="Sans-Serif" font-size="13.00" fill="#2d3436">amadeus.t_ama_valeurs_datastudio_gads</text>
</g>
<!-- 5297bbb4fe4c4327be3f8a978085a1ec&#45;&gt;864d1f9326874f648fe74e4de8fd9027 -->
<g id="edge27" class="edge">
<title>5297bbb4fe4c4327be3f8a978085a1ec&#45;&gt;864d1f9326874f648fe74e4de8fd9027</title>
<path fill="none" stroke="#7b8894" d="M899.19,-1606.1C899.19,-1606.1 1197.93,-1606.1 1197.93,-1606.1"/>
<polygon fill="#7b8894" stroke="#7b8894" points="1197.93,-1609.6 1207.93,-1606.1 1197.93,-1602.6 1197.93,-1609.6"/>
<text text-anchor="middle" x="1043" y="-1583.6" font-family="Sans-Serif" font-size="13.00" fill="darkgrey">t_valeurs_datastudio_gads</text>
</g>
<!-- 3e2b389b722844609917a5f54b361b14 -->
<g id="node27" class="node">
<title>3e2b389b722844609917a5f54b361b14</title>
<image xlink:href="icons/bigquery.png" width="101px" height="101px" preserveAspectRatio="xMinYMin meet" x="1208" y="-1780.5"/>
<text text-anchor="middle" x="1258.5" y="-1665.1" font-family="Sans-Serif" font-size="13.00" fill="#2d3436">amadeus.t_ama_valeurs_sousindicateur_gads</text>
</g>
<!-- 5297bbb4fe4c4327be3f8a978085a1ec&#45;&gt;3e2b389b722844609917a5f54b361b14 -->
<g id="edge28" class="edge">
<title>5297bbb4fe4c4327be3f8a978085a1ec&#45;&gt;3e2b389b722844609917a5f54b361b14</title>
<path fill="none" stroke="#7b8894" d="M899.19,-1669.5C899.19,-1669.5 1197.93,-1669.5 1197.93,-1669.5"/>
<polygon fill="#7b8894" stroke="#7b8894" points="1197.93,-1673 1207.93,-1669.5 1197.93,-1666 1197.93,-1673"/>
<text text-anchor="middle" x="1043" y="-1674.6" font-family="Sans-Serif" font-size="13.00" fill="darkgrey">t_valeurs_sousindicateur_gads</text>
</g>
<!-- 9a7b6eb09b4943bea60804fdad2fb4d3 -->
<g id="node28" class="node">
<title>9a7b6eb09b4943bea60804fdad2fb4d3</title>
<image xlink:href="icons/bigquery.png" width="101px" height="101px" preserveAspectRatio="xMinYMin meet" x="1208" y="-1960.5"/>
<text text-anchor="middle" x="1258.5" y="-1845.1" font-family="Sans-Serif" font-size="13.00" fill="#2d3436">amadeus.t_ama_anciennes_valeurs_gads</text>
</g>
<!-- 5297bbb4fe4c4327be3f8a978085a1ec&#45;&gt;9a7b6eb09b4943bea60804fdad2fb4d3 -->
<g id="edge29" class="edge">
<title>5297bbb4fe4c4327be3f8a978085a1ec&#45;&gt;9a7b6eb09b4943bea60804fdad2fb4d3</title>
<path fill="none" stroke="#7b8894" d="M899.01,-1677.5C980.26,-1677.5 1131,-1677.5 1131,-1677.5 1131,-1677.5 1131,-1887.17 1131,-1887.17 1131,-1887.17 1197.74,-1887.17 1197.74,-1887.17"/>
<polygon fill="#7b8894" stroke="#7b8894" points="1197.74,-1890.67 1207.74,-1887.17 1197.74,-1883.67 1197.74,-1890.67"/>
<text text-anchor="middle" x="1043" y="-1825.6" font-family="Sans-Serif" font-size="13.00" fill="darkgrey">t_anciennes_valeurs_gads</text>
</g>
<!-- d48cc8f461a142829cbd781cc1bf48e4 -->
<g id="node29" class="node">
<title>d48cc8f461a142829cbd781cc1bf48e4</title>
<image xlink:href="icons/bigquery.png" width="101px" height="101px" preserveAspectRatio="xMinYMin meet" x="1208" y="-1240.5"/>
<text text-anchor="middle" x="1258.5" y="-1125.1" font-family="Sans-Serif" font-size="13.00" fill="#2d3436">amadeus.t_ama_anciennes_valeurs_sousindicateur_gads</text>
</g>
<!-- 5297bbb4fe4c4327be3f8a978085a1ec&#45;&gt;d48cc8f461a142829cbd781cc1bf48e4 -->
<g id="edge30" class="edge">
<title>5297bbb4fe4c4327be3f8a978085a1ec&#45;&gt;d48cc8f461a142829cbd781cc1bf48e4</title>
<path fill="none" stroke="#7b8894" d="M899.36,-1581.3C948.32,-1581.3 1015,-1581.3 1015,-1581.3 1015,-1581.3 1015,-1190 1015,-1190 1015,-1190 1197.75,-1190 1197.75,-1190"/>
<polygon fill="#7b8894" stroke="#7b8894" points="1197.75,-1193.5 1207.75,-1190 1197.75,-1186.5 1197.75,-1193.5"/>
<text text-anchor="middle" x="1043" y="-1352.6" font-family="Sans-Serif" font-size="13.00" fill="darkgrey">t_anciennes_valeurs_sousindicateur_gads</text>
</g>
<!-- 87c5c5ed8639441f981a6a229f65cbba -->
<g id="node18" class="node">
<title>87c5c5ed8639441f981a6a229f65cbba</title>
<image xlink:href="icons/bigquery.png" width="101px" height="101px" preserveAspectRatio="xMinYMin meet" x="1527" y="-959.5"/>
<text text-anchor="middle" x="1577.5" y="-844.1" font-family="Sans-Serif" font-size="13.00" fill="#2d3436">amadeus.t_ama_leads_appels</text>
</g>
<!-- f3060382e0c34c44823308c160a92d77&#45;&gt;87c5c5ed8639441f981a6a229f65cbba -->
<g id="edge17" class="edge">
<title>f3060382e0c34c44823308c160a92d77&#45;&gt;87c5c5ed8639441f981a6a229f65cbba</title>
<path fill="none" stroke="#7b8894" d="M1309.05,-909C1309.05,-909 1516.93,-909 1516.93,-909"/>
<polygon fill="#7b8894" stroke="#7b8894" points="1516.93,-912.5 1526.93,-909 1516.93,-905.5 1516.93,-912.5"/>
<text text-anchor="middle" x="1428.5" y="-912.6" font-family="Sans-Serif" font-size="13.00" fill="darkgrey">t_leads_appels</text>
</g>
<!-- d61d403431c645cea9e0c5ee0da61c03 -->
<g id="node16" class="node">
<title>d61d403431c645cea9e0c5ee0da61c03</title>
<image xlink:href="icons/bigquery.png" width="101px" height="101px" preserveAspectRatio="xMinYMin meet" x="426" y="-1600.5"/>
<text text-anchor="middle" x="476.5" y="-1485.1" font-family="Sans-Serif" font-size="13.00" fill="#2d3436">amadeus.e_ama_appels_2020</text>
</g>
<!-- d61d403431c645cea9e0c5ee0da61c03&#45;&gt;5297bbb4fe4c4327be3f8a978085a1ec -->
<g id="edge15" class="edge">
<title>d61d403431c645cea9e0c5ee0da61c03&#45;&gt;5297bbb4fe4c4327be3f8a978085a1ec</title>
<path fill="none" stroke="#7b8894" d="M527.06,-1587.5C527.06,-1587.5 787.76,-1587.5 787.76,-1587.5"/>
<polygon fill="#7b8894" stroke="#7b8894" points="787.76,-1591 797.76,-1587.5 787.76,-1584 787.76,-1591"/>
<text text-anchor="middle" x="662.5" y="-1582.6" font-family="Sans-Serif" font-size="13.00" fill="darkgrey">t_appels</text>
</g>
<!-- b59b1276240740fda9b1ae0661d35df7 -->
<g id="node17" class="node">
<title>b59b1276240740fda9b1ae0661d35df7</title>
<image xlink:href="icons/bigquery.png" width="101px" height="101px" preserveAspectRatio="xMinYMin meet" x="426" y="-1780.5"/>
<text text-anchor="middle" x="476.5" y="-1665.1" font-family="Sans-Serif" font-size="13.00" fill="#2d3436">amadeus.e_ama_appels_2018_2019</text>
</g>
<!-- b59b1276240740fda9b1ae0661d35df7&#45;&gt;5297bbb4fe4c4327be3f8a978085a1ec -->
<g id="edge16" class="edge">
<title>b59b1276240740fda9b1ae0661d35df7&#45;&gt;5297bbb4fe4c4327be3f8a978085a1ec</title>
<path fill="none" stroke="#7b8894" d="M527.06,-1672.17C527.06,-1672.17 787.76,-1672.17 787.76,-1672.17"/>
<polygon fill="#7b8894" stroke="#7b8894" points="787.76,-1675.67 797.76,-1672.17 787.76,-1668.67 787.76,-1675.67"/>
<text text-anchor="middle" x="662.5" y="-1674.6" font-family="Sans-Serif" font-size="13.00" fill="darkgrey">t_appels</text>
</g>
<!-- 726a379cecc846d683d5ec4b9b6679ef&#45;&gt;bb609a0a261241f8bae3a8da02fa9025 -->
<g id="edge20" class="edge">
<title>726a379cecc846d683d5ec4b9b6679ef&#45;&gt;bb609a0a261241f8bae3a8da02fa9025</title>
<path fill="none" stroke="#7b8894" d="M1309.13,-2090C1399.22,-2090 1578,-2090 1578,-2090 1578,-2090 1578,-1423.75 1578,-1423.75"/>
<polygon fill="#7b8894" stroke="#7b8894" points="1581.5,-1423.75 1578,-1413.75 1574.5,-1423.75 1581.5,-1423.75"/>
<text text-anchor="middle" x="1428.5" y="-1604.6" font-family="Sans-Serif" font-size="13.00" fill="darkgrey">t_contrats_appels_leviers</text>
</g>
<!-- f1c5689ba9b7434d9a09cd8195cfe4da -->
<g id="node21" class="node">
<title>f1c5689ba9b7434d9a09cd8195cfe4da</title>
<image xlink:href="icons/storage.png" width="101px" height="101px" preserveAspectRatio="xMinYMin meet" x="16" y="-1240.5"/>
<text text-anchor="middle" x="66.5" y="-1125.1" font-family="Sans-Serif" font-size="13.00" fill="#2d3436">amadeus_bi.eloqua/AMA_GOOG_RETR_MARK_ELQC_315_*</text>
</g>
<!-- 0392d25ff21444d89822e971f0c05110 -->
<g id="node22" class="node">
<title>0392d25ff21444d89822e971f0c05110</title>
<image xlink:href="icons/bigquery.png" width="101px" height="101px" preserveAspectRatio="xMinYMin meet" x="426" y="-1240.5"/>
<text text-anchor="middle" x="476.5" y="-1125.1" font-family="Sans-Serif" font-size="13.00" fill="#2d3436">eloqua.e_elq_promo_applis_mobiles_clics_emails</text>
</g>
<!-- f1c5689ba9b7434d9a09cd8195cfe4da&#45;&gt;0392d25ff21444d89822e971f0c05110 -->
<g id="edge22" class="edge">
<title>f1c5689ba9b7434d9a09cd8195cfe4da&#45;&gt;0392d25ff21444d89822e971f0c05110</title>
<path fill="none" stroke="#7b8894" d="M117.19,-1190C117.19,-1190 415.93,-1190 415.93,-1190"/>
<polygon fill="#7b8894" stroke="#7b8894" points="415.93,-1193.5 425.93,-1190 415.93,-1186.5 415.93,-1193.5"/>
<text text-anchor="middle" x="271.5" y="-1193.6" font-family="Sans-Serif" font-size="13.00" fill="darkgrey">e_elq_promo_applis_mobiles_clics_emails</text>
</g>
<!-- 0392d25ff21444d89822e971f0c05110&#45;&gt;763bbc0f8d3548f7bab7ac3708a1c4db -->
<g id="edge23" class="edge">
<title>0392d25ff21444d89822e971f0c05110&#45;&gt;763bbc0f8d3548f7bab7ac3708a1c4db</title>
<path fill="none" stroke="#7b8894" d="M527.06,-1190C527.06,-1190 787.76,-1190 787.76,-1190"/>
<polygon fill="#7b8894" stroke="#7b8894" points="787.76,-1193.5 797.76,-1190 787.76,-1186.5 787.76,-1193.5"/>
<text text-anchor="middle" x="662.5" y="-1193.6" font-family="Sans-Serif" font-size="13.00" fill="darkgrey">t_elq_promo_applis_mobiles_tlgt_appli</text>
</g>
<!-- eaf365c707dc4284a1a1012d81f62c2c -->
<g id="node30" class="node">
<title>eaf365c707dc4284a1a1012d81f62c2c</title>
<image xlink:href="icons/bigquery.png" width="101px" height="101px" preserveAspectRatio="xMinYMin meet" x="16" y="-1060.5"/>
<text text-anchor="middle" x="66.5" y="-945.1" font-family="Sans-Serif" font-size="13.00" fill="#2d3436">comper.t_v_digi_cube_valeur</text>
</g>
<!-- c94b3bfbd14242cc8fe1411ecd397684 -->
<g id="node31" class="node">
<title>c94b3bfbd14242cc8fe1411ecd397684</title>
<image xlink:href="icons/bigquery.png" width="101px" height="101px" preserveAspectRatio="xMinYMin meet" x="426" y="-1060.5"/>
<text text-anchor="middle" x="476.5" y="-945.1" font-family="Sans-Serif" font-size="13.00" fill="#2d3436">amadeus.t_ama_parrainage</text>
</g>
<!-- eaf365c707dc4284a1a1012d81f62c2c&#45;&gt;c94b3bfbd14242cc8fe1411ecd397684 -->
<g id="edge31" class="edge">
<title>eaf365c707dc4284a1a1012d81f62c2c&#45;&gt;c94b3bfbd14242cc8fe1411ecd397684</title>
<path fill="none" stroke="#7b8894" d="M117.19,-1010C117.19,-1010 415.93,-1010 415.93,-1010"/>
<polygon fill="#7b8894" stroke="#7b8894" points="415.93,-1013.5 425.93,-1010 415.93,-1006.5 415.93,-1013.5"/>
<text text-anchor="middle" x="271.5" y="-1013.6" font-family="Sans-Serif" font-size="13.00" fill="darkgrey">t_parrainage</text>
</g>
<!-- 28f899cb2855492b912933d3ff0b1e82 -->
<g id="node32" class="node">
<title>28f899cb2855492b912933d3ff0b1e82</title>
<image xlink:href="icons/bigquery.png" width="101px" height="101px" preserveAspectRatio="xMinYMin meet" x="798" y="-1060.5"/>
<text text-anchor="middle" x="848.5" y="-945.1" font-family="Sans-Serif" font-size="13.00" fill="#2d3436">comper.l_ama_to_ds_comper_t_ama_parrainage</text>
</g>
<!-- c94b3bfbd14242cc8fe1411ecd397684&#45;&gt;28f899cb2855492b912933d3ff0b1e82 -->
<g id="edge32" class="edge">
<title>c94b3bfbd14242cc8fe1411ecd397684&#45;&gt;28f899cb2855492b912933d3ff0b1e82</title>
<path fill="none" stroke="#7b8894" d="M527.06,-1010C527.06,-1010 787.76,-1010 787.76,-1010"/>
<polygon fill="#7b8894" stroke="#7b8894" points="787.76,-1013.5 797.76,-1010 787.76,-1006.5 787.76,-1013.5"/>
<text text-anchor="middle" x="662.5" y="-1013.6" font-family="Sans-Serif" font-size="13.00" fill="darkgrey">l_to_ds_comper_t_ama_parrainage</text>
</g>
<!-- 26e2b70427f14aaaa7b5a9de496e225e -->
<g id="node33" class="node">
<title>26e2b70427f14aaaa7b5a9de496e225e</title>
<image xlink:href="icons/bigquery.png" width="101px" height="101px" preserveAspectRatio="xMinYMin meet" x="16" y="-880.5"/>
<text text-anchor="middle" x="66.5" y="-765.1" font-family="Sans-Serif" font-size="13.00" fill="#2d3436">amadeus.e_gsheet_contrats_services</text>
</g>
<!-- 6541ceda0ad842299715e50e43bf5942 -->
<g id="node34" class="node">
<title>6541ceda0ad842299715e50e43bf5942</title>
<image xlink:href="icons/bigquery.png" width="101px" height="101px" preserveAspectRatio="xMinYMin meet" x="426" y="-880.5"/>
<text text-anchor="middle" x="476.5" y="-765.1" font-family="Sans-Serif" font-size="13.00" fill="#2d3436">comper.l_ama_to_ds_comper_contrats_services</text>
</g>
<!-- 26e2b70427f14aaaa7b5a9de496e225e&#45;&gt;6541ceda0ad842299715e50e43bf5942 -->
<g id="edge33" class="edge">
<title>26e2b70427f14aaaa7b5a9de496e225e&#45;&gt;6541ceda0ad842299715e50e43bf5942</title>
<path fill="none" stroke="#7b8894" d="M117.19,-830C117.19,-830 415.93,-830 415.93,-830"/>
<polygon fill="#7b8894" stroke="#7b8894" points="415.93,-833.5 425.93,-830 415.93,-826.5 415.93,-833.5"/>
<text text-anchor="middle" x="271.5" y="-833.6" font-family="Sans-Serif" font-size="13.00" fill="darkgrey">l_to_ds_comper_contrats_services</text>
</g>
<!-- 059796a8d8ae4a63a13a6980b25534e9 -->
<g id="node35" class="node">
<title>059796a8d8ae4a63a13a6980b25534e9</title>
<image xlink:href="icons/bigquery.png" width="101px" height="101px" preserveAspectRatio="xMinYMin meet" x="16" y="-700.5"/>
<text text-anchor="middle" x="66.5" y="-585.1" font-family="Sans-Serif" font-size="13.00" fill="#2d3436">reporting_equipements.bout_en_bout_equipements</text>
</g>
<!-- e859f499151645149115f792ee51b2b3 -->
<g id="node36" class="node">
<title>e859f499151645149115f792ee51b2b3</title>
<image xlink:href="icons/bigquery.png" width="101px" height="101px" preserveAspectRatio="xMinYMin meet" x="426" y="-700.5"/>
<text text-anchor="middle" x="476.5" y="-585.1" font-family="Sans-Serif" font-size="13.00" fill="#2d3436">comper.l_ama_to_ds_comper_bout_en_bout_equipements</text>
</g>
<!-- 059796a8d8ae4a63a13a6980b25534e9&#45;&gt;e859f499151645149115f792ee51b2b3 -->
<g id="edge34" class="edge">
<title>059796a8d8ae4a63a13a6980b25534e9&#45;&gt;e859f499151645149115f792ee51b2b3</title>
<path fill="none" stroke="#7b8894" d="M117.19,-650C117.19,-650 415.93,-650 415.93,-650"/>
<polygon fill="#7b8894" stroke="#7b8894" points="415.93,-653.5 425.93,-650 415.93,-646.5 415.93,-653.5"/>
<text text-anchor="middle" x="271.5" y="-653.6" font-family="Sans-Serif" font-size="13.00" fill="darkgrey">l_to_ds_comper_bout_en_bout_equipements</text>
</g>
<!-- 530ff5e346fa443ab9b147ac92869e42 -->
<g id="node37" class="node">
<title>530ff5e346fa443ab9b147ac92869e42</title>
<image xlink:href="icons/bigquery.png" width="101px" height="101px" preserveAspectRatio="xMinYMin meet" x="16" y="-520.5"/>
<text text-anchor="middle" x="66.5" y="-405.1" font-family="Sans-Serif" font-size="13.00" fill="#2d3436">amadeus.e_ama_options_vertes</text>
</g>
<!-- 6ec86ead204d45229b9165e5dd3abc3a -->
<g id="node38" class="node">
<title>6ec86ead204d45229b9165e5dd3abc3a</title>
<image xlink:href="icons/bigquery.png" width="101px" height="101px" preserveAspectRatio="xMinYMin meet" x="426" y="-520.5"/>
<text text-anchor="middle" x="476.5" y="-405.1" font-family="Sans-Serif" font-size="13.00" fill="#2d3436">comper.t_ama_options_vertes</text>
</g>
<!-- 530ff5e346fa443ab9b147ac92869e42&#45;&gt;6ec86ead204d45229b9165e5dd3abc3a -->
<g id="edge35" class="edge">
<title>530ff5e346fa443ab9b147ac92869e42&#45;&gt;6ec86ead204d45229b9165e5dd3abc3a</title>
<path fill="none" stroke="#7b8894" d="M117.19,-470C117.19,-470 415.93,-470 415.93,-470"/>
<polygon fill="#7b8894" stroke="#7b8894" points="415.93,-473.5 425.93,-470 415.93,-466.5 415.93,-473.5"/>
<text text-anchor="middle" x="271.5" y="-473.6" font-family="Sans-Serif" font-size="13.00" fill="darkgrey">t_options_vertes</text>
</g>
<!-- c96934b2887d4ceca5af8bb377f9c800 -->
<g id="node39" class="node">
<title>c96934b2887d4ceca5af8bb377f9c800</title>
<image xlink:href="icons/bigquery.png" width="101px" height="101px" preserveAspectRatio="xMinYMin meet" x="798" y="-520.5"/>
<text text-anchor="middle" x="848.5" y="-405.1" font-family="Sans-Serif" font-size="13.00" fill="#2d3436">comper.l_ama_to_ds_comper_options_vertes</text>
</g>
<!-- 6ec86ead204d45229b9165e5dd3abc3a&#45;&gt;c96934b2887d4ceca5af8bb377f9c800 -->
<g id="edge36" class="edge">
<title>6ec86ead204d45229b9165e5dd3abc3a&#45;&gt;c96934b2887d4ceca5af8bb377f9c800</title>
<path fill="none" stroke="#7b8894" d="M527.06,-470C527.06,-470 787.76,-470 787.76,-470"/>
<polygon fill="#7b8894" stroke="#7b8894" points="787.76,-473.5 797.76,-470 787.76,-466.5 787.76,-473.5"/>
<text text-anchor="middle" x="662.5" y="-473.6" font-family="Sans-Serif" font-size="13.00" fill="darkgrey">l_to_ds_comper_options_vertes</text>
</g>
<!-- 5b25aec38d2f451e9254f41ec55946ce -->
<g id="node40" class="node">
<title>5b25aec38d2f451e9254f41ec55946ce</title>
<image xlink:href="icons/bigquery.png" width="101px" height="101px" preserveAspectRatio="xMinYMin meet" x="16" y="-340.5"/>
<text text-anchor="middle" x="66.5" y="-225.1" font-family="Sans-Serif" font-size="13.00" fill="#2d3436">amadeus.e_ama_prelevement_mensualisation</text>
</g>
<!-- 76f8fbf9586946c88bb83ad111471a11 -->
<g id="node41" class="node">
<title>76f8fbf9586946c88bb83ad111471a11</title>
<image xlink:href="icons/bigquery.png" width="101px" height="101px" preserveAspectRatio="xMinYMin meet" x="426" y="-340.5"/>
<text text-anchor="middle" x="476.5" y="-225.1" font-family="Sans-Serif" font-size="13.00" fill="#2d3436">comper.l_ama_to_ds_comper_prelevement_mensualisation</text>
</g>
<!-- 5b25aec38d2f451e9254f41ec55946ce&#45;&gt;76f8fbf9586946c88bb83ad111471a11 -->
<g id="edge37" class="edge">
<title>5b25aec38d2f451e9254f41ec55946ce&#45;&gt;76f8fbf9586946c88bb83ad111471a11</title>
<path fill="none" stroke="#7b8894" d="M117.19,-290C117.19,-290 415.93,-290 415.93,-290"/>
<polygon fill="#7b8894" stroke="#7b8894" points="415.93,-293.5 425.93,-290 415.93,-286.5 415.93,-293.5"/>
<text text-anchor="middle" x="271.5" y="-293.6" font-family="Sans-Serif" font-size="13.00" fill="darkgrey">l_to_ds_comper_prelevement_mensualisation</text>
</g>
<!-- f05dcd6aa0354f08ad815eea83e9ddab -->
<g id="node42" class="node">
<title>f05dcd6aa0354f08ad815eea83e9ddab</title>
<image xlink:href="icons/bigquery.png" width="101px" height="101px" preserveAspectRatio="xMinYMin meet" x="16" y="-160.5"/>
<text text-anchor="middle" x="66.5" y="-45.1" font-family="Sans-Serif" font-size="13.00" fill="#2d3436">amadeus.e_gsheet_activation_energie</text>
</g>
<!-- 6dac22cd784d428dab4ed383f2fc360a -->
<g id="node43" class="node">
<title>6dac22cd784d428dab4ed383f2fc360a</title>
<image xlink:href="icons/bigquery.png" width="101px" height="101px" preserveAspectRatio="xMinYMin meet" x="426" y="-160.5"/>
<text text-anchor="middle" x="476.5" y="-45.1" font-family="Sans-Serif" font-size="13.00" fill="#2d3436">comper.l_ama_to_ds_comper_activation_energie</text>
</g>
<!-- f05dcd6aa0354f08ad815eea83e9ddab&#45;&gt;6dac22cd784d428dab4ed383f2fc360a -->
<g id="edge38" class="edge">
<title>f05dcd6aa0354f08ad815eea83e9ddab&#45;&gt;6dac22cd784d428dab4ed383f2fc360a</title>
<path fill="none" stroke="#7b8894" d="M117.19,-110C117.19,-110 415.93,-110 415.93,-110"/>
<polygon fill="#7b8894" stroke="#7b8894" points="415.93,-113.5 425.93,-110 415.93,-106.5 415.93,-113.5"/>
<text text-anchor="middle" x="271.5" y="-113.6" font-family="Sans-Serif" font-size="13.00" fill="darkgrey">l_to_ds_comper_activation_energie</text>
</g>
</g>
</svg>
