<?xml version="1.0" encoding="UTF-8" standalone="no"?>
<!DOCTYPE svg PUBLIC "-//W3C//DTD SVG 1.1//EN"
 "http://www.w3.org/Graphics/SVG/1.1/DTD/svg11.dtd">
<!-- Generated by graphviz version 2.47.1 (20210417.1919)
 -->
<!-- Title: amadeus Pages: 1 -->
<svg width="1932pt" height="2844pt"
 viewBox="0.00 0.00 1932.00 2844.00" xmlns="http://www.w3.org/2000/svg" xmlns:xlink="http://www.w3.org/1999/xlink">
<g id="graph0" class="graph" transform="scale(1 1) rotate(0) translate(144 2700)">
<title>amadeus</title>
<text text-anchor="middle" x="822" y="-9" font-family="Sans-Serif" font-size="15.00" fill="#2d3436">amadeus</text>
<g id="clust1" class="cluster">
<title>cluster_amadeus</title>
<path fill="#e5f5fd" stroke="#aeb6be" d="M20,-33C20,-33 1624,-33 1624,-33 1630,-33 1636,-39 1636,-45 1636,-45 1636,-2536 1636,-2536 1636,-2542 1630,-2548 1624,-2548 1624,-2548 20,-2548 20,-2548 14,-2548 8,-2542 8,-2536 8,-2536 8,-45 8,-45 8,-39 14,-33 20,-33"/>
<text text-anchor="middle" x="40" y="-2534.4" font-family="Sans-Serif" font-size="12.00" fill="#2d3436">amadeus</text>
</g>
<!-- 8e651aa1e13e40a280f78cb7e6770b24 -->
<g id="node1" class="node">
<title>8e651aa1e13e40a280f78cb7e6770b24</title>
<image xlink:href="icons/storage.png" width="101px" height="101px" preserveAspectRatio="xMinYMin meet" x="16" y="-2500.5"/>
<text text-anchor="middle" x="66.5" y="-2385.1" font-family="Sans-Serif" font-size="13.00" fill="#2d3436">amadeus_bi.formulaires/GA_VENT_DIGT_</text>
</g>
<!-- f5726ad37750475dba121728d3dca9f9 -->
<g id="node2" class="node">
<title>f5726ad37750475dba121728d3dca9f9</title>
<image xlink:href="icons/bigquery.png" width="101px" height="101px" preserveAspectRatio="xMinYMin meet" x="426" y="-2500.5"/>
<text text-anchor="middle" x="476.5" y="-2385.1" font-family="Sans-Serif" font-size="13.00" fill="#2d3436">amadeus.e_ama_formulaires_stor</text>
</g>
<!-- 8e651aa1e13e40a280f78cb7e6770b24&#45;&gt;f5726ad37750475dba121728d3dca9f9 -->
<g id="edge1" class="edge">
<title>8e651aa1e13e40a280f78cb7e6770b24&#45;&gt;f5726ad37750475dba121728d3dca9f9</title>
<path fill="none" stroke="#7b8894" d="M117.19,-2450C117.19,-2450 415.93,-2450 415.93,-2450"/>
<polygon fill="#7b8894" stroke="#7b8894" points="415.93,-2453.5 425.93,-2450 415.93,-2446.5 415.93,-2453.5"/>
<text text-anchor="middle" x="271.5" y="-2453.6" font-family="Sans-Serif" font-size="13.00" fill="darkgrey">e_formulaires</text>
</g>
<!-- 39da4cd3d8a443b88e04bf819785acdb -->
<g id="node5" class="node">
<title>39da4cd3d8a443b88e04bf819785acdb</title>
<image xlink:href="icons/bigquery.png" width="101px" height="101px" preserveAspectRatio="xMinYMin meet" x="798" y="-2320.5"/>
<text text-anchor="middle" x="848.5" y="-2205.1" font-family="Sans-Serif" font-size="13.00" fill="#2d3436">amadeus.t_ama_formulaires_campagnes</text>
</g>
<!-- f5726ad37750475dba121728d3dca9f9&#45;&gt;39da4cd3d8a443b88e04bf819785acdb -->
<g id="edge3" class="edge">
<title>f5726ad37750475dba121728d3dca9f9&#45;&gt;39da4cd3d8a443b88e04bf819785acdb</title>
<path fill="none" stroke="#7b8894" d="M494,-2381.33C494,-2369.01 494,-2360 494,-2360 494,-2360 849,-2360 849,-2360 849,-2360 849,-2348.67 849,-2348.67"/>
<polygon fill="#7b8894" stroke="#7b8894" points="852.5,-2348.67 849,-2338.67 845.5,-2348.67 852.5,-2348.67"/>
<text text-anchor="middle" x="662.5" y="-2394.6" font-family="Sans-Serif" font-size="13.00" fill="darkgrey">t_formulaires_campagnes</text>
</g>
<!-- 9c7c289dcca74396b358488db10c7bb3 -->
<g id="node11" class="node">
<title>9c7c289dcca74396b358488db10c7bb3</title>
<image xlink:href="icons/bigquery.png" width="101px" height="101px" preserveAspectRatio="xMinYMin meet" x="798" y="-2500.5"/>
<text text-anchor="middle" x="848.5" y="-2385.1" font-family="Sans-Serif" font-size="13.00" fill="#2d3436">amadeus.t_ama_formulaires_verif_flux_ga</text>
</g>
<!-- f5726ad37750475dba121728d3dca9f9&#45;&gt;9c7c289dcca74396b358488db10c7bb3 -->
<g id="edge9" class="edge">
<title>f5726ad37750475dba121728d3dca9f9&#45;&gt;9c7c289dcca74396b358488db10c7bb3</title>
<path fill="none" stroke="#7b8894" d="M527.06,-2450C527.06,-2450 787.76,-2450 787.76,-2450"/>
<polygon fill="#7b8894" stroke="#7b8894" points="787.76,-2453.5 797.76,-2450 787.76,-2446.5 787.76,-2453.5"/>
<text text-anchor="middle" x="662.5" y="-2456.6" font-family="Sans-Serif" font-size="13.00" fill="darkgrey">t_formulaires_verif_flux_ga</text>
</g>
<!-- 47620b58ef1a416e9855f284013320b3 -->
<g id="node3" class="node">
<title>47620b58ef1a416e9855f284013320b3</title>
<image xlink:href="icons/storage.png" width="101px" height="101px" preserveAspectRatio="xMinYMin meet" x="16" y="-1960.5"/>
<text text-anchor="middle" x="66.5" y="-1845.1" font-family="Sans-Serif" font-size="13.00" fill="#2d3436">amadeus_bi.appels/GA_SVI_</text>
</g>
<!-- 5532fb9483a24366b2e020cbd8a407cf -->
<g id="node4" class="node">
<title>5532fb9483a24366b2e020cbd8a407cf</title>
<image xlink:href="icons/bigquery.png" width="101px" height="101px" preserveAspectRatio="xMinYMin meet" x="426" y="-1960.5"/>
<text text-anchor="middle" x="476.5" y="-1845.1" font-family="Sans-Serif" font-size="13.00" fill="#2d3436">amadeus.e_ama_appels</text>
</g>
<!-- 47620b58ef1a416e9855f284013320b3&#45;&gt;5532fb9483a24366b2e020cbd8a407cf -->
<g id="edge2" class="edge">
<title>47620b58ef1a416e9855f284013320b3&#45;&gt;5532fb9483a24366b2e020cbd8a407cf</title>
<path fill="none" stroke="#7b8894" d="M117.19,-1910C117.19,-1910 415.93,-1910 415.93,-1910"/>
<polygon fill="#7b8894" stroke="#7b8894" points="415.93,-1913.5 425.93,-1910 415.93,-1906.5 415.93,-1913.5"/>
<text text-anchor="middle" x="271.5" y="-1913.6" font-family="Sans-Serif" font-size="13.00" fill="darkgrey">e_appels</text>
</g>
<!-- 4456899f29e245b0a941f9d4b7dd08d5 -->
<g id="node14" class="node">
<title>4456899f29e245b0a941f9d4b7dd08d5</title>
<image xlink:href="icons/bigquery.png" width="101px" height="101px" preserveAspectRatio="xMinYMin meet" x="798" y="-1675.5"/>
<text text-anchor="middle" x="848.5" y="-1560.1" font-family="Sans-Serif" font-size="13.00" fill="#2d3436">amadeus.t_ama_appels</text>
</g>
<!-- 5532fb9483a24366b2e020cbd8a407cf&#45;&gt;4456899f29e245b0a941f9d4b7dd08d5 -->
<g id="edge14" class="edge">
<title>5532fb9483a24366b2e020cbd8a407cf&#45;&gt;4456899f29e245b0a941f9d4b7dd08d5</title>
<path fill="none" stroke="#7b8894" d="M527.46,-1910C582.68,-1910 663,-1910 663,-1910 663,-1910 663,-1682.83 663,-1682.83 663,-1682.83 787.81,-1682.83 787.81,-1682.83"/>
<polygon fill="#7b8894" stroke="#7b8894" points="787.81,-1686.33 797.81,-1682.83 787.81,-1679.33 787.81,-1686.33"/>
<text text-anchor="middle" x="662.5" y="-1853.6" font-family="Sans-Serif" font-size="13.00" fill="darkgrey">t_appels</text>
</g>
<!-- 674c70c2c5624658b587368590719ef6 -->
<g id="node24" class="node">
<title>674c70c2c5624658b587368590719ef6</title>
<image xlink:href="icons/bigquery.png" width="101px" height="101px" preserveAspectRatio="xMinYMin meet" x="798" y="-2140.5"/>
<text text-anchor="middle" x="848.5" y="-2025.1" font-family="Sans-Serif" font-size="13.00" fill="#2d3436">amadeus.t_ama_import_gads</text>
</g>
<!-- 5532fb9483a24366b2e020cbd8a407cf&#45;&gt;674c70c2c5624658b587368590719ef6 -->
<g id="edge25" class="edge">
<title>5532fb9483a24366b2e020cbd8a407cf&#45;&gt;674c70c2c5624658b587368590719ef6</title>
<path fill="none" stroke="#7b8894" d="M477,-1978.54C477,-1994.62 477,-2007.17 477,-2007.17 477,-2007.17 832,-2007.17 832,-2007.17 832,-2007.17 832,-2011.22 832,-2011.22"/>
<polygon fill="#7b8894" stroke="#7b8894" points="828.5,-2011.22 832,-2021.22 835.5,-2011.22 828.5,-2011.22"/>
<text text-anchor="middle" x="662.5" y="-1972.6" font-family="Sans-Serif" font-size="13.00" fill="darkgrey">t_import_gads</text>
</g>
<!-- 8580a8cefb1c461e989d57c1b0bcbfe9 -->
<g id="node8" class="node">
<title>8580a8cefb1c461e989d57c1b0bcbfe9</title>
<image xlink:href="icons/bigquery.png" width="101px" height="101px" preserveAspectRatio="xMinYMin meet" x="1208" y="-2320.5"/>
<text text-anchor="middle" x="1258.5" y="-2205.1" font-family="Sans-Serif" font-size="13.00" fill="#2d3436">amadeus.t_ama_contrats_formulaires</text>
</g>
<!-- 39da4cd3d8a443b88e04bf819785acdb&#45;&gt;8580a8cefb1c461e989d57c1b0bcbfe9 -->
<g id="edge6" class="edge">
<title>39da4cd3d8a443b88e04bf819785acdb&#45;&gt;8580a8cefb1c461e989d57c1b0bcbfe9</title>
<path fill="none" stroke="#7b8894" d="M899.19,-2292.83C899.19,-2292.83 1197.93,-2292.83 1197.93,-2292.83"/>
<polygon fill="#7b8894" stroke="#7b8894" points="1197.93,-2296.33 1207.93,-2292.83 1197.93,-2289.33 1197.93,-2296.33"/>
<text text-anchor="middle" x="1043" y="-2273.6" font-family="Sans-Serif" font-size="13.00" fill="darkgrey">t_contrats_formulaires</text>
</g>
<!-- 00518de18d474f00aa6ad615dcf15fe1 -->
<g id="node10" class="node">
<title>00518de18d474f00aa6ad615dcf15fe1</title>
<image xlink:href="icons/bigquery.png" width="101px" height="101px" preserveAspectRatio="xMinYMin meet" x="1208" y="-2500.5"/>
<text text-anchor="middle" x="1258.5" y="-2385.1" font-family="Sans-Serif" font-size="13.00" fill="#2d3436">amadeus.t_ama_leads_formulaires</text>
</g>
<!-- 39da4cd3d8a443b88e04bf819785acdb&#45;&gt;00518de18d474f00aa6ad615dcf15fe1 -->
<g id="edge8" class="edge">
<title>39da4cd3d8a443b88e04bf819785acdb&#45;&gt;00518de18d474f00aa6ad615dcf15fe1</title>
<path fill="none" stroke="#7b8894" d="M874,-2338.56C874,-2345.04 874,-2349.25 874,-2349.25 874,-2349.25 1259,-2349.25 1259,-2349.25 1259,-2349.25 1259,-2371.4 1259,-2371.4"/>
<polygon fill="#7b8894" stroke="#7b8894" points="1255.5,-2371.4 1259,-2381.4 1262.5,-2371.4 1255.5,-2371.4"/>
<text text-anchor="middle" x="1043" y="-2394.6" font-family="Sans-Serif" font-size="13.00" fill="darkgrey">t_leads_formulaires</text>
</g>
<!-- 5a2de06d05bf4ed9b533c05e169401ab -->
<g id="node6" class="node">
<title>5a2de06d05bf4ed9b533c05e169401ab</title>
<image xlink:href="icons/bigquery.png" width="101px" height="101px" preserveAspectRatio="xMinYMin meet" x="426" y="-2320.5"/>
<text text-anchor="middle" x="476.5" y="-2205.1" font-family="Sans-Serif" font-size="13.00" fill="#2d3436">ga.l_ga_to_ama_ga_formulaires_stor_*</text>
</g>
<!-- 5a2de06d05bf4ed9b533c05e169401ab&#45;&gt;39da4cd3d8a443b88e04bf819785acdb -->
<g id="edge4" class="edge">
<title>5a2de06d05bf4ed9b533c05e169401ab&#45;&gt;39da4cd3d8a443b88e04bf819785acdb</title>
<path fill="none" stroke="#7b8894" d="M527.06,-2270C527.06,-2270 787.76,-2270 787.76,-2270"/>
<polygon fill="#7b8894" stroke="#7b8894" points="787.76,-2273.5 797.76,-2270 787.76,-2266.5 787.76,-2273.5"/>
<text text-anchor="middle" x="662.5" y="-2270.6" font-family="Sans-Serif" font-size="13.00" fill="darkgrey">t_formulaires_campagnes</text>
</g>
<!-- 5a2de06d05bf4ed9b533c05e169401ab&#45;&gt;9c7c289dcca74396b358488db10c7bb3 -->
<g id="edge10" class="edge">
<title>5a2de06d05bf4ed9b533c05e169401ab&#45;&gt;9c7c289dcca74396b358488db10c7bb3</title>
<path fill="none" stroke="#7b8894" d="M460,-2338.6C460,-2356.43 460,-2370.75 460,-2370.75 460,-2370.75 824,-2370.75 824,-2370.75 824,-2370.75 824,-2371.82 824,-2371.82"/>
<polygon fill="#7b8894" stroke="#7b8894" points="820.5,-2371.44 824,-2381.44 827.5,-2371.44 820.5,-2371.44"/>
<text text-anchor="middle" x="662.5" y="-2332.6" font-family="Sans-Serif" font-size="13.00" fill="darkgrey">t_formulaires_verif_flux_ga</text>
</g>
<!-- 7c6ce6a36b1846f0bca19417bf06e8da -->
<g id="node7" class="node">
<title>7c6ce6a36b1846f0bca19417bf06e8da</title>
<image xlink:href="icons/bigquery.png" width="101px" height="101px" preserveAspectRatio="xMinYMin meet" x="426" y="-2140.5"/>
<text text-anchor="middle" x="476.5" y="-2025.1" font-family="Sans-Serif" font-size="13.00" fill="#2d3436">ga.t_ga_correspondance_hash_campagnes</text>
</g>
<!-- 7c6ce6a36b1846f0bca19417bf06e8da&#45;&gt;39da4cd3d8a443b88e04bf819785acdb -->
<g id="edge5" class="edge">
<title>7c6ce6a36b1846f0bca19417bf06e8da&#45;&gt;39da4cd3d8a443b88e04bf819785acdb</title>
<path fill="none" stroke="#7b8894" d="M477,-2158.67C477,-2170.99 477,-2180 477,-2180 477,-2180 849,-2180 849,-2180 849,-2180 849,-2191.33 849,-2191.33"/>
<polygon fill="#7b8894" stroke="#7b8894" points="845.5,-2191.33 849,-2201.33 852.5,-2191.33 845.5,-2191.33"/>
<text text-anchor="middle" x="662.5" y="-2152.6" font-family="Sans-Serif" font-size="13.00" fill="darkgrey">t_formulaires_campagnes</text>
</g>
<!-- 41054a8e89fa49d1bfa1c52da4648379 -->
<g id="node9" class="node">
<title>41054a8e89fa49d1bfa1c52da4648379</title>
<image xlink:href="icons/bigquery.png" width="101px" height="101px" preserveAspectRatio="xMinYMin meet" x="798" y="-1960.5"/>
<text text-anchor="middle" x="848.5" y="-1845.1" font-family="Sans-Serif" font-size="13.00" fill="#2d3436">comper.e_v_digi_import_cube_valeur</text>
</g>
<!-- 41054a8e89fa49d1bfa1c52da4648379&#45;&gt;8580a8cefb1c461e989d57c1b0bcbfe9 -->
<g id="edge7" class="edge">
<title>41054a8e89fa49d1bfa1c52da4648379&#45;&gt;8580a8cefb1c461e989d57c1b0bcbfe9</title>
<path fill="none" stroke="#7b8894" d="M899.03,-1932.83C959.88,-1932.83 1054,-1932.83 1054,-1932.83 1054,-1932.83 1054,-2247.17 1054,-2247.17 1054,-2247.17 1197.95,-2247.17 1197.95,-2247.17"/>
<polygon fill="#7b8894" stroke="#7b8894" points="1197.95,-2250.67 1207.95,-2247.17 1197.95,-2243.67 1197.95,-2250.67"/>
<text text-anchor="middle" x="1043" y="-2169.6" font-family="Sans-Serif" font-size="13.00" fill="darkgrey">t_contrats_formulaires</text>
</g>
<!-- 09e5a44e07c34bf1b886c1f00f7ed5f0 -->
<g id="node19" class="node">
<title>09e5a44e07c34bf1b886c1f00f7ed5f0</title>
<image xlink:href="icons/bigquery.png" width="101px" height="101px" preserveAspectRatio="xMinYMin meet" x="1208" y="-2140.5"/>
<text text-anchor="middle" x="1258.5" y="-2025.1" font-family="Sans-Serif" font-size="13.00" fill="#2d3436">amadeus.t_ama_contrats_appels</text>
</g>
<!-- 41054a8e89fa49d1bfa1c52da4648379&#45;&gt;09e5a44e07c34bf1b886c1f00f7ed5f0 -->
<g id="edge19" class="edge">
<title>41054a8e89fa49d1bfa1c52da4648379&#45;&gt;09e5a44e07c34bf1b886c1f00f7ed5f0</title>
<path fill="none" stroke="#7b8894" d="M866,-1978.78C866,-1987.16 866,-1992.83 866,-1992.83 866,-1992.83 1259,-1992.83 1259,-1992.83 1259,-1992.83 1259,-2011.46 1259,-2011.46"/>
<polygon fill="#7b8894" stroke="#7b8894" points="1255.5,-2011.46 1259,-2021.46 1262.5,-2011.46 1255.5,-2011.46"/>
<text text-anchor="middle" x="1043" y="-2065.6" font-family="Sans-Serif" font-size="13.00" fill="darkgrey">t_contrats_appels</text>
</g>
<!-- 3d45a0b31ea24973a1ccff66b7dbb1be -->
<g id="node12" class="node">
<title>3d45a0b31ea24973a1ccff66b7dbb1be</title>
<image xlink:href="icons/bigquery.png" width="101px" height="101px" preserveAspectRatio="xMinYMin meet" x="426" y="-1420.5"/>
<text text-anchor="middle" x="476.5" y="-1305.1" font-family="Sans-Serif" font-size="13.00" fill="#2d3436">ga.t_ga_sessions</text>
</g>
<!-- 91fa64130f2e4a2386fb94c274a108b4 -->
<g id="node13" class="node">
<title>91fa64130f2e4a2386fb94c274a108b4</title>
<image xlink:href="icons/bigquery.png" width="101px" height="101px" preserveAspectRatio="xMinYMin meet" x="798" y="-1420.5"/>
<text text-anchor="middle" x="848.5" y="-1305.1" font-family="Sans-Serif" font-size="13.00" fill="#2d3436">amadeus.t_ama_appels_ga</text>
</g>
<!-- 3d45a0b31ea24973a1ccff66b7dbb1be&#45;&gt;91fa64130f2e4a2386fb94c274a108b4 -->
<g id="edge11" class="edge">
<title>3d45a0b31ea24973a1ccff66b7dbb1be&#45;&gt;91fa64130f2e4a2386fb94c274a108b4</title>
<path fill="none" stroke="#7b8894" d="M527.06,-1370C527.06,-1370 787.76,-1370 787.76,-1370"/>
<polygon fill="#7b8894" stroke="#7b8894" points="787.76,-1373.5 797.76,-1370 787.76,-1366.5 787.76,-1373.5"/>
<text text-anchor="middle" x="662.5" y="-1373.6" font-family="Sans-Serif" font-size="13.00" fill="darkgrey">t_appels_ga</text>
</g>
<!-- c7ad8c1c631b49fcbc37a0f0aa0afc9d -->
<g id="node23" class="node">
<title>c7ad8c1c631b49fcbc37a0f0aa0afc9d</title>
<image xlink:href="icons/bigquery.png" width="101px" height="101px" preserveAspectRatio="xMinYMin meet" x="798" y="-1240.5"/>
<text text-anchor="middle" x="848.5" y="-1125.1" font-family="Sans-Serif" font-size="13.00" fill="#2d3436">eloqua.t_elq_promo_applis_mobiles_tlgt_appli</text>
</g>
<!-- 3d45a0b31ea24973a1ccff66b7dbb1be&#45;&gt;c7ad8c1c631b49fcbc37a0f0aa0afc9d -->
<g id="edge24" class="edge">
<title>3d45a0b31ea24973a1ccff66b7dbb1be&#45;&gt;c7ad8c1c631b49fcbc37a0f0aa0afc9d</title>
<path fill="none" stroke="#7b8894" d="M477,-1301.35C477,-1282.67 477,-1267.5 477,-1267.5 477,-1267.5 866,-1267.5 866,-1267.5 866,-1267.5 866,-1266.61 866,-1266.61"/>
<polygon fill="#7b8894" stroke="#7b8894" points="869.5,-1268.61 866,-1258.61 862.5,-1268.61 869.5,-1268.61"/>
<text text-anchor="middle" x="662.5" y="-1283.6" font-family="Sans-Serif" font-size="13.00" fill="darkgrey">t_elq_promo_applis_mobiles_tlgt_appli</text>
</g>
<!-- 5bcd9855ed5b434f84017c079e27944b -->
<g id="node15" class="node">
<title>5bcd9855ed5b434f84017c079e27944b</title>
<image xlink:href="icons/bigquery.png" width="101px" height="101px" preserveAspectRatio="xMinYMin meet" x="1208" y="-959.5"/>
<text text-anchor="middle" x="1258.5" y="-844.1" font-family="Sans-Serif" font-size="13.00" fill="#2d3436">amadeus.t_ama_appels_leviers</text>
</g>
<!-- 91fa64130f2e4a2386fb94c274a108b4&#45;&gt;5bcd9855ed5b434f84017c079e27944b -->
<g id="edge13" class="edge">
<title>91fa64130f2e4a2386fb94c274a108b4&#45;&gt;5bcd9855ed5b434f84017c079e27944b</title>
<path fill="none" stroke="#7b8894" d="M899,-1347.17C919.31,-1347.17 938,-1347.17 938,-1347.17 938,-1347.17 938,-953.5 938,-953.5 938,-953.5 1197.72,-953.5 1197.72,-953.5"/>
<polygon fill="#7b8894" stroke="#7b8894" points="1197.72,-957 1207.72,-953.5 1197.72,-950 1197.72,-957"/>
<text text-anchor="middle" x="1043" y="-979.6" font-family="Sans-Serif" font-size="13.00" fill="darkgrey">t_appels_leviers</text>
</g>
<!-- 92f0f3f7c1a843f68b47ebc324014d18 -->
<g id="node20" class="node">
<title>92f0f3f7c1a843f68b47ebc324014d18</title>
<image xlink:href="icons/bigquery.png" width="101px" height="101px" preserveAspectRatio="xMinYMin meet" x="1527" y="-1395.5"/>
<text text-anchor="middle" x="1577.5" y="-1280.1" font-family="Sans-Serif" font-size="13.00" fill="#2d3436">amadeus.t_ama_contrats_appels_leviers</text>
</g>
<!-- 91fa64130f2e4a2386fb94c274a108b4&#45;&gt;92f0f3f7c1a843f68b47ebc324014d18 -->
<g id="edge21" class="edge">
<title>91fa64130f2e4a2386fb94c274a108b4&#45;&gt;92f0f3f7c1a843f68b47ebc324014d18</title>
<path fill="none" stroke="#7b8894" d="M832,-1301.3C832,-1293.91 832,-1289 832,-1289 832,-1289 1516.84,-1289 1516.84,-1289"/>
<polygon fill="#7b8894" stroke="#7b8894" points="1516.84,-1292.5 1526.84,-1289 1516.84,-1285.5 1516.84,-1292.5"/>
<text text-anchor="middle" x="1258.5" y="-1067.6" font-family="Sans-Serif" font-size="13.00" fill="darkgrey">t_contrats_appels_leviers</text>
</g>
<!-- 4456899f29e245b0a941f9d4b7dd08d5&#45;&gt;5bcd9855ed5b434f84017c079e27944b -->
<g id="edge12" class="edge">
<title>4456899f29e245b0a941f9d4b7dd08d5&#45;&gt;5bcd9855ed5b434f84017c079e27944b</title>
<path fill="none" stroke="#7b8894" d="M899.29,-1568.9C935.2,-1568.9 977,-1568.9 977,-1568.9 977,-1568.9 977,-965.5 977,-965.5 977,-965.5 1197.85,-965.5 1197.85,-965.5"/>
<polygon fill="#7b8894" stroke="#7b8894" points="1197.85,-969 1207.85,-965.5 1197.85,-962 1197.85,-969"/>
<text text-anchor="middle" x="1043" y="-1224.6" font-family="Sans-Serif" font-size="13.00" fill="darkgrey">t_appels_leviers</text>
</g>
<!-- 4456899f29e245b0a941f9d4b7dd08d5&#45;&gt;09e5a44e07c34bf1b886c1f00f7ed5f0 -->
<g id="edge18" class="edge">
<title>4456899f29e245b0a941f9d4b7dd08d5&#45;&gt;09e5a44e07c34bf1b886c1f00f7ed5f0</title>
<path fill="none" stroke="#7b8894" d="M899.16,-1685.5C970.78,-1685.5 1093,-1685.5 1093,-1685.5 1093,-1685.5 1093,-2090 1093,-2090 1093,-2090 1197.95,-2090 1197.95,-2090"/>
<polygon fill="#7b8894" stroke="#7b8894" points="1197.95,-2093.5 1207.95,-2090 1197.95,-2086.5 1197.95,-2093.5"/>
<text text-anchor="middle" x="1043" y="-1945.6" font-family="Sans-Serif" font-size="13.00" fill="darkgrey">t_contrats_appels</text>
</g>
<!-- 51d73e90f3b24d16800fa5124c9f146b -->
<g id="node25" class="node">
<title>51d73e90f3b24d16800fa5124c9f146b</title>
<image xlink:href="icons/bigquery.png" width="101px" height="101px" preserveAspectRatio="xMinYMin meet" x="1208" y="-1420.5"/>
<text text-anchor="middle" x="1258.5" y="-1305.1" font-family="Sans-Serif" font-size="13.00" fill="#2d3436">amadeus.t_ama_valeurs_plus40_datastudio_gads</text>
</g>
<!-- 4456899f29e245b0a941f9d4b7dd08d5&#45;&gt;51d73e90f3b24d16800fa5124c9f146b -->
<g id="edge26" class="edge">
<title>4456899f29e245b0a941f9d4b7dd08d5&#45;&gt;51d73e90f3b24d16800fa5124c9f146b</title>
<path fill="none" stroke="#7b8894" d="M899.09,-1593.7C989.63,-1593.7 1170,-1593.7 1170,-1593.7 1170,-1593.7 1170,-1392.83 1170,-1392.83 1170,-1392.83 1197.79,-1392.83 1197.79,-1392.83"/>
<polygon fill="#7b8894" stroke="#7b8894" points="1197.79,-1396.33 1207.79,-1392.83 1197.79,-1389.33 1197.79,-1396.33"/>
<text text-anchor="middle" x="1043" y="-1447.6" font-family="Sans-Serif" font-size="13.00" fill="darkgrey">t_valeurs_plus40_datastudio_gads</text>
</g>
<!-- 0a7953a4aa9242b2809c171c0ff3b1c9 -->
<g id="node26" class="node">
<title>0a7953a4aa9242b2809c171c0ff3b1c9</title>
<image xlink:href="icons/bigquery.png" width="101px" height="101px" preserveAspectRatio="xMinYMin meet" x="1208" y="-1600.5"/>
<text text-anchor="middle" x="1258.5" y="-1485.1" font-family="Sans-Serif" font-size="13.00" fill="#2d3436">amadeus.t_ama_valeurs_datastudio_gads</text>
</g>
<!-- 4456899f29e245b0a941f9d4b7dd08d5&#45;&gt;0a7953a4aa9242b2809c171c0ff3b1c9 -->
<g id="edge27" class="edge">
<title>4456899f29e245b0a941f9d4b7dd08d5&#45;&gt;0a7953a4aa9242b2809c171c0ff3b1c9</title>
<path fill="none" stroke="#7b8894" d="M899.19,-1606.1C899.19,-1606.1 1197.93,-1606.1 1197.93,-1606.1"/>
<polygon fill="#7b8894" stroke="#7b8894" points="1197.93,-1609.6 1207.93,-1606.1 1197.93,-1602.6 1197.93,-1609.6"/>
<text text-anchor="middle" x="1043" y="-1583.6" font-family="Sans-Serif" font-size="13.00" fill="darkgrey">t_valeurs_datastudio_gads</text>
</g>
<!-- d5f12e39521b4221929fae884ddeb08d -->
<g id="node27" class="node">
<title>d5f12e39521b4221929fae884ddeb08d</title>
<image xlink:href="icons/bigquery.png" width="101px" height="101px" preserveAspectRatio="xMinYMin meet" x="1208" y="-1780.5"/>
<text text-anchor="middle" x="1258.5" y="-1665.1" font-family="Sans-Serif" font-size="13.00" fill="#2d3436">amadeus.t_ama_valeurs_sousindicateur_gads</text>
</g>
<!-- 4456899f29e245b0a941f9d4b7dd08d5&#45;&gt;d5f12e39521b4221929fae884ddeb08d -->
<g id="edge28" class="edge">
<title>4456899f29e245b0a941f9d4b7dd08d5&#45;&gt;d5f12e39521b4221929fae884ddeb08d</title>
<path fill="none" stroke="#7b8894" d="M899.19,-1669.5C899.19,-1669.5 1197.93,-1669.5 1197.93,-1669.5"/>
<polygon fill="#7b8894" stroke="#7b8894" points="1197.93,-1673 1207.93,-1669.5 1197.93,-1666 1197.93,-1673"/>
<text text-anchor="middle" x="1043" y="-1674.6" font-family="Sans-Serif" font-size="13.00" fill="darkgrey">t_valeurs_sousindicateur_gads</text>
</g>
<!-- 01b2d8958fb64fe5ae223e9ca1bc867e -->
<g id="node28" class="node">
<title>01b2d8958fb64fe5ae223e9ca1bc867e</title>
<image xlink:href="icons/bigquery.png" width="101px" height="101px" preserveAspectRatio="xMinYMin meet" x="1208" y="-1960.5"/>
<text text-anchor="middle" x="1258.5" y="-1845.1" font-family="Sans-Serif" font-size="13.00" fill="#2d3436">amadeus.t_ama_anciennes_valeurs_gads</text>
</g>
<!-- 4456899f29e245b0a941f9d4b7dd08d5&#45;&gt;01b2d8958fb64fe5ae223e9ca1bc867e -->
<g id="edge29" class="edge">
<title>4456899f29e245b0a941f9d4b7dd08d5&#45;&gt;01b2d8958fb64fe5ae223e9ca1bc867e</title>
<path fill="none" stroke="#7b8894" d="M899.01,-1677.5C980.26,-1677.5 1131,-1677.5 1131,-1677.5 1131,-1677.5 1131,-1887.17 1131,-1887.17 1131,-1887.17 1197.74,-1887.17 1197.74,-1887.17"/>
<polygon fill="#7b8894" stroke="#7b8894" points="1197.74,-1890.67 1207.74,-1887.17 1197.74,-1883.67 1197.74,-1890.67"/>
<text text-anchor="middle" x="1043" y="-1825.6" font-family="Sans-Serif" font-size="13.00" fill="darkgrey">t_anciennes_valeurs_gads</text>
</g>
<!-- ac8d0edd38fa4fb39e99cec823b4028a -->
<g id="node29" class="node">
<title>ac8d0edd38fa4fb39e99cec823b4028a</title>
<image xlink:href="icons/bigquery.png" width="101px" height="101px" preserveAspectRatio="xMinYMin meet" x="1208" y="-1240.5"/>
<text text-anchor="middle" x="1258.5" y="-1125.1" font-family="Sans-Serif" font-size="13.00" fill="#2d3436">amadeus.t_ama_anciennes_valeurs_sousindicateur_gads</text>
</g>
<!-- 4456899f29e245b0a941f9d4b7dd08d5&#45;&gt;ac8d0edd38fa4fb39e99cec823b4028a -->
<g id="edge30" class="edge">
<title>4456899f29e245b0a941f9d4b7dd08d5&#45;&gt;ac8d0edd38fa4fb39e99cec823b4028a</title>
<path fill="none" stroke="#7b8894" d="M899.36,-1581.3C948.32,-1581.3 1015,-1581.3 1015,-1581.3 1015,-1581.3 1015,-1190 1015,-1190 1015,-1190 1197.75,-1190 1197.75,-1190"/>
<polygon fill="#7b8894" stroke="#7b8894" points="1197.75,-1193.5 1207.75,-1190 1197.75,-1186.5 1197.75,-1193.5"/>
<text text-anchor="middle" x="1043" y="-1352.6" font-family="Sans-Serif" font-size="13.00" fill="darkgrey">t_anciennes_valeurs_sousindicateur_gads</text>
</g>
<!-- 8817bcf1e9cf42f9a1b3753aeb2a22ed -->
<g id="node18" class="node">
<title>8817bcf1e9cf42f9a1b3753aeb2a22ed</title>
<image xlink:href="icons/bigquery.png" width="101px" height="101px" preserveAspectRatio="xMinYMin meet" x="1527" y="-959.5"/>
<text text-anchor="middle" x="1577.5" y="-844.1" font-family="Sans-Serif" font-size="13.00" fill="#2d3436">amadeus.t_ama_leads_appels</text>
</g>
<!-- 5bcd9855ed5b434f84017c079e27944b&#45;&gt;8817bcf1e9cf42f9a1b3753aeb2a22ed -->
<g id="edge17" class="edge">
<title>5bcd9855ed5b434f84017c079e27944b&#45;&gt;8817bcf1e9cf42f9a1b3753aeb2a22ed</title>
<path fill="none" stroke="#7b8894" d="M1309.05,-909C1309.05,-909 1516.93,-909 1516.93,-909"/>
<polygon fill="#7b8894" stroke="#7b8894" points="1516.93,-912.5 1526.93,-909 1516.93,-905.5 1516.93,-912.5"/>
<text text-anchor="middle" x="1428.5" y="-912.6" font-family="Sans-Serif" font-size="13.00" fill="darkgrey">t_leads_appels</text>
</g>
<!-- 03241e19ba004b14816cdc2a4639b392 -->
<g id="node16" class="node">
<title>03241e19ba004b14816cdc2a4639b392</title>
<image xlink:href="icons/bigquery.png" width="101px" height="101px" preserveAspectRatio="xMinYMin meet" x="426" y="-1600.5"/>
<text text-anchor="middle" x="476.5" y="-1485.1" font-family="Sans-Serif" font-size="13.00" fill="#2d3436">amadeus.e_ama_appels_2020</text>
</g>
<!-- 03241e19ba004b14816cdc2a4639b392&#45;&gt;4456899f29e245b0a941f9d4b7dd08d5 -->
<g id="edge15" class="edge">
<title>03241e19ba004b14816cdc2a4639b392&#45;&gt;4456899f29e245b0a941f9d4b7dd08d5</title>
<path fill="none" stroke="#7b8894" d="M527.06,-1587.5C527.06,-1587.5 787.76,-1587.5 787.76,-1587.5"/>
<polygon fill="#7b8894" stroke="#7b8894" points="787.76,-1591 797.76,-1587.5 787.76,-1584 787.76,-1591"/>
<text text-anchor="middle" x="662.5" y="-1582.6" font-family="Sans-Serif" font-size="13.00" fill="darkgrey">t_appels</text>
</g>
<!-- 7a0234a344af4e58920e2fcd57bfca22 -->
<g id="node17" class="node">
<title>7a0234a344af4e58920e2fcd57bfca22</title>
<image xlink:href="icons/bigquery.png" width="101px" height="101px" preserveAspectRatio="xMinYMin meet" x="426" y="-1780.5"/>
<text text-anchor="middle" x="476.5" y="-1665.1" font-family="Sans-Serif" font-size="13.00" fill="#2d3436">amadeus.e_ama_appels_2018_2019</text>
</g>
<!-- 7a0234a344af4e58920e2fcd57bfca22&#45;&gt;4456899f29e245b0a941f9d4b7dd08d5 -->
<g id="edge16" class="edge">
<title>7a0234a344af4e58920e2fcd57bfca22&#45;&gt;4456899f29e245b0a941f9d4b7dd08d5</title>
<path fill="none" stroke="#7b8894" d="M527.06,-1672.17C527.06,-1672.17 787.76,-1672.17 787.76,-1672.17"/>
<polygon fill="#7b8894" stroke="#7b8894" points="787.76,-1675.67 797.76,-1672.17 787.76,-1668.67 787.76,-1675.67"/>
<text text-anchor="middle" x="662.5" y="-1674.6" font-family="Sans-Serif" font-size="13.00" fill="darkgrey">t_appels</text>
</g>
<!-- 09e5a44e07c34bf1b886c1f00f7ed5f0&#45;&gt;92f0f3f7c1a843f68b47ebc324014d18 -->
<g id="edge20" class="edge">
<title>09e5a44e07c34bf1b886c1f00f7ed5f0&#45;&gt;92f0f3f7c1a843f68b47ebc324014d18</title>
<path fill="none" stroke="#7b8894" d="M1309.13,-2090C1399.22,-2090 1578,-2090 1578,-2090 1578,-2090 1578,-1423.75 1578,-1423.75"/>
<polygon fill="#7b8894" stroke="#7b8894" points="1581.5,-1423.75 1578,-1413.75 1574.5,-1423.75 1581.5,-1423.75"/>
<text text-anchor="middle" x="1428.5" y="-1604.6" font-family="Sans-Serif" font-size="13.00" fill="darkgrey">t_contrats_appels_leviers</text>
</g>
<!-- 670bd1d8661442e19c41e95a9678a57c -->
<g id="node21" class="node">
<title>670bd1d8661442e19c41e95a9678a57c</title>
<image xlink:href="icons/storage.png" width="101px" height="101px" preserveAspectRatio="xMinYMin meet" x="16" y="-1240.5"/>
<text text-anchor="middle" x="66.5" y="-1125.1" font-family="Sans-Serif" font-size="13.00" fill="#2d3436">amadeus_bi.eloqua/AMA_GOOG_RETR_MARK_ELQC_315_*</text>
</g>
<!-- ae55a88283dd480eaf7484aadf047768 -->
<g id="node22" class="node">
<title>ae55a88283dd480eaf7484aadf047768</title>
<image xlink:href="icons/bigquery.png" width="101px" height="101px" preserveAspectRatio="xMinYMin meet" x="426" y="-1240.5"/>
<text text-anchor="middle" x="476.5" y="-1125.1" font-family="Sans-Serif" font-size="13.00" fill="#2d3436">eloqua.e_elq_promo_applis_mobiles_clics_emails</text>
</g>
<!-- 670bd1d8661442e19c41e95a9678a57c&#45;&gt;ae55a88283dd480eaf7484aadf047768 -->
<g id="edge22" class="edge">
<title>670bd1d8661442e19c41e95a9678a57c&#45;&gt;ae55a88283dd480eaf7484aadf047768</title>
<path fill="none" stroke="#7b8894" d="M117.19,-1190C117.19,-1190 415.93,-1190 415.93,-1190"/>
<polygon fill="#7b8894" stroke="#7b8894" points="415.93,-1193.5 425.93,-1190 415.93,-1186.5 415.93,-1193.5"/>
<text text-anchor="middle" x="271.5" y="-1193.6" font-family="Sans-Serif" font-size="13.00" fill="darkgrey">e_elq_promo_applis_mobiles_clics_emails</text>
</g>
<!-- ae55a88283dd480eaf7484aadf047768&#45;&gt;c7ad8c1c631b49fcbc37a0f0aa0afc9d -->
<g id="edge23" class="edge">
<title>ae55a88283dd480eaf7484aadf047768&#45;&gt;c7ad8c1c631b49fcbc37a0f0aa0afc9d</title>
<path fill="none" stroke="#7b8894" d="M527.06,-1190C527.06,-1190 787.76,-1190 787.76,-1190"/>
<polygon fill="#7b8894" stroke="#7b8894" points="787.76,-1193.5 797.76,-1190 787.76,-1186.5 787.76,-1193.5"/>
<text text-anchor="middle" x="662.5" y="-1193.6" font-family="Sans-Serif" font-size="13.00" fill="darkgrey">t_elq_promo_applis_mobiles_tlgt_appli</text>
</g>
<!-- 46cef7b656694c28a729f42d4a1cdaa5 -->
<g id="node30" class="node">
<title>46cef7b656694c28a729f42d4a1cdaa5</title>
<image xlink:href="icons/bigquery.png" width="101px" height="101px" preserveAspectRatio="xMinYMin meet" x="16" y="-1060.5"/>
<text text-anchor="middle" x="66.5" y="-945.1" font-family="Sans-Serif" font-size="13.00" fill="#2d3436">comper.t_v_digi_cube_valeur</text>
</g>
<!-- 7453510b4b5643cbbd89bb76df5c0fa9 -->
<g id="node31" class="node">
<title>7453510b4b5643cbbd89bb76df5c0fa9</title>
<image xlink:href="icons/bigquery.png" width="101px" height="101px" preserveAspectRatio="xMinYMin meet" x="426" y="-1060.5"/>
<text text-anchor="middle" x="476.5" y="-945.1" font-family="Sans-Serif" font-size="13.00" fill="#2d3436">amadeus.t_ama_parrainage</text>
</g>
<!-- 46cef7b656694c28a729f42d4a1cdaa5&#45;&gt;7453510b4b5643cbbd89bb76df5c0fa9 -->
<g id="edge31" class="edge">
<title>46cef7b656694c28a729f42d4a1cdaa5&#45;&gt;7453510b4b5643cbbd89bb76df5c0fa9</title>
<path fill="none" stroke="#7b8894" d="M117.19,-1010C117.19,-1010 415.93,-1010 415.93,-1010"/>
<polygon fill="#7b8894" stroke="#7b8894" points="415.93,-1013.5 425.93,-1010 415.93,-1006.5 415.93,-1013.5"/>
<text text-anchor="middle" x="271.5" y="-1013.6" font-family="Sans-Serif" font-size="13.00" fill="darkgrey">t_parrainage</text>
</g>
<!-- cee8b8917dd144bba333c631e03e9bde -->
<g id="node32" class="node">
<title>cee8b8917dd144bba333c631e03e9bde</title>
<image xlink:href="icons/bigquery.png" width="101px" height="101px" preserveAspectRatio="xMinYMin meet" x="798" y="-1060.5"/>
<text text-anchor="middle" x="848.5" y="-945.1" font-family="Sans-Serif" font-size="13.00" fill="#2d3436">comper.l_ama_to_ds_comper_t_ama_parrainage</text>
</g>
<!-- 7453510b4b5643cbbd89bb76df5c0fa9&#45;&gt;cee8b8917dd144bba333c631e03e9bde -->
<g id="edge32" class="edge">
<title>7453510b4b5643cbbd89bb76df5c0fa9&#45;&gt;cee8b8917dd144bba333c631e03e9bde</title>
<path fill="none" stroke="#7b8894" d="M527.06,-1010C527.06,-1010 787.76,-1010 787.76,-1010"/>
<polygon fill="#7b8894" stroke="#7b8894" points="787.76,-1013.5 797.76,-1010 787.76,-1006.5 787.76,-1013.5"/>
<text text-anchor="middle" x="662.5" y="-1013.6" font-family="Sans-Serif" font-size="13.00" fill="darkgrey">l_to_ds_comper_t_ama_parrainage</text>
</g>
<!-- 91e18291ab2e4bdab5295b3615105bac -->
<g id="node33" class="node">
<title>91e18291ab2e4bdab5295b3615105bac</title>
<image xlink:href="icons/bigquery.png" width="101px" height="101px" preserveAspectRatio="xMinYMin meet" x="16" y="-880.5"/>
<text text-anchor="middle" x="66.5" y="-765.1" font-family="Sans-Serif" font-size="13.00" fill="#2d3436">amadeus.e_gsheet_contrats_services</text>
</g>
<!-- e969ed02d3ba42ce8ed07e252d0acdcc -->
<g id="node34" class="node">
<title>e969ed02d3ba42ce8ed07e252d0acdcc</title>
<image xlink:href="icons/bigquery.png" width="101px" height="101px" preserveAspectRatio="xMinYMin meet" x="426" y="-880.5"/>
<text text-anchor="middle" x="476.5" y="-765.1" font-family="Sans-Serif" font-size="13.00" fill="#2d3436">comper.l_ama_to_ds_comper_contrats_services</text>
</g>
<!-- 91e18291ab2e4bdab5295b3615105bac&#45;&gt;e969ed02d3ba42ce8ed07e252d0acdcc -->
<g id="edge33" class="edge">
<title>91e18291ab2e4bdab5295b3615105bac&#45;&gt;e969ed02d3ba42ce8ed07e252d0acdcc</title>
<path fill="none" stroke="#7b8894" d="M117.19,-830C117.19,-830 415.93,-830 415.93,-830"/>
<polygon fill="#7b8894" stroke="#7b8894" points="415.93,-833.5 425.93,-830 415.93,-826.5 415.93,-833.5"/>
<text text-anchor="middle" x="271.5" y="-833.6" font-family="Sans-Serif" font-size="13.00" fill="darkgrey">l_to_ds_comper_contrats_services</text>
</g>
<!-- 6b1aa71aa5074aecbc9d136edf322a41 -->
<g id="node35" class="node">
<title>6b1aa71aa5074aecbc9d136edf322a41</title>
<image xlink:href="icons/bigquery.png" width="101px" height="101px" preserveAspectRatio="xMinYMin meet" x="16" y="-700.5"/>
<text text-anchor="middle" x="66.5" y="-585.1" font-family="Sans-Serif" font-size="13.00" fill="#2d3436">reporting_equipements.bout_en_bout_equipements</text>
</g>
<!-- b3ee35ce6fb84aa9b8a6df7092e1e326 -->
<g id="node36" class="node">
<title>b3ee35ce6fb84aa9b8a6df7092e1e326</title>
<image xlink:href="icons/bigquery.png" width="101px" height="101px" preserveAspectRatio="xMinYMin meet" x="426" y="-700.5"/>
<text text-anchor="middle" x="476.5" y="-585.1" font-family="Sans-Serif" font-size="13.00" fill="#2d3436">comper.l_ama_to_ds_comper_bout_en_bout_equipements</text>
</g>
<!-- 6b1aa71aa5074aecbc9d136edf322a41&#45;&gt;b3ee35ce6fb84aa9b8a6df7092e1e326 -->
<g id="edge34" class="edge">
<title>6b1aa71aa5074aecbc9d136edf322a41&#45;&gt;b3ee35ce6fb84aa9b8a6df7092e1e326</title>
<path fill="none" stroke="#7b8894" d="M117.19,-650C117.19,-650 415.93,-650 415.93,-650"/>
<polygon fill="#7b8894" stroke="#7b8894" points="415.93,-653.5 425.93,-650 415.93,-646.5 415.93,-653.5"/>
<text text-anchor="middle" x="271.5" y="-653.6" font-family="Sans-Serif" font-size="13.00" fill="darkgrey">l_to_ds_comper_bout_en_bout_equipements</text>
</g>
<!-- 139b34c588f94ce69364c20c22f122f9 -->
<g id="node37" class="node">
<title>139b34c588f94ce69364c20c22f122f9</title>
<image xlink:href="icons/bigquery.png" width="101px" height="101px" preserveAspectRatio="xMinYMin meet" x="16" y="-520.5"/>
<text text-anchor="middle" x="66.5" y="-405.1" font-family="Sans-Serif" font-size="13.00" fill="#2d3436">amadeus.e_ama_options_vertes</text>
</g>
<!-- 58e3ff576a2a41d7af6e19bd02fde48c -->
<g id="node38" class="node">
<title>58e3ff576a2a41d7af6e19bd02fde48c</title>
<image xlink:href="icons/bigquery.png" width="101px" height="101px" preserveAspectRatio="xMinYMin meet" x="426" y="-520.5"/>
<text text-anchor="middle" x="476.5" y="-405.1" font-family="Sans-Serif" font-size="13.00" fill="#2d3436">comper.t_ama_options_vertes</text>
</g>
<!-- 139b34c588f94ce69364c20c22f122f9&#45;&gt;58e3ff576a2a41d7af6e19bd02fde48c -->
<g id="edge35" class="edge">
<title>139b34c588f94ce69364c20c22f122f9&#45;&gt;58e3ff576a2a41d7af6e19bd02fde48c</title>
<path fill="none" stroke="#7b8894" d="M117.19,-470C117.19,-470 415.93,-470 415.93,-470"/>
<polygon fill="#7b8894" stroke="#7b8894" points="415.93,-473.5 425.93,-470 415.93,-466.5 415.93,-473.5"/>
<text text-anchor="middle" x="271.5" y="-473.6" font-family="Sans-Serif" font-size="13.00" fill="darkgrey">t_options_vertes</text>
</g>
<!-- 91c14dd0e9614e88850dd441600cf334 -->
<g id="node39" class="node">
<title>91c14dd0e9614e88850dd441600cf334</title>
<image xlink:href="icons/bigquery.png" width="101px" height="101px" preserveAspectRatio="xMinYMin meet" x="798" y="-520.5"/>
<text text-anchor="middle" x="848.5" y="-405.1" font-family="Sans-Serif" font-size="13.00" fill="#2d3436">comper.l_ama_to_ds_comper_options_vertes</text>
</g>
<!-- 58e3ff576a2a41d7af6e19bd02fde48c&#45;&gt;91c14dd0e9614e88850dd441600cf334 -->
<g id="edge36" class="edge">
<title>58e3ff576a2a41d7af6e19bd02fde48c&#45;&gt;91c14dd0e9614e88850dd441600cf334</title>
<path fill="none" stroke="#7b8894" d="M527.06,-470C527.06,-470 787.76,-470 787.76,-470"/>
<polygon fill="#7b8894" stroke="#7b8894" points="787.76,-473.5 797.76,-470 787.76,-466.5 787.76,-473.5"/>
<text text-anchor="middle" x="662.5" y="-473.6" font-family="Sans-Serif" font-size="13.00" fill="darkgrey">l_to_ds_comper_options_vertes</text>
</g>
<!-- dac73ef5ebd3411ea66431ade9bfa554 -->
<g id="node40" class="node">
<title>dac73ef5ebd3411ea66431ade9bfa554</title>
<image xlink:href="icons/bigquery.png" width="101px" height="101px" preserveAspectRatio="xMinYMin meet" x="16" y="-340.5"/>
<text text-anchor="middle" x="66.5" y="-225.1" font-family="Sans-Serif" font-size="13.00" fill="#2d3436">amadeus.e_ama_prelevement_mensualisation</text>
</g>
<!-- b217cf76c9ec4ff1a8e445116d485ce6 -->
<g id="node41" class="node">
<title>b217cf76c9ec4ff1a8e445116d485ce6</title>
<image xlink:href="icons/bigquery.png" width="101px" height="101px" preserveAspectRatio="xMinYMin meet" x="426" y="-340.5"/>
<text text-anchor="middle" x="476.5" y="-225.1" font-family="Sans-Serif" font-size="13.00" fill="#2d3436">comper.l_ama_to_ds_comper_prelevement_mensualisation</text>
</g>
<!-- dac73ef5ebd3411ea66431ade9bfa554&#45;&gt;b217cf76c9ec4ff1a8e445116d485ce6 -->
<g id="edge37" class="edge">
<title>dac73ef5ebd3411ea66431ade9bfa554&#45;&gt;b217cf76c9ec4ff1a8e445116d485ce6</title>
<path fill="none" stroke="#7b8894" d="M117.19,-290C117.19,-290 415.93,-290 415.93,-290"/>
<polygon fill="#7b8894" stroke="#7b8894" points="415.93,-293.5 425.93,-290 415.93,-286.5 415.93,-293.5"/>
<text text-anchor="middle" x="271.5" y="-293.6" font-family="Sans-Serif" font-size="13.00" fill="darkgrey">l_to_ds_comper_prelevement_mensualisation</text>
</g>
<!-- c1997751779d47a5b7543c6a4dc35f2a -->
<g id="node42" class="node">
<title>c1997751779d47a5b7543c6a4dc35f2a</title>
<image xlink:href="icons/bigquery.png" width="101px" height="101px" preserveAspectRatio="xMinYMin meet" x="16" y="-160.5"/>
<text text-anchor="middle" x="66.5" y="-45.1" font-family="Sans-Serif" font-size="13.00" fill="#2d3436">amadeus.e_gsheet_activation_energie</text>
</g>
<!-- fd62a519fc2d4fbfaf6e30488a24fac7 -->
<g id="node43" class="node">
<title>fd62a519fc2d4fbfaf6e30488a24fac7</title>
<image xlink:href="icons/bigquery.png" width="101px" height="101px" preserveAspectRatio="xMinYMin meet" x="426" y="-160.5"/>
<text text-anchor="middle" x="476.5" y="-45.1" font-family="Sans-Serif" font-size="13.00" fill="#2d3436">comper.l_ama_to_ds_comper_activation_energie</text>
</g>
<!-- c1997751779d47a5b7543c6a4dc35f2a&#45;&gt;fd62a519fc2d4fbfaf6e30488a24fac7 -->
<g id="edge38" class="edge">
<title>c1997751779d47a5b7543c6a4dc35f2a&#45;&gt;fd62a519fc2d4fbfaf6e30488a24fac7</title>
<path fill="none" stroke="#7b8894" d="M117.19,-110C117.19,-110 415.93,-110 415.93,-110"/>
<polygon fill="#7b8894" stroke="#7b8894" points="415.93,-113.5 425.93,-110 415.93,-106.5 415.93,-113.5"/>
<text text-anchor="middle" x="271.5" y="-113.6" font-family="Sans-Serif" font-size="13.00" fill="darkgrey">l_to_ds_comper_activation_energie</text>
</g>
</g>
</svg>
