<?xml version="1.0" encoding="UTF-8" standalone="no"?>
<!DOCTYPE svg PUBLIC "-//W3C//DTD SVG 1.1//EN"
 "http://www.w3.org/Graphics/SVG/1.1/DTD/svg11.dtd">
<!-- Generated by graphviz version 2.47.1 (20210417.1919)
 -->
<!-- Title: amadeus Pages: 1 -->
<svg width="1932pt" height="2844pt"
 viewBox="0.00 0.00 1932.00 2844.00" xmlns="http://www.w3.org/2000/svg" xmlns:xlink="http://www.w3.org/1999/xlink">
<g id="graph0" class="graph" transform="scale(1 1) rotate(0) translate(144 2700)">
<title>amadeus</title>
<text text-anchor="middle" x="822" y="-9" font-family="Sans-Serif" font-size="15.00" fill="#2d3436">amadeus</text>
<g id="clust1" class="cluster">
<title>cluster_amadeus</title>
<path fill="#e5f5fd" stroke="#aeb6be" d="M20,-33C20,-33 1624,-33 1624,-33 1630,-33 1636,-39 1636,-45 1636,-45 1636,-2536 1636,-2536 1636,-2542 1630,-2548 1624,-2548 1624,-2548 20,-2548 20,-2548 14,-2548 8,-2542 8,-2536 8,-2536 8,-45 8,-45 8,-39 14,-33 20,-33"/>
<text text-anchor="middle" x="40" y="-2534.4" font-family="Sans-Serif" font-size="12.00" fill="#2d3436">amadeus</text>
</g>
<!-- d5121f27105140ee9a00f3d611b666d1 -->
<g id="node1" class="node">
<title>d5121f27105140ee9a00f3d611b666d1</title>
<image xlink:href="icons/storage.png" width="101px" height="101px" preserveAspectRatio="xMinYMin meet" x="16" y="-2500.5"/>
<text text-anchor="middle" x="66.5" y="-2385.1" font-family="Sans-Serif" font-size="13.00" fill="#2d3436">amadeus_bi.formulaires/GA_VENT_DIGT_</text>
</g>
<!-- abb70ee99b0e49ad8fd4afca413a0208 -->
<g id="node2" class="node">
<title>abb70ee99b0e49ad8fd4afca413a0208</title>
<image xlink:href="icons/bigquery.png" width="101px" height="101px" preserveAspectRatio="xMinYMin meet" x="426" y="-2500.5"/>
<text text-anchor="middle" x="476.5" y="-2385.1" font-family="Sans-Serif" font-size="13.00" fill="#2d3436">amadeus.e_ama_formulaires_stor</text>
</g>
<!-- d5121f27105140ee9a00f3d611b666d1&#45;&gt;abb70ee99b0e49ad8fd4afca413a0208 -->
<g id="edge1" class="edge">
<title>d5121f27105140ee9a00f3d611b666d1&#45;&gt;abb70ee99b0e49ad8fd4afca413a0208</title>
<path fill="none" stroke="#7b8894" d="M117.19,-2450C117.19,-2450 415.93,-2450 415.93,-2450"/>
<polygon fill="#7b8894" stroke="#7b8894" points="415.93,-2453.5 425.93,-2450 415.93,-2446.5 415.93,-2453.5"/>
<text text-anchor="middle" x="271.5" y="-2453.6" font-family="Sans-Serif" font-size="13.00" fill="darkgrey">e_formulaires</text>
</g>
<!-- 3d537bc93fcf4ceaa6c3a766a469ec2e -->
<g id="node5" class="node">
<title>3d537bc93fcf4ceaa6c3a766a469ec2e</title>
<image xlink:href="icons/bigquery.png" width="101px" height="101px" preserveAspectRatio="xMinYMin meet" x="798" y="-2320.5"/>
<text text-anchor="middle" x="848.5" y="-2205.1" font-family="Sans-Serif" font-size="13.00" fill="#2d3436">amadeus.t_ama_formulaires_campagnes</text>
</g>
<!-- abb70ee99b0e49ad8fd4afca413a0208&#45;&gt;3d537bc93fcf4ceaa6c3a766a469ec2e -->
<g id="edge3" class="edge">
<title>abb70ee99b0e49ad8fd4afca413a0208&#45;&gt;3d537bc93fcf4ceaa6c3a766a469ec2e</title>
<path fill="none" stroke="#7b8894" d="M494,-2381.33C494,-2369.01 494,-2360 494,-2360 494,-2360 849,-2360 849,-2360 849,-2360 849,-2348.67 849,-2348.67"/>
<polygon fill="#7b8894" stroke="#7b8894" points="852.5,-2348.67 849,-2338.67 845.5,-2348.67 852.5,-2348.67"/>
<text text-anchor="middle" x="662.5" y="-2394.6" font-family="Sans-Serif" font-size="13.00" fill="darkgrey">t_formulaires_campagnes</text>
</g>
<!-- f9de133e8e73477aa332014d9a6ea4b4 -->
<g id="node11" class="node">
<title>f9de133e8e73477aa332014d9a6ea4b4</title>
<image xlink:href="icons/bigquery.png" width="101px" height="101px" preserveAspectRatio="xMinYMin meet" x="798" y="-2500.5"/>
<text text-anchor="middle" x="848.5" y="-2385.1" font-family="Sans-Serif" font-size="13.00" fill="#2d3436">amadeus.t_ama_formulaires_verif_flux_ga</text>
</g>
<!-- abb70ee99b0e49ad8fd4afca413a0208&#45;&gt;f9de133e8e73477aa332014d9a6ea4b4 -->
<g id="edge9" class="edge">
<title>abb70ee99b0e49ad8fd4afca413a0208&#45;&gt;f9de133e8e73477aa332014d9a6ea4b4</title>
<path fill="none" stroke="#7b8894" d="M527.06,-2450C527.06,-2450 787.76,-2450 787.76,-2450"/>
<polygon fill="#7b8894" stroke="#7b8894" points="787.76,-2453.5 797.76,-2450 787.76,-2446.5 787.76,-2453.5"/>
<text text-anchor="middle" x="662.5" y="-2456.6" font-family="Sans-Serif" font-size="13.00" fill="darkgrey">t_formulaires_verif_flux_ga</text>
</g>
<!-- 557b42c83cdb4c669b1f4d1a684fd66e -->
<g id="node3" class="node">
<title>557b42c83cdb4c669b1f4d1a684fd66e</title>
<image xlink:href="icons/storage.png" width="101px" height="101px" preserveAspectRatio="xMinYMin meet" x="16" y="-1960.5"/>
<text text-anchor="middle" x="66.5" y="-1845.1" font-family="Sans-Serif" font-size="13.00" fill="#2d3436">amadeus_bi.appels/GA_SVI_</text>
</g>
<!-- 26ff75354f2447ccb3d9eb372ccbdca7 -->
<g id="node4" class="node">
<title>26ff75354f2447ccb3d9eb372ccbdca7</title>
<image xlink:href="icons/bigquery.png" width="101px" height="101px" preserveAspectRatio="xMinYMin meet" x="426" y="-1960.5"/>
<text text-anchor="middle" x="476.5" y="-1845.1" font-family="Sans-Serif" font-size="13.00" fill="#2d3436">amadeus.e_ama_appels</text>
</g>
<!-- 557b42c83cdb4c669b1f4d1a684fd66e&#45;&gt;26ff75354f2447ccb3d9eb372ccbdca7 -->
<g id="edge2" class="edge">
<title>557b42c83cdb4c669b1f4d1a684fd66e&#45;&gt;26ff75354f2447ccb3d9eb372ccbdca7</title>
<path fill="none" stroke="#7b8894" d="M117.19,-1910C117.19,-1910 415.93,-1910 415.93,-1910"/>
<polygon fill="#7b8894" stroke="#7b8894" points="415.93,-1913.5 425.93,-1910 415.93,-1906.5 415.93,-1913.5"/>
<text text-anchor="middle" x="271.5" y="-1913.6" font-family="Sans-Serif" font-size="13.00" fill="darkgrey">e_appels</text>
</g>
<!-- 534297f420034408a1d9b2a540ab1dbd -->
<g id="node14" class="node">
<title>534297f420034408a1d9b2a540ab1dbd</title>
<image xlink:href="icons/bigquery.png" width="101px" height="101px" preserveAspectRatio="xMinYMin meet" x="798" y="-1675.5"/>
<text text-anchor="middle" x="848.5" y="-1560.1" font-family="Sans-Serif" font-size="13.00" fill="#2d3436">amadeus.t_ama_appels</text>
</g>
<!-- 26ff75354f2447ccb3d9eb372ccbdca7&#45;&gt;534297f420034408a1d9b2a540ab1dbd -->
<g id="edge14" class="edge">
<title>26ff75354f2447ccb3d9eb372ccbdca7&#45;&gt;534297f420034408a1d9b2a540ab1dbd</title>
<path fill="none" stroke="#7b8894" d="M527.46,-1910C582.68,-1910 663,-1910 663,-1910 663,-1910 663,-1682.83 663,-1682.83 663,-1682.83 787.81,-1682.83 787.81,-1682.83"/>
<polygon fill="#7b8894" stroke="#7b8894" points="787.81,-1686.33 797.81,-1682.83 787.81,-1679.33 787.81,-1686.33"/>
<text text-anchor="middle" x="662.5" y="-1853.6" font-family="Sans-Serif" font-size="13.00" fill="darkgrey">t_appels</text>
</g>
<!-- 4a6a9a8968f146208804ca6964c8ef70 -->
<g id="node24" class="node">
<title>4a6a9a8968f146208804ca6964c8ef70</title>
<image xlink:href="icons/bigquery.png" width="101px" height="101px" preserveAspectRatio="xMinYMin meet" x="798" y="-2140.5"/>
<text text-anchor="middle" x="848.5" y="-2025.1" font-family="Sans-Serif" font-size="13.00" fill="#2d3436">amadeus.t_ama_import_gads</text>
</g>
<!-- 26ff75354f2447ccb3d9eb372ccbdca7&#45;&gt;4a6a9a8968f146208804ca6964c8ef70 -->
<g id="edge25" class="edge">
<title>26ff75354f2447ccb3d9eb372ccbdca7&#45;&gt;4a6a9a8968f146208804ca6964c8ef70</title>
<path fill="none" stroke="#7b8894" d="M477,-1978.54C477,-1994.62 477,-2007.17 477,-2007.17 477,-2007.17 832,-2007.17 832,-2007.17 832,-2007.17 832,-2011.22 832,-2011.22"/>
<polygon fill="#7b8894" stroke="#7b8894" points="828.5,-2011.22 832,-2021.22 835.5,-2011.22 828.5,-2011.22"/>
<text text-anchor="middle" x="662.5" y="-1972.6" font-family="Sans-Serif" font-size="13.00" fill="darkgrey">t_import_gads</text>
</g>
<!-- 63bc65314ba94a30b204c79c55efd955 -->
<g id="node8" class="node">
<title>63bc65314ba94a30b204c79c55efd955</title>
<image xlink:href="icons/bigquery.png" width="101px" height="101px" preserveAspectRatio="xMinYMin meet" x="1208" y="-2320.5"/>
<text text-anchor="middle" x="1258.5" y="-2205.1" font-family="Sans-Serif" font-size="13.00" fill="#2d3436">amadeus.t_ama_contrats_formulaires</text>
</g>
<!-- 3d537bc93fcf4ceaa6c3a766a469ec2e&#45;&gt;63bc65314ba94a30b204c79c55efd955 -->
<g id="edge6" class="edge">
<title>3d537bc93fcf4ceaa6c3a766a469ec2e&#45;&gt;63bc65314ba94a30b204c79c55efd955</title>
<path fill="none" stroke="#7b8894" d="M899.19,-2292.83C899.19,-2292.83 1197.93,-2292.83 1197.93,-2292.83"/>
<polygon fill="#7b8894" stroke="#7b8894" points="1197.93,-2296.33 1207.93,-2292.83 1197.93,-2289.33 1197.93,-2296.33"/>
<text text-anchor="middle" x="1043" y="-2273.6" font-family="Sans-Serif" font-size="13.00" fill="darkgrey">t_contrats_formulaires</text>
</g>
<!-- b36f617076874fe38bbff830a1190260 -->
<g id="node10" class="node">
<title>b36f617076874fe38bbff830a1190260</title>
<image xlink:href="icons/bigquery.png" width="101px" height="101px" preserveAspectRatio="xMinYMin meet" x="1208" y="-2500.5"/>
<text text-anchor="middle" x="1258.5" y="-2385.1" font-family="Sans-Serif" font-size="13.00" fill="#2d3436">amadeus.t_ama_leads_formulaires</text>
</g>
<!-- 3d537bc93fcf4ceaa6c3a766a469ec2e&#45;&gt;b36f617076874fe38bbff830a1190260 -->
<g id="edge8" class="edge">
<title>3d537bc93fcf4ceaa6c3a766a469ec2e&#45;&gt;b36f617076874fe38bbff830a1190260</title>
<path fill="none" stroke="#7b8894" d="M874,-2338.56C874,-2345.04 874,-2349.25 874,-2349.25 874,-2349.25 1259,-2349.25 1259,-2349.25 1259,-2349.25 1259,-2371.4 1259,-2371.4"/>
<polygon fill="#7b8894" stroke="#7b8894" points="1255.5,-2371.4 1259,-2381.4 1262.5,-2371.4 1255.5,-2371.4"/>
<text text-anchor="middle" x="1043" y="-2394.6" font-family="Sans-Serif" font-size="13.00" fill="darkgrey">t_leads_formulaires</text>
</g>
<!-- d4977f11aca7421fa40f836982c51caa -->
<g id="node6" class="node">
<title>d4977f11aca7421fa40f836982c51caa</title>
<image xlink:href="icons/bigquery.png" width="101px" height="101px" preserveAspectRatio="xMinYMin meet" x="426" y="-2320.5"/>
<text text-anchor="middle" x="476.5" y="-2205.1" font-family="Sans-Serif" font-size="13.00" fill="#2d3436">ga.l_ga_to_ama_ga_formulaires_stor_*</text>
</g>
<!-- d4977f11aca7421fa40f836982c51caa&#45;&gt;3d537bc93fcf4ceaa6c3a766a469ec2e -->
<g id="edge4" class="edge">
<title>d4977f11aca7421fa40f836982c51caa&#45;&gt;3d537bc93fcf4ceaa6c3a766a469ec2e</title>
<path fill="none" stroke="#7b8894" d="M527.06,-2270C527.06,-2270 787.76,-2270 787.76,-2270"/>
<polygon fill="#7b8894" stroke="#7b8894" points="787.76,-2273.5 797.76,-2270 787.76,-2266.5 787.76,-2273.5"/>
<text text-anchor="middle" x="662.5" y="-2270.6" font-family="Sans-Serif" font-size="13.00" fill="darkgrey">t_formulaires_campagnes</text>
</g>
<!-- d4977f11aca7421fa40f836982c51caa&#45;&gt;f9de133e8e73477aa332014d9a6ea4b4 -->
<g id="edge10" class="edge">
<title>d4977f11aca7421fa40f836982c51caa&#45;&gt;f9de133e8e73477aa332014d9a6ea4b4</title>
<path fill="none" stroke="#7b8894" d="M460,-2338.6C460,-2356.43 460,-2370.75 460,-2370.75 460,-2370.75 824,-2370.75 824,-2370.75 824,-2370.75 824,-2371.82 824,-2371.82"/>
<polygon fill="#7b8894" stroke="#7b8894" points="820.5,-2371.44 824,-2381.44 827.5,-2371.44 820.5,-2371.44"/>
<text text-anchor="middle" x="662.5" y="-2332.6" font-family="Sans-Serif" font-size="13.00" fill="darkgrey">t_formulaires_verif_flux_ga</text>
</g>
<!-- 2ac87aa3982d40f78c645cf199235df6 -->
<g id="node7" class="node">
<title>2ac87aa3982d40f78c645cf199235df6</title>
<image xlink:href="icons/bigquery.png" width="101px" height="101px" preserveAspectRatio="xMinYMin meet" x="426" y="-2140.5"/>
<text text-anchor="middle" x="476.5" y="-2025.1" font-family="Sans-Serif" font-size="13.00" fill="#2d3436">ga.t_ga_correspondance_hash_campagnes</text>
</g>
<!-- 2ac87aa3982d40f78c645cf199235df6&#45;&gt;3d537bc93fcf4ceaa6c3a766a469ec2e -->
<g id="edge5" class="edge">
<title>2ac87aa3982d40f78c645cf199235df6&#45;&gt;3d537bc93fcf4ceaa6c3a766a469ec2e</title>
<path fill="none" stroke="#7b8894" d="M477,-2158.67C477,-2170.99 477,-2180 477,-2180 477,-2180 849,-2180 849,-2180 849,-2180 849,-2191.33 849,-2191.33"/>
<polygon fill="#7b8894" stroke="#7b8894" points="845.5,-2191.33 849,-2201.33 852.5,-2191.33 845.5,-2191.33"/>
<text text-anchor="middle" x="662.5" y="-2152.6" font-family="Sans-Serif" font-size="13.00" fill="darkgrey">t_formulaires_campagnes</text>
</g>
<!-- 4f9b71a6828e4ce9933d69d95236b37b -->
<g id="node9" class="node">
<title>4f9b71a6828e4ce9933d69d95236b37b</title>
<image xlink:href="icons/bigquery.png" width="101px" height="101px" preserveAspectRatio="xMinYMin meet" x="798" y="-1960.5"/>
<text text-anchor="middle" x="848.5" y="-1845.1" font-family="Sans-Serif" font-size="13.00" fill="#2d3436">comper.e_v_digi_import_cube_valeur</text>
</g>
<!-- 4f9b71a6828e4ce9933d69d95236b37b&#45;&gt;63bc65314ba94a30b204c79c55efd955 -->
<g id="edge7" class="edge">
<title>4f9b71a6828e4ce9933d69d95236b37b&#45;&gt;63bc65314ba94a30b204c79c55efd955</title>
<path fill="none" stroke="#7b8894" d="M899.03,-1932.83C959.88,-1932.83 1054,-1932.83 1054,-1932.83 1054,-1932.83 1054,-2247.17 1054,-2247.17 1054,-2247.17 1197.95,-2247.17 1197.95,-2247.17"/>
<polygon fill="#7b8894" stroke="#7b8894" points="1197.95,-2250.67 1207.95,-2247.17 1197.95,-2243.67 1197.95,-2250.67"/>
<text text-anchor="middle" x="1043" y="-2169.6" font-family="Sans-Serif" font-size="13.00" fill="darkgrey">t_contrats_formulaires</text>
</g>
<!-- 2cdfebf4bd0747d69c18f66c4ded1670 -->
<g id="node19" class="node">
<title>2cdfebf4bd0747d69c18f66c4ded1670</title>
<image xlink:href="icons/bigquery.png" width="101px" height="101px" preserveAspectRatio="xMinYMin meet" x="1208" y="-2140.5"/>
<text text-anchor="middle" x="1258.5" y="-2025.1" font-family="Sans-Serif" font-size="13.00" fill="#2d3436">amadeus.t_ama_contrats_appels</text>
</g>
<!-- 4f9b71a6828e4ce9933d69d95236b37b&#45;&gt;2cdfebf4bd0747d69c18f66c4ded1670 -->
<g id="edge19" class="edge">
<title>4f9b71a6828e4ce9933d69d95236b37b&#45;&gt;2cdfebf4bd0747d69c18f66c4ded1670</title>
<path fill="none" stroke="#7b8894" d="M866,-1978.78C866,-1987.16 866,-1992.83 866,-1992.83 866,-1992.83 1259,-1992.83 1259,-1992.83 1259,-1992.83 1259,-2011.46 1259,-2011.46"/>
<polygon fill="#7b8894" stroke="#7b8894" points="1255.5,-2011.46 1259,-2021.46 1262.5,-2011.46 1255.5,-2011.46"/>
<text text-anchor="middle" x="1043" y="-2065.6" font-family="Sans-Serif" font-size="13.00" fill="darkgrey">t_contrats_appels</text>
</g>
<!-- 65ac9d92a8d44b1784e64ea98195c2f3 -->
<g id="node12" class="node">
<title>65ac9d92a8d44b1784e64ea98195c2f3</title>
<image xlink:href="icons/bigquery.png" width="101px" height="101px" preserveAspectRatio="xMinYMin meet" x="426" y="-1420.5"/>
<text text-anchor="middle" x="476.5" y="-1305.1" font-family="Sans-Serif" font-size="13.00" fill="#2d3436">ga.t_ga_sessions</text>
</g>
<!-- b13a76f92ab7432e8c34ac4441b654f8 -->
<g id="node13" class="node">
<title>b13a76f92ab7432e8c34ac4441b654f8</title>
<image xlink:href="icons/bigquery.png" width="101px" height="101px" preserveAspectRatio="xMinYMin meet" x="798" y="-1420.5"/>
<text text-anchor="middle" x="848.5" y="-1305.1" font-family="Sans-Serif" font-size="13.00" fill="#2d3436">amadeus.t_ama_appels_ga</text>
</g>
<!-- 65ac9d92a8d44b1784e64ea98195c2f3&#45;&gt;b13a76f92ab7432e8c34ac4441b654f8 -->
<g id="edge11" class="edge">
<title>65ac9d92a8d44b1784e64ea98195c2f3&#45;&gt;b13a76f92ab7432e8c34ac4441b654f8</title>
<path fill="none" stroke="#7b8894" d="M527.06,-1370C527.06,-1370 787.76,-1370 787.76,-1370"/>
<polygon fill="#7b8894" stroke="#7b8894" points="787.76,-1373.5 797.76,-1370 787.76,-1366.5 787.76,-1373.5"/>
<text text-anchor="middle" x="662.5" y="-1373.6" font-family="Sans-Serif" font-size="13.00" fill="darkgrey">t_appels_ga</text>
</g>
<!-- 3d97fe914052424e9108f7cef67756ec -->
<g id="node23" class="node">
<title>3d97fe914052424e9108f7cef67756ec</title>
<image xlink:href="icons/bigquery.png" width="101px" height="101px" preserveAspectRatio="xMinYMin meet" x="798" y="-1240.5"/>
<text text-anchor="middle" x="848.5" y="-1125.1" font-family="Sans-Serif" font-size="13.00" fill="#2d3436">eloqua.t_elq_promo_applis_mobiles_tlgt_appli</text>
</g>
<!-- 65ac9d92a8d44b1784e64ea98195c2f3&#45;&gt;3d97fe914052424e9108f7cef67756ec -->
<g id="edge24" class="edge">
<title>65ac9d92a8d44b1784e64ea98195c2f3&#45;&gt;3d97fe914052424e9108f7cef67756ec</title>
<path fill="none" stroke="#7b8894" d="M477,-1301.35C477,-1282.67 477,-1267.5 477,-1267.5 477,-1267.5 866,-1267.5 866,-1267.5 866,-1267.5 866,-1266.61 866,-1266.61"/>
<polygon fill="#7b8894" stroke="#7b8894" points="869.5,-1268.61 866,-1258.61 862.5,-1268.61 869.5,-1268.61"/>
<text text-anchor="middle" x="662.5" y="-1283.6" font-family="Sans-Serif" font-size="13.00" fill="darkgrey">t_elq_promo_applis_mobiles_tlgt_appli</text>
</g>
<!-- 7c729e71358a4f658b8d3055f0b1f777 -->
<g id="node15" class="node">
<title>7c729e71358a4f658b8d3055f0b1f777</title>
<image xlink:href="icons/bigquery.png" width="101px" height="101px" preserveAspectRatio="xMinYMin meet" x="1208" y="-959.5"/>
<text text-anchor="middle" x="1258.5" y="-844.1" font-family="Sans-Serif" font-size="13.00" fill="#2d3436">amadeus.t_ama_appels_leviers</text>
</g>
<!-- b13a76f92ab7432e8c34ac4441b654f8&#45;&gt;7c729e71358a4f658b8d3055f0b1f777 -->
<g id="edge13" class="edge">
<title>b13a76f92ab7432e8c34ac4441b654f8&#45;&gt;7c729e71358a4f658b8d3055f0b1f777</title>
<path fill="none" stroke="#7b8894" d="M899,-1347.17C919.31,-1347.17 938,-1347.17 938,-1347.17 938,-1347.17 938,-953.5 938,-953.5 938,-953.5 1197.72,-953.5 1197.72,-953.5"/>
<polygon fill="#7b8894" stroke="#7b8894" points="1197.72,-957 1207.72,-953.5 1197.72,-950 1197.72,-957"/>
<text text-anchor="middle" x="1043" y="-979.6" font-family="Sans-Serif" font-size="13.00" fill="darkgrey">t_appels_leviers</text>
</g>
<!-- 5815621e2ca2400bb3f0f9008cb36a3d -->
<g id="node20" class="node">
<title>5815621e2ca2400bb3f0f9008cb36a3d</title>
<image xlink:href="icons/bigquery.png" width="101px" height="101px" preserveAspectRatio="xMinYMin meet" x="1527" y="-1395.5"/>
<text text-anchor="middle" x="1577.5" y="-1280.1" font-family="Sans-Serif" font-size="13.00" fill="#2d3436">amadeus.t_ama_contrats_appels_leviers</text>
</g>
<!-- b13a76f92ab7432e8c34ac4441b654f8&#45;&gt;5815621e2ca2400bb3f0f9008cb36a3d -->
<g id="edge21" class="edge">
<title>b13a76f92ab7432e8c34ac4441b654f8&#45;&gt;5815621e2ca2400bb3f0f9008cb36a3d</title>
<path fill="none" stroke="#7b8894" d="M832,-1301.3C832,-1293.91 832,-1289 832,-1289 832,-1289 1516.84,-1289 1516.84,-1289"/>
<polygon fill="#7b8894" stroke="#7b8894" points="1516.84,-1292.5 1526.84,-1289 1516.84,-1285.5 1516.84,-1292.5"/>
<text text-anchor="middle" x="1258.5" y="-1067.6" font-family="Sans-Serif" font-size="13.00" fill="darkgrey">t_contrats_appels_leviers</text>
</g>
<!-- 534297f420034408a1d9b2a540ab1dbd&#45;&gt;7c729e71358a4f658b8d3055f0b1f777 -->
<g id="edge12" class="edge">
<title>534297f420034408a1d9b2a540ab1dbd&#45;&gt;7c729e71358a4f658b8d3055f0b1f777</title>
<path fill="none" stroke="#7b8894" d="M899.29,-1568.9C935.2,-1568.9 977,-1568.9 977,-1568.9 977,-1568.9 977,-965.5 977,-965.5 977,-965.5 1197.85,-965.5 1197.85,-965.5"/>
<polygon fill="#7b8894" stroke="#7b8894" points="1197.85,-969 1207.85,-965.5 1197.85,-962 1197.85,-969"/>
<text text-anchor="middle" x="1043" y="-1224.6" font-family="Sans-Serif" font-size="13.00" fill="darkgrey">t_appels_leviers</text>
</g>
<!-- 534297f420034408a1d9b2a540ab1dbd&#45;&gt;2cdfebf4bd0747d69c18f66c4ded1670 -->
<g id="edge18" class="edge">
<title>534297f420034408a1d9b2a540ab1dbd&#45;&gt;2cdfebf4bd0747d69c18f66c4ded1670</title>
<path fill="none" stroke="#7b8894" d="M899.16,-1685.5C970.78,-1685.5 1093,-1685.5 1093,-1685.5 1093,-1685.5 1093,-2090 1093,-2090 1093,-2090 1197.95,-2090 1197.95,-2090"/>
<polygon fill="#7b8894" stroke="#7b8894" points="1197.95,-2093.5 1207.95,-2090 1197.95,-2086.5 1197.95,-2093.5"/>
<text text-anchor="middle" x="1043" y="-1945.6" font-family="Sans-Serif" font-size="13.00" fill="darkgrey">t_contrats_appels</text>
</g>
<!-- 4067fb3d6feb46fbbdef4e1a5429c460 -->
<g id="node25" class="node">
<title>4067fb3d6feb46fbbdef4e1a5429c460</title>
<image xlink:href="icons/bigquery.png" width="101px" height="101px" preserveAspectRatio="xMinYMin meet" x="1208" y="-1420.5"/>
<text text-anchor="middle" x="1258.5" y="-1305.1" font-family="Sans-Serif" font-size="13.00" fill="#2d3436">amadeus.t_ama_valeurs_plus40_datastudio_gads</text>
</g>
<!-- 534297f420034408a1d9b2a540ab1dbd&#45;&gt;4067fb3d6feb46fbbdef4e1a5429c460 -->
<g id="edge26" class="edge">
<title>534297f420034408a1d9b2a540ab1dbd&#45;&gt;4067fb3d6feb46fbbdef4e1a5429c460</title>
<path fill="none" stroke="#7b8894" d="M899.09,-1593.7C989.63,-1593.7 1170,-1593.7 1170,-1593.7 1170,-1593.7 1170,-1392.83 1170,-1392.83 1170,-1392.83 1197.79,-1392.83 1197.79,-1392.83"/>
<polygon fill="#7b8894" stroke="#7b8894" points="1197.79,-1396.33 1207.79,-1392.83 1197.79,-1389.33 1197.79,-1396.33"/>
<text text-anchor="middle" x="1043" y="-1447.6" font-family="Sans-Serif" font-size="13.00" fill="darkgrey">t_valeurs_plus40_datastudio_gads</text>
</g>
<!-- 0d9b195929c3441b80e47ee1acabe945 -->
<g id="node26" class="node">
<title>0d9b195929c3441b80e47ee1acabe945</title>
<image xlink:href="icons/bigquery.png" width="101px" height="101px" preserveAspectRatio="xMinYMin meet" x="1208" y="-1600.5"/>
<text text-anchor="middle" x="1258.5" y="-1485.1" font-family="Sans-Serif" font-size="13.00" fill="#2d3436">amadeus.t_ama_valeurs_datastudio_gads</text>
</g>
<!-- 534297f420034408a1d9b2a540ab1dbd&#45;&gt;0d9b195929c3441b80e47ee1acabe945 -->
<g id="edge27" class="edge">
<title>534297f420034408a1d9b2a540ab1dbd&#45;&gt;0d9b195929c3441b80e47ee1acabe945</title>
<path fill="none" stroke="#7b8894" d="M899.19,-1606.1C899.19,-1606.1 1197.93,-1606.1 1197.93,-1606.1"/>
<polygon fill="#7b8894" stroke="#7b8894" points="1197.93,-1609.6 1207.93,-1606.1 1197.93,-1602.6 1197.93,-1609.6"/>
<text text-anchor="middle" x="1043" y="-1583.6" font-family="Sans-Serif" font-size="13.00" fill="darkgrey">t_valeurs_datastudio_gads</text>
</g>
<!-- 2de5c7b8229d4ca2b25a57845980e1fd -->
<g id="node27" class="node">
<title>2de5c7b8229d4ca2b25a57845980e1fd</title>
<image xlink:href="icons/bigquery.png" width="101px" height="101px" preserveAspectRatio="xMinYMin meet" x="1208" y="-1780.5"/>
<text text-anchor="middle" x="1258.5" y="-1665.1" font-family="Sans-Serif" font-size="13.00" fill="#2d3436">amadeus.t_ama_valeurs_sousindicateur_gads</text>
</g>
<!-- 534297f420034408a1d9b2a540ab1dbd&#45;&gt;2de5c7b8229d4ca2b25a57845980e1fd -->
<g id="edge28" class="edge">
<title>534297f420034408a1d9b2a540ab1dbd&#45;&gt;2de5c7b8229d4ca2b25a57845980e1fd</title>
<path fill="none" stroke="#7b8894" d="M899.19,-1669.5C899.19,-1669.5 1197.93,-1669.5 1197.93,-1669.5"/>
<polygon fill="#7b8894" stroke="#7b8894" points="1197.93,-1673 1207.93,-1669.5 1197.93,-1666 1197.93,-1673"/>
<text text-anchor="middle" x="1043" y="-1674.6" font-family="Sans-Serif" font-size="13.00" fill="darkgrey">t_valeurs_sousindicateur_gads</text>
</g>
<!-- cb7dcb559d32427a921ac5ba0bda610b -->
<g id="node28" class="node">
<title>cb7dcb559d32427a921ac5ba0bda610b</title>
<image xlink:href="icons/bigquery.png" width="101px" height="101px" preserveAspectRatio="xMinYMin meet" x="1208" y="-1960.5"/>
<text text-anchor="middle" x="1258.5" y="-1845.1" font-family="Sans-Serif" font-size="13.00" fill="#2d3436">amadeus.t_ama_anciennes_valeurs_gads</text>
</g>
<!-- 534297f420034408a1d9b2a540ab1dbd&#45;&gt;cb7dcb559d32427a921ac5ba0bda610b -->
<g id="edge29" class="edge">
<title>534297f420034408a1d9b2a540ab1dbd&#45;&gt;cb7dcb559d32427a921ac5ba0bda610b</title>
<path fill="none" stroke="#7b8894" d="M899.01,-1677.5C980.26,-1677.5 1131,-1677.5 1131,-1677.5 1131,-1677.5 1131,-1887.17 1131,-1887.17 1131,-1887.17 1197.74,-1887.17 1197.74,-1887.17"/>
<polygon fill="#7b8894" stroke="#7b8894" points="1197.74,-1890.67 1207.74,-1887.17 1197.74,-1883.67 1197.74,-1890.67"/>
<text text-anchor="middle" x="1043" y="-1825.6" font-family="Sans-Serif" font-size="13.00" fill="darkgrey">t_anciennes_valeurs_gads</text>
</g>
<!-- 9eaeba128c3e4e2f85a22e59a3871619 -->
<g id="node29" class="node">
<title>9eaeba128c3e4e2f85a22e59a3871619</title>
<image xlink:href="icons/bigquery.png" width="101px" height="101px" preserveAspectRatio="xMinYMin meet" x="1208" y="-1240.5"/>
<text text-anchor="middle" x="1258.5" y="-1125.1" font-family="Sans-Serif" font-size="13.00" fill="#2d3436">amadeus.t_ama_anciennes_valeurs_sousindicateur_gads</text>
</g>
<!-- 534297f420034408a1d9b2a540ab1dbd&#45;&gt;9eaeba128c3e4e2f85a22e59a3871619 -->
<g id="edge30" class="edge">
<title>534297f420034408a1d9b2a540ab1dbd&#45;&gt;9eaeba128c3e4e2f85a22e59a3871619</title>
<path fill="none" stroke="#7b8894" d="M899.36,-1581.3C948.32,-1581.3 1015,-1581.3 1015,-1581.3 1015,-1581.3 1015,-1190 1015,-1190 1015,-1190 1197.75,-1190 1197.75,-1190"/>
<polygon fill="#7b8894" stroke="#7b8894" points="1197.75,-1193.5 1207.75,-1190 1197.75,-1186.5 1197.75,-1193.5"/>
<text text-anchor="middle" x="1043" y="-1352.6" font-family="Sans-Serif" font-size="13.00" fill="darkgrey">t_anciennes_valeurs_sousindicateur_gads</text>
</g>
<!-- 411efe6b9ed74d4981dd26ff8cc721a8 -->
<g id="node18" class="node">
<title>411efe6b9ed74d4981dd26ff8cc721a8</title>
<image xlink:href="icons/bigquery.png" width="101px" height="101px" preserveAspectRatio="xMinYMin meet" x="1527" y="-959.5"/>
<text text-anchor="middle" x="1577.5" y="-844.1" font-family="Sans-Serif" font-size="13.00" fill="#2d3436">amadeus.t_ama_leads_appels</text>
</g>
<!-- 7c729e71358a4f658b8d3055f0b1f777&#45;&gt;411efe6b9ed74d4981dd26ff8cc721a8 -->
<g id="edge17" class="edge">
<title>7c729e71358a4f658b8d3055f0b1f777&#45;&gt;411efe6b9ed74d4981dd26ff8cc721a8</title>
<path fill="none" stroke="#7b8894" d="M1309.05,-909C1309.05,-909 1516.93,-909 1516.93,-909"/>
<polygon fill="#7b8894" stroke="#7b8894" points="1516.93,-912.5 1526.93,-909 1516.93,-905.5 1516.93,-912.5"/>
<text text-anchor="middle" x="1428.5" y="-912.6" font-family="Sans-Serif" font-size="13.00" fill="darkgrey">t_leads_appels</text>
</g>
<!-- 27c655eaed7047f19f08591959087c68 -->
<g id="node16" class="node">
<title>27c655eaed7047f19f08591959087c68</title>
<image xlink:href="icons/bigquery.png" width="101px" height="101px" preserveAspectRatio="xMinYMin meet" x="426" y="-1600.5"/>
<text text-anchor="middle" x="476.5" y="-1485.1" font-family="Sans-Serif" font-size="13.00" fill="#2d3436">amadeus.e_ama_appels_2020</text>
</g>
<!-- 27c655eaed7047f19f08591959087c68&#45;&gt;534297f420034408a1d9b2a540ab1dbd -->
<g id="edge15" class="edge">
<title>27c655eaed7047f19f08591959087c68&#45;&gt;534297f420034408a1d9b2a540ab1dbd</title>
<path fill="none" stroke="#7b8894" d="M527.06,-1587.5C527.06,-1587.5 787.76,-1587.5 787.76,-1587.5"/>
<polygon fill="#7b8894" stroke="#7b8894" points="787.76,-1591 797.76,-1587.5 787.76,-1584 787.76,-1591"/>
<text text-anchor="middle" x="662.5" y="-1582.6" font-family="Sans-Serif" font-size="13.00" fill="darkgrey">t_appels</text>
</g>
<!-- b93f594de3d6463cbadc4a2982f17ce8 -->
<g id="node17" class="node">
<title>b93f594de3d6463cbadc4a2982f17ce8</title>
<image xlink:href="icons/bigquery.png" width="101px" height="101px" preserveAspectRatio="xMinYMin meet" x="426" y="-1780.5"/>
<text text-anchor="middle" x="476.5" y="-1665.1" font-family="Sans-Serif" font-size="13.00" fill="#2d3436">amadeus.e_ama_appels_2018_2019</text>
</g>
<!-- b93f594de3d6463cbadc4a2982f17ce8&#45;&gt;534297f420034408a1d9b2a540ab1dbd -->
<g id="edge16" class="edge">
<title>b93f594de3d6463cbadc4a2982f17ce8&#45;&gt;534297f420034408a1d9b2a540ab1dbd</title>
<path fill="none" stroke="#7b8894" d="M527.06,-1672.17C527.06,-1672.17 787.76,-1672.17 787.76,-1672.17"/>
<polygon fill="#7b8894" stroke="#7b8894" points="787.76,-1675.67 797.76,-1672.17 787.76,-1668.67 787.76,-1675.67"/>
<text text-anchor="middle" x="662.5" y="-1674.6" font-family="Sans-Serif" font-size="13.00" fill="darkgrey">t_appels</text>
</g>
<!-- 2cdfebf4bd0747d69c18f66c4ded1670&#45;&gt;5815621e2ca2400bb3f0f9008cb36a3d -->
<g id="edge20" class="edge">
<title>2cdfebf4bd0747d69c18f66c4ded1670&#45;&gt;5815621e2ca2400bb3f0f9008cb36a3d</title>
<path fill="none" stroke="#7b8894" d="M1309.13,-2090C1399.22,-2090 1578,-2090 1578,-2090 1578,-2090 1578,-1423.75 1578,-1423.75"/>
<polygon fill="#7b8894" stroke="#7b8894" points="1581.5,-1423.75 1578,-1413.75 1574.5,-1423.75 1581.5,-1423.75"/>
<text text-anchor="middle" x="1428.5" y="-1604.6" font-family="Sans-Serif" font-size="13.00" fill="darkgrey">t_contrats_appels_leviers</text>
</g>
<!-- 30db586339ce4d2aa71c874777d000dc -->
<g id="node21" class="node">
<title>30db586339ce4d2aa71c874777d000dc</title>
<image xlink:href="icons/storage.png" width="101px" height="101px" preserveAspectRatio="xMinYMin meet" x="16" y="-1240.5"/>
<text text-anchor="middle" x="66.5" y="-1125.1" font-family="Sans-Serif" font-size="13.00" fill="#2d3436">amadeus_bi.eloqua/AMA_GOOG_RETR_MARK_ELQC_315_*</text>
</g>
<!-- 585bf496e0094543b532fd97e7dfbce4 -->
<g id="node22" class="node">
<title>585bf496e0094543b532fd97e7dfbce4</title>
<image xlink:href="icons/bigquery.png" width="101px" height="101px" preserveAspectRatio="xMinYMin meet" x="426" y="-1240.5"/>
<text text-anchor="middle" x="476.5" y="-1125.1" font-family="Sans-Serif" font-size="13.00" fill="#2d3436">eloqua.e_elq_promo_applis_mobiles_clics_emails</text>
</g>
<!-- 30db586339ce4d2aa71c874777d000dc&#45;&gt;585bf496e0094543b532fd97e7dfbce4 -->
<g id="edge22" class="edge">
<title>30db586339ce4d2aa71c874777d000dc&#45;&gt;585bf496e0094543b532fd97e7dfbce4</title>
<path fill="none" stroke="#7b8894" d="M117.19,-1190C117.19,-1190 415.93,-1190 415.93,-1190"/>
<polygon fill="#7b8894" stroke="#7b8894" points="415.93,-1193.5 425.93,-1190 415.93,-1186.5 415.93,-1193.5"/>
<text text-anchor="middle" x="271.5" y="-1193.6" font-family="Sans-Serif" font-size="13.00" fill="darkgrey">e_elq_promo_applis_mobiles_clics_emails</text>
</g>
<!-- 585bf496e0094543b532fd97e7dfbce4&#45;&gt;3d97fe914052424e9108f7cef67756ec -->
<g id="edge23" class="edge">
<title>585bf496e0094543b532fd97e7dfbce4&#45;&gt;3d97fe914052424e9108f7cef67756ec</title>
<path fill="none" stroke="#7b8894" d="M527.06,-1190C527.06,-1190 787.76,-1190 787.76,-1190"/>
<polygon fill="#7b8894" stroke="#7b8894" points="787.76,-1193.5 797.76,-1190 787.76,-1186.5 787.76,-1193.5"/>
<text text-anchor="middle" x="662.5" y="-1193.6" font-family="Sans-Serif" font-size="13.00" fill="darkgrey">t_elq_promo_applis_mobiles_tlgt_appli</text>
</g>
<!-- da8af6184f934a7c927bf678e2ef97be -->
<g id="node30" class="node">
<title>da8af6184f934a7c927bf678e2ef97be</title>
<image xlink:href="icons/bigquery.png" width="101px" height="101px" preserveAspectRatio="xMinYMin meet" x="16" y="-1060.5"/>
<text text-anchor="middle" x="66.5" y="-945.1" font-family="Sans-Serif" font-size="13.00" fill="#2d3436">comper.t_v_digi_cube_valeur</text>
</g>
<!-- a662b0b784e345939bd0f53f2ac219fe -->
<g id="node31" class="node">
<title>a662b0b784e345939bd0f53f2ac219fe</title>
<image xlink:href="icons/bigquery.png" width="101px" height="101px" preserveAspectRatio="xMinYMin meet" x="426" y="-1060.5"/>
<text text-anchor="middle" x="476.5" y="-945.1" font-family="Sans-Serif" font-size="13.00" fill="#2d3436">amadeus.t_ama_parrainage</text>
</g>
<!-- da8af6184f934a7c927bf678e2ef97be&#45;&gt;a662b0b784e345939bd0f53f2ac219fe -->
<g id="edge31" class="edge">
<title>da8af6184f934a7c927bf678e2ef97be&#45;&gt;a662b0b784e345939bd0f53f2ac219fe</title>
<path fill="none" stroke="#7b8894" d="M117.19,-1010C117.19,-1010 415.93,-1010 415.93,-1010"/>
<polygon fill="#7b8894" stroke="#7b8894" points="415.93,-1013.5 425.93,-1010 415.93,-1006.5 415.93,-1013.5"/>
<text text-anchor="middle" x="271.5" y="-1013.6" font-family="Sans-Serif" font-size="13.00" fill="darkgrey">t_parrainage</text>
</g>
<!-- 1187dbfac51648e58ffe39a7c578007f -->
<g id="node32" class="node">
<title>1187dbfac51648e58ffe39a7c578007f</title>
<image xlink:href="icons/bigquery.png" width="101px" height="101px" preserveAspectRatio="xMinYMin meet" x="798" y="-1060.5"/>
<text text-anchor="middle" x="848.5" y="-945.1" font-family="Sans-Serif" font-size="13.00" fill="#2d3436">comper.l_ama_to_ds_comper_t_ama_parrainage</text>
</g>
<!-- a662b0b784e345939bd0f53f2ac219fe&#45;&gt;1187dbfac51648e58ffe39a7c578007f -->
<g id="edge32" class="edge">
<title>a662b0b784e345939bd0f53f2ac219fe&#45;&gt;1187dbfac51648e58ffe39a7c578007f</title>
<path fill="none" stroke="#7b8894" d="M527.06,-1010C527.06,-1010 787.76,-1010 787.76,-1010"/>
<polygon fill="#7b8894" stroke="#7b8894" points="787.76,-1013.5 797.76,-1010 787.76,-1006.5 787.76,-1013.5"/>
<text text-anchor="middle" x="662.5" y="-1013.6" font-family="Sans-Serif" font-size="13.00" fill="darkgrey">l_to_ds_comper_t_ama_parrainage</text>
</g>
<!-- d6e4849a050d4da39483494eb4926079 -->
<g id="node33" class="node">
<title>d6e4849a050d4da39483494eb4926079</title>
<image xlink:href="icons/bigquery.png" width="101px" height="101px" preserveAspectRatio="xMinYMin meet" x="16" y="-880.5"/>
<text text-anchor="middle" x="66.5" y="-765.1" font-family="Sans-Serif" font-size="13.00" fill="#2d3436">amadeus.e_gsheet_contrats_services</text>
</g>
<!-- d3367ea4afb24d029f576cc041f7bdd2 -->
<g id="node34" class="node">
<title>d3367ea4afb24d029f576cc041f7bdd2</title>
<image xlink:href="icons/bigquery.png" width="101px" height="101px" preserveAspectRatio="xMinYMin meet" x="426" y="-880.5"/>
<text text-anchor="middle" x="476.5" y="-765.1" font-family="Sans-Serif" font-size="13.00" fill="#2d3436">comper.l_ama_to_ds_comper_contrats_services</text>
</g>
<!-- d6e4849a050d4da39483494eb4926079&#45;&gt;d3367ea4afb24d029f576cc041f7bdd2 -->
<g id="edge33" class="edge">
<title>d6e4849a050d4da39483494eb4926079&#45;&gt;d3367ea4afb24d029f576cc041f7bdd2</title>
<path fill="none" stroke="#7b8894" d="M117.19,-830C117.19,-830 415.93,-830 415.93,-830"/>
<polygon fill="#7b8894" stroke="#7b8894" points="415.93,-833.5 425.93,-830 415.93,-826.5 415.93,-833.5"/>
<text text-anchor="middle" x="271.5" y="-833.6" font-family="Sans-Serif" font-size="13.00" fill="darkgrey">l_to_ds_comper_contrats_services</text>
</g>
<!-- 271e507c8f0f448ba2ef518d5187f470 -->
<g id="node35" class="node">
<title>271e507c8f0f448ba2ef518d5187f470</title>
<image xlink:href="icons/bigquery.png" width="101px" height="101px" preserveAspectRatio="xMinYMin meet" x="16" y="-700.5"/>
<text text-anchor="middle" x="66.5" y="-585.1" font-family="Sans-Serif" font-size="13.00" fill="#2d3436">reporting_equipements.bout_en_bout_equipements</text>
</g>
<!-- 41264dd60c73486685f4606849a07258 -->
<g id="node36" class="node">
<title>41264dd60c73486685f4606849a07258</title>
<image xlink:href="icons/bigquery.png" width="101px" height="101px" preserveAspectRatio="xMinYMin meet" x="426" y="-700.5"/>
<text text-anchor="middle" x="476.5" y="-585.1" font-family="Sans-Serif" font-size="13.00" fill="#2d3436">comper.l_ama_to_ds_comper_bout_en_bout_equipements</text>
</g>
<!-- 271e507c8f0f448ba2ef518d5187f470&#45;&gt;41264dd60c73486685f4606849a07258 -->
<g id="edge34" class="edge">
<title>271e507c8f0f448ba2ef518d5187f470&#45;&gt;41264dd60c73486685f4606849a07258</title>
<path fill="none" stroke="#7b8894" d="M117.19,-650C117.19,-650 415.93,-650 415.93,-650"/>
<polygon fill="#7b8894" stroke="#7b8894" points="415.93,-653.5 425.93,-650 415.93,-646.5 415.93,-653.5"/>
<text text-anchor="middle" x="271.5" y="-653.6" font-family="Sans-Serif" font-size="13.00" fill="darkgrey">l_to_ds_comper_bout_en_bout_equipements</text>
</g>
<!-- 1a6f322fdf074730b893aae06b6bc42d -->
<g id="node37" class="node">
<title>1a6f322fdf074730b893aae06b6bc42d</title>
<image xlink:href="icons/bigquery.png" width="101px" height="101px" preserveAspectRatio="xMinYMin meet" x="16" y="-520.5"/>
<text text-anchor="middle" x="66.5" y="-405.1" font-family="Sans-Serif" font-size="13.00" fill="#2d3436">amadeus.e_ama_options_vertes</text>
</g>
<!-- 5676e512968b41719029c91160c39ca2 -->
<g id="node38" class="node">
<title>5676e512968b41719029c91160c39ca2</title>
<image xlink:href="icons/bigquery.png" width="101px" height="101px" preserveAspectRatio="xMinYMin meet" x="426" y="-520.5"/>
<text text-anchor="middle" x="476.5" y="-405.1" font-family="Sans-Serif" font-size="13.00" fill="#2d3436">comper.t_ama_options_vertes</text>
</g>
<!-- 1a6f322fdf074730b893aae06b6bc42d&#45;&gt;5676e512968b41719029c91160c39ca2 -->
<g id="edge35" class="edge">
<title>1a6f322fdf074730b893aae06b6bc42d&#45;&gt;5676e512968b41719029c91160c39ca2</title>
<path fill="none" stroke="#7b8894" d="M117.19,-470C117.19,-470 415.93,-470 415.93,-470"/>
<polygon fill="#7b8894" stroke="#7b8894" points="415.93,-473.5 425.93,-470 415.93,-466.5 415.93,-473.5"/>
<text text-anchor="middle" x="271.5" y="-473.6" font-family="Sans-Serif" font-size="13.00" fill="darkgrey">t_options_vertes</text>
</g>
<!-- 17f77038a6a4455ba213682516c84961 -->
<g id="node39" class="node">
<title>17f77038a6a4455ba213682516c84961</title>
<image xlink:href="icons/bigquery.png" width="101px" height="101px" preserveAspectRatio="xMinYMin meet" x="798" y="-520.5"/>
<text text-anchor="middle" x="848.5" y="-405.1" font-family="Sans-Serif" font-size="13.00" fill="#2d3436">comper.l_ama_to_ds_comper_options_vertes</text>
</g>
<!-- 5676e512968b41719029c91160c39ca2&#45;&gt;17f77038a6a4455ba213682516c84961 -->
<g id="edge36" class="edge">
<title>5676e512968b41719029c91160c39ca2&#45;&gt;17f77038a6a4455ba213682516c84961</title>
<path fill="none" stroke="#7b8894" d="M527.06,-470C527.06,-470 787.76,-470 787.76,-470"/>
<polygon fill="#7b8894" stroke="#7b8894" points="787.76,-473.5 797.76,-470 787.76,-466.5 787.76,-473.5"/>
<text text-anchor="middle" x="662.5" y="-473.6" font-family="Sans-Serif" font-size="13.00" fill="darkgrey">l_to_ds_comper_options_vertes</text>
</g>
<!-- 62e8c49e3efc4e6babb8d70d96f4e697 -->
<g id="node40" class="node">
<title>62e8c49e3efc4e6babb8d70d96f4e697</title>
<image xlink:href="icons/bigquery.png" width="101px" height="101px" preserveAspectRatio="xMinYMin meet" x="16" y="-340.5"/>
<text text-anchor="middle" x="66.5" y="-225.1" font-family="Sans-Serif" font-size="13.00" fill="#2d3436">amadeus.e_ama_prelevement_mensualisation</text>
</g>
<!-- 455de076c55e405baa636bcea4e84bcc -->
<g id="node41" class="node">
<title>455de076c55e405baa636bcea4e84bcc</title>
<image xlink:href="icons/bigquery.png" width="101px" height="101px" preserveAspectRatio="xMinYMin meet" x="426" y="-340.5"/>
<text text-anchor="middle" x="476.5" y="-225.1" font-family="Sans-Serif" font-size="13.00" fill="#2d3436">comper.l_ama_to_ds_comper_prelevement_mensualisation</text>
</g>
<!-- 62e8c49e3efc4e6babb8d70d96f4e697&#45;&gt;455de076c55e405baa636bcea4e84bcc -->
<g id="edge37" class="edge">
<title>62e8c49e3efc4e6babb8d70d96f4e697&#45;&gt;455de076c55e405baa636bcea4e84bcc</title>
<path fill="none" stroke="#7b8894" d="M117.19,-290C117.19,-290 415.93,-290 415.93,-290"/>
<polygon fill="#7b8894" stroke="#7b8894" points="415.93,-293.5 425.93,-290 415.93,-286.5 415.93,-293.5"/>
<text text-anchor="middle" x="271.5" y="-293.6" font-family="Sans-Serif" font-size="13.00" fill="darkgrey">l_to_ds_comper_prelevement_mensualisation</text>
</g>
<!-- 3ecab9e344a34d6788035faf8841b801 -->
<g id="node42" class="node">
<title>3ecab9e344a34d6788035faf8841b801</title>
<image xlink:href="icons/bigquery.png" width="101px" height="101px" preserveAspectRatio="xMinYMin meet" x="16" y="-160.5"/>
<text text-anchor="middle" x="66.5" y="-45.1" font-family="Sans-Serif" font-size="13.00" fill="#2d3436">amadeus.e_gsheet_activation_energie</text>
</g>
<!-- 7bc5d66dec764a1cbf7334e7a7b996eb -->
<g id="node43" class="node">
<title>7bc5d66dec764a1cbf7334e7a7b996eb</title>
<image xlink:href="icons/bigquery.png" width="101px" height="101px" preserveAspectRatio="xMinYMin meet" x="426" y="-160.5"/>
<text text-anchor="middle" x="476.5" y="-45.1" font-family="Sans-Serif" font-size="13.00" fill="#2d3436">comper.l_ama_to_ds_comper_activation_energie</text>
</g>
<!-- 3ecab9e344a34d6788035faf8841b801&#45;&gt;7bc5d66dec764a1cbf7334e7a7b996eb -->
<g id="edge38" class="edge">
<title>3ecab9e344a34d6788035faf8841b801&#45;&gt;7bc5d66dec764a1cbf7334e7a7b996eb</title>
<path fill="none" stroke="#7b8894" d="M117.19,-110C117.19,-110 415.93,-110 415.93,-110"/>
<polygon fill="#7b8894" stroke="#7b8894" points="415.93,-113.5 425.93,-110 415.93,-106.5 415.93,-113.5"/>
<text text-anchor="middle" x="271.5" y="-113.6" font-family="Sans-Serif" font-size="13.00" fill="darkgrey">l_to_ds_comper_activation_energie</text>
</g>
</g>
</svg>
