<?xml version="1.0" encoding="UTF-8" standalone="no"?>
<!DOCTYPE svg PUBLIC "-//W3C//DTD SVG 1.1//EN"
 "http://www.w3.org/Graphics/SVG/1.1/DTD/svg11.dtd">
<!-- Generated by graphviz version 2.47.1 (20210417.1919)
 -->
<!-- Title: amadeus Pages: 1 -->
<svg width="1858pt" height="3504pt"
 viewBox="0.00 0.00 1858.00 3504.00" xmlns="http://www.w3.org/2000/svg" xmlns:xlink="http://www.w3.org/1999/xlink">
<g id="graph0" class="graph" transform="scale(1 1) rotate(0) translate(144 3360)">
<title>amadeus</title>
<text text-anchor="middle" x="785" y="-9" font-family="Sans-Serif" font-size="15.00" fill="#2d3436">amadeus</text>
<!-- b222df6d8e0d4b808bf60905d0484f57 -->
<g id="node1" class="node">
<title>b222df6d8e0d4b808bf60905d0484f57</title>
<image xlink:href="icons/bigquery.png" width="101px" height="101px" preserveAspectRatio="xMinYMin meet" x="410" y="-1758"/>
<text text-anchor="middle" x="460.5" y="-1642.6" font-family="Sans-Serif" font-size="13.00" fill="#2d3436">amadeus.e_ama_formulaires_stor</text>
</g>
<!-- b47b3679f6844595bde947a4f5f2bece -->
<g id="node5" class="node">
<title>b47b3679f6844595bde947a4f5f2bece</title>
<image xlink:href="icons/bigquery.png" width="101px" height="101px" preserveAspectRatio="xMinYMin meet" x="782" y="-1944"/>
<text text-anchor="middle" x="832.5" y="-1828.6" font-family="Sans-Serif" font-size="13.00" fill="#2d3436">amadeus.t_ama_formulaires_campagnes</text>
</g>
<!-- b222df6d8e0d4b808bf60905d0484f57&#45;&gt;b47b3679f6844595bde947a4f5f2bece -->
<g id="edge3" class="edge">
<title>b222df6d8e0d4b808bf60905d0484f57&#45;&gt;b47b3679f6844595bde947a4f5f2bece</title>
<path fill="none" stroke="#7b8894" d="M444,-1776.28C444,-1785.17 444,-1791.25 444,-1791.25 444,-1791.25 833,-1791.25 833,-1791.25 833,-1791.25 833,-1814.73 833,-1814.73"/>
<polygon fill="#7b8894" stroke="#7b8894" points="829.5,-1814.73 833,-1824.73 836.5,-1814.73 829.5,-1814.73"/>
<text text-anchor="middle" x="646.5" y="-1773.1" font-family="Sans-Serif" font-size="13.00" fill="#2d3436">t_formulaires_campagnes</text>
</g>
<!-- f8fb35f6e4a34821b4f4096ece5f97bd -->
<g id="node11" class="node">
<title>f8fb35f6e4a34821b4f4096ece5f97bd</title>
<image xlink:href="icons/bigquery.png" width="101px" height="101px" preserveAspectRatio="xMinYMin meet" x="782" y="-1764"/>
<text text-anchor="middle" x="832.5" y="-1648.6" font-family="Sans-Serif" font-size="13.00" fill="#2d3436">amadeus.t_ama_formulaires_verif_flux_ga</text>
</g>
<!-- b222df6d8e0d4b808bf60905d0484f57&#45;&gt;f8fb35f6e4a34821b4f4096ece5f97bd -->
<g id="edge9" class="edge">
<title>b222df6d8e0d4b808bf60905d0484f57&#45;&gt;f8fb35f6e4a34821b4f4096ece5f97bd</title>
<path fill="none" stroke="#7b8894" d="M511.06,-1710.5C511.06,-1710.5 771.76,-1710.5 771.76,-1710.5"/>
<polygon fill="#7b8894" stroke="#7b8894" points="771.76,-1714 781.76,-1710.5 771.76,-1707 771.76,-1714"/>
<text text-anchor="middle" x="646.5" y="-1711.1" font-family="Sans-Serif" font-size="13.00" fill="#2d3436">t_formulaires_verif_flux_ga</text>
</g>
<!-- fe124838abd44728bf82fc210b8a5b06 -->
<g id="node2" class="node">
<title>fe124838abd44728bf82fc210b8a5b06</title>
<image xlink:href="C:\Users\MD1116\Dev\Github_VinceCabs\dgp-particuliers-data-pipelines\.venv\lib\site-packages\resources/gcp/storage\storage.png" width="101px" height="101px" preserveAspectRatio="xMinYMin meet" x="0" y="-1758"/>
<text text-anchor="middle" x="50.5" y="-1642.6" font-family="Sans-Serif" font-size="13.00" fill="#2d3436">amadeus_bi.formulaires/GA_VENT_DIGT_</text>
</g>
<!-- fe124838abd44728bf82fc210b8a5b06&#45;&gt;b222df6d8e0d4b808bf60905d0484f57 -->
<g id="edge1" class="edge">
<title>fe124838abd44728bf82fc210b8a5b06&#45;&gt;b222df6d8e0d4b808bf60905d0484f57</title>
<path fill="none" stroke="#7b8894" d="M101.19,-1707.5C101.19,-1707.5 399.93,-1707.5 399.93,-1707.5"/>
<polygon fill="#7b8894" stroke="#7b8894" points="399.93,-1711 409.93,-1707.5 399.93,-1704 399.93,-1711"/>
<text text-anchor="middle" x="255.5" y="-1711.1" font-family="Sans-Serif" font-size="13.00" fill="#2d3436">e_formulaires</text>
</g>
<!-- 4bd641733bfc4d6a8182fe5c08e909f6 -->
<g id="node3" class="node">
<title>4bd641733bfc4d6a8182fe5c08e909f6</title>
<image xlink:href="icons/bigquery.png" width="101px" height="101px" preserveAspectRatio="xMinYMin meet" x="410" y="-1044"/>
<text text-anchor="middle" x="460.5" y="-928.6" font-family="Sans-Serif" font-size="13.00" fill="#2d3436">amadeus.e_ama_appels</text>
</g>
<!-- b2ec86c964084b3cb37ed0880ff55f73 -->
<g id="node15" class="node">
<title>b2ec86c964084b3cb37ed0880ff55f73</title>
<image xlink:href="icons/bigquery.png" width="101px" height="101px" preserveAspectRatio="xMinYMin meet" x="782" y="-864"/>
<text text-anchor="middle" x="832.5" y="-748.6" font-family="Sans-Serif" font-size="13.00" fill="#2d3436">amadeus.t_ama_appels</text>
</g>
<!-- 4bd641733bfc4d6a8182fe5c08e909f6&#45;&gt;b2ec86c964084b3cb37ed0880ff55f73 -->
<g id="edge14" class="edge">
<title>4bd641733bfc4d6a8182fe5c08e909f6&#45;&gt;b2ec86c964084b3cb37ed0880ff55f73</title>
<path fill="none" stroke="#7b8894" d="M461,-924.83C461,-912.51 461,-903.5 461,-903.5 461,-903.5 833,-903.5 833,-903.5 833,-903.5 833,-892.17 833,-892.17"/>
<polygon fill="#7b8894" stroke="#7b8894" points="836.5,-892.17 833,-882.17 829.5,-892.17 836.5,-892.17"/>
<text text-anchor="middle" x="646.5" y="-907.1" font-family="Sans-Serif" font-size="13.00" fill="#2d3436">t_appels</text>
</g>
<!-- 200346d3fd304f0c87c819e070ab0e5b -->
<g id="node25" class="node">
<title>200346d3fd304f0c87c819e070ab0e5b</title>
<image xlink:href="icons/bigquery.png" width="101px" height="101px" preserveAspectRatio="xMinYMin meet" x="782" y="-1044"/>
<text text-anchor="middle" x="832.5" y="-928.6" font-family="Sans-Serif" font-size="13.00" fill="#2d3436">amadeus.t_ama_import_gads</text>
</g>
<!-- 4bd641733bfc4d6a8182fe5c08e909f6&#45;&gt;200346d3fd304f0c87c819e070ab0e5b -->
<g id="edge25" class="edge">
<title>4bd641733bfc4d6a8182fe5c08e909f6&#45;&gt;200346d3fd304f0c87c819e070ab0e5b</title>
<path fill="none" stroke="#7b8894" d="M511.06,-993.5C511.06,-993.5 771.76,-993.5 771.76,-993.5"/>
<polygon fill="#7b8894" stroke="#7b8894" points="771.76,-997 781.76,-993.5 771.76,-990 771.76,-997"/>
<text text-anchor="middle" x="646.5" y="-997.1" font-family="Sans-Serif" font-size="13.00" fill="#2d3436">t_import_gads</text>
</g>
<!-- 3083a6f5db9043928b7142134efde2c1 -->
<g id="node4" class="node">
<title>3083a6f5db9043928b7142134efde2c1</title>
<image xlink:href="C:\Users\MD1116\Dev\Github_VinceCabs\dgp-particuliers-data-pipelines\.venv\lib\site-packages\resources/gcp/storage\storage.png" width="101px" height="101px" preserveAspectRatio="xMinYMin meet" x="0" y="-1044"/>
<text text-anchor="middle" x="50.5" y="-928.6" font-family="Sans-Serif" font-size="13.00" fill="#2d3436">amadeus_bi.appels/GA_SVI_</text>
</g>
<!-- 3083a6f5db9043928b7142134efde2c1&#45;&gt;4bd641733bfc4d6a8182fe5c08e909f6 -->
<g id="edge2" class="edge">
<title>3083a6f5db9043928b7142134efde2c1&#45;&gt;4bd641733bfc4d6a8182fe5c08e909f6</title>
<path fill="none" stroke="#7b8894" d="M101.19,-993.5C101.19,-993.5 399.93,-993.5 399.93,-993.5"/>
<polygon fill="#7b8894" stroke="#7b8894" points="399.93,-997 409.93,-993.5 399.93,-990 399.93,-997"/>
<text text-anchor="middle" x="255.5" y="-997.1" font-family="Sans-Serif" font-size="13.00" fill="#2d3436">e_appels</text>
</g>
<!-- 9fcefdc96d11411bbbc93bc038f5cd06 -->
<g id="node8" class="node">
<title>9fcefdc96d11411bbbc93bc038f5cd06</title>
<image xlink:href="icons/bigquery.png" width="101px" height="101px" preserveAspectRatio="xMinYMin meet" x="1171" y="-1764"/>
<text text-anchor="middle" x="1221.5" y="-1648.6" font-family="Sans-Serif" font-size="13.00" fill="#2d3436">amadeus.t_ama_contrats_formulaires</text>
</g>
<!-- b47b3679f6844595bde947a4f5f2bece&#45;&gt;9fcefdc96d11411bbbc93bc038f5cd06 -->
<g id="edge6" class="edge">
<title>b47b3679f6844595bde947a4f5f2bece&#45;&gt;9fcefdc96d11411bbbc93bc038f5cd06</title>
<path fill="none" stroke="#7b8894" d="M858,-1824.72C858,-1815.83 858,-1809.75 858,-1809.75 858,-1809.75 1222,-1809.75 1222,-1809.75 1222,-1809.75 1222,-1792.17 1222,-1792.17"/>
<polygon fill="#7b8894" stroke="#7b8894" points="1225.5,-1792.17 1222,-1782.17 1218.5,-1792.17 1225.5,-1792.17"/>
<text text-anchor="middle" x="1027" y="-1776.1" font-family="Sans-Serif" font-size="13.00" fill="#2d3436">t_contrats_formulaires</text>
</g>
<!-- 0c9c50cbfbf1411a98669e12dbcc9c74 -->
<g id="node10" class="node">
<title>0c9c50cbfbf1411a98669e12dbcc9c74</title>
<image xlink:href="icons/bigquery.png" width="101px" height="101px" preserveAspectRatio="xMinYMin meet" x="1171" y="-1944"/>
<text text-anchor="middle" x="1221.5" y="-1828.6" font-family="Sans-Serif" font-size="13.00" fill="#2d3436">amadeus.t_ama_leads_formulaires</text>
</g>
<!-- b47b3679f6844595bde947a4f5f2bece&#45;&gt;0c9c50cbfbf1411a98669e12dbcc9c74 -->
<g id="edge8" class="edge">
<title>b47b3679f6844595bde947a4f5f2bece&#45;&gt;0c9c50cbfbf1411a98669e12dbcc9c74</title>
<path fill="none" stroke="#7b8894" d="M883.35,-1893.5C883.35,-1893.5 1160.94,-1893.5 1160.94,-1893.5"/>
<polygon fill="#7b8894" stroke="#7b8894" points="1160.94,-1897 1170.94,-1893.5 1160.94,-1890 1160.94,-1897"/>
<text text-anchor="middle" x="1027" y="-1897.1" font-family="Sans-Serif" font-size="13.00" fill="#2d3436">t_leads_formulaires</text>
</g>
<!-- 3b5d411c33564323a7b3309ce46646af -->
<g id="node6" class="node">
<title>3b5d411c33564323a7b3309ce46646af</title>
<image xlink:href="icons/bigquery.png" width="101px" height="101px" preserveAspectRatio="xMinYMin meet" x="410" y="-1938"/>
<text text-anchor="middle" x="460.5" y="-1822.6" font-family="Sans-Serif" font-size="13.00" fill="#2d3436">ga.l_ga_to_ama_ga_formulaires_stor_*</text>
</g>
<!-- 3b5d411c33564323a7b3309ce46646af&#45;&gt;b47b3679f6844595bde947a4f5f2bece -->
<g id="edge4" class="edge">
<title>3b5d411c33564323a7b3309ce46646af&#45;&gt;b47b3679f6844595bde947a4f5f2bece</title>
<path fill="none" stroke="#7b8894" d="M511.06,-1890.5C511.06,-1890.5 771.76,-1890.5 771.76,-1890.5"/>
<polygon fill="#7b8894" stroke="#7b8894" points="771.76,-1894 781.76,-1890.5 771.76,-1887 771.76,-1894"/>
<text text-anchor="middle" x="646.5" y="-1897.1" font-family="Sans-Serif" font-size="13.00" fill="#2d3436">t_formulaires_campagnes</text>
</g>
<!-- 3b5d411c33564323a7b3309ce46646af&#45;&gt;f8fb35f6e4a34821b4f4096ece5f97bd -->
<g id="edge10" class="edge">
<title>3b5d411c33564323a7b3309ce46646af&#45;&gt;f8fb35f6e4a34821b4f4096ece5f97bd</title>
<path fill="none" stroke="#7b8894" d="M478,-1818.95C478,-1808.17 478,-1800.5 478,-1800.5 478,-1800.5 808,-1800.5 808,-1800.5 808,-1800.5 808,-1792.05 808,-1792.05"/>
<polygon fill="#7b8894" stroke="#7b8894" points="811.5,-1792.05 808,-1782.05 804.5,-1792.05 811.5,-1792.05"/>
<text text-anchor="middle" x="646.5" y="-1835.1" font-family="Sans-Serif" font-size="13.00" fill="#2d3436">t_formulaires_verif_flux_ga</text>
</g>
<!-- 6721b57a50d6411cb006483f34f8c0b4 -->
<g id="node7" class="node">
<title>6721b57a50d6411cb006483f34f8c0b4</title>
<image xlink:href="icons/bigquery.png" width="101px" height="101px" preserveAspectRatio="xMinYMin meet" x="410" y="-2118"/>
<text text-anchor="middle" x="460.5" y="-2002.6" font-family="Sans-Serif" font-size="13.00" fill="#2d3436">ga.t_ga_correspondance_hash_campagnes</text>
</g>
<!-- 6721b57a50d6411cb006483f34f8c0b4&#45;&gt;b47b3679f6844595bde947a4f5f2bece -->
<g id="edge5" class="edge">
<title>6721b57a50d6411cb006483f34f8c0b4&#45;&gt;b47b3679f6844595bde947a4f5f2bece</title>
<path fill="none" stroke="#7b8894" d="M511.12,-2067.5C612.97,-2067.5 833,-2067.5 833,-2067.5 833,-2067.5 833,-1972.27 833,-1972.27"/>
<polygon fill="#7b8894" stroke="#7b8894" points="836.5,-1972.27 833,-1962.27 829.5,-1972.27 836.5,-1972.27"/>
<text text-anchor="middle" x="646.5" y="-2071.1" font-family="Sans-Serif" font-size="13.00" fill="#2d3436">t_formulaires_campagnes</text>
</g>
<!-- 46326ac828ce4fc4948119b1e8415e64 -->
<g id="node9" class="node">
<title>46326ac828ce4fc4948119b1e8415e64</title>
<image xlink:href="icons/bigquery.png" width="101px" height="101px" preserveAspectRatio="xMinYMin meet" x="782" y="-1584"/>
<text text-anchor="middle" x="832.5" y="-1468.6" font-family="Sans-Serif" font-size="13.00" fill="#2d3436">comper.e_v_digi_import_cube_valeur</text>
</g>
<!-- 46326ac828ce4fc4948119b1e8415e64&#45;&gt;9fcefdc96d11411bbbc93bc038f5cd06 -->
<g id="edge7" class="edge">
<title>46326ac828ce4fc4948119b1e8415e64&#45;&gt;9fcefdc96d11411bbbc93bc038f5cd06</title>
<path fill="none" stroke="#7b8894" d="M833,-1602.05C833,-1612.83 833,-1620.5 833,-1620.5 833,-1620.5 1222,-1620.5 1222,-1620.5 1222,-1620.5 1222,-1634.93 1222,-1634.93"/>
<polygon fill="#7b8894" stroke="#7b8894" points="1218.5,-1634.93 1222,-1644.93 1225.5,-1634.93 1218.5,-1634.93"/>
<text text-anchor="middle" x="1027" y="-1627.1" font-family="Sans-Serif" font-size="13.00" fill="#2d3436">t_contrats_formulaires</text>
</g>
<!-- d05b8ab10e064e79a72bb6c0fc79531f -->
<g id="node19" class="node">
<title>d05b8ab10e064e79a72bb6c0fc79531f</title>
<image xlink:href="icons/bigquery.png" width="101px" height="101px" preserveAspectRatio="xMinYMin meet" x="1171" y="-1584"/>
<text text-anchor="middle" x="1221.5" y="-1468.6" font-family="Sans-Serif" font-size="13.00" fill="#2d3436">amadeus.t_ama_contrats_appels</text>
</g>
<!-- 46326ac828ce4fc4948119b1e8415e64&#45;&gt;d05b8ab10e064e79a72bb6c0fc79531f -->
<g id="edge19" class="edge">
<title>46326ac828ce4fc4948119b1e8415e64&#45;&gt;d05b8ab10e064e79a72bb6c0fc79531f</title>
<path fill="none" stroke="#7b8894" d="M883.35,-1556.33C883.35,-1556.33 1160.94,-1556.33 1160.94,-1556.33"/>
<polygon fill="#7b8894" stroke="#7b8894" points="1160.94,-1559.83 1170.94,-1556.33 1160.94,-1552.83 1160.94,-1559.83"/>
<text text-anchor="middle" x="1027" y="-1537.1" font-family="Sans-Serif" font-size="13.00" fill="#2d3436">t_contrats_appels</text>
</g>
<!-- bc2c2db415ff46e98d1869b25b40486c -->
<g id="node12" class="node">
<title>bc2c2db415ff46e98d1869b25b40486c</title>
<image xlink:href="icons/bigquery.png" width="101px" height="101px" preserveAspectRatio="xMinYMin meet" x="782" y="-324"/>
<text text-anchor="middle" x="832.5" y="-208.6" font-family="Sans-Serif" font-size="13.00" fill="#2d3436">amadeus.t_ama_appels_ga</text>
</g>
<!-- f6115740870f4303a1373301a72e69a6 -->
<g id="node14" class="node">
<title>f6115740870f4303a1373301a72e69a6</title>
<image xlink:href="icons/bigquery.png" width="101px" height="101px" preserveAspectRatio="xMinYMin meet" x="1171" y="-324"/>
<text text-anchor="middle" x="1221.5" y="-208.6" font-family="Sans-Serif" font-size="13.00" fill="#2d3436">amadeus.t_ama_appels_leviers</text>
</g>
<!-- bc2c2db415ff46e98d1869b25b40486c&#45;&gt;f6115740870f4303a1373301a72e69a6 -->
<g id="edge13" class="edge">
<title>bc2c2db415ff46e98d1869b25b40486c&#45;&gt;f6115740870f4303a1373301a72e69a6</title>
<path fill="none" stroke="#7b8894" d="M883.35,-273.5C883.35,-273.5 1160.94,-273.5 1160.94,-273.5"/>
<polygon fill="#7b8894" stroke="#7b8894" points="1160.94,-277 1170.94,-273.5 1160.94,-270 1160.94,-277"/>
<text text-anchor="middle" x="1027" y="-277.1" font-family="Sans-Serif" font-size="13.00" fill="#2d3436">t_appels_leviers</text>
</g>
<!-- 88d933095ac1400496603c573a0ac25a -->
<g id="node13" class="node">
<title>88d933095ac1400496603c573a0ac25a</title>
<image xlink:href="icons/bigquery.png" width="101px" height="101px" preserveAspectRatio="xMinYMin meet" x="410" y="-324"/>
<text text-anchor="middle" x="460.5" y="-208.6" font-family="Sans-Serif" font-size="13.00" fill="#2d3436">ga.t_ga_sessions</text>
</g>
<!-- 88d933095ac1400496603c573a0ac25a&#45;&gt;bc2c2db415ff46e98d1869b25b40486c -->
<g id="edge11" class="edge">
<title>88d933095ac1400496603c573a0ac25a&#45;&gt;bc2c2db415ff46e98d1869b25b40486c</title>
<path fill="none" stroke="#7b8894" d="M511.06,-273.5C511.06,-273.5 771.76,-273.5 771.76,-273.5"/>
<polygon fill="#7b8894" stroke="#7b8894" points="771.76,-277 781.76,-273.5 771.76,-270 771.76,-277"/>
<text text-anchor="middle" x="646.5" y="-277.1" font-family="Sans-Serif" font-size="13.00" fill="#2d3436">t_appels_ga</text>
</g>
<!-- adb99464084a4227a398668e73d6d37c -->
<g id="node24" class="node">
<title>adb99464084a4227a398668e73d6d37c</title>
<image xlink:href="icons/bigquery.png" width="101px" height="101px" preserveAspectRatio="xMinYMin meet" x="782" y="-144"/>
<text text-anchor="middle" x="832.5" y="-28.6" font-family="Sans-Serif" font-size="13.00" fill="#2d3436">eloqua.t_elq_promo_applis_mobiles_tlgt_appli</text>
</g>
<!-- 88d933095ac1400496603c573a0ac25a&#45;&gt;adb99464084a4227a398668e73d6d37c -->
<g id="edge24" class="edge">
<title>88d933095ac1400496603c573a0ac25a&#45;&gt;adb99464084a4227a398668e73d6d37c</title>
<path fill="none" stroke="#7b8894" d="M461,-204.83C461,-192.51 461,-183.5 461,-183.5 461,-183.5 833,-183.5 833,-183.5 833,-183.5 833,-172.17 833,-172.17"/>
<polygon fill="#7b8894" stroke="#7b8894" points="836.5,-172.17 833,-162.17 829.5,-172.17 836.5,-172.17"/>
<text text-anchor="middle" x="646.5" y="-187.1" font-family="Sans-Serif" font-size="13.00" fill="#2d3436">t_elq_promo_applis_mobiles_tlgt_appli</text>
</g>
<!-- f6da9553fae0476d98c8679a154f4a06 -->
<g id="node18" class="node">
<title>f6da9553fae0476d98c8679a154f4a06</title>
<image xlink:href="icons/bigquery.png" width="101px" height="101px" preserveAspectRatio="xMinYMin meet" x="1469" y="-324"/>
<text text-anchor="middle" x="1519.5" y="-208.6" font-family="Sans-Serif" font-size="13.00" fill="#2d3436">amadeus.t_ama_leads_appels</text>
</g>
<!-- f6115740870f4303a1373301a72e69a6&#45;&gt;f6da9553fae0476d98c8679a154f4a06 -->
<g id="edge17" class="edge">
<title>f6115740870f4303a1373301a72e69a6&#45;&gt;f6da9553fae0476d98c8679a154f4a06</title>
<path fill="none" stroke="#7b8894" d="M1272.05,-273.5C1272.05,-273.5 1458.7,-273.5 1458.7,-273.5"/>
<polygon fill="#7b8894" stroke="#7b8894" points="1458.7,-277 1468.7,-273.5 1458.7,-270 1458.7,-277"/>
<text text-anchor="middle" x="1370.5" y="-277.1" font-family="Sans-Serif" font-size="13.00" fill="#2d3436">t_leads_appels</text>
</g>
<!-- b2ec86c964084b3cb37ed0880ff55f73&#45;&gt;f6115740870f4303a1373301a72e69a6 -->
<g id="edge12" class="edge">
<title>b2ec86c964084b3cb37ed0880ff55f73&#45;&gt;f6115740870f4303a1373301a72e69a6</title>
<path fill="none" stroke="#7b8894" d="M823,-744.66C823,-618.61 823,-363.5 823,-363.5 823,-363.5 1222,-363.5 1222,-363.5 1222,-363.5 1222,-352.17 1222,-352.17"/>
<polygon fill="#7b8894" stroke="#7b8894" points="1225.5,-352.17 1222,-342.17 1218.5,-352.17 1225.5,-352.17"/>
<text text-anchor="middle" x="1027" y="-367.1" font-family="Sans-Serif" font-size="13.00" fill="#2d3436">t_appels_leviers</text>
</g>
<!-- b2ec86c964084b3cb37ed0880ff55f73&#45;&gt;d05b8ab10e064e79a72bb6c0fc79531f -->
<g id="edge18" class="edge">
<title>b2ec86c964084b3cb37ed0880ff55f73&#45;&gt;d05b8ab10e064e79a72bb6c0fc79531f</title>
<path fill="none" stroke="#7b8894" d="M883.03,-854.6C916.78,-854.6 955,-854.6 955,-854.6 955,-854.6 955,-1510.67 955,-1510.67 955,-1510.67 1160.75,-1510.67 1160.75,-1510.67"/>
<polygon fill="#7b8894" stroke="#7b8894" points="1160.75,-1514.17 1170.75,-1510.67 1160.75,-1507.17 1160.75,-1514.17"/>
<text text-anchor="middle" x="1027" y="-1447.1" font-family="Sans-Serif" font-size="13.00" fill="#2d3436">t_contrats_appels</text>
</g>
<!-- 5a3bd2f5180b454c9ff79b99d8760d4b -->
<g id="node26" class="node">
<title>5a3bd2f5180b454c9ff79b99d8760d4b</title>
<image xlink:href="icons/bigquery.png" width="101px" height="101px" preserveAspectRatio="xMinYMin meet" x="1171" y="-1224"/>
<text text-anchor="middle" x="1221.5" y="-1108.6" font-family="Sans-Serif" font-size="13.00" fill="#2d3436">amadeus.t_ama_valeurs_plus40_datastudio_gads</text>
</g>
<!-- b2ec86c964084b3cb37ed0880ff55f73&#45;&gt;5a3bd2f5180b454c9ff79b99d8760d4b -->
<g id="edge26" class="edge">
<title>b2ec86c964084b3cb37ed0880ff55f73&#45;&gt;5a3bd2f5180b454c9ff79b99d8760d4b</title>
<path fill="none" stroke="#7b8894" d="M883.25,-799.8C960.58,-799.8 1099,-799.8 1099,-799.8 1099,-799.8 1099,-1173.5 1099,-1173.5 1099,-1173.5 1160.97,-1173.5 1160.97,-1173.5"/>
<polygon fill="#7b8894" stroke="#7b8894" points="1160.97,-1177 1170.97,-1173.5 1160.97,-1170 1160.97,-1177"/>
<text text-anchor="middle" x="1027" y="-1177.1" font-family="Sans-Serif" font-size="13.00" fill="#2d3436">t_valeurs_plus40_datastudio_gads</text>
</g>
<!-- 2732f1efa2c14a3a99ddac87effad88d -->
<g id="node27" class="node">
<title>2732f1efa2c14a3a99ddac87effad88d</title>
<image xlink:href="icons/bigquery.png" width="101px" height="101px" preserveAspectRatio="xMinYMin meet" x="1171" y="-864"/>
<text text-anchor="middle" x="1221.5" y="-748.6" font-family="Sans-Serif" font-size="13.00" fill="#2d3436">amadeus.t_ama_valeurs_datastudio_gads</text>
</g>
<!-- b2ec86c964084b3cb37ed0880ff55f73&#45;&gt;2732f1efa2c14a3a99ddac87effad88d -->
<g id="edge27" class="edge">
<title>b2ec86c964084b3cb37ed0880ff55f73&#45;&gt;2732f1efa2c14a3a99ddac87effad88d</title>
<path fill="none" stroke="#7b8894" d="M883.35,-772.4C883.35,-772.4 1160.94,-772.4 1160.94,-772.4"/>
<polygon fill="#7b8894" stroke="#7b8894" points="1160.94,-775.9 1170.94,-772.4 1160.94,-768.9 1160.94,-775.9"/>
<text text-anchor="middle" x="1027" y="-817.1" font-family="Sans-Serif" font-size="13.00" fill="#2d3436">t_valeurs_datastudio_gads</text>
</g>
<!-- 52edf71119bf41d292588213945d5b67 -->
<g id="node28" class="node">
<title>52edf71119bf41d292588213945d5b67</title>
<image xlink:href="icons/bigquery.png" width="101px" height="101px" preserveAspectRatio="xMinYMin meet" x="1171" y="-684"/>
<text text-anchor="middle" x="1221.5" y="-568.6" font-family="Sans-Serif" font-size="13.00" fill="#2d3436">amadeus.t_ama_valeurs_sousindicateur_gads</text>
</g>
<!-- b2ec86c964084b3cb37ed0880ff55f73&#45;&gt;52edf71119bf41d292588213945d5b67 -->
<g id="edge28" class="edge">
<title>b2ec86c964084b3cb37ed0880ff55f73&#45;&gt;52edf71119bf41d292588213945d5b67</title>
<path fill="none" stroke="#7b8894" d="M863,-744.83C863,-685.99 863,-610.67 863,-610.67 863,-610.67 1160.9,-610.67 1160.9,-610.67"/>
<polygon fill="#7b8894" stroke="#7b8894" points="1160.9,-614.17 1170.9,-610.67 1160.9,-607.17 1160.9,-614.17"/>
<text text-anchor="middle" x="1027" y="-637.1" font-family="Sans-Serif" font-size="13.00" fill="#2d3436">t_valeurs_sousindicateur_gads</text>
</g>
<!-- f985aabcecd34f1cb434fcddcc32a4b7 -->
<g id="node29" class="node">
<title>f985aabcecd34f1cb434fcddcc32a4b7</title>
<image xlink:href="icons/bigquery.png" width="101px" height="101px" preserveAspectRatio="xMinYMin meet" x="1171" y="-504"/>
<text text-anchor="middle" x="1221.5" y="-388.6" font-family="Sans-Serif" font-size="13.00" fill="#2d3436">amadeus.t_ama_anciennes_valeurs_gads</text>
</g>
<!-- b2ec86c964084b3cb37ed0880ff55f73&#45;&gt;f985aabcecd34f1cb434fcddcc32a4b7 -->
<g id="edge29" class="edge">
<title>b2ec86c964084b3cb37ed0880ff55f73&#45;&gt;f985aabcecd34f1cb434fcddcc32a4b7</title>
<path fill="none" stroke="#7b8894" d="M843,-744.94C843,-640.49 843,-453.5 843,-453.5 843,-453.5 1160.85,-453.5 1160.85,-453.5"/>
<polygon fill="#7b8894" stroke="#7b8894" points="1160.85,-457 1170.85,-453.5 1160.85,-450 1160.85,-457"/>
<text text-anchor="middle" x="1027" y="-457.1" font-family="Sans-Serif" font-size="13.00" fill="#2d3436">t_anciennes_valeurs_gads</text>
</g>
<!-- 00072a81e4e3425f898a65c7da98a49c -->
<g id="node30" class="node">
<title>00072a81e4e3425f898a65c7da98a49c</title>
<image xlink:href="icons/bigquery.png" width="101px" height="101px" preserveAspectRatio="xMinYMin meet" x="1171" y="-1404"/>
<text text-anchor="middle" x="1221.5" y="-1288.6" font-family="Sans-Serif" font-size="13.00" fill="#2d3436">amadeus.t_ama_anciennes_valeurs_sousindicateur_gads</text>
</g>
<!-- b2ec86c964084b3cb37ed0880ff55f73&#45;&gt;00072a81e4e3425f898a65c7da98a49c -->
<g id="edge30" class="edge">
<title>b2ec86c964084b3cb37ed0880ff55f73&#45;&gt;00072a81e4e3425f898a65c7da98a49c</title>
<path fill="none" stroke="#7b8894" d="M883.09,-827.2C940.72,-827.2 1027,-827.2 1027,-827.2 1027,-827.2 1027,-1353.5 1027,-1353.5 1027,-1353.5 1160.91,-1353.5 1160.91,-1353.5"/>
<polygon fill="#7b8894" stroke="#7b8894" points="1160.91,-1357 1170.91,-1353.5 1160.91,-1350 1160.91,-1357"/>
<text text-anchor="middle" x="1027" y="-1357.1" font-family="Sans-Serif" font-size="13.00" fill="#2d3436">t_anciennes_valeurs_sousindicateur_gads</text>
</g>
<!-- cb0dfe0503f24f6eb17fdd6fbb1db1b5 -->
<g id="node16" class="node">
<title>cb0dfe0503f24f6eb17fdd6fbb1db1b5</title>
<image xlink:href="icons/bigquery.png" width="101px" height="101px" preserveAspectRatio="xMinYMin meet" x="410" y="-864"/>
<text text-anchor="middle" x="460.5" y="-748.6" font-family="Sans-Serif" font-size="13.00" fill="#2d3436">[?config?].e_ama_appels_2020</text>
</g>
<!-- cb0dfe0503f24f6eb17fdd6fbb1db1b5&#45;&gt;b2ec86c964084b3cb37ed0880ff55f73 -->
<g id="edge15" class="edge">
<title>cb0dfe0503f24f6eb17fdd6fbb1db1b5&#45;&gt;b2ec86c964084b3cb37ed0880ff55f73</title>
<path fill="none" stroke="#7b8894" d="M511.06,-813.5C511.06,-813.5 771.76,-813.5 771.76,-813.5"/>
<polygon fill="#7b8894" stroke="#7b8894" points="771.76,-817 781.76,-813.5 771.76,-810 771.76,-817"/>
<text text-anchor="middle" x="646.5" y="-817.1" font-family="Sans-Serif" font-size="13.00" fill="#2d3436">t_appels</text>
</g>
<!-- 3e711e1f5ae14d588517bbba1e01dc9b -->
<g id="node17" class="node">
<title>3e711e1f5ae14d588517bbba1e01dc9b</title>
<image xlink:href="icons/bigquery.png" width="101px" height="101px" preserveAspectRatio="xMinYMin meet" x="410" y="-684"/>
<text text-anchor="middle" x="460.5" y="-568.6" font-family="Sans-Serif" font-size="13.00" fill="#2d3436">[?config?].e_ama_appels_2018_2019</text>
</g>
<!-- 3e711e1f5ae14d588517bbba1e01dc9b&#45;&gt;b2ec86c964084b3cb37ed0880ff55f73 -->
<g id="edge16" class="edge">
<title>3e711e1f5ae14d588517bbba1e01dc9b&#45;&gt;b2ec86c964084b3cb37ed0880ff55f73</title>
<path fill="none" stroke="#7b8894" d="M511.04,-656.33C606.31,-656.33 803,-656.33 803,-656.33 803,-656.33 803,-734.56 803,-734.56"/>
<polygon fill="#7b8894" stroke="#7b8894" points="799.5,-734.56 803,-744.56 806.5,-734.56 799.5,-734.56"/>
<text text-anchor="middle" x="646.5" y="-637.1" font-family="Sans-Serif" font-size="13.00" fill="#2d3436">t_appels</text>
</g>
<!-- 515bd4ac828c4edd84acb077938780e5 -->
<g id="node20" class="node">
<title>515bd4ac828c4edd84acb077938780e5</title>
<image xlink:href="icons/bigquery.png" width="101px" height="101px" preserveAspectRatio="xMinYMin meet" x="1469" y="-1195"/>
<text text-anchor="middle" x="1519.5" y="-1079.6" font-family="Sans-Serif" font-size="13.00" fill="#2d3436">amadeus.t_ama_contrats_appels_leviers</text>
</g>
<!-- d05b8ab10e064e79a72bb6c0fc79531f&#45;&gt;515bd4ac828c4edd84acb077938780e5 -->
<g id="edge20" class="edge">
<title>d05b8ab10e064e79a72bb6c0fc79531f&#45;&gt;515bd4ac828c4edd84acb077938780e5</title>
<path fill="none" stroke="#7b8894" d="M1272.14,-1533.5C1357.3,-1533.5 1520,-1533.5 1520,-1533.5 1520,-1533.5 1520,-1223.15 1520,-1223.15"/>
<polygon fill="#7b8894" stroke="#7b8894" points="1523.5,-1223.15 1520,-1213.15 1516.5,-1223.15 1523.5,-1223.15"/>
<text text-anchor="middle" x="1370.5" y="-1298.1" font-family="Sans-Serif" font-size="13.00" fill="#2d3436">t_contrats_appels_leviers</text>
</g>
<!-- 90f55ea395f740708559a5eead76121b -->
<g id="node21" class="node">
<title>90f55ea395f740708559a5eead76121b</title>
<image xlink:href="icons/bigquery.png" width="101px" height="101px" preserveAspectRatio="xMinYMin meet" x="1171" y="-1044"/>
<text text-anchor="middle" x="1221.5" y="-928.6" font-family="Sans-Serif" font-size="13.00" fill="#2d3436">[?config?].t_ama_appels_ga</text>
</g>
<!-- 90f55ea395f740708559a5eead76121b&#45;&gt;515bd4ac828c4edd84acb077938780e5 -->
<g id="edge21" class="edge">
<title>90f55ea395f740708559a5eead76121b&#45;&gt;515bd4ac828c4edd84acb077938780e5</title>
<path fill="none" stroke="#7b8894" d="M1222,-1062.18C1222,-1078.11 1222,-1090.5 1222,-1090.5 1222,-1090.5 1458.7,-1090.5 1458.7,-1090.5"/>
<polygon fill="#7b8894" stroke="#7b8894" points="1458.7,-1094 1468.7,-1090.5 1458.7,-1087 1458.7,-1094"/>
<text text-anchor="middle" x="1370.5" y="-997.1" font-family="Sans-Serif" font-size="13.00" fill="#2d3436">t_contrats_appels_leviers</text>
</g>
<!-- 15072e7539554f2e90e681b02baca3e0 -->
<g id="node22" class="node">
<title>15072e7539554f2e90e681b02baca3e0</title>
<image xlink:href="icons/bigquery.png" width="101px" height="101px" preserveAspectRatio="xMinYMin meet" x="410" y="-144"/>
<text text-anchor="middle" x="460.5" y="-28.6" font-family="Sans-Serif" font-size="13.00" fill="#2d3436">eloqua.e_elq_promo_applis_mobiles_clics_emails</text>
</g>
<!-- 15072e7539554f2e90e681b02baca3e0&#45;&gt;adb99464084a4227a398668e73d6d37c -->
<g id="edge23" class="edge">
<title>15072e7539554f2e90e681b02baca3e0&#45;&gt;adb99464084a4227a398668e73d6d37c</title>
<path fill="none" stroke="#7b8894" d="M511.06,-93.5C511.06,-93.5 771.76,-93.5 771.76,-93.5"/>
<polygon fill="#7b8894" stroke="#7b8894" points="771.76,-97 781.76,-93.5 771.76,-90 771.76,-97"/>
<text text-anchor="middle" x="646.5" y="-97.1" font-family="Sans-Serif" font-size="13.00" fill="#2d3436">t_elq_promo_applis_mobiles_tlgt_appli</text>
</g>
<!-- 20e2e105fb1a44bf817f2ad93670a370 -->
<g id="node23" class="node">
<title>20e2e105fb1a44bf817f2ad93670a370</title>
<image xlink:href="C:\Users\MD1116\Dev\Github_VinceCabs\dgp-particuliers-data-pipelines\.venv\lib\site-packages\resources/gcp/storage\storage.png" width="101px" height="101px" preserveAspectRatio="xMinYMin meet" x="0" y="-144"/>
<text text-anchor="middle" x="50.5" y="-28.6" font-family="Sans-Serif" font-size="13.00" fill="#2d3436">amadeus_bi.eloqua/AMA_GOOG_RETR_MARK_ELQC_315_*</text>
</g>
<!-- 20e2e105fb1a44bf817f2ad93670a370&#45;&gt;15072e7539554f2e90e681b02baca3e0 -->
<g id="edge22" class="edge">
<title>20e2e105fb1a44bf817f2ad93670a370&#45;&gt;15072e7539554f2e90e681b02baca3e0</title>
<path fill="none" stroke="#7b8894" d="M101.19,-93.5C101.19,-93.5 399.93,-93.5 399.93,-93.5"/>
<polygon fill="#7b8894" stroke="#7b8894" points="399.93,-97 409.93,-93.5 399.93,-90 399.93,-97"/>
<text text-anchor="middle" x="255.5" y="-97.1" font-family="Sans-Serif" font-size="13.00" fill="#2d3436">e_elq_promo_applis_mobiles_clics_emails</text>
</g>
<!-- d30ebd786c2d4b03bf378ad0816736b3 -->
<g id="node31" class="node">
<title>d30ebd786c2d4b03bf378ad0816736b3</title>
<image xlink:href="icons/bigquery.png" width="101px" height="101px" preserveAspectRatio="xMinYMin meet" x="410" y="-2298"/>
<text text-anchor="middle" x="460.5" y="-2182.6" font-family="Sans-Serif" font-size="13.00" fill="#2d3436">amadeus.t_ama_parrainage</text>
</g>
<!-- b4b5c62a0c984978be4f695e00a852ad -->
<g id="node33" class="node">
<title>b4b5c62a0c984978be4f695e00a852ad</title>
<image xlink:href="icons/bigquery.png" width="101px" height="101px" preserveAspectRatio="xMinYMin meet" x="782" y="-2298"/>
<text text-anchor="middle" x="832.5" y="-2182.6" font-family="Sans-Serif" font-size="13.00" fill="#2d3436">comper.l_ama_to_ds_comper_t_ama_parrainage</text>
</g>
<!-- d30ebd786c2d4b03bf378ad0816736b3&#45;&gt;b4b5c62a0c984978be4f695e00a852ad -->
<g id="edge32" class="edge">
<title>d30ebd786c2d4b03bf378ad0816736b3&#45;&gt;b4b5c62a0c984978be4f695e00a852ad</title>
<path fill="none" stroke="#7b8894" d="M511.06,-2247.5C511.06,-2247.5 771.76,-2247.5 771.76,-2247.5"/>
<polygon fill="#7b8894" stroke="#7b8894" points="771.76,-2251 781.76,-2247.5 771.76,-2244 771.76,-2251"/>
<text text-anchor="middle" x="646.5" y="-2251.1" font-family="Sans-Serif" font-size="13.00" fill="#2d3436">l_to_ds_comper_t_ama_parrainage</text>
</g>
<!-- be9b094c803f4e70aba9b78eb9355232 -->
<g id="node32" class="node">
<title>be9b094c803f4e70aba9b78eb9355232</title>
<image xlink:href="icons/bigquery.png" width="101px" height="101px" preserveAspectRatio="xMinYMin meet" x="0" y="-2298"/>
<text text-anchor="middle" x="50.5" y="-2182.6" font-family="Sans-Serif" font-size="13.00" fill="#2d3436">comper.t_v_digi_cube_valeur</text>
</g>
<!-- be9b094c803f4e70aba9b78eb9355232&#45;&gt;d30ebd786c2d4b03bf378ad0816736b3 -->
<g id="edge31" class="edge">
<title>be9b094c803f4e70aba9b78eb9355232&#45;&gt;d30ebd786c2d4b03bf378ad0816736b3</title>
<path fill="none" stroke="#7b8894" d="M101.19,-2247.5C101.19,-2247.5 399.93,-2247.5 399.93,-2247.5"/>
<polygon fill="#7b8894" stroke="#7b8894" points="399.93,-2251 409.93,-2247.5 399.93,-2244 399.93,-2251"/>
<text text-anchor="middle" x="255.5" y="-2251.1" font-family="Sans-Serif" font-size="13.00" fill="#2d3436">t_parrainage</text>
</g>
<!-- d2ba884761d84b9b96fd01f385685033 -->
<g id="node34" class="node">
<title>d2ba884761d84b9b96fd01f385685033</title>
<image xlink:href="icons/bigquery.png" width="101px" height="101px" preserveAspectRatio="xMinYMin meet" x="410" y="-2478"/>
<text text-anchor="middle" x="460.5" y="-2362.6" font-family="Sans-Serif" font-size="13.00" fill="#2d3436">comper.l_ama_to_ds_comper_contrats_services</text>
</g>
<!-- 238bb04d27184ad38e474cda06b71863 -->
<g id="node35" class="node">
<title>238bb04d27184ad38e474cda06b71863</title>
<image xlink:href="icons/bigquery.png" width="101px" height="101px" preserveAspectRatio="xMinYMin meet" x="0" y="-2478"/>
<text text-anchor="middle" x="50.5" y="-2362.6" font-family="Sans-Serif" font-size="13.00" fill="#2d3436">amadeus.e_gsheet_contrats_services</text>
</g>
<!-- 238bb04d27184ad38e474cda06b71863&#45;&gt;d2ba884761d84b9b96fd01f385685033 -->
<g id="edge33" class="edge">
<title>238bb04d27184ad38e474cda06b71863&#45;&gt;d2ba884761d84b9b96fd01f385685033</title>
<path fill="none" stroke="#7b8894" d="M101.19,-2427.5C101.19,-2427.5 399.93,-2427.5 399.93,-2427.5"/>
<polygon fill="#7b8894" stroke="#7b8894" points="399.93,-2431 409.93,-2427.5 399.93,-2424 399.93,-2431"/>
<text text-anchor="middle" x="255.5" y="-2431.1" font-family="Sans-Serif" font-size="13.00" fill="#2d3436">l_to_ds_comper_contrats_services</text>
</g>
<!-- 546410068ad4477f818a9a6d964254f1 -->
<g id="node36" class="node">
<title>546410068ad4477f818a9a6d964254f1</title>
<image xlink:href="icons/bigquery.png" width="101px" height="101px" preserveAspectRatio="xMinYMin meet" x="410" y="-2658"/>
<text text-anchor="middle" x="460.5" y="-2542.6" font-family="Sans-Serif" font-size="13.00" fill="#2d3436">comper.l_ama_to_ds_comper_bout_en_bout_equipements</text>
</g>
<!-- 68d3505ba93a4a61818969bd48e239c0 -->
<g id="node37" class="node">
<title>68d3505ba93a4a61818969bd48e239c0</title>
<image xlink:href="icons/bigquery.png" width="101px" height="101px" preserveAspectRatio="xMinYMin meet" x="0" y="-2658"/>
<text text-anchor="middle" x="50.5" y="-2542.6" font-family="Sans-Serif" font-size="13.00" fill="#2d3436">reporting_equipements.bout_en_bout_equipements</text>
</g>
<!-- 68d3505ba93a4a61818969bd48e239c0&#45;&gt;546410068ad4477f818a9a6d964254f1 -->
<g id="edge34" class="edge">
<title>68d3505ba93a4a61818969bd48e239c0&#45;&gt;546410068ad4477f818a9a6d964254f1</title>
<path fill="none" stroke="#7b8894" d="M101.19,-2607.5C101.19,-2607.5 399.93,-2607.5 399.93,-2607.5"/>
<polygon fill="#7b8894" stroke="#7b8894" points="399.93,-2611 409.93,-2607.5 399.93,-2604 399.93,-2611"/>
<text text-anchor="middle" x="255.5" y="-2611.1" font-family="Sans-Serif" font-size="13.00" fill="#2d3436">l_to_ds_comper_bout_en_bout_equipements</text>
</g>
<!-- 78f89f98c00046cabebaeeedff4113d4 -->
<g id="node38" class="node">
<title>78f89f98c00046cabebaeeedff4113d4</title>
<image xlink:href="icons/bigquery.png" width="101px" height="101px" preserveAspectRatio="xMinYMin meet" x="410" y="-2838"/>
<text text-anchor="middle" x="460.5" y="-2722.6" font-family="Sans-Serif" font-size="13.00" fill="#2d3436">comper.t_ama_options_vertes</text>
</g>
<!-- 0ca62e6f97dc4484b6513dc75440efc1 -->
<g id="node40" class="node">
<title>0ca62e6f97dc4484b6513dc75440efc1</title>
<image xlink:href="icons/bigquery.png" width="101px" height="101px" preserveAspectRatio="xMinYMin meet" x="782" y="-2838"/>
<text text-anchor="middle" x="832.5" y="-2722.6" font-family="Sans-Serif" font-size="13.00" fill="#2d3436">comper.l_ama_to_ds_comper_options_vertes</text>
</g>
<!-- 78f89f98c00046cabebaeeedff4113d4&#45;&gt;0ca62e6f97dc4484b6513dc75440efc1 -->
<g id="edge36" class="edge">
<title>78f89f98c00046cabebaeeedff4113d4&#45;&gt;0ca62e6f97dc4484b6513dc75440efc1</title>
<path fill="none" stroke="#7b8894" d="M511.06,-2787.5C511.06,-2787.5 771.76,-2787.5 771.76,-2787.5"/>
<polygon fill="#7b8894" stroke="#7b8894" points="771.76,-2791 781.76,-2787.5 771.76,-2784 771.76,-2791"/>
<text text-anchor="middle" x="646.5" y="-2791.1" font-family="Sans-Serif" font-size="13.00" fill="#2d3436">l_to_ds_comper_options_vertes</text>
</g>
<!-- d558eff6af974e92b293b343eaf35329 -->
<g id="node39" class="node">
<title>d558eff6af974e92b293b343eaf35329</title>
<image xlink:href="icons/bigquery.png" width="101px" height="101px" preserveAspectRatio="xMinYMin meet" x="0" y="-2838"/>
<text text-anchor="middle" x="50.5" y="-2722.6" font-family="Sans-Serif" font-size="13.00" fill="#2d3436">amadeus.e_ama_options_vertes</text>
</g>
<!-- d558eff6af974e92b293b343eaf35329&#45;&gt;78f89f98c00046cabebaeeedff4113d4 -->
<g id="edge35" class="edge">
<title>d558eff6af974e92b293b343eaf35329&#45;&gt;78f89f98c00046cabebaeeedff4113d4</title>
<path fill="none" stroke="#7b8894" d="M101.19,-2787.5C101.19,-2787.5 399.93,-2787.5 399.93,-2787.5"/>
<polygon fill="#7b8894" stroke="#7b8894" points="399.93,-2791 409.93,-2787.5 399.93,-2784 399.93,-2791"/>
<text text-anchor="middle" x="255.5" y="-2791.1" font-family="Sans-Serif" font-size="13.00" fill="#2d3436">t_options_vertes</text>
</g>
<!-- a414c335ad7f41b08d68580e27755b4c -->
<g id="node41" class="node">
<title>a414c335ad7f41b08d68580e27755b4c</title>
<image xlink:href="icons/bigquery.png" width="101px" height="101px" preserveAspectRatio="xMinYMin meet" x="410" y="-3018"/>
<text text-anchor="middle" x="460.5" y="-2902.6" font-family="Sans-Serif" font-size="13.00" fill="#2d3436">comper.l_ama_to_ds_comper_prelevement_mensualisation</text>
</g>
<!-- dd505d725a5b4f91b3fbb5d7677bb774 -->
<g id="node42" class="node">
<title>dd505d725a5b4f91b3fbb5d7677bb774</title>
<image xlink:href="icons/bigquery.png" width="101px" height="101px" preserveAspectRatio="xMinYMin meet" x="0" y="-3018"/>
<text text-anchor="middle" x="50.5" y="-2902.6" font-family="Sans-Serif" font-size="13.00" fill="#2d3436">amadeus.e_ama_prelevement_mensualisation</text>
</g>
<!-- dd505d725a5b4f91b3fbb5d7677bb774&#45;&gt;a414c335ad7f41b08d68580e27755b4c -->
<g id="edge37" class="edge">
<title>dd505d725a5b4f91b3fbb5d7677bb774&#45;&gt;a414c335ad7f41b08d68580e27755b4c</title>
<path fill="none" stroke="#7b8894" d="M101.19,-2967.5C101.19,-2967.5 399.93,-2967.5 399.93,-2967.5"/>
<polygon fill="#7b8894" stroke="#7b8894" points="399.93,-2971 409.93,-2967.5 399.93,-2964 399.93,-2971"/>
<text text-anchor="middle" x="255.5" y="-2971.1" font-family="Sans-Serif" font-size="13.00" fill="#2d3436">l_to_ds_comper_prelevement_mensualisation</text>
</g>
<!-- 2f479db76b034dbc9bf6f55a68fcd0e7 -->
<g id="node43" class="node">
<title>2f479db76b034dbc9bf6f55a68fcd0e7</title>
<image xlink:href="icons/bigquery.png" width="101px" height="101px" preserveAspectRatio="xMinYMin meet" x="410" y="-3198"/>
<text text-anchor="middle" x="460.5" y="-3082.6" font-family="Sans-Serif" font-size="13.00" fill="#2d3436">comper.l_ama_to_ds_comper_activation_energie</text>
</g>
<!-- 938226dca2824dfa82627d11539b56e1 -->
<g id="node44" class="node">
<title>938226dca2824dfa82627d11539b56e1</title>
<image xlink:href="icons/bigquery.png" width="101px" height="101px" preserveAspectRatio="xMinYMin meet" x="0" y="-3198"/>
<text text-anchor="middle" x="50.5" y="-3082.6" font-family="Sans-Serif" font-size="13.00" fill="#2d3436">amadeus.e_gsheet_activation_energie</text>
</g>
<!-- 938226dca2824dfa82627d11539b56e1&#45;&gt;2f479db76b034dbc9bf6f55a68fcd0e7 -->
<g id="edge38" class="edge">
<title>938226dca2824dfa82627d11539b56e1&#45;&gt;2f479db76b034dbc9bf6f55a68fcd0e7</title>
<path fill="none" stroke="#7b8894" d="M101.19,-3147.5C101.19,-3147.5 399.93,-3147.5 399.93,-3147.5"/>
<polygon fill="#7b8894" stroke="#7b8894" points="399.93,-3151 409.93,-3147.5 399.93,-3144 399.93,-3151"/>
<text text-anchor="middle" x="255.5" y="-3151.1" font-family="Sans-Serif" font-size="13.00" fill="#2d3436">l_to_ds_comper_activation_energie</text>
</g>
</g>
</svg>
