<?xml version="1.0" encoding="UTF-8" standalone="no"?>
<!DOCTYPE svg PUBLIC "-//W3C//DTD SVG 1.1//EN"
 "http://www.w3.org/Graphics/SVG/1.1/DTD/svg11.dtd">
<!-- Generated by graphviz version 2.47.1 (20210417.1919)
 -->
<!-- Title: amadeus Pages: 1 -->
<svg width="1932pt" height="2844pt"
 viewBox="0.00 0.00 1932.00 2844.00" xmlns="http://www.w3.org/2000/svg" xmlns:xlink="http://www.w3.org/1999/xlink">
<g id="graph0" class="graph" transform="scale(1 1) rotate(0) translate(144 2700)">
<title>amadeus</title>
<text text-anchor="middle" x="822" y="-9" font-family="Sans-Serif" font-size="15.00" fill="#2d3436">amadeus</text>
<g id="clust1" class="cluster">
<title>cluster_amadeus</title>
<path fill="#e5f5fd" stroke="#aeb6be" d="M20,-33C20,-33 1624,-33 1624,-33 1630,-33 1636,-39 1636,-45 1636,-45 1636,-2536 1636,-2536 1636,-2542 1630,-2548 1624,-2548 1624,-2548 20,-2548 20,-2548 14,-2548 8,-2542 8,-2536 8,-2536 8,-45 8,-45 8,-39 14,-33 20,-33"/>
<text text-anchor="middle" x="40" y="-2534.4" font-family="Sans-Serif" font-size="12.00" fill="#2d3436">amadeus</text>
</g>
<!-- d282de3ecd184ad68f0f9ac737cf8bb8 -->
<g id="node1" class="node">
<title>d282de3ecd184ad68f0f9ac737cf8bb8</title>
<image xlink:href="icons/storage.png" width="101px" height="101px" preserveAspectRatio="xMinYMin meet" x="16" y="-2500.5"/>
<text text-anchor="middle" x="66.5" y="-2385.1" font-family="Sans-Serif" font-size="13.00" fill="#2d3436">amadeus_bi.formulaires/GA_VENT_DIGT_</text>
</g>
<!-- 8e8aa7efdf2547a58c30093f4be02c33 -->
<g id="node2" class="node">
<title>8e8aa7efdf2547a58c30093f4be02c33</title>
<image xlink:href="icons/bigquery.png" width="101px" height="101px" preserveAspectRatio="xMinYMin meet" x="426" y="-2500.5"/>
<text text-anchor="middle" x="476.5" y="-2385.1" font-family="Sans-Serif" font-size="13.00" fill="#2d3436">amadeus.e_ama_formulaires_stor</text>
</g>
<!-- d282de3ecd184ad68f0f9ac737cf8bb8&#45;&gt;8e8aa7efdf2547a58c30093f4be02c33 -->
<g id="edge1" class="edge">
<title>d282de3ecd184ad68f0f9ac737cf8bb8&#45;&gt;8e8aa7efdf2547a58c30093f4be02c33</title>
<path fill="none" stroke="#7b8894" d="M117.19,-2450C117.19,-2450 415.93,-2450 415.93,-2450"/>
<polygon fill="#7b8894" stroke="#7b8894" points="415.93,-2453.5 425.93,-2450 415.93,-2446.5 415.93,-2453.5"/>
<text text-anchor="middle" x="271.5" y="-2453.6" font-family="Sans-Serif" font-size="13.00" fill="darkgrey">e_formulaires</text>
</g>
<!-- be39846220224fca970348b3c8e4cb57 -->
<g id="node5" class="node">
<title>be39846220224fca970348b3c8e4cb57</title>
<image xlink:href="icons/bigquery.png" width="101px" height="101px" preserveAspectRatio="xMinYMin meet" x="798" y="-2320.5"/>
<text text-anchor="middle" x="848.5" y="-2205.1" font-family="Sans-Serif" font-size="13.00" fill="#2d3436">amadeus.t_ama_formulaires_campagnes</text>
</g>
<!-- 8e8aa7efdf2547a58c30093f4be02c33&#45;&gt;be39846220224fca970348b3c8e4cb57 -->
<g id="edge3" class="edge">
<title>8e8aa7efdf2547a58c30093f4be02c33&#45;&gt;be39846220224fca970348b3c8e4cb57</title>
<path fill="none" stroke="#7b8894" d="M494,-2381.33C494,-2369.01 494,-2360 494,-2360 494,-2360 849,-2360 849,-2360 849,-2360 849,-2348.67 849,-2348.67"/>
<polygon fill="#7b8894" stroke="#7b8894" points="852.5,-2348.67 849,-2338.67 845.5,-2348.67 852.5,-2348.67"/>
<text text-anchor="middle" x="662.5" y="-2394.6" font-family="Sans-Serif" font-size="13.00" fill="darkgrey">t_formulaires_campagnes</text>
</g>
<!-- fa7c4a368c65479196a2b2373c2e24fc -->
<g id="node11" class="node">
<title>fa7c4a368c65479196a2b2373c2e24fc</title>
<image xlink:href="icons/bigquery.png" width="101px" height="101px" preserveAspectRatio="xMinYMin meet" x="798" y="-2500.5"/>
<text text-anchor="middle" x="848.5" y="-2385.1" font-family="Sans-Serif" font-size="13.00" fill="#2d3436">amadeus.t_ama_formulaires_verif_flux_ga</text>
</g>
<!-- 8e8aa7efdf2547a58c30093f4be02c33&#45;&gt;fa7c4a368c65479196a2b2373c2e24fc -->
<g id="edge9" class="edge">
<title>8e8aa7efdf2547a58c30093f4be02c33&#45;&gt;fa7c4a368c65479196a2b2373c2e24fc</title>
<path fill="none" stroke="#7b8894" d="M527.06,-2450C527.06,-2450 787.76,-2450 787.76,-2450"/>
<polygon fill="#7b8894" stroke="#7b8894" points="787.76,-2453.5 797.76,-2450 787.76,-2446.5 787.76,-2453.5"/>
<text text-anchor="middle" x="662.5" y="-2456.6" font-family="Sans-Serif" font-size="13.00" fill="darkgrey">t_formulaires_verif_flux_ga</text>
</g>
<!-- 62fe2c664d9445a78d7d082edcbd9c82 -->
<g id="node3" class="node">
<title>62fe2c664d9445a78d7d082edcbd9c82</title>
<image xlink:href="icons/storage.png" width="101px" height="101px" preserveAspectRatio="xMinYMin meet" x="16" y="-1960.5"/>
<text text-anchor="middle" x="66.5" y="-1845.1" font-family="Sans-Serif" font-size="13.00" fill="#2d3436">amadeus_bi.appels/GA_SVI_</text>
</g>
<!-- e8b4d2a497e6440ea1744dbe677169f5 -->
<g id="node4" class="node">
<title>e8b4d2a497e6440ea1744dbe677169f5</title>
<image xlink:href="icons/bigquery.png" width="101px" height="101px" preserveAspectRatio="xMinYMin meet" x="426" y="-1960.5"/>
<text text-anchor="middle" x="476.5" y="-1845.1" font-family="Sans-Serif" font-size="13.00" fill="#2d3436">amadeus.e_ama_appels</text>
</g>
<!-- 62fe2c664d9445a78d7d082edcbd9c82&#45;&gt;e8b4d2a497e6440ea1744dbe677169f5 -->
<g id="edge2" class="edge">
<title>62fe2c664d9445a78d7d082edcbd9c82&#45;&gt;e8b4d2a497e6440ea1744dbe677169f5</title>
<path fill="none" stroke="#7b8894" d="M117.19,-1910C117.19,-1910 415.93,-1910 415.93,-1910"/>
<polygon fill="#7b8894" stroke="#7b8894" points="415.93,-1913.5 425.93,-1910 415.93,-1906.5 415.93,-1913.5"/>
<text text-anchor="middle" x="271.5" y="-1913.6" font-family="Sans-Serif" font-size="13.00" fill="darkgrey">e_appels</text>
</g>
<!-- de5bfe116c784556b0a2e26cdd4b1370 -->
<g id="node14" class="node">
<title>de5bfe116c784556b0a2e26cdd4b1370</title>
<image xlink:href="icons/bigquery.png" width="101px" height="101px" preserveAspectRatio="xMinYMin meet" x="798" y="-1675.5"/>
<text text-anchor="middle" x="848.5" y="-1560.1" font-family="Sans-Serif" font-size="13.00" fill="#2d3436">amadeus.t_ama_appels</text>
</g>
<!-- e8b4d2a497e6440ea1744dbe677169f5&#45;&gt;de5bfe116c784556b0a2e26cdd4b1370 -->
<g id="edge14" class="edge">
<title>e8b4d2a497e6440ea1744dbe677169f5&#45;&gt;de5bfe116c784556b0a2e26cdd4b1370</title>
<path fill="none" stroke="#7b8894" d="M527.46,-1910C582.68,-1910 663,-1910 663,-1910 663,-1910 663,-1682.83 663,-1682.83 663,-1682.83 787.81,-1682.83 787.81,-1682.83"/>
<polygon fill="#7b8894" stroke="#7b8894" points="787.81,-1686.33 797.81,-1682.83 787.81,-1679.33 787.81,-1686.33"/>
<text text-anchor="middle" x="662.5" y="-1853.6" font-family="Sans-Serif" font-size="13.00" fill="darkgrey">t_appels</text>
</g>
<!-- 44d6a1f214fd46b4a7c11605b3e46aca -->
<g id="node24" class="node">
<title>44d6a1f214fd46b4a7c11605b3e46aca</title>
<image xlink:href="icons/bigquery.png" width="101px" height="101px" preserveAspectRatio="xMinYMin meet" x="798" y="-2140.5"/>
<text text-anchor="middle" x="848.5" y="-2025.1" font-family="Sans-Serif" font-size="13.00" fill="#2d3436">amadeus.t_ama_import_gads</text>
</g>
<!-- e8b4d2a497e6440ea1744dbe677169f5&#45;&gt;44d6a1f214fd46b4a7c11605b3e46aca -->
<g id="edge25" class="edge">
<title>e8b4d2a497e6440ea1744dbe677169f5&#45;&gt;44d6a1f214fd46b4a7c11605b3e46aca</title>
<path fill="none" stroke="#7b8894" d="M477,-1978.54C477,-1994.62 477,-2007.17 477,-2007.17 477,-2007.17 832,-2007.17 832,-2007.17 832,-2007.17 832,-2011.22 832,-2011.22"/>
<polygon fill="#7b8894" stroke="#7b8894" points="828.5,-2011.22 832,-2021.22 835.5,-2011.22 828.5,-2011.22"/>
<text text-anchor="middle" x="662.5" y="-1972.6" font-family="Sans-Serif" font-size="13.00" fill="darkgrey">t_import_gads</text>
</g>
<!-- 222abf931d0e444f88c7b170b60f3833 -->
<g id="node8" class="node">
<title>222abf931d0e444f88c7b170b60f3833</title>
<image xlink:href="icons/bigquery.png" width="101px" height="101px" preserveAspectRatio="xMinYMin meet" x="1208" y="-2320.5"/>
<text text-anchor="middle" x="1258.5" y="-2205.1" font-family="Sans-Serif" font-size="13.00" fill="#2d3436">amadeus.t_ama_contrats_formulaires</text>
</g>
<!-- be39846220224fca970348b3c8e4cb57&#45;&gt;222abf931d0e444f88c7b170b60f3833 -->
<g id="edge6" class="edge">
<title>be39846220224fca970348b3c8e4cb57&#45;&gt;222abf931d0e444f88c7b170b60f3833</title>
<path fill="none" stroke="#7b8894" d="M899.19,-2292.83C899.19,-2292.83 1197.93,-2292.83 1197.93,-2292.83"/>
<polygon fill="#7b8894" stroke="#7b8894" points="1197.93,-2296.33 1207.93,-2292.83 1197.93,-2289.33 1197.93,-2296.33"/>
<text text-anchor="middle" x="1043" y="-2273.6" font-family="Sans-Serif" font-size="13.00" fill="darkgrey">t_contrats_formulaires</text>
</g>
<!-- 8b377ed3a041430a941a5e03c2782c79 -->
<g id="node10" class="node">
<title>8b377ed3a041430a941a5e03c2782c79</title>
<image xlink:href="icons/bigquery.png" width="101px" height="101px" preserveAspectRatio="xMinYMin meet" x="1208" y="-2500.5"/>
<text text-anchor="middle" x="1258.5" y="-2385.1" font-family="Sans-Serif" font-size="13.00" fill="#2d3436">amadeus.t_ama_leads_formulaires</text>
</g>
<!-- be39846220224fca970348b3c8e4cb57&#45;&gt;8b377ed3a041430a941a5e03c2782c79 -->
<g id="edge8" class="edge">
<title>be39846220224fca970348b3c8e4cb57&#45;&gt;8b377ed3a041430a941a5e03c2782c79</title>
<path fill="none" stroke="#7b8894" d="M874,-2338.56C874,-2345.04 874,-2349.25 874,-2349.25 874,-2349.25 1259,-2349.25 1259,-2349.25 1259,-2349.25 1259,-2371.4 1259,-2371.4"/>
<polygon fill="#7b8894" stroke="#7b8894" points="1255.5,-2371.4 1259,-2381.4 1262.5,-2371.4 1255.5,-2371.4"/>
<text text-anchor="middle" x="1043" y="-2394.6" font-family="Sans-Serif" font-size="13.00" fill="darkgrey">t_leads_formulaires</text>
</g>
<!-- d664a6fc858c4d5199d5264df97dae3d -->
<g id="node6" class="node">
<title>d664a6fc858c4d5199d5264df97dae3d</title>
<image xlink:href="icons/bigquery.png" width="101px" height="101px" preserveAspectRatio="xMinYMin meet" x="426" y="-2320.5"/>
<text text-anchor="middle" x="476.5" y="-2205.1" font-family="Sans-Serif" font-size="13.00" fill="#2d3436">ga.l_ga_to_ama_ga_formulaires_stor_*</text>
</g>
<!-- d664a6fc858c4d5199d5264df97dae3d&#45;&gt;be39846220224fca970348b3c8e4cb57 -->
<g id="edge4" class="edge">
<title>d664a6fc858c4d5199d5264df97dae3d&#45;&gt;be39846220224fca970348b3c8e4cb57</title>
<path fill="none" stroke="#7b8894" d="M527.06,-2270C527.06,-2270 787.76,-2270 787.76,-2270"/>
<polygon fill="#7b8894" stroke="#7b8894" points="787.76,-2273.5 797.76,-2270 787.76,-2266.5 787.76,-2273.5"/>
<text text-anchor="middle" x="662.5" y="-2270.6" font-family="Sans-Serif" font-size="13.00" fill="darkgrey">t_formulaires_campagnes</text>
</g>
<!-- d664a6fc858c4d5199d5264df97dae3d&#45;&gt;fa7c4a368c65479196a2b2373c2e24fc -->
<g id="edge10" class="edge">
<title>d664a6fc858c4d5199d5264df97dae3d&#45;&gt;fa7c4a368c65479196a2b2373c2e24fc</title>
<path fill="none" stroke="#7b8894" d="M460,-2338.6C460,-2356.43 460,-2370.75 460,-2370.75 460,-2370.75 824,-2370.75 824,-2370.75 824,-2370.75 824,-2371.82 824,-2371.82"/>
<polygon fill="#7b8894" stroke="#7b8894" points="820.5,-2371.44 824,-2381.44 827.5,-2371.44 820.5,-2371.44"/>
<text text-anchor="middle" x="662.5" y="-2332.6" font-family="Sans-Serif" font-size="13.00" fill="darkgrey">t_formulaires_verif_flux_ga</text>
</g>
<!-- 24e3cd59db354267a8e7aef772316642 -->
<g id="node7" class="node">
<title>24e3cd59db354267a8e7aef772316642</title>
<image xlink:href="icons/bigquery.png" width="101px" height="101px" preserveAspectRatio="xMinYMin meet" x="426" y="-2140.5"/>
<text text-anchor="middle" x="476.5" y="-2025.1" font-family="Sans-Serif" font-size="13.00" fill="#2d3436">ga.t_ga_correspondance_hash_campagnes</text>
</g>
<!-- 24e3cd59db354267a8e7aef772316642&#45;&gt;be39846220224fca970348b3c8e4cb57 -->
<g id="edge5" class="edge">
<title>24e3cd59db354267a8e7aef772316642&#45;&gt;be39846220224fca970348b3c8e4cb57</title>
<path fill="none" stroke="#7b8894" d="M477,-2158.67C477,-2170.99 477,-2180 477,-2180 477,-2180 849,-2180 849,-2180 849,-2180 849,-2191.33 849,-2191.33"/>
<polygon fill="#7b8894" stroke="#7b8894" points="845.5,-2191.33 849,-2201.33 852.5,-2191.33 845.5,-2191.33"/>
<text text-anchor="middle" x="662.5" y="-2152.6" font-family="Sans-Serif" font-size="13.00" fill="darkgrey">t_formulaires_campagnes</text>
</g>
<!-- 7097d2509fd7446cba443ed83a47d2ca -->
<g id="node9" class="node">
<title>7097d2509fd7446cba443ed83a47d2ca</title>
<image xlink:href="icons/bigquery.png" width="101px" height="101px" preserveAspectRatio="xMinYMin meet" x="798" y="-1960.5"/>
<text text-anchor="middle" x="848.5" y="-1845.1" font-family="Sans-Serif" font-size="13.00" fill="#2d3436">comper.e_v_digi_import_cube_valeur</text>
</g>
<!-- 7097d2509fd7446cba443ed83a47d2ca&#45;&gt;222abf931d0e444f88c7b170b60f3833 -->
<g id="edge7" class="edge">
<title>7097d2509fd7446cba443ed83a47d2ca&#45;&gt;222abf931d0e444f88c7b170b60f3833</title>
<path fill="none" stroke="#7b8894" d="M899.03,-1932.83C959.88,-1932.83 1054,-1932.83 1054,-1932.83 1054,-1932.83 1054,-2247.17 1054,-2247.17 1054,-2247.17 1197.95,-2247.17 1197.95,-2247.17"/>
<polygon fill="#7b8894" stroke="#7b8894" points="1197.95,-2250.67 1207.95,-2247.17 1197.95,-2243.67 1197.95,-2250.67"/>
<text text-anchor="middle" x="1043" y="-2169.6" font-family="Sans-Serif" font-size="13.00" fill="darkgrey">t_contrats_formulaires</text>
</g>
<!-- 7254638b2ffb47a8a218bcdeedeac2fe -->
<g id="node19" class="node">
<title>7254638b2ffb47a8a218bcdeedeac2fe</title>
<image xlink:href="icons/bigquery.png" width="101px" height="101px" preserveAspectRatio="xMinYMin meet" x="1208" y="-2140.5"/>
<text text-anchor="middle" x="1258.5" y="-2025.1" font-family="Sans-Serif" font-size="13.00" fill="#2d3436">amadeus.t_ama_contrats_appels</text>
</g>
<!-- 7097d2509fd7446cba443ed83a47d2ca&#45;&gt;7254638b2ffb47a8a218bcdeedeac2fe -->
<g id="edge19" class="edge">
<title>7097d2509fd7446cba443ed83a47d2ca&#45;&gt;7254638b2ffb47a8a218bcdeedeac2fe</title>
<path fill="none" stroke="#7b8894" d="M866,-1978.78C866,-1987.16 866,-1992.83 866,-1992.83 866,-1992.83 1259,-1992.83 1259,-1992.83 1259,-1992.83 1259,-2011.46 1259,-2011.46"/>
<polygon fill="#7b8894" stroke="#7b8894" points="1255.5,-2011.46 1259,-2021.46 1262.5,-2011.46 1255.5,-2011.46"/>
<text text-anchor="middle" x="1043" y="-2065.6" font-family="Sans-Serif" font-size="13.00" fill="darkgrey">t_contrats_appels</text>
</g>
<!-- 683223c042c149b5811a5878c992742b -->
<g id="node12" class="node">
<title>683223c042c149b5811a5878c992742b</title>
<image xlink:href="icons/bigquery.png" width="101px" height="101px" preserveAspectRatio="xMinYMin meet" x="426" y="-1420.5"/>
<text text-anchor="middle" x="476.5" y="-1305.1" font-family="Sans-Serif" font-size="13.00" fill="#2d3436">ga.t_ga_sessions</text>
</g>
<!-- 852116676fb8432984dcd2eb911d14d2 -->
<g id="node13" class="node">
<title>852116676fb8432984dcd2eb911d14d2</title>
<image xlink:href="icons/bigquery.png" width="101px" height="101px" preserveAspectRatio="xMinYMin meet" x="798" y="-1420.5"/>
<text text-anchor="middle" x="848.5" y="-1305.1" font-family="Sans-Serif" font-size="13.00" fill="#2d3436">amadeus.t_ama_appels_ga</text>
</g>
<!-- 683223c042c149b5811a5878c992742b&#45;&gt;852116676fb8432984dcd2eb911d14d2 -->
<g id="edge11" class="edge">
<title>683223c042c149b5811a5878c992742b&#45;&gt;852116676fb8432984dcd2eb911d14d2</title>
<path fill="none" stroke="#7b8894" d="M527.06,-1370C527.06,-1370 787.76,-1370 787.76,-1370"/>
<polygon fill="#7b8894" stroke="#7b8894" points="787.76,-1373.5 797.76,-1370 787.76,-1366.5 787.76,-1373.5"/>
<text text-anchor="middle" x="662.5" y="-1373.6" font-family="Sans-Serif" font-size="13.00" fill="darkgrey">t_appels_ga</text>
</g>
<!-- 569093245d9042c1a6e1abcc90d4608c -->
<g id="node23" class="node">
<title>569093245d9042c1a6e1abcc90d4608c</title>
<image xlink:href="icons/bigquery.png" width="101px" height="101px" preserveAspectRatio="xMinYMin meet" x="798" y="-1240.5"/>
<text text-anchor="middle" x="848.5" y="-1125.1" font-family="Sans-Serif" font-size="13.00" fill="#2d3436">eloqua.t_elq_promo_applis_mobiles_tlgt_appli</text>
</g>
<!-- 683223c042c149b5811a5878c992742b&#45;&gt;569093245d9042c1a6e1abcc90d4608c -->
<g id="edge24" class="edge">
<title>683223c042c149b5811a5878c992742b&#45;&gt;569093245d9042c1a6e1abcc90d4608c</title>
<path fill="none" stroke="#7b8894" d="M477,-1301.35C477,-1282.67 477,-1267.5 477,-1267.5 477,-1267.5 866,-1267.5 866,-1267.5 866,-1267.5 866,-1266.61 866,-1266.61"/>
<polygon fill="#7b8894" stroke="#7b8894" points="869.5,-1268.61 866,-1258.61 862.5,-1268.61 869.5,-1268.61"/>
<text text-anchor="middle" x="662.5" y="-1283.6" font-family="Sans-Serif" font-size="13.00" fill="darkgrey">t_elq_promo_applis_mobiles_tlgt_appli</text>
</g>
<!-- a16b69dec7004527934fe9d18f0956b0 -->
<g id="node15" class="node">
<title>a16b69dec7004527934fe9d18f0956b0</title>
<image xlink:href="icons/bigquery.png" width="101px" height="101px" preserveAspectRatio="xMinYMin meet" x="1208" y="-959.5"/>
<text text-anchor="middle" x="1258.5" y="-844.1" font-family="Sans-Serif" font-size="13.00" fill="#2d3436">amadeus.t_ama_appels_leviers</text>
</g>
<!-- 852116676fb8432984dcd2eb911d14d2&#45;&gt;a16b69dec7004527934fe9d18f0956b0 -->
<g id="edge13" class="edge">
<title>852116676fb8432984dcd2eb911d14d2&#45;&gt;a16b69dec7004527934fe9d18f0956b0</title>
<path fill="none" stroke="#7b8894" d="M899,-1347.17C919.31,-1347.17 938,-1347.17 938,-1347.17 938,-1347.17 938,-953.5 938,-953.5 938,-953.5 1197.72,-953.5 1197.72,-953.5"/>
<polygon fill="#7b8894" stroke="#7b8894" points="1197.72,-957 1207.72,-953.5 1197.72,-950 1197.72,-957"/>
<text text-anchor="middle" x="1043" y="-979.6" font-family="Sans-Serif" font-size="13.00" fill="darkgrey">t_appels_leviers</text>
</g>
<!-- a64a89491fa54fe199df4cb0a5682dcc -->
<g id="node20" class="node">
<title>a64a89491fa54fe199df4cb0a5682dcc</title>
<image xlink:href="icons/bigquery.png" width="101px" height="101px" preserveAspectRatio="xMinYMin meet" x="1527" y="-1395.5"/>
<text text-anchor="middle" x="1577.5" y="-1280.1" font-family="Sans-Serif" font-size="13.00" fill="#2d3436">amadeus.t_ama_contrats_appels_leviers</text>
</g>
<!-- 852116676fb8432984dcd2eb911d14d2&#45;&gt;a64a89491fa54fe199df4cb0a5682dcc -->
<g id="edge21" class="edge">
<title>852116676fb8432984dcd2eb911d14d2&#45;&gt;a64a89491fa54fe199df4cb0a5682dcc</title>
<path fill="none" stroke="#7b8894" d="M832,-1301.3C832,-1293.91 832,-1289 832,-1289 832,-1289 1516.84,-1289 1516.84,-1289"/>
<polygon fill="#7b8894" stroke="#7b8894" points="1516.84,-1292.5 1526.84,-1289 1516.84,-1285.5 1516.84,-1292.5"/>
<text text-anchor="middle" x="1258.5" y="-1067.6" font-family="Sans-Serif" font-size="13.00" fill="darkgrey">t_contrats_appels_leviers</text>
</g>
<!-- de5bfe116c784556b0a2e26cdd4b1370&#45;&gt;a16b69dec7004527934fe9d18f0956b0 -->
<g id="edge12" class="edge">
<title>de5bfe116c784556b0a2e26cdd4b1370&#45;&gt;a16b69dec7004527934fe9d18f0956b0</title>
<path fill="none" stroke="#7b8894" d="M899.29,-1568.9C935.2,-1568.9 977,-1568.9 977,-1568.9 977,-1568.9 977,-965.5 977,-965.5 977,-965.5 1197.85,-965.5 1197.85,-965.5"/>
<polygon fill="#7b8894" stroke="#7b8894" points="1197.85,-969 1207.85,-965.5 1197.85,-962 1197.85,-969"/>
<text text-anchor="middle" x="1043" y="-1224.6" font-family="Sans-Serif" font-size="13.00" fill="darkgrey">t_appels_leviers</text>
</g>
<!-- de5bfe116c784556b0a2e26cdd4b1370&#45;&gt;7254638b2ffb47a8a218bcdeedeac2fe -->
<g id="edge18" class="edge">
<title>de5bfe116c784556b0a2e26cdd4b1370&#45;&gt;7254638b2ffb47a8a218bcdeedeac2fe</title>
<path fill="none" stroke="#7b8894" d="M899.16,-1685.5C970.78,-1685.5 1093,-1685.5 1093,-1685.5 1093,-1685.5 1093,-2090 1093,-2090 1093,-2090 1197.95,-2090 1197.95,-2090"/>
<polygon fill="#7b8894" stroke="#7b8894" points="1197.95,-2093.5 1207.95,-2090 1197.95,-2086.5 1197.95,-2093.5"/>
<text text-anchor="middle" x="1043" y="-1945.6" font-family="Sans-Serif" font-size="13.00" fill="darkgrey">t_contrats_appels</text>
</g>
<!-- 90de58fa8c68478a9c769a1953262f82 -->
<g id="node25" class="node">
<title>90de58fa8c68478a9c769a1953262f82</title>
<image xlink:href="icons/bigquery.png" width="101px" height="101px" preserveAspectRatio="xMinYMin meet" x="1208" y="-1420.5"/>
<text text-anchor="middle" x="1258.5" y="-1305.1" font-family="Sans-Serif" font-size="13.00" fill="#2d3436">amadeus.t_ama_valeurs_plus40_datastudio_gads</text>
</g>
<!-- de5bfe116c784556b0a2e26cdd4b1370&#45;&gt;90de58fa8c68478a9c769a1953262f82 -->
<g id="edge26" class="edge">
<title>de5bfe116c784556b0a2e26cdd4b1370&#45;&gt;90de58fa8c68478a9c769a1953262f82</title>
<path fill="none" stroke="#7b8894" d="M899.09,-1593.7C989.63,-1593.7 1170,-1593.7 1170,-1593.7 1170,-1593.7 1170,-1392.83 1170,-1392.83 1170,-1392.83 1197.79,-1392.83 1197.79,-1392.83"/>
<polygon fill="#7b8894" stroke="#7b8894" points="1197.79,-1396.33 1207.79,-1392.83 1197.79,-1389.33 1197.79,-1396.33"/>
<text text-anchor="middle" x="1043" y="-1447.6" font-family="Sans-Serif" font-size="13.00" fill="darkgrey">t_valeurs_plus40_datastudio_gads</text>
</g>
<!-- c687f3c8a0264b4bb2d19c88173e1ebd -->
<g id="node26" class="node">
<title>c687f3c8a0264b4bb2d19c88173e1ebd</title>
<image xlink:href="icons/bigquery.png" width="101px" height="101px" preserveAspectRatio="xMinYMin meet" x="1208" y="-1600.5"/>
<text text-anchor="middle" x="1258.5" y="-1485.1" font-family="Sans-Serif" font-size="13.00" fill="#2d3436">amadeus.t_ama_valeurs_datastudio_gads</text>
</g>
<!-- de5bfe116c784556b0a2e26cdd4b1370&#45;&gt;c687f3c8a0264b4bb2d19c88173e1ebd -->
<g id="edge27" class="edge">
<title>de5bfe116c784556b0a2e26cdd4b1370&#45;&gt;c687f3c8a0264b4bb2d19c88173e1ebd</title>
<path fill="none" stroke="#7b8894" d="M899.19,-1606.1C899.19,-1606.1 1197.93,-1606.1 1197.93,-1606.1"/>
<polygon fill="#7b8894" stroke="#7b8894" points="1197.93,-1609.6 1207.93,-1606.1 1197.93,-1602.6 1197.93,-1609.6"/>
<text text-anchor="middle" x="1043" y="-1583.6" font-family="Sans-Serif" font-size="13.00" fill="darkgrey">t_valeurs_datastudio_gads</text>
</g>
<!-- f2019b6b070e49a6a72e28e03c677b2b -->
<g id="node27" class="node">
<title>f2019b6b070e49a6a72e28e03c677b2b</title>
<image xlink:href="icons/bigquery.png" width="101px" height="101px" preserveAspectRatio="xMinYMin meet" x="1208" y="-1780.5"/>
<text text-anchor="middle" x="1258.5" y="-1665.1" font-family="Sans-Serif" font-size="13.00" fill="#2d3436">amadeus.t_ama_valeurs_sousindicateur_gads</text>
</g>
<!-- de5bfe116c784556b0a2e26cdd4b1370&#45;&gt;f2019b6b070e49a6a72e28e03c677b2b -->
<g id="edge28" class="edge">
<title>de5bfe116c784556b0a2e26cdd4b1370&#45;&gt;f2019b6b070e49a6a72e28e03c677b2b</title>
<path fill="none" stroke="#7b8894" d="M899.19,-1669.5C899.19,-1669.5 1197.93,-1669.5 1197.93,-1669.5"/>
<polygon fill="#7b8894" stroke="#7b8894" points="1197.93,-1673 1207.93,-1669.5 1197.93,-1666 1197.93,-1673"/>
<text text-anchor="middle" x="1043" y="-1674.6" font-family="Sans-Serif" font-size="13.00" fill="darkgrey">t_valeurs_sousindicateur_gads</text>
</g>
<!-- 206524836150424a85068be68db95a27 -->
<g id="node28" class="node">
<title>206524836150424a85068be68db95a27</title>
<image xlink:href="icons/bigquery.png" width="101px" height="101px" preserveAspectRatio="xMinYMin meet" x="1208" y="-1960.5"/>
<text text-anchor="middle" x="1258.5" y="-1845.1" font-family="Sans-Serif" font-size="13.00" fill="#2d3436">amadeus.t_ama_anciennes_valeurs_gads</text>
</g>
<!-- de5bfe116c784556b0a2e26cdd4b1370&#45;&gt;206524836150424a85068be68db95a27 -->
<g id="edge29" class="edge">
<title>de5bfe116c784556b0a2e26cdd4b1370&#45;&gt;206524836150424a85068be68db95a27</title>
<path fill="none" stroke="#7b8894" d="M899.01,-1677.5C980.26,-1677.5 1131,-1677.5 1131,-1677.5 1131,-1677.5 1131,-1887.17 1131,-1887.17 1131,-1887.17 1197.74,-1887.17 1197.74,-1887.17"/>
<polygon fill="#7b8894" stroke="#7b8894" points="1197.74,-1890.67 1207.74,-1887.17 1197.74,-1883.67 1197.74,-1890.67"/>
<text text-anchor="middle" x="1043" y="-1825.6" font-family="Sans-Serif" font-size="13.00" fill="darkgrey">t_anciennes_valeurs_gads</text>
</g>
<!-- dc86690546b94548a218cec0ae4e5fde -->
<g id="node29" class="node">
<title>dc86690546b94548a218cec0ae4e5fde</title>
<image xlink:href="icons/bigquery.png" width="101px" height="101px" preserveAspectRatio="xMinYMin meet" x="1208" y="-1240.5"/>
<text text-anchor="middle" x="1258.5" y="-1125.1" font-family="Sans-Serif" font-size="13.00" fill="#2d3436">amadeus.t_ama_anciennes_valeurs_sousindicateur_gads</text>
</g>
<!-- de5bfe116c784556b0a2e26cdd4b1370&#45;&gt;dc86690546b94548a218cec0ae4e5fde -->
<g id="edge30" class="edge">
<title>de5bfe116c784556b0a2e26cdd4b1370&#45;&gt;dc86690546b94548a218cec0ae4e5fde</title>
<path fill="none" stroke="#7b8894" d="M899.36,-1581.3C948.32,-1581.3 1015,-1581.3 1015,-1581.3 1015,-1581.3 1015,-1190 1015,-1190 1015,-1190 1197.75,-1190 1197.75,-1190"/>
<polygon fill="#7b8894" stroke="#7b8894" points="1197.75,-1193.5 1207.75,-1190 1197.75,-1186.5 1197.75,-1193.5"/>
<text text-anchor="middle" x="1043" y="-1352.6" font-family="Sans-Serif" font-size="13.00" fill="darkgrey">t_anciennes_valeurs_sousindicateur_gads</text>
</g>
<!-- 9de3b69ee70541538ee039795c0c387f -->
<g id="node18" class="node">
<title>9de3b69ee70541538ee039795c0c387f</title>
<image xlink:href="icons/bigquery.png" width="101px" height="101px" preserveAspectRatio="xMinYMin meet" x="1527" y="-959.5"/>
<text text-anchor="middle" x="1577.5" y="-844.1" font-family="Sans-Serif" font-size="13.00" fill="#2d3436">amadeus.t_ama_leads_appels</text>
</g>
<!-- a16b69dec7004527934fe9d18f0956b0&#45;&gt;9de3b69ee70541538ee039795c0c387f -->
<g id="edge17" class="edge">
<title>a16b69dec7004527934fe9d18f0956b0&#45;&gt;9de3b69ee70541538ee039795c0c387f</title>
<path fill="none" stroke="#7b8894" d="M1309.05,-909C1309.05,-909 1516.93,-909 1516.93,-909"/>
<polygon fill="#7b8894" stroke="#7b8894" points="1516.93,-912.5 1526.93,-909 1516.93,-905.5 1516.93,-912.5"/>
<text text-anchor="middle" x="1428.5" y="-912.6" font-family="Sans-Serif" font-size="13.00" fill="darkgrey">t_leads_appels</text>
</g>
<!-- c588f8a8f70f493cb946ba3ffe8f5323 -->
<g id="node16" class="node">
<title>c588f8a8f70f493cb946ba3ffe8f5323</title>
<image xlink:href="icons/bigquery.png" width="101px" height="101px" preserveAspectRatio="xMinYMin meet" x="426" y="-1600.5"/>
<text text-anchor="middle" x="476.5" y="-1485.1" font-family="Sans-Serif" font-size="13.00" fill="#2d3436">amadeus.e_ama_appels_2020</text>
</g>
<!-- c588f8a8f70f493cb946ba3ffe8f5323&#45;&gt;de5bfe116c784556b0a2e26cdd4b1370 -->
<g id="edge15" class="edge">
<title>c588f8a8f70f493cb946ba3ffe8f5323&#45;&gt;de5bfe116c784556b0a2e26cdd4b1370</title>
<path fill="none" stroke="#7b8894" d="M527.06,-1587.5C527.06,-1587.5 787.76,-1587.5 787.76,-1587.5"/>
<polygon fill="#7b8894" stroke="#7b8894" points="787.76,-1591 797.76,-1587.5 787.76,-1584 787.76,-1591"/>
<text text-anchor="middle" x="662.5" y="-1582.6" font-family="Sans-Serif" font-size="13.00" fill="darkgrey">t_appels</text>
</g>
<!-- 3a7683707c1c48fc97e1e94d154d4613 -->
<g id="node17" class="node">
<title>3a7683707c1c48fc97e1e94d154d4613</title>
<image xlink:href="icons/bigquery.png" width="101px" height="101px" preserveAspectRatio="xMinYMin meet" x="426" y="-1780.5"/>
<text text-anchor="middle" x="476.5" y="-1665.1" font-family="Sans-Serif" font-size="13.00" fill="#2d3436">amadeus.e_ama_appels_2018_2019</text>
</g>
<!-- 3a7683707c1c48fc97e1e94d154d4613&#45;&gt;de5bfe116c784556b0a2e26cdd4b1370 -->
<g id="edge16" class="edge">
<title>3a7683707c1c48fc97e1e94d154d4613&#45;&gt;de5bfe116c784556b0a2e26cdd4b1370</title>
<path fill="none" stroke="#7b8894" d="M527.06,-1672.17C527.06,-1672.17 787.76,-1672.17 787.76,-1672.17"/>
<polygon fill="#7b8894" stroke="#7b8894" points="787.76,-1675.67 797.76,-1672.17 787.76,-1668.67 787.76,-1675.67"/>
<text text-anchor="middle" x="662.5" y="-1674.6" font-family="Sans-Serif" font-size="13.00" fill="darkgrey">t_appels</text>
</g>
<!-- 7254638b2ffb47a8a218bcdeedeac2fe&#45;&gt;a64a89491fa54fe199df4cb0a5682dcc -->
<g id="edge20" class="edge">
<title>7254638b2ffb47a8a218bcdeedeac2fe&#45;&gt;a64a89491fa54fe199df4cb0a5682dcc</title>
<path fill="none" stroke="#7b8894" d="M1309.13,-2090C1399.22,-2090 1578,-2090 1578,-2090 1578,-2090 1578,-1423.75 1578,-1423.75"/>
<polygon fill="#7b8894" stroke="#7b8894" points="1581.5,-1423.75 1578,-1413.75 1574.5,-1423.75 1581.5,-1423.75"/>
<text text-anchor="middle" x="1428.5" y="-1604.6" font-family="Sans-Serif" font-size="13.00" fill="darkgrey">t_contrats_appels_leviers</text>
</g>
<!-- 4b46b9e3f5f24d1cb124795bae96e2ef -->
<g id="node21" class="node">
<title>4b46b9e3f5f24d1cb124795bae96e2ef</title>
<image xlink:href="icons/storage.png" width="101px" height="101px" preserveAspectRatio="xMinYMin meet" x="16" y="-1240.5"/>
<text text-anchor="middle" x="66.5" y="-1125.1" font-family="Sans-Serif" font-size="13.00" fill="#2d3436">amadeus_bi.eloqua/AMA_GOOG_RETR_MARK_ELQC_315_*</text>
</g>
<!-- dbea0ff35aae4b848deccbedb10e61ee -->
<g id="node22" class="node">
<title>dbea0ff35aae4b848deccbedb10e61ee</title>
<image xlink:href="icons/bigquery.png" width="101px" height="101px" preserveAspectRatio="xMinYMin meet" x="426" y="-1240.5"/>
<text text-anchor="middle" x="476.5" y="-1125.1" font-family="Sans-Serif" font-size="13.00" fill="#2d3436">eloqua.e_elq_promo_applis_mobiles_clics_emails</text>
</g>
<!-- 4b46b9e3f5f24d1cb124795bae96e2ef&#45;&gt;dbea0ff35aae4b848deccbedb10e61ee -->
<g id="edge22" class="edge">
<title>4b46b9e3f5f24d1cb124795bae96e2ef&#45;&gt;dbea0ff35aae4b848deccbedb10e61ee</title>
<path fill="none" stroke="#7b8894" d="M117.19,-1190C117.19,-1190 415.93,-1190 415.93,-1190"/>
<polygon fill="#7b8894" stroke="#7b8894" points="415.93,-1193.5 425.93,-1190 415.93,-1186.5 415.93,-1193.5"/>
<text text-anchor="middle" x="271.5" y="-1193.6" font-family="Sans-Serif" font-size="13.00" fill="darkgrey">e_elq_promo_applis_mobiles_clics_emails</text>
</g>
<!-- dbea0ff35aae4b848deccbedb10e61ee&#45;&gt;569093245d9042c1a6e1abcc90d4608c -->
<g id="edge23" class="edge">
<title>dbea0ff35aae4b848deccbedb10e61ee&#45;&gt;569093245d9042c1a6e1abcc90d4608c</title>
<path fill="none" stroke="#7b8894" d="M527.06,-1190C527.06,-1190 787.76,-1190 787.76,-1190"/>
<polygon fill="#7b8894" stroke="#7b8894" points="787.76,-1193.5 797.76,-1190 787.76,-1186.5 787.76,-1193.5"/>
<text text-anchor="middle" x="662.5" y="-1193.6" font-family="Sans-Serif" font-size="13.00" fill="darkgrey">t_elq_promo_applis_mobiles_tlgt_appli</text>
</g>
<!-- 4c39dd3cd6974dd99e69b31b88852c04 -->
<g id="node30" class="node">
<title>4c39dd3cd6974dd99e69b31b88852c04</title>
<image xlink:href="icons/bigquery.png" width="101px" height="101px" preserveAspectRatio="xMinYMin meet" x="16" y="-1060.5"/>
<text text-anchor="middle" x="66.5" y="-945.1" font-family="Sans-Serif" font-size="13.00" fill="#2d3436">comper.t_v_digi_cube_valeur</text>
</g>
<!-- 1cc1d0f2054046d0ba291215af3e0178 -->
<g id="node31" class="node">
<title>1cc1d0f2054046d0ba291215af3e0178</title>
<image xlink:href="icons/bigquery.png" width="101px" height="101px" preserveAspectRatio="xMinYMin meet" x="426" y="-1060.5"/>
<text text-anchor="middle" x="476.5" y="-945.1" font-family="Sans-Serif" font-size="13.00" fill="#2d3436">amadeus.t_ama_parrainage</text>
</g>
<!-- 4c39dd3cd6974dd99e69b31b88852c04&#45;&gt;1cc1d0f2054046d0ba291215af3e0178 -->
<g id="edge31" class="edge">
<title>4c39dd3cd6974dd99e69b31b88852c04&#45;&gt;1cc1d0f2054046d0ba291215af3e0178</title>
<path fill="none" stroke="#7b8894" d="M117.19,-1010C117.19,-1010 415.93,-1010 415.93,-1010"/>
<polygon fill="#7b8894" stroke="#7b8894" points="415.93,-1013.5 425.93,-1010 415.93,-1006.5 415.93,-1013.5"/>
<text text-anchor="middle" x="271.5" y="-1013.6" font-family="Sans-Serif" font-size="13.00" fill="darkgrey">t_parrainage</text>
</g>
<!-- fd79e7217353495fa3ba7d6b684cc84e -->
<g id="node32" class="node">
<title>fd79e7217353495fa3ba7d6b684cc84e</title>
<image xlink:href="icons/bigquery.png" width="101px" height="101px" preserveAspectRatio="xMinYMin meet" x="798" y="-1060.5"/>
<text text-anchor="middle" x="848.5" y="-945.1" font-family="Sans-Serif" font-size="13.00" fill="#2d3436">comper.l_ama_to_ds_comper_t_ama_parrainage</text>
</g>
<!-- 1cc1d0f2054046d0ba291215af3e0178&#45;&gt;fd79e7217353495fa3ba7d6b684cc84e -->
<g id="edge32" class="edge">
<title>1cc1d0f2054046d0ba291215af3e0178&#45;&gt;fd79e7217353495fa3ba7d6b684cc84e</title>
<path fill="none" stroke="#7b8894" d="M527.06,-1010C527.06,-1010 787.76,-1010 787.76,-1010"/>
<polygon fill="#7b8894" stroke="#7b8894" points="787.76,-1013.5 797.76,-1010 787.76,-1006.5 787.76,-1013.5"/>
<text text-anchor="middle" x="662.5" y="-1013.6" font-family="Sans-Serif" font-size="13.00" fill="darkgrey">l_to_ds_comper_t_ama_parrainage</text>
</g>
<!-- 9750ff33896f4397a18acf0f314cdcb7 -->
<g id="node33" class="node">
<title>9750ff33896f4397a18acf0f314cdcb7</title>
<image xlink:href="icons/bigquery.png" width="101px" height="101px" preserveAspectRatio="xMinYMin meet" x="16" y="-880.5"/>
<text text-anchor="middle" x="66.5" y="-765.1" font-family="Sans-Serif" font-size="13.00" fill="#2d3436">amadeus.e_gsheet_contrats_services</text>
</g>
<!-- b232dd981ed1477c81aece4cd9055b89 -->
<g id="node34" class="node">
<title>b232dd981ed1477c81aece4cd9055b89</title>
<image xlink:href="icons/bigquery.png" width="101px" height="101px" preserveAspectRatio="xMinYMin meet" x="426" y="-880.5"/>
<text text-anchor="middle" x="476.5" y="-765.1" font-family="Sans-Serif" font-size="13.00" fill="#2d3436">comper.l_ama_to_ds_comper_contrats_services</text>
</g>
<!-- 9750ff33896f4397a18acf0f314cdcb7&#45;&gt;b232dd981ed1477c81aece4cd9055b89 -->
<g id="edge33" class="edge">
<title>9750ff33896f4397a18acf0f314cdcb7&#45;&gt;b232dd981ed1477c81aece4cd9055b89</title>
<path fill="none" stroke="#7b8894" d="M117.19,-830C117.19,-830 415.93,-830 415.93,-830"/>
<polygon fill="#7b8894" stroke="#7b8894" points="415.93,-833.5 425.93,-830 415.93,-826.5 415.93,-833.5"/>
<text text-anchor="middle" x="271.5" y="-833.6" font-family="Sans-Serif" font-size="13.00" fill="darkgrey">l_to_ds_comper_contrats_services</text>
</g>
<!-- 58426ef4a43942c99092a8b6e907d7ac -->
<g id="node35" class="node">
<title>58426ef4a43942c99092a8b6e907d7ac</title>
<image xlink:href="icons/bigquery.png" width="101px" height="101px" preserveAspectRatio="xMinYMin meet" x="16" y="-700.5"/>
<text text-anchor="middle" x="66.5" y="-585.1" font-family="Sans-Serif" font-size="13.00" fill="#2d3436">reporting_equipements.bout_en_bout_equipements</text>
</g>
<!-- 21e0b458cde3498ab3f9cd982bc47c0e -->
<g id="node36" class="node">
<title>21e0b458cde3498ab3f9cd982bc47c0e</title>
<image xlink:href="icons/bigquery.png" width="101px" height="101px" preserveAspectRatio="xMinYMin meet" x="426" y="-700.5"/>
<text text-anchor="middle" x="476.5" y="-585.1" font-family="Sans-Serif" font-size="13.00" fill="#2d3436">comper.l_ama_to_ds_comper_bout_en_bout_equipements</text>
</g>
<!-- 58426ef4a43942c99092a8b6e907d7ac&#45;&gt;21e0b458cde3498ab3f9cd982bc47c0e -->
<g id="edge34" class="edge">
<title>58426ef4a43942c99092a8b6e907d7ac&#45;&gt;21e0b458cde3498ab3f9cd982bc47c0e</title>
<path fill="none" stroke="#7b8894" d="M117.19,-650C117.19,-650 415.93,-650 415.93,-650"/>
<polygon fill="#7b8894" stroke="#7b8894" points="415.93,-653.5 425.93,-650 415.93,-646.5 415.93,-653.5"/>
<text text-anchor="middle" x="271.5" y="-653.6" font-family="Sans-Serif" font-size="13.00" fill="darkgrey">l_to_ds_comper_bout_en_bout_equipements</text>
</g>
<!-- 1ded044769d64808862c0e97f94bc61e -->
<g id="node37" class="node">
<title>1ded044769d64808862c0e97f94bc61e</title>
<image xlink:href="icons/bigquery.png" width="101px" height="101px" preserveAspectRatio="xMinYMin meet" x="16" y="-520.5"/>
<text text-anchor="middle" x="66.5" y="-405.1" font-family="Sans-Serif" font-size="13.00" fill="#2d3436">amadeus.e_ama_options_vertes</text>
</g>
<!-- 6fcdcc65b05d4a56a32d9cafa9c1f3a6 -->
<g id="node38" class="node">
<title>6fcdcc65b05d4a56a32d9cafa9c1f3a6</title>
<image xlink:href="icons/bigquery.png" width="101px" height="101px" preserveAspectRatio="xMinYMin meet" x="426" y="-520.5"/>
<text text-anchor="middle" x="476.5" y="-405.1" font-family="Sans-Serif" font-size="13.00" fill="#2d3436">comper.t_ama_options_vertes</text>
</g>
<!-- 1ded044769d64808862c0e97f94bc61e&#45;&gt;6fcdcc65b05d4a56a32d9cafa9c1f3a6 -->
<g id="edge35" class="edge">
<title>1ded044769d64808862c0e97f94bc61e&#45;&gt;6fcdcc65b05d4a56a32d9cafa9c1f3a6</title>
<path fill="none" stroke="#7b8894" d="M117.19,-470C117.19,-470 415.93,-470 415.93,-470"/>
<polygon fill="#7b8894" stroke="#7b8894" points="415.93,-473.5 425.93,-470 415.93,-466.5 415.93,-473.5"/>
<text text-anchor="middle" x="271.5" y="-473.6" font-family="Sans-Serif" font-size="13.00" fill="darkgrey">t_options_vertes</text>
</g>
<!-- d7df53b74341452f9e61a03f44d6b03d -->
<g id="node39" class="node">
<title>d7df53b74341452f9e61a03f44d6b03d</title>
<image xlink:href="icons/bigquery.png" width="101px" height="101px" preserveAspectRatio="xMinYMin meet" x="798" y="-520.5"/>
<text text-anchor="middle" x="848.5" y="-405.1" font-family="Sans-Serif" font-size="13.00" fill="#2d3436">comper.l_ama_to_ds_comper_options_vertes</text>
</g>
<!-- 6fcdcc65b05d4a56a32d9cafa9c1f3a6&#45;&gt;d7df53b74341452f9e61a03f44d6b03d -->
<g id="edge36" class="edge">
<title>6fcdcc65b05d4a56a32d9cafa9c1f3a6&#45;&gt;d7df53b74341452f9e61a03f44d6b03d</title>
<path fill="none" stroke="#7b8894" d="M527.06,-470C527.06,-470 787.76,-470 787.76,-470"/>
<polygon fill="#7b8894" stroke="#7b8894" points="787.76,-473.5 797.76,-470 787.76,-466.5 787.76,-473.5"/>
<text text-anchor="middle" x="662.5" y="-473.6" font-family="Sans-Serif" font-size="13.00" fill="darkgrey">l_to_ds_comper_options_vertes</text>
</g>
<!-- 3102b399325f4be692897cc2d9804475 -->
<g id="node40" class="node">
<title>3102b399325f4be692897cc2d9804475</title>
<image xlink:href="icons/bigquery.png" width="101px" height="101px" preserveAspectRatio="xMinYMin meet" x="16" y="-340.5"/>
<text text-anchor="middle" x="66.5" y="-225.1" font-family="Sans-Serif" font-size="13.00" fill="#2d3436">amadeus.e_ama_prelevement_mensualisation</text>
</g>
<!-- 5449d0f1ddd244edb806b41344f5d50a -->
<g id="node41" class="node">
<title>5449d0f1ddd244edb806b41344f5d50a</title>
<image xlink:href="icons/bigquery.png" width="101px" height="101px" preserveAspectRatio="xMinYMin meet" x="426" y="-340.5"/>
<text text-anchor="middle" x="476.5" y="-225.1" font-family="Sans-Serif" font-size="13.00" fill="#2d3436">comper.l_ama_to_ds_comper_prelevement_mensualisation</text>
</g>
<!-- 3102b399325f4be692897cc2d9804475&#45;&gt;5449d0f1ddd244edb806b41344f5d50a -->
<g id="edge37" class="edge">
<title>3102b399325f4be692897cc2d9804475&#45;&gt;5449d0f1ddd244edb806b41344f5d50a</title>
<path fill="none" stroke="#7b8894" d="M117.19,-290C117.19,-290 415.93,-290 415.93,-290"/>
<polygon fill="#7b8894" stroke="#7b8894" points="415.93,-293.5 425.93,-290 415.93,-286.5 415.93,-293.5"/>
<text text-anchor="middle" x="271.5" y="-293.6" font-family="Sans-Serif" font-size="13.00" fill="darkgrey">l_to_ds_comper_prelevement_mensualisation</text>
</g>
<!-- f9ae9f9f9f5f4f6384e69b99e7c027a8 -->
<g id="node42" class="node">
<title>f9ae9f9f9f5f4f6384e69b99e7c027a8</title>
<image xlink:href="icons/bigquery.png" width="101px" height="101px" preserveAspectRatio="xMinYMin meet" x="16" y="-160.5"/>
<text text-anchor="middle" x="66.5" y="-45.1" font-family="Sans-Serif" font-size="13.00" fill="#2d3436">amadeus.e_gsheet_activation_energie</text>
</g>
<!-- 5034900e05e3418e8b88a1efa2d1e584 -->
<g id="node43" class="node">
<title>5034900e05e3418e8b88a1efa2d1e584</title>
<image xlink:href="icons/bigquery.png" width="101px" height="101px" preserveAspectRatio="xMinYMin meet" x="426" y="-160.5"/>
<text text-anchor="middle" x="476.5" y="-45.1" font-family="Sans-Serif" font-size="13.00" fill="#2d3436">comper.l_ama_to_ds_comper_activation_energie</text>
</g>
<!-- f9ae9f9f9f5f4f6384e69b99e7c027a8&#45;&gt;5034900e05e3418e8b88a1efa2d1e584 -->
<g id="edge38" class="edge">
<title>f9ae9f9f9f5f4f6384e69b99e7c027a8&#45;&gt;5034900e05e3418e8b88a1efa2d1e584</title>
<path fill="none" stroke="#7b8894" d="M117.19,-110C117.19,-110 415.93,-110 415.93,-110"/>
<polygon fill="#7b8894" stroke="#7b8894" points="415.93,-113.5 425.93,-110 415.93,-106.5 415.93,-113.5"/>
<text text-anchor="middle" x="271.5" y="-113.6" font-family="Sans-Serif" font-size="13.00" fill="darkgrey">l_to_ds_comper_activation_energie</text>
</g>
</g>
</svg>
