<?xml version="1.0" encoding="UTF-8" standalone="no"?>
<!DOCTYPE svg PUBLIC "-//W3C//DTD SVG 1.1//EN"
 "http://www.w3.org/Graphics/SVG/1.1/DTD/svg11.dtd">
<!-- Generated by graphviz version 2.47.1 (20210417.1919)
 -->
<!-- Title: amadeus Pages: 1 -->
<svg width="1932pt" height="2844pt"
 viewBox="0.00 0.00 1932.00 2844.00" xmlns="http://www.w3.org/2000/svg" xmlns:xlink="http://www.w3.org/1999/xlink">
<g id="graph0" class="graph" transform="scale(1 1) rotate(0) translate(144 2700)">
<title>amadeus</title>
<text text-anchor="middle" x="822" y="-9" font-family="Sans-Serif" font-size="15.00" fill="#2d3436">amadeus</text>
<g id="clust1" class="cluster">
<title>cluster_amadeus</title>
<path fill="#e5f5fd" stroke="#aeb6be" d="M20,-33C20,-33 1624,-33 1624,-33 1630,-33 1636,-39 1636,-45 1636,-45 1636,-2536 1636,-2536 1636,-2542 1630,-2548 1624,-2548 1624,-2548 20,-2548 20,-2548 14,-2548 8,-2542 8,-2536 8,-2536 8,-45 8,-45 8,-39 14,-33 20,-33"/>
<text text-anchor="middle" x="40" y="-2534.4" font-family="Sans-Serif" font-size="12.00" fill="#2d3436">amadeus</text>
</g>
<!-- b31e0011751044d19f992bfc9e38ad78 -->
<g id="node1" class="node">
<title>b31e0011751044d19f992bfc9e38ad78</title>
<image xlink:href="icons/storage.png" width="101px" height="101px" preserveAspectRatio="xMinYMin meet" x="16" y="-2500.5"/>
<text text-anchor="middle" x="66.5" y="-2385.1" font-family="Sans-Serif" font-size="13.00" fill="#2d3436">amadeus_bi.formulaires/GA_VENT_DIGT_</text>
</g>
<!-- f96c67a5cc734f1ea087fbb7b325f408 -->
<g id="node2" class="node">
<title>f96c67a5cc734f1ea087fbb7b325f408</title>
<image xlink:href="icons/bigquery.png" width="101px" height="101px" preserveAspectRatio="xMinYMin meet" x="426" y="-2500.5"/>
<text text-anchor="middle" x="476.5" y="-2385.1" font-family="Sans-Serif" font-size="13.00" fill="#2d3436">amadeus.e_ama_formulaires_stor</text>
</g>
<!-- b31e0011751044d19f992bfc9e38ad78&#45;&gt;f96c67a5cc734f1ea087fbb7b325f408 -->
<g id="edge1" class="edge">
<title>b31e0011751044d19f992bfc9e38ad78&#45;&gt;f96c67a5cc734f1ea087fbb7b325f408</title>
<path fill="none" stroke="#7b8894" d="M117.19,-2450C117.19,-2450 415.93,-2450 415.93,-2450"/>
<polygon fill="#7b8894" stroke="#7b8894" points="415.93,-2453.5 425.93,-2450 415.93,-2446.5 415.93,-2453.5"/>
<text text-anchor="middle" x="271.5" y="-2453.6" font-family="Sans-Serif" font-size="13.00" fill="darkgrey">e_formulaires</text>
</g>
<!-- 28a4bb58da9f4fef869c4f60d9eef475 -->
<g id="node5" class="node">
<title>28a4bb58da9f4fef869c4f60d9eef475</title>
<image xlink:href="icons/bigquery.png" width="101px" height="101px" preserveAspectRatio="xMinYMin meet" x="798" y="-2320.5"/>
<text text-anchor="middle" x="848.5" y="-2205.1" font-family="Sans-Serif" font-size="13.00" fill="#2d3436">amadeus.t_ama_formulaires_campagnes</text>
</g>
<!-- f96c67a5cc734f1ea087fbb7b325f408&#45;&gt;28a4bb58da9f4fef869c4f60d9eef475 -->
<g id="edge3" class="edge">
<title>f96c67a5cc734f1ea087fbb7b325f408&#45;&gt;28a4bb58da9f4fef869c4f60d9eef475</title>
<path fill="none" stroke="#7b8894" d="M494,-2381.33C494,-2369.01 494,-2360 494,-2360 494,-2360 849,-2360 849,-2360 849,-2360 849,-2348.67 849,-2348.67"/>
<polygon fill="#7b8894" stroke="#7b8894" points="852.5,-2348.67 849,-2338.67 845.5,-2348.67 852.5,-2348.67"/>
<text text-anchor="middle" x="662.5" y="-2394.6" font-family="Sans-Serif" font-size="13.00" fill="darkgrey">t_formulaires_campagnes</text>
</g>
<!-- 52331704493b4d82b771825db6800f3a -->
<g id="node11" class="node">
<title>52331704493b4d82b771825db6800f3a</title>
<image xlink:href="icons/bigquery.png" width="101px" height="101px" preserveAspectRatio="xMinYMin meet" x="798" y="-2500.5"/>
<text text-anchor="middle" x="848.5" y="-2385.1" font-family="Sans-Serif" font-size="13.00" fill="#2d3436">amadeus.t_ama_formulaires_verif_flux_ga</text>
</g>
<!-- f96c67a5cc734f1ea087fbb7b325f408&#45;&gt;52331704493b4d82b771825db6800f3a -->
<g id="edge9" class="edge">
<title>f96c67a5cc734f1ea087fbb7b325f408&#45;&gt;52331704493b4d82b771825db6800f3a</title>
<path fill="none" stroke="#7b8894" d="M527.06,-2450C527.06,-2450 787.76,-2450 787.76,-2450"/>
<polygon fill="#7b8894" stroke="#7b8894" points="787.76,-2453.5 797.76,-2450 787.76,-2446.5 787.76,-2453.5"/>
<text text-anchor="middle" x="662.5" y="-2456.6" font-family="Sans-Serif" font-size="13.00" fill="darkgrey">t_formulaires_verif_flux_ga</text>
</g>
<!-- b7f9f66fdc7a41aa97539ed789d183b8 -->
<g id="node3" class="node">
<title>b7f9f66fdc7a41aa97539ed789d183b8</title>
<image xlink:href="icons/storage.png" width="101px" height="101px" preserveAspectRatio="xMinYMin meet" x="16" y="-1960.5"/>
<text text-anchor="middle" x="66.5" y="-1845.1" font-family="Sans-Serif" font-size="13.00" fill="#2d3436">amadeus_bi.appels/GA_SVI_</text>
</g>
<!-- 0e50d84e9fed4841bfa71cc36f470f34 -->
<g id="node4" class="node">
<title>0e50d84e9fed4841bfa71cc36f470f34</title>
<image xlink:href="icons/bigquery.png" width="101px" height="101px" preserveAspectRatio="xMinYMin meet" x="426" y="-1960.5"/>
<text text-anchor="middle" x="476.5" y="-1845.1" font-family="Sans-Serif" font-size="13.00" fill="#2d3436">amadeus.e_ama_appels</text>
</g>
<!-- b7f9f66fdc7a41aa97539ed789d183b8&#45;&gt;0e50d84e9fed4841bfa71cc36f470f34 -->
<g id="edge2" class="edge">
<title>b7f9f66fdc7a41aa97539ed789d183b8&#45;&gt;0e50d84e9fed4841bfa71cc36f470f34</title>
<path fill="none" stroke="#7b8894" d="M117.19,-1910C117.19,-1910 415.93,-1910 415.93,-1910"/>
<polygon fill="#7b8894" stroke="#7b8894" points="415.93,-1913.5 425.93,-1910 415.93,-1906.5 415.93,-1913.5"/>
<text text-anchor="middle" x="271.5" y="-1913.6" font-family="Sans-Serif" font-size="13.00" fill="darkgrey">e_appels</text>
</g>
<!-- 538b5abc67ca4edd88e8fcf1a782c5d3 -->
<g id="node14" class="node">
<title>538b5abc67ca4edd88e8fcf1a782c5d3</title>
<image xlink:href="icons/bigquery.png" width="101px" height="101px" preserveAspectRatio="xMinYMin meet" x="798" y="-1675.5"/>
<text text-anchor="middle" x="848.5" y="-1560.1" font-family="Sans-Serif" font-size="13.00" fill="#2d3436">amadeus.t_ama_appels</text>
</g>
<!-- 0e50d84e9fed4841bfa71cc36f470f34&#45;&gt;538b5abc67ca4edd88e8fcf1a782c5d3 -->
<g id="edge14" class="edge">
<title>0e50d84e9fed4841bfa71cc36f470f34&#45;&gt;538b5abc67ca4edd88e8fcf1a782c5d3</title>
<path fill="none" stroke="#7b8894" d="M527.46,-1910C582.68,-1910 663,-1910 663,-1910 663,-1910 663,-1682.83 663,-1682.83 663,-1682.83 787.81,-1682.83 787.81,-1682.83"/>
<polygon fill="#7b8894" stroke="#7b8894" points="787.81,-1686.33 797.81,-1682.83 787.81,-1679.33 787.81,-1686.33"/>
<text text-anchor="middle" x="662.5" y="-1853.6" font-family="Sans-Serif" font-size="13.00" fill="darkgrey">t_appels</text>
</g>
<!-- 676c11ffe1484ba4968fbbee8273af14 -->
<g id="node24" class="node">
<title>676c11ffe1484ba4968fbbee8273af14</title>
<image xlink:href="icons/bigquery.png" width="101px" height="101px" preserveAspectRatio="xMinYMin meet" x="798" y="-2140.5"/>
<text text-anchor="middle" x="848.5" y="-2025.1" font-family="Sans-Serif" font-size="13.00" fill="#2d3436">amadeus.t_ama_import_gads</text>
</g>
<!-- 0e50d84e9fed4841bfa71cc36f470f34&#45;&gt;676c11ffe1484ba4968fbbee8273af14 -->
<g id="edge25" class="edge">
<title>0e50d84e9fed4841bfa71cc36f470f34&#45;&gt;676c11ffe1484ba4968fbbee8273af14</title>
<path fill="none" stroke="#7b8894" d="M477,-1978.54C477,-1994.62 477,-2007.17 477,-2007.17 477,-2007.17 832,-2007.17 832,-2007.17 832,-2007.17 832,-2011.22 832,-2011.22"/>
<polygon fill="#7b8894" stroke="#7b8894" points="828.5,-2011.22 832,-2021.22 835.5,-2011.22 828.5,-2011.22"/>
<text text-anchor="middle" x="662.5" y="-1972.6" font-family="Sans-Serif" font-size="13.00" fill="darkgrey">t_import_gads</text>
</g>
<!-- 10c177626869437cb2be12eb7a504f01 -->
<g id="node8" class="node">
<title>10c177626869437cb2be12eb7a504f01</title>
<image xlink:href="icons/bigquery.png" width="101px" height="101px" preserveAspectRatio="xMinYMin meet" x="1208" y="-2320.5"/>
<text text-anchor="middle" x="1258.5" y="-2205.1" font-family="Sans-Serif" font-size="13.00" fill="#2d3436">amadeus.t_ama_contrats_formulaires</text>
</g>
<!-- 28a4bb58da9f4fef869c4f60d9eef475&#45;&gt;10c177626869437cb2be12eb7a504f01 -->
<g id="edge6" class="edge">
<title>28a4bb58da9f4fef869c4f60d9eef475&#45;&gt;10c177626869437cb2be12eb7a504f01</title>
<path fill="none" stroke="#7b8894" d="M899.19,-2292.83C899.19,-2292.83 1197.93,-2292.83 1197.93,-2292.83"/>
<polygon fill="#7b8894" stroke="#7b8894" points="1197.93,-2296.33 1207.93,-2292.83 1197.93,-2289.33 1197.93,-2296.33"/>
<text text-anchor="middle" x="1043" y="-2273.6" font-family="Sans-Serif" font-size="13.00" fill="darkgrey">t_contrats_formulaires</text>
</g>
<!-- 33645915a96f437b8647607e0febd051 -->
<g id="node10" class="node">
<title>33645915a96f437b8647607e0febd051</title>
<image xlink:href="icons/bigquery.png" width="101px" height="101px" preserveAspectRatio="xMinYMin meet" x="1208" y="-2500.5"/>
<text text-anchor="middle" x="1258.5" y="-2385.1" font-family="Sans-Serif" font-size="13.00" fill="#2d3436">amadeus.t_ama_leads_formulaires</text>
</g>
<!-- 28a4bb58da9f4fef869c4f60d9eef475&#45;&gt;33645915a96f437b8647607e0febd051 -->
<g id="edge8" class="edge">
<title>28a4bb58da9f4fef869c4f60d9eef475&#45;&gt;33645915a96f437b8647607e0febd051</title>
<path fill="none" stroke="#7b8894" d="M874,-2338.56C874,-2345.04 874,-2349.25 874,-2349.25 874,-2349.25 1259,-2349.25 1259,-2349.25 1259,-2349.25 1259,-2371.4 1259,-2371.4"/>
<polygon fill="#7b8894" stroke="#7b8894" points="1255.5,-2371.4 1259,-2381.4 1262.5,-2371.4 1255.5,-2371.4"/>
<text text-anchor="middle" x="1043" y="-2394.6" font-family="Sans-Serif" font-size="13.00" fill="darkgrey">t_leads_formulaires</text>
</g>
<!-- 84635dceabc74f94a4b5a60591189bff -->
<g id="node6" class="node">
<title>84635dceabc74f94a4b5a60591189bff</title>
<image xlink:href="icons/bigquery.png" width="101px" height="101px" preserveAspectRatio="xMinYMin meet" x="426" y="-2320.5"/>
<text text-anchor="middle" x="476.5" y="-2205.1" font-family="Sans-Serif" font-size="13.00" fill="#2d3436">ga.l_ga_to_ama_ga_formulaires_stor_*</text>
</g>
<!-- 84635dceabc74f94a4b5a60591189bff&#45;&gt;28a4bb58da9f4fef869c4f60d9eef475 -->
<g id="edge4" class="edge">
<title>84635dceabc74f94a4b5a60591189bff&#45;&gt;28a4bb58da9f4fef869c4f60d9eef475</title>
<path fill="none" stroke="#7b8894" d="M527.06,-2270C527.06,-2270 787.76,-2270 787.76,-2270"/>
<polygon fill="#7b8894" stroke="#7b8894" points="787.76,-2273.5 797.76,-2270 787.76,-2266.5 787.76,-2273.5"/>
<text text-anchor="middle" x="662.5" y="-2270.6" font-family="Sans-Serif" font-size="13.00" fill="darkgrey">t_formulaires_campagnes</text>
</g>
<!-- 84635dceabc74f94a4b5a60591189bff&#45;&gt;52331704493b4d82b771825db6800f3a -->
<g id="edge10" class="edge">
<title>84635dceabc74f94a4b5a60591189bff&#45;&gt;52331704493b4d82b771825db6800f3a</title>
<path fill="none" stroke="#7b8894" d="M460,-2338.6C460,-2356.43 460,-2370.75 460,-2370.75 460,-2370.75 824,-2370.75 824,-2370.75 824,-2370.75 824,-2371.82 824,-2371.82"/>
<polygon fill="#7b8894" stroke="#7b8894" points="820.5,-2371.44 824,-2381.44 827.5,-2371.44 820.5,-2371.44"/>
<text text-anchor="middle" x="662.5" y="-2332.6" font-family="Sans-Serif" font-size="13.00" fill="darkgrey">t_formulaires_verif_flux_ga</text>
</g>
<!-- 381e71c5ca794a469fe373b6e85f0111 -->
<g id="node7" class="node">
<title>381e71c5ca794a469fe373b6e85f0111</title>
<image xlink:href="icons/bigquery.png" width="101px" height="101px" preserveAspectRatio="xMinYMin meet" x="426" y="-2140.5"/>
<text text-anchor="middle" x="476.5" y="-2025.1" font-family="Sans-Serif" font-size="13.00" fill="#2d3436">ga.t_ga_correspondance_hash_campagnes</text>
</g>
<!-- 381e71c5ca794a469fe373b6e85f0111&#45;&gt;28a4bb58da9f4fef869c4f60d9eef475 -->
<g id="edge5" class="edge">
<title>381e71c5ca794a469fe373b6e85f0111&#45;&gt;28a4bb58da9f4fef869c4f60d9eef475</title>
<path fill="none" stroke="#7b8894" d="M477,-2158.67C477,-2170.99 477,-2180 477,-2180 477,-2180 849,-2180 849,-2180 849,-2180 849,-2191.33 849,-2191.33"/>
<polygon fill="#7b8894" stroke="#7b8894" points="845.5,-2191.33 849,-2201.33 852.5,-2191.33 845.5,-2191.33"/>
<text text-anchor="middle" x="662.5" y="-2152.6" font-family="Sans-Serif" font-size="13.00" fill="darkgrey">t_formulaires_campagnes</text>
</g>
<!-- fb8b2191c99b42a69b98694242ec477f -->
<g id="node9" class="node">
<title>fb8b2191c99b42a69b98694242ec477f</title>
<image xlink:href="icons/bigquery.png" width="101px" height="101px" preserveAspectRatio="xMinYMin meet" x="798" y="-1960.5"/>
<text text-anchor="middle" x="848.5" y="-1845.1" font-family="Sans-Serif" font-size="13.00" fill="#2d3436">comper.e_v_digi_import_cube_valeur</text>
</g>
<!-- fb8b2191c99b42a69b98694242ec477f&#45;&gt;10c177626869437cb2be12eb7a504f01 -->
<g id="edge7" class="edge">
<title>fb8b2191c99b42a69b98694242ec477f&#45;&gt;10c177626869437cb2be12eb7a504f01</title>
<path fill="none" stroke="#7b8894" d="M899.03,-1932.83C959.88,-1932.83 1054,-1932.83 1054,-1932.83 1054,-1932.83 1054,-2247.17 1054,-2247.17 1054,-2247.17 1197.95,-2247.17 1197.95,-2247.17"/>
<polygon fill="#7b8894" stroke="#7b8894" points="1197.95,-2250.67 1207.95,-2247.17 1197.95,-2243.67 1197.95,-2250.67"/>
<text text-anchor="middle" x="1043" y="-2169.6" font-family="Sans-Serif" font-size="13.00" fill="darkgrey">t_contrats_formulaires</text>
</g>
<!-- 57d8f9a77570446e936e486be7047b4a -->
<g id="node19" class="node">
<title>57d8f9a77570446e936e486be7047b4a</title>
<image xlink:href="icons/bigquery.png" width="101px" height="101px" preserveAspectRatio="xMinYMin meet" x="1208" y="-2140.5"/>
<text text-anchor="middle" x="1258.5" y="-2025.1" font-family="Sans-Serif" font-size="13.00" fill="#2d3436">amadeus.t_ama_contrats_appels</text>
</g>
<!-- fb8b2191c99b42a69b98694242ec477f&#45;&gt;57d8f9a77570446e936e486be7047b4a -->
<g id="edge19" class="edge">
<title>fb8b2191c99b42a69b98694242ec477f&#45;&gt;57d8f9a77570446e936e486be7047b4a</title>
<path fill="none" stroke="#7b8894" d="M866,-1978.78C866,-1987.16 866,-1992.83 866,-1992.83 866,-1992.83 1259,-1992.83 1259,-1992.83 1259,-1992.83 1259,-2011.46 1259,-2011.46"/>
<polygon fill="#7b8894" stroke="#7b8894" points="1255.5,-2011.46 1259,-2021.46 1262.5,-2011.46 1255.5,-2011.46"/>
<text text-anchor="middle" x="1043" y="-2065.6" font-family="Sans-Serif" font-size="13.00" fill="darkgrey">t_contrats_appels</text>
</g>
<!-- bb89cb6ac6ec46ab93aab0e57a5d533e -->
<g id="node12" class="node">
<title>bb89cb6ac6ec46ab93aab0e57a5d533e</title>
<image xlink:href="icons/bigquery.png" width="101px" height="101px" preserveAspectRatio="xMinYMin meet" x="426" y="-1420.5"/>
<text text-anchor="middle" x="476.5" y="-1305.1" font-family="Sans-Serif" font-size="13.00" fill="#2d3436">ga.t_ga_sessions</text>
</g>
<!-- a1df67a880f14a84931f73b2a9199a0c -->
<g id="node13" class="node">
<title>a1df67a880f14a84931f73b2a9199a0c</title>
<image xlink:href="icons/bigquery.png" width="101px" height="101px" preserveAspectRatio="xMinYMin meet" x="798" y="-1420.5"/>
<text text-anchor="middle" x="848.5" y="-1305.1" font-family="Sans-Serif" font-size="13.00" fill="#2d3436">amadeus.t_ama_appels_ga</text>
</g>
<!-- bb89cb6ac6ec46ab93aab0e57a5d533e&#45;&gt;a1df67a880f14a84931f73b2a9199a0c -->
<g id="edge11" class="edge">
<title>bb89cb6ac6ec46ab93aab0e57a5d533e&#45;&gt;a1df67a880f14a84931f73b2a9199a0c</title>
<path fill="none" stroke="#7b8894" d="M527.06,-1370C527.06,-1370 787.76,-1370 787.76,-1370"/>
<polygon fill="#7b8894" stroke="#7b8894" points="787.76,-1373.5 797.76,-1370 787.76,-1366.5 787.76,-1373.5"/>
<text text-anchor="middle" x="662.5" y="-1373.6" font-family="Sans-Serif" font-size="13.00" fill="darkgrey">t_appels_ga</text>
</g>
<!-- 2d2e9e1a905848ec86ec24bb820f8729 -->
<g id="node23" class="node">
<title>2d2e9e1a905848ec86ec24bb820f8729</title>
<image xlink:href="icons/bigquery.png" width="101px" height="101px" preserveAspectRatio="xMinYMin meet" x="798" y="-1240.5"/>
<text text-anchor="middle" x="848.5" y="-1125.1" font-family="Sans-Serif" font-size="13.00" fill="#2d3436">eloqua.t_elq_promo_applis_mobiles_tlgt_appli</text>
</g>
<!-- bb89cb6ac6ec46ab93aab0e57a5d533e&#45;&gt;2d2e9e1a905848ec86ec24bb820f8729 -->
<g id="edge24" class="edge">
<title>bb89cb6ac6ec46ab93aab0e57a5d533e&#45;&gt;2d2e9e1a905848ec86ec24bb820f8729</title>
<path fill="none" stroke="#7b8894" d="M477,-1301.35C477,-1282.67 477,-1267.5 477,-1267.5 477,-1267.5 866,-1267.5 866,-1267.5 866,-1267.5 866,-1266.61 866,-1266.61"/>
<polygon fill="#7b8894" stroke="#7b8894" points="869.5,-1268.61 866,-1258.61 862.5,-1268.61 869.5,-1268.61"/>
<text text-anchor="middle" x="662.5" y="-1283.6" font-family="Sans-Serif" font-size="13.00" fill="darkgrey">t_elq_promo_applis_mobiles_tlgt_appli</text>
</g>
<!-- bdc65ea10d4448abb0b82cb4d51ca675 -->
<g id="node15" class="node">
<title>bdc65ea10d4448abb0b82cb4d51ca675</title>
<image xlink:href="icons/bigquery.png" width="101px" height="101px" preserveAspectRatio="xMinYMin meet" x="1208" y="-959.5"/>
<text text-anchor="middle" x="1258.5" y="-844.1" font-family="Sans-Serif" font-size="13.00" fill="#2d3436">amadeus.t_ama_appels_leviers</text>
</g>
<!-- a1df67a880f14a84931f73b2a9199a0c&#45;&gt;bdc65ea10d4448abb0b82cb4d51ca675 -->
<g id="edge13" class="edge">
<title>a1df67a880f14a84931f73b2a9199a0c&#45;&gt;bdc65ea10d4448abb0b82cb4d51ca675</title>
<path fill="none" stroke="#7b8894" d="M899,-1347.17C919.31,-1347.17 938,-1347.17 938,-1347.17 938,-1347.17 938,-953.5 938,-953.5 938,-953.5 1197.72,-953.5 1197.72,-953.5"/>
<polygon fill="#7b8894" stroke="#7b8894" points="1197.72,-957 1207.72,-953.5 1197.72,-950 1197.72,-957"/>
<text text-anchor="middle" x="1043" y="-979.6" font-family="Sans-Serif" font-size="13.00" fill="darkgrey">t_appels_leviers</text>
</g>
<!-- 1940f1a70061419faf4b10054b1a06d4 -->
<g id="node20" class="node">
<title>1940f1a70061419faf4b10054b1a06d4</title>
<image xlink:href="icons/bigquery.png" width="101px" height="101px" preserveAspectRatio="xMinYMin meet" x="1527" y="-1395.5"/>
<text text-anchor="middle" x="1577.5" y="-1280.1" font-family="Sans-Serif" font-size="13.00" fill="#2d3436">amadeus.t_ama_contrats_appels_leviers</text>
</g>
<!-- a1df67a880f14a84931f73b2a9199a0c&#45;&gt;1940f1a70061419faf4b10054b1a06d4 -->
<g id="edge21" class="edge">
<title>a1df67a880f14a84931f73b2a9199a0c&#45;&gt;1940f1a70061419faf4b10054b1a06d4</title>
<path fill="none" stroke="#7b8894" d="M832,-1301.3C832,-1293.91 832,-1289 832,-1289 832,-1289 1516.84,-1289 1516.84,-1289"/>
<polygon fill="#7b8894" stroke="#7b8894" points="1516.84,-1292.5 1526.84,-1289 1516.84,-1285.5 1516.84,-1292.5"/>
<text text-anchor="middle" x="1258.5" y="-1067.6" font-family="Sans-Serif" font-size="13.00" fill="darkgrey">t_contrats_appels_leviers</text>
</g>
<!-- 538b5abc67ca4edd88e8fcf1a782c5d3&#45;&gt;bdc65ea10d4448abb0b82cb4d51ca675 -->
<g id="edge12" class="edge">
<title>538b5abc67ca4edd88e8fcf1a782c5d3&#45;&gt;bdc65ea10d4448abb0b82cb4d51ca675</title>
<path fill="none" stroke="#7b8894" d="M899.29,-1568.9C935.2,-1568.9 977,-1568.9 977,-1568.9 977,-1568.9 977,-965.5 977,-965.5 977,-965.5 1197.85,-965.5 1197.85,-965.5"/>
<polygon fill="#7b8894" stroke="#7b8894" points="1197.85,-969 1207.85,-965.5 1197.85,-962 1197.85,-969"/>
<text text-anchor="middle" x="1043" y="-1224.6" font-family="Sans-Serif" font-size="13.00" fill="darkgrey">t_appels_leviers</text>
</g>
<!-- 538b5abc67ca4edd88e8fcf1a782c5d3&#45;&gt;57d8f9a77570446e936e486be7047b4a -->
<g id="edge18" class="edge">
<title>538b5abc67ca4edd88e8fcf1a782c5d3&#45;&gt;57d8f9a77570446e936e486be7047b4a</title>
<path fill="none" stroke="#7b8894" d="M899.16,-1685.5C970.78,-1685.5 1093,-1685.5 1093,-1685.5 1093,-1685.5 1093,-2090 1093,-2090 1093,-2090 1197.95,-2090 1197.95,-2090"/>
<polygon fill="#7b8894" stroke="#7b8894" points="1197.95,-2093.5 1207.95,-2090 1197.95,-2086.5 1197.95,-2093.5"/>
<text text-anchor="middle" x="1043" y="-1945.6" font-family="Sans-Serif" font-size="13.00" fill="darkgrey">t_contrats_appels</text>
</g>
<!-- b2f59689c19845efaeaaed7c98815830 -->
<g id="node25" class="node">
<title>b2f59689c19845efaeaaed7c98815830</title>
<image xlink:href="icons/bigquery.png" width="101px" height="101px" preserveAspectRatio="xMinYMin meet" x="1208" y="-1420.5"/>
<text text-anchor="middle" x="1258.5" y="-1305.1" font-family="Sans-Serif" font-size="13.00" fill="#2d3436">amadeus.t_ama_valeurs_plus40_datastudio_gads</text>
</g>
<!-- 538b5abc67ca4edd88e8fcf1a782c5d3&#45;&gt;b2f59689c19845efaeaaed7c98815830 -->
<g id="edge26" class="edge">
<title>538b5abc67ca4edd88e8fcf1a782c5d3&#45;&gt;b2f59689c19845efaeaaed7c98815830</title>
<path fill="none" stroke="#7b8894" d="M899.09,-1593.7C989.63,-1593.7 1170,-1593.7 1170,-1593.7 1170,-1593.7 1170,-1392.83 1170,-1392.83 1170,-1392.83 1197.79,-1392.83 1197.79,-1392.83"/>
<polygon fill="#7b8894" stroke="#7b8894" points="1197.79,-1396.33 1207.79,-1392.83 1197.79,-1389.33 1197.79,-1396.33"/>
<text text-anchor="middle" x="1043" y="-1447.6" font-family="Sans-Serif" font-size="13.00" fill="darkgrey">t_valeurs_plus40_datastudio_gads</text>
</g>
<!-- 5ed2742e56c546b78951e4b9a90769c3 -->
<g id="node26" class="node">
<title>5ed2742e56c546b78951e4b9a90769c3</title>
<image xlink:href="icons/bigquery.png" width="101px" height="101px" preserveAspectRatio="xMinYMin meet" x="1208" y="-1600.5"/>
<text text-anchor="middle" x="1258.5" y="-1485.1" font-family="Sans-Serif" font-size="13.00" fill="#2d3436">amadeus.t_ama_valeurs_datastudio_gads</text>
</g>
<!-- 538b5abc67ca4edd88e8fcf1a782c5d3&#45;&gt;5ed2742e56c546b78951e4b9a90769c3 -->
<g id="edge27" class="edge">
<title>538b5abc67ca4edd88e8fcf1a782c5d3&#45;&gt;5ed2742e56c546b78951e4b9a90769c3</title>
<path fill="none" stroke="#7b8894" d="M899.19,-1606.1C899.19,-1606.1 1197.93,-1606.1 1197.93,-1606.1"/>
<polygon fill="#7b8894" stroke="#7b8894" points="1197.93,-1609.6 1207.93,-1606.1 1197.93,-1602.6 1197.93,-1609.6"/>
<text text-anchor="middle" x="1043" y="-1583.6" font-family="Sans-Serif" font-size="13.00" fill="darkgrey">t_valeurs_datastudio_gads</text>
</g>
<!-- 27752a54dc7e496fa09c8829b1ef2c17 -->
<g id="node27" class="node">
<title>27752a54dc7e496fa09c8829b1ef2c17</title>
<image xlink:href="icons/bigquery.png" width="101px" height="101px" preserveAspectRatio="xMinYMin meet" x="1208" y="-1780.5"/>
<text text-anchor="middle" x="1258.5" y="-1665.1" font-family="Sans-Serif" font-size="13.00" fill="#2d3436">amadeus.t_ama_valeurs_sousindicateur_gads</text>
</g>
<!-- 538b5abc67ca4edd88e8fcf1a782c5d3&#45;&gt;27752a54dc7e496fa09c8829b1ef2c17 -->
<g id="edge28" class="edge">
<title>538b5abc67ca4edd88e8fcf1a782c5d3&#45;&gt;27752a54dc7e496fa09c8829b1ef2c17</title>
<path fill="none" stroke="#7b8894" d="M899.19,-1669.5C899.19,-1669.5 1197.93,-1669.5 1197.93,-1669.5"/>
<polygon fill="#7b8894" stroke="#7b8894" points="1197.93,-1673 1207.93,-1669.5 1197.93,-1666 1197.93,-1673"/>
<text text-anchor="middle" x="1043" y="-1674.6" font-family="Sans-Serif" font-size="13.00" fill="darkgrey">t_valeurs_sousindicateur_gads</text>
</g>
<!-- 18b266d2398442e1a2c7a4200132cf38 -->
<g id="node28" class="node">
<title>18b266d2398442e1a2c7a4200132cf38</title>
<image xlink:href="icons/bigquery.png" width="101px" height="101px" preserveAspectRatio="xMinYMin meet" x="1208" y="-1960.5"/>
<text text-anchor="middle" x="1258.5" y="-1845.1" font-family="Sans-Serif" font-size="13.00" fill="#2d3436">amadeus.t_ama_anciennes_valeurs_gads</text>
</g>
<!-- 538b5abc67ca4edd88e8fcf1a782c5d3&#45;&gt;18b266d2398442e1a2c7a4200132cf38 -->
<g id="edge29" class="edge">
<title>538b5abc67ca4edd88e8fcf1a782c5d3&#45;&gt;18b266d2398442e1a2c7a4200132cf38</title>
<path fill="none" stroke="#7b8894" d="M899.01,-1677.5C980.26,-1677.5 1131,-1677.5 1131,-1677.5 1131,-1677.5 1131,-1887.17 1131,-1887.17 1131,-1887.17 1197.74,-1887.17 1197.74,-1887.17"/>
<polygon fill="#7b8894" stroke="#7b8894" points="1197.74,-1890.67 1207.74,-1887.17 1197.74,-1883.67 1197.74,-1890.67"/>
<text text-anchor="middle" x="1043" y="-1825.6" font-family="Sans-Serif" font-size="13.00" fill="darkgrey">t_anciennes_valeurs_gads</text>
</g>
<!-- 512ba2a439c3477d975c2aa7c77556f9 -->
<g id="node29" class="node">
<title>512ba2a439c3477d975c2aa7c77556f9</title>
<image xlink:href="icons/bigquery.png" width="101px" height="101px" preserveAspectRatio="xMinYMin meet" x="1208" y="-1240.5"/>
<text text-anchor="middle" x="1258.5" y="-1125.1" font-family="Sans-Serif" font-size="13.00" fill="#2d3436">amadeus.t_ama_anciennes_valeurs_sousindicateur_gads</text>
</g>
<!-- 538b5abc67ca4edd88e8fcf1a782c5d3&#45;&gt;512ba2a439c3477d975c2aa7c77556f9 -->
<g id="edge30" class="edge">
<title>538b5abc67ca4edd88e8fcf1a782c5d3&#45;&gt;512ba2a439c3477d975c2aa7c77556f9</title>
<path fill="none" stroke="#7b8894" d="M899.36,-1581.3C948.32,-1581.3 1015,-1581.3 1015,-1581.3 1015,-1581.3 1015,-1190 1015,-1190 1015,-1190 1197.75,-1190 1197.75,-1190"/>
<polygon fill="#7b8894" stroke="#7b8894" points="1197.75,-1193.5 1207.75,-1190 1197.75,-1186.5 1197.75,-1193.5"/>
<text text-anchor="middle" x="1043" y="-1352.6" font-family="Sans-Serif" font-size="13.00" fill="darkgrey">t_anciennes_valeurs_sousindicateur_gads</text>
</g>
<!-- d6797965b19d464994f574d67d250f61 -->
<g id="node18" class="node">
<title>d6797965b19d464994f574d67d250f61</title>
<image xlink:href="icons/bigquery.png" width="101px" height="101px" preserveAspectRatio="xMinYMin meet" x="1527" y="-959.5"/>
<text text-anchor="middle" x="1577.5" y="-844.1" font-family="Sans-Serif" font-size="13.00" fill="#2d3436">amadeus.t_ama_leads_appels</text>
</g>
<!-- bdc65ea10d4448abb0b82cb4d51ca675&#45;&gt;d6797965b19d464994f574d67d250f61 -->
<g id="edge17" class="edge">
<title>bdc65ea10d4448abb0b82cb4d51ca675&#45;&gt;d6797965b19d464994f574d67d250f61</title>
<path fill="none" stroke="#7b8894" d="M1309.05,-909C1309.05,-909 1516.93,-909 1516.93,-909"/>
<polygon fill="#7b8894" stroke="#7b8894" points="1516.93,-912.5 1526.93,-909 1516.93,-905.5 1516.93,-912.5"/>
<text text-anchor="middle" x="1428.5" y="-912.6" font-family="Sans-Serif" font-size="13.00" fill="darkgrey">t_leads_appels</text>
</g>
<!-- 28e8ac91c70145aa9a31e681a4581e3e -->
<g id="node16" class="node">
<title>28e8ac91c70145aa9a31e681a4581e3e</title>
<image xlink:href="icons/bigquery.png" width="101px" height="101px" preserveAspectRatio="xMinYMin meet" x="426" y="-1600.5"/>
<text text-anchor="middle" x="476.5" y="-1485.1" font-family="Sans-Serif" font-size="13.00" fill="#2d3436">amadeus.e_ama_appels_2020</text>
</g>
<!-- 28e8ac91c70145aa9a31e681a4581e3e&#45;&gt;538b5abc67ca4edd88e8fcf1a782c5d3 -->
<g id="edge15" class="edge">
<title>28e8ac91c70145aa9a31e681a4581e3e&#45;&gt;538b5abc67ca4edd88e8fcf1a782c5d3</title>
<path fill="none" stroke="#7b8894" d="M527.06,-1587.5C527.06,-1587.5 787.76,-1587.5 787.76,-1587.5"/>
<polygon fill="#7b8894" stroke="#7b8894" points="787.76,-1591 797.76,-1587.5 787.76,-1584 787.76,-1591"/>
<text text-anchor="middle" x="662.5" y="-1582.6" font-family="Sans-Serif" font-size="13.00" fill="darkgrey">t_appels</text>
</g>
<!-- 2c7902019bed4b0dad456bdb44866da3 -->
<g id="node17" class="node">
<title>2c7902019bed4b0dad456bdb44866da3</title>
<image xlink:href="icons/bigquery.png" width="101px" height="101px" preserveAspectRatio="xMinYMin meet" x="426" y="-1780.5"/>
<text text-anchor="middle" x="476.5" y="-1665.1" font-family="Sans-Serif" font-size="13.00" fill="#2d3436">amadeus.e_ama_appels_2018_2019</text>
</g>
<!-- 2c7902019bed4b0dad456bdb44866da3&#45;&gt;538b5abc67ca4edd88e8fcf1a782c5d3 -->
<g id="edge16" class="edge">
<title>2c7902019bed4b0dad456bdb44866da3&#45;&gt;538b5abc67ca4edd88e8fcf1a782c5d3</title>
<path fill="none" stroke="#7b8894" d="M527.06,-1672.17C527.06,-1672.17 787.76,-1672.17 787.76,-1672.17"/>
<polygon fill="#7b8894" stroke="#7b8894" points="787.76,-1675.67 797.76,-1672.17 787.76,-1668.67 787.76,-1675.67"/>
<text text-anchor="middle" x="662.5" y="-1674.6" font-family="Sans-Serif" font-size="13.00" fill="darkgrey">t_appels</text>
</g>
<!-- 57d8f9a77570446e936e486be7047b4a&#45;&gt;1940f1a70061419faf4b10054b1a06d4 -->
<g id="edge20" class="edge">
<title>57d8f9a77570446e936e486be7047b4a&#45;&gt;1940f1a70061419faf4b10054b1a06d4</title>
<path fill="none" stroke="#7b8894" d="M1309.13,-2090C1399.22,-2090 1578,-2090 1578,-2090 1578,-2090 1578,-1423.75 1578,-1423.75"/>
<polygon fill="#7b8894" stroke="#7b8894" points="1581.5,-1423.75 1578,-1413.75 1574.5,-1423.75 1581.5,-1423.75"/>
<text text-anchor="middle" x="1428.5" y="-1604.6" font-family="Sans-Serif" font-size="13.00" fill="darkgrey">t_contrats_appels_leviers</text>
</g>
<!-- aa911487f773461e9df373b71932f49f -->
<g id="node21" class="node">
<title>aa911487f773461e9df373b71932f49f</title>
<image xlink:href="icons/storage.png" width="101px" height="101px" preserveAspectRatio="xMinYMin meet" x="16" y="-1240.5"/>
<text text-anchor="middle" x="66.5" y="-1125.1" font-family="Sans-Serif" font-size="13.00" fill="#2d3436">amadeus_bi.eloqua/AMA_GOOG_RETR_MARK_ELQC_315_*</text>
</g>
<!-- 0799309264f7453d80dddc76e04fdf2b -->
<g id="node22" class="node">
<title>0799309264f7453d80dddc76e04fdf2b</title>
<image xlink:href="icons/bigquery.png" width="101px" height="101px" preserveAspectRatio="xMinYMin meet" x="426" y="-1240.5"/>
<text text-anchor="middle" x="476.5" y="-1125.1" font-family="Sans-Serif" font-size="13.00" fill="#2d3436">eloqua.e_elq_promo_applis_mobiles_clics_emails</text>
</g>
<!-- aa911487f773461e9df373b71932f49f&#45;&gt;0799309264f7453d80dddc76e04fdf2b -->
<g id="edge22" class="edge">
<title>aa911487f773461e9df373b71932f49f&#45;&gt;0799309264f7453d80dddc76e04fdf2b</title>
<path fill="none" stroke="#7b8894" d="M117.19,-1190C117.19,-1190 415.93,-1190 415.93,-1190"/>
<polygon fill="#7b8894" stroke="#7b8894" points="415.93,-1193.5 425.93,-1190 415.93,-1186.5 415.93,-1193.5"/>
<text text-anchor="middle" x="271.5" y="-1193.6" font-family="Sans-Serif" font-size="13.00" fill="darkgrey">e_elq_promo_applis_mobiles_clics_emails</text>
</g>
<!-- 0799309264f7453d80dddc76e04fdf2b&#45;&gt;2d2e9e1a905848ec86ec24bb820f8729 -->
<g id="edge23" class="edge">
<title>0799309264f7453d80dddc76e04fdf2b&#45;&gt;2d2e9e1a905848ec86ec24bb820f8729</title>
<path fill="none" stroke="#7b8894" d="M527.06,-1190C527.06,-1190 787.76,-1190 787.76,-1190"/>
<polygon fill="#7b8894" stroke="#7b8894" points="787.76,-1193.5 797.76,-1190 787.76,-1186.5 787.76,-1193.5"/>
<text text-anchor="middle" x="662.5" y="-1193.6" font-family="Sans-Serif" font-size="13.00" fill="darkgrey">t_elq_promo_applis_mobiles_tlgt_appli</text>
</g>
<!-- 681f037c3f7e4e9fb9fb47c6207ec80e -->
<g id="node30" class="node">
<title>681f037c3f7e4e9fb9fb47c6207ec80e</title>
<image xlink:href="icons/bigquery.png" width="101px" height="101px" preserveAspectRatio="xMinYMin meet" x="16" y="-1060.5"/>
<text text-anchor="middle" x="66.5" y="-945.1" font-family="Sans-Serif" font-size="13.00" fill="#2d3436">comper.t_v_digi_cube_valeur</text>
</g>
<!-- b781aba91db6432a89b15d806b280912 -->
<g id="node31" class="node">
<title>b781aba91db6432a89b15d806b280912</title>
<image xlink:href="icons/bigquery.png" width="101px" height="101px" preserveAspectRatio="xMinYMin meet" x="426" y="-1060.5"/>
<text text-anchor="middle" x="476.5" y="-945.1" font-family="Sans-Serif" font-size="13.00" fill="#2d3436">amadeus.t_ama_parrainage</text>
</g>
<!-- 681f037c3f7e4e9fb9fb47c6207ec80e&#45;&gt;b781aba91db6432a89b15d806b280912 -->
<g id="edge31" class="edge">
<title>681f037c3f7e4e9fb9fb47c6207ec80e&#45;&gt;b781aba91db6432a89b15d806b280912</title>
<path fill="none" stroke="#7b8894" d="M117.19,-1010C117.19,-1010 415.93,-1010 415.93,-1010"/>
<polygon fill="#7b8894" stroke="#7b8894" points="415.93,-1013.5 425.93,-1010 415.93,-1006.5 415.93,-1013.5"/>
<text text-anchor="middle" x="271.5" y="-1013.6" font-family="Sans-Serif" font-size="13.00" fill="darkgrey">t_parrainage</text>
</g>
<!-- 8cd306dc168041c19eb399a47ab81292 -->
<g id="node32" class="node">
<title>8cd306dc168041c19eb399a47ab81292</title>
<image xlink:href="icons/bigquery.png" width="101px" height="101px" preserveAspectRatio="xMinYMin meet" x="798" y="-1060.5"/>
<text text-anchor="middle" x="848.5" y="-945.1" font-family="Sans-Serif" font-size="13.00" fill="#2d3436">comper.l_ama_to_ds_comper_t_ama_parrainage</text>
</g>
<!-- b781aba91db6432a89b15d806b280912&#45;&gt;8cd306dc168041c19eb399a47ab81292 -->
<g id="edge32" class="edge">
<title>b781aba91db6432a89b15d806b280912&#45;&gt;8cd306dc168041c19eb399a47ab81292</title>
<path fill="none" stroke="#7b8894" d="M527.06,-1010C527.06,-1010 787.76,-1010 787.76,-1010"/>
<polygon fill="#7b8894" stroke="#7b8894" points="787.76,-1013.5 797.76,-1010 787.76,-1006.5 787.76,-1013.5"/>
<text text-anchor="middle" x="662.5" y="-1013.6" font-family="Sans-Serif" font-size="13.00" fill="darkgrey">l_to_ds_comper_t_ama_parrainage</text>
</g>
<!-- d1fed0ae5f3945f2a0ebb5128a85c552 -->
<g id="node33" class="node">
<title>d1fed0ae5f3945f2a0ebb5128a85c552</title>
<image xlink:href="icons/bigquery.png" width="101px" height="101px" preserveAspectRatio="xMinYMin meet" x="16" y="-880.5"/>
<text text-anchor="middle" x="66.5" y="-765.1" font-family="Sans-Serif" font-size="13.00" fill="#2d3436">amadeus.e_gsheet_contrats_services</text>
</g>
<!-- 3108deeef4d144a8b97ef196e210764e -->
<g id="node34" class="node">
<title>3108deeef4d144a8b97ef196e210764e</title>
<image xlink:href="icons/bigquery.png" width="101px" height="101px" preserveAspectRatio="xMinYMin meet" x="426" y="-880.5"/>
<text text-anchor="middle" x="476.5" y="-765.1" font-family="Sans-Serif" font-size="13.00" fill="#2d3436">comper.l_ama_to_ds_comper_contrats_services</text>
</g>
<!-- d1fed0ae5f3945f2a0ebb5128a85c552&#45;&gt;3108deeef4d144a8b97ef196e210764e -->
<g id="edge33" class="edge">
<title>d1fed0ae5f3945f2a0ebb5128a85c552&#45;&gt;3108deeef4d144a8b97ef196e210764e</title>
<path fill="none" stroke="#7b8894" d="M117.19,-830C117.19,-830 415.93,-830 415.93,-830"/>
<polygon fill="#7b8894" stroke="#7b8894" points="415.93,-833.5 425.93,-830 415.93,-826.5 415.93,-833.5"/>
<text text-anchor="middle" x="271.5" y="-833.6" font-family="Sans-Serif" font-size="13.00" fill="darkgrey">l_to_ds_comper_contrats_services</text>
</g>
<!-- 7a676b3e372a41ddb85dd11660f2f41d -->
<g id="node35" class="node">
<title>7a676b3e372a41ddb85dd11660f2f41d</title>
<image xlink:href="icons/bigquery.png" width="101px" height="101px" preserveAspectRatio="xMinYMin meet" x="16" y="-700.5"/>
<text text-anchor="middle" x="66.5" y="-585.1" font-family="Sans-Serif" font-size="13.00" fill="#2d3436">reporting_equipements.bout_en_bout_equipements</text>
</g>
<!-- 1f9c4cc0eb8249e6af17085c123a49b9 -->
<g id="node36" class="node">
<title>1f9c4cc0eb8249e6af17085c123a49b9</title>
<image xlink:href="icons/bigquery.png" width="101px" height="101px" preserveAspectRatio="xMinYMin meet" x="426" y="-700.5"/>
<text text-anchor="middle" x="476.5" y="-585.1" font-family="Sans-Serif" font-size="13.00" fill="#2d3436">comper.l_ama_to_ds_comper_bout_en_bout_equipements</text>
</g>
<!-- 7a676b3e372a41ddb85dd11660f2f41d&#45;&gt;1f9c4cc0eb8249e6af17085c123a49b9 -->
<g id="edge34" class="edge">
<title>7a676b3e372a41ddb85dd11660f2f41d&#45;&gt;1f9c4cc0eb8249e6af17085c123a49b9</title>
<path fill="none" stroke="#7b8894" d="M117.19,-650C117.19,-650 415.93,-650 415.93,-650"/>
<polygon fill="#7b8894" stroke="#7b8894" points="415.93,-653.5 425.93,-650 415.93,-646.5 415.93,-653.5"/>
<text text-anchor="middle" x="271.5" y="-653.6" font-family="Sans-Serif" font-size="13.00" fill="darkgrey">l_to_ds_comper_bout_en_bout_equipements</text>
</g>
<!-- 372a02c897ba45ab9e6aa6d382805c16 -->
<g id="node37" class="node">
<title>372a02c897ba45ab9e6aa6d382805c16</title>
<image xlink:href="icons/bigquery.png" width="101px" height="101px" preserveAspectRatio="xMinYMin meet" x="16" y="-520.5"/>
<text text-anchor="middle" x="66.5" y="-405.1" font-family="Sans-Serif" font-size="13.00" fill="#2d3436">amadeus.e_ama_options_vertes</text>
</g>
<!-- 7c473db95ed44f398c405a70d5e91f83 -->
<g id="node38" class="node">
<title>7c473db95ed44f398c405a70d5e91f83</title>
<image xlink:href="icons/bigquery.png" width="101px" height="101px" preserveAspectRatio="xMinYMin meet" x="426" y="-520.5"/>
<text text-anchor="middle" x="476.5" y="-405.1" font-family="Sans-Serif" font-size="13.00" fill="#2d3436">comper.t_ama_options_vertes</text>
</g>
<!-- 372a02c897ba45ab9e6aa6d382805c16&#45;&gt;7c473db95ed44f398c405a70d5e91f83 -->
<g id="edge35" class="edge">
<title>372a02c897ba45ab9e6aa6d382805c16&#45;&gt;7c473db95ed44f398c405a70d5e91f83</title>
<path fill="none" stroke="#7b8894" d="M117.19,-470C117.19,-470 415.93,-470 415.93,-470"/>
<polygon fill="#7b8894" stroke="#7b8894" points="415.93,-473.5 425.93,-470 415.93,-466.5 415.93,-473.5"/>
<text text-anchor="middle" x="271.5" y="-473.6" font-family="Sans-Serif" font-size="13.00" fill="darkgrey">t_options_vertes</text>
</g>
<!-- 57958d237885403eac91f14c7abc0f5f -->
<g id="node39" class="node">
<title>57958d237885403eac91f14c7abc0f5f</title>
<image xlink:href="icons/bigquery.png" width="101px" height="101px" preserveAspectRatio="xMinYMin meet" x="798" y="-520.5"/>
<text text-anchor="middle" x="848.5" y="-405.1" font-family="Sans-Serif" font-size="13.00" fill="#2d3436">comper.l_ama_to_ds_comper_options_vertes</text>
</g>
<!-- 7c473db95ed44f398c405a70d5e91f83&#45;&gt;57958d237885403eac91f14c7abc0f5f -->
<g id="edge36" class="edge">
<title>7c473db95ed44f398c405a70d5e91f83&#45;&gt;57958d237885403eac91f14c7abc0f5f</title>
<path fill="none" stroke="#7b8894" d="M527.06,-470C527.06,-470 787.76,-470 787.76,-470"/>
<polygon fill="#7b8894" stroke="#7b8894" points="787.76,-473.5 797.76,-470 787.76,-466.5 787.76,-473.5"/>
<text text-anchor="middle" x="662.5" y="-473.6" font-family="Sans-Serif" font-size="13.00" fill="darkgrey">l_to_ds_comper_options_vertes</text>
</g>
<!-- 4ca8c71b03df4c4bb3a01a27999b7b38 -->
<g id="node40" class="node">
<title>4ca8c71b03df4c4bb3a01a27999b7b38</title>
<image xlink:href="icons/bigquery.png" width="101px" height="101px" preserveAspectRatio="xMinYMin meet" x="16" y="-340.5"/>
<text text-anchor="middle" x="66.5" y="-225.1" font-family="Sans-Serif" font-size="13.00" fill="#2d3436">amadeus.e_ama_prelevement_mensualisation</text>
</g>
<!-- 7b47b53bd1524a5793e1fc5991908171 -->
<g id="node41" class="node">
<title>7b47b53bd1524a5793e1fc5991908171</title>
<image xlink:href="icons/bigquery.png" width="101px" height="101px" preserveAspectRatio="xMinYMin meet" x="426" y="-340.5"/>
<text text-anchor="middle" x="476.5" y="-225.1" font-family="Sans-Serif" font-size="13.00" fill="#2d3436">comper.l_ama_to_ds_comper_prelevement_mensualisation</text>
</g>
<!-- 4ca8c71b03df4c4bb3a01a27999b7b38&#45;&gt;7b47b53bd1524a5793e1fc5991908171 -->
<g id="edge37" class="edge">
<title>4ca8c71b03df4c4bb3a01a27999b7b38&#45;&gt;7b47b53bd1524a5793e1fc5991908171</title>
<path fill="none" stroke="#7b8894" d="M117.19,-290C117.19,-290 415.93,-290 415.93,-290"/>
<polygon fill="#7b8894" stroke="#7b8894" points="415.93,-293.5 425.93,-290 415.93,-286.5 415.93,-293.5"/>
<text text-anchor="middle" x="271.5" y="-293.6" font-family="Sans-Serif" font-size="13.00" fill="darkgrey">l_to_ds_comper_prelevement_mensualisation</text>
</g>
<!-- f6b9557945ee4f19a12fce579337301e -->
<g id="node42" class="node">
<title>f6b9557945ee4f19a12fce579337301e</title>
<image xlink:href="icons/bigquery.png" width="101px" height="101px" preserveAspectRatio="xMinYMin meet" x="16" y="-160.5"/>
<text text-anchor="middle" x="66.5" y="-45.1" font-family="Sans-Serif" font-size="13.00" fill="#2d3436">amadeus.e_gsheet_activation_energie</text>
</g>
<!-- 51063ac064b34414838c62bfdb4c238b -->
<g id="node43" class="node">
<title>51063ac064b34414838c62bfdb4c238b</title>
<image xlink:href="icons/bigquery.png" width="101px" height="101px" preserveAspectRatio="xMinYMin meet" x="426" y="-160.5"/>
<text text-anchor="middle" x="476.5" y="-45.1" font-family="Sans-Serif" font-size="13.00" fill="#2d3436">comper.l_ama_to_ds_comper_activation_energie</text>
</g>
<!-- f6b9557945ee4f19a12fce579337301e&#45;&gt;51063ac064b34414838c62bfdb4c238b -->
<g id="edge38" class="edge">
<title>f6b9557945ee4f19a12fce579337301e&#45;&gt;51063ac064b34414838c62bfdb4c238b</title>
<path fill="none" stroke="#7b8894" d="M117.19,-110C117.19,-110 415.93,-110 415.93,-110"/>
<polygon fill="#7b8894" stroke="#7b8894" points="415.93,-113.5 425.93,-110 415.93,-106.5 415.93,-113.5"/>
<text text-anchor="middle" x="271.5" y="-113.6" font-family="Sans-Serif" font-size="13.00" fill="darkgrey">l_to_ds_comper_activation_energie</text>
</g>
</g>
</svg>
