<?xml version="1.0" encoding="UTF-8" standalone="no"?>
<!DOCTYPE svg PUBLIC "-//W3C//DTD SVG 1.1//EN"
 "http://www.w3.org/Graphics/SVG/1.1/DTD/svg11.dtd">
<!-- Generated by graphviz version 2.47.1 (20210417.1919)
 -->
<!-- Title: amadeus Pages: 1 -->
<svg width="1932pt" height="2844pt"
 viewBox="0.00 0.00 1932.00 2844.00" xmlns="http://www.w3.org/2000/svg" xmlns:xlink="http://www.w3.org/1999/xlink">
<g id="graph0" class="graph" transform="scale(1 1) rotate(0) translate(144 2700)">
<title>amadeus</title>
<text text-anchor="middle" x="822" y="-9" font-family="Sans-Serif" font-size="15.00" fill="#2d3436">amadeus</text>
<g id="clust1" class="cluster">
<title>cluster_amadeus</title>
<path fill="#e5f5fd" stroke="#aeb6be" d="M20,-33C20,-33 1624,-33 1624,-33 1630,-33 1636,-39 1636,-45 1636,-45 1636,-2536 1636,-2536 1636,-2542 1630,-2548 1624,-2548 1624,-2548 20,-2548 20,-2548 14,-2548 8,-2542 8,-2536 8,-2536 8,-45 8,-45 8,-39 14,-33 20,-33"/>
<text text-anchor="middle" x="40" y="-2534.4" font-family="Sans-Serif" font-size="12.00" fill="#2d3436">amadeus</text>
</g>
<!-- 3dee2e3d76c542dabef63b8ebc3ae455 -->
<g id="node1" class="node">
<title>3dee2e3d76c542dabef63b8ebc3ae455</title>
<image xlink:href="icons/storage.png" width="101px" height="101px" preserveAspectRatio="xMinYMin meet" x="16" y="-2500.5"/>
<text text-anchor="middle" x="66.5" y="-2385.1" font-family="Sans-Serif" font-size="13.00" fill="#2d3436">amadeus_bi.formulaires/GA_VENT_DIGT_</text>
</g>
<!-- c0bb253d9e664f0cb68c50b4b9d30ba0 -->
<g id="node2" class="node">
<title>c0bb253d9e664f0cb68c50b4b9d30ba0</title>
<image xlink:href="icons/bigquery.png" width="101px" height="101px" preserveAspectRatio="xMinYMin meet" x="426" y="-2500.5"/>
<text text-anchor="middle" x="476.5" y="-2385.1" font-family="Sans-Serif" font-size="13.00" fill="#2d3436">amadeus.e_ama_formulaires_stor</text>
</g>
<!-- 3dee2e3d76c542dabef63b8ebc3ae455&#45;&gt;c0bb253d9e664f0cb68c50b4b9d30ba0 -->
<g id="edge1" class="edge">
<title>3dee2e3d76c542dabef63b8ebc3ae455&#45;&gt;c0bb253d9e664f0cb68c50b4b9d30ba0</title>
<path fill="none" stroke="#7b8894" d="M117.19,-2450C117.19,-2450 415.93,-2450 415.93,-2450"/>
<polygon fill="#7b8894" stroke="#7b8894" points="415.93,-2453.5 425.93,-2450 415.93,-2446.5 415.93,-2453.5"/>
<text text-anchor="middle" x="271.5" y="-2453.6" font-family="Sans-Serif" font-size="13.00" fill="darkgrey">e_formulaires</text>
</g>
<!-- 925f8cc7159b422b8aa20a6016193fbb -->
<g id="node5" class="node">
<title>925f8cc7159b422b8aa20a6016193fbb</title>
<image xlink:href="icons/bigquery.png" width="101px" height="101px" preserveAspectRatio="xMinYMin meet" x="798" y="-2320.5"/>
<text text-anchor="middle" x="848.5" y="-2205.1" font-family="Sans-Serif" font-size="13.00" fill="#2d3436">amadeus.t_ama_formulaires_campagnes</text>
</g>
<!-- c0bb253d9e664f0cb68c50b4b9d30ba0&#45;&gt;925f8cc7159b422b8aa20a6016193fbb -->
<g id="edge3" class="edge">
<title>c0bb253d9e664f0cb68c50b4b9d30ba0&#45;&gt;925f8cc7159b422b8aa20a6016193fbb</title>
<path fill="none" stroke="#7b8894" d="M494,-2381.33C494,-2369.01 494,-2360 494,-2360 494,-2360 849,-2360 849,-2360 849,-2360 849,-2348.67 849,-2348.67"/>
<polygon fill="#7b8894" stroke="#7b8894" points="852.5,-2348.67 849,-2338.67 845.5,-2348.67 852.5,-2348.67"/>
<text text-anchor="middle" x="662.5" y="-2394.6" font-family="Sans-Serif" font-size="13.00" fill="darkgrey">t_formulaires_campagnes</text>
</g>
<!-- 1c3f312a449847f3aaec7f0a2c6fd3b5 -->
<g id="node11" class="node">
<title>1c3f312a449847f3aaec7f0a2c6fd3b5</title>
<image xlink:href="icons/bigquery.png" width="101px" height="101px" preserveAspectRatio="xMinYMin meet" x="798" y="-2500.5"/>
<text text-anchor="middle" x="848.5" y="-2385.1" font-family="Sans-Serif" font-size="13.00" fill="#2d3436">amadeus.t_ama_formulaires_verif_flux_ga</text>
</g>
<!-- c0bb253d9e664f0cb68c50b4b9d30ba0&#45;&gt;1c3f312a449847f3aaec7f0a2c6fd3b5 -->
<g id="edge9" class="edge">
<title>c0bb253d9e664f0cb68c50b4b9d30ba0&#45;&gt;1c3f312a449847f3aaec7f0a2c6fd3b5</title>
<path fill="none" stroke="#7b8894" d="M527.06,-2450C527.06,-2450 787.76,-2450 787.76,-2450"/>
<polygon fill="#7b8894" stroke="#7b8894" points="787.76,-2453.5 797.76,-2450 787.76,-2446.5 787.76,-2453.5"/>
<text text-anchor="middle" x="662.5" y="-2456.6" font-family="Sans-Serif" font-size="13.00" fill="darkgrey">t_formulaires_verif_flux_ga</text>
</g>
<!-- 20d90f60a45c47b8a0fac39ebf831acc -->
<g id="node3" class="node">
<title>20d90f60a45c47b8a0fac39ebf831acc</title>
<image xlink:href="icons/storage.png" width="101px" height="101px" preserveAspectRatio="xMinYMin meet" x="16" y="-1960.5"/>
<text text-anchor="middle" x="66.5" y="-1845.1" font-family="Sans-Serif" font-size="13.00" fill="#2d3436">amadeus_bi.appels/GA_SVI_</text>
</g>
<!-- 22a22b78980b458db256fbb27df5e182 -->
<g id="node4" class="node">
<title>22a22b78980b458db256fbb27df5e182</title>
<image xlink:href="icons/bigquery.png" width="101px" height="101px" preserveAspectRatio="xMinYMin meet" x="426" y="-1960.5"/>
<text text-anchor="middle" x="476.5" y="-1845.1" font-family="Sans-Serif" font-size="13.00" fill="#2d3436">amadeus.e_ama_appels</text>
</g>
<!-- 20d90f60a45c47b8a0fac39ebf831acc&#45;&gt;22a22b78980b458db256fbb27df5e182 -->
<g id="edge2" class="edge">
<title>20d90f60a45c47b8a0fac39ebf831acc&#45;&gt;22a22b78980b458db256fbb27df5e182</title>
<path fill="none" stroke="#7b8894" d="M117.19,-1910C117.19,-1910 415.93,-1910 415.93,-1910"/>
<polygon fill="#7b8894" stroke="#7b8894" points="415.93,-1913.5 425.93,-1910 415.93,-1906.5 415.93,-1913.5"/>
<text text-anchor="middle" x="271.5" y="-1913.6" font-family="Sans-Serif" font-size="13.00" fill="darkgrey">e_appels</text>
</g>
<!-- 8305bbe484db4c41b92c1f8c47705fff -->
<g id="node14" class="node">
<title>8305bbe484db4c41b92c1f8c47705fff</title>
<image xlink:href="icons/bigquery.png" width="101px" height="101px" preserveAspectRatio="xMinYMin meet" x="798" y="-1675.5"/>
<text text-anchor="middle" x="848.5" y="-1560.1" font-family="Sans-Serif" font-size="13.00" fill="#2d3436">amadeus.t_ama_appels</text>
</g>
<!-- 22a22b78980b458db256fbb27df5e182&#45;&gt;8305bbe484db4c41b92c1f8c47705fff -->
<g id="edge14" class="edge">
<title>22a22b78980b458db256fbb27df5e182&#45;&gt;8305bbe484db4c41b92c1f8c47705fff</title>
<path fill="none" stroke="#7b8894" d="M527.46,-1910C582.68,-1910 663,-1910 663,-1910 663,-1910 663,-1682.83 663,-1682.83 663,-1682.83 787.81,-1682.83 787.81,-1682.83"/>
<polygon fill="#7b8894" stroke="#7b8894" points="787.81,-1686.33 797.81,-1682.83 787.81,-1679.33 787.81,-1686.33"/>
<text text-anchor="middle" x="662.5" y="-1853.6" font-family="Sans-Serif" font-size="13.00" fill="darkgrey">t_appels</text>
</g>
<!-- 7a5d417ffc8546c09e371b5434489dc1 -->
<g id="node24" class="node">
<title>7a5d417ffc8546c09e371b5434489dc1</title>
<image xlink:href="icons/bigquery.png" width="101px" height="101px" preserveAspectRatio="xMinYMin meet" x="798" y="-2140.5"/>
<text text-anchor="middle" x="848.5" y="-2025.1" font-family="Sans-Serif" font-size="13.00" fill="#2d3436">amadeus.t_ama_import_gads</text>
</g>
<!-- 22a22b78980b458db256fbb27df5e182&#45;&gt;7a5d417ffc8546c09e371b5434489dc1 -->
<g id="edge25" class="edge">
<title>22a22b78980b458db256fbb27df5e182&#45;&gt;7a5d417ffc8546c09e371b5434489dc1</title>
<path fill="none" stroke="#7b8894" d="M477,-1978.54C477,-1994.62 477,-2007.17 477,-2007.17 477,-2007.17 832,-2007.17 832,-2007.17 832,-2007.17 832,-2011.22 832,-2011.22"/>
<polygon fill="#7b8894" stroke="#7b8894" points="828.5,-2011.22 832,-2021.22 835.5,-2011.22 828.5,-2011.22"/>
<text text-anchor="middle" x="662.5" y="-1972.6" font-family="Sans-Serif" font-size="13.00" fill="darkgrey">t_import_gads</text>
</g>
<!-- 528a80939b474cb193cee2af7aa813c7 -->
<g id="node8" class="node">
<title>528a80939b474cb193cee2af7aa813c7</title>
<image xlink:href="icons/bigquery.png" width="101px" height="101px" preserveAspectRatio="xMinYMin meet" x="1208" y="-2320.5"/>
<text text-anchor="middle" x="1258.5" y="-2205.1" font-family="Sans-Serif" font-size="13.00" fill="#2d3436">amadeus.t_ama_contrats_formulaires</text>
</g>
<!-- 925f8cc7159b422b8aa20a6016193fbb&#45;&gt;528a80939b474cb193cee2af7aa813c7 -->
<g id="edge6" class="edge">
<title>925f8cc7159b422b8aa20a6016193fbb&#45;&gt;528a80939b474cb193cee2af7aa813c7</title>
<path fill="none" stroke="#7b8894" d="M899.19,-2292.83C899.19,-2292.83 1197.93,-2292.83 1197.93,-2292.83"/>
<polygon fill="#7b8894" stroke="#7b8894" points="1197.93,-2296.33 1207.93,-2292.83 1197.93,-2289.33 1197.93,-2296.33"/>
<text text-anchor="middle" x="1043" y="-2273.6" font-family="Sans-Serif" font-size="13.00" fill="darkgrey">t_contrats_formulaires</text>
</g>
<!-- cc6dac4079b744d1a26c60b5c8c4f61a -->
<g id="node10" class="node">
<title>cc6dac4079b744d1a26c60b5c8c4f61a</title>
<image xlink:href="icons/bigquery.png" width="101px" height="101px" preserveAspectRatio="xMinYMin meet" x="1208" y="-2500.5"/>
<text text-anchor="middle" x="1258.5" y="-2385.1" font-family="Sans-Serif" font-size="13.00" fill="#2d3436">amadeus.t_ama_leads_formulaires</text>
</g>
<!-- 925f8cc7159b422b8aa20a6016193fbb&#45;&gt;cc6dac4079b744d1a26c60b5c8c4f61a -->
<g id="edge8" class="edge">
<title>925f8cc7159b422b8aa20a6016193fbb&#45;&gt;cc6dac4079b744d1a26c60b5c8c4f61a</title>
<path fill="none" stroke="#7b8894" d="M874,-2338.56C874,-2345.04 874,-2349.25 874,-2349.25 874,-2349.25 1259,-2349.25 1259,-2349.25 1259,-2349.25 1259,-2371.4 1259,-2371.4"/>
<polygon fill="#7b8894" stroke="#7b8894" points="1255.5,-2371.4 1259,-2381.4 1262.5,-2371.4 1255.5,-2371.4"/>
<text text-anchor="middle" x="1043" y="-2394.6" font-family="Sans-Serif" font-size="13.00" fill="darkgrey">t_leads_formulaires</text>
</g>
<!-- ad3965298c3144bdbfda37ff09975ed6 -->
<g id="node6" class="node">
<title>ad3965298c3144bdbfda37ff09975ed6</title>
<image xlink:href="icons/bigquery.png" width="101px" height="101px" preserveAspectRatio="xMinYMin meet" x="426" y="-2320.5"/>
<text text-anchor="middle" x="476.5" y="-2205.1" font-family="Sans-Serif" font-size="13.00" fill="#2d3436">ga.l_ga_to_ama_ga_formulaires_stor_*</text>
</g>
<!-- ad3965298c3144bdbfda37ff09975ed6&#45;&gt;925f8cc7159b422b8aa20a6016193fbb -->
<g id="edge4" class="edge">
<title>ad3965298c3144bdbfda37ff09975ed6&#45;&gt;925f8cc7159b422b8aa20a6016193fbb</title>
<path fill="none" stroke="#7b8894" d="M527.06,-2270C527.06,-2270 787.76,-2270 787.76,-2270"/>
<polygon fill="#7b8894" stroke="#7b8894" points="787.76,-2273.5 797.76,-2270 787.76,-2266.5 787.76,-2273.5"/>
<text text-anchor="middle" x="662.5" y="-2270.6" font-family="Sans-Serif" font-size="13.00" fill="darkgrey">t_formulaires_campagnes</text>
</g>
<!-- ad3965298c3144bdbfda37ff09975ed6&#45;&gt;1c3f312a449847f3aaec7f0a2c6fd3b5 -->
<g id="edge10" class="edge">
<title>ad3965298c3144bdbfda37ff09975ed6&#45;&gt;1c3f312a449847f3aaec7f0a2c6fd3b5</title>
<path fill="none" stroke="#7b8894" d="M460,-2338.6C460,-2356.43 460,-2370.75 460,-2370.75 460,-2370.75 824,-2370.75 824,-2370.75 824,-2370.75 824,-2371.82 824,-2371.82"/>
<polygon fill="#7b8894" stroke="#7b8894" points="820.5,-2371.44 824,-2381.44 827.5,-2371.44 820.5,-2371.44"/>
<text text-anchor="middle" x="662.5" y="-2332.6" font-family="Sans-Serif" font-size="13.00" fill="darkgrey">t_formulaires_verif_flux_ga</text>
</g>
<!-- b858a118504e44a8b742ab8e75c964fe -->
<g id="node7" class="node">
<title>b858a118504e44a8b742ab8e75c964fe</title>
<image xlink:href="icons/bigquery.png" width="101px" height="101px" preserveAspectRatio="xMinYMin meet" x="426" y="-2140.5"/>
<text text-anchor="middle" x="476.5" y="-2025.1" font-family="Sans-Serif" font-size="13.00" fill="#2d3436">ga.t_ga_correspondance_hash_campagnes</text>
</g>
<!-- b858a118504e44a8b742ab8e75c964fe&#45;&gt;925f8cc7159b422b8aa20a6016193fbb -->
<g id="edge5" class="edge">
<title>b858a118504e44a8b742ab8e75c964fe&#45;&gt;925f8cc7159b422b8aa20a6016193fbb</title>
<path fill="none" stroke="#7b8894" d="M477,-2158.67C477,-2170.99 477,-2180 477,-2180 477,-2180 849,-2180 849,-2180 849,-2180 849,-2191.33 849,-2191.33"/>
<polygon fill="#7b8894" stroke="#7b8894" points="845.5,-2191.33 849,-2201.33 852.5,-2191.33 845.5,-2191.33"/>
<text text-anchor="middle" x="662.5" y="-2152.6" font-family="Sans-Serif" font-size="13.00" fill="darkgrey">t_formulaires_campagnes</text>
</g>
<!-- 542b3ad9cd1d4311b3e4c72519b778b0 -->
<g id="node9" class="node">
<title>542b3ad9cd1d4311b3e4c72519b778b0</title>
<image xlink:href="icons/bigquery.png" width="101px" height="101px" preserveAspectRatio="xMinYMin meet" x="798" y="-1960.5"/>
<text text-anchor="middle" x="848.5" y="-1845.1" font-family="Sans-Serif" font-size="13.00" fill="#2d3436">comper.e_v_digi_import_cube_valeur</text>
</g>
<!-- 542b3ad9cd1d4311b3e4c72519b778b0&#45;&gt;528a80939b474cb193cee2af7aa813c7 -->
<g id="edge7" class="edge">
<title>542b3ad9cd1d4311b3e4c72519b778b0&#45;&gt;528a80939b474cb193cee2af7aa813c7</title>
<path fill="none" stroke="#7b8894" d="M899.03,-1932.83C959.88,-1932.83 1054,-1932.83 1054,-1932.83 1054,-1932.83 1054,-2247.17 1054,-2247.17 1054,-2247.17 1197.95,-2247.17 1197.95,-2247.17"/>
<polygon fill="#7b8894" stroke="#7b8894" points="1197.95,-2250.67 1207.95,-2247.17 1197.95,-2243.67 1197.95,-2250.67"/>
<text text-anchor="middle" x="1043" y="-2169.6" font-family="Sans-Serif" font-size="13.00" fill="darkgrey">t_contrats_formulaires</text>
</g>
<!-- a38803ce7cec41fbafc6f3cb9dc251f8 -->
<g id="node19" class="node">
<title>a38803ce7cec41fbafc6f3cb9dc251f8</title>
<image xlink:href="icons/bigquery.png" width="101px" height="101px" preserveAspectRatio="xMinYMin meet" x="1208" y="-2140.5"/>
<text text-anchor="middle" x="1258.5" y="-2025.1" font-family="Sans-Serif" font-size="13.00" fill="#2d3436">amadeus.t_ama_contrats_appels</text>
</g>
<!-- 542b3ad9cd1d4311b3e4c72519b778b0&#45;&gt;a38803ce7cec41fbafc6f3cb9dc251f8 -->
<g id="edge19" class="edge">
<title>542b3ad9cd1d4311b3e4c72519b778b0&#45;&gt;a38803ce7cec41fbafc6f3cb9dc251f8</title>
<path fill="none" stroke="#7b8894" d="M866,-1978.78C866,-1987.16 866,-1992.83 866,-1992.83 866,-1992.83 1259,-1992.83 1259,-1992.83 1259,-1992.83 1259,-2011.46 1259,-2011.46"/>
<polygon fill="#7b8894" stroke="#7b8894" points="1255.5,-2011.46 1259,-2021.46 1262.5,-2011.46 1255.5,-2011.46"/>
<text text-anchor="middle" x="1043" y="-2065.6" font-family="Sans-Serif" font-size="13.00" fill="darkgrey">t_contrats_appels</text>
</g>
<!-- c9bc94304502401aa617cb2202f93748 -->
<g id="node12" class="node">
<title>c9bc94304502401aa617cb2202f93748</title>
<image xlink:href="icons/bigquery.png" width="101px" height="101px" preserveAspectRatio="xMinYMin meet" x="426" y="-1420.5"/>
<text text-anchor="middle" x="476.5" y="-1305.1" font-family="Sans-Serif" font-size="13.00" fill="#2d3436">ga.t_ga_sessions</text>
</g>
<!-- 0f17476acf1540beacc48cb691acca4a -->
<g id="node13" class="node">
<title>0f17476acf1540beacc48cb691acca4a</title>
<image xlink:href="icons/bigquery.png" width="101px" height="101px" preserveAspectRatio="xMinYMin meet" x="798" y="-1420.5"/>
<text text-anchor="middle" x="848.5" y="-1305.1" font-family="Sans-Serif" font-size="13.00" fill="#2d3436">amadeus.t_ama_appels_ga</text>
</g>
<!-- c9bc94304502401aa617cb2202f93748&#45;&gt;0f17476acf1540beacc48cb691acca4a -->
<g id="edge11" class="edge">
<title>c9bc94304502401aa617cb2202f93748&#45;&gt;0f17476acf1540beacc48cb691acca4a</title>
<path fill="none" stroke="#7b8894" d="M527.06,-1370C527.06,-1370 787.76,-1370 787.76,-1370"/>
<polygon fill="#7b8894" stroke="#7b8894" points="787.76,-1373.5 797.76,-1370 787.76,-1366.5 787.76,-1373.5"/>
<text text-anchor="middle" x="662.5" y="-1373.6" font-family="Sans-Serif" font-size="13.00" fill="darkgrey">t_appels_ga</text>
</g>
<!-- c49502346f2f4cb29f9d4d84af73a8be -->
<g id="node23" class="node">
<title>c49502346f2f4cb29f9d4d84af73a8be</title>
<image xlink:href="icons/bigquery.png" width="101px" height="101px" preserveAspectRatio="xMinYMin meet" x="798" y="-1240.5"/>
<text text-anchor="middle" x="848.5" y="-1125.1" font-family="Sans-Serif" font-size="13.00" fill="#2d3436">eloqua.t_elq_promo_applis_mobiles_tlgt_appli</text>
</g>
<!-- c9bc94304502401aa617cb2202f93748&#45;&gt;c49502346f2f4cb29f9d4d84af73a8be -->
<g id="edge24" class="edge">
<title>c9bc94304502401aa617cb2202f93748&#45;&gt;c49502346f2f4cb29f9d4d84af73a8be</title>
<path fill="none" stroke="#7b8894" d="M477,-1301.35C477,-1282.67 477,-1267.5 477,-1267.5 477,-1267.5 866,-1267.5 866,-1267.5 866,-1267.5 866,-1266.61 866,-1266.61"/>
<polygon fill="#7b8894" stroke="#7b8894" points="869.5,-1268.61 866,-1258.61 862.5,-1268.61 869.5,-1268.61"/>
<text text-anchor="middle" x="662.5" y="-1283.6" font-family="Sans-Serif" font-size="13.00" fill="darkgrey">t_elq_promo_applis_mobiles_tlgt_appli</text>
</g>
<!-- aad19398dd394e23a90f9259ce78c8b3 -->
<g id="node15" class="node">
<title>aad19398dd394e23a90f9259ce78c8b3</title>
<image xlink:href="icons/bigquery.png" width="101px" height="101px" preserveAspectRatio="xMinYMin meet" x="1208" y="-959.5"/>
<text text-anchor="middle" x="1258.5" y="-844.1" font-family="Sans-Serif" font-size="13.00" fill="#2d3436">amadeus.t_ama_appels_leviers</text>
</g>
<!-- 0f17476acf1540beacc48cb691acca4a&#45;&gt;aad19398dd394e23a90f9259ce78c8b3 -->
<g id="edge13" class="edge">
<title>0f17476acf1540beacc48cb691acca4a&#45;&gt;aad19398dd394e23a90f9259ce78c8b3</title>
<path fill="none" stroke="#7b8894" d="M899,-1347.17C919.31,-1347.17 938,-1347.17 938,-1347.17 938,-1347.17 938,-953.5 938,-953.5 938,-953.5 1197.72,-953.5 1197.72,-953.5"/>
<polygon fill="#7b8894" stroke="#7b8894" points="1197.72,-957 1207.72,-953.5 1197.72,-950 1197.72,-957"/>
<text text-anchor="middle" x="1043" y="-979.6" font-family="Sans-Serif" font-size="13.00" fill="darkgrey">t_appels_leviers</text>
</g>
<!-- 3615d20ce937403ca1f729c0a619417f -->
<g id="node20" class="node">
<title>3615d20ce937403ca1f729c0a619417f</title>
<image xlink:href="icons/bigquery.png" width="101px" height="101px" preserveAspectRatio="xMinYMin meet" x="1527" y="-1395.5"/>
<text text-anchor="middle" x="1577.5" y="-1280.1" font-family="Sans-Serif" font-size="13.00" fill="#2d3436">amadeus.t_ama_contrats_appels_leviers</text>
</g>
<!-- 0f17476acf1540beacc48cb691acca4a&#45;&gt;3615d20ce937403ca1f729c0a619417f -->
<g id="edge21" class="edge">
<title>0f17476acf1540beacc48cb691acca4a&#45;&gt;3615d20ce937403ca1f729c0a619417f</title>
<path fill="none" stroke="#7b8894" d="M832,-1301.3C832,-1293.91 832,-1289 832,-1289 832,-1289 1516.84,-1289 1516.84,-1289"/>
<polygon fill="#7b8894" stroke="#7b8894" points="1516.84,-1292.5 1526.84,-1289 1516.84,-1285.5 1516.84,-1292.5"/>
<text text-anchor="middle" x="1258.5" y="-1067.6" font-family="Sans-Serif" font-size="13.00" fill="darkgrey">t_contrats_appels_leviers</text>
</g>
<!-- 8305bbe484db4c41b92c1f8c47705fff&#45;&gt;aad19398dd394e23a90f9259ce78c8b3 -->
<g id="edge12" class="edge">
<title>8305bbe484db4c41b92c1f8c47705fff&#45;&gt;aad19398dd394e23a90f9259ce78c8b3</title>
<path fill="none" stroke="#7b8894" d="M899.29,-1568.9C935.2,-1568.9 977,-1568.9 977,-1568.9 977,-1568.9 977,-965.5 977,-965.5 977,-965.5 1197.85,-965.5 1197.85,-965.5"/>
<polygon fill="#7b8894" stroke="#7b8894" points="1197.85,-969 1207.85,-965.5 1197.85,-962 1197.85,-969"/>
<text text-anchor="middle" x="1043" y="-1224.6" font-family="Sans-Serif" font-size="13.00" fill="darkgrey">t_appels_leviers</text>
</g>
<!-- 8305bbe484db4c41b92c1f8c47705fff&#45;&gt;a38803ce7cec41fbafc6f3cb9dc251f8 -->
<g id="edge18" class="edge">
<title>8305bbe484db4c41b92c1f8c47705fff&#45;&gt;a38803ce7cec41fbafc6f3cb9dc251f8</title>
<path fill="none" stroke="#7b8894" d="M899.16,-1685.5C970.78,-1685.5 1093,-1685.5 1093,-1685.5 1093,-1685.5 1093,-2090 1093,-2090 1093,-2090 1197.95,-2090 1197.95,-2090"/>
<polygon fill="#7b8894" stroke="#7b8894" points="1197.95,-2093.5 1207.95,-2090 1197.95,-2086.5 1197.95,-2093.5"/>
<text text-anchor="middle" x="1043" y="-1945.6" font-family="Sans-Serif" font-size="13.00" fill="darkgrey">t_contrats_appels</text>
</g>
<!-- 6cbcab3021c94e548849760da3fd4fb1 -->
<g id="node25" class="node">
<title>6cbcab3021c94e548849760da3fd4fb1</title>
<image xlink:href="icons/bigquery.png" width="101px" height="101px" preserveAspectRatio="xMinYMin meet" x="1208" y="-1420.5"/>
<text text-anchor="middle" x="1258.5" y="-1305.1" font-family="Sans-Serif" font-size="13.00" fill="#2d3436">amadeus.t_ama_valeurs_plus40_datastudio_gads</text>
</g>
<!-- 8305bbe484db4c41b92c1f8c47705fff&#45;&gt;6cbcab3021c94e548849760da3fd4fb1 -->
<g id="edge26" class="edge">
<title>8305bbe484db4c41b92c1f8c47705fff&#45;&gt;6cbcab3021c94e548849760da3fd4fb1</title>
<path fill="none" stroke="#7b8894" d="M899.09,-1593.7C989.63,-1593.7 1170,-1593.7 1170,-1593.7 1170,-1593.7 1170,-1392.83 1170,-1392.83 1170,-1392.83 1197.79,-1392.83 1197.79,-1392.83"/>
<polygon fill="#7b8894" stroke="#7b8894" points="1197.79,-1396.33 1207.79,-1392.83 1197.79,-1389.33 1197.79,-1396.33"/>
<text text-anchor="middle" x="1043" y="-1447.6" font-family="Sans-Serif" font-size="13.00" fill="darkgrey">t_valeurs_plus40_datastudio_gads</text>
</g>
<!-- 2c5aa2fa69194a79a6fdbbddbca6043e -->
<g id="node26" class="node">
<title>2c5aa2fa69194a79a6fdbbddbca6043e</title>
<image xlink:href="icons/bigquery.png" width="101px" height="101px" preserveAspectRatio="xMinYMin meet" x="1208" y="-1600.5"/>
<text text-anchor="middle" x="1258.5" y="-1485.1" font-family="Sans-Serif" font-size="13.00" fill="#2d3436">amadeus.t_ama_valeurs_datastudio_gads</text>
</g>
<!-- 8305bbe484db4c41b92c1f8c47705fff&#45;&gt;2c5aa2fa69194a79a6fdbbddbca6043e -->
<g id="edge27" class="edge">
<title>8305bbe484db4c41b92c1f8c47705fff&#45;&gt;2c5aa2fa69194a79a6fdbbddbca6043e</title>
<path fill="none" stroke="#7b8894" d="M899.19,-1606.1C899.19,-1606.1 1197.93,-1606.1 1197.93,-1606.1"/>
<polygon fill="#7b8894" stroke="#7b8894" points="1197.93,-1609.6 1207.93,-1606.1 1197.93,-1602.6 1197.93,-1609.6"/>
<text text-anchor="middle" x="1043" y="-1583.6" font-family="Sans-Serif" font-size="13.00" fill="darkgrey">t_valeurs_datastudio_gads</text>
</g>
<!-- 96fc3ac2edec424d9ac948a6b0754cc4 -->
<g id="node27" class="node">
<title>96fc3ac2edec424d9ac948a6b0754cc4</title>
<image xlink:href="icons/bigquery.png" width="101px" height="101px" preserveAspectRatio="xMinYMin meet" x="1208" y="-1780.5"/>
<text text-anchor="middle" x="1258.5" y="-1665.1" font-family="Sans-Serif" font-size="13.00" fill="#2d3436">amadeus.t_ama_valeurs_sousindicateur_gads</text>
</g>
<!-- 8305bbe484db4c41b92c1f8c47705fff&#45;&gt;96fc3ac2edec424d9ac948a6b0754cc4 -->
<g id="edge28" class="edge">
<title>8305bbe484db4c41b92c1f8c47705fff&#45;&gt;96fc3ac2edec424d9ac948a6b0754cc4</title>
<path fill="none" stroke="#7b8894" d="M899.19,-1669.5C899.19,-1669.5 1197.93,-1669.5 1197.93,-1669.5"/>
<polygon fill="#7b8894" stroke="#7b8894" points="1197.93,-1673 1207.93,-1669.5 1197.93,-1666 1197.93,-1673"/>
<text text-anchor="middle" x="1043" y="-1674.6" font-family="Sans-Serif" font-size="13.00" fill="darkgrey">t_valeurs_sousindicateur_gads</text>
</g>
<!-- 0dc93c9531fc44f78dd98843cbda3acc -->
<g id="node28" class="node">
<title>0dc93c9531fc44f78dd98843cbda3acc</title>
<image xlink:href="icons/bigquery.png" width="101px" height="101px" preserveAspectRatio="xMinYMin meet" x="1208" y="-1960.5"/>
<text text-anchor="middle" x="1258.5" y="-1845.1" font-family="Sans-Serif" font-size="13.00" fill="#2d3436">amadeus.t_ama_anciennes_valeurs_gads</text>
</g>
<!-- 8305bbe484db4c41b92c1f8c47705fff&#45;&gt;0dc93c9531fc44f78dd98843cbda3acc -->
<g id="edge29" class="edge">
<title>8305bbe484db4c41b92c1f8c47705fff&#45;&gt;0dc93c9531fc44f78dd98843cbda3acc</title>
<path fill="none" stroke="#7b8894" d="M899.01,-1677.5C980.26,-1677.5 1131,-1677.5 1131,-1677.5 1131,-1677.5 1131,-1887.17 1131,-1887.17 1131,-1887.17 1197.74,-1887.17 1197.74,-1887.17"/>
<polygon fill="#7b8894" stroke="#7b8894" points="1197.74,-1890.67 1207.74,-1887.17 1197.74,-1883.67 1197.74,-1890.67"/>
<text text-anchor="middle" x="1043" y="-1825.6" font-family="Sans-Serif" font-size="13.00" fill="darkgrey">t_anciennes_valeurs_gads</text>
</g>
<!-- 68a01596d17d4e7b84000c3f741d249b -->
<g id="node29" class="node">
<title>68a01596d17d4e7b84000c3f741d249b</title>
<image xlink:href="icons/bigquery.png" width="101px" height="101px" preserveAspectRatio="xMinYMin meet" x="1208" y="-1240.5"/>
<text text-anchor="middle" x="1258.5" y="-1125.1" font-family="Sans-Serif" font-size="13.00" fill="#2d3436">amadeus.t_ama_anciennes_valeurs_sousindicateur_gads</text>
</g>
<!-- 8305bbe484db4c41b92c1f8c47705fff&#45;&gt;68a01596d17d4e7b84000c3f741d249b -->
<g id="edge30" class="edge">
<title>8305bbe484db4c41b92c1f8c47705fff&#45;&gt;68a01596d17d4e7b84000c3f741d249b</title>
<path fill="none" stroke="#7b8894" d="M899.36,-1581.3C948.32,-1581.3 1015,-1581.3 1015,-1581.3 1015,-1581.3 1015,-1190 1015,-1190 1015,-1190 1197.75,-1190 1197.75,-1190"/>
<polygon fill="#7b8894" stroke="#7b8894" points="1197.75,-1193.5 1207.75,-1190 1197.75,-1186.5 1197.75,-1193.5"/>
<text text-anchor="middle" x="1043" y="-1352.6" font-family="Sans-Serif" font-size="13.00" fill="darkgrey">t_anciennes_valeurs_sousindicateur_gads</text>
</g>
<!-- b819c664dad54e98b96c953284d07baf -->
<g id="node18" class="node">
<title>b819c664dad54e98b96c953284d07baf</title>
<image xlink:href="icons/bigquery.png" width="101px" height="101px" preserveAspectRatio="xMinYMin meet" x="1527" y="-959.5"/>
<text text-anchor="middle" x="1577.5" y="-844.1" font-family="Sans-Serif" font-size="13.00" fill="#2d3436">amadeus.t_ama_leads_appels</text>
</g>
<!-- aad19398dd394e23a90f9259ce78c8b3&#45;&gt;b819c664dad54e98b96c953284d07baf -->
<g id="edge17" class="edge">
<title>aad19398dd394e23a90f9259ce78c8b3&#45;&gt;b819c664dad54e98b96c953284d07baf</title>
<path fill="none" stroke="#7b8894" d="M1309.05,-909C1309.05,-909 1516.93,-909 1516.93,-909"/>
<polygon fill="#7b8894" stroke="#7b8894" points="1516.93,-912.5 1526.93,-909 1516.93,-905.5 1516.93,-912.5"/>
<text text-anchor="middle" x="1428.5" y="-912.6" font-family="Sans-Serif" font-size="13.00" fill="darkgrey">t_leads_appels</text>
</g>
<!-- ca7705f4e0444a8c98e9ebd27e88d2f7 -->
<g id="node16" class="node">
<title>ca7705f4e0444a8c98e9ebd27e88d2f7</title>
<image xlink:href="icons/bigquery.png" width="101px" height="101px" preserveAspectRatio="xMinYMin meet" x="426" y="-1600.5"/>
<text text-anchor="middle" x="476.5" y="-1485.1" font-family="Sans-Serif" font-size="13.00" fill="#2d3436">amadeus.e_ama_appels_2020</text>
</g>
<!-- ca7705f4e0444a8c98e9ebd27e88d2f7&#45;&gt;8305bbe484db4c41b92c1f8c47705fff -->
<g id="edge15" class="edge">
<title>ca7705f4e0444a8c98e9ebd27e88d2f7&#45;&gt;8305bbe484db4c41b92c1f8c47705fff</title>
<path fill="none" stroke="#7b8894" d="M527.06,-1587.5C527.06,-1587.5 787.76,-1587.5 787.76,-1587.5"/>
<polygon fill="#7b8894" stroke="#7b8894" points="787.76,-1591 797.76,-1587.5 787.76,-1584 787.76,-1591"/>
<text text-anchor="middle" x="662.5" y="-1582.6" font-family="Sans-Serif" font-size="13.00" fill="darkgrey">t_appels</text>
</g>
<!-- 694faa2862a740a7bb87478d826d36fe -->
<g id="node17" class="node">
<title>694faa2862a740a7bb87478d826d36fe</title>
<image xlink:href="icons/bigquery.png" width="101px" height="101px" preserveAspectRatio="xMinYMin meet" x="426" y="-1780.5"/>
<text text-anchor="middle" x="476.5" y="-1665.1" font-family="Sans-Serif" font-size="13.00" fill="#2d3436">amadeus.e_ama_appels_2018_2019</text>
</g>
<!-- 694faa2862a740a7bb87478d826d36fe&#45;&gt;8305bbe484db4c41b92c1f8c47705fff -->
<g id="edge16" class="edge">
<title>694faa2862a740a7bb87478d826d36fe&#45;&gt;8305bbe484db4c41b92c1f8c47705fff</title>
<path fill="none" stroke="#7b8894" d="M527.06,-1672.17C527.06,-1672.17 787.76,-1672.17 787.76,-1672.17"/>
<polygon fill="#7b8894" stroke="#7b8894" points="787.76,-1675.67 797.76,-1672.17 787.76,-1668.67 787.76,-1675.67"/>
<text text-anchor="middle" x="662.5" y="-1674.6" font-family="Sans-Serif" font-size="13.00" fill="darkgrey">t_appels</text>
</g>
<!-- a38803ce7cec41fbafc6f3cb9dc251f8&#45;&gt;3615d20ce937403ca1f729c0a619417f -->
<g id="edge20" class="edge">
<title>a38803ce7cec41fbafc6f3cb9dc251f8&#45;&gt;3615d20ce937403ca1f729c0a619417f</title>
<path fill="none" stroke="#7b8894" d="M1309.13,-2090C1399.22,-2090 1578,-2090 1578,-2090 1578,-2090 1578,-1423.75 1578,-1423.75"/>
<polygon fill="#7b8894" stroke="#7b8894" points="1581.5,-1423.75 1578,-1413.75 1574.5,-1423.75 1581.5,-1423.75"/>
<text text-anchor="middle" x="1428.5" y="-1604.6" font-family="Sans-Serif" font-size="13.00" fill="darkgrey">t_contrats_appels_leviers</text>
</g>
<!-- 2149e561a01541b6b5cf0b8371c1d21a -->
<g id="node21" class="node">
<title>2149e561a01541b6b5cf0b8371c1d21a</title>
<image xlink:href="icons/storage.png" width="101px" height="101px" preserveAspectRatio="xMinYMin meet" x="16" y="-1240.5"/>
<text text-anchor="middle" x="66.5" y="-1125.1" font-family="Sans-Serif" font-size="13.00" fill="#2d3436">amadeus_bi.eloqua/AMA_GOOG_RETR_MARK_ELQC_315_*</text>
</g>
<!-- 6f198143c3954ebeb8d6d7e4a51af4ba -->
<g id="node22" class="node">
<title>6f198143c3954ebeb8d6d7e4a51af4ba</title>
<image xlink:href="icons/bigquery.png" width="101px" height="101px" preserveAspectRatio="xMinYMin meet" x="426" y="-1240.5"/>
<text text-anchor="middle" x="476.5" y="-1125.1" font-family="Sans-Serif" font-size="13.00" fill="#2d3436">eloqua.e_elq_promo_applis_mobiles_clics_emails</text>
</g>
<!-- 2149e561a01541b6b5cf0b8371c1d21a&#45;&gt;6f198143c3954ebeb8d6d7e4a51af4ba -->
<g id="edge22" class="edge">
<title>2149e561a01541b6b5cf0b8371c1d21a&#45;&gt;6f198143c3954ebeb8d6d7e4a51af4ba</title>
<path fill="none" stroke="#7b8894" d="M117.19,-1190C117.19,-1190 415.93,-1190 415.93,-1190"/>
<polygon fill="#7b8894" stroke="#7b8894" points="415.93,-1193.5 425.93,-1190 415.93,-1186.5 415.93,-1193.5"/>
<text text-anchor="middle" x="271.5" y="-1193.6" font-family="Sans-Serif" font-size="13.00" fill="darkgrey">e_elq_promo_applis_mobiles_clics_emails</text>
</g>
<!-- 6f198143c3954ebeb8d6d7e4a51af4ba&#45;&gt;c49502346f2f4cb29f9d4d84af73a8be -->
<g id="edge23" class="edge">
<title>6f198143c3954ebeb8d6d7e4a51af4ba&#45;&gt;c49502346f2f4cb29f9d4d84af73a8be</title>
<path fill="none" stroke="#7b8894" d="M527.06,-1190C527.06,-1190 787.76,-1190 787.76,-1190"/>
<polygon fill="#7b8894" stroke="#7b8894" points="787.76,-1193.5 797.76,-1190 787.76,-1186.5 787.76,-1193.5"/>
<text text-anchor="middle" x="662.5" y="-1193.6" font-family="Sans-Serif" font-size="13.00" fill="darkgrey">t_elq_promo_applis_mobiles_tlgt_appli</text>
</g>
<!-- cd366b25ab164cbaa49f3e6b37965976 -->
<g id="node30" class="node">
<title>cd366b25ab164cbaa49f3e6b37965976</title>
<image xlink:href="icons/bigquery.png" width="101px" height="101px" preserveAspectRatio="xMinYMin meet" x="16" y="-1060.5"/>
<text text-anchor="middle" x="66.5" y="-945.1" font-family="Sans-Serif" font-size="13.00" fill="#2d3436">comper.t_v_digi_cube_valeur</text>
</g>
<!-- 47ec45f092e44ad18ec8fd4df895bbe7 -->
<g id="node31" class="node">
<title>47ec45f092e44ad18ec8fd4df895bbe7</title>
<image xlink:href="icons/bigquery.png" width="101px" height="101px" preserveAspectRatio="xMinYMin meet" x="426" y="-1060.5"/>
<text text-anchor="middle" x="476.5" y="-945.1" font-family="Sans-Serif" font-size="13.00" fill="#2d3436">amadeus.t_ama_parrainage</text>
</g>
<!-- cd366b25ab164cbaa49f3e6b37965976&#45;&gt;47ec45f092e44ad18ec8fd4df895bbe7 -->
<g id="edge31" class="edge">
<title>cd366b25ab164cbaa49f3e6b37965976&#45;&gt;47ec45f092e44ad18ec8fd4df895bbe7</title>
<path fill="none" stroke="#7b8894" d="M117.19,-1010C117.19,-1010 415.93,-1010 415.93,-1010"/>
<polygon fill="#7b8894" stroke="#7b8894" points="415.93,-1013.5 425.93,-1010 415.93,-1006.5 415.93,-1013.5"/>
<text text-anchor="middle" x="271.5" y="-1013.6" font-family="Sans-Serif" font-size="13.00" fill="darkgrey">t_parrainage</text>
</g>
<!-- edd5ebb3371c481e96d9c853567b62c5 -->
<g id="node32" class="node">
<title>edd5ebb3371c481e96d9c853567b62c5</title>
<image xlink:href="icons/bigquery.png" width="101px" height="101px" preserveAspectRatio="xMinYMin meet" x="798" y="-1060.5"/>
<text text-anchor="middle" x="848.5" y="-945.1" font-family="Sans-Serif" font-size="13.00" fill="#2d3436">comper.l_ama_to_ds_comper_t_ama_parrainage</text>
</g>
<!-- 47ec45f092e44ad18ec8fd4df895bbe7&#45;&gt;edd5ebb3371c481e96d9c853567b62c5 -->
<g id="edge32" class="edge">
<title>47ec45f092e44ad18ec8fd4df895bbe7&#45;&gt;edd5ebb3371c481e96d9c853567b62c5</title>
<path fill="none" stroke="#7b8894" d="M527.06,-1010C527.06,-1010 787.76,-1010 787.76,-1010"/>
<polygon fill="#7b8894" stroke="#7b8894" points="787.76,-1013.5 797.76,-1010 787.76,-1006.5 787.76,-1013.5"/>
<text text-anchor="middle" x="662.5" y="-1013.6" font-family="Sans-Serif" font-size="13.00" fill="darkgrey">l_to_ds_comper_t_ama_parrainage</text>
</g>
<!-- 520d8a507b52441d8267ec4eff8c8f36 -->
<g id="node33" class="node">
<title>520d8a507b52441d8267ec4eff8c8f36</title>
<image xlink:href="icons/bigquery.png" width="101px" height="101px" preserveAspectRatio="xMinYMin meet" x="16" y="-880.5"/>
<text text-anchor="middle" x="66.5" y="-765.1" font-family="Sans-Serif" font-size="13.00" fill="#2d3436">amadeus.e_gsheet_contrats_services</text>
</g>
<!-- 66d20732ec394e5181685a7daf5fefb5 -->
<g id="node34" class="node">
<title>66d20732ec394e5181685a7daf5fefb5</title>
<image xlink:href="icons/bigquery.png" width="101px" height="101px" preserveAspectRatio="xMinYMin meet" x="426" y="-880.5"/>
<text text-anchor="middle" x="476.5" y="-765.1" font-family="Sans-Serif" font-size="13.00" fill="#2d3436">comper.l_ama_to_ds_comper_contrats_services</text>
</g>
<!-- 520d8a507b52441d8267ec4eff8c8f36&#45;&gt;66d20732ec394e5181685a7daf5fefb5 -->
<g id="edge33" class="edge">
<title>520d8a507b52441d8267ec4eff8c8f36&#45;&gt;66d20732ec394e5181685a7daf5fefb5</title>
<path fill="none" stroke="#7b8894" d="M117.19,-830C117.19,-830 415.93,-830 415.93,-830"/>
<polygon fill="#7b8894" stroke="#7b8894" points="415.93,-833.5 425.93,-830 415.93,-826.5 415.93,-833.5"/>
<text text-anchor="middle" x="271.5" y="-833.6" font-family="Sans-Serif" font-size="13.00" fill="darkgrey">l_to_ds_comper_contrats_services</text>
</g>
<!-- 8cfc8d52b1d141639dc8f7771ab57870 -->
<g id="node35" class="node">
<title>8cfc8d52b1d141639dc8f7771ab57870</title>
<image xlink:href="icons/bigquery.png" width="101px" height="101px" preserveAspectRatio="xMinYMin meet" x="16" y="-700.5"/>
<text text-anchor="middle" x="66.5" y="-585.1" font-family="Sans-Serif" font-size="13.00" fill="#2d3436">reporting_equipements.bout_en_bout_equipements</text>
</g>
<!-- e5e95f18c1364d788ce4b3042a42df64 -->
<g id="node36" class="node">
<title>e5e95f18c1364d788ce4b3042a42df64</title>
<image xlink:href="icons/bigquery.png" width="101px" height="101px" preserveAspectRatio="xMinYMin meet" x="426" y="-700.5"/>
<text text-anchor="middle" x="476.5" y="-585.1" font-family="Sans-Serif" font-size="13.00" fill="#2d3436">comper.l_ama_to_ds_comper_bout_en_bout_equipements</text>
</g>
<!-- 8cfc8d52b1d141639dc8f7771ab57870&#45;&gt;e5e95f18c1364d788ce4b3042a42df64 -->
<g id="edge34" class="edge">
<title>8cfc8d52b1d141639dc8f7771ab57870&#45;&gt;e5e95f18c1364d788ce4b3042a42df64</title>
<path fill="none" stroke="#7b8894" d="M117.19,-650C117.19,-650 415.93,-650 415.93,-650"/>
<polygon fill="#7b8894" stroke="#7b8894" points="415.93,-653.5 425.93,-650 415.93,-646.5 415.93,-653.5"/>
<text text-anchor="middle" x="271.5" y="-653.6" font-family="Sans-Serif" font-size="13.00" fill="darkgrey">l_to_ds_comper_bout_en_bout_equipements</text>
</g>
<!-- f0230aadf34c40998c9c368ac55c27b7 -->
<g id="node37" class="node">
<title>f0230aadf34c40998c9c368ac55c27b7</title>
<image xlink:href="icons/bigquery.png" width="101px" height="101px" preserveAspectRatio="xMinYMin meet" x="16" y="-520.5"/>
<text text-anchor="middle" x="66.5" y="-405.1" font-family="Sans-Serif" font-size="13.00" fill="#2d3436">amadeus.e_ama_options_vertes</text>
</g>
<!-- 6c36bd43fd204a9b8d37737a39df5116 -->
<g id="node38" class="node">
<title>6c36bd43fd204a9b8d37737a39df5116</title>
<image xlink:href="icons/bigquery.png" width="101px" height="101px" preserveAspectRatio="xMinYMin meet" x="426" y="-520.5"/>
<text text-anchor="middle" x="476.5" y="-405.1" font-family="Sans-Serif" font-size="13.00" fill="#2d3436">comper.t_ama_options_vertes</text>
</g>
<!-- f0230aadf34c40998c9c368ac55c27b7&#45;&gt;6c36bd43fd204a9b8d37737a39df5116 -->
<g id="edge35" class="edge">
<title>f0230aadf34c40998c9c368ac55c27b7&#45;&gt;6c36bd43fd204a9b8d37737a39df5116</title>
<path fill="none" stroke="#7b8894" d="M117.19,-470C117.19,-470 415.93,-470 415.93,-470"/>
<polygon fill="#7b8894" stroke="#7b8894" points="415.93,-473.5 425.93,-470 415.93,-466.5 415.93,-473.5"/>
<text text-anchor="middle" x="271.5" y="-473.6" font-family="Sans-Serif" font-size="13.00" fill="darkgrey">t_options_vertes</text>
</g>
<!-- 0af6fa83651a4bcd8e6e213e2e9ad287 -->
<g id="node39" class="node">
<title>0af6fa83651a4bcd8e6e213e2e9ad287</title>
<image xlink:href="icons/bigquery.png" width="101px" height="101px" preserveAspectRatio="xMinYMin meet" x="798" y="-520.5"/>
<text text-anchor="middle" x="848.5" y="-405.1" font-family="Sans-Serif" font-size="13.00" fill="#2d3436">comper.l_ama_to_ds_comper_options_vertes</text>
</g>
<!-- 6c36bd43fd204a9b8d37737a39df5116&#45;&gt;0af6fa83651a4bcd8e6e213e2e9ad287 -->
<g id="edge36" class="edge">
<title>6c36bd43fd204a9b8d37737a39df5116&#45;&gt;0af6fa83651a4bcd8e6e213e2e9ad287</title>
<path fill="none" stroke="#7b8894" d="M527.06,-470C527.06,-470 787.76,-470 787.76,-470"/>
<polygon fill="#7b8894" stroke="#7b8894" points="787.76,-473.5 797.76,-470 787.76,-466.5 787.76,-473.5"/>
<text text-anchor="middle" x="662.5" y="-473.6" font-family="Sans-Serif" font-size="13.00" fill="darkgrey">l_to_ds_comper_options_vertes</text>
</g>
<!-- 3f3723bb6ba84bc28e7bb097da3ad028 -->
<g id="node40" class="node">
<title>3f3723bb6ba84bc28e7bb097da3ad028</title>
<image xlink:href="icons/bigquery.png" width="101px" height="101px" preserveAspectRatio="xMinYMin meet" x="16" y="-340.5"/>
<text text-anchor="middle" x="66.5" y="-225.1" font-family="Sans-Serif" font-size="13.00" fill="#2d3436">amadeus.e_ama_prelevement_mensualisation</text>
</g>
<!-- 20ba6f1866c9431a9f997841de8f8753 -->
<g id="node41" class="node">
<title>20ba6f1866c9431a9f997841de8f8753</title>
<image xlink:href="icons/bigquery.png" width="101px" height="101px" preserveAspectRatio="xMinYMin meet" x="426" y="-340.5"/>
<text text-anchor="middle" x="476.5" y="-225.1" font-family="Sans-Serif" font-size="13.00" fill="#2d3436">comper.l_ama_to_ds_comper_prelevement_mensualisation</text>
</g>
<!-- 3f3723bb6ba84bc28e7bb097da3ad028&#45;&gt;20ba6f1866c9431a9f997841de8f8753 -->
<g id="edge37" class="edge">
<title>3f3723bb6ba84bc28e7bb097da3ad028&#45;&gt;20ba6f1866c9431a9f997841de8f8753</title>
<path fill="none" stroke="#7b8894" d="M117.19,-290C117.19,-290 415.93,-290 415.93,-290"/>
<polygon fill="#7b8894" stroke="#7b8894" points="415.93,-293.5 425.93,-290 415.93,-286.5 415.93,-293.5"/>
<text text-anchor="middle" x="271.5" y="-293.6" font-family="Sans-Serif" font-size="13.00" fill="darkgrey">l_to_ds_comper_prelevement_mensualisation</text>
</g>
<!-- b6fafcab378a4fc8972654dd5425070c -->
<g id="node42" class="node">
<title>b6fafcab378a4fc8972654dd5425070c</title>
<image xlink:href="icons/bigquery.png" width="101px" height="101px" preserveAspectRatio="xMinYMin meet" x="16" y="-160.5"/>
<text text-anchor="middle" x="66.5" y="-45.1" font-family="Sans-Serif" font-size="13.00" fill="#2d3436">amadeus.e_gsheet_activation_energie</text>
</g>
<!-- 571a7ede37c441fbbf225e5bb0e869d8 -->
<g id="node43" class="node">
<title>571a7ede37c441fbbf225e5bb0e869d8</title>
<image xlink:href="icons/bigquery.png" width="101px" height="101px" preserveAspectRatio="xMinYMin meet" x="426" y="-160.5"/>
<text text-anchor="middle" x="476.5" y="-45.1" font-family="Sans-Serif" font-size="13.00" fill="#2d3436">comper.l_ama_to_ds_comper_activation_energie</text>
</g>
<!-- b6fafcab378a4fc8972654dd5425070c&#45;&gt;571a7ede37c441fbbf225e5bb0e869d8 -->
<g id="edge38" class="edge">
<title>b6fafcab378a4fc8972654dd5425070c&#45;&gt;571a7ede37c441fbbf225e5bb0e869d8</title>
<path fill="none" stroke="#7b8894" d="M117.19,-110C117.19,-110 415.93,-110 415.93,-110"/>
<polygon fill="#7b8894" stroke="#7b8894" points="415.93,-113.5 425.93,-110 415.93,-106.5 415.93,-113.5"/>
<text text-anchor="middle" x="271.5" y="-113.6" font-family="Sans-Serif" font-size="13.00" fill="darkgrey">l_to_ds_comper_activation_energie</text>
</g>
</g>
</svg>
