<?xml version="1.0" encoding="UTF-8" standalone="no"?>
<!DOCTYPE svg PUBLIC "-//W3C//DTD SVG 1.1//EN"
 "http://www.w3.org/Graphics/SVG/1.1/DTD/svg11.dtd">
<!-- Generated by graphviz version 2.47.1 (20210417.1919)
 -->
<!-- Title: amadeus Pages: 1 -->
<svg width="1932pt" height="2844pt"
 viewBox="0.00 0.00 1932.00 2844.00" xmlns="http://www.w3.org/2000/svg" xmlns:xlink="http://www.w3.org/1999/xlink">
<g id="graph0" class="graph" transform="scale(1 1) rotate(0) translate(144 2700)">
<title>amadeus</title>
<text text-anchor="middle" x="822" y="-9" font-family="Sans-Serif" font-size="15.00" fill="#2d3436">amadeus</text>
<g id="clust1" class="cluster">
<title>cluster_amadeus</title>
<path fill="#e5f5fd" stroke="#aeb6be" d="M20,-33C20,-33 1624,-33 1624,-33 1630,-33 1636,-39 1636,-45 1636,-45 1636,-2536 1636,-2536 1636,-2542 1630,-2548 1624,-2548 1624,-2548 20,-2548 20,-2548 14,-2548 8,-2542 8,-2536 8,-2536 8,-45 8,-45 8,-39 14,-33 20,-33"/>
<text text-anchor="middle" x="40" y="-2534.4" font-family="Sans-Serif" font-size="12.00" fill="#2d3436">amadeus</text>
</g>
<!-- fb48e84c874041f1a290a9bb6fa366d0 -->
<g id="node1" class="node">
<title>fb48e84c874041f1a290a9bb6fa366d0</title>
<image xlink:href="icons/storage.png" width="101px" height="101px" preserveAspectRatio="xMinYMin meet" x="16" y="-2500.5"/>
<text text-anchor="middle" x="66.5" y="-2385.1" font-family="Sans-Serif" font-size="13.00" fill="#2d3436">amadeus_bi.formulaires/GA_VENT_DIGT_</text>
</g>
<!-- 58ab2858ed804c74848ee766956d883f -->
<g id="node2" class="node">
<title>58ab2858ed804c74848ee766956d883f</title>
<image xlink:href="icons/bigquery.png" width="101px" height="101px" preserveAspectRatio="xMinYMin meet" x="426" y="-2500.5"/>
<text text-anchor="middle" x="476.5" y="-2385.1" font-family="Sans-Serif" font-size="13.00" fill="#2d3436">amadeus.e_ama_formulaires_stor</text>
</g>
<!-- fb48e84c874041f1a290a9bb6fa366d0&#45;&gt;58ab2858ed804c74848ee766956d883f -->
<g id="edge1" class="edge">
<title>fb48e84c874041f1a290a9bb6fa366d0&#45;&gt;58ab2858ed804c74848ee766956d883f</title>
<path fill="none" stroke="#7b8894" d="M117.19,-2450C117.19,-2450 415.93,-2450 415.93,-2450"/>
<polygon fill="#7b8894" stroke="#7b8894" points="415.93,-2453.5 425.93,-2450 415.93,-2446.5 415.93,-2453.5"/>
<text text-anchor="middle" x="271.5" y="-2453.6" font-family="Sans-Serif" font-size="13.00" fill="darkgrey">e_formulaires</text>
</g>
<!-- f5142557c6d746fb9c19afca2fddef29 -->
<g id="node5" class="node">
<title>f5142557c6d746fb9c19afca2fddef29</title>
<image xlink:href="icons/bigquery.png" width="101px" height="101px" preserveAspectRatio="xMinYMin meet" x="798" y="-2320.5"/>
<text text-anchor="middle" x="848.5" y="-2205.1" font-family="Sans-Serif" font-size="13.00" fill="#2d3436">amadeus.t_ama_formulaires_campagnes</text>
</g>
<!-- 58ab2858ed804c74848ee766956d883f&#45;&gt;f5142557c6d746fb9c19afca2fddef29 -->
<g id="edge3" class="edge">
<title>58ab2858ed804c74848ee766956d883f&#45;&gt;f5142557c6d746fb9c19afca2fddef29</title>
<path fill="none" stroke="#7b8894" d="M494,-2381.33C494,-2369.01 494,-2360 494,-2360 494,-2360 849,-2360 849,-2360 849,-2360 849,-2348.67 849,-2348.67"/>
<polygon fill="#7b8894" stroke="#7b8894" points="852.5,-2348.67 849,-2338.67 845.5,-2348.67 852.5,-2348.67"/>
<text text-anchor="middle" x="662.5" y="-2394.6" font-family="Sans-Serif" font-size="13.00" fill="darkgrey">t_formulaires_campagnes</text>
</g>
<!-- 98d76f579b7142208f01237713e4b527 -->
<g id="node11" class="node">
<title>98d76f579b7142208f01237713e4b527</title>
<image xlink:href="icons/bigquery.png" width="101px" height="101px" preserveAspectRatio="xMinYMin meet" x="798" y="-2500.5"/>
<text text-anchor="middle" x="848.5" y="-2385.1" font-family="Sans-Serif" font-size="13.00" fill="#2d3436">amadeus.t_ama_formulaires_verif_flux_ga</text>
</g>
<!-- 58ab2858ed804c74848ee766956d883f&#45;&gt;98d76f579b7142208f01237713e4b527 -->
<g id="edge9" class="edge">
<title>58ab2858ed804c74848ee766956d883f&#45;&gt;98d76f579b7142208f01237713e4b527</title>
<path fill="none" stroke="#7b8894" d="M527.06,-2450C527.06,-2450 787.76,-2450 787.76,-2450"/>
<polygon fill="#7b8894" stroke="#7b8894" points="787.76,-2453.5 797.76,-2450 787.76,-2446.5 787.76,-2453.5"/>
<text text-anchor="middle" x="662.5" y="-2456.6" font-family="Sans-Serif" font-size="13.00" fill="darkgrey">t_formulaires_verif_flux_ga</text>
</g>
<!-- 0b2eb7ac9cf6464e8cdb2e92571e5f26 -->
<g id="node3" class="node">
<title>0b2eb7ac9cf6464e8cdb2e92571e5f26</title>
<image xlink:href="icons/storage.png" width="101px" height="101px" preserveAspectRatio="xMinYMin meet" x="16" y="-1960.5"/>
<text text-anchor="middle" x="66.5" y="-1845.1" font-family="Sans-Serif" font-size="13.00" fill="#2d3436">amadeus_bi.appels/GA_SVI_</text>
</g>
<!-- 226315abec5f4be7a53c9ea636a7ba3b -->
<g id="node4" class="node">
<title>226315abec5f4be7a53c9ea636a7ba3b</title>
<image xlink:href="icons/bigquery.png" width="101px" height="101px" preserveAspectRatio="xMinYMin meet" x="426" y="-1960.5"/>
<text text-anchor="middle" x="476.5" y="-1845.1" font-family="Sans-Serif" font-size="13.00" fill="#2d3436">amadeus.e_ama_appels</text>
</g>
<!-- 0b2eb7ac9cf6464e8cdb2e92571e5f26&#45;&gt;226315abec5f4be7a53c9ea636a7ba3b -->
<g id="edge2" class="edge">
<title>0b2eb7ac9cf6464e8cdb2e92571e5f26&#45;&gt;226315abec5f4be7a53c9ea636a7ba3b</title>
<path fill="none" stroke="#7b8894" d="M117.19,-1910C117.19,-1910 415.93,-1910 415.93,-1910"/>
<polygon fill="#7b8894" stroke="#7b8894" points="415.93,-1913.5 425.93,-1910 415.93,-1906.5 415.93,-1913.5"/>
<text text-anchor="middle" x="271.5" y="-1913.6" font-family="Sans-Serif" font-size="13.00" fill="darkgrey">e_appels</text>
</g>
<!-- 88f8c3acbd3c4282ba6d8d2893a918de -->
<g id="node14" class="node">
<title>88f8c3acbd3c4282ba6d8d2893a918de</title>
<image xlink:href="icons/bigquery.png" width="101px" height="101px" preserveAspectRatio="xMinYMin meet" x="798" y="-1675.5"/>
<text text-anchor="middle" x="848.5" y="-1560.1" font-family="Sans-Serif" font-size="13.00" fill="#2d3436">amadeus.t_ama_appels</text>
</g>
<!-- 226315abec5f4be7a53c9ea636a7ba3b&#45;&gt;88f8c3acbd3c4282ba6d8d2893a918de -->
<g id="edge14" class="edge">
<title>226315abec5f4be7a53c9ea636a7ba3b&#45;&gt;88f8c3acbd3c4282ba6d8d2893a918de</title>
<path fill="none" stroke="#7b8894" d="M527.46,-1910C582.68,-1910 663,-1910 663,-1910 663,-1910 663,-1682.83 663,-1682.83 663,-1682.83 787.81,-1682.83 787.81,-1682.83"/>
<polygon fill="#7b8894" stroke="#7b8894" points="787.81,-1686.33 797.81,-1682.83 787.81,-1679.33 787.81,-1686.33"/>
<text text-anchor="middle" x="662.5" y="-1853.6" font-family="Sans-Serif" font-size="13.00" fill="darkgrey">t_appels</text>
</g>
<!-- 1999dbe41d594d0da689419bd0513d84 -->
<g id="node24" class="node">
<title>1999dbe41d594d0da689419bd0513d84</title>
<image xlink:href="icons/bigquery.png" width="101px" height="101px" preserveAspectRatio="xMinYMin meet" x="798" y="-2140.5"/>
<text text-anchor="middle" x="848.5" y="-2025.1" font-family="Sans-Serif" font-size="13.00" fill="#2d3436">amadeus.t_ama_import_gads</text>
</g>
<!-- 226315abec5f4be7a53c9ea636a7ba3b&#45;&gt;1999dbe41d594d0da689419bd0513d84 -->
<g id="edge25" class="edge">
<title>226315abec5f4be7a53c9ea636a7ba3b&#45;&gt;1999dbe41d594d0da689419bd0513d84</title>
<path fill="none" stroke="#7b8894" d="M477,-1978.54C477,-1994.62 477,-2007.17 477,-2007.17 477,-2007.17 832,-2007.17 832,-2007.17 832,-2007.17 832,-2011.22 832,-2011.22"/>
<polygon fill="#7b8894" stroke="#7b8894" points="828.5,-2011.22 832,-2021.22 835.5,-2011.22 828.5,-2011.22"/>
<text text-anchor="middle" x="662.5" y="-1972.6" font-family="Sans-Serif" font-size="13.00" fill="darkgrey">t_import_gads</text>
</g>
<!-- 1e77683b3c644535a72ada4c1a112c1b -->
<g id="node8" class="node">
<title>1e77683b3c644535a72ada4c1a112c1b</title>
<image xlink:href="icons/bigquery.png" width="101px" height="101px" preserveAspectRatio="xMinYMin meet" x="1208" y="-2320.5"/>
<text text-anchor="middle" x="1258.5" y="-2205.1" font-family="Sans-Serif" font-size="13.00" fill="#2d3436">amadeus.t_ama_contrats_formulaires</text>
</g>
<!-- f5142557c6d746fb9c19afca2fddef29&#45;&gt;1e77683b3c644535a72ada4c1a112c1b -->
<g id="edge6" class="edge">
<title>f5142557c6d746fb9c19afca2fddef29&#45;&gt;1e77683b3c644535a72ada4c1a112c1b</title>
<path fill="none" stroke="#7b8894" d="M899.19,-2292.83C899.19,-2292.83 1197.93,-2292.83 1197.93,-2292.83"/>
<polygon fill="#7b8894" stroke="#7b8894" points="1197.93,-2296.33 1207.93,-2292.83 1197.93,-2289.33 1197.93,-2296.33"/>
<text text-anchor="middle" x="1043" y="-2273.6" font-family="Sans-Serif" font-size="13.00" fill="darkgrey">t_contrats_formulaires</text>
</g>
<!-- 3ee73e16d57446d4a55dbe51e0cdc207 -->
<g id="node10" class="node">
<title>3ee73e16d57446d4a55dbe51e0cdc207</title>
<image xlink:href="icons/bigquery.png" width="101px" height="101px" preserveAspectRatio="xMinYMin meet" x="1208" y="-2500.5"/>
<text text-anchor="middle" x="1258.5" y="-2385.1" font-family="Sans-Serif" font-size="13.00" fill="#2d3436">amadeus.t_ama_leads_formulaires</text>
</g>
<!-- f5142557c6d746fb9c19afca2fddef29&#45;&gt;3ee73e16d57446d4a55dbe51e0cdc207 -->
<g id="edge8" class="edge">
<title>f5142557c6d746fb9c19afca2fddef29&#45;&gt;3ee73e16d57446d4a55dbe51e0cdc207</title>
<path fill="none" stroke="#7b8894" d="M874,-2338.56C874,-2345.04 874,-2349.25 874,-2349.25 874,-2349.25 1259,-2349.25 1259,-2349.25 1259,-2349.25 1259,-2371.4 1259,-2371.4"/>
<polygon fill="#7b8894" stroke="#7b8894" points="1255.5,-2371.4 1259,-2381.4 1262.5,-2371.4 1255.5,-2371.4"/>
<text text-anchor="middle" x="1043" y="-2394.6" font-family="Sans-Serif" font-size="13.00" fill="darkgrey">t_leads_formulaires</text>
</g>
<!-- fb748812ceb549fb812f3ea9add5c37e -->
<g id="node6" class="node">
<title>fb748812ceb549fb812f3ea9add5c37e</title>
<image xlink:href="icons/bigquery.png" width="101px" height="101px" preserveAspectRatio="xMinYMin meet" x="426" y="-2320.5"/>
<text text-anchor="middle" x="476.5" y="-2205.1" font-family="Sans-Serif" font-size="13.00" fill="#2d3436">ga.l_ga_to_ama_ga_formulaires_stor_*</text>
</g>
<!-- fb748812ceb549fb812f3ea9add5c37e&#45;&gt;f5142557c6d746fb9c19afca2fddef29 -->
<g id="edge4" class="edge">
<title>fb748812ceb549fb812f3ea9add5c37e&#45;&gt;f5142557c6d746fb9c19afca2fddef29</title>
<path fill="none" stroke="#7b8894" d="M527.06,-2270C527.06,-2270 787.76,-2270 787.76,-2270"/>
<polygon fill="#7b8894" stroke="#7b8894" points="787.76,-2273.5 797.76,-2270 787.76,-2266.5 787.76,-2273.5"/>
<text text-anchor="middle" x="662.5" y="-2270.6" font-family="Sans-Serif" font-size="13.00" fill="darkgrey">t_formulaires_campagnes</text>
</g>
<!-- fb748812ceb549fb812f3ea9add5c37e&#45;&gt;98d76f579b7142208f01237713e4b527 -->
<g id="edge10" class="edge">
<title>fb748812ceb549fb812f3ea9add5c37e&#45;&gt;98d76f579b7142208f01237713e4b527</title>
<path fill="none" stroke="#7b8894" d="M460,-2338.6C460,-2356.43 460,-2370.75 460,-2370.75 460,-2370.75 824,-2370.75 824,-2370.75 824,-2370.75 824,-2371.82 824,-2371.82"/>
<polygon fill="#7b8894" stroke="#7b8894" points="820.5,-2371.44 824,-2381.44 827.5,-2371.44 820.5,-2371.44"/>
<text text-anchor="middle" x="662.5" y="-2332.6" font-family="Sans-Serif" font-size="13.00" fill="darkgrey">t_formulaires_verif_flux_ga</text>
</g>
<!-- 0ace6e79635944ae9021fc09518eb911 -->
<g id="node7" class="node">
<title>0ace6e79635944ae9021fc09518eb911</title>
<image xlink:href="icons/bigquery.png" width="101px" height="101px" preserveAspectRatio="xMinYMin meet" x="426" y="-2140.5"/>
<text text-anchor="middle" x="476.5" y="-2025.1" font-family="Sans-Serif" font-size="13.00" fill="#2d3436">ga.t_ga_correspondance_hash_campagnes</text>
</g>
<!-- 0ace6e79635944ae9021fc09518eb911&#45;&gt;f5142557c6d746fb9c19afca2fddef29 -->
<g id="edge5" class="edge">
<title>0ace6e79635944ae9021fc09518eb911&#45;&gt;f5142557c6d746fb9c19afca2fddef29</title>
<path fill="none" stroke="#7b8894" d="M477,-2158.67C477,-2170.99 477,-2180 477,-2180 477,-2180 849,-2180 849,-2180 849,-2180 849,-2191.33 849,-2191.33"/>
<polygon fill="#7b8894" stroke="#7b8894" points="845.5,-2191.33 849,-2201.33 852.5,-2191.33 845.5,-2191.33"/>
<text text-anchor="middle" x="662.5" y="-2152.6" font-family="Sans-Serif" font-size="13.00" fill="darkgrey">t_formulaires_campagnes</text>
</g>
<!-- c1f1ef0e7ade42d7b2b9005f523fff7b -->
<g id="node9" class="node">
<title>c1f1ef0e7ade42d7b2b9005f523fff7b</title>
<image xlink:href="icons/bigquery.png" width="101px" height="101px" preserveAspectRatio="xMinYMin meet" x="798" y="-1960.5"/>
<text text-anchor="middle" x="848.5" y="-1845.1" font-family="Sans-Serif" font-size="13.00" fill="#2d3436">comper.e_v_digi_import_cube_valeur</text>
</g>
<!-- c1f1ef0e7ade42d7b2b9005f523fff7b&#45;&gt;1e77683b3c644535a72ada4c1a112c1b -->
<g id="edge7" class="edge">
<title>c1f1ef0e7ade42d7b2b9005f523fff7b&#45;&gt;1e77683b3c644535a72ada4c1a112c1b</title>
<path fill="none" stroke="#7b8894" d="M899.03,-1932.83C959.88,-1932.83 1054,-1932.83 1054,-1932.83 1054,-1932.83 1054,-2247.17 1054,-2247.17 1054,-2247.17 1197.95,-2247.17 1197.95,-2247.17"/>
<polygon fill="#7b8894" stroke="#7b8894" points="1197.95,-2250.67 1207.95,-2247.17 1197.95,-2243.67 1197.95,-2250.67"/>
<text text-anchor="middle" x="1043" y="-2169.6" font-family="Sans-Serif" font-size="13.00" fill="darkgrey">t_contrats_formulaires</text>
</g>
<!-- 162bb103878340289d91fe103794cb05 -->
<g id="node19" class="node">
<title>162bb103878340289d91fe103794cb05</title>
<image xlink:href="icons/bigquery.png" width="101px" height="101px" preserveAspectRatio="xMinYMin meet" x="1208" y="-2140.5"/>
<text text-anchor="middle" x="1258.5" y="-2025.1" font-family="Sans-Serif" font-size="13.00" fill="#2d3436">amadeus.t_ama_contrats_appels</text>
</g>
<!-- c1f1ef0e7ade42d7b2b9005f523fff7b&#45;&gt;162bb103878340289d91fe103794cb05 -->
<g id="edge19" class="edge">
<title>c1f1ef0e7ade42d7b2b9005f523fff7b&#45;&gt;162bb103878340289d91fe103794cb05</title>
<path fill="none" stroke="#7b8894" d="M866,-1978.78C866,-1987.16 866,-1992.83 866,-1992.83 866,-1992.83 1259,-1992.83 1259,-1992.83 1259,-1992.83 1259,-2011.46 1259,-2011.46"/>
<polygon fill="#7b8894" stroke="#7b8894" points="1255.5,-2011.46 1259,-2021.46 1262.5,-2011.46 1255.5,-2011.46"/>
<text text-anchor="middle" x="1043" y="-2065.6" font-family="Sans-Serif" font-size="13.00" fill="darkgrey">t_contrats_appels</text>
</g>
<!-- 71e75c01c79f4a1c9b5cee8e06cbe113 -->
<g id="node12" class="node">
<title>71e75c01c79f4a1c9b5cee8e06cbe113</title>
<image xlink:href="icons/bigquery.png" width="101px" height="101px" preserveAspectRatio="xMinYMin meet" x="426" y="-1420.5"/>
<text text-anchor="middle" x="476.5" y="-1305.1" font-family="Sans-Serif" font-size="13.00" fill="#2d3436">ga.t_ga_sessions</text>
</g>
<!-- e733069dba2a40a789c99fe587d15be7 -->
<g id="node13" class="node">
<title>e733069dba2a40a789c99fe587d15be7</title>
<image xlink:href="icons/bigquery.png" width="101px" height="101px" preserveAspectRatio="xMinYMin meet" x="798" y="-1420.5"/>
<text text-anchor="middle" x="848.5" y="-1305.1" font-family="Sans-Serif" font-size="13.00" fill="#2d3436">amadeus.t_ama_appels_ga</text>
</g>
<!-- 71e75c01c79f4a1c9b5cee8e06cbe113&#45;&gt;e733069dba2a40a789c99fe587d15be7 -->
<g id="edge11" class="edge">
<title>71e75c01c79f4a1c9b5cee8e06cbe113&#45;&gt;e733069dba2a40a789c99fe587d15be7</title>
<path fill="none" stroke="#7b8894" d="M527.06,-1370C527.06,-1370 787.76,-1370 787.76,-1370"/>
<polygon fill="#7b8894" stroke="#7b8894" points="787.76,-1373.5 797.76,-1370 787.76,-1366.5 787.76,-1373.5"/>
<text text-anchor="middle" x="662.5" y="-1373.6" font-family="Sans-Serif" font-size="13.00" fill="darkgrey">t_appels_ga</text>
</g>
<!-- d9253a514aa04edbb6a5beb8caa5918d -->
<g id="node23" class="node">
<title>d9253a514aa04edbb6a5beb8caa5918d</title>
<image xlink:href="icons/bigquery.png" width="101px" height="101px" preserveAspectRatio="xMinYMin meet" x="798" y="-1240.5"/>
<text text-anchor="middle" x="848.5" y="-1125.1" font-family="Sans-Serif" font-size="13.00" fill="#2d3436">eloqua.t_elq_promo_applis_mobiles_tlgt_appli</text>
</g>
<!-- 71e75c01c79f4a1c9b5cee8e06cbe113&#45;&gt;d9253a514aa04edbb6a5beb8caa5918d -->
<g id="edge24" class="edge">
<title>71e75c01c79f4a1c9b5cee8e06cbe113&#45;&gt;d9253a514aa04edbb6a5beb8caa5918d</title>
<path fill="none" stroke="#7b8894" d="M477,-1301.35C477,-1282.67 477,-1267.5 477,-1267.5 477,-1267.5 866,-1267.5 866,-1267.5 866,-1267.5 866,-1266.61 866,-1266.61"/>
<polygon fill="#7b8894" stroke="#7b8894" points="869.5,-1268.61 866,-1258.61 862.5,-1268.61 869.5,-1268.61"/>
<text text-anchor="middle" x="662.5" y="-1283.6" font-family="Sans-Serif" font-size="13.00" fill="darkgrey">t_elq_promo_applis_mobiles_tlgt_appli</text>
</g>
<!-- 9f85715755604ea1af8c1c7b347a4a1f -->
<g id="node15" class="node">
<title>9f85715755604ea1af8c1c7b347a4a1f</title>
<image xlink:href="icons/bigquery.png" width="101px" height="101px" preserveAspectRatio="xMinYMin meet" x="1208" y="-959.5"/>
<text text-anchor="middle" x="1258.5" y="-844.1" font-family="Sans-Serif" font-size="13.00" fill="#2d3436">amadeus.t_ama_appels_leviers</text>
</g>
<!-- e733069dba2a40a789c99fe587d15be7&#45;&gt;9f85715755604ea1af8c1c7b347a4a1f -->
<g id="edge13" class="edge">
<title>e733069dba2a40a789c99fe587d15be7&#45;&gt;9f85715755604ea1af8c1c7b347a4a1f</title>
<path fill="none" stroke="#7b8894" d="M899,-1347.17C919.31,-1347.17 938,-1347.17 938,-1347.17 938,-1347.17 938,-953.5 938,-953.5 938,-953.5 1197.72,-953.5 1197.72,-953.5"/>
<polygon fill="#7b8894" stroke="#7b8894" points="1197.72,-957 1207.72,-953.5 1197.72,-950 1197.72,-957"/>
<text text-anchor="middle" x="1043" y="-979.6" font-family="Sans-Serif" font-size="13.00" fill="darkgrey">t_appels_leviers</text>
</g>
<!-- 372646d07ce94eec9d4b1a4338745065 -->
<g id="node20" class="node">
<title>372646d07ce94eec9d4b1a4338745065</title>
<image xlink:href="icons/bigquery.png" width="101px" height="101px" preserveAspectRatio="xMinYMin meet" x="1527" y="-1395.5"/>
<text text-anchor="middle" x="1577.5" y="-1280.1" font-family="Sans-Serif" font-size="13.00" fill="#2d3436">amadeus.t_ama_contrats_appels_leviers</text>
</g>
<!-- e733069dba2a40a789c99fe587d15be7&#45;&gt;372646d07ce94eec9d4b1a4338745065 -->
<g id="edge21" class="edge">
<title>e733069dba2a40a789c99fe587d15be7&#45;&gt;372646d07ce94eec9d4b1a4338745065</title>
<path fill="none" stroke="#7b8894" d="M832,-1301.3C832,-1293.91 832,-1289 832,-1289 832,-1289 1516.84,-1289 1516.84,-1289"/>
<polygon fill="#7b8894" stroke="#7b8894" points="1516.84,-1292.5 1526.84,-1289 1516.84,-1285.5 1516.84,-1292.5"/>
<text text-anchor="middle" x="1258.5" y="-1067.6" font-family="Sans-Serif" font-size="13.00" fill="darkgrey">t_contrats_appels_leviers</text>
</g>
<!-- 88f8c3acbd3c4282ba6d8d2893a918de&#45;&gt;9f85715755604ea1af8c1c7b347a4a1f -->
<g id="edge12" class="edge">
<title>88f8c3acbd3c4282ba6d8d2893a918de&#45;&gt;9f85715755604ea1af8c1c7b347a4a1f</title>
<path fill="none" stroke="#7b8894" d="M899.29,-1568.9C935.2,-1568.9 977,-1568.9 977,-1568.9 977,-1568.9 977,-965.5 977,-965.5 977,-965.5 1197.85,-965.5 1197.85,-965.5"/>
<polygon fill="#7b8894" stroke="#7b8894" points="1197.85,-969 1207.85,-965.5 1197.85,-962 1197.85,-969"/>
<text text-anchor="middle" x="1043" y="-1224.6" font-family="Sans-Serif" font-size="13.00" fill="darkgrey">t_appels_leviers</text>
</g>
<!-- 88f8c3acbd3c4282ba6d8d2893a918de&#45;&gt;162bb103878340289d91fe103794cb05 -->
<g id="edge18" class="edge">
<title>88f8c3acbd3c4282ba6d8d2893a918de&#45;&gt;162bb103878340289d91fe103794cb05</title>
<path fill="none" stroke="#7b8894" d="M899.16,-1685.5C970.78,-1685.5 1093,-1685.5 1093,-1685.5 1093,-1685.5 1093,-2090 1093,-2090 1093,-2090 1197.95,-2090 1197.95,-2090"/>
<polygon fill="#7b8894" stroke="#7b8894" points="1197.95,-2093.5 1207.95,-2090 1197.95,-2086.5 1197.95,-2093.5"/>
<text text-anchor="middle" x="1043" y="-1945.6" font-family="Sans-Serif" font-size="13.00" fill="darkgrey">t_contrats_appels</text>
</g>
<!-- 73cc1500a01d4be7b5875fde88775488 -->
<g id="node25" class="node">
<title>73cc1500a01d4be7b5875fde88775488</title>
<image xlink:href="icons/bigquery.png" width="101px" height="101px" preserveAspectRatio="xMinYMin meet" x="1208" y="-1420.5"/>
<text text-anchor="middle" x="1258.5" y="-1305.1" font-family="Sans-Serif" font-size="13.00" fill="#2d3436">amadeus.t_ama_valeurs_plus40_datastudio_gads</text>
</g>
<!-- 88f8c3acbd3c4282ba6d8d2893a918de&#45;&gt;73cc1500a01d4be7b5875fde88775488 -->
<g id="edge26" class="edge">
<title>88f8c3acbd3c4282ba6d8d2893a918de&#45;&gt;73cc1500a01d4be7b5875fde88775488</title>
<path fill="none" stroke="#7b8894" d="M899.09,-1593.7C989.63,-1593.7 1170,-1593.7 1170,-1593.7 1170,-1593.7 1170,-1392.83 1170,-1392.83 1170,-1392.83 1197.79,-1392.83 1197.79,-1392.83"/>
<polygon fill="#7b8894" stroke="#7b8894" points="1197.79,-1396.33 1207.79,-1392.83 1197.79,-1389.33 1197.79,-1396.33"/>
<text text-anchor="middle" x="1043" y="-1447.6" font-family="Sans-Serif" font-size="13.00" fill="darkgrey">t_valeurs_plus40_datastudio_gads</text>
</g>
<!-- 29041b99dac24b89a06b4a874d623d7b -->
<g id="node26" class="node">
<title>29041b99dac24b89a06b4a874d623d7b</title>
<image xlink:href="icons/bigquery.png" width="101px" height="101px" preserveAspectRatio="xMinYMin meet" x="1208" y="-1600.5"/>
<text text-anchor="middle" x="1258.5" y="-1485.1" font-family="Sans-Serif" font-size="13.00" fill="#2d3436">amadeus.t_ama_valeurs_datastudio_gads</text>
</g>
<!-- 88f8c3acbd3c4282ba6d8d2893a918de&#45;&gt;29041b99dac24b89a06b4a874d623d7b -->
<g id="edge27" class="edge">
<title>88f8c3acbd3c4282ba6d8d2893a918de&#45;&gt;29041b99dac24b89a06b4a874d623d7b</title>
<path fill="none" stroke="#7b8894" d="M899.19,-1606.1C899.19,-1606.1 1197.93,-1606.1 1197.93,-1606.1"/>
<polygon fill="#7b8894" stroke="#7b8894" points="1197.93,-1609.6 1207.93,-1606.1 1197.93,-1602.6 1197.93,-1609.6"/>
<text text-anchor="middle" x="1043" y="-1583.6" font-family="Sans-Serif" font-size="13.00" fill="darkgrey">t_valeurs_datastudio_gads</text>
</g>
<!-- 415f42352084428baf98ad138bfaad6d -->
<g id="node27" class="node">
<title>415f42352084428baf98ad138bfaad6d</title>
<image xlink:href="icons/bigquery.png" width="101px" height="101px" preserveAspectRatio="xMinYMin meet" x="1208" y="-1780.5"/>
<text text-anchor="middle" x="1258.5" y="-1665.1" font-family="Sans-Serif" font-size="13.00" fill="#2d3436">amadeus.t_ama_valeurs_sousindicateur_gads</text>
</g>
<!-- 88f8c3acbd3c4282ba6d8d2893a918de&#45;&gt;415f42352084428baf98ad138bfaad6d -->
<g id="edge28" class="edge">
<title>88f8c3acbd3c4282ba6d8d2893a918de&#45;&gt;415f42352084428baf98ad138bfaad6d</title>
<path fill="none" stroke="#7b8894" d="M899.19,-1669.5C899.19,-1669.5 1197.93,-1669.5 1197.93,-1669.5"/>
<polygon fill="#7b8894" stroke="#7b8894" points="1197.93,-1673 1207.93,-1669.5 1197.93,-1666 1197.93,-1673"/>
<text text-anchor="middle" x="1043" y="-1674.6" font-family="Sans-Serif" font-size="13.00" fill="darkgrey">t_valeurs_sousindicateur_gads</text>
</g>
<!-- 49b44984af76417b84c10888d8439efe -->
<g id="node28" class="node">
<title>49b44984af76417b84c10888d8439efe</title>
<image xlink:href="icons/bigquery.png" width="101px" height="101px" preserveAspectRatio="xMinYMin meet" x="1208" y="-1960.5"/>
<text text-anchor="middle" x="1258.5" y="-1845.1" font-family="Sans-Serif" font-size="13.00" fill="#2d3436">amadeus.t_ama_anciennes_valeurs_gads</text>
</g>
<!-- 88f8c3acbd3c4282ba6d8d2893a918de&#45;&gt;49b44984af76417b84c10888d8439efe -->
<g id="edge29" class="edge">
<title>88f8c3acbd3c4282ba6d8d2893a918de&#45;&gt;49b44984af76417b84c10888d8439efe</title>
<path fill="none" stroke="#7b8894" d="M899.01,-1677.5C980.26,-1677.5 1131,-1677.5 1131,-1677.5 1131,-1677.5 1131,-1887.17 1131,-1887.17 1131,-1887.17 1197.74,-1887.17 1197.74,-1887.17"/>
<polygon fill="#7b8894" stroke="#7b8894" points="1197.74,-1890.67 1207.74,-1887.17 1197.74,-1883.67 1197.74,-1890.67"/>
<text text-anchor="middle" x="1043" y="-1825.6" font-family="Sans-Serif" font-size="13.00" fill="darkgrey">t_anciennes_valeurs_gads</text>
</g>
<!-- 8a91cc2e6fe4463488c2c9c412d44edf -->
<g id="node29" class="node">
<title>8a91cc2e6fe4463488c2c9c412d44edf</title>
<image xlink:href="icons/bigquery.png" width="101px" height="101px" preserveAspectRatio="xMinYMin meet" x="1208" y="-1240.5"/>
<text text-anchor="middle" x="1258.5" y="-1125.1" font-family="Sans-Serif" font-size="13.00" fill="#2d3436">amadeus.t_ama_anciennes_valeurs_sousindicateur_gads</text>
</g>
<!-- 88f8c3acbd3c4282ba6d8d2893a918de&#45;&gt;8a91cc2e6fe4463488c2c9c412d44edf -->
<g id="edge30" class="edge">
<title>88f8c3acbd3c4282ba6d8d2893a918de&#45;&gt;8a91cc2e6fe4463488c2c9c412d44edf</title>
<path fill="none" stroke="#7b8894" d="M899.36,-1581.3C948.32,-1581.3 1015,-1581.3 1015,-1581.3 1015,-1581.3 1015,-1190 1015,-1190 1015,-1190 1197.75,-1190 1197.75,-1190"/>
<polygon fill="#7b8894" stroke="#7b8894" points="1197.75,-1193.5 1207.75,-1190 1197.75,-1186.5 1197.75,-1193.5"/>
<text text-anchor="middle" x="1043" y="-1352.6" font-family="Sans-Serif" font-size="13.00" fill="darkgrey">t_anciennes_valeurs_sousindicateur_gads</text>
</g>
<!-- e76266ff7bf749ab960b9070dbb7e554 -->
<g id="node18" class="node">
<title>e76266ff7bf749ab960b9070dbb7e554</title>
<image xlink:href="icons/bigquery.png" width="101px" height="101px" preserveAspectRatio="xMinYMin meet" x="1527" y="-959.5"/>
<text text-anchor="middle" x="1577.5" y="-844.1" font-family="Sans-Serif" font-size="13.00" fill="#2d3436">amadeus.t_ama_leads_appels</text>
</g>
<!-- 9f85715755604ea1af8c1c7b347a4a1f&#45;&gt;e76266ff7bf749ab960b9070dbb7e554 -->
<g id="edge17" class="edge">
<title>9f85715755604ea1af8c1c7b347a4a1f&#45;&gt;e76266ff7bf749ab960b9070dbb7e554</title>
<path fill="none" stroke="#7b8894" d="M1309.05,-909C1309.05,-909 1516.93,-909 1516.93,-909"/>
<polygon fill="#7b8894" stroke="#7b8894" points="1516.93,-912.5 1526.93,-909 1516.93,-905.5 1516.93,-912.5"/>
<text text-anchor="middle" x="1428.5" y="-912.6" font-family="Sans-Serif" font-size="13.00" fill="darkgrey">t_leads_appels</text>
</g>
<!-- cf34e884987549c6b58fcdd42513cf9a -->
<g id="node16" class="node">
<title>cf34e884987549c6b58fcdd42513cf9a</title>
<image xlink:href="icons/bigquery.png" width="101px" height="101px" preserveAspectRatio="xMinYMin meet" x="426" y="-1600.5"/>
<text text-anchor="middle" x="476.5" y="-1485.1" font-family="Sans-Serif" font-size="13.00" fill="#2d3436">amadeus.e_ama_appels_2020</text>
</g>
<!-- cf34e884987549c6b58fcdd42513cf9a&#45;&gt;88f8c3acbd3c4282ba6d8d2893a918de -->
<g id="edge15" class="edge">
<title>cf34e884987549c6b58fcdd42513cf9a&#45;&gt;88f8c3acbd3c4282ba6d8d2893a918de</title>
<path fill="none" stroke="#7b8894" d="M527.06,-1587.5C527.06,-1587.5 787.76,-1587.5 787.76,-1587.5"/>
<polygon fill="#7b8894" stroke="#7b8894" points="787.76,-1591 797.76,-1587.5 787.76,-1584 787.76,-1591"/>
<text text-anchor="middle" x="662.5" y="-1582.6" font-family="Sans-Serif" font-size="13.00" fill="darkgrey">t_appels</text>
</g>
<!-- 8f6ac5364929454ea838f8c65fdddf52 -->
<g id="node17" class="node">
<title>8f6ac5364929454ea838f8c65fdddf52</title>
<image xlink:href="icons/bigquery.png" width="101px" height="101px" preserveAspectRatio="xMinYMin meet" x="426" y="-1780.5"/>
<text text-anchor="middle" x="476.5" y="-1665.1" font-family="Sans-Serif" font-size="13.00" fill="#2d3436">amadeus.e_ama_appels_2018_2019</text>
</g>
<!-- 8f6ac5364929454ea838f8c65fdddf52&#45;&gt;88f8c3acbd3c4282ba6d8d2893a918de -->
<g id="edge16" class="edge">
<title>8f6ac5364929454ea838f8c65fdddf52&#45;&gt;88f8c3acbd3c4282ba6d8d2893a918de</title>
<path fill="none" stroke="#7b8894" d="M527.06,-1672.17C527.06,-1672.17 787.76,-1672.17 787.76,-1672.17"/>
<polygon fill="#7b8894" stroke="#7b8894" points="787.76,-1675.67 797.76,-1672.17 787.76,-1668.67 787.76,-1675.67"/>
<text text-anchor="middle" x="662.5" y="-1674.6" font-family="Sans-Serif" font-size="13.00" fill="darkgrey">t_appels</text>
</g>
<!-- 162bb103878340289d91fe103794cb05&#45;&gt;372646d07ce94eec9d4b1a4338745065 -->
<g id="edge20" class="edge">
<title>162bb103878340289d91fe103794cb05&#45;&gt;372646d07ce94eec9d4b1a4338745065</title>
<path fill="none" stroke="#7b8894" d="M1309.13,-2090C1399.22,-2090 1578,-2090 1578,-2090 1578,-2090 1578,-1423.75 1578,-1423.75"/>
<polygon fill="#7b8894" stroke="#7b8894" points="1581.5,-1423.75 1578,-1413.75 1574.5,-1423.75 1581.5,-1423.75"/>
<text text-anchor="middle" x="1428.5" y="-1604.6" font-family="Sans-Serif" font-size="13.00" fill="darkgrey">t_contrats_appels_leviers</text>
</g>
<!-- 6279a727a33441a2b8b99660abc5d8b2 -->
<g id="node21" class="node">
<title>6279a727a33441a2b8b99660abc5d8b2</title>
<image xlink:href="icons/storage.png" width="101px" height="101px" preserveAspectRatio="xMinYMin meet" x="16" y="-1240.5"/>
<text text-anchor="middle" x="66.5" y="-1125.1" font-family="Sans-Serif" font-size="13.00" fill="#2d3436">amadeus_bi.eloqua/AMA_GOOG_RETR_MARK_ELQC_315_*</text>
</g>
<!-- fb4e77478cbe4593b3d8556d45d883ca -->
<g id="node22" class="node">
<title>fb4e77478cbe4593b3d8556d45d883ca</title>
<image xlink:href="icons/bigquery.png" width="101px" height="101px" preserveAspectRatio="xMinYMin meet" x="426" y="-1240.5"/>
<text text-anchor="middle" x="476.5" y="-1125.1" font-family="Sans-Serif" font-size="13.00" fill="#2d3436">eloqua.e_elq_promo_applis_mobiles_clics_emails</text>
</g>
<!-- 6279a727a33441a2b8b99660abc5d8b2&#45;&gt;fb4e77478cbe4593b3d8556d45d883ca -->
<g id="edge22" class="edge">
<title>6279a727a33441a2b8b99660abc5d8b2&#45;&gt;fb4e77478cbe4593b3d8556d45d883ca</title>
<path fill="none" stroke="#7b8894" d="M117.19,-1190C117.19,-1190 415.93,-1190 415.93,-1190"/>
<polygon fill="#7b8894" stroke="#7b8894" points="415.93,-1193.5 425.93,-1190 415.93,-1186.5 415.93,-1193.5"/>
<text text-anchor="middle" x="271.5" y="-1193.6" font-family="Sans-Serif" font-size="13.00" fill="darkgrey">e_elq_promo_applis_mobiles_clics_emails</text>
</g>
<!-- fb4e77478cbe4593b3d8556d45d883ca&#45;&gt;d9253a514aa04edbb6a5beb8caa5918d -->
<g id="edge23" class="edge">
<title>fb4e77478cbe4593b3d8556d45d883ca&#45;&gt;d9253a514aa04edbb6a5beb8caa5918d</title>
<path fill="none" stroke="#7b8894" d="M527.06,-1190C527.06,-1190 787.76,-1190 787.76,-1190"/>
<polygon fill="#7b8894" stroke="#7b8894" points="787.76,-1193.5 797.76,-1190 787.76,-1186.5 787.76,-1193.5"/>
<text text-anchor="middle" x="662.5" y="-1193.6" font-family="Sans-Serif" font-size="13.00" fill="darkgrey">t_elq_promo_applis_mobiles_tlgt_appli</text>
</g>
<!-- e25ebed0007542c497f21925ffc64e0d -->
<g id="node30" class="node">
<title>e25ebed0007542c497f21925ffc64e0d</title>
<image xlink:href="icons/bigquery.png" width="101px" height="101px" preserveAspectRatio="xMinYMin meet" x="16" y="-1060.5"/>
<text text-anchor="middle" x="66.5" y="-945.1" font-family="Sans-Serif" font-size="13.00" fill="#2d3436">comper.t_v_digi_cube_valeur</text>
</g>
<!-- db91b7fa6eb149b091ea00424e66a6aa -->
<g id="node31" class="node">
<title>db91b7fa6eb149b091ea00424e66a6aa</title>
<image xlink:href="icons/bigquery.png" width="101px" height="101px" preserveAspectRatio="xMinYMin meet" x="426" y="-1060.5"/>
<text text-anchor="middle" x="476.5" y="-945.1" font-family="Sans-Serif" font-size="13.00" fill="#2d3436">amadeus.t_ama_parrainage</text>
</g>
<!-- e25ebed0007542c497f21925ffc64e0d&#45;&gt;db91b7fa6eb149b091ea00424e66a6aa -->
<g id="edge31" class="edge">
<title>e25ebed0007542c497f21925ffc64e0d&#45;&gt;db91b7fa6eb149b091ea00424e66a6aa</title>
<path fill="none" stroke="#7b8894" d="M117.19,-1010C117.19,-1010 415.93,-1010 415.93,-1010"/>
<polygon fill="#7b8894" stroke="#7b8894" points="415.93,-1013.5 425.93,-1010 415.93,-1006.5 415.93,-1013.5"/>
<text text-anchor="middle" x="271.5" y="-1013.6" font-family="Sans-Serif" font-size="13.00" fill="darkgrey">t_parrainage</text>
</g>
<!-- adb88a16c2074e11b0f3adf8df345139 -->
<g id="node32" class="node">
<title>adb88a16c2074e11b0f3adf8df345139</title>
<image xlink:href="icons/bigquery.png" width="101px" height="101px" preserveAspectRatio="xMinYMin meet" x="798" y="-1060.5"/>
<text text-anchor="middle" x="848.5" y="-945.1" font-family="Sans-Serif" font-size="13.00" fill="#2d3436">comper.l_ama_to_ds_comper_t_ama_parrainage</text>
</g>
<!-- db91b7fa6eb149b091ea00424e66a6aa&#45;&gt;adb88a16c2074e11b0f3adf8df345139 -->
<g id="edge32" class="edge">
<title>db91b7fa6eb149b091ea00424e66a6aa&#45;&gt;adb88a16c2074e11b0f3adf8df345139</title>
<path fill="none" stroke="#7b8894" d="M527.06,-1010C527.06,-1010 787.76,-1010 787.76,-1010"/>
<polygon fill="#7b8894" stroke="#7b8894" points="787.76,-1013.5 797.76,-1010 787.76,-1006.5 787.76,-1013.5"/>
<text text-anchor="middle" x="662.5" y="-1013.6" font-family="Sans-Serif" font-size="13.00" fill="darkgrey">l_to_ds_comper_t_ama_parrainage</text>
</g>
<!-- eb01134cae604acb9b507a94c2751a97 -->
<g id="node33" class="node">
<title>eb01134cae604acb9b507a94c2751a97</title>
<image xlink:href="icons/bigquery.png" width="101px" height="101px" preserveAspectRatio="xMinYMin meet" x="16" y="-880.5"/>
<text text-anchor="middle" x="66.5" y="-765.1" font-family="Sans-Serif" font-size="13.00" fill="#2d3436">amadeus.e_gsheet_contrats_services</text>
</g>
<!-- 8402e952503643958be9fa3b76aa0763 -->
<g id="node34" class="node">
<title>8402e952503643958be9fa3b76aa0763</title>
<image xlink:href="icons/bigquery.png" width="101px" height="101px" preserveAspectRatio="xMinYMin meet" x="426" y="-880.5"/>
<text text-anchor="middle" x="476.5" y="-765.1" font-family="Sans-Serif" font-size="13.00" fill="#2d3436">comper.l_ama_to_ds_comper_contrats_services</text>
</g>
<!-- eb01134cae604acb9b507a94c2751a97&#45;&gt;8402e952503643958be9fa3b76aa0763 -->
<g id="edge33" class="edge">
<title>eb01134cae604acb9b507a94c2751a97&#45;&gt;8402e952503643958be9fa3b76aa0763</title>
<path fill="none" stroke="#7b8894" d="M117.19,-830C117.19,-830 415.93,-830 415.93,-830"/>
<polygon fill="#7b8894" stroke="#7b8894" points="415.93,-833.5 425.93,-830 415.93,-826.5 415.93,-833.5"/>
<text text-anchor="middle" x="271.5" y="-833.6" font-family="Sans-Serif" font-size="13.00" fill="darkgrey">l_to_ds_comper_contrats_services</text>
</g>
<!-- f128011ae46f4614ba437c489b1b936b -->
<g id="node35" class="node">
<title>f128011ae46f4614ba437c489b1b936b</title>
<image xlink:href="icons/bigquery.png" width="101px" height="101px" preserveAspectRatio="xMinYMin meet" x="16" y="-700.5"/>
<text text-anchor="middle" x="66.5" y="-585.1" font-family="Sans-Serif" font-size="13.00" fill="#2d3436">reporting_equipements.bout_en_bout_equipements</text>
</g>
<!-- 7d49d55032294976a1f28eb57a364914 -->
<g id="node36" class="node">
<title>7d49d55032294976a1f28eb57a364914</title>
<image xlink:href="icons/bigquery.png" width="101px" height="101px" preserveAspectRatio="xMinYMin meet" x="426" y="-700.5"/>
<text text-anchor="middle" x="476.5" y="-585.1" font-family="Sans-Serif" font-size="13.00" fill="#2d3436">comper.l_ama_to_ds_comper_bout_en_bout_equipements</text>
</g>
<!-- f128011ae46f4614ba437c489b1b936b&#45;&gt;7d49d55032294976a1f28eb57a364914 -->
<g id="edge34" class="edge">
<title>f128011ae46f4614ba437c489b1b936b&#45;&gt;7d49d55032294976a1f28eb57a364914</title>
<path fill="none" stroke="#7b8894" d="M117.19,-650C117.19,-650 415.93,-650 415.93,-650"/>
<polygon fill="#7b8894" stroke="#7b8894" points="415.93,-653.5 425.93,-650 415.93,-646.5 415.93,-653.5"/>
<text text-anchor="middle" x="271.5" y="-653.6" font-family="Sans-Serif" font-size="13.00" fill="darkgrey">l_to_ds_comper_bout_en_bout_equipements</text>
</g>
<!-- f14b0b5eaa8048cc8441c0a724137c3a -->
<g id="node37" class="node">
<title>f14b0b5eaa8048cc8441c0a724137c3a</title>
<image xlink:href="icons/bigquery.png" width="101px" height="101px" preserveAspectRatio="xMinYMin meet" x="16" y="-520.5"/>
<text text-anchor="middle" x="66.5" y="-405.1" font-family="Sans-Serif" font-size="13.00" fill="#2d3436">amadeus.e_ama_options_vertes</text>
</g>
<!-- 3933fdeedf13405ebd88f3f6fe715e6f -->
<g id="node38" class="node">
<title>3933fdeedf13405ebd88f3f6fe715e6f</title>
<image xlink:href="icons/bigquery.png" width="101px" height="101px" preserveAspectRatio="xMinYMin meet" x="426" y="-520.5"/>
<text text-anchor="middle" x="476.5" y="-405.1" font-family="Sans-Serif" font-size="13.00" fill="#2d3436">comper.t_ama_options_vertes</text>
</g>
<!-- f14b0b5eaa8048cc8441c0a724137c3a&#45;&gt;3933fdeedf13405ebd88f3f6fe715e6f -->
<g id="edge35" class="edge">
<title>f14b0b5eaa8048cc8441c0a724137c3a&#45;&gt;3933fdeedf13405ebd88f3f6fe715e6f</title>
<path fill="none" stroke="#7b8894" d="M117.19,-470C117.19,-470 415.93,-470 415.93,-470"/>
<polygon fill="#7b8894" stroke="#7b8894" points="415.93,-473.5 425.93,-470 415.93,-466.5 415.93,-473.5"/>
<text text-anchor="middle" x="271.5" y="-473.6" font-family="Sans-Serif" font-size="13.00" fill="darkgrey">t_options_vertes</text>
</g>
<!-- e21f41ad224b4f6e9eafd085e3e43e19 -->
<g id="node39" class="node">
<title>e21f41ad224b4f6e9eafd085e3e43e19</title>
<image xlink:href="icons/bigquery.png" width="101px" height="101px" preserveAspectRatio="xMinYMin meet" x="798" y="-520.5"/>
<text text-anchor="middle" x="848.5" y="-405.1" font-family="Sans-Serif" font-size="13.00" fill="#2d3436">comper.l_ama_to_ds_comper_options_vertes</text>
</g>
<!-- 3933fdeedf13405ebd88f3f6fe715e6f&#45;&gt;e21f41ad224b4f6e9eafd085e3e43e19 -->
<g id="edge36" class="edge">
<title>3933fdeedf13405ebd88f3f6fe715e6f&#45;&gt;e21f41ad224b4f6e9eafd085e3e43e19</title>
<path fill="none" stroke="#7b8894" d="M527.06,-470C527.06,-470 787.76,-470 787.76,-470"/>
<polygon fill="#7b8894" stroke="#7b8894" points="787.76,-473.5 797.76,-470 787.76,-466.5 787.76,-473.5"/>
<text text-anchor="middle" x="662.5" y="-473.6" font-family="Sans-Serif" font-size="13.00" fill="darkgrey">l_to_ds_comper_options_vertes</text>
</g>
<!-- 241186e6784244f3b8b4b818a8a70069 -->
<g id="node40" class="node">
<title>241186e6784244f3b8b4b818a8a70069</title>
<image xlink:href="icons/bigquery.png" width="101px" height="101px" preserveAspectRatio="xMinYMin meet" x="16" y="-340.5"/>
<text text-anchor="middle" x="66.5" y="-225.1" font-family="Sans-Serif" font-size="13.00" fill="#2d3436">amadeus.e_ama_prelevement_mensualisation</text>
</g>
<!-- 58c5269f68a84bb4894f23174b6d78cc -->
<g id="node41" class="node">
<title>58c5269f68a84bb4894f23174b6d78cc</title>
<image xlink:href="icons/bigquery.png" width="101px" height="101px" preserveAspectRatio="xMinYMin meet" x="426" y="-340.5"/>
<text text-anchor="middle" x="476.5" y="-225.1" font-family="Sans-Serif" font-size="13.00" fill="#2d3436">comper.l_ama_to_ds_comper_prelevement_mensualisation</text>
</g>
<!-- 241186e6784244f3b8b4b818a8a70069&#45;&gt;58c5269f68a84bb4894f23174b6d78cc -->
<g id="edge37" class="edge">
<title>241186e6784244f3b8b4b818a8a70069&#45;&gt;58c5269f68a84bb4894f23174b6d78cc</title>
<path fill="none" stroke="#7b8894" d="M117.19,-290C117.19,-290 415.93,-290 415.93,-290"/>
<polygon fill="#7b8894" stroke="#7b8894" points="415.93,-293.5 425.93,-290 415.93,-286.5 415.93,-293.5"/>
<text text-anchor="middle" x="271.5" y="-293.6" font-family="Sans-Serif" font-size="13.00" fill="darkgrey">l_to_ds_comper_prelevement_mensualisation</text>
</g>
<!-- 3ad04610f41b4b0d8a1ae6d6c41f3646 -->
<g id="node42" class="node">
<title>3ad04610f41b4b0d8a1ae6d6c41f3646</title>
<image xlink:href="icons/bigquery.png" width="101px" height="101px" preserveAspectRatio="xMinYMin meet" x="16" y="-160.5"/>
<text text-anchor="middle" x="66.5" y="-45.1" font-family="Sans-Serif" font-size="13.00" fill="#2d3436">amadeus.e_gsheet_activation_energie</text>
</g>
<!-- 4260d70f359d4dc1a782b3a142b29ebf -->
<g id="node43" class="node">
<title>4260d70f359d4dc1a782b3a142b29ebf</title>
<image xlink:href="icons/bigquery.png" width="101px" height="101px" preserveAspectRatio="xMinYMin meet" x="426" y="-160.5"/>
<text text-anchor="middle" x="476.5" y="-45.1" font-family="Sans-Serif" font-size="13.00" fill="#2d3436">comper.l_ama_to_ds_comper_activation_energie</text>
</g>
<!-- 3ad04610f41b4b0d8a1ae6d6c41f3646&#45;&gt;4260d70f359d4dc1a782b3a142b29ebf -->
<g id="edge38" class="edge">
<title>3ad04610f41b4b0d8a1ae6d6c41f3646&#45;&gt;4260d70f359d4dc1a782b3a142b29ebf</title>
<path fill="none" stroke="#7b8894" d="M117.19,-110C117.19,-110 415.93,-110 415.93,-110"/>
<polygon fill="#7b8894" stroke="#7b8894" points="415.93,-113.5 425.93,-110 415.93,-106.5 415.93,-113.5"/>
<text text-anchor="middle" x="271.5" y="-113.6" font-family="Sans-Serif" font-size="13.00" fill="darkgrey">l_to_ds_comper_activation_energie</text>
</g>
</g>
</svg>
