<?xml version="1.0" encoding="UTF-8" standalone="no"?>
<!DOCTYPE svg PUBLIC "-//W3C//DTD SVG 1.1//EN"
 "http://www.w3.org/Graphics/SVG/1.1/DTD/svg11.dtd">
<!-- Generated by graphviz version 2.47.1 (20210417.1919)
 -->
<!-- Title: amadeus Pages: 1 -->
<svg width="1932pt" height="3204pt"
 viewBox="0.00 0.00 1932.00 3204.00" xmlns="http://www.w3.org/2000/svg" xmlns:xlink="http://www.w3.org/1999/xlink">
<g id="graph0" class="graph" transform="scale(1 1) rotate(0) translate(144 3060)">
<title>amadeus</title>
<text text-anchor="middle" x="822" y="-9" font-family="Sans-Serif" font-size="15.00" fill="#2d3436">amadeus</text>
<g id="clust1" class="cluster">
<title>cluster_amadeus</title>
<path fill="#e5f5fd" stroke="#aeb6be" d="M20,-33C20,-33 1624,-33 1624,-33 1630,-33 1636,-39 1636,-45 1636,-45 1636,-2896 1636,-2896 1636,-2902 1630,-2908 1624,-2908 1624,-2908 20,-2908 20,-2908 14,-2908 8,-2902 8,-2896 8,-2896 8,-45 8,-45 8,-39 14,-33 20,-33"/>
<text text-anchor="middle" x="40" y="-2894.4" font-family="Sans-Serif" font-size="12.00" fill="#2d3436">amadeus</text>
</g>
<!-- 18d20f7613814f86a466cb470de65341 -->
<g id="node1" class="node">
<title>18d20f7613814f86a466cb470de65341</title>
<image xlink:href="icons/storage.png" width="101px" height="101px" preserveAspectRatio="xMinYMin meet" x="16" y="-2680.5"/>
<text text-anchor="middle" x="66.5" y="-2565.1" font-family="Sans-Serif" font-size="13.00" fill="#2d3436">amadeus_bi.formulaires/GA_VENT_DIGT_*</text>
</g>
<!-- f2e2eebe14bb4ea4b3075f0d4d94535d -->
<g id="node2" class="node">
<title>f2e2eebe14bb4ea4b3075f0d4d94535d</title>
<image xlink:href="icons/bigquery.png" width="101px" height="101px" preserveAspectRatio="xMinYMin meet" x="426" y="-2680.5"/>
<text text-anchor="middle" x="476.5" y="-2565.1" font-family="Sans-Serif" font-size="13.00" fill="#2d3436">amadeus.e_ama_formulaires_stor</text>
</g>
<!-- 18d20f7613814f86a466cb470de65341&#45;&gt;f2e2eebe14bb4ea4b3075f0d4d94535d -->
<g id="edge1" class="edge">
<title>18d20f7613814f86a466cb470de65341&#45;&gt;f2e2eebe14bb4ea4b3075f0d4d94535d</title>
<path fill="none" stroke="#7b8894" d="M117.19,-2630C117.19,-2630 415.93,-2630 415.93,-2630"/>
<polygon fill="#7b8894" stroke="#7b8894" points="415.93,-2633.5 425.93,-2630 415.93,-2626.5 415.93,-2633.5"/>
<text text-anchor="middle" x="271.5" y="-2633.6" font-family="Sans-Serif" font-size="13.00" fill="darkgrey">e_formulaires</text>
</g>
<!-- 322d7f16e7954a6b96f9fa35b47c0224 -->
<g id="node5" class="node">
<title>322d7f16e7954a6b96f9fa35b47c0224</title>
<image xlink:href="icons/bigquery.png" width="101px" height="101px" preserveAspectRatio="xMinYMin meet" x="798" y="-2674.5"/>
<text text-anchor="middle" x="848.5" y="-2559.1" font-family="Sans-Serif" font-size="13.00" fill="#2d3436">amadeus.t_ama_formulaires_campagnes</text>
</g>
<!-- f2e2eebe14bb4ea4b3075f0d4d94535d&#45;&gt;322d7f16e7954a6b96f9fa35b47c0224 -->
<g id="edge3" class="edge">
<title>f2e2eebe14bb4ea4b3075f0d4d94535d&#45;&gt;322d7f16e7954a6b96f9fa35b47c0224</title>
<path fill="none" stroke="#7b8894" d="M527.06,-2659.75C527.06,-2659.75 787.76,-2659.75 787.76,-2659.75"/>
<polygon fill="#7b8894" stroke="#7b8894" points="787.76,-2663.25 797.76,-2659.75 787.76,-2656.25 787.76,-2663.25"/>
<text text-anchor="middle" x="662.5" y="-2627.6" font-family="Sans-Serif" font-size="13.00" fill="darkgrey">t_formulaires_campagnes</text>
</g>
<!-- 22f964aa0bbd4de4b5553b867cb82154 -->
<g id="node13" class="node">
<title>22f964aa0bbd4de4b5553b867cb82154</title>
<image xlink:href="icons/bigquery.png" width="101px" height="101px" preserveAspectRatio="xMinYMin meet" x="798" y="-2857.5"/>
<text text-anchor="middle" x="848.5" y="-2742.1" font-family="Sans-Serif" font-size="13.00" fill="#2d3436">amadeus.t_ama_formulaires_verif_flux_ga</text>
</g>
<!-- f2e2eebe14bb4ea4b3075f0d4d94535d&#45;&gt;22f964aa0bbd4de4b5553b867cb82154 -->
<g id="edge11" class="edge">
<title>f2e2eebe14bb4ea4b3075f0d4d94535d&#45;&gt;22f964aa0bbd4de4b5553b867cb82154</title>
<path fill="none" stroke="#7b8894" d="M460,-2698.68C460,-2715.36 460,-2728.5 460,-2728.5 460,-2728.5 874,-2728.5 874,-2728.5 874,-2728.5 874,-2729.49 874,-2729.49"/>
<polygon fill="#7b8894" stroke="#7b8894" points="870.5,-2728.44 874,-2738.44 877.5,-2728.44 870.5,-2728.44"/>
<text text-anchor="middle" x="662.5" y="-2689.6" font-family="Sans-Serif" font-size="13.00" fill="darkgrey">t_formulaires_verif_flux_ga</text>
</g>
<!-- e264ccc876d64258aadb90c29ad0d082 -->
<g id="node3" class="node">
<title>e264ccc876d64258aadb90c29ad0d082</title>
<image xlink:href="icons/storage.png" width="101px" height="101px" preserveAspectRatio="xMinYMin meet" x="16" y="-1960.5"/>
<text text-anchor="middle" x="66.5" y="-1845.1" font-family="Sans-Serif" font-size="13.00" fill="#2d3436">amadeus_bi.appels/GA_SVI_*</text>
</g>
<!-- 1b2613116fd8448c900d80846766adc2 -->
<g id="node4" class="node">
<title>1b2613116fd8448c900d80846766adc2</title>
<image xlink:href="icons/bigquery.png" width="101px" height="101px" preserveAspectRatio="xMinYMin meet" x="426" y="-1960.5"/>
<text text-anchor="middle" x="476.5" y="-1845.1" font-family="Sans-Serif" font-size="13.00" fill="#2d3436">amadeus.e_ama_appels</text>
</g>
<!-- e264ccc876d64258aadb90c29ad0d082&#45;&gt;1b2613116fd8448c900d80846766adc2 -->
<g id="edge2" class="edge">
<title>e264ccc876d64258aadb90c29ad0d082&#45;&gt;1b2613116fd8448c900d80846766adc2</title>
<path fill="none" stroke="#7b8894" d="M117.19,-1910C117.19,-1910 415.93,-1910 415.93,-1910"/>
<polygon fill="#7b8894" stroke="#7b8894" points="415.93,-1913.5 425.93,-1910 415.93,-1906.5 415.93,-1913.5"/>
<text text-anchor="middle" x="271.5" y="-1913.6" font-family="Sans-Serif" font-size="13.00" fill="darkgrey">e_appels</text>
</g>
<!-- d029c7b14450429d8c0db078ac2100d8 -->
<g id="node16" class="node">
<title>d029c7b14450429d8c0db078ac2100d8</title>
<image xlink:href="icons/bigquery.png" width="101px" height="101px" preserveAspectRatio="xMinYMin meet" x="798" y="-1780.5"/>
<text text-anchor="middle" x="848.5" y="-1665.1" font-family="Sans-Serif" font-size="13.00" fill="#2d3436">amadeus.t_ama_appels</text>
</g>
<!-- 1b2613116fd8448c900d80846766adc2&#45;&gt;d029c7b14450429d8c0db078ac2100d8 -->
<g id="edge16" class="edge">
<title>1b2613116fd8448c900d80846766adc2&#45;&gt;d029c7b14450429d8c0db078ac2100d8</title>
<path fill="none" stroke="#7b8894" d="M527.04,-1944.25C622.31,-1944.25 819,-1944.25 819,-1944.25 819,-1944.25 819,-1808.67 819,-1808.67"/>
<polygon fill="#7b8894" stroke="#7b8894" points="822.5,-1808.67 819,-1798.67 815.5,-1808.67 822.5,-1808.67"/>
<text text-anchor="middle" x="662.5" y="-1854.6" font-family="Sans-Serif" font-size="13.00" fill="darkgrey">t_appels</text>
</g>
<!-- 57603d8d584f43a2a6114395d2ecfbf5 -->
<g id="node26" class="node">
<title>57603d8d584f43a2a6114395d2ecfbf5</title>
<image xlink:href="icons/bigquery.png" width="101px" height="101px" preserveAspectRatio="xMinYMin meet" x="798" y="-2494.5"/>
<text text-anchor="middle" x="848.5" y="-2379.1" font-family="Sans-Serif" font-size="13.00" fill="#2d3436">amadeus.t_ama_import_gads</text>
</g>
<!-- 1b2613116fd8448c900d80846766adc2&#45;&gt;57603d8d584f43a2a6114395d2ecfbf5 -->
<g id="edge27" class="edge">
<title>1b2613116fd8448c900d80846766adc2&#45;&gt;57603d8d584f43a2a6114395d2ecfbf5</title>
<path fill="none" stroke="#7b8894" d="M527.09,-1875.75C601.31,-1875.75 731,-1875.75 731,-1875.75 731,-1875.75 731,-2447 731,-2447 731,-2447 787.99,-2447 787.99,-2447"/>
<polygon fill="#7b8894" stroke="#7b8894" points="787.99,-2450.5 797.99,-2447 787.99,-2443.5 787.99,-2450.5"/>
<text text-anchor="middle" x="662.5" y="-2001.6" font-family="Sans-Serif" font-size="13.00" fill="darkgrey">t_import_gads</text>
</g>
<!-- 9aba6905aaae4a93b7b2780549cafe01 -->
<g id="node10" class="node">
<title>9aba6905aaae4a93b7b2780549cafe01</title>
<image xlink:href="icons/bigquery.png" width="101px" height="101px" preserveAspectRatio="xMinYMin meet" x="1208" y="-2500.5"/>
<text text-anchor="middle" x="1258.5" y="-2385.1" font-family="Sans-Serif" font-size="13.00" fill="#2d3436">amadeus.t_ama_contrats_formulaires</text>
</g>
<!-- 322d7f16e7954a6b96f9fa35b47c0224&#45;&gt;9aba6905aaae4a93b7b2780549cafe01 -->
<g id="edge8" class="edge">
<title>322d7f16e7954a6b96f9fa35b47c0224&#45;&gt;9aba6905aaae4a93b7b2780549cafe01</title>
<path fill="none" stroke="#7b8894" d="M866,-2555.31C866,-2541.35 866,-2530.83 866,-2530.83 866,-2530.83 1259,-2530.83 1259,-2530.83 1259,-2530.83 1259,-2528.56 1259,-2528.56"/>
<polygon fill="#7b8894" stroke="#7b8894" points="1262.5,-2528.56 1259,-2518.56 1255.5,-2528.56 1262.5,-2528.56"/>
<text text-anchor="middle" x="1043" y="-2498.6" font-family="Sans-Serif" font-size="13.00" fill="darkgrey">t_contrats_formulaires</text>
</g>
<!-- 30b91073c7b7483ebfd25f0990177f5d -->
<g id="node12" class="node">
<title>30b91073c7b7483ebfd25f0990177f5d</title>
<image xlink:href="icons/bigquery.png" width="101px" height="101px" preserveAspectRatio="xMinYMin meet" x="1208" y="-2680.5"/>
<text text-anchor="middle" x="1258.5" y="-2565.1" font-family="Sans-Serif" font-size="13.00" fill="#2d3436">amadeus.t_ama_leads_formulaires</text>
</g>
<!-- 322d7f16e7954a6b96f9fa35b47c0224&#45;&gt;30b91073c7b7483ebfd25f0990177f5d -->
<g id="edge10" class="edge">
<title>322d7f16e7954a6b96f9fa35b47c0224&#45;&gt;30b91073c7b7483ebfd25f0990177f5d</title>
<path fill="none" stroke="#7b8894" d="M899.19,-2627C899.19,-2627 1197.93,-2627 1197.93,-2627"/>
<polygon fill="#7b8894" stroke="#7b8894" points="1197.93,-2630.5 1207.93,-2627 1197.93,-2623.5 1197.93,-2630.5"/>
<text text-anchor="middle" x="1043" y="-2630.6" font-family="Sans-Serif" font-size="13.00" fill="darkgrey">t_leads_formulaires</text>
</g>
<!-- f247c4fd965d4b63882c1760841ed8e8 -->
<g id="node48" class="node">
<title>f247c4fd965d4b63882c1760841ed8e8</title>
<image xlink:href="icons/bigquery.png" width="101px" height="101px" preserveAspectRatio="xMinYMin meet" x="1208" y="-2860.5"/>
<text text-anchor="middle" x="1258.5" y="-2745.1" font-family="Sans-Serif" font-size="13.00" fill="#2d3436">amadeus.t_ama_formulaires_date_lead</text>
</g>
<!-- 322d7f16e7954a6b96f9fa35b47c0224&#45;&gt;f247c4fd965d4b63882c1760841ed8e8 -->
<g id="edge44" class="edge">
<title>322d7f16e7954a6b96f9fa35b47c0224&#45;&gt;f247c4fd965d4b63882c1760841ed8e8</title>
<path fill="none" stroke="#7b8894" d="M849,-2692.61C849,-2702 849,-2708.5 849,-2708.5 849,-2708.5 1259,-2708.5 1259,-2708.5 1259,-2708.5 1259,-2731.45 1259,-2731.45"/>
<polygon fill="#7b8894" stroke="#7b8894" points="1255.5,-2731.45 1259,-2741.45 1262.5,-2731.45 1255.5,-2731.45"/>
<text text-anchor="middle" x="1043" y="-2754.6" font-family="Sans-Serif" font-size="13.00" fill="darkgrey">t_formulaires_date_lead</text>
</g>
<!-- 304620ca40c54460a7ff33bc67d2a747 -->
<g id="node6" class="node">
<title>304620ca40c54460a7ff33bc67d2a747</title>
<image xlink:href="icons/bigquery.png" width="101px" height="101px" preserveAspectRatio="xMinYMin meet" x="426" y="-2860.5"/>
<text text-anchor="middle" x="476.5" y="-2745.1" font-family="Sans-Serif" font-size="13.00" fill="#2d3436">ga.l_ga_to_ama_ga_formulaires_stor_*</text>
</g>
<!-- 304620ca40c54460a7ff33bc67d2a747&#45;&gt;322d7f16e7954a6b96f9fa35b47c0224 -->
<g id="edge4" class="edge">
<title>304620ca40c54460a7ff33bc67d2a747&#45;&gt;322d7f16e7954a6b96f9fa35b47c0224</title>
<path fill="none" stroke="#7b8894" d="M494,-2741.12C494,-2728.12 494,-2718.5 494,-2718.5 494,-2718.5 824,-2718.5 824,-2718.5 824,-2718.5 824,-2702.68 824,-2702.68"/>
<polygon fill="#7b8894" stroke="#7b8894" points="827.5,-2702.68 824,-2692.68 820.5,-2702.68 827.5,-2702.68"/>
<text text-anchor="middle" x="662.5" y="-2751.6" font-family="Sans-Serif" font-size="13.00" fill="darkgrey">t_formulaires_campagnes</text>
</g>
<!-- 304620ca40c54460a7ff33bc67d2a747&#45;&gt;22f964aa0bbd4de4b5553b867cb82154 -->
<g id="edge12" class="edge">
<title>304620ca40c54460a7ff33bc67d2a747&#45;&gt;22f964aa0bbd4de4b5553b867cb82154</title>
<path fill="none" stroke="#7b8894" d="M527.06,-2808.5C527.06,-2808.5 787.76,-2808.5 787.76,-2808.5"/>
<polygon fill="#7b8894" stroke="#7b8894" points="787.76,-2812 797.76,-2808.5 787.76,-2805 787.76,-2812"/>
<text text-anchor="middle" x="662.5" y="-2813.6" font-family="Sans-Serif" font-size="13.00" fill="darkgrey">t_formulaires_verif_flux_ga</text>
</g>
<!-- 00375d5deba34c57af87180eb6966de2 -->
<g id="node7" class="node">
<title>00375d5deba34c57af87180eb6966de2</title>
<image xlink:href="icons/bigquery.png" width="101px" height="101px" preserveAspectRatio="xMinYMin meet" x="426" y="-2140.5"/>
<text text-anchor="middle" x="476.5" y="-2025.1" font-family="Sans-Serif" font-size="13.00" fill="#2d3436">ga.t_ga_correspondance_hash_campagnes</text>
</g>
<!-- 00375d5deba34c57af87180eb6966de2&#45;&gt;322d7f16e7954a6b96f9fa35b47c0224 -->
<g id="edge5" class="edge">
<title>00375d5deba34c57af87180eb6966de2&#45;&gt;322d7f16e7954a6b96f9fa35b47c0224</title>
<path fill="none" stroke="#7b8894" d="M527.46,-2067.17C582.68,-2067.17 663,-2067.17 663,-2067.17 663,-2067.17 663,-2594.25 663,-2594.25 663,-2594.25 787.81,-2594.25 787.81,-2594.25"/>
<polygon fill="#7b8894" stroke="#7b8894" points="787.81,-2597.75 797.81,-2594.25 787.81,-2590.75 787.81,-2597.75"/>
<text text-anchor="middle" x="662.5" y="-2265.6" font-family="Sans-Serif" font-size="13.00" fill="darkgrey">t_formulaires_campagnes</text>
</g>
<!-- 86eac159c6464c23a4e108e0034038f4 -->
<g id="node8" class="node">
<title>86eac159c6464c23a4e108e0034038f4</title>
<image xlink:href="icons/bigquery.png" width="101px" height="101px" preserveAspectRatio="xMinYMin meet" x="426" y="-2500.5"/>
<text text-anchor="middle" x="476.5" y="-2385.1" font-family="Sans-Serif" font-size="13.00" fill="#2d3436">kwanko.e_gsheet_correspondance_affiliation</text>
</g>
<!-- 86eac159c6464c23a4e108e0034038f4&#45;&gt;322d7f16e7954a6b96f9fa35b47c0224 -->
<g id="edge6" class="edge">
<title>86eac159c6464c23a4e108e0034038f4&#45;&gt;322d7f16e7954a6b96f9fa35b47c0224</title>
<path fill="none" stroke="#7b8894" d="M477,-2518.69C477,-2532.65 477,-2543.17 477,-2543.17 477,-2543.17 832,-2543.17 832,-2543.17 832,-2543.17 832,-2545.44 832,-2545.44"/>
<polygon fill="#7b8894" stroke="#7b8894" points="828.5,-2545.44 832,-2555.44 835.5,-2545.44 828.5,-2545.44"/>
<text text-anchor="middle" x="662.5" y="-2540.6" font-family="Sans-Serif" font-size="13.00" fill="darkgrey">t_formulaires_campagnes</text>
</g>
<!-- e25a7b2857a04e959f808887dd63c8f8 -->
<g id="node9" class="node">
<title>e25a7b2857a04e959f808887dd63c8f8</title>
<image xlink:href="icons/bigquery.png" width="101px" height="101px" preserveAspectRatio="xMinYMin meet" x="426" y="-2320.5"/>
<text text-anchor="middle" x="476.5" y="-2205.1" font-family="Sans-Serif" font-size="13.00" fill="#2d3436">ga.t_ga_sessions_historic_*</text>
</g>
<!-- e25a7b2857a04e959f808887dd63c8f8&#45;&gt;322d7f16e7954a6b96f9fa35b47c0224 -->
<g id="edge7" class="edge">
<title>e25a7b2857a04e959f808887dd63c8f8&#45;&gt;322d7f16e7954a6b96f9fa35b47c0224</title>
<path fill="none" stroke="#7b8894" d="M527.1,-2267C559.31,-2267 595,-2267 595,-2267 595,-2267 595,-2627 595,-2627 595,-2627 787.81,-2627 787.81,-2627"/>
<polygon fill="#7b8894" stroke="#7b8894" points="787.81,-2630.5 797.81,-2627 787.81,-2623.5 787.81,-2630.5"/>
<text text-anchor="middle" x="662.5" y="-2428.6" font-family="Sans-Serif" font-size="13.00" fill="darkgrey">t_formulaires_campagnes</text>
</g>
<!-- 227a96d39d0549ed9a6ab866af2fb03f -->
<g id="node11" class="node">
<title>227a96d39d0549ed9a6ab866af2fb03f</title>
<image xlink:href="icons/bigquery.png" width="101px" height="101px" preserveAspectRatio="xMinYMin meet" x="798" y="-2314.5"/>
<text text-anchor="middle" x="848.5" y="-2199.1" font-family="Sans-Serif" font-size="13.00" fill="#2d3436">comper.e_v_digi_import_cube_valeur</text>
</g>
<!-- 227a96d39d0549ed9a6ab866af2fb03f&#45;&gt;9aba6905aaae4a93b7b2780549cafe01 -->
<g id="edge9" class="edge">
<title>227a96d39d0549ed9a6ab866af2fb03f&#45;&gt;9aba6905aaae4a93b7b2780549cafe01</title>
<path fill="none" stroke="#7b8894" d="M849,-2332.57C849,-2346.5 849,-2357 849,-2357 849,-2357 1259,-2357 1259,-2357 1259,-2357 1259,-2371.43 1259,-2371.43"/>
<polygon fill="#7b8894" stroke="#7b8894" points="1255.5,-2371.43 1259,-2381.43 1262.5,-2371.43 1255.5,-2371.43"/>
<text text-anchor="middle" x="1043" y="-2407.6" font-family="Sans-Serif" font-size="13.00" fill="darkgrey">t_contrats_formulaires</text>
</g>
<!-- 4aa7adbad50a46e89d776e9dbcaf5dd2 -->
<g id="node21" class="node">
<title>4aa7adbad50a46e89d776e9dbcaf5dd2</title>
<image xlink:href="icons/bigquery.png" width="101px" height="101px" preserveAspectRatio="xMinYMin meet" x="1208" y="-2320.5"/>
<text text-anchor="middle" x="1258.5" y="-2205.1" font-family="Sans-Serif" font-size="13.00" fill="#2d3436">amadeus.t_ama_contrats_appels</text>
</g>
<!-- 227a96d39d0549ed9a6ab866af2fb03f&#45;&gt;4aa7adbad50a46e89d776e9dbcaf5dd2 -->
<g id="edge21" class="edge">
<title>227a96d39d0549ed9a6ab866af2fb03f&#45;&gt;4aa7adbad50a46e89d776e9dbcaf5dd2</title>
<path fill="none" stroke="#7b8894" d="M899.19,-2267C899.19,-2267 1197.93,-2267 1197.93,-2267"/>
<polygon fill="#7b8894" stroke="#7b8894" points="1197.93,-2270.5 1207.93,-2267 1197.93,-2263.5 1197.93,-2270.5"/>
<text text-anchor="middle" x="1043" y="-2270.6" font-family="Sans-Serif" font-size="13.00" fill="darkgrey">t_contrats_appels</text>
</g>
<!-- 1e5de841ea3340fb9059388dc5cd267e -->
<g id="node14" class="node">
<title>1e5de841ea3340fb9059388dc5cd267e</title>
<image xlink:href="icons/bigquery.png" width="101px" height="101px" preserveAspectRatio="xMinYMin meet" x="426" y="-1420.5"/>
<text text-anchor="middle" x="476.5" y="-1305.1" font-family="Sans-Serif" font-size="13.00" fill="#2d3436">ga.t_ga_sessions</text>
</g>
<!-- e26a90ab8ea140098282755d54a6db24 -->
<g id="node15" class="node">
<title>e26a90ab8ea140098282755d54a6db24</title>
<image xlink:href="icons/bigquery.png" width="101px" height="101px" preserveAspectRatio="xMinYMin meet" x="798" y="-1420.5"/>
<text text-anchor="middle" x="848.5" y="-1305.1" font-family="Sans-Serif" font-size="13.00" fill="#2d3436">amadeus.t_ama_appels_ga</text>
</g>
<!-- 1e5de841ea3340fb9059388dc5cd267e&#45;&gt;e26a90ab8ea140098282755d54a6db24 -->
<g id="edge13" class="edge">
<title>1e5de841ea3340fb9059388dc5cd267e&#45;&gt;e26a90ab8ea140098282755d54a6db24</title>
<path fill="none" stroke="#7b8894" d="M527.06,-1370C527.06,-1370 787.76,-1370 787.76,-1370"/>
<polygon fill="#7b8894" stroke="#7b8894" points="787.76,-1373.5 797.76,-1370 787.76,-1366.5 787.76,-1373.5"/>
<text text-anchor="middle" x="662.5" y="-1373.6" font-family="Sans-Serif" font-size="13.00" fill="darkgrey">t_appels_ga</text>
</g>
<!-- bd8973a3f57a492e9e26d1d0757e79ae -->
<g id="node25" class="node">
<title>bd8973a3f57a492e9e26d1d0757e79ae</title>
<image xlink:href="icons/bigquery.png" width="101px" height="101px" preserveAspectRatio="xMinYMin meet" x="798" y="-1240.5"/>
<text text-anchor="middle" x="848.5" y="-1125.1" font-family="Sans-Serif" font-size="13.00" fill="#2d3436">eloqua.t_elq_promo_applis_mobiles_tlgt_appli</text>
</g>
<!-- 1e5de841ea3340fb9059388dc5cd267e&#45;&gt;bd8973a3f57a492e9e26d1d0757e79ae -->
<g id="edge26" class="edge">
<title>1e5de841ea3340fb9059388dc5cd267e&#45;&gt;bd8973a3f57a492e9e26d1d0757e79ae</title>
<path fill="none" stroke="#7b8894" d="M477,-1301.46C477,-1285.38 477,-1272.83 477,-1272.83 477,-1272.83 832,-1272.83 832,-1272.83 832,-1272.83 832,-1268.78 832,-1268.78"/>
<polygon fill="#7b8894" stroke="#7b8894" points="835.5,-1268.78 832,-1258.78 828.5,-1268.78 835.5,-1268.78"/>
<text text-anchor="middle" x="662.5" y="-1283.6" font-family="Sans-Serif" font-size="13.00" fill="darkgrey">t_elq_promo_applis_mobiles_tlgt_appli</text>
</g>
<!-- f59644a67ddb4fc78098a400618c4d1e -->
<g id="node17" class="node">
<title>f59644a67ddb4fc78098a400618c4d1e</title>
<image xlink:href="icons/bigquery.png" width="101px" height="101px" preserveAspectRatio="xMinYMin meet" x="1208" y="-1060.5"/>
<text text-anchor="middle" x="1258.5" y="-945.1" font-family="Sans-Serif" font-size="13.00" fill="#2d3436">amadeus.t_ama_appels_leviers</text>
</g>
<!-- e26a90ab8ea140098282755d54a6db24&#45;&gt;f59644a67ddb4fc78098a400618c4d1e -->
<g id="edge15" class="edge">
<title>e26a90ab8ea140098282755d54a6db24&#45;&gt;f59644a67ddb4fc78098a400618c4d1e</title>
<path fill="none" stroke="#7b8894" d="M899.29,-1370C935.2,-1370 977,-1370 977,-1370 977,-1370 977,-987.17 977,-987.17 977,-987.17 1197.85,-987.17 1197.85,-987.17"/>
<polygon fill="#7b8894" stroke="#7b8894" points="1197.85,-990.67 1207.85,-987.17 1197.85,-983.67 1197.85,-990.67"/>
<text text-anchor="middle" x="1043" y="-1079.6" font-family="Sans-Serif" font-size="13.00" fill="darkgrey">t_appels_leviers</text>
</g>
<!-- 1693bae596bc407d9d56462884ad2ec8 -->
<g id="node22" class="node">
<title>1693bae596bc407d9d56462884ad2ec8</title>
<image xlink:href="icons/bigquery.png" width="101px" height="101px" preserveAspectRatio="xMinYMin meet" x="1527" y="-1870.5"/>
<text text-anchor="middle" x="1577.5" y="-1755.1" font-family="Sans-Serif" font-size="13.00" fill="#2d3436">amadeus.t_ama_contrats_appels_leviers</text>
</g>
<!-- e26a90ab8ea140098282755d54a6db24&#45;&gt;1693bae596bc407d9d56462884ad2ec8 -->
<g id="edge23" class="edge">
<title>e26a90ab8ea140098282755d54a6db24&#45;&gt;1693bae596bc407d9d56462884ad2ec8</title>
<path fill="none" stroke="#7b8894" d="M859,-1438.54C859,-1454.62 859,-1467.17 859,-1467.17 859,-1467.17 1578,-1467.17 1578,-1467.17 1578,-1467.17 1578,-1741.13 1578,-1741.13"/>
<polygon fill="#7b8894" stroke="#7b8894" points="1574.5,-1741.13 1578,-1751.13 1581.5,-1741.13 1574.5,-1741.13"/>
<text text-anchor="middle" x="1258.5" y="-887.6" font-family="Sans-Serif" font-size="13.00" fill="darkgrey">t_contrats_appels_leviers</text>
</g>
<!-- 6b453c64804c4d44a1dc859ee7cb5a95 -->
<g id="node46" class="node">
<title>6b453c64804c4d44a1dc859ee7cb5a95</title>
<image xlink:href="icons/bigquery.png" width="101px" height="101px" preserveAspectRatio="xMinYMin meet" x="1208" y="-1240.5"/>
<text text-anchor="middle" x="1258.5" y="-1125.1" font-family="Sans-Serif" font-size="13.00" fill="#2d3436">amadeus.t_ama_appels_leviers_date_lead</text>
</g>
<!-- e26a90ab8ea140098282755d54a6db24&#45;&gt;6b453c64804c4d44a1dc859ee7cb5a95 -->
<g id="edge42" class="edge">
<title>e26a90ab8ea140098282755d54a6db24&#45;&gt;6b453c64804c4d44a1dc859ee7cb5a95</title>
<path fill="none" stroke="#7b8894" d="M866,-1301.22C866,-1292.84 866,-1287.17 866,-1287.17 866,-1287.17 1259,-1287.17 1259,-1287.17 1259,-1287.17 1259,-1268.54 1259,-1268.54"/>
<polygon fill="#7b8894" stroke="#7b8894" points="1262.5,-1268.54 1259,-1258.54 1255.5,-1268.54 1262.5,-1268.54"/>
<text text-anchor="middle" x="1043" y="-1200.6" font-family="Sans-Serif" font-size="13.00" fill="darkgrey">t_appels_leviers_date_lead</text>
</g>
<!-- d029c7b14450429d8c0db078ac2100d8&#45;&gt;f59644a67ddb4fc78098a400618c4d1e -->
<g id="edge14" class="edge">
<title>d029c7b14450429d8c0db078ac2100d8&#45;&gt;f59644a67ddb4fc78098a400618c4d1e</title>
<path fill="none" stroke="#7b8894" d="M899.03,-1695.75C959.88,-1695.75 1054,-1695.75 1054,-1695.75 1054,-1695.75 1054,-1032.83 1054,-1032.83 1054,-1032.83 1197.95,-1032.83 1197.95,-1032.83"/>
<polygon fill="#7b8894" stroke="#7b8894" points="1197.95,-1036.33 1207.95,-1032.83 1197.95,-1029.33 1197.95,-1036.33"/>
<text text-anchor="middle" x="1043" y="-1318.6" font-family="Sans-Serif" font-size="13.00" fill="darkgrey">t_appels_leviers</text>
</g>
<!-- d029c7b14450429d8c0db078ac2100d8&#45;&gt;4aa7adbad50a46e89d776e9dbcaf5dd2 -->
<g id="edge20" class="edge">
<title>d029c7b14450429d8c0db078ac2100d8&#45;&gt;4aa7adbad50a46e89d776e9dbcaf5dd2</title>
<path fill="none" stroke="#7b8894" d="M839,-1798.86C839,-1924.25 839,-2177 839,-2177 839,-2177 1259,-2177 1259,-2177 1259,-2177 1259,-2191.43 1259,-2191.43"/>
<polygon fill="#7b8894" stroke="#7b8894" points="1255.5,-2191.43 1259,-2201.43 1262.5,-2191.43 1255.5,-2191.43"/>
<text text-anchor="middle" x="1043" y="-2137.6" font-family="Sans-Serif" font-size="13.00" fill="darkgrey">t_contrats_appels</text>
</g>
<!-- 82e39300f3364151a50f8c8ec78dcd19 -->
<g id="node27" class="node">
<title>82e39300f3364151a50f8c8ec78dcd19</title>
<image xlink:href="icons/bigquery.png" width="101px" height="101px" preserveAspectRatio="xMinYMin meet" x="1208" y="-1420.5"/>
<text text-anchor="middle" x="1258.5" y="-1305.1" font-family="Sans-Serif" font-size="13.00" fill="#2d3436">amadeus.t_ama_valeurs_plus40_datastudio_gads</text>
</g>
<!-- d029c7b14450429d8c0db078ac2100d8&#45;&gt;82e39300f3364151a50f8c8ec78dcd19 -->
<g id="edge28" class="edge">
<title>d029c7b14450429d8c0db078ac2100d8&#45;&gt;82e39300f3364151a50f8c8ec78dcd19</title>
<path fill="none" stroke="#7b8894" d="M839,-1661.49C839,-1579.41 839,-1452.83 839,-1452.83 839,-1452.83 1259,-1452.83 1259,-1452.83 1259,-1452.83 1259,-1448.78 1259,-1448.78"/>
<polygon fill="#7b8894" stroke="#7b8894" points="1262.5,-1448.78 1259,-1438.78 1255.5,-1448.78 1262.5,-1448.78"/>
<text text-anchor="middle" x="1043" y="-1484.6" font-family="Sans-Serif" font-size="13.00" fill="darkgrey">t_valeurs_plus40_datastudio_gads</text>
</g>
<!-- 8612cb3455604fdd9ae7b5c9bd50e372 -->
<g id="node28" class="node">
<title>8612cb3455604fdd9ae7b5c9bd50e372</title>
<image xlink:href="icons/bigquery.png" width="101px" height="101px" preserveAspectRatio="xMinYMin meet" x="1208" y="-1600.5"/>
<text text-anchor="middle" x="1258.5" y="-1485.1" font-family="Sans-Serif" font-size="13.00" fill="#2d3436">amadeus.t_ama_valeurs_datastudio_gads</text>
</g>
<!-- d029c7b14450429d8c0db078ac2100d8&#45;&gt;8612cb3455604fdd9ae7b5c9bd50e372 -->
<g id="edge29" class="edge">
<title>d029c7b14450429d8c0db078ac2100d8&#45;&gt;8612cb3455604fdd9ae7b5c9bd50e372</title>
<path fill="none" stroke="#7b8894" d="M879,-1661.33C879,-1602.49 879,-1527.17 879,-1527.17 879,-1527.17 1197.71,-1527.17 1197.71,-1527.17"/>
<polygon fill="#7b8894" stroke="#7b8894" points="1197.71,-1530.67 1207.71,-1527.17 1197.71,-1523.67 1197.71,-1530.67"/>
<text text-anchor="middle" x="1043" y="-1612.6" font-family="Sans-Serif" font-size="13.00" fill="darkgrey">t_valeurs_datastudio_gads</text>
</g>
<!-- 14b9a60314a541c88cd04a47544ffa9e -->
<g id="node29" class="node">
<title>14b9a60314a541c88cd04a47544ffa9e</title>
<image xlink:href="icons/bigquery.png" width="101px" height="101px" preserveAspectRatio="xMinYMin meet" x="1208" y="-1780.5"/>
<text text-anchor="middle" x="1258.5" y="-1665.1" font-family="Sans-Serif" font-size="13.00" fill="#2d3436">amadeus.t_ama_valeurs_sousindicateur_gads</text>
</g>
<!-- d029c7b14450429d8c0db078ac2100d8&#45;&gt;14b9a60314a541c88cd04a47544ffa9e -->
<g id="edge30" class="edge">
<title>d029c7b14450429d8c0db078ac2100d8&#45;&gt;14b9a60314a541c88cd04a47544ffa9e</title>
<path fill="none" stroke="#7b8894" d="M899.19,-1764.25C899.19,-1764.25 1197.93,-1764.25 1197.93,-1764.25"/>
<polygon fill="#7b8894" stroke="#7b8894" points="1197.93,-1767.75 1207.93,-1764.25 1197.93,-1760.75 1197.93,-1767.75"/>
<text text-anchor="middle" x="1043" y="-1733.6" font-family="Sans-Serif" font-size="13.00" fill="darkgrey">t_valeurs_sousindicateur_gads</text>
</g>
<!-- 89fdd21a9ecd4e10bf2bf88905714593 -->
<g id="node30" class="node">
<title>89fdd21a9ecd4e10bf2bf88905714593</title>
<image xlink:href="icons/bigquery.png" width="101px" height="101px" preserveAspectRatio="xMinYMin meet" x="1208" y="-1960.5"/>
<text text-anchor="middle" x="1258.5" y="-1845.1" font-family="Sans-Serif" font-size="13.00" fill="#2d3436">amadeus.t_ama_anciennes_valeurs_gads</text>
</g>
<!-- d029c7b14450429d8c0db078ac2100d8&#45;&gt;89fdd21a9ecd4e10bf2bf88905714593 -->
<g id="edge31" class="edge">
<title>d029c7b14450429d8c0db078ac2100d8&#45;&gt;89fdd21a9ecd4e10bf2bf88905714593</title>
<path fill="none" stroke="#7b8894" d="M879,-1798.56C879,-1849.43 879,-1910 879,-1910 879,-1910 1197.71,-1910 1197.71,-1910"/>
<polygon fill="#7b8894" stroke="#7b8894" points="1197.71,-1913.5 1207.71,-1910 1197.71,-1906.5 1197.71,-1913.5"/>
<text text-anchor="middle" x="1043" y="-1854.6" font-family="Sans-Serif" font-size="13.00" fill="darkgrey">t_anciennes_valeurs_gads</text>
</g>
<!-- d04e41bc836149d5ab08b2b649580677 -->
<g id="node31" class="node">
<title>d04e41bc836149d5ab08b2b649580677</title>
<image xlink:href="icons/bigquery.png" width="101px" height="101px" preserveAspectRatio="xMinYMin meet" x="1208" y="-2140.5"/>
<text text-anchor="middle" x="1258.5" y="-2025.1" font-family="Sans-Serif" font-size="13.00" fill="#2d3436">amadeus.t_ama_anciennes_valeurs_sousindicateur_gads</text>
</g>
<!-- d029c7b14450429d8c0db078ac2100d8&#45;&gt;d04e41bc836149d5ab08b2b649580677 -->
<g id="edge32" class="edge">
<title>d029c7b14450429d8c0db078ac2100d8&#45;&gt;d04e41bc836149d5ab08b2b649580677</title>
<path fill="none" stroke="#7b8894" d="M859,-1798.89C859,-1909.11 859,-2112.83 859,-2112.83 859,-2112.83 1197.9,-2112.83 1197.9,-2112.83"/>
<polygon fill="#7b8894" stroke="#7b8894" points="1197.9,-2116.33 1207.9,-2112.83 1197.9,-2109.33 1197.9,-2116.33"/>
<text text-anchor="middle" x="1043" y="-2005.6" font-family="Sans-Serif" font-size="13.00" fill="darkgrey">t_anciennes_valeurs_sousindicateur_gads</text>
</g>
<!-- d029c7b14450429d8c0db078ac2100d8&#45;&gt;6b453c64804c4d44a1dc859ee7cb5a95 -->
<g id="edge41" class="edge">
<title>d029c7b14450429d8c0db078ac2100d8&#45;&gt;6b453c64804c4d44a1dc859ee7cb5a95</title>
<path fill="none" stroke="#7b8894" d="M899.01,-1730C980.26,-1730 1131,-1730 1131,-1730 1131,-1730 1131,-1190 1131,-1190 1131,-1190 1197.74,-1190 1197.74,-1190"/>
<polygon fill="#7b8894" stroke="#7b8894" points="1197.74,-1193.5 1207.74,-1190 1197.74,-1186.5 1197.74,-1193.5"/>
<text text-anchor="middle" x="1043" y="-1408.6" font-family="Sans-Serif" font-size="13.00" fill="darkgrey">t_appels_leviers_date_lead</text>
</g>
<!-- d790a59bc5df47788df425369fff33ef -->
<g id="node20" class="node">
<title>d790a59bc5df47788df425369fff33ef</title>
<image xlink:href="icons/bigquery.png" width="101px" height="101px" preserveAspectRatio="xMinYMin meet" x="1527" y="-1060.5"/>
<text text-anchor="middle" x="1577.5" y="-945.1" font-family="Sans-Serif" font-size="13.00" fill="#2d3436">amadeus.t_ama_leads_appels</text>
</g>
<!-- f59644a67ddb4fc78098a400618c4d1e&#45;&gt;d790a59bc5df47788df425369fff33ef -->
<g id="edge19" class="edge">
<title>f59644a67ddb4fc78098a400618c4d1e&#45;&gt;d790a59bc5df47788df425369fff33ef</title>
<path fill="none" stroke="#7b8894" d="M1309.05,-1010C1309.05,-1010 1516.93,-1010 1516.93,-1010"/>
<polygon fill="#7b8894" stroke="#7b8894" points="1516.93,-1013.5 1526.93,-1010 1516.93,-1006.5 1516.93,-1013.5"/>
<text text-anchor="middle" x="1428.5" y="-1013.6" font-family="Sans-Serif" font-size="13.00" fill="darkgrey">t_leads_appels</text>
</g>
<!-- 82861e836009461eac0206ac3a814f35 -->
<g id="node18" class="node">
<title>82861e836009461eac0206ac3a814f35</title>
<image xlink:href="icons/bigquery.png" width="101px" height="101px" preserveAspectRatio="xMinYMin meet" x="426" y="-1780.5"/>
<text text-anchor="middle" x="476.5" y="-1665.1" font-family="Sans-Serif" font-size="13.00" fill="#2d3436">amadeus.e_ama_appels_2020</text>
</g>
<!-- 82861e836009461eac0206ac3a814f35&#45;&gt;d029c7b14450429d8c0db078ac2100d8 -->
<g id="edge17" class="edge">
<title>82861e836009461eac0206ac3a814f35&#45;&gt;d029c7b14450429d8c0db078ac2100d8</title>
<path fill="none" stroke="#7b8894" d="M527.06,-1730C527.06,-1730 787.76,-1730 787.76,-1730"/>
<polygon fill="#7b8894" stroke="#7b8894" points="787.76,-1733.5 797.76,-1730 787.76,-1726.5 787.76,-1733.5"/>
<text text-anchor="middle" x="662.5" y="-1733.6" font-family="Sans-Serif" font-size="13.00" fill="darkgrey">t_appels</text>
</g>
<!-- f2e7c4ba7a304f1b82832e0a5a4cd6e0 -->
<g id="node19" class="node">
<title>f2e7c4ba7a304f1b82832e0a5a4cd6e0</title>
<image xlink:href="icons/bigquery.png" width="101px" height="101px" preserveAspectRatio="xMinYMin meet" x="426" y="-1600.5"/>
<text text-anchor="middle" x="476.5" y="-1485.1" font-family="Sans-Serif" font-size="13.00" fill="#2d3436">amadeus.e_ama_appels_2018_2019</text>
</g>
<!-- f2e7c4ba7a304f1b82832e0a5a4cd6e0&#45;&gt;d029c7b14450429d8c0db078ac2100d8 -->
<g id="edge18" class="edge">
<title>f2e7c4ba7a304f1b82832e0a5a4cd6e0&#45;&gt;d029c7b14450429d8c0db078ac2100d8</title>
<path fill="none" stroke="#7b8894" d="M527.04,-1572.83C622.31,-1572.83 819,-1572.83 819,-1572.83 819,-1572.83 819,-1651.06 819,-1651.06"/>
<polygon fill="#7b8894" stroke="#7b8894" points="815.5,-1651.06 819,-1661.06 822.5,-1651.06 815.5,-1651.06"/>
<text text-anchor="middle" x="662.5" y="-1612.6" font-family="Sans-Serif" font-size="13.00" fill="darkgrey">t_appels</text>
</g>
<!-- 4aa7adbad50a46e89d776e9dbcaf5dd2&#45;&gt;1693bae596bc407d9d56462884ad2ec8 -->
<g id="edge22" class="edge">
<title>4aa7adbad50a46e89d776e9dbcaf5dd2&#45;&gt;1693bae596bc407d9d56462884ad2ec8</title>
<path fill="none" stroke="#7b8894" d="M1309.13,-2270C1399.22,-2270 1578,-2270 1578,-2270 1578,-2270 1578,-1898.84 1578,-1898.84"/>
<polygon fill="#7b8894" stroke="#7b8894" points="1581.5,-1898.84 1578,-1888.84 1574.5,-1898.84 1581.5,-1898.84"/>
<text text-anchor="middle" x="1428.5" y="-2048.6" font-family="Sans-Serif" font-size="13.00" fill="darkgrey">t_contrats_appels_leviers</text>
</g>
<!-- 90ad2196b8a1403a94aefc3445b9a77b -->
<g id="node23" class="node">
<title>90ad2196b8a1403a94aefc3445b9a77b</title>
<image xlink:href="icons/storage.png" width="101px" height="101px" preserveAspectRatio="xMinYMin meet" x="16" y="-1240.5"/>
<text text-anchor="middle" x="66.5" y="-1125.1" font-family="Sans-Serif" font-size="13.00" fill="#2d3436">amadeus_bi.eloqua/AMA_GOOG_RETR_MARK_ELQC_315_*</text>
</g>
<!-- 5e8b00563b504bfda445ad2b03657efa -->
<g id="node24" class="node">
<title>5e8b00563b504bfda445ad2b03657efa</title>
<image xlink:href="icons/bigquery.png" width="101px" height="101px" preserveAspectRatio="xMinYMin meet" x="426" y="-1240.5"/>
<text text-anchor="middle" x="476.5" y="-1125.1" font-family="Sans-Serif" font-size="13.00" fill="#2d3436">eloqua.e_elq_promo_applis_mobiles_clics_emails</text>
</g>
<!-- 90ad2196b8a1403a94aefc3445b9a77b&#45;&gt;5e8b00563b504bfda445ad2b03657efa -->
<g id="edge24" class="edge">
<title>90ad2196b8a1403a94aefc3445b9a77b&#45;&gt;5e8b00563b504bfda445ad2b03657efa</title>
<path fill="none" stroke="#7b8894" d="M117.19,-1190C117.19,-1190 415.93,-1190 415.93,-1190"/>
<polygon fill="#7b8894" stroke="#7b8894" points="415.93,-1193.5 425.93,-1190 415.93,-1186.5 415.93,-1193.5"/>
<text text-anchor="middle" x="271.5" y="-1193.6" font-family="Sans-Serif" font-size="13.00" fill="darkgrey">e_elq_promo_applis_mobiles_clics_emails</text>
</g>
<!-- 5e8b00563b504bfda445ad2b03657efa&#45;&gt;bd8973a3f57a492e9e26d1d0757e79ae -->
<g id="edge25" class="edge">
<title>5e8b00563b504bfda445ad2b03657efa&#45;&gt;bd8973a3f57a492e9e26d1d0757e79ae</title>
<path fill="none" stroke="#7b8894" d="M527.06,-1190C527.06,-1190 787.76,-1190 787.76,-1190"/>
<polygon fill="#7b8894" stroke="#7b8894" points="787.76,-1193.5 797.76,-1190 787.76,-1186.5 787.76,-1193.5"/>
<text text-anchor="middle" x="662.5" y="-1193.6" font-family="Sans-Serif" font-size="13.00" fill="darkgrey">t_elq_promo_applis_mobiles_tlgt_appli</text>
</g>
<!-- e5f55b6f249743448026dc31c1e48667 -->
<g id="node32" class="node">
<title>e5f55b6f249743448026dc31c1e48667</title>
<image xlink:href="icons/bigquery.png" width="101px" height="101px" preserveAspectRatio="xMinYMin meet" x="16" y="-1060.5"/>
<text text-anchor="middle" x="66.5" y="-945.1" font-family="Sans-Serif" font-size="13.00" fill="#2d3436">comper.t_v_digi_cube_valeur</text>
</g>
<!-- c091bc96cd9d420a8287e70d193900d5 -->
<g id="node33" class="node">
<title>c091bc96cd9d420a8287e70d193900d5</title>
<image xlink:href="icons/bigquery.png" width="101px" height="101px" preserveAspectRatio="xMinYMin meet" x="426" y="-1060.5"/>
<text text-anchor="middle" x="476.5" y="-945.1" font-family="Sans-Serif" font-size="13.00" fill="#2d3436">amadeus.t_ama_parrainage</text>
</g>
<!-- e5f55b6f249743448026dc31c1e48667&#45;&gt;c091bc96cd9d420a8287e70d193900d5 -->
<g id="edge33" class="edge">
<title>e5f55b6f249743448026dc31c1e48667&#45;&gt;c091bc96cd9d420a8287e70d193900d5</title>
<path fill="none" stroke="#7b8894" d="M117.19,-1010C117.19,-1010 415.93,-1010 415.93,-1010"/>
<polygon fill="#7b8894" stroke="#7b8894" points="415.93,-1013.5 425.93,-1010 415.93,-1006.5 415.93,-1013.5"/>
<text text-anchor="middle" x="271.5" y="-1013.6" font-family="Sans-Serif" font-size="13.00" fill="darkgrey">t_parrainage</text>
</g>
<!-- 748073c3d44b4f8d9d919ef3595b83fc -->
<g id="node34" class="node">
<title>748073c3d44b4f8d9d919ef3595b83fc</title>
<image xlink:href="icons/bigquery.png" width="101px" height="101px" preserveAspectRatio="xMinYMin meet" x="798" y="-1060.5"/>
<text text-anchor="middle" x="848.5" y="-945.1" font-family="Sans-Serif" font-size="13.00" fill="#2d3436">comper.l_ama_to_ds_comper_t_ama_parrainage</text>
</g>
<!-- c091bc96cd9d420a8287e70d193900d5&#45;&gt;748073c3d44b4f8d9d919ef3595b83fc -->
<g id="edge34" class="edge">
<title>c091bc96cd9d420a8287e70d193900d5&#45;&gt;748073c3d44b4f8d9d919ef3595b83fc</title>
<path fill="none" stroke="#7b8894" d="M527.06,-1010C527.06,-1010 787.76,-1010 787.76,-1010"/>
<polygon fill="#7b8894" stroke="#7b8894" points="787.76,-1013.5 797.76,-1010 787.76,-1006.5 787.76,-1013.5"/>
<text text-anchor="middle" x="662.5" y="-1013.6" font-family="Sans-Serif" font-size="13.00" fill="darkgrey">l_to_ds_comper_t_ama_parrainage</text>
</g>
<!-- 4083f8f8883f4b53a610ccb9273d12b0 -->
<g id="node35" class="node">
<title>4083f8f8883f4b53a610ccb9273d12b0</title>
<image xlink:href="icons/bigquery.png" width="101px" height="101px" preserveAspectRatio="xMinYMin meet" x="16" y="-880.5"/>
<text text-anchor="middle" x="66.5" y="-765.1" font-family="Sans-Serif" font-size="13.00" fill="#2d3436">amadeus.e_gsheet_contrats_services</text>
</g>
<!-- fec7ebe111d149d28b0133bc94badd8e -->
<g id="node36" class="node">
<title>fec7ebe111d149d28b0133bc94badd8e</title>
<image xlink:href="icons/bigquery.png" width="101px" height="101px" preserveAspectRatio="xMinYMin meet" x="426" y="-880.5"/>
<text text-anchor="middle" x="476.5" y="-765.1" font-family="Sans-Serif" font-size="13.00" fill="#2d3436">comper.l_ama_to_ds_comper_contrats_services</text>
</g>
<!-- 4083f8f8883f4b53a610ccb9273d12b0&#45;&gt;fec7ebe111d149d28b0133bc94badd8e -->
<g id="edge35" class="edge">
<title>4083f8f8883f4b53a610ccb9273d12b0&#45;&gt;fec7ebe111d149d28b0133bc94badd8e</title>
<path fill="none" stroke="#7b8894" d="M117.19,-830C117.19,-830 415.93,-830 415.93,-830"/>
<polygon fill="#7b8894" stroke="#7b8894" points="415.93,-833.5 425.93,-830 415.93,-826.5 415.93,-833.5"/>
<text text-anchor="middle" x="271.5" y="-833.6" font-family="Sans-Serif" font-size="13.00" fill="darkgrey">l_to_ds_comper_contrats_services</text>
</g>
<!-- b9e4af10d7ce4329a690f32e5d633cc0 -->
<g id="node37" class="node">
<title>b9e4af10d7ce4329a690f32e5d633cc0</title>
<image xlink:href="icons/bigquery.png" width="101px" height="101px" preserveAspectRatio="xMinYMin meet" x="16" y="-700.5"/>
<text text-anchor="middle" x="66.5" y="-585.1" font-family="Sans-Serif" font-size="13.00" fill="#2d3436">reporting_equipements.bout_en_bout_equipements</text>
</g>
<!-- 25ff989a96da4c9186b16e45c3a34c45 -->
<g id="node38" class="node">
<title>25ff989a96da4c9186b16e45c3a34c45</title>
<image xlink:href="icons/bigquery.png" width="101px" height="101px" preserveAspectRatio="xMinYMin meet" x="426" y="-700.5"/>
<text text-anchor="middle" x="476.5" y="-585.1" font-family="Sans-Serif" font-size="13.00" fill="#2d3436">comper.l_ama_to_ds_comper_bout_en_bout_equipements</text>
</g>
<!-- b9e4af10d7ce4329a690f32e5d633cc0&#45;&gt;25ff989a96da4c9186b16e45c3a34c45 -->
<g id="edge36" class="edge">
<title>b9e4af10d7ce4329a690f32e5d633cc0&#45;&gt;25ff989a96da4c9186b16e45c3a34c45</title>
<path fill="none" stroke="#7b8894" d="M117.19,-650C117.19,-650 415.93,-650 415.93,-650"/>
<polygon fill="#7b8894" stroke="#7b8894" points="415.93,-653.5 425.93,-650 415.93,-646.5 415.93,-653.5"/>
<text text-anchor="middle" x="271.5" y="-653.6" font-family="Sans-Serif" font-size="13.00" fill="darkgrey">l_to_ds_comper_bout_en_bout_equipements</text>
</g>
<!-- b81a3a99e9d144ddbe92020029ad096f -->
<g id="node39" class="node">
<title>b81a3a99e9d144ddbe92020029ad096f</title>
<image xlink:href="icons/bigquery.png" width="101px" height="101px" preserveAspectRatio="xMinYMin meet" x="16" y="-520.5"/>
<text text-anchor="middle" x="66.5" y="-405.1" font-family="Sans-Serif" font-size="13.00" fill="#2d3436">amadeus.e_ama_options_vertes</text>
</g>
<!-- 157d92f3def74812b7c9cd86a4da0ede -->
<g id="node40" class="node">
<title>157d92f3def74812b7c9cd86a4da0ede</title>
<image xlink:href="icons/bigquery.png" width="101px" height="101px" preserveAspectRatio="xMinYMin meet" x="426" y="-520.5"/>
<text text-anchor="middle" x="476.5" y="-405.1" font-family="Sans-Serif" font-size="13.00" fill="#2d3436">comper.t_ama_options_vertes</text>
</g>
<!-- b81a3a99e9d144ddbe92020029ad096f&#45;&gt;157d92f3def74812b7c9cd86a4da0ede -->
<g id="edge37" class="edge">
<title>b81a3a99e9d144ddbe92020029ad096f&#45;&gt;157d92f3def74812b7c9cd86a4da0ede</title>
<path fill="none" stroke="#7b8894" d="M117.19,-470C117.19,-470 415.93,-470 415.93,-470"/>
<polygon fill="#7b8894" stroke="#7b8894" points="415.93,-473.5 425.93,-470 415.93,-466.5 415.93,-473.5"/>
<text text-anchor="middle" x="271.5" y="-473.6" font-family="Sans-Serif" font-size="13.00" fill="darkgrey">t_options_vertes</text>
</g>
<!-- 1ac7bbee541b47ba86c37b18ea1db526 -->
<g id="node41" class="node">
<title>1ac7bbee541b47ba86c37b18ea1db526</title>
<image xlink:href="icons/bigquery.png" width="101px" height="101px" preserveAspectRatio="xMinYMin meet" x="798" y="-520.5"/>
<text text-anchor="middle" x="848.5" y="-405.1" font-family="Sans-Serif" font-size="13.00" fill="#2d3436">comper.l_ama_to_ds_comper_options_vertes</text>
</g>
<!-- 157d92f3def74812b7c9cd86a4da0ede&#45;&gt;1ac7bbee541b47ba86c37b18ea1db526 -->
<g id="edge38" class="edge">
<title>157d92f3def74812b7c9cd86a4da0ede&#45;&gt;1ac7bbee541b47ba86c37b18ea1db526</title>
<path fill="none" stroke="#7b8894" d="M527.06,-470C527.06,-470 787.76,-470 787.76,-470"/>
<polygon fill="#7b8894" stroke="#7b8894" points="787.76,-473.5 797.76,-470 787.76,-466.5 787.76,-473.5"/>
<text text-anchor="middle" x="662.5" y="-473.6" font-family="Sans-Serif" font-size="13.00" fill="darkgrey">l_to_ds_comper_options_vertes</text>
</g>
<!-- 7333f9b29bf4458198f3e6b8a3a33ca1 -->
<g id="node42" class="node">
<title>7333f9b29bf4458198f3e6b8a3a33ca1</title>
<image xlink:href="icons/bigquery.png" width="101px" height="101px" preserveAspectRatio="xMinYMin meet" x="16" y="-340.5"/>
<text text-anchor="middle" x="66.5" y="-225.1" font-family="Sans-Serif" font-size="13.00" fill="#2d3436">amadeus.e_ama_prelevement_mensualisation</text>
</g>
<!-- 79dfe95c7ce843bf9018e34942e4188b -->
<g id="node43" class="node">
<title>79dfe95c7ce843bf9018e34942e4188b</title>
<image xlink:href="icons/bigquery.png" width="101px" height="101px" preserveAspectRatio="xMinYMin meet" x="426" y="-340.5"/>
<text text-anchor="middle" x="476.5" y="-225.1" font-family="Sans-Serif" font-size="13.00" fill="#2d3436">comper.l_ama_to_ds_comper_prelevement_mensualisation</text>
</g>
<!-- 7333f9b29bf4458198f3e6b8a3a33ca1&#45;&gt;79dfe95c7ce843bf9018e34942e4188b -->
<g id="edge39" class="edge">
<title>7333f9b29bf4458198f3e6b8a3a33ca1&#45;&gt;79dfe95c7ce843bf9018e34942e4188b</title>
<path fill="none" stroke="#7b8894" d="M117.19,-290C117.19,-290 415.93,-290 415.93,-290"/>
<polygon fill="#7b8894" stroke="#7b8894" points="415.93,-293.5 425.93,-290 415.93,-286.5 415.93,-293.5"/>
<text text-anchor="middle" x="271.5" y="-293.6" font-family="Sans-Serif" font-size="13.00" fill="darkgrey">l_to_ds_comper_prelevement_mensualisation</text>
</g>
<!-- 55a80f45922e45ce838367cc7bec590a -->
<g id="node44" class="node">
<title>55a80f45922e45ce838367cc7bec590a</title>
<image xlink:href="icons/bigquery.png" width="101px" height="101px" preserveAspectRatio="xMinYMin meet" x="16" y="-160.5"/>
<text text-anchor="middle" x="66.5" y="-45.1" font-family="Sans-Serif" font-size="13.00" fill="#2d3436">amadeus.e_gsheet_activation_energie</text>
</g>
<!-- 2aa23014f68f493798f6389d63270eb5 -->
<g id="node45" class="node">
<title>2aa23014f68f493798f6389d63270eb5</title>
<image xlink:href="icons/bigquery.png" width="101px" height="101px" preserveAspectRatio="xMinYMin meet" x="426" y="-160.5"/>
<text text-anchor="middle" x="476.5" y="-45.1" font-family="Sans-Serif" font-size="13.00" fill="#2d3436">comper.l_ama_to_ds_comper_activation_energie</text>
</g>
<!-- 55a80f45922e45ce838367cc7bec590a&#45;&gt;2aa23014f68f493798f6389d63270eb5 -->
<g id="edge40" class="edge">
<title>55a80f45922e45ce838367cc7bec590a&#45;&gt;2aa23014f68f493798f6389d63270eb5</title>
<path fill="none" stroke="#7b8894" d="M117.19,-110C117.19,-110 415.93,-110 415.93,-110"/>
<polygon fill="#7b8894" stroke="#7b8894" points="415.93,-113.5 425.93,-110 415.93,-106.5 415.93,-113.5"/>
<text text-anchor="middle" x="271.5" y="-113.6" font-family="Sans-Serif" font-size="13.00" fill="darkgrey">l_to_ds_comper_activation_energie</text>
</g>
<!-- 6203808faaa941f59740728140e028b9 -->
<g id="node47" class="node">
<title>6203808faaa941f59740728140e028b9</title>
<image xlink:href="icons/bigquery.png" width="101px" height="101px" preserveAspectRatio="xMinYMin meet" x="1527" y="-1240.5"/>
<text text-anchor="middle" x="1577.5" y="-1125.1" font-family="Sans-Serif" font-size="13.00" fill="#2d3436">amadeus.t_ama_appels_date_lead</text>
</g>
<!-- 6b453c64804c4d44a1dc859ee7cb5a95&#45;&gt;6203808faaa941f59740728140e028b9 -->
<g id="edge43" class="edge">
<title>6b453c64804c4d44a1dc859ee7cb5a95&#45;&gt;6203808faaa941f59740728140e028b9</title>
<path fill="none" stroke="#7b8894" d="M1309.05,-1190C1309.05,-1190 1516.93,-1190 1516.93,-1190"/>
<polygon fill="#7b8894" stroke="#7b8894" points="1516.93,-1193.5 1526.93,-1190 1516.93,-1186.5 1516.93,-1193.5"/>
<text text-anchor="middle" x="1428.5" y="-1193.6" font-family="Sans-Serif" font-size="13.00" fill="darkgrey">t_appels_date_lead</text>
</g>
</g>
</svg>
