<?xml version="1.0" encoding="UTF-8" standalone="no"?>
<!DOCTYPE svg PUBLIC "-//W3C//DTD SVG 1.1//EN"
 "http://www.w3.org/Graphics/SVG/1.1/DTD/svg11.dtd">
<!-- Generated by graphviz version 2.47.1 (20210417.1919)
 -->
<!-- Title: amadeus Pages: 1 -->
<svg width="1932pt" height="2844pt"
 viewBox="0.00 0.00 1932.00 2844.00" xmlns="http://www.w3.org/2000/svg" xmlns:xlink="http://www.w3.org/1999/xlink">
<g id="graph0" class="graph" transform="scale(1 1) rotate(0) translate(144 2700)">
<title>amadeus</title>
<text text-anchor="middle" x="822" y="-9" font-family="Sans-Serif" font-size="15.00" fill="#2d3436">amadeus</text>
<g id="clust1" class="cluster">
<title>cluster_amadeus</title>
<path fill="#e5f5fd" stroke="#aeb6be" d="M20,-33C20,-33 1624,-33 1624,-33 1630,-33 1636,-39 1636,-45 1636,-45 1636,-2536 1636,-2536 1636,-2542 1630,-2548 1624,-2548 1624,-2548 20,-2548 20,-2548 14,-2548 8,-2542 8,-2536 8,-2536 8,-45 8,-45 8,-39 14,-33 20,-33"/>
<text text-anchor="middle" x="40" y="-2534.4" font-family="Sans-Serif" font-size="12.00" fill="#2d3436">amadeus</text>
</g>
<!-- 6933147fbaff49af9ab1cd36b124152b -->
<g id="node1" class="node">
<title>6933147fbaff49af9ab1cd36b124152b</title>
<image xlink:href="icons/storage.png" width="101px" height="101px" preserveAspectRatio="xMinYMin meet" x="16" y="-2500.5"/>
<text text-anchor="middle" x="66.5" y="-2385.1" font-family="Sans-Serif" font-size="13.00" fill="#2d3436">amadeus_bi.formulaires/GA_VENT_DIGT_</text>
</g>
<!-- 0bb9376a69a54f7bbd68a8610d48616d -->
<g id="node2" class="node">
<title>0bb9376a69a54f7bbd68a8610d48616d</title>
<image xlink:href="icons/bigquery.png" width="101px" height="101px" preserveAspectRatio="xMinYMin meet" x="426" y="-2500.5"/>
<text text-anchor="middle" x="476.5" y="-2385.1" font-family="Sans-Serif" font-size="13.00" fill="#2d3436">amadeus.e_ama_formulaires_stor</text>
</g>
<!-- 6933147fbaff49af9ab1cd36b124152b&#45;&gt;0bb9376a69a54f7bbd68a8610d48616d -->
<g id="edge1" class="edge">
<title>6933147fbaff49af9ab1cd36b124152b&#45;&gt;0bb9376a69a54f7bbd68a8610d48616d</title>
<path fill="none" stroke="#7b8894" d="M117.19,-2450C117.19,-2450 415.93,-2450 415.93,-2450"/>
<polygon fill="#7b8894" stroke="#7b8894" points="415.93,-2453.5 425.93,-2450 415.93,-2446.5 415.93,-2453.5"/>
<text text-anchor="middle" x="271.5" y="-2453.6" font-family="Sans-Serif" font-size="13.00" fill="darkgrey">e_formulaires</text>
</g>
<!-- c3eee34c1e0349d29a5fcc55973f1942 -->
<g id="node5" class="node">
<title>c3eee34c1e0349d29a5fcc55973f1942</title>
<image xlink:href="icons/bigquery.png" width="101px" height="101px" preserveAspectRatio="xMinYMin meet" x="798" y="-2320.5"/>
<text text-anchor="middle" x="848.5" y="-2205.1" font-family="Sans-Serif" font-size="13.00" fill="#2d3436">amadeus.t_ama_formulaires_campagnes</text>
</g>
<!-- 0bb9376a69a54f7bbd68a8610d48616d&#45;&gt;c3eee34c1e0349d29a5fcc55973f1942 -->
<g id="edge3" class="edge">
<title>0bb9376a69a54f7bbd68a8610d48616d&#45;&gt;c3eee34c1e0349d29a5fcc55973f1942</title>
<path fill="none" stroke="#7b8894" d="M494,-2381.33C494,-2369.01 494,-2360 494,-2360 494,-2360 849,-2360 849,-2360 849,-2360 849,-2348.67 849,-2348.67"/>
<polygon fill="#7b8894" stroke="#7b8894" points="852.5,-2348.67 849,-2338.67 845.5,-2348.67 852.5,-2348.67"/>
<text text-anchor="middle" x="662.5" y="-2394.6" font-family="Sans-Serif" font-size="13.00" fill="darkgrey">t_formulaires_campagnes</text>
</g>
<!-- a5a38daf7bc84230bbafd471127ff60f -->
<g id="node11" class="node">
<title>a5a38daf7bc84230bbafd471127ff60f</title>
<image xlink:href="icons/bigquery.png" width="101px" height="101px" preserveAspectRatio="xMinYMin meet" x="798" y="-2500.5"/>
<text text-anchor="middle" x="848.5" y="-2385.1" font-family="Sans-Serif" font-size="13.00" fill="#2d3436">amadeus.t_ama_formulaires_verif_flux_ga</text>
</g>
<!-- 0bb9376a69a54f7bbd68a8610d48616d&#45;&gt;a5a38daf7bc84230bbafd471127ff60f -->
<g id="edge9" class="edge">
<title>0bb9376a69a54f7bbd68a8610d48616d&#45;&gt;a5a38daf7bc84230bbafd471127ff60f</title>
<path fill="none" stroke="#7b8894" d="M527.06,-2450C527.06,-2450 787.76,-2450 787.76,-2450"/>
<polygon fill="#7b8894" stroke="#7b8894" points="787.76,-2453.5 797.76,-2450 787.76,-2446.5 787.76,-2453.5"/>
<text text-anchor="middle" x="662.5" y="-2456.6" font-family="Sans-Serif" font-size="13.00" fill="darkgrey">t_formulaires_verif_flux_ga</text>
</g>
<!-- df00cc3eb4404c6ca84ecb2316e67300 -->
<g id="node3" class="node">
<title>df00cc3eb4404c6ca84ecb2316e67300</title>
<image xlink:href="icons/storage.png" width="101px" height="101px" preserveAspectRatio="xMinYMin meet" x="16" y="-1960.5"/>
<text text-anchor="middle" x="66.5" y="-1845.1" font-family="Sans-Serif" font-size="13.00" fill="#2d3436">amadeus_bi.appels/GA_SVI_</text>
</g>
<!-- 4359b38d9ee643189ece971f5773e055 -->
<g id="node4" class="node">
<title>4359b38d9ee643189ece971f5773e055</title>
<image xlink:href="icons/bigquery.png" width="101px" height="101px" preserveAspectRatio="xMinYMin meet" x="426" y="-1960.5"/>
<text text-anchor="middle" x="476.5" y="-1845.1" font-family="Sans-Serif" font-size="13.00" fill="#2d3436">amadeus.e_ama_appels</text>
</g>
<!-- df00cc3eb4404c6ca84ecb2316e67300&#45;&gt;4359b38d9ee643189ece971f5773e055 -->
<g id="edge2" class="edge">
<title>df00cc3eb4404c6ca84ecb2316e67300&#45;&gt;4359b38d9ee643189ece971f5773e055</title>
<path fill="none" stroke="#7b8894" d="M117.19,-1910C117.19,-1910 415.93,-1910 415.93,-1910"/>
<polygon fill="#7b8894" stroke="#7b8894" points="415.93,-1913.5 425.93,-1910 415.93,-1906.5 415.93,-1913.5"/>
<text text-anchor="middle" x="271.5" y="-1913.6" font-family="Sans-Serif" font-size="13.00" fill="darkgrey">e_appels</text>
</g>
<!-- 98650efa233e4456bf3f89f1192f3138 -->
<g id="node14" class="node">
<title>98650efa233e4456bf3f89f1192f3138</title>
<image xlink:href="icons/bigquery.png" width="101px" height="101px" preserveAspectRatio="xMinYMin meet" x="798" y="-1675.5"/>
<text text-anchor="middle" x="848.5" y="-1560.1" font-family="Sans-Serif" font-size="13.00" fill="#2d3436">amadeus.t_ama_appels</text>
</g>
<!-- 4359b38d9ee643189ece971f5773e055&#45;&gt;98650efa233e4456bf3f89f1192f3138 -->
<g id="edge14" class="edge">
<title>4359b38d9ee643189ece971f5773e055&#45;&gt;98650efa233e4456bf3f89f1192f3138</title>
<path fill="none" stroke="#7b8894" d="M527.46,-1910C582.68,-1910 663,-1910 663,-1910 663,-1910 663,-1682.83 663,-1682.83 663,-1682.83 787.81,-1682.83 787.81,-1682.83"/>
<polygon fill="#7b8894" stroke="#7b8894" points="787.81,-1686.33 797.81,-1682.83 787.81,-1679.33 787.81,-1686.33"/>
<text text-anchor="middle" x="662.5" y="-1853.6" font-family="Sans-Serif" font-size="13.00" fill="darkgrey">t_appels</text>
</g>
<!-- 8c5e8b362d684e1b9744a97275571415 -->
<g id="node24" class="node">
<title>8c5e8b362d684e1b9744a97275571415</title>
<image xlink:href="icons/bigquery.png" width="101px" height="101px" preserveAspectRatio="xMinYMin meet" x="798" y="-2140.5"/>
<text text-anchor="middle" x="848.5" y="-2025.1" font-family="Sans-Serif" font-size="13.00" fill="#2d3436">amadeus.t_ama_import_gads</text>
</g>
<!-- 4359b38d9ee643189ece971f5773e055&#45;&gt;8c5e8b362d684e1b9744a97275571415 -->
<g id="edge25" class="edge">
<title>4359b38d9ee643189ece971f5773e055&#45;&gt;8c5e8b362d684e1b9744a97275571415</title>
<path fill="none" stroke="#7b8894" d="M477,-1978.54C477,-1994.62 477,-2007.17 477,-2007.17 477,-2007.17 832,-2007.17 832,-2007.17 832,-2007.17 832,-2011.22 832,-2011.22"/>
<polygon fill="#7b8894" stroke="#7b8894" points="828.5,-2011.22 832,-2021.22 835.5,-2011.22 828.5,-2011.22"/>
<text text-anchor="middle" x="662.5" y="-1972.6" font-family="Sans-Serif" font-size="13.00" fill="darkgrey">t_import_gads</text>
</g>
<!-- 168b988ea8924b5f9e2af9d0b5faa5e8 -->
<g id="node8" class="node">
<title>168b988ea8924b5f9e2af9d0b5faa5e8</title>
<image xlink:href="icons/bigquery.png" width="101px" height="101px" preserveAspectRatio="xMinYMin meet" x="1208" y="-2320.5"/>
<text text-anchor="middle" x="1258.5" y="-2205.1" font-family="Sans-Serif" font-size="13.00" fill="#2d3436">amadeus.t_ama_contrats_formulaires</text>
</g>
<!-- c3eee34c1e0349d29a5fcc55973f1942&#45;&gt;168b988ea8924b5f9e2af9d0b5faa5e8 -->
<g id="edge6" class="edge">
<title>c3eee34c1e0349d29a5fcc55973f1942&#45;&gt;168b988ea8924b5f9e2af9d0b5faa5e8</title>
<path fill="none" stroke="#7b8894" d="M899.19,-2292.83C899.19,-2292.83 1197.93,-2292.83 1197.93,-2292.83"/>
<polygon fill="#7b8894" stroke="#7b8894" points="1197.93,-2296.33 1207.93,-2292.83 1197.93,-2289.33 1197.93,-2296.33"/>
<text text-anchor="middle" x="1043" y="-2273.6" font-family="Sans-Serif" font-size="13.00" fill="darkgrey">t_contrats_formulaires</text>
</g>
<!-- cdd37c521bd04e4c97fe7e815eda62ad -->
<g id="node10" class="node">
<title>cdd37c521bd04e4c97fe7e815eda62ad</title>
<image xlink:href="icons/bigquery.png" width="101px" height="101px" preserveAspectRatio="xMinYMin meet" x="1208" y="-2500.5"/>
<text text-anchor="middle" x="1258.5" y="-2385.1" font-family="Sans-Serif" font-size="13.00" fill="#2d3436">amadeus.t_ama_leads_formulaires</text>
</g>
<!-- c3eee34c1e0349d29a5fcc55973f1942&#45;&gt;cdd37c521bd04e4c97fe7e815eda62ad -->
<g id="edge8" class="edge">
<title>c3eee34c1e0349d29a5fcc55973f1942&#45;&gt;cdd37c521bd04e4c97fe7e815eda62ad</title>
<path fill="none" stroke="#7b8894" d="M874,-2338.56C874,-2345.04 874,-2349.25 874,-2349.25 874,-2349.25 1259,-2349.25 1259,-2349.25 1259,-2349.25 1259,-2371.4 1259,-2371.4"/>
<polygon fill="#7b8894" stroke="#7b8894" points="1255.5,-2371.4 1259,-2381.4 1262.5,-2371.4 1255.5,-2371.4"/>
<text text-anchor="middle" x="1043" y="-2394.6" font-family="Sans-Serif" font-size="13.00" fill="darkgrey">t_leads_formulaires</text>
</g>
<!-- dc181d2ce6a540c79f3c58d6de4eeebf -->
<g id="node6" class="node">
<title>dc181d2ce6a540c79f3c58d6de4eeebf</title>
<image xlink:href="icons/bigquery.png" width="101px" height="101px" preserveAspectRatio="xMinYMin meet" x="426" y="-2320.5"/>
<text text-anchor="middle" x="476.5" y="-2205.1" font-family="Sans-Serif" font-size="13.00" fill="#2d3436">ga.l_ga_to_ama_ga_formulaires_stor_*</text>
</g>
<!-- dc181d2ce6a540c79f3c58d6de4eeebf&#45;&gt;c3eee34c1e0349d29a5fcc55973f1942 -->
<g id="edge4" class="edge">
<title>dc181d2ce6a540c79f3c58d6de4eeebf&#45;&gt;c3eee34c1e0349d29a5fcc55973f1942</title>
<path fill="none" stroke="#7b8894" d="M527.06,-2270C527.06,-2270 787.76,-2270 787.76,-2270"/>
<polygon fill="#7b8894" stroke="#7b8894" points="787.76,-2273.5 797.76,-2270 787.76,-2266.5 787.76,-2273.5"/>
<text text-anchor="middle" x="662.5" y="-2270.6" font-family="Sans-Serif" font-size="13.00" fill="darkgrey">t_formulaires_campagnes</text>
</g>
<!-- dc181d2ce6a540c79f3c58d6de4eeebf&#45;&gt;a5a38daf7bc84230bbafd471127ff60f -->
<g id="edge10" class="edge">
<title>dc181d2ce6a540c79f3c58d6de4eeebf&#45;&gt;a5a38daf7bc84230bbafd471127ff60f</title>
<path fill="none" stroke="#7b8894" d="M460,-2338.6C460,-2356.43 460,-2370.75 460,-2370.75 460,-2370.75 824,-2370.75 824,-2370.75 824,-2370.75 824,-2371.82 824,-2371.82"/>
<polygon fill="#7b8894" stroke="#7b8894" points="820.5,-2371.44 824,-2381.44 827.5,-2371.44 820.5,-2371.44"/>
<text text-anchor="middle" x="662.5" y="-2332.6" font-family="Sans-Serif" font-size="13.00" fill="darkgrey">t_formulaires_verif_flux_ga</text>
</g>
<!-- c5ef3b11114c4b55a1c0f9a3a12fc2d2 -->
<g id="node7" class="node">
<title>c5ef3b11114c4b55a1c0f9a3a12fc2d2</title>
<image xlink:href="icons/bigquery.png" width="101px" height="101px" preserveAspectRatio="xMinYMin meet" x="426" y="-2140.5"/>
<text text-anchor="middle" x="476.5" y="-2025.1" font-family="Sans-Serif" font-size="13.00" fill="#2d3436">ga.t_ga_correspondance_hash_campagnes</text>
</g>
<!-- c5ef3b11114c4b55a1c0f9a3a12fc2d2&#45;&gt;c3eee34c1e0349d29a5fcc55973f1942 -->
<g id="edge5" class="edge">
<title>c5ef3b11114c4b55a1c0f9a3a12fc2d2&#45;&gt;c3eee34c1e0349d29a5fcc55973f1942</title>
<path fill="none" stroke="#7b8894" d="M477,-2158.67C477,-2170.99 477,-2180 477,-2180 477,-2180 849,-2180 849,-2180 849,-2180 849,-2191.33 849,-2191.33"/>
<polygon fill="#7b8894" stroke="#7b8894" points="845.5,-2191.33 849,-2201.33 852.5,-2191.33 845.5,-2191.33"/>
<text text-anchor="middle" x="662.5" y="-2152.6" font-family="Sans-Serif" font-size="13.00" fill="darkgrey">t_formulaires_campagnes</text>
</g>
<!-- 043f9178883d420997ea2e8e53230bf3 -->
<g id="node9" class="node">
<title>043f9178883d420997ea2e8e53230bf3</title>
<image xlink:href="icons/bigquery.png" width="101px" height="101px" preserveAspectRatio="xMinYMin meet" x="798" y="-1960.5"/>
<text text-anchor="middle" x="848.5" y="-1845.1" font-family="Sans-Serif" font-size="13.00" fill="#2d3436">comper.e_v_digi_import_cube_valeur</text>
</g>
<!-- 043f9178883d420997ea2e8e53230bf3&#45;&gt;168b988ea8924b5f9e2af9d0b5faa5e8 -->
<g id="edge7" class="edge">
<title>043f9178883d420997ea2e8e53230bf3&#45;&gt;168b988ea8924b5f9e2af9d0b5faa5e8</title>
<path fill="none" stroke="#7b8894" d="M899.03,-1932.83C959.88,-1932.83 1054,-1932.83 1054,-1932.83 1054,-1932.83 1054,-2247.17 1054,-2247.17 1054,-2247.17 1197.95,-2247.17 1197.95,-2247.17"/>
<polygon fill="#7b8894" stroke="#7b8894" points="1197.95,-2250.67 1207.95,-2247.17 1197.95,-2243.67 1197.95,-2250.67"/>
<text text-anchor="middle" x="1043" y="-2169.6" font-family="Sans-Serif" font-size="13.00" fill="darkgrey">t_contrats_formulaires</text>
</g>
<!-- f951a0a2e44243e0b9f7d58eb918bd67 -->
<g id="node19" class="node">
<title>f951a0a2e44243e0b9f7d58eb918bd67</title>
<image xlink:href="icons/bigquery.png" width="101px" height="101px" preserveAspectRatio="xMinYMin meet" x="1208" y="-2140.5"/>
<text text-anchor="middle" x="1258.5" y="-2025.1" font-family="Sans-Serif" font-size="13.00" fill="#2d3436">amadeus.t_ama_contrats_appels</text>
</g>
<!-- 043f9178883d420997ea2e8e53230bf3&#45;&gt;f951a0a2e44243e0b9f7d58eb918bd67 -->
<g id="edge19" class="edge">
<title>043f9178883d420997ea2e8e53230bf3&#45;&gt;f951a0a2e44243e0b9f7d58eb918bd67</title>
<path fill="none" stroke="#7b8894" d="M866,-1978.78C866,-1987.16 866,-1992.83 866,-1992.83 866,-1992.83 1259,-1992.83 1259,-1992.83 1259,-1992.83 1259,-2011.46 1259,-2011.46"/>
<polygon fill="#7b8894" stroke="#7b8894" points="1255.5,-2011.46 1259,-2021.46 1262.5,-2011.46 1255.5,-2011.46"/>
<text text-anchor="middle" x="1043" y="-2065.6" font-family="Sans-Serif" font-size="13.00" fill="darkgrey">t_contrats_appels</text>
</g>
<!-- 3e610e0cfb4a40b6a62ca9b7997e6104 -->
<g id="node12" class="node">
<title>3e610e0cfb4a40b6a62ca9b7997e6104</title>
<image xlink:href="icons/bigquery.png" width="101px" height="101px" preserveAspectRatio="xMinYMin meet" x="426" y="-1420.5"/>
<text text-anchor="middle" x="476.5" y="-1305.1" font-family="Sans-Serif" font-size="13.00" fill="#2d3436">ga.t_ga_sessions</text>
</g>
<!-- f53f2b0f03524becbf620a045a853250 -->
<g id="node13" class="node">
<title>f53f2b0f03524becbf620a045a853250</title>
<image xlink:href="icons/bigquery.png" width="101px" height="101px" preserveAspectRatio="xMinYMin meet" x="798" y="-1420.5"/>
<text text-anchor="middle" x="848.5" y="-1305.1" font-family="Sans-Serif" font-size="13.00" fill="#2d3436">amadeus.t_ama_appels_ga</text>
</g>
<!-- 3e610e0cfb4a40b6a62ca9b7997e6104&#45;&gt;f53f2b0f03524becbf620a045a853250 -->
<g id="edge11" class="edge">
<title>3e610e0cfb4a40b6a62ca9b7997e6104&#45;&gt;f53f2b0f03524becbf620a045a853250</title>
<path fill="none" stroke="#7b8894" d="M527.06,-1370C527.06,-1370 787.76,-1370 787.76,-1370"/>
<polygon fill="#7b8894" stroke="#7b8894" points="787.76,-1373.5 797.76,-1370 787.76,-1366.5 787.76,-1373.5"/>
<text text-anchor="middle" x="662.5" y="-1373.6" font-family="Sans-Serif" font-size="13.00" fill="darkgrey">t_appels_ga</text>
</g>
<!-- c27372e521604784827d223d609234ca -->
<g id="node23" class="node">
<title>c27372e521604784827d223d609234ca</title>
<image xlink:href="icons/bigquery.png" width="101px" height="101px" preserveAspectRatio="xMinYMin meet" x="798" y="-1240.5"/>
<text text-anchor="middle" x="848.5" y="-1125.1" font-family="Sans-Serif" font-size="13.00" fill="#2d3436">eloqua.t_elq_promo_applis_mobiles_tlgt_appli</text>
</g>
<!-- 3e610e0cfb4a40b6a62ca9b7997e6104&#45;&gt;c27372e521604784827d223d609234ca -->
<g id="edge24" class="edge">
<title>3e610e0cfb4a40b6a62ca9b7997e6104&#45;&gt;c27372e521604784827d223d609234ca</title>
<path fill="none" stroke="#7b8894" d="M477,-1301.35C477,-1282.67 477,-1267.5 477,-1267.5 477,-1267.5 866,-1267.5 866,-1267.5 866,-1267.5 866,-1266.61 866,-1266.61"/>
<polygon fill="#7b8894" stroke="#7b8894" points="869.5,-1268.61 866,-1258.61 862.5,-1268.61 869.5,-1268.61"/>
<text text-anchor="middle" x="662.5" y="-1283.6" font-family="Sans-Serif" font-size="13.00" fill="darkgrey">t_elq_promo_applis_mobiles_tlgt_appli</text>
</g>
<!-- c2f71bb3e5854023af69bf4261989b2a -->
<g id="node15" class="node">
<title>c2f71bb3e5854023af69bf4261989b2a</title>
<image xlink:href="icons/bigquery.png" width="101px" height="101px" preserveAspectRatio="xMinYMin meet" x="1208" y="-959.5"/>
<text text-anchor="middle" x="1258.5" y="-844.1" font-family="Sans-Serif" font-size="13.00" fill="#2d3436">amadeus.t_ama_appels_leviers</text>
</g>
<!-- f53f2b0f03524becbf620a045a853250&#45;&gt;c2f71bb3e5854023af69bf4261989b2a -->
<g id="edge13" class="edge">
<title>f53f2b0f03524becbf620a045a853250&#45;&gt;c2f71bb3e5854023af69bf4261989b2a</title>
<path fill="none" stroke="#7b8894" d="M899,-1347.17C919.31,-1347.17 938,-1347.17 938,-1347.17 938,-1347.17 938,-953.5 938,-953.5 938,-953.5 1197.72,-953.5 1197.72,-953.5"/>
<polygon fill="#7b8894" stroke="#7b8894" points="1197.72,-957 1207.72,-953.5 1197.72,-950 1197.72,-957"/>
<text text-anchor="middle" x="1043" y="-979.6" font-family="Sans-Serif" font-size="13.00" fill="darkgrey">t_appels_leviers</text>
</g>
<!-- aeb2591453d24fbb9f194f7575bc6165 -->
<g id="node20" class="node">
<title>aeb2591453d24fbb9f194f7575bc6165</title>
<image xlink:href="icons/bigquery.png" width="101px" height="101px" preserveAspectRatio="xMinYMin meet" x="1527" y="-1395.5"/>
<text text-anchor="middle" x="1577.5" y="-1280.1" font-family="Sans-Serif" font-size="13.00" fill="#2d3436">amadeus.t_ama_contrats_appels_leviers</text>
</g>
<!-- f53f2b0f03524becbf620a045a853250&#45;&gt;aeb2591453d24fbb9f194f7575bc6165 -->
<g id="edge21" class="edge">
<title>f53f2b0f03524becbf620a045a853250&#45;&gt;aeb2591453d24fbb9f194f7575bc6165</title>
<path fill="none" stroke="#7b8894" d="M832,-1301.3C832,-1293.91 832,-1289 832,-1289 832,-1289 1516.84,-1289 1516.84,-1289"/>
<polygon fill="#7b8894" stroke="#7b8894" points="1516.84,-1292.5 1526.84,-1289 1516.84,-1285.5 1516.84,-1292.5"/>
<text text-anchor="middle" x="1258.5" y="-1067.6" font-family="Sans-Serif" font-size="13.00" fill="darkgrey">t_contrats_appels_leviers</text>
</g>
<!-- 98650efa233e4456bf3f89f1192f3138&#45;&gt;c2f71bb3e5854023af69bf4261989b2a -->
<g id="edge12" class="edge">
<title>98650efa233e4456bf3f89f1192f3138&#45;&gt;c2f71bb3e5854023af69bf4261989b2a</title>
<path fill="none" stroke="#7b8894" d="M899.29,-1568.9C935.2,-1568.9 977,-1568.9 977,-1568.9 977,-1568.9 977,-965.5 977,-965.5 977,-965.5 1197.85,-965.5 1197.85,-965.5"/>
<polygon fill="#7b8894" stroke="#7b8894" points="1197.85,-969 1207.85,-965.5 1197.85,-962 1197.85,-969"/>
<text text-anchor="middle" x="1043" y="-1224.6" font-family="Sans-Serif" font-size="13.00" fill="darkgrey">t_appels_leviers</text>
</g>
<!-- 98650efa233e4456bf3f89f1192f3138&#45;&gt;f951a0a2e44243e0b9f7d58eb918bd67 -->
<g id="edge18" class="edge">
<title>98650efa233e4456bf3f89f1192f3138&#45;&gt;f951a0a2e44243e0b9f7d58eb918bd67</title>
<path fill="none" stroke="#7b8894" d="M899.16,-1685.5C970.78,-1685.5 1093,-1685.5 1093,-1685.5 1093,-1685.5 1093,-2090 1093,-2090 1093,-2090 1197.95,-2090 1197.95,-2090"/>
<polygon fill="#7b8894" stroke="#7b8894" points="1197.95,-2093.5 1207.95,-2090 1197.95,-2086.5 1197.95,-2093.5"/>
<text text-anchor="middle" x="1043" y="-1945.6" font-family="Sans-Serif" font-size="13.00" fill="darkgrey">t_contrats_appels</text>
</g>
<!-- 1075fc07345c4a1eb0d9e70d82af0da6 -->
<g id="node25" class="node">
<title>1075fc07345c4a1eb0d9e70d82af0da6</title>
<image xlink:href="icons/bigquery.png" width="101px" height="101px" preserveAspectRatio="xMinYMin meet" x="1208" y="-1420.5"/>
<text text-anchor="middle" x="1258.5" y="-1305.1" font-family="Sans-Serif" font-size="13.00" fill="#2d3436">amadeus.t_ama_valeurs_plus40_datastudio_gads</text>
</g>
<!-- 98650efa233e4456bf3f89f1192f3138&#45;&gt;1075fc07345c4a1eb0d9e70d82af0da6 -->
<g id="edge26" class="edge">
<title>98650efa233e4456bf3f89f1192f3138&#45;&gt;1075fc07345c4a1eb0d9e70d82af0da6</title>
<path fill="none" stroke="#7b8894" d="M899.09,-1593.7C989.63,-1593.7 1170,-1593.7 1170,-1593.7 1170,-1593.7 1170,-1392.83 1170,-1392.83 1170,-1392.83 1197.79,-1392.83 1197.79,-1392.83"/>
<polygon fill="#7b8894" stroke="#7b8894" points="1197.79,-1396.33 1207.79,-1392.83 1197.79,-1389.33 1197.79,-1396.33"/>
<text text-anchor="middle" x="1043" y="-1447.6" font-family="Sans-Serif" font-size="13.00" fill="darkgrey">t_valeurs_plus40_datastudio_gads</text>
</g>
<!-- 61067c1d9bae4ca7ac38c687cfd7d9b8 -->
<g id="node26" class="node">
<title>61067c1d9bae4ca7ac38c687cfd7d9b8</title>
<image xlink:href="icons/bigquery.png" width="101px" height="101px" preserveAspectRatio="xMinYMin meet" x="1208" y="-1600.5"/>
<text text-anchor="middle" x="1258.5" y="-1485.1" font-family="Sans-Serif" font-size="13.00" fill="#2d3436">amadeus.t_ama_valeurs_datastudio_gads</text>
</g>
<!-- 98650efa233e4456bf3f89f1192f3138&#45;&gt;61067c1d9bae4ca7ac38c687cfd7d9b8 -->
<g id="edge27" class="edge">
<title>98650efa233e4456bf3f89f1192f3138&#45;&gt;61067c1d9bae4ca7ac38c687cfd7d9b8</title>
<path fill="none" stroke="#7b8894" d="M899.19,-1606.1C899.19,-1606.1 1197.93,-1606.1 1197.93,-1606.1"/>
<polygon fill="#7b8894" stroke="#7b8894" points="1197.93,-1609.6 1207.93,-1606.1 1197.93,-1602.6 1197.93,-1609.6"/>
<text text-anchor="middle" x="1043" y="-1583.6" font-family="Sans-Serif" font-size="13.00" fill="darkgrey">t_valeurs_datastudio_gads</text>
</g>
<!-- 9fa1fe46b0c34cee9bc541e9338bf019 -->
<g id="node27" class="node">
<title>9fa1fe46b0c34cee9bc541e9338bf019</title>
<image xlink:href="icons/bigquery.png" width="101px" height="101px" preserveAspectRatio="xMinYMin meet" x="1208" y="-1780.5"/>
<text text-anchor="middle" x="1258.5" y="-1665.1" font-family="Sans-Serif" font-size="13.00" fill="#2d3436">amadeus.t_ama_valeurs_sousindicateur_gads</text>
</g>
<!-- 98650efa233e4456bf3f89f1192f3138&#45;&gt;9fa1fe46b0c34cee9bc541e9338bf019 -->
<g id="edge28" class="edge">
<title>98650efa233e4456bf3f89f1192f3138&#45;&gt;9fa1fe46b0c34cee9bc541e9338bf019</title>
<path fill="none" stroke="#7b8894" d="M899.19,-1669.5C899.19,-1669.5 1197.93,-1669.5 1197.93,-1669.5"/>
<polygon fill="#7b8894" stroke="#7b8894" points="1197.93,-1673 1207.93,-1669.5 1197.93,-1666 1197.93,-1673"/>
<text text-anchor="middle" x="1043" y="-1674.6" font-family="Sans-Serif" font-size="13.00" fill="darkgrey">t_valeurs_sousindicateur_gads</text>
</g>
<!-- e818072070ac47269ea5f67ddcca2efb -->
<g id="node28" class="node">
<title>e818072070ac47269ea5f67ddcca2efb</title>
<image xlink:href="icons/bigquery.png" width="101px" height="101px" preserveAspectRatio="xMinYMin meet" x="1208" y="-1960.5"/>
<text text-anchor="middle" x="1258.5" y="-1845.1" font-family="Sans-Serif" font-size="13.00" fill="#2d3436">amadeus.t_ama_anciennes_valeurs_gads</text>
</g>
<!-- 98650efa233e4456bf3f89f1192f3138&#45;&gt;e818072070ac47269ea5f67ddcca2efb -->
<g id="edge29" class="edge">
<title>98650efa233e4456bf3f89f1192f3138&#45;&gt;e818072070ac47269ea5f67ddcca2efb</title>
<path fill="none" stroke="#7b8894" d="M899.01,-1677.5C980.26,-1677.5 1131,-1677.5 1131,-1677.5 1131,-1677.5 1131,-1887.17 1131,-1887.17 1131,-1887.17 1197.74,-1887.17 1197.74,-1887.17"/>
<polygon fill="#7b8894" stroke="#7b8894" points="1197.74,-1890.67 1207.74,-1887.17 1197.74,-1883.67 1197.74,-1890.67"/>
<text text-anchor="middle" x="1043" y="-1825.6" font-family="Sans-Serif" font-size="13.00" fill="darkgrey">t_anciennes_valeurs_gads</text>
</g>
<!-- 7a72b951fa4b4a12bc752a5842891d99 -->
<g id="node29" class="node">
<title>7a72b951fa4b4a12bc752a5842891d99</title>
<image xlink:href="icons/bigquery.png" width="101px" height="101px" preserveAspectRatio="xMinYMin meet" x="1208" y="-1240.5"/>
<text text-anchor="middle" x="1258.5" y="-1125.1" font-family="Sans-Serif" font-size="13.00" fill="#2d3436">amadeus.t_ama_anciennes_valeurs_sousindicateur_gads</text>
</g>
<!-- 98650efa233e4456bf3f89f1192f3138&#45;&gt;7a72b951fa4b4a12bc752a5842891d99 -->
<g id="edge30" class="edge">
<title>98650efa233e4456bf3f89f1192f3138&#45;&gt;7a72b951fa4b4a12bc752a5842891d99</title>
<path fill="none" stroke="#7b8894" d="M899.36,-1581.3C948.32,-1581.3 1015,-1581.3 1015,-1581.3 1015,-1581.3 1015,-1190 1015,-1190 1015,-1190 1197.75,-1190 1197.75,-1190"/>
<polygon fill="#7b8894" stroke="#7b8894" points="1197.75,-1193.5 1207.75,-1190 1197.75,-1186.5 1197.75,-1193.5"/>
<text text-anchor="middle" x="1043" y="-1352.6" font-family="Sans-Serif" font-size="13.00" fill="darkgrey">t_anciennes_valeurs_sousindicateur_gads</text>
</g>
<!-- 730dbc2e9bbc4ce9b85a3dc4ca92961f -->
<g id="node18" class="node">
<title>730dbc2e9bbc4ce9b85a3dc4ca92961f</title>
<image xlink:href="icons/bigquery.png" width="101px" height="101px" preserveAspectRatio="xMinYMin meet" x="1527" y="-959.5"/>
<text text-anchor="middle" x="1577.5" y="-844.1" font-family="Sans-Serif" font-size="13.00" fill="#2d3436">amadeus.t_ama_leads_appels</text>
</g>
<!-- c2f71bb3e5854023af69bf4261989b2a&#45;&gt;730dbc2e9bbc4ce9b85a3dc4ca92961f -->
<g id="edge17" class="edge">
<title>c2f71bb3e5854023af69bf4261989b2a&#45;&gt;730dbc2e9bbc4ce9b85a3dc4ca92961f</title>
<path fill="none" stroke="#7b8894" d="M1309.05,-909C1309.05,-909 1516.93,-909 1516.93,-909"/>
<polygon fill="#7b8894" stroke="#7b8894" points="1516.93,-912.5 1526.93,-909 1516.93,-905.5 1516.93,-912.5"/>
<text text-anchor="middle" x="1428.5" y="-912.6" font-family="Sans-Serif" font-size="13.00" fill="darkgrey">t_leads_appels</text>
</g>
<!-- 45f1a5d55afb413d84b000649ea6eb42 -->
<g id="node16" class="node">
<title>45f1a5d55afb413d84b000649ea6eb42</title>
<image xlink:href="icons/bigquery.png" width="101px" height="101px" preserveAspectRatio="xMinYMin meet" x="426" y="-1600.5"/>
<text text-anchor="middle" x="476.5" y="-1485.1" font-family="Sans-Serif" font-size="13.00" fill="#2d3436">amadeus.e_ama_appels_2020</text>
</g>
<!-- 45f1a5d55afb413d84b000649ea6eb42&#45;&gt;98650efa233e4456bf3f89f1192f3138 -->
<g id="edge15" class="edge">
<title>45f1a5d55afb413d84b000649ea6eb42&#45;&gt;98650efa233e4456bf3f89f1192f3138</title>
<path fill="none" stroke="#7b8894" d="M527.06,-1587.5C527.06,-1587.5 787.76,-1587.5 787.76,-1587.5"/>
<polygon fill="#7b8894" stroke="#7b8894" points="787.76,-1591 797.76,-1587.5 787.76,-1584 787.76,-1591"/>
<text text-anchor="middle" x="662.5" y="-1582.6" font-family="Sans-Serif" font-size="13.00" fill="darkgrey">t_appels</text>
</g>
<!-- db87eb190ea5439a95a0edf19e4359df -->
<g id="node17" class="node">
<title>db87eb190ea5439a95a0edf19e4359df</title>
<image xlink:href="icons/bigquery.png" width="101px" height="101px" preserveAspectRatio="xMinYMin meet" x="426" y="-1780.5"/>
<text text-anchor="middle" x="476.5" y="-1665.1" font-family="Sans-Serif" font-size="13.00" fill="#2d3436">amadeus.e_ama_appels_2018_2019</text>
</g>
<!-- db87eb190ea5439a95a0edf19e4359df&#45;&gt;98650efa233e4456bf3f89f1192f3138 -->
<g id="edge16" class="edge">
<title>db87eb190ea5439a95a0edf19e4359df&#45;&gt;98650efa233e4456bf3f89f1192f3138</title>
<path fill="none" stroke="#7b8894" d="M527.06,-1672.17C527.06,-1672.17 787.76,-1672.17 787.76,-1672.17"/>
<polygon fill="#7b8894" stroke="#7b8894" points="787.76,-1675.67 797.76,-1672.17 787.76,-1668.67 787.76,-1675.67"/>
<text text-anchor="middle" x="662.5" y="-1674.6" font-family="Sans-Serif" font-size="13.00" fill="darkgrey">t_appels</text>
</g>
<!-- f951a0a2e44243e0b9f7d58eb918bd67&#45;&gt;aeb2591453d24fbb9f194f7575bc6165 -->
<g id="edge20" class="edge">
<title>f951a0a2e44243e0b9f7d58eb918bd67&#45;&gt;aeb2591453d24fbb9f194f7575bc6165</title>
<path fill="none" stroke="#7b8894" d="M1309.13,-2090C1399.22,-2090 1578,-2090 1578,-2090 1578,-2090 1578,-1423.75 1578,-1423.75"/>
<polygon fill="#7b8894" stroke="#7b8894" points="1581.5,-1423.75 1578,-1413.75 1574.5,-1423.75 1581.5,-1423.75"/>
<text text-anchor="middle" x="1428.5" y="-1604.6" font-family="Sans-Serif" font-size="13.00" fill="darkgrey">t_contrats_appels_leviers</text>
</g>
<!-- 1a4c2a4b19b647c99c98256eb72de168 -->
<g id="node21" class="node">
<title>1a4c2a4b19b647c99c98256eb72de168</title>
<image xlink:href="icons/storage.png" width="101px" height="101px" preserveAspectRatio="xMinYMin meet" x="16" y="-1240.5"/>
<text text-anchor="middle" x="66.5" y="-1125.1" font-family="Sans-Serif" font-size="13.00" fill="#2d3436">amadeus_bi.eloqua/AMA_GOOG_RETR_MARK_ELQC_315_*</text>
</g>
<!-- 0c9cda145ed14ddaa8a2e5ea3e896e5c -->
<g id="node22" class="node">
<title>0c9cda145ed14ddaa8a2e5ea3e896e5c</title>
<image xlink:href="icons/bigquery.png" width="101px" height="101px" preserveAspectRatio="xMinYMin meet" x="426" y="-1240.5"/>
<text text-anchor="middle" x="476.5" y="-1125.1" font-family="Sans-Serif" font-size="13.00" fill="#2d3436">eloqua.e_elq_promo_applis_mobiles_clics_emails</text>
</g>
<!-- 1a4c2a4b19b647c99c98256eb72de168&#45;&gt;0c9cda145ed14ddaa8a2e5ea3e896e5c -->
<g id="edge22" class="edge">
<title>1a4c2a4b19b647c99c98256eb72de168&#45;&gt;0c9cda145ed14ddaa8a2e5ea3e896e5c</title>
<path fill="none" stroke="#7b8894" d="M117.19,-1190C117.19,-1190 415.93,-1190 415.93,-1190"/>
<polygon fill="#7b8894" stroke="#7b8894" points="415.93,-1193.5 425.93,-1190 415.93,-1186.5 415.93,-1193.5"/>
<text text-anchor="middle" x="271.5" y="-1193.6" font-family="Sans-Serif" font-size="13.00" fill="darkgrey">e_elq_promo_applis_mobiles_clics_emails</text>
</g>
<!-- 0c9cda145ed14ddaa8a2e5ea3e896e5c&#45;&gt;c27372e521604784827d223d609234ca -->
<g id="edge23" class="edge">
<title>0c9cda145ed14ddaa8a2e5ea3e896e5c&#45;&gt;c27372e521604784827d223d609234ca</title>
<path fill="none" stroke="#7b8894" d="M527.06,-1190C527.06,-1190 787.76,-1190 787.76,-1190"/>
<polygon fill="#7b8894" stroke="#7b8894" points="787.76,-1193.5 797.76,-1190 787.76,-1186.5 787.76,-1193.5"/>
<text text-anchor="middle" x="662.5" y="-1193.6" font-family="Sans-Serif" font-size="13.00" fill="darkgrey">t_elq_promo_applis_mobiles_tlgt_appli</text>
</g>
<!-- f08a09cebbc543a38d8dd987aa2bf1c0 -->
<g id="node30" class="node">
<title>f08a09cebbc543a38d8dd987aa2bf1c0</title>
<image xlink:href="icons/bigquery.png" width="101px" height="101px" preserveAspectRatio="xMinYMin meet" x="16" y="-1060.5"/>
<text text-anchor="middle" x="66.5" y="-945.1" font-family="Sans-Serif" font-size="13.00" fill="#2d3436">comper.t_v_digi_cube_valeur</text>
</g>
<!-- 81f93ff637404c4fa5711ec11e6ec616 -->
<g id="node31" class="node">
<title>81f93ff637404c4fa5711ec11e6ec616</title>
<image xlink:href="icons/bigquery.png" width="101px" height="101px" preserveAspectRatio="xMinYMin meet" x="426" y="-1060.5"/>
<text text-anchor="middle" x="476.5" y="-945.1" font-family="Sans-Serif" font-size="13.00" fill="#2d3436">amadeus.t_ama_parrainage</text>
</g>
<!-- f08a09cebbc543a38d8dd987aa2bf1c0&#45;&gt;81f93ff637404c4fa5711ec11e6ec616 -->
<g id="edge31" class="edge">
<title>f08a09cebbc543a38d8dd987aa2bf1c0&#45;&gt;81f93ff637404c4fa5711ec11e6ec616</title>
<path fill="none" stroke="#7b8894" d="M117.19,-1010C117.19,-1010 415.93,-1010 415.93,-1010"/>
<polygon fill="#7b8894" stroke="#7b8894" points="415.93,-1013.5 425.93,-1010 415.93,-1006.5 415.93,-1013.5"/>
<text text-anchor="middle" x="271.5" y="-1013.6" font-family="Sans-Serif" font-size="13.00" fill="darkgrey">t_parrainage</text>
</g>
<!-- 1e5c024a32f745b3bf7403d4c55171cf -->
<g id="node32" class="node">
<title>1e5c024a32f745b3bf7403d4c55171cf</title>
<image xlink:href="icons/bigquery.png" width="101px" height="101px" preserveAspectRatio="xMinYMin meet" x="798" y="-1060.5"/>
<text text-anchor="middle" x="848.5" y="-945.1" font-family="Sans-Serif" font-size="13.00" fill="#2d3436">comper.l_ama_to_ds_comper_t_ama_parrainage</text>
</g>
<!-- 81f93ff637404c4fa5711ec11e6ec616&#45;&gt;1e5c024a32f745b3bf7403d4c55171cf -->
<g id="edge32" class="edge">
<title>81f93ff637404c4fa5711ec11e6ec616&#45;&gt;1e5c024a32f745b3bf7403d4c55171cf</title>
<path fill="none" stroke="#7b8894" d="M527.06,-1010C527.06,-1010 787.76,-1010 787.76,-1010"/>
<polygon fill="#7b8894" stroke="#7b8894" points="787.76,-1013.5 797.76,-1010 787.76,-1006.5 787.76,-1013.5"/>
<text text-anchor="middle" x="662.5" y="-1013.6" font-family="Sans-Serif" font-size="13.00" fill="darkgrey">l_to_ds_comper_t_ama_parrainage</text>
</g>
<!-- 125c7bfdb4754f6c822c81936e940798 -->
<g id="node33" class="node">
<title>125c7bfdb4754f6c822c81936e940798</title>
<image xlink:href="icons/bigquery.png" width="101px" height="101px" preserveAspectRatio="xMinYMin meet" x="16" y="-880.5"/>
<text text-anchor="middle" x="66.5" y="-765.1" font-family="Sans-Serif" font-size="13.00" fill="#2d3436">amadeus.e_gsheet_contrats_services</text>
</g>
<!-- 48a9731d0a03462888c9358aa8ff36e1 -->
<g id="node34" class="node">
<title>48a9731d0a03462888c9358aa8ff36e1</title>
<image xlink:href="icons/bigquery.png" width="101px" height="101px" preserveAspectRatio="xMinYMin meet" x="426" y="-880.5"/>
<text text-anchor="middle" x="476.5" y="-765.1" font-family="Sans-Serif" font-size="13.00" fill="#2d3436">comper.l_ama_to_ds_comper_contrats_services</text>
</g>
<!-- 125c7bfdb4754f6c822c81936e940798&#45;&gt;48a9731d0a03462888c9358aa8ff36e1 -->
<g id="edge33" class="edge">
<title>125c7bfdb4754f6c822c81936e940798&#45;&gt;48a9731d0a03462888c9358aa8ff36e1</title>
<path fill="none" stroke="#7b8894" d="M117.19,-830C117.19,-830 415.93,-830 415.93,-830"/>
<polygon fill="#7b8894" stroke="#7b8894" points="415.93,-833.5 425.93,-830 415.93,-826.5 415.93,-833.5"/>
<text text-anchor="middle" x="271.5" y="-833.6" font-family="Sans-Serif" font-size="13.00" fill="darkgrey">l_to_ds_comper_contrats_services</text>
</g>
<!-- e7ea06180ca242ddab87dad080185bd2 -->
<g id="node35" class="node">
<title>e7ea06180ca242ddab87dad080185bd2</title>
<image xlink:href="icons/bigquery.png" width="101px" height="101px" preserveAspectRatio="xMinYMin meet" x="16" y="-700.5"/>
<text text-anchor="middle" x="66.5" y="-585.1" font-family="Sans-Serif" font-size="13.00" fill="#2d3436">reporting_equipements.bout_en_bout_equipements</text>
</g>
<!-- 3a0afbe78d114d0b99ab54b3e18731b0 -->
<g id="node36" class="node">
<title>3a0afbe78d114d0b99ab54b3e18731b0</title>
<image xlink:href="icons/bigquery.png" width="101px" height="101px" preserveAspectRatio="xMinYMin meet" x="426" y="-700.5"/>
<text text-anchor="middle" x="476.5" y="-585.1" font-family="Sans-Serif" font-size="13.00" fill="#2d3436">comper.l_ama_to_ds_comper_bout_en_bout_equipements</text>
</g>
<!-- e7ea06180ca242ddab87dad080185bd2&#45;&gt;3a0afbe78d114d0b99ab54b3e18731b0 -->
<g id="edge34" class="edge">
<title>e7ea06180ca242ddab87dad080185bd2&#45;&gt;3a0afbe78d114d0b99ab54b3e18731b0</title>
<path fill="none" stroke="#7b8894" d="M117.19,-650C117.19,-650 415.93,-650 415.93,-650"/>
<polygon fill="#7b8894" stroke="#7b8894" points="415.93,-653.5 425.93,-650 415.93,-646.5 415.93,-653.5"/>
<text text-anchor="middle" x="271.5" y="-653.6" font-family="Sans-Serif" font-size="13.00" fill="darkgrey">l_to_ds_comper_bout_en_bout_equipements</text>
</g>
<!-- 9979f307b6814f0dab21cde504439d7b -->
<g id="node37" class="node">
<title>9979f307b6814f0dab21cde504439d7b</title>
<image xlink:href="icons/bigquery.png" width="101px" height="101px" preserveAspectRatio="xMinYMin meet" x="16" y="-520.5"/>
<text text-anchor="middle" x="66.5" y="-405.1" font-family="Sans-Serif" font-size="13.00" fill="#2d3436">amadeus.e_ama_options_vertes</text>
</g>
<!-- 1fd73ce7a086416caae623b9c18e1338 -->
<g id="node38" class="node">
<title>1fd73ce7a086416caae623b9c18e1338</title>
<image xlink:href="icons/bigquery.png" width="101px" height="101px" preserveAspectRatio="xMinYMin meet" x="426" y="-520.5"/>
<text text-anchor="middle" x="476.5" y="-405.1" font-family="Sans-Serif" font-size="13.00" fill="#2d3436">comper.t_ama_options_vertes</text>
</g>
<!-- 9979f307b6814f0dab21cde504439d7b&#45;&gt;1fd73ce7a086416caae623b9c18e1338 -->
<g id="edge35" class="edge">
<title>9979f307b6814f0dab21cde504439d7b&#45;&gt;1fd73ce7a086416caae623b9c18e1338</title>
<path fill="none" stroke="#7b8894" d="M117.19,-470C117.19,-470 415.93,-470 415.93,-470"/>
<polygon fill="#7b8894" stroke="#7b8894" points="415.93,-473.5 425.93,-470 415.93,-466.5 415.93,-473.5"/>
<text text-anchor="middle" x="271.5" y="-473.6" font-family="Sans-Serif" font-size="13.00" fill="darkgrey">t_options_vertes</text>
</g>
<!-- 4807f87bdb4742ea9bcc51309bdbe41c -->
<g id="node39" class="node">
<title>4807f87bdb4742ea9bcc51309bdbe41c</title>
<image xlink:href="icons/bigquery.png" width="101px" height="101px" preserveAspectRatio="xMinYMin meet" x="798" y="-520.5"/>
<text text-anchor="middle" x="848.5" y="-405.1" font-family="Sans-Serif" font-size="13.00" fill="#2d3436">comper.l_ama_to_ds_comper_options_vertes</text>
</g>
<!-- 1fd73ce7a086416caae623b9c18e1338&#45;&gt;4807f87bdb4742ea9bcc51309bdbe41c -->
<g id="edge36" class="edge">
<title>1fd73ce7a086416caae623b9c18e1338&#45;&gt;4807f87bdb4742ea9bcc51309bdbe41c</title>
<path fill="none" stroke="#7b8894" d="M527.06,-470C527.06,-470 787.76,-470 787.76,-470"/>
<polygon fill="#7b8894" stroke="#7b8894" points="787.76,-473.5 797.76,-470 787.76,-466.5 787.76,-473.5"/>
<text text-anchor="middle" x="662.5" y="-473.6" font-family="Sans-Serif" font-size="13.00" fill="darkgrey">l_to_ds_comper_options_vertes</text>
</g>
<!-- 1b9cc80afff04e4383687ceeca1bfb3e -->
<g id="node40" class="node">
<title>1b9cc80afff04e4383687ceeca1bfb3e</title>
<image xlink:href="icons/bigquery.png" width="101px" height="101px" preserveAspectRatio="xMinYMin meet" x="16" y="-340.5"/>
<text text-anchor="middle" x="66.5" y="-225.1" font-family="Sans-Serif" font-size="13.00" fill="#2d3436">amadeus.e_ama_prelevement_mensualisation</text>
</g>
<!-- 450614a008364aeaa9c66baa8ac3f96b -->
<g id="node41" class="node">
<title>450614a008364aeaa9c66baa8ac3f96b</title>
<image xlink:href="icons/bigquery.png" width="101px" height="101px" preserveAspectRatio="xMinYMin meet" x="426" y="-340.5"/>
<text text-anchor="middle" x="476.5" y="-225.1" font-family="Sans-Serif" font-size="13.00" fill="#2d3436">comper.l_ama_to_ds_comper_prelevement_mensualisation</text>
</g>
<!-- 1b9cc80afff04e4383687ceeca1bfb3e&#45;&gt;450614a008364aeaa9c66baa8ac3f96b -->
<g id="edge37" class="edge">
<title>1b9cc80afff04e4383687ceeca1bfb3e&#45;&gt;450614a008364aeaa9c66baa8ac3f96b</title>
<path fill="none" stroke="#7b8894" d="M117.19,-290C117.19,-290 415.93,-290 415.93,-290"/>
<polygon fill="#7b8894" stroke="#7b8894" points="415.93,-293.5 425.93,-290 415.93,-286.5 415.93,-293.5"/>
<text text-anchor="middle" x="271.5" y="-293.6" font-family="Sans-Serif" font-size="13.00" fill="darkgrey">l_to_ds_comper_prelevement_mensualisation</text>
</g>
<!-- 6139627f6729467990930603de1b1f43 -->
<g id="node42" class="node">
<title>6139627f6729467990930603de1b1f43</title>
<image xlink:href="icons/bigquery.png" width="101px" height="101px" preserveAspectRatio="xMinYMin meet" x="16" y="-160.5"/>
<text text-anchor="middle" x="66.5" y="-45.1" font-family="Sans-Serif" font-size="13.00" fill="#2d3436">amadeus.e_gsheet_activation_energie</text>
</g>
<!-- 71fe72f7172f41c8a4378ef6ea2e3519 -->
<g id="node43" class="node">
<title>71fe72f7172f41c8a4378ef6ea2e3519</title>
<image xlink:href="icons/bigquery.png" width="101px" height="101px" preserveAspectRatio="xMinYMin meet" x="426" y="-160.5"/>
<text text-anchor="middle" x="476.5" y="-45.1" font-family="Sans-Serif" font-size="13.00" fill="#2d3436">comper.l_ama_to_ds_comper_activation_energie</text>
</g>
<!-- 6139627f6729467990930603de1b1f43&#45;&gt;71fe72f7172f41c8a4378ef6ea2e3519 -->
<g id="edge38" class="edge">
<title>6139627f6729467990930603de1b1f43&#45;&gt;71fe72f7172f41c8a4378ef6ea2e3519</title>
<path fill="none" stroke="#7b8894" d="M117.19,-110C117.19,-110 415.93,-110 415.93,-110"/>
<polygon fill="#7b8894" stroke="#7b8894" points="415.93,-113.5 425.93,-110 415.93,-106.5 415.93,-113.5"/>
<text text-anchor="middle" x="271.5" y="-113.6" font-family="Sans-Serif" font-size="13.00" fill="darkgrey">l_to_ds_comper_activation_energie</text>
</g>
</g>
</svg>
