<?xml version="1.0" encoding="UTF-8" standalone="no"?>
<!DOCTYPE svg PUBLIC "-//W3C//DTD SVG 1.1//EN"
 "http://www.w3.org/Graphics/SVG/1.1/DTD/svg11.dtd">
<!-- Generated by graphviz version 2.47.1 (20210417.1919)
 -->
<!-- Title: amadeus Pages: 1 -->
<svg width="1932pt" height="2844pt"
 viewBox="0.00 0.00 1932.00 2844.00" xmlns="http://www.w3.org/2000/svg" xmlns:xlink="http://www.w3.org/1999/xlink">
<g id="graph0" class="graph" transform="scale(1 1) rotate(0) translate(144 2700)">
<title>amadeus</title>
<text text-anchor="middle" x="822" y="-9" font-family="Sans-Serif" font-size="15.00" fill="#2d3436">amadeus</text>
<g id="clust1" class="cluster">
<title>cluster_amadeus</title>
<path fill="#e5f5fd" stroke="#aeb6be" d="M20,-33C20,-33 1624,-33 1624,-33 1630,-33 1636,-39 1636,-45 1636,-45 1636,-2536 1636,-2536 1636,-2542 1630,-2548 1624,-2548 1624,-2548 20,-2548 20,-2548 14,-2548 8,-2542 8,-2536 8,-2536 8,-45 8,-45 8,-39 14,-33 20,-33"/>
<text text-anchor="middle" x="40" y="-2534.4" font-family="Sans-Serif" font-size="12.00" fill="#2d3436">amadeus</text>
</g>
<!-- da3d3f181b964ce8bde953ef0daa7285 -->
<g id="node1" class="node">
<title>da3d3f181b964ce8bde953ef0daa7285</title>
<image xlink:href="icons/storage.png" width="101px" height="101px" preserveAspectRatio="xMinYMin meet" x="16" y="-2500.5"/>
<text text-anchor="middle" x="66.5" y="-2385.1" font-family="Sans-Serif" font-size="13.00" fill="#2d3436">amadeus_bi.formulaires/GA_VENT_DIGT_</text>
</g>
<!-- eac2d41f243c408eabcb5c0d4faa9d7e -->
<g id="node2" class="node">
<title>eac2d41f243c408eabcb5c0d4faa9d7e</title>
<image xlink:href="icons/bigquery.png" width="101px" height="101px" preserveAspectRatio="xMinYMin meet" x="426" y="-2500.5"/>
<text text-anchor="middle" x="476.5" y="-2385.1" font-family="Sans-Serif" font-size="13.00" fill="#2d3436">amadeus.e_ama_formulaires_stor</text>
</g>
<!-- da3d3f181b964ce8bde953ef0daa7285&#45;&gt;eac2d41f243c408eabcb5c0d4faa9d7e -->
<g id="edge1" class="edge">
<title>da3d3f181b964ce8bde953ef0daa7285&#45;&gt;eac2d41f243c408eabcb5c0d4faa9d7e</title>
<path fill="none" stroke="#7b8894" d="M117.19,-2450C117.19,-2450 415.93,-2450 415.93,-2450"/>
<polygon fill="#7b8894" stroke="#7b8894" points="415.93,-2453.5 425.93,-2450 415.93,-2446.5 415.93,-2453.5"/>
<text text-anchor="middle" x="271.5" y="-2453.6" font-family="Sans-Serif" font-size="13.00" fill="darkgrey">e_formulaires</text>
</g>
<!-- e95511429f2449eb8cf624cd1e82104b -->
<g id="node5" class="node">
<title>e95511429f2449eb8cf624cd1e82104b</title>
<image xlink:href="icons/bigquery.png" width="101px" height="101px" preserveAspectRatio="xMinYMin meet" x="798" y="-2320.5"/>
<text text-anchor="middle" x="848.5" y="-2205.1" font-family="Sans-Serif" font-size="13.00" fill="#2d3436">amadeus.t_ama_formulaires_campagnes</text>
</g>
<!-- eac2d41f243c408eabcb5c0d4faa9d7e&#45;&gt;e95511429f2449eb8cf624cd1e82104b -->
<g id="edge3" class="edge">
<title>eac2d41f243c408eabcb5c0d4faa9d7e&#45;&gt;e95511429f2449eb8cf624cd1e82104b</title>
<path fill="none" stroke="#7b8894" d="M494,-2381.33C494,-2369.01 494,-2360 494,-2360 494,-2360 849,-2360 849,-2360 849,-2360 849,-2348.67 849,-2348.67"/>
<polygon fill="#7b8894" stroke="#7b8894" points="852.5,-2348.67 849,-2338.67 845.5,-2348.67 852.5,-2348.67"/>
<text text-anchor="middle" x="662.5" y="-2394.6" font-family="Sans-Serif" font-size="13.00" fill="darkgrey">t_formulaires_campagnes</text>
</g>
<!-- 1b6b7103328d47b0b04236b60e797c08 -->
<g id="node11" class="node">
<title>1b6b7103328d47b0b04236b60e797c08</title>
<image xlink:href="icons/bigquery.png" width="101px" height="101px" preserveAspectRatio="xMinYMin meet" x="798" y="-2500.5"/>
<text text-anchor="middle" x="848.5" y="-2385.1" font-family="Sans-Serif" font-size="13.00" fill="#2d3436">amadeus.t_ama_formulaires_verif_flux_ga</text>
</g>
<!-- eac2d41f243c408eabcb5c0d4faa9d7e&#45;&gt;1b6b7103328d47b0b04236b60e797c08 -->
<g id="edge9" class="edge">
<title>eac2d41f243c408eabcb5c0d4faa9d7e&#45;&gt;1b6b7103328d47b0b04236b60e797c08</title>
<path fill="none" stroke="#7b8894" d="M527.06,-2450C527.06,-2450 787.76,-2450 787.76,-2450"/>
<polygon fill="#7b8894" stroke="#7b8894" points="787.76,-2453.5 797.76,-2450 787.76,-2446.5 787.76,-2453.5"/>
<text text-anchor="middle" x="662.5" y="-2456.6" font-family="Sans-Serif" font-size="13.00" fill="darkgrey">t_formulaires_verif_flux_ga</text>
</g>
<!-- 7234da4e348f4107b52d85d7fb5108b6 -->
<g id="node3" class="node">
<title>7234da4e348f4107b52d85d7fb5108b6</title>
<image xlink:href="icons/storage.png" width="101px" height="101px" preserveAspectRatio="xMinYMin meet" x="16" y="-1960.5"/>
<text text-anchor="middle" x="66.5" y="-1845.1" font-family="Sans-Serif" font-size="13.00" fill="#2d3436">amadeus_bi.appels/GA_SVI_</text>
</g>
<!-- 240aa7e8099343b6831ac3ba6364069a -->
<g id="node4" class="node">
<title>240aa7e8099343b6831ac3ba6364069a</title>
<image xlink:href="icons/bigquery.png" width="101px" height="101px" preserveAspectRatio="xMinYMin meet" x="426" y="-1960.5"/>
<text text-anchor="middle" x="476.5" y="-1845.1" font-family="Sans-Serif" font-size="13.00" fill="#2d3436">amadeus.e_ama_appels</text>
</g>
<!-- 7234da4e348f4107b52d85d7fb5108b6&#45;&gt;240aa7e8099343b6831ac3ba6364069a -->
<g id="edge2" class="edge">
<title>7234da4e348f4107b52d85d7fb5108b6&#45;&gt;240aa7e8099343b6831ac3ba6364069a</title>
<path fill="none" stroke="#7b8894" d="M117.19,-1910C117.19,-1910 415.93,-1910 415.93,-1910"/>
<polygon fill="#7b8894" stroke="#7b8894" points="415.93,-1913.5 425.93,-1910 415.93,-1906.5 415.93,-1913.5"/>
<text text-anchor="middle" x="271.5" y="-1913.6" font-family="Sans-Serif" font-size="13.00" fill="darkgrey">e_appels</text>
</g>
<!-- 9eb91f876c6f482ba692cea927f635f7 -->
<g id="node14" class="node">
<title>9eb91f876c6f482ba692cea927f635f7</title>
<image xlink:href="icons/bigquery.png" width="101px" height="101px" preserveAspectRatio="xMinYMin meet" x="798" y="-1675.5"/>
<text text-anchor="middle" x="848.5" y="-1560.1" font-family="Sans-Serif" font-size="13.00" fill="#2d3436">amadeus.t_ama_appels</text>
</g>
<!-- 240aa7e8099343b6831ac3ba6364069a&#45;&gt;9eb91f876c6f482ba692cea927f635f7 -->
<g id="edge14" class="edge">
<title>240aa7e8099343b6831ac3ba6364069a&#45;&gt;9eb91f876c6f482ba692cea927f635f7</title>
<path fill="none" stroke="#7b8894" d="M527.46,-1910C582.68,-1910 663,-1910 663,-1910 663,-1910 663,-1682.83 663,-1682.83 663,-1682.83 787.81,-1682.83 787.81,-1682.83"/>
<polygon fill="#7b8894" stroke="#7b8894" points="787.81,-1686.33 797.81,-1682.83 787.81,-1679.33 787.81,-1686.33"/>
<text text-anchor="middle" x="662.5" y="-1853.6" font-family="Sans-Serif" font-size="13.00" fill="darkgrey">t_appels</text>
</g>
<!-- 19b388d9e3274358a47a1c2ad8589c74 -->
<g id="node24" class="node">
<title>19b388d9e3274358a47a1c2ad8589c74</title>
<image xlink:href="icons/bigquery.png" width="101px" height="101px" preserveAspectRatio="xMinYMin meet" x="798" y="-2140.5"/>
<text text-anchor="middle" x="848.5" y="-2025.1" font-family="Sans-Serif" font-size="13.00" fill="#2d3436">amadeus.t_ama_import_gads</text>
</g>
<!-- 240aa7e8099343b6831ac3ba6364069a&#45;&gt;19b388d9e3274358a47a1c2ad8589c74 -->
<g id="edge25" class="edge">
<title>240aa7e8099343b6831ac3ba6364069a&#45;&gt;19b388d9e3274358a47a1c2ad8589c74</title>
<path fill="none" stroke="#7b8894" d="M477,-1978.54C477,-1994.62 477,-2007.17 477,-2007.17 477,-2007.17 832,-2007.17 832,-2007.17 832,-2007.17 832,-2011.22 832,-2011.22"/>
<polygon fill="#7b8894" stroke="#7b8894" points="828.5,-2011.22 832,-2021.22 835.5,-2011.22 828.5,-2011.22"/>
<text text-anchor="middle" x="662.5" y="-1972.6" font-family="Sans-Serif" font-size="13.00" fill="darkgrey">t_import_gads</text>
</g>
<!-- 0ac276f74875460a97947b25ae70068c -->
<g id="node8" class="node">
<title>0ac276f74875460a97947b25ae70068c</title>
<image xlink:href="icons/bigquery.png" width="101px" height="101px" preserveAspectRatio="xMinYMin meet" x="1208" y="-2320.5"/>
<text text-anchor="middle" x="1258.5" y="-2205.1" font-family="Sans-Serif" font-size="13.00" fill="#2d3436">amadeus.t_ama_contrats_formulaires</text>
</g>
<!-- e95511429f2449eb8cf624cd1e82104b&#45;&gt;0ac276f74875460a97947b25ae70068c -->
<g id="edge6" class="edge">
<title>e95511429f2449eb8cf624cd1e82104b&#45;&gt;0ac276f74875460a97947b25ae70068c</title>
<path fill="none" stroke="#7b8894" d="M899.19,-2292.83C899.19,-2292.83 1197.93,-2292.83 1197.93,-2292.83"/>
<polygon fill="#7b8894" stroke="#7b8894" points="1197.93,-2296.33 1207.93,-2292.83 1197.93,-2289.33 1197.93,-2296.33"/>
<text text-anchor="middle" x="1043" y="-2273.6" font-family="Sans-Serif" font-size="13.00" fill="darkgrey">t_contrats_formulaires</text>
</g>
<!-- 9d9c7854fe8046459fe7638af65a93bc -->
<g id="node10" class="node">
<title>9d9c7854fe8046459fe7638af65a93bc</title>
<image xlink:href="icons/bigquery.png" width="101px" height="101px" preserveAspectRatio="xMinYMin meet" x="1208" y="-2500.5"/>
<text text-anchor="middle" x="1258.5" y="-2385.1" font-family="Sans-Serif" font-size="13.00" fill="#2d3436">amadeus.t_ama_leads_formulaires</text>
</g>
<!-- e95511429f2449eb8cf624cd1e82104b&#45;&gt;9d9c7854fe8046459fe7638af65a93bc -->
<g id="edge8" class="edge">
<title>e95511429f2449eb8cf624cd1e82104b&#45;&gt;9d9c7854fe8046459fe7638af65a93bc</title>
<path fill="none" stroke="#7b8894" d="M874,-2338.56C874,-2345.04 874,-2349.25 874,-2349.25 874,-2349.25 1259,-2349.25 1259,-2349.25 1259,-2349.25 1259,-2371.4 1259,-2371.4"/>
<polygon fill="#7b8894" stroke="#7b8894" points="1255.5,-2371.4 1259,-2381.4 1262.5,-2371.4 1255.5,-2371.4"/>
<text text-anchor="middle" x="1043" y="-2394.6" font-family="Sans-Serif" font-size="13.00" fill="darkgrey">t_leads_formulaires</text>
</g>
<!-- 81c1cae57b5a4faeaed62c55ef1709cf -->
<g id="node6" class="node">
<title>81c1cae57b5a4faeaed62c55ef1709cf</title>
<image xlink:href="icons/bigquery.png" width="101px" height="101px" preserveAspectRatio="xMinYMin meet" x="426" y="-2320.5"/>
<text text-anchor="middle" x="476.5" y="-2205.1" font-family="Sans-Serif" font-size="13.00" fill="#2d3436">ga.l_ga_to_ama_ga_formulaires_stor_*</text>
</g>
<!-- 81c1cae57b5a4faeaed62c55ef1709cf&#45;&gt;e95511429f2449eb8cf624cd1e82104b -->
<g id="edge4" class="edge">
<title>81c1cae57b5a4faeaed62c55ef1709cf&#45;&gt;e95511429f2449eb8cf624cd1e82104b</title>
<path fill="none" stroke="#7b8894" d="M527.06,-2270C527.06,-2270 787.76,-2270 787.76,-2270"/>
<polygon fill="#7b8894" stroke="#7b8894" points="787.76,-2273.5 797.76,-2270 787.76,-2266.5 787.76,-2273.5"/>
<text text-anchor="middle" x="662.5" y="-2270.6" font-family="Sans-Serif" font-size="13.00" fill="darkgrey">t_formulaires_campagnes</text>
</g>
<!-- 81c1cae57b5a4faeaed62c55ef1709cf&#45;&gt;1b6b7103328d47b0b04236b60e797c08 -->
<g id="edge10" class="edge">
<title>81c1cae57b5a4faeaed62c55ef1709cf&#45;&gt;1b6b7103328d47b0b04236b60e797c08</title>
<path fill="none" stroke="#7b8894" d="M460,-2338.6C460,-2356.43 460,-2370.75 460,-2370.75 460,-2370.75 824,-2370.75 824,-2370.75 824,-2370.75 824,-2371.82 824,-2371.82"/>
<polygon fill="#7b8894" stroke="#7b8894" points="820.5,-2371.44 824,-2381.44 827.5,-2371.44 820.5,-2371.44"/>
<text text-anchor="middle" x="662.5" y="-2332.6" font-family="Sans-Serif" font-size="13.00" fill="darkgrey">t_formulaires_verif_flux_ga</text>
</g>
<!-- 356b711edb93498eb0ca74a149157e0b -->
<g id="node7" class="node">
<title>356b711edb93498eb0ca74a149157e0b</title>
<image xlink:href="icons/bigquery.png" width="101px" height="101px" preserveAspectRatio="xMinYMin meet" x="426" y="-2140.5"/>
<text text-anchor="middle" x="476.5" y="-2025.1" font-family="Sans-Serif" font-size="13.00" fill="#2d3436">ga.t_ga_correspondance_hash_campagnes</text>
</g>
<!-- 356b711edb93498eb0ca74a149157e0b&#45;&gt;e95511429f2449eb8cf624cd1e82104b -->
<g id="edge5" class="edge">
<title>356b711edb93498eb0ca74a149157e0b&#45;&gt;e95511429f2449eb8cf624cd1e82104b</title>
<path fill="none" stroke="#7b8894" d="M477,-2158.67C477,-2170.99 477,-2180 477,-2180 477,-2180 849,-2180 849,-2180 849,-2180 849,-2191.33 849,-2191.33"/>
<polygon fill="#7b8894" stroke="#7b8894" points="845.5,-2191.33 849,-2201.33 852.5,-2191.33 845.5,-2191.33"/>
<text text-anchor="middle" x="662.5" y="-2152.6" font-family="Sans-Serif" font-size="13.00" fill="darkgrey">t_formulaires_campagnes</text>
</g>
<!-- b617bb2555ff4214b490eae253b3f43a -->
<g id="node9" class="node">
<title>b617bb2555ff4214b490eae253b3f43a</title>
<image xlink:href="icons/bigquery.png" width="101px" height="101px" preserveAspectRatio="xMinYMin meet" x="798" y="-1960.5"/>
<text text-anchor="middle" x="848.5" y="-1845.1" font-family="Sans-Serif" font-size="13.00" fill="#2d3436">comper.e_v_digi_import_cube_valeur</text>
</g>
<!-- b617bb2555ff4214b490eae253b3f43a&#45;&gt;0ac276f74875460a97947b25ae70068c -->
<g id="edge7" class="edge">
<title>b617bb2555ff4214b490eae253b3f43a&#45;&gt;0ac276f74875460a97947b25ae70068c</title>
<path fill="none" stroke="#7b8894" d="M899.03,-1932.83C959.88,-1932.83 1054,-1932.83 1054,-1932.83 1054,-1932.83 1054,-2247.17 1054,-2247.17 1054,-2247.17 1197.95,-2247.17 1197.95,-2247.17"/>
<polygon fill="#7b8894" stroke="#7b8894" points="1197.95,-2250.67 1207.95,-2247.17 1197.95,-2243.67 1197.95,-2250.67"/>
<text text-anchor="middle" x="1043" y="-2169.6" font-family="Sans-Serif" font-size="13.00" fill="darkgrey">t_contrats_formulaires</text>
</g>
<!-- a3fceb77760a4c4a918ecfbc4afe8511 -->
<g id="node19" class="node">
<title>a3fceb77760a4c4a918ecfbc4afe8511</title>
<image xlink:href="icons/bigquery.png" width="101px" height="101px" preserveAspectRatio="xMinYMin meet" x="1208" y="-2140.5"/>
<text text-anchor="middle" x="1258.5" y="-2025.1" font-family="Sans-Serif" font-size="13.00" fill="#2d3436">amadeus.t_ama_contrats_appels</text>
</g>
<!-- b617bb2555ff4214b490eae253b3f43a&#45;&gt;a3fceb77760a4c4a918ecfbc4afe8511 -->
<g id="edge19" class="edge">
<title>b617bb2555ff4214b490eae253b3f43a&#45;&gt;a3fceb77760a4c4a918ecfbc4afe8511</title>
<path fill="none" stroke="#7b8894" d="M866,-1978.78C866,-1987.16 866,-1992.83 866,-1992.83 866,-1992.83 1259,-1992.83 1259,-1992.83 1259,-1992.83 1259,-2011.46 1259,-2011.46"/>
<polygon fill="#7b8894" stroke="#7b8894" points="1255.5,-2011.46 1259,-2021.46 1262.5,-2011.46 1255.5,-2011.46"/>
<text text-anchor="middle" x="1043" y="-2065.6" font-family="Sans-Serif" font-size="13.00" fill="darkgrey">t_contrats_appels</text>
</g>
<!-- 294a4f857a2943f982eda274c1792923 -->
<g id="node12" class="node">
<title>294a4f857a2943f982eda274c1792923</title>
<image xlink:href="icons/bigquery.png" width="101px" height="101px" preserveAspectRatio="xMinYMin meet" x="426" y="-1420.5"/>
<text text-anchor="middle" x="476.5" y="-1305.1" font-family="Sans-Serif" font-size="13.00" fill="#2d3436">ga.t_ga_sessions</text>
</g>
<!-- 614111353d754f5fbd1d41997397cf76 -->
<g id="node13" class="node">
<title>614111353d754f5fbd1d41997397cf76</title>
<image xlink:href="icons/bigquery.png" width="101px" height="101px" preserveAspectRatio="xMinYMin meet" x="798" y="-1420.5"/>
<text text-anchor="middle" x="848.5" y="-1305.1" font-family="Sans-Serif" font-size="13.00" fill="#2d3436">amadeus.t_ama_appels_ga</text>
</g>
<!-- 294a4f857a2943f982eda274c1792923&#45;&gt;614111353d754f5fbd1d41997397cf76 -->
<g id="edge11" class="edge">
<title>294a4f857a2943f982eda274c1792923&#45;&gt;614111353d754f5fbd1d41997397cf76</title>
<path fill="none" stroke="#7b8894" d="M527.06,-1370C527.06,-1370 787.76,-1370 787.76,-1370"/>
<polygon fill="#7b8894" stroke="#7b8894" points="787.76,-1373.5 797.76,-1370 787.76,-1366.5 787.76,-1373.5"/>
<text text-anchor="middle" x="662.5" y="-1373.6" font-family="Sans-Serif" font-size="13.00" fill="darkgrey">t_appels_ga</text>
</g>
<!-- d178d7ccdb1d4f6f875fd8843e2056d8 -->
<g id="node23" class="node">
<title>d178d7ccdb1d4f6f875fd8843e2056d8</title>
<image xlink:href="icons/bigquery.png" width="101px" height="101px" preserveAspectRatio="xMinYMin meet" x="798" y="-1240.5"/>
<text text-anchor="middle" x="848.5" y="-1125.1" font-family="Sans-Serif" font-size="13.00" fill="#2d3436">eloqua.t_elq_promo_applis_mobiles_tlgt_appli</text>
</g>
<!-- 294a4f857a2943f982eda274c1792923&#45;&gt;d178d7ccdb1d4f6f875fd8843e2056d8 -->
<g id="edge24" class="edge">
<title>294a4f857a2943f982eda274c1792923&#45;&gt;d178d7ccdb1d4f6f875fd8843e2056d8</title>
<path fill="none" stroke="#7b8894" d="M477,-1301.35C477,-1282.67 477,-1267.5 477,-1267.5 477,-1267.5 866,-1267.5 866,-1267.5 866,-1267.5 866,-1266.61 866,-1266.61"/>
<polygon fill="#7b8894" stroke="#7b8894" points="869.5,-1268.61 866,-1258.61 862.5,-1268.61 869.5,-1268.61"/>
<text text-anchor="middle" x="662.5" y="-1283.6" font-family="Sans-Serif" font-size="13.00" fill="darkgrey">t_elq_promo_applis_mobiles_tlgt_appli</text>
</g>
<!-- 1dbf0dc2629c4f21898f94113080e607 -->
<g id="node15" class="node">
<title>1dbf0dc2629c4f21898f94113080e607</title>
<image xlink:href="icons/bigquery.png" width="101px" height="101px" preserveAspectRatio="xMinYMin meet" x="1208" y="-959.5"/>
<text text-anchor="middle" x="1258.5" y="-844.1" font-family="Sans-Serif" font-size="13.00" fill="#2d3436">amadeus.t_ama_appels_leviers</text>
</g>
<!-- 614111353d754f5fbd1d41997397cf76&#45;&gt;1dbf0dc2629c4f21898f94113080e607 -->
<g id="edge13" class="edge">
<title>614111353d754f5fbd1d41997397cf76&#45;&gt;1dbf0dc2629c4f21898f94113080e607</title>
<path fill="none" stroke="#7b8894" d="M899,-1347.17C919.31,-1347.17 938,-1347.17 938,-1347.17 938,-1347.17 938,-953.5 938,-953.5 938,-953.5 1197.72,-953.5 1197.72,-953.5"/>
<polygon fill="#7b8894" stroke="#7b8894" points="1197.72,-957 1207.72,-953.5 1197.72,-950 1197.72,-957"/>
<text text-anchor="middle" x="1043" y="-979.6" font-family="Sans-Serif" font-size="13.00" fill="darkgrey">t_appels_leviers</text>
</g>
<!-- 66cd5d042493476b9bca824a32b33d78 -->
<g id="node20" class="node">
<title>66cd5d042493476b9bca824a32b33d78</title>
<image xlink:href="icons/bigquery.png" width="101px" height="101px" preserveAspectRatio="xMinYMin meet" x="1527" y="-1395.5"/>
<text text-anchor="middle" x="1577.5" y="-1280.1" font-family="Sans-Serif" font-size="13.00" fill="#2d3436">amadeus.t_ama_contrats_appels_leviers</text>
</g>
<!-- 614111353d754f5fbd1d41997397cf76&#45;&gt;66cd5d042493476b9bca824a32b33d78 -->
<g id="edge21" class="edge">
<title>614111353d754f5fbd1d41997397cf76&#45;&gt;66cd5d042493476b9bca824a32b33d78</title>
<path fill="none" stroke="#7b8894" d="M832,-1301.3C832,-1293.91 832,-1289 832,-1289 832,-1289 1516.84,-1289 1516.84,-1289"/>
<polygon fill="#7b8894" stroke="#7b8894" points="1516.84,-1292.5 1526.84,-1289 1516.84,-1285.5 1516.84,-1292.5"/>
<text text-anchor="middle" x="1258.5" y="-1067.6" font-family="Sans-Serif" font-size="13.00" fill="darkgrey">t_contrats_appels_leviers</text>
</g>
<!-- 9eb91f876c6f482ba692cea927f635f7&#45;&gt;1dbf0dc2629c4f21898f94113080e607 -->
<g id="edge12" class="edge">
<title>9eb91f876c6f482ba692cea927f635f7&#45;&gt;1dbf0dc2629c4f21898f94113080e607</title>
<path fill="none" stroke="#7b8894" d="M899.29,-1568.9C935.2,-1568.9 977,-1568.9 977,-1568.9 977,-1568.9 977,-965.5 977,-965.5 977,-965.5 1197.85,-965.5 1197.85,-965.5"/>
<polygon fill="#7b8894" stroke="#7b8894" points="1197.85,-969 1207.85,-965.5 1197.85,-962 1197.85,-969"/>
<text text-anchor="middle" x="1043" y="-1224.6" font-family="Sans-Serif" font-size="13.00" fill="darkgrey">t_appels_leviers</text>
</g>
<!-- 9eb91f876c6f482ba692cea927f635f7&#45;&gt;a3fceb77760a4c4a918ecfbc4afe8511 -->
<g id="edge18" class="edge">
<title>9eb91f876c6f482ba692cea927f635f7&#45;&gt;a3fceb77760a4c4a918ecfbc4afe8511</title>
<path fill="none" stroke="#7b8894" d="M899.16,-1685.5C970.78,-1685.5 1093,-1685.5 1093,-1685.5 1093,-1685.5 1093,-2090 1093,-2090 1093,-2090 1197.95,-2090 1197.95,-2090"/>
<polygon fill="#7b8894" stroke="#7b8894" points="1197.95,-2093.5 1207.95,-2090 1197.95,-2086.5 1197.95,-2093.5"/>
<text text-anchor="middle" x="1043" y="-1945.6" font-family="Sans-Serif" font-size="13.00" fill="darkgrey">t_contrats_appels</text>
</g>
<!-- e5f71c85276e4c368f757f825f70eef7 -->
<g id="node25" class="node">
<title>e5f71c85276e4c368f757f825f70eef7</title>
<image xlink:href="icons/bigquery.png" width="101px" height="101px" preserveAspectRatio="xMinYMin meet" x="1208" y="-1420.5"/>
<text text-anchor="middle" x="1258.5" y="-1305.1" font-family="Sans-Serif" font-size="13.00" fill="#2d3436">amadeus.t_ama_valeurs_plus40_datastudio_gads</text>
</g>
<!-- 9eb91f876c6f482ba692cea927f635f7&#45;&gt;e5f71c85276e4c368f757f825f70eef7 -->
<g id="edge26" class="edge">
<title>9eb91f876c6f482ba692cea927f635f7&#45;&gt;e5f71c85276e4c368f757f825f70eef7</title>
<path fill="none" stroke="#7b8894" d="M899.09,-1593.7C989.63,-1593.7 1170,-1593.7 1170,-1593.7 1170,-1593.7 1170,-1392.83 1170,-1392.83 1170,-1392.83 1197.79,-1392.83 1197.79,-1392.83"/>
<polygon fill="#7b8894" stroke="#7b8894" points="1197.79,-1396.33 1207.79,-1392.83 1197.79,-1389.33 1197.79,-1396.33"/>
<text text-anchor="middle" x="1043" y="-1447.6" font-family="Sans-Serif" font-size="13.00" fill="darkgrey">t_valeurs_plus40_datastudio_gads</text>
</g>
<!-- 83ca20521f3f48328d1ee7302daa9b03 -->
<g id="node26" class="node">
<title>83ca20521f3f48328d1ee7302daa9b03</title>
<image xlink:href="icons/bigquery.png" width="101px" height="101px" preserveAspectRatio="xMinYMin meet" x="1208" y="-1600.5"/>
<text text-anchor="middle" x="1258.5" y="-1485.1" font-family="Sans-Serif" font-size="13.00" fill="#2d3436">amadeus.t_ama_valeurs_datastudio_gads</text>
</g>
<!-- 9eb91f876c6f482ba692cea927f635f7&#45;&gt;83ca20521f3f48328d1ee7302daa9b03 -->
<g id="edge27" class="edge">
<title>9eb91f876c6f482ba692cea927f635f7&#45;&gt;83ca20521f3f48328d1ee7302daa9b03</title>
<path fill="none" stroke="#7b8894" d="M899.19,-1606.1C899.19,-1606.1 1197.93,-1606.1 1197.93,-1606.1"/>
<polygon fill="#7b8894" stroke="#7b8894" points="1197.93,-1609.6 1207.93,-1606.1 1197.93,-1602.6 1197.93,-1609.6"/>
<text text-anchor="middle" x="1043" y="-1583.6" font-family="Sans-Serif" font-size="13.00" fill="darkgrey">t_valeurs_datastudio_gads</text>
</g>
<!-- 51abe704082f4de49e8dc07af271cbff -->
<g id="node27" class="node">
<title>51abe704082f4de49e8dc07af271cbff</title>
<image xlink:href="icons/bigquery.png" width="101px" height="101px" preserveAspectRatio="xMinYMin meet" x="1208" y="-1780.5"/>
<text text-anchor="middle" x="1258.5" y="-1665.1" font-family="Sans-Serif" font-size="13.00" fill="#2d3436">amadeus.t_ama_valeurs_sousindicateur_gads</text>
</g>
<!-- 9eb91f876c6f482ba692cea927f635f7&#45;&gt;51abe704082f4de49e8dc07af271cbff -->
<g id="edge28" class="edge">
<title>9eb91f876c6f482ba692cea927f635f7&#45;&gt;51abe704082f4de49e8dc07af271cbff</title>
<path fill="none" stroke="#7b8894" d="M899.19,-1669.5C899.19,-1669.5 1197.93,-1669.5 1197.93,-1669.5"/>
<polygon fill="#7b8894" stroke="#7b8894" points="1197.93,-1673 1207.93,-1669.5 1197.93,-1666 1197.93,-1673"/>
<text text-anchor="middle" x="1043" y="-1674.6" font-family="Sans-Serif" font-size="13.00" fill="darkgrey">t_valeurs_sousindicateur_gads</text>
</g>
<!-- 4cc2a5c38b674de5a9d1b109bbb67626 -->
<g id="node28" class="node">
<title>4cc2a5c38b674de5a9d1b109bbb67626</title>
<image xlink:href="icons/bigquery.png" width="101px" height="101px" preserveAspectRatio="xMinYMin meet" x="1208" y="-1960.5"/>
<text text-anchor="middle" x="1258.5" y="-1845.1" font-family="Sans-Serif" font-size="13.00" fill="#2d3436">amadeus.t_ama_anciennes_valeurs_gads</text>
</g>
<!-- 9eb91f876c6f482ba692cea927f635f7&#45;&gt;4cc2a5c38b674de5a9d1b109bbb67626 -->
<g id="edge29" class="edge">
<title>9eb91f876c6f482ba692cea927f635f7&#45;&gt;4cc2a5c38b674de5a9d1b109bbb67626</title>
<path fill="none" stroke="#7b8894" d="M899.01,-1677.5C980.26,-1677.5 1131,-1677.5 1131,-1677.5 1131,-1677.5 1131,-1887.17 1131,-1887.17 1131,-1887.17 1197.74,-1887.17 1197.74,-1887.17"/>
<polygon fill="#7b8894" stroke="#7b8894" points="1197.74,-1890.67 1207.74,-1887.17 1197.74,-1883.67 1197.74,-1890.67"/>
<text text-anchor="middle" x="1043" y="-1825.6" font-family="Sans-Serif" font-size="13.00" fill="darkgrey">t_anciennes_valeurs_gads</text>
</g>
<!-- 59cdf94907fa4f5c94c0f459f9ca488a -->
<g id="node29" class="node">
<title>59cdf94907fa4f5c94c0f459f9ca488a</title>
<image xlink:href="icons/bigquery.png" width="101px" height="101px" preserveAspectRatio="xMinYMin meet" x="1208" y="-1240.5"/>
<text text-anchor="middle" x="1258.5" y="-1125.1" font-family="Sans-Serif" font-size="13.00" fill="#2d3436">amadeus.t_ama_anciennes_valeurs_sousindicateur_gads</text>
</g>
<!-- 9eb91f876c6f482ba692cea927f635f7&#45;&gt;59cdf94907fa4f5c94c0f459f9ca488a -->
<g id="edge30" class="edge">
<title>9eb91f876c6f482ba692cea927f635f7&#45;&gt;59cdf94907fa4f5c94c0f459f9ca488a</title>
<path fill="none" stroke="#7b8894" d="M899.36,-1581.3C948.32,-1581.3 1015,-1581.3 1015,-1581.3 1015,-1581.3 1015,-1190 1015,-1190 1015,-1190 1197.75,-1190 1197.75,-1190"/>
<polygon fill="#7b8894" stroke="#7b8894" points="1197.75,-1193.5 1207.75,-1190 1197.75,-1186.5 1197.75,-1193.5"/>
<text text-anchor="middle" x="1043" y="-1352.6" font-family="Sans-Serif" font-size="13.00" fill="darkgrey">t_anciennes_valeurs_sousindicateur_gads</text>
</g>
<!-- 63de2eb328074d57b395d2eb5512ef31 -->
<g id="node18" class="node">
<title>63de2eb328074d57b395d2eb5512ef31</title>
<image xlink:href="icons/bigquery.png" width="101px" height="101px" preserveAspectRatio="xMinYMin meet" x="1527" y="-959.5"/>
<text text-anchor="middle" x="1577.5" y="-844.1" font-family="Sans-Serif" font-size="13.00" fill="#2d3436">amadeus.t_ama_leads_appels</text>
</g>
<!-- 1dbf0dc2629c4f21898f94113080e607&#45;&gt;63de2eb328074d57b395d2eb5512ef31 -->
<g id="edge17" class="edge">
<title>1dbf0dc2629c4f21898f94113080e607&#45;&gt;63de2eb328074d57b395d2eb5512ef31</title>
<path fill="none" stroke="#7b8894" d="M1309.05,-909C1309.05,-909 1516.93,-909 1516.93,-909"/>
<polygon fill="#7b8894" stroke="#7b8894" points="1516.93,-912.5 1526.93,-909 1516.93,-905.5 1516.93,-912.5"/>
<text text-anchor="middle" x="1428.5" y="-912.6" font-family="Sans-Serif" font-size="13.00" fill="darkgrey">t_leads_appels</text>
</g>
<!-- dcde2f3548bf4e178abe212efadb7f23 -->
<g id="node16" class="node">
<title>dcde2f3548bf4e178abe212efadb7f23</title>
<image xlink:href="icons/bigquery.png" width="101px" height="101px" preserveAspectRatio="xMinYMin meet" x="426" y="-1600.5"/>
<text text-anchor="middle" x="476.5" y="-1485.1" font-family="Sans-Serif" font-size="13.00" fill="#2d3436">amadeus.e_ama_appels_2020</text>
</g>
<!-- dcde2f3548bf4e178abe212efadb7f23&#45;&gt;9eb91f876c6f482ba692cea927f635f7 -->
<g id="edge15" class="edge">
<title>dcde2f3548bf4e178abe212efadb7f23&#45;&gt;9eb91f876c6f482ba692cea927f635f7</title>
<path fill="none" stroke="#7b8894" d="M527.06,-1587.5C527.06,-1587.5 787.76,-1587.5 787.76,-1587.5"/>
<polygon fill="#7b8894" stroke="#7b8894" points="787.76,-1591 797.76,-1587.5 787.76,-1584 787.76,-1591"/>
<text text-anchor="middle" x="662.5" y="-1582.6" font-family="Sans-Serif" font-size="13.00" fill="darkgrey">t_appels</text>
</g>
<!-- 78c9ff15622743b89e5a6f89aa2751ca -->
<g id="node17" class="node">
<title>78c9ff15622743b89e5a6f89aa2751ca</title>
<image xlink:href="icons/bigquery.png" width="101px" height="101px" preserveAspectRatio="xMinYMin meet" x="426" y="-1780.5"/>
<text text-anchor="middle" x="476.5" y="-1665.1" font-family="Sans-Serif" font-size="13.00" fill="#2d3436">amadeus.e_ama_appels_2018_2019</text>
</g>
<!-- 78c9ff15622743b89e5a6f89aa2751ca&#45;&gt;9eb91f876c6f482ba692cea927f635f7 -->
<g id="edge16" class="edge">
<title>78c9ff15622743b89e5a6f89aa2751ca&#45;&gt;9eb91f876c6f482ba692cea927f635f7</title>
<path fill="none" stroke="#7b8894" d="M527.06,-1672.17C527.06,-1672.17 787.76,-1672.17 787.76,-1672.17"/>
<polygon fill="#7b8894" stroke="#7b8894" points="787.76,-1675.67 797.76,-1672.17 787.76,-1668.67 787.76,-1675.67"/>
<text text-anchor="middle" x="662.5" y="-1674.6" font-family="Sans-Serif" font-size="13.00" fill="darkgrey">t_appels</text>
</g>
<!-- a3fceb77760a4c4a918ecfbc4afe8511&#45;&gt;66cd5d042493476b9bca824a32b33d78 -->
<g id="edge20" class="edge">
<title>a3fceb77760a4c4a918ecfbc4afe8511&#45;&gt;66cd5d042493476b9bca824a32b33d78</title>
<path fill="none" stroke="#7b8894" d="M1309.13,-2090C1399.22,-2090 1578,-2090 1578,-2090 1578,-2090 1578,-1423.75 1578,-1423.75"/>
<polygon fill="#7b8894" stroke="#7b8894" points="1581.5,-1423.75 1578,-1413.75 1574.5,-1423.75 1581.5,-1423.75"/>
<text text-anchor="middle" x="1428.5" y="-1604.6" font-family="Sans-Serif" font-size="13.00" fill="darkgrey">t_contrats_appels_leviers</text>
</g>
<!-- 42d064408078442aa376aeebf743b11c -->
<g id="node21" class="node">
<title>42d064408078442aa376aeebf743b11c</title>
<image xlink:href="icons/storage.png" width="101px" height="101px" preserveAspectRatio="xMinYMin meet" x="16" y="-1240.5"/>
<text text-anchor="middle" x="66.5" y="-1125.1" font-family="Sans-Serif" font-size="13.00" fill="#2d3436">amadeus_bi.eloqua/AMA_GOOG_RETR_MARK_ELQC_315_*</text>
</g>
<!-- 7511a4832dba418bb357b5cf3d833214 -->
<g id="node22" class="node">
<title>7511a4832dba418bb357b5cf3d833214</title>
<image xlink:href="icons/bigquery.png" width="101px" height="101px" preserveAspectRatio="xMinYMin meet" x="426" y="-1240.5"/>
<text text-anchor="middle" x="476.5" y="-1125.1" font-family="Sans-Serif" font-size="13.00" fill="#2d3436">eloqua.e_elq_promo_applis_mobiles_clics_emails</text>
</g>
<!-- 42d064408078442aa376aeebf743b11c&#45;&gt;7511a4832dba418bb357b5cf3d833214 -->
<g id="edge22" class="edge">
<title>42d064408078442aa376aeebf743b11c&#45;&gt;7511a4832dba418bb357b5cf3d833214</title>
<path fill="none" stroke="#7b8894" d="M117.19,-1190C117.19,-1190 415.93,-1190 415.93,-1190"/>
<polygon fill="#7b8894" stroke="#7b8894" points="415.93,-1193.5 425.93,-1190 415.93,-1186.5 415.93,-1193.5"/>
<text text-anchor="middle" x="271.5" y="-1193.6" font-family="Sans-Serif" font-size="13.00" fill="darkgrey">e_elq_promo_applis_mobiles_clics_emails</text>
</g>
<!-- 7511a4832dba418bb357b5cf3d833214&#45;&gt;d178d7ccdb1d4f6f875fd8843e2056d8 -->
<g id="edge23" class="edge">
<title>7511a4832dba418bb357b5cf3d833214&#45;&gt;d178d7ccdb1d4f6f875fd8843e2056d8</title>
<path fill="none" stroke="#7b8894" d="M527.06,-1190C527.06,-1190 787.76,-1190 787.76,-1190"/>
<polygon fill="#7b8894" stroke="#7b8894" points="787.76,-1193.5 797.76,-1190 787.76,-1186.5 787.76,-1193.5"/>
<text text-anchor="middle" x="662.5" y="-1193.6" font-family="Sans-Serif" font-size="13.00" fill="darkgrey">t_elq_promo_applis_mobiles_tlgt_appli</text>
</g>
<!-- 41c8fe536c50464392aceb0986353074 -->
<g id="node30" class="node">
<title>41c8fe536c50464392aceb0986353074</title>
<image xlink:href="icons/bigquery.png" width="101px" height="101px" preserveAspectRatio="xMinYMin meet" x="16" y="-1060.5"/>
<text text-anchor="middle" x="66.5" y="-945.1" font-family="Sans-Serif" font-size="13.00" fill="#2d3436">comper.t_v_digi_cube_valeur</text>
</g>
<!-- a5d33a0dc12f41978d74cab6739bedaa -->
<g id="node31" class="node">
<title>a5d33a0dc12f41978d74cab6739bedaa</title>
<image xlink:href="icons/bigquery.png" width="101px" height="101px" preserveAspectRatio="xMinYMin meet" x="426" y="-1060.5"/>
<text text-anchor="middle" x="476.5" y="-945.1" font-family="Sans-Serif" font-size="13.00" fill="#2d3436">amadeus.t_ama_parrainage</text>
</g>
<!-- 41c8fe536c50464392aceb0986353074&#45;&gt;a5d33a0dc12f41978d74cab6739bedaa -->
<g id="edge31" class="edge">
<title>41c8fe536c50464392aceb0986353074&#45;&gt;a5d33a0dc12f41978d74cab6739bedaa</title>
<path fill="none" stroke="#7b8894" d="M117.19,-1010C117.19,-1010 415.93,-1010 415.93,-1010"/>
<polygon fill="#7b8894" stroke="#7b8894" points="415.93,-1013.5 425.93,-1010 415.93,-1006.5 415.93,-1013.5"/>
<text text-anchor="middle" x="271.5" y="-1013.6" font-family="Sans-Serif" font-size="13.00" fill="darkgrey">t_parrainage</text>
</g>
<!-- 85c1f129b0324b6dbf229bff2d8c0d76 -->
<g id="node32" class="node">
<title>85c1f129b0324b6dbf229bff2d8c0d76</title>
<image xlink:href="icons/bigquery.png" width="101px" height="101px" preserveAspectRatio="xMinYMin meet" x="798" y="-1060.5"/>
<text text-anchor="middle" x="848.5" y="-945.1" font-family="Sans-Serif" font-size="13.00" fill="#2d3436">comper.l_ama_to_ds_comper_t_ama_parrainage</text>
</g>
<!-- a5d33a0dc12f41978d74cab6739bedaa&#45;&gt;85c1f129b0324b6dbf229bff2d8c0d76 -->
<g id="edge32" class="edge">
<title>a5d33a0dc12f41978d74cab6739bedaa&#45;&gt;85c1f129b0324b6dbf229bff2d8c0d76</title>
<path fill="none" stroke="#7b8894" d="M527.06,-1010C527.06,-1010 787.76,-1010 787.76,-1010"/>
<polygon fill="#7b8894" stroke="#7b8894" points="787.76,-1013.5 797.76,-1010 787.76,-1006.5 787.76,-1013.5"/>
<text text-anchor="middle" x="662.5" y="-1013.6" font-family="Sans-Serif" font-size="13.00" fill="darkgrey">l_to_ds_comper_t_ama_parrainage</text>
</g>
<!-- e7a54689a58349a0bebacf472522fe20 -->
<g id="node33" class="node">
<title>e7a54689a58349a0bebacf472522fe20</title>
<image xlink:href="icons/bigquery.png" width="101px" height="101px" preserveAspectRatio="xMinYMin meet" x="16" y="-880.5"/>
<text text-anchor="middle" x="66.5" y="-765.1" font-family="Sans-Serif" font-size="13.00" fill="#2d3436">amadeus.e_gsheet_contrats_services</text>
</g>
<!-- b454ac1d996d40ce94f0f8b34a33403d -->
<g id="node34" class="node">
<title>b454ac1d996d40ce94f0f8b34a33403d</title>
<image xlink:href="icons/bigquery.png" width="101px" height="101px" preserveAspectRatio="xMinYMin meet" x="426" y="-880.5"/>
<text text-anchor="middle" x="476.5" y="-765.1" font-family="Sans-Serif" font-size="13.00" fill="#2d3436">comper.l_ama_to_ds_comper_contrats_services</text>
</g>
<!-- e7a54689a58349a0bebacf472522fe20&#45;&gt;b454ac1d996d40ce94f0f8b34a33403d -->
<g id="edge33" class="edge">
<title>e7a54689a58349a0bebacf472522fe20&#45;&gt;b454ac1d996d40ce94f0f8b34a33403d</title>
<path fill="none" stroke="#7b8894" d="M117.19,-830C117.19,-830 415.93,-830 415.93,-830"/>
<polygon fill="#7b8894" stroke="#7b8894" points="415.93,-833.5 425.93,-830 415.93,-826.5 415.93,-833.5"/>
<text text-anchor="middle" x="271.5" y="-833.6" font-family="Sans-Serif" font-size="13.00" fill="darkgrey">l_to_ds_comper_contrats_services</text>
</g>
<!-- d1d25fcf762b4754b7fbf140302b2b9e -->
<g id="node35" class="node">
<title>d1d25fcf762b4754b7fbf140302b2b9e</title>
<image xlink:href="icons/bigquery.png" width="101px" height="101px" preserveAspectRatio="xMinYMin meet" x="16" y="-700.5"/>
<text text-anchor="middle" x="66.5" y="-585.1" font-family="Sans-Serif" font-size="13.00" fill="#2d3436">reporting_equipements.bout_en_bout_equipements</text>
</g>
<!-- d87841e28d0346909ccc98f2a9bd33d1 -->
<g id="node36" class="node">
<title>d87841e28d0346909ccc98f2a9bd33d1</title>
<image xlink:href="icons/bigquery.png" width="101px" height="101px" preserveAspectRatio="xMinYMin meet" x="426" y="-700.5"/>
<text text-anchor="middle" x="476.5" y="-585.1" font-family="Sans-Serif" font-size="13.00" fill="#2d3436">comper.l_ama_to_ds_comper_bout_en_bout_equipements</text>
</g>
<!-- d1d25fcf762b4754b7fbf140302b2b9e&#45;&gt;d87841e28d0346909ccc98f2a9bd33d1 -->
<g id="edge34" class="edge">
<title>d1d25fcf762b4754b7fbf140302b2b9e&#45;&gt;d87841e28d0346909ccc98f2a9bd33d1</title>
<path fill="none" stroke="#7b8894" d="M117.19,-650C117.19,-650 415.93,-650 415.93,-650"/>
<polygon fill="#7b8894" stroke="#7b8894" points="415.93,-653.5 425.93,-650 415.93,-646.5 415.93,-653.5"/>
<text text-anchor="middle" x="271.5" y="-653.6" font-family="Sans-Serif" font-size="13.00" fill="darkgrey">l_to_ds_comper_bout_en_bout_equipements</text>
</g>
<!-- 5d6c08e7941b4fca9144f847c0f27a82 -->
<g id="node37" class="node">
<title>5d6c08e7941b4fca9144f847c0f27a82</title>
<image xlink:href="icons/bigquery.png" width="101px" height="101px" preserveAspectRatio="xMinYMin meet" x="16" y="-520.5"/>
<text text-anchor="middle" x="66.5" y="-405.1" font-family="Sans-Serif" font-size="13.00" fill="#2d3436">amadeus.e_ama_options_vertes</text>
</g>
<!-- 6d54cdcd14ab4acfb44999c57c03c717 -->
<g id="node38" class="node">
<title>6d54cdcd14ab4acfb44999c57c03c717</title>
<image xlink:href="icons/bigquery.png" width="101px" height="101px" preserveAspectRatio="xMinYMin meet" x="426" y="-520.5"/>
<text text-anchor="middle" x="476.5" y="-405.1" font-family="Sans-Serif" font-size="13.00" fill="#2d3436">comper.t_ama_options_vertes</text>
</g>
<!-- 5d6c08e7941b4fca9144f847c0f27a82&#45;&gt;6d54cdcd14ab4acfb44999c57c03c717 -->
<g id="edge35" class="edge">
<title>5d6c08e7941b4fca9144f847c0f27a82&#45;&gt;6d54cdcd14ab4acfb44999c57c03c717</title>
<path fill="none" stroke="#7b8894" d="M117.19,-470C117.19,-470 415.93,-470 415.93,-470"/>
<polygon fill="#7b8894" stroke="#7b8894" points="415.93,-473.5 425.93,-470 415.93,-466.5 415.93,-473.5"/>
<text text-anchor="middle" x="271.5" y="-473.6" font-family="Sans-Serif" font-size="13.00" fill="darkgrey">t_options_vertes</text>
</g>
<!-- eec535e4d2614433b5593601d3cbe2cc -->
<g id="node39" class="node">
<title>eec535e4d2614433b5593601d3cbe2cc</title>
<image xlink:href="icons/bigquery.png" width="101px" height="101px" preserveAspectRatio="xMinYMin meet" x="798" y="-520.5"/>
<text text-anchor="middle" x="848.5" y="-405.1" font-family="Sans-Serif" font-size="13.00" fill="#2d3436">comper.l_ama_to_ds_comper_options_vertes</text>
</g>
<!-- 6d54cdcd14ab4acfb44999c57c03c717&#45;&gt;eec535e4d2614433b5593601d3cbe2cc -->
<g id="edge36" class="edge">
<title>6d54cdcd14ab4acfb44999c57c03c717&#45;&gt;eec535e4d2614433b5593601d3cbe2cc</title>
<path fill="none" stroke="#7b8894" d="M527.06,-470C527.06,-470 787.76,-470 787.76,-470"/>
<polygon fill="#7b8894" stroke="#7b8894" points="787.76,-473.5 797.76,-470 787.76,-466.5 787.76,-473.5"/>
<text text-anchor="middle" x="662.5" y="-473.6" font-family="Sans-Serif" font-size="13.00" fill="darkgrey">l_to_ds_comper_options_vertes</text>
</g>
<!-- 6217977ca337452288cbbabe5c93f42d -->
<g id="node40" class="node">
<title>6217977ca337452288cbbabe5c93f42d</title>
<image xlink:href="icons/bigquery.png" width="101px" height="101px" preserveAspectRatio="xMinYMin meet" x="16" y="-340.5"/>
<text text-anchor="middle" x="66.5" y="-225.1" font-family="Sans-Serif" font-size="13.00" fill="#2d3436">amadeus.e_ama_prelevement_mensualisation</text>
</g>
<!-- 557b15255c074ef2a18d8794c7da2284 -->
<g id="node41" class="node">
<title>557b15255c074ef2a18d8794c7da2284</title>
<image xlink:href="icons/bigquery.png" width="101px" height="101px" preserveAspectRatio="xMinYMin meet" x="426" y="-340.5"/>
<text text-anchor="middle" x="476.5" y="-225.1" font-family="Sans-Serif" font-size="13.00" fill="#2d3436">comper.l_ama_to_ds_comper_prelevement_mensualisation</text>
</g>
<!-- 6217977ca337452288cbbabe5c93f42d&#45;&gt;557b15255c074ef2a18d8794c7da2284 -->
<g id="edge37" class="edge">
<title>6217977ca337452288cbbabe5c93f42d&#45;&gt;557b15255c074ef2a18d8794c7da2284</title>
<path fill="none" stroke="#7b8894" d="M117.19,-290C117.19,-290 415.93,-290 415.93,-290"/>
<polygon fill="#7b8894" stroke="#7b8894" points="415.93,-293.5 425.93,-290 415.93,-286.5 415.93,-293.5"/>
<text text-anchor="middle" x="271.5" y="-293.6" font-family="Sans-Serif" font-size="13.00" fill="darkgrey">l_to_ds_comper_prelevement_mensualisation</text>
</g>
<!-- cef47ff949f04cecb20d9585d1a95351 -->
<g id="node42" class="node">
<title>cef47ff949f04cecb20d9585d1a95351</title>
<image xlink:href="icons/bigquery.png" width="101px" height="101px" preserveAspectRatio="xMinYMin meet" x="16" y="-160.5"/>
<text text-anchor="middle" x="66.5" y="-45.1" font-family="Sans-Serif" font-size="13.00" fill="#2d3436">amadeus.e_gsheet_activation_energie</text>
</g>
<!-- 3007961f5fec4207958a4f76c7d597a9 -->
<g id="node43" class="node">
<title>3007961f5fec4207958a4f76c7d597a9</title>
<image xlink:href="icons/bigquery.png" width="101px" height="101px" preserveAspectRatio="xMinYMin meet" x="426" y="-160.5"/>
<text text-anchor="middle" x="476.5" y="-45.1" font-family="Sans-Serif" font-size="13.00" fill="#2d3436">comper.l_ama_to_ds_comper_activation_energie</text>
</g>
<!-- cef47ff949f04cecb20d9585d1a95351&#45;&gt;3007961f5fec4207958a4f76c7d597a9 -->
<g id="edge38" class="edge">
<title>cef47ff949f04cecb20d9585d1a95351&#45;&gt;3007961f5fec4207958a4f76c7d597a9</title>
<path fill="none" stroke="#7b8894" d="M117.19,-110C117.19,-110 415.93,-110 415.93,-110"/>
<polygon fill="#7b8894" stroke="#7b8894" points="415.93,-113.5 425.93,-110 415.93,-106.5 415.93,-113.5"/>
<text text-anchor="middle" x="271.5" y="-113.6" font-family="Sans-Serif" font-size="13.00" fill="darkgrey">l_to_ds_comper_activation_energie</text>
</g>
</g>
</svg>
