<?xml version="1.0" encoding="UTF-8" standalone="no"?>
<!DOCTYPE svg PUBLIC "-//W3C//DTD SVG 1.1//EN"
 "http://www.w3.org/Graphics/SVG/1.1/DTD/svg11.dtd">
<!-- Generated by graphviz version 2.47.1 (20210417.1919)
 -->
<!-- Title: amadeus Pages: 1 -->
<svg width="1932pt" height="2844pt"
 viewBox="0.00 0.00 1932.00 2844.00" xmlns="http://www.w3.org/2000/svg" xmlns:xlink="http://www.w3.org/1999/xlink">
<g id="graph0" class="graph" transform="scale(1 1) rotate(0) translate(144 2700)">
<title>amadeus</title>
<text text-anchor="middle" x="822" y="-9" font-family="Sans-Serif" font-size="15.00" fill="#2d3436">amadeus</text>
<g id="clust1" class="cluster">
<title>cluster_amadeus</title>
<path fill="#e5f5fd" stroke="#aeb6be" d="M20,-33C20,-33 1624,-33 1624,-33 1630,-33 1636,-39 1636,-45 1636,-45 1636,-2536 1636,-2536 1636,-2542 1630,-2548 1624,-2548 1624,-2548 20,-2548 20,-2548 14,-2548 8,-2542 8,-2536 8,-2536 8,-45 8,-45 8,-39 14,-33 20,-33"/>
<text text-anchor="middle" x="40" y="-2534.4" font-family="Sans-Serif" font-size="12.00" fill="#2d3436">amadeus</text>
</g>
<!-- 12554c3c4c8d4e72bdc98873e332cb22 -->
<g id="node1" class="node">
<title>12554c3c4c8d4e72bdc98873e332cb22</title>
<image xlink:href="icons/storage.png" width="101px" height="101px" preserveAspectRatio="xMinYMin meet" x="16" y="-2500.5"/>
<text text-anchor="middle" x="66.5" y="-2385.1" font-family="Sans-Serif" font-size="13.00" fill="#2d3436">amadeus_bi.formulaires/GA_VENT_DIGT_</text>
</g>
<!-- 0b709e519326417db627ca1d99776009 -->
<g id="node2" class="node">
<title>0b709e519326417db627ca1d99776009</title>
<image xlink:href="icons/bigquery.png" width="101px" height="101px" preserveAspectRatio="xMinYMin meet" x="426" y="-2500.5"/>
<text text-anchor="middle" x="476.5" y="-2385.1" font-family="Sans-Serif" font-size="13.00" fill="#2d3436">amadeus.e_ama_formulaires_stor</text>
</g>
<!-- 12554c3c4c8d4e72bdc98873e332cb22&#45;&gt;0b709e519326417db627ca1d99776009 -->
<g id="edge1" class="edge">
<title>12554c3c4c8d4e72bdc98873e332cb22&#45;&gt;0b709e519326417db627ca1d99776009</title>
<path fill="none" stroke="#7b8894" d="M117.19,-2450C117.19,-2450 415.93,-2450 415.93,-2450"/>
<polygon fill="#7b8894" stroke="#7b8894" points="415.93,-2453.5 425.93,-2450 415.93,-2446.5 415.93,-2453.5"/>
<text text-anchor="middle" x="271.5" y="-2453.6" font-family="Sans-Serif" font-size="13.00" fill="darkgrey">e_formulaires</text>
</g>
<!-- fff3742716c44ca6a31d70cf5e97d960 -->
<g id="node5" class="node">
<title>fff3742716c44ca6a31d70cf5e97d960</title>
<image xlink:href="icons/bigquery.png" width="101px" height="101px" preserveAspectRatio="xMinYMin meet" x="798" y="-2320.5"/>
<text text-anchor="middle" x="848.5" y="-2205.1" font-family="Sans-Serif" font-size="13.00" fill="#2d3436">amadeus.t_ama_formulaires_campagnes</text>
</g>
<!-- 0b709e519326417db627ca1d99776009&#45;&gt;fff3742716c44ca6a31d70cf5e97d960 -->
<g id="edge3" class="edge">
<title>0b709e519326417db627ca1d99776009&#45;&gt;fff3742716c44ca6a31d70cf5e97d960</title>
<path fill="none" stroke="#7b8894" d="M494,-2381.33C494,-2369.01 494,-2360 494,-2360 494,-2360 849,-2360 849,-2360 849,-2360 849,-2348.67 849,-2348.67"/>
<polygon fill="#7b8894" stroke="#7b8894" points="852.5,-2348.67 849,-2338.67 845.5,-2348.67 852.5,-2348.67"/>
<text text-anchor="middle" x="662.5" y="-2394.6" font-family="Sans-Serif" font-size="13.00" fill="darkgrey">t_formulaires_campagnes</text>
</g>
<!-- 12eddb4d61c640b2aff0561b4a3abfa5 -->
<g id="node11" class="node">
<title>12eddb4d61c640b2aff0561b4a3abfa5</title>
<image xlink:href="icons/bigquery.png" width="101px" height="101px" preserveAspectRatio="xMinYMin meet" x="798" y="-2500.5"/>
<text text-anchor="middle" x="848.5" y="-2385.1" font-family="Sans-Serif" font-size="13.00" fill="#2d3436">amadeus.t_ama_formulaires_verif_flux_ga</text>
</g>
<!-- 0b709e519326417db627ca1d99776009&#45;&gt;12eddb4d61c640b2aff0561b4a3abfa5 -->
<g id="edge9" class="edge">
<title>0b709e519326417db627ca1d99776009&#45;&gt;12eddb4d61c640b2aff0561b4a3abfa5</title>
<path fill="none" stroke="#7b8894" d="M527.06,-2450C527.06,-2450 787.76,-2450 787.76,-2450"/>
<polygon fill="#7b8894" stroke="#7b8894" points="787.76,-2453.5 797.76,-2450 787.76,-2446.5 787.76,-2453.5"/>
<text text-anchor="middle" x="662.5" y="-2456.6" font-family="Sans-Serif" font-size="13.00" fill="darkgrey">t_formulaires_verif_flux_ga</text>
</g>
<!-- ec04b1b0825b423b85ab55bc418340b6 -->
<g id="node3" class="node">
<title>ec04b1b0825b423b85ab55bc418340b6</title>
<image xlink:href="icons/storage.png" width="101px" height="101px" preserveAspectRatio="xMinYMin meet" x="16" y="-1960.5"/>
<text text-anchor="middle" x="66.5" y="-1845.1" font-family="Sans-Serif" font-size="13.00" fill="#2d3436">amadeus_bi.appels/GA_SVI_</text>
</g>
<!-- ea9fc04e197744179ec98346f651952d -->
<g id="node4" class="node">
<title>ea9fc04e197744179ec98346f651952d</title>
<image xlink:href="icons/bigquery.png" width="101px" height="101px" preserveAspectRatio="xMinYMin meet" x="426" y="-1960.5"/>
<text text-anchor="middle" x="476.5" y="-1845.1" font-family="Sans-Serif" font-size="13.00" fill="#2d3436">amadeus.e_ama_appels</text>
</g>
<!-- ec04b1b0825b423b85ab55bc418340b6&#45;&gt;ea9fc04e197744179ec98346f651952d -->
<g id="edge2" class="edge">
<title>ec04b1b0825b423b85ab55bc418340b6&#45;&gt;ea9fc04e197744179ec98346f651952d</title>
<path fill="none" stroke="#7b8894" d="M117.19,-1910C117.19,-1910 415.93,-1910 415.93,-1910"/>
<polygon fill="#7b8894" stroke="#7b8894" points="415.93,-1913.5 425.93,-1910 415.93,-1906.5 415.93,-1913.5"/>
<text text-anchor="middle" x="271.5" y="-1913.6" font-family="Sans-Serif" font-size="13.00" fill="darkgrey">e_appels</text>
</g>
<!-- 78b983050bd94b94af3590c9eeb793a8 -->
<g id="node14" class="node">
<title>78b983050bd94b94af3590c9eeb793a8</title>
<image xlink:href="icons/bigquery.png" width="101px" height="101px" preserveAspectRatio="xMinYMin meet" x="798" y="-1675.5"/>
<text text-anchor="middle" x="848.5" y="-1560.1" font-family="Sans-Serif" font-size="13.00" fill="#2d3436">amadeus.t_ama_appels</text>
</g>
<!-- ea9fc04e197744179ec98346f651952d&#45;&gt;78b983050bd94b94af3590c9eeb793a8 -->
<g id="edge14" class="edge">
<title>ea9fc04e197744179ec98346f651952d&#45;&gt;78b983050bd94b94af3590c9eeb793a8</title>
<path fill="none" stroke="#7b8894" d="M527.46,-1910C582.68,-1910 663,-1910 663,-1910 663,-1910 663,-1682.83 663,-1682.83 663,-1682.83 787.81,-1682.83 787.81,-1682.83"/>
<polygon fill="#7b8894" stroke="#7b8894" points="787.81,-1686.33 797.81,-1682.83 787.81,-1679.33 787.81,-1686.33"/>
<text text-anchor="middle" x="662.5" y="-1853.6" font-family="Sans-Serif" font-size="13.00" fill="darkgrey">t_appels</text>
</g>
<!-- 6b1fcfa99bde489b838cf5ff672f8dc4 -->
<g id="node24" class="node">
<title>6b1fcfa99bde489b838cf5ff672f8dc4</title>
<image xlink:href="icons/bigquery.png" width="101px" height="101px" preserveAspectRatio="xMinYMin meet" x="798" y="-2140.5"/>
<text text-anchor="middle" x="848.5" y="-2025.1" font-family="Sans-Serif" font-size="13.00" fill="#2d3436">amadeus.t_ama_import_gads</text>
</g>
<!-- ea9fc04e197744179ec98346f651952d&#45;&gt;6b1fcfa99bde489b838cf5ff672f8dc4 -->
<g id="edge25" class="edge">
<title>ea9fc04e197744179ec98346f651952d&#45;&gt;6b1fcfa99bde489b838cf5ff672f8dc4</title>
<path fill="none" stroke="#7b8894" d="M477,-1978.54C477,-1994.62 477,-2007.17 477,-2007.17 477,-2007.17 832,-2007.17 832,-2007.17 832,-2007.17 832,-2011.22 832,-2011.22"/>
<polygon fill="#7b8894" stroke="#7b8894" points="828.5,-2011.22 832,-2021.22 835.5,-2011.22 828.5,-2011.22"/>
<text text-anchor="middle" x="662.5" y="-1972.6" font-family="Sans-Serif" font-size="13.00" fill="darkgrey">t_import_gads</text>
</g>
<!-- 29bd5735f8644724a8a788cd694e7049 -->
<g id="node8" class="node">
<title>29bd5735f8644724a8a788cd694e7049</title>
<image xlink:href="icons/bigquery.png" width="101px" height="101px" preserveAspectRatio="xMinYMin meet" x="1208" y="-2320.5"/>
<text text-anchor="middle" x="1258.5" y="-2205.1" font-family="Sans-Serif" font-size="13.00" fill="#2d3436">amadeus.t_ama_contrats_formulaires</text>
</g>
<!-- fff3742716c44ca6a31d70cf5e97d960&#45;&gt;29bd5735f8644724a8a788cd694e7049 -->
<g id="edge6" class="edge">
<title>fff3742716c44ca6a31d70cf5e97d960&#45;&gt;29bd5735f8644724a8a788cd694e7049</title>
<path fill="none" stroke="#7b8894" d="M899.19,-2292.83C899.19,-2292.83 1197.93,-2292.83 1197.93,-2292.83"/>
<polygon fill="#7b8894" stroke="#7b8894" points="1197.93,-2296.33 1207.93,-2292.83 1197.93,-2289.33 1197.93,-2296.33"/>
<text text-anchor="middle" x="1043" y="-2273.6" font-family="Sans-Serif" font-size="13.00" fill="darkgrey">t_contrats_formulaires</text>
</g>
<!-- c78db25e36204335904d259bf30dd2b9 -->
<g id="node10" class="node">
<title>c78db25e36204335904d259bf30dd2b9</title>
<image xlink:href="icons/bigquery.png" width="101px" height="101px" preserveAspectRatio="xMinYMin meet" x="1208" y="-2500.5"/>
<text text-anchor="middle" x="1258.5" y="-2385.1" font-family="Sans-Serif" font-size="13.00" fill="#2d3436">amadeus.t_ama_leads_formulaires</text>
</g>
<!-- fff3742716c44ca6a31d70cf5e97d960&#45;&gt;c78db25e36204335904d259bf30dd2b9 -->
<g id="edge8" class="edge">
<title>fff3742716c44ca6a31d70cf5e97d960&#45;&gt;c78db25e36204335904d259bf30dd2b9</title>
<path fill="none" stroke="#7b8894" d="M874,-2338.56C874,-2345.04 874,-2349.25 874,-2349.25 874,-2349.25 1259,-2349.25 1259,-2349.25 1259,-2349.25 1259,-2371.4 1259,-2371.4"/>
<polygon fill="#7b8894" stroke="#7b8894" points="1255.5,-2371.4 1259,-2381.4 1262.5,-2371.4 1255.5,-2371.4"/>
<text text-anchor="middle" x="1043" y="-2394.6" font-family="Sans-Serif" font-size="13.00" fill="darkgrey">t_leads_formulaires</text>
</g>
<!-- d49fc93d2fbd4aa496b4f2ab129b3ef6 -->
<g id="node6" class="node">
<title>d49fc93d2fbd4aa496b4f2ab129b3ef6</title>
<image xlink:href="icons/bigquery.png" width="101px" height="101px" preserveAspectRatio="xMinYMin meet" x="426" y="-2320.5"/>
<text text-anchor="middle" x="476.5" y="-2205.1" font-family="Sans-Serif" font-size="13.00" fill="#2d3436">ga.l_ga_to_ama_ga_formulaires_stor_*</text>
</g>
<!-- d49fc93d2fbd4aa496b4f2ab129b3ef6&#45;&gt;fff3742716c44ca6a31d70cf5e97d960 -->
<g id="edge4" class="edge">
<title>d49fc93d2fbd4aa496b4f2ab129b3ef6&#45;&gt;fff3742716c44ca6a31d70cf5e97d960</title>
<path fill="none" stroke="#7b8894" d="M527.06,-2270C527.06,-2270 787.76,-2270 787.76,-2270"/>
<polygon fill="#7b8894" stroke="#7b8894" points="787.76,-2273.5 797.76,-2270 787.76,-2266.5 787.76,-2273.5"/>
<text text-anchor="middle" x="662.5" y="-2270.6" font-family="Sans-Serif" font-size="13.00" fill="darkgrey">t_formulaires_campagnes</text>
</g>
<!-- d49fc93d2fbd4aa496b4f2ab129b3ef6&#45;&gt;12eddb4d61c640b2aff0561b4a3abfa5 -->
<g id="edge10" class="edge">
<title>d49fc93d2fbd4aa496b4f2ab129b3ef6&#45;&gt;12eddb4d61c640b2aff0561b4a3abfa5</title>
<path fill="none" stroke="#7b8894" d="M460,-2338.6C460,-2356.43 460,-2370.75 460,-2370.75 460,-2370.75 824,-2370.75 824,-2370.75 824,-2370.75 824,-2371.82 824,-2371.82"/>
<polygon fill="#7b8894" stroke="#7b8894" points="820.5,-2371.44 824,-2381.44 827.5,-2371.44 820.5,-2371.44"/>
<text text-anchor="middle" x="662.5" y="-2332.6" font-family="Sans-Serif" font-size="13.00" fill="darkgrey">t_formulaires_verif_flux_ga</text>
</g>
<!-- 23a2f59420564293b1a8165177c44b4f -->
<g id="node7" class="node">
<title>23a2f59420564293b1a8165177c44b4f</title>
<image xlink:href="icons/bigquery.png" width="101px" height="101px" preserveAspectRatio="xMinYMin meet" x="426" y="-2140.5"/>
<text text-anchor="middle" x="476.5" y="-2025.1" font-family="Sans-Serif" font-size="13.00" fill="#2d3436">ga.t_ga_correspondance_hash_campagnes</text>
</g>
<!-- 23a2f59420564293b1a8165177c44b4f&#45;&gt;fff3742716c44ca6a31d70cf5e97d960 -->
<g id="edge5" class="edge">
<title>23a2f59420564293b1a8165177c44b4f&#45;&gt;fff3742716c44ca6a31d70cf5e97d960</title>
<path fill="none" stroke="#7b8894" d="M477,-2158.67C477,-2170.99 477,-2180 477,-2180 477,-2180 849,-2180 849,-2180 849,-2180 849,-2191.33 849,-2191.33"/>
<polygon fill="#7b8894" stroke="#7b8894" points="845.5,-2191.33 849,-2201.33 852.5,-2191.33 845.5,-2191.33"/>
<text text-anchor="middle" x="662.5" y="-2152.6" font-family="Sans-Serif" font-size="13.00" fill="darkgrey">t_formulaires_campagnes</text>
</g>
<!-- 45f42a91b8d2466ea2e686223084dcca -->
<g id="node9" class="node">
<title>45f42a91b8d2466ea2e686223084dcca</title>
<image xlink:href="icons/bigquery.png" width="101px" height="101px" preserveAspectRatio="xMinYMin meet" x="798" y="-1960.5"/>
<text text-anchor="middle" x="848.5" y="-1845.1" font-family="Sans-Serif" font-size="13.00" fill="#2d3436">comper.e_v_digi_import_cube_valeur</text>
</g>
<!-- 45f42a91b8d2466ea2e686223084dcca&#45;&gt;29bd5735f8644724a8a788cd694e7049 -->
<g id="edge7" class="edge">
<title>45f42a91b8d2466ea2e686223084dcca&#45;&gt;29bd5735f8644724a8a788cd694e7049</title>
<path fill="none" stroke="#7b8894" d="M899.03,-1932.83C959.88,-1932.83 1054,-1932.83 1054,-1932.83 1054,-1932.83 1054,-2247.17 1054,-2247.17 1054,-2247.17 1197.95,-2247.17 1197.95,-2247.17"/>
<polygon fill="#7b8894" stroke="#7b8894" points="1197.95,-2250.67 1207.95,-2247.17 1197.95,-2243.67 1197.95,-2250.67"/>
<text text-anchor="middle" x="1043" y="-2169.6" font-family="Sans-Serif" font-size="13.00" fill="darkgrey">t_contrats_formulaires</text>
</g>
<!-- f6ca770eb27f4dcfb711daf684d1c997 -->
<g id="node19" class="node">
<title>f6ca770eb27f4dcfb711daf684d1c997</title>
<image xlink:href="icons/bigquery.png" width="101px" height="101px" preserveAspectRatio="xMinYMin meet" x="1208" y="-2140.5"/>
<text text-anchor="middle" x="1258.5" y="-2025.1" font-family="Sans-Serif" font-size="13.00" fill="#2d3436">amadeus.t_ama_contrats_appels</text>
</g>
<!-- 45f42a91b8d2466ea2e686223084dcca&#45;&gt;f6ca770eb27f4dcfb711daf684d1c997 -->
<g id="edge19" class="edge">
<title>45f42a91b8d2466ea2e686223084dcca&#45;&gt;f6ca770eb27f4dcfb711daf684d1c997</title>
<path fill="none" stroke="#7b8894" d="M866,-1978.78C866,-1987.16 866,-1992.83 866,-1992.83 866,-1992.83 1259,-1992.83 1259,-1992.83 1259,-1992.83 1259,-2011.46 1259,-2011.46"/>
<polygon fill="#7b8894" stroke="#7b8894" points="1255.5,-2011.46 1259,-2021.46 1262.5,-2011.46 1255.5,-2011.46"/>
<text text-anchor="middle" x="1043" y="-2065.6" font-family="Sans-Serif" font-size="13.00" fill="darkgrey">t_contrats_appels</text>
</g>
<!-- 9abeaf98268b49038297a71913fb5970 -->
<g id="node12" class="node">
<title>9abeaf98268b49038297a71913fb5970</title>
<image xlink:href="icons/bigquery.png" width="101px" height="101px" preserveAspectRatio="xMinYMin meet" x="426" y="-1420.5"/>
<text text-anchor="middle" x="476.5" y="-1305.1" font-family="Sans-Serif" font-size="13.00" fill="#2d3436">ga.t_ga_sessions</text>
</g>
<!-- d7ffc7f7643743fc98b94459af9642db -->
<g id="node13" class="node">
<title>d7ffc7f7643743fc98b94459af9642db</title>
<image xlink:href="icons/bigquery.png" width="101px" height="101px" preserveAspectRatio="xMinYMin meet" x="798" y="-1420.5"/>
<text text-anchor="middle" x="848.5" y="-1305.1" font-family="Sans-Serif" font-size="13.00" fill="#2d3436">amadeus.t_ama_appels_ga</text>
</g>
<!-- 9abeaf98268b49038297a71913fb5970&#45;&gt;d7ffc7f7643743fc98b94459af9642db -->
<g id="edge11" class="edge">
<title>9abeaf98268b49038297a71913fb5970&#45;&gt;d7ffc7f7643743fc98b94459af9642db</title>
<path fill="none" stroke="#7b8894" d="M527.06,-1370C527.06,-1370 787.76,-1370 787.76,-1370"/>
<polygon fill="#7b8894" stroke="#7b8894" points="787.76,-1373.5 797.76,-1370 787.76,-1366.5 787.76,-1373.5"/>
<text text-anchor="middle" x="662.5" y="-1373.6" font-family="Sans-Serif" font-size="13.00" fill="darkgrey">t_appels_ga</text>
</g>
<!-- 39b3439808154e2aa92dc2f206b58147 -->
<g id="node23" class="node">
<title>39b3439808154e2aa92dc2f206b58147</title>
<image xlink:href="icons/bigquery.png" width="101px" height="101px" preserveAspectRatio="xMinYMin meet" x="798" y="-1240.5"/>
<text text-anchor="middle" x="848.5" y="-1125.1" font-family="Sans-Serif" font-size="13.00" fill="#2d3436">eloqua.t_elq_promo_applis_mobiles_tlgt_appli</text>
</g>
<!-- 9abeaf98268b49038297a71913fb5970&#45;&gt;39b3439808154e2aa92dc2f206b58147 -->
<g id="edge24" class="edge">
<title>9abeaf98268b49038297a71913fb5970&#45;&gt;39b3439808154e2aa92dc2f206b58147</title>
<path fill="none" stroke="#7b8894" d="M477,-1301.35C477,-1282.67 477,-1267.5 477,-1267.5 477,-1267.5 866,-1267.5 866,-1267.5 866,-1267.5 866,-1266.61 866,-1266.61"/>
<polygon fill="#7b8894" stroke="#7b8894" points="869.5,-1268.61 866,-1258.61 862.5,-1268.61 869.5,-1268.61"/>
<text text-anchor="middle" x="662.5" y="-1283.6" font-family="Sans-Serif" font-size="13.00" fill="darkgrey">t_elq_promo_applis_mobiles_tlgt_appli</text>
</g>
<!-- 226b3be311ff4c62a914bb2c42d2d642 -->
<g id="node15" class="node">
<title>226b3be311ff4c62a914bb2c42d2d642</title>
<image xlink:href="icons/bigquery.png" width="101px" height="101px" preserveAspectRatio="xMinYMin meet" x="1208" y="-959.5"/>
<text text-anchor="middle" x="1258.5" y="-844.1" font-family="Sans-Serif" font-size="13.00" fill="#2d3436">amadeus.t_ama_appels_leviers</text>
</g>
<!-- d7ffc7f7643743fc98b94459af9642db&#45;&gt;226b3be311ff4c62a914bb2c42d2d642 -->
<g id="edge13" class="edge">
<title>d7ffc7f7643743fc98b94459af9642db&#45;&gt;226b3be311ff4c62a914bb2c42d2d642</title>
<path fill="none" stroke="#7b8894" d="M899,-1347.17C919.31,-1347.17 938,-1347.17 938,-1347.17 938,-1347.17 938,-953.5 938,-953.5 938,-953.5 1197.72,-953.5 1197.72,-953.5"/>
<polygon fill="#7b8894" stroke="#7b8894" points="1197.72,-957 1207.72,-953.5 1197.72,-950 1197.72,-957"/>
<text text-anchor="middle" x="1043" y="-979.6" font-family="Sans-Serif" font-size="13.00" fill="darkgrey">t_appels_leviers</text>
</g>
<!-- 96807b67a6b840ec86217aede35db6da -->
<g id="node20" class="node">
<title>96807b67a6b840ec86217aede35db6da</title>
<image xlink:href="icons/bigquery.png" width="101px" height="101px" preserveAspectRatio="xMinYMin meet" x="1527" y="-1395.5"/>
<text text-anchor="middle" x="1577.5" y="-1280.1" font-family="Sans-Serif" font-size="13.00" fill="#2d3436">amadeus.t_ama_contrats_appels_leviers</text>
</g>
<!-- d7ffc7f7643743fc98b94459af9642db&#45;&gt;96807b67a6b840ec86217aede35db6da -->
<g id="edge21" class="edge">
<title>d7ffc7f7643743fc98b94459af9642db&#45;&gt;96807b67a6b840ec86217aede35db6da</title>
<path fill="none" stroke="#7b8894" d="M832,-1301.3C832,-1293.91 832,-1289 832,-1289 832,-1289 1516.84,-1289 1516.84,-1289"/>
<polygon fill="#7b8894" stroke="#7b8894" points="1516.84,-1292.5 1526.84,-1289 1516.84,-1285.5 1516.84,-1292.5"/>
<text text-anchor="middle" x="1258.5" y="-1067.6" font-family="Sans-Serif" font-size="13.00" fill="darkgrey">t_contrats_appels_leviers</text>
</g>
<!-- 78b983050bd94b94af3590c9eeb793a8&#45;&gt;226b3be311ff4c62a914bb2c42d2d642 -->
<g id="edge12" class="edge">
<title>78b983050bd94b94af3590c9eeb793a8&#45;&gt;226b3be311ff4c62a914bb2c42d2d642</title>
<path fill="none" stroke="#7b8894" d="M899.29,-1568.9C935.2,-1568.9 977,-1568.9 977,-1568.9 977,-1568.9 977,-965.5 977,-965.5 977,-965.5 1197.85,-965.5 1197.85,-965.5"/>
<polygon fill="#7b8894" stroke="#7b8894" points="1197.85,-969 1207.85,-965.5 1197.85,-962 1197.85,-969"/>
<text text-anchor="middle" x="1043" y="-1224.6" font-family="Sans-Serif" font-size="13.00" fill="darkgrey">t_appels_leviers</text>
</g>
<!-- 78b983050bd94b94af3590c9eeb793a8&#45;&gt;f6ca770eb27f4dcfb711daf684d1c997 -->
<g id="edge18" class="edge">
<title>78b983050bd94b94af3590c9eeb793a8&#45;&gt;f6ca770eb27f4dcfb711daf684d1c997</title>
<path fill="none" stroke="#7b8894" d="M899.16,-1685.5C970.78,-1685.5 1093,-1685.5 1093,-1685.5 1093,-1685.5 1093,-2090 1093,-2090 1093,-2090 1197.95,-2090 1197.95,-2090"/>
<polygon fill="#7b8894" stroke="#7b8894" points="1197.95,-2093.5 1207.95,-2090 1197.95,-2086.5 1197.95,-2093.5"/>
<text text-anchor="middle" x="1043" y="-1945.6" font-family="Sans-Serif" font-size="13.00" fill="darkgrey">t_contrats_appels</text>
</g>
<!-- 5587f2a6d68b46eab15d7c2a5a59b382 -->
<g id="node25" class="node">
<title>5587f2a6d68b46eab15d7c2a5a59b382</title>
<image xlink:href="icons/bigquery.png" width="101px" height="101px" preserveAspectRatio="xMinYMin meet" x="1208" y="-1420.5"/>
<text text-anchor="middle" x="1258.5" y="-1305.1" font-family="Sans-Serif" font-size="13.00" fill="#2d3436">amadeus.t_ama_valeurs_plus40_datastudio_gads</text>
</g>
<!-- 78b983050bd94b94af3590c9eeb793a8&#45;&gt;5587f2a6d68b46eab15d7c2a5a59b382 -->
<g id="edge26" class="edge">
<title>78b983050bd94b94af3590c9eeb793a8&#45;&gt;5587f2a6d68b46eab15d7c2a5a59b382</title>
<path fill="none" stroke="#7b8894" d="M899.09,-1593.7C989.63,-1593.7 1170,-1593.7 1170,-1593.7 1170,-1593.7 1170,-1392.83 1170,-1392.83 1170,-1392.83 1197.79,-1392.83 1197.79,-1392.83"/>
<polygon fill="#7b8894" stroke="#7b8894" points="1197.79,-1396.33 1207.79,-1392.83 1197.79,-1389.33 1197.79,-1396.33"/>
<text text-anchor="middle" x="1043" y="-1447.6" font-family="Sans-Serif" font-size="13.00" fill="darkgrey">t_valeurs_plus40_datastudio_gads</text>
</g>
<!-- 3ca17c02dc6b46d08bc3aa7ae634da99 -->
<g id="node26" class="node">
<title>3ca17c02dc6b46d08bc3aa7ae634da99</title>
<image xlink:href="icons/bigquery.png" width="101px" height="101px" preserveAspectRatio="xMinYMin meet" x="1208" y="-1600.5"/>
<text text-anchor="middle" x="1258.5" y="-1485.1" font-family="Sans-Serif" font-size="13.00" fill="#2d3436">amadeus.t_ama_valeurs_datastudio_gads</text>
</g>
<!-- 78b983050bd94b94af3590c9eeb793a8&#45;&gt;3ca17c02dc6b46d08bc3aa7ae634da99 -->
<g id="edge27" class="edge">
<title>78b983050bd94b94af3590c9eeb793a8&#45;&gt;3ca17c02dc6b46d08bc3aa7ae634da99</title>
<path fill="none" stroke="#7b8894" d="M899.19,-1606.1C899.19,-1606.1 1197.93,-1606.1 1197.93,-1606.1"/>
<polygon fill="#7b8894" stroke="#7b8894" points="1197.93,-1609.6 1207.93,-1606.1 1197.93,-1602.6 1197.93,-1609.6"/>
<text text-anchor="middle" x="1043" y="-1583.6" font-family="Sans-Serif" font-size="13.00" fill="darkgrey">t_valeurs_datastudio_gads</text>
</g>
<!-- be1f67ca7b5c497e9e7a41e2c8999f89 -->
<g id="node27" class="node">
<title>be1f67ca7b5c497e9e7a41e2c8999f89</title>
<image xlink:href="icons/bigquery.png" width="101px" height="101px" preserveAspectRatio="xMinYMin meet" x="1208" y="-1780.5"/>
<text text-anchor="middle" x="1258.5" y="-1665.1" font-family="Sans-Serif" font-size="13.00" fill="#2d3436">amadeus.t_ama_valeurs_sousindicateur_gads</text>
</g>
<!-- 78b983050bd94b94af3590c9eeb793a8&#45;&gt;be1f67ca7b5c497e9e7a41e2c8999f89 -->
<g id="edge28" class="edge">
<title>78b983050bd94b94af3590c9eeb793a8&#45;&gt;be1f67ca7b5c497e9e7a41e2c8999f89</title>
<path fill="none" stroke="#7b8894" d="M899.19,-1669.5C899.19,-1669.5 1197.93,-1669.5 1197.93,-1669.5"/>
<polygon fill="#7b8894" stroke="#7b8894" points="1197.93,-1673 1207.93,-1669.5 1197.93,-1666 1197.93,-1673"/>
<text text-anchor="middle" x="1043" y="-1674.6" font-family="Sans-Serif" font-size="13.00" fill="darkgrey">t_valeurs_sousindicateur_gads</text>
</g>
<!-- 0283fed514d947979f5a0781bf842668 -->
<g id="node28" class="node">
<title>0283fed514d947979f5a0781bf842668</title>
<image xlink:href="icons/bigquery.png" width="101px" height="101px" preserveAspectRatio="xMinYMin meet" x="1208" y="-1960.5"/>
<text text-anchor="middle" x="1258.5" y="-1845.1" font-family="Sans-Serif" font-size="13.00" fill="#2d3436">amadeus.t_ama_anciennes_valeurs_gads</text>
</g>
<!-- 78b983050bd94b94af3590c9eeb793a8&#45;&gt;0283fed514d947979f5a0781bf842668 -->
<g id="edge29" class="edge">
<title>78b983050bd94b94af3590c9eeb793a8&#45;&gt;0283fed514d947979f5a0781bf842668</title>
<path fill="none" stroke="#7b8894" d="M899.01,-1677.5C980.26,-1677.5 1131,-1677.5 1131,-1677.5 1131,-1677.5 1131,-1887.17 1131,-1887.17 1131,-1887.17 1197.74,-1887.17 1197.74,-1887.17"/>
<polygon fill="#7b8894" stroke="#7b8894" points="1197.74,-1890.67 1207.74,-1887.17 1197.74,-1883.67 1197.74,-1890.67"/>
<text text-anchor="middle" x="1043" y="-1825.6" font-family="Sans-Serif" font-size="13.00" fill="darkgrey">t_anciennes_valeurs_gads</text>
</g>
<!-- bfd88dfefaa34be5ae62ec4de9b136f3 -->
<g id="node29" class="node">
<title>bfd88dfefaa34be5ae62ec4de9b136f3</title>
<image xlink:href="icons/bigquery.png" width="101px" height="101px" preserveAspectRatio="xMinYMin meet" x="1208" y="-1240.5"/>
<text text-anchor="middle" x="1258.5" y="-1125.1" font-family="Sans-Serif" font-size="13.00" fill="#2d3436">amadeus.t_ama_anciennes_valeurs_sousindicateur_gads</text>
</g>
<!-- 78b983050bd94b94af3590c9eeb793a8&#45;&gt;bfd88dfefaa34be5ae62ec4de9b136f3 -->
<g id="edge30" class="edge">
<title>78b983050bd94b94af3590c9eeb793a8&#45;&gt;bfd88dfefaa34be5ae62ec4de9b136f3</title>
<path fill="none" stroke="#7b8894" d="M899.36,-1581.3C948.32,-1581.3 1015,-1581.3 1015,-1581.3 1015,-1581.3 1015,-1190 1015,-1190 1015,-1190 1197.75,-1190 1197.75,-1190"/>
<polygon fill="#7b8894" stroke="#7b8894" points="1197.75,-1193.5 1207.75,-1190 1197.75,-1186.5 1197.75,-1193.5"/>
<text text-anchor="middle" x="1043" y="-1352.6" font-family="Sans-Serif" font-size="13.00" fill="darkgrey">t_anciennes_valeurs_sousindicateur_gads</text>
</g>
<!-- f27ba27b311d45f9a4752fed380aa3e3 -->
<g id="node18" class="node">
<title>f27ba27b311d45f9a4752fed380aa3e3</title>
<image xlink:href="icons/bigquery.png" width="101px" height="101px" preserveAspectRatio="xMinYMin meet" x="1527" y="-959.5"/>
<text text-anchor="middle" x="1577.5" y="-844.1" font-family="Sans-Serif" font-size="13.00" fill="#2d3436">amadeus.t_ama_leads_appels</text>
</g>
<!-- 226b3be311ff4c62a914bb2c42d2d642&#45;&gt;f27ba27b311d45f9a4752fed380aa3e3 -->
<g id="edge17" class="edge">
<title>226b3be311ff4c62a914bb2c42d2d642&#45;&gt;f27ba27b311d45f9a4752fed380aa3e3</title>
<path fill="none" stroke="#7b8894" d="M1309.05,-909C1309.05,-909 1516.93,-909 1516.93,-909"/>
<polygon fill="#7b8894" stroke="#7b8894" points="1516.93,-912.5 1526.93,-909 1516.93,-905.5 1516.93,-912.5"/>
<text text-anchor="middle" x="1428.5" y="-912.6" font-family="Sans-Serif" font-size="13.00" fill="darkgrey">t_leads_appels</text>
</g>
<!-- e4701f1e6512432aa48a335dbd5e103c -->
<g id="node16" class="node">
<title>e4701f1e6512432aa48a335dbd5e103c</title>
<image xlink:href="icons/bigquery.png" width="101px" height="101px" preserveAspectRatio="xMinYMin meet" x="426" y="-1600.5"/>
<text text-anchor="middle" x="476.5" y="-1485.1" font-family="Sans-Serif" font-size="13.00" fill="#2d3436">amadeus.e_ama_appels_2020</text>
</g>
<!-- e4701f1e6512432aa48a335dbd5e103c&#45;&gt;78b983050bd94b94af3590c9eeb793a8 -->
<g id="edge15" class="edge">
<title>e4701f1e6512432aa48a335dbd5e103c&#45;&gt;78b983050bd94b94af3590c9eeb793a8</title>
<path fill="none" stroke="#7b8894" d="M527.06,-1587.5C527.06,-1587.5 787.76,-1587.5 787.76,-1587.5"/>
<polygon fill="#7b8894" stroke="#7b8894" points="787.76,-1591 797.76,-1587.5 787.76,-1584 787.76,-1591"/>
<text text-anchor="middle" x="662.5" y="-1582.6" font-family="Sans-Serif" font-size="13.00" fill="darkgrey">t_appels</text>
</g>
<!-- 31ed73a99ede4a1292994c79818635e2 -->
<g id="node17" class="node">
<title>31ed73a99ede4a1292994c79818635e2</title>
<image xlink:href="icons/bigquery.png" width="101px" height="101px" preserveAspectRatio="xMinYMin meet" x="426" y="-1780.5"/>
<text text-anchor="middle" x="476.5" y="-1665.1" font-family="Sans-Serif" font-size="13.00" fill="#2d3436">amadeus.e_ama_appels_2018_2019</text>
</g>
<!-- 31ed73a99ede4a1292994c79818635e2&#45;&gt;78b983050bd94b94af3590c9eeb793a8 -->
<g id="edge16" class="edge">
<title>31ed73a99ede4a1292994c79818635e2&#45;&gt;78b983050bd94b94af3590c9eeb793a8</title>
<path fill="none" stroke="#7b8894" d="M527.06,-1672.17C527.06,-1672.17 787.76,-1672.17 787.76,-1672.17"/>
<polygon fill="#7b8894" stroke="#7b8894" points="787.76,-1675.67 797.76,-1672.17 787.76,-1668.67 787.76,-1675.67"/>
<text text-anchor="middle" x="662.5" y="-1674.6" font-family="Sans-Serif" font-size="13.00" fill="darkgrey">t_appels</text>
</g>
<!-- f6ca770eb27f4dcfb711daf684d1c997&#45;&gt;96807b67a6b840ec86217aede35db6da -->
<g id="edge20" class="edge">
<title>f6ca770eb27f4dcfb711daf684d1c997&#45;&gt;96807b67a6b840ec86217aede35db6da</title>
<path fill="none" stroke="#7b8894" d="M1309.13,-2090C1399.22,-2090 1578,-2090 1578,-2090 1578,-2090 1578,-1423.75 1578,-1423.75"/>
<polygon fill="#7b8894" stroke="#7b8894" points="1581.5,-1423.75 1578,-1413.75 1574.5,-1423.75 1581.5,-1423.75"/>
<text text-anchor="middle" x="1428.5" y="-1604.6" font-family="Sans-Serif" font-size="13.00" fill="darkgrey">t_contrats_appels_leviers</text>
</g>
<!-- 122cf9b9647144138787257f283fdfcb -->
<g id="node21" class="node">
<title>122cf9b9647144138787257f283fdfcb</title>
<image xlink:href="icons/storage.png" width="101px" height="101px" preserveAspectRatio="xMinYMin meet" x="16" y="-1240.5"/>
<text text-anchor="middle" x="66.5" y="-1125.1" font-family="Sans-Serif" font-size="13.00" fill="#2d3436">amadeus_bi.eloqua/AMA_GOOG_RETR_MARK_ELQC_315_*</text>
</g>
<!-- 74638dcaac3a449f96af0234bb6c8083 -->
<g id="node22" class="node">
<title>74638dcaac3a449f96af0234bb6c8083</title>
<image xlink:href="icons/bigquery.png" width="101px" height="101px" preserveAspectRatio="xMinYMin meet" x="426" y="-1240.5"/>
<text text-anchor="middle" x="476.5" y="-1125.1" font-family="Sans-Serif" font-size="13.00" fill="#2d3436">eloqua.e_elq_promo_applis_mobiles_clics_emails</text>
</g>
<!-- 122cf9b9647144138787257f283fdfcb&#45;&gt;74638dcaac3a449f96af0234bb6c8083 -->
<g id="edge22" class="edge">
<title>122cf9b9647144138787257f283fdfcb&#45;&gt;74638dcaac3a449f96af0234bb6c8083</title>
<path fill="none" stroke="#7b8894" d="M117.19,-1190C117.19,-1190 415.93,-1190 415.93,-1190"/>
<polygon fill="#7b8894" stroke="#7b8894" points="415.93,-1193.5 425.93,-1190 415.93,-1186.5 415.93,-1193.5"/>
<text text-anchor="middle" x="271.5" y="-1193.6" font-family="Sans-Serif" font-size="13.00" fill="darkgrey">e_elq_promo_applis_mobiles_clics_emails</text>
</g>
<!-- 74638dcaac3a449f96af0234bb6c8083&#45;&gt;39b3439808154e2aa92dc2f206b58147 -->
<g id="edge23" class="edge">
<title>74638dcaac3a449f96af0234bb6c8083&#45;&gt;39b3439808154e2aa92dc2f206b58147</title>
<path fill="none" stroke="#7b8894" d="M527.06,-1190C527.06,-1190 787.76,-1190 787.76,-1190"/>
<polygon fill="#7b8894" stroke="#7b8894" points="787.76,-1193.5 797.76,-1190 787.76,-1186.5 787.76,-1193.5"/>
<text text-anchor="middle" x="662.5" y="-1193.6" font-family="Sans-Serif" font-size="13.00" fill="darkgrey">t_elq_promo_applis_mobiles_tlgt_appli</text>
</g>
<!-- 46a22bd510af4819b4162dfd2c7e5e48 -->
<g id="node30" class="node">
<title>46a22bd510af4819b4162dfd2c7e5e48</title>
<image xlink:href="icons/bigquery.png" width="101px" height="101px" preserveAspectRatio="xMinYMin meet" x="16" y="-1060.5"/>
<text text-anchor="middle" x="66.5" y="-945.1" font-family="Sans-Serif" font-size="13.00" fill="#2d3436">comper.t_v_digi_cube_valeur</text>
</g>
<!-- 4ba793ce625c435dbbb921b751c5d559 -->
<g id="node31" class="node">
<title>4ba793ce625c435dbbb921b751c5d559</title>
<image xlink:href="icons/bigquery.png" width="101px" height="101px" preserveAspectRatio="xMinYMin meet" x="426" y="-1060.5"/>
<text text-anchor="middle" x="476.5" y="-945.1" font-family="Sans-Serif" font-size="13.00" fill="#2d3436">amadeus.t_ama_parrainage</text>
</g>
<!-- 46a22bd510af4819b4162dfd2c7e5e48&#45;&gt;4ba793ce625c435dbbb921b751c5d559 -->
<g id="edge31" class="edge">
<title>46a22bd510af4819b4162dfd2c7e5e48&#45;&gt;4ba793ce625c435dbbb921b751c5d559</title>
<path fill="none" stroke="#7b8894" d="M117.19,-1010C117.19,-1010 415.93,-1010 415.93,-1010"/>
<polygon fill="#7b8894" stroke="#7b8894" points="415.93,-1013.5 425.93,-1010 415.93,-1006.5 415.93,-1013.5"/>
<text text-anchor="middle" x="271.5" y="-1013.6" font-family="Sans-Serif" font-size="13.00" fill="darkgrey">t_parrainage</text>
</g>
<!-- d98b52c1f185464b9f2bcc171b7312ac -->
<g id="node32" class="node">
<title>d98b52c1f185464b9f2bcc171b7312ac</title>
<image xlink:href="icons/bigquery.png" width="101px" height="101px" preserveAspectRatio="xMinYMin meet" x="798" y="-1060.5"/>
<text text-anchor="middle" x="848.5" y="-945.1" font-family="Sans-Serif" font-size="13.00" fill="#2d3436">comper.l_ama_to_ds_comper_t_ama_parrainage</text>
</g>
<!-- 4ba793ce625c435dbbb921b751c5d559&#45;&gt;d98b52c1f185464b9f2bcc171b7312ac -->
<g id="edge32" class="edge">
<title>4ba793ce625c435dbbb921b751c5d559&#45;&gt;d98b52c1f185464b9f2bcc171b7312ac</title>
<path fill="none" stroke="#7b8894" d="M527.06,-1010C527.06,-1010 787.76,-1010 787.76,-1010"/>
<polygon fill="#7b8894" stroke="#7b8894" points="787.76,-1013.5 797.76,-1010 787.76,-1006.5 787.76,-1013.5"/>
<text text-anchor="middle" x="662.5" y="-1013.6" font-family="Sans-Serif" font-size="13.00" fill="darkgrey">l_to_ds_comper_t_ama_parrainage</text>
</g>
<!-- 1c12f47b6f9a431d9277289f5296520a -->
<g id="node33" class="node">
<title>1c12f47b6f9a431d9277289f5296520a</title>
<image xlink:href="icons/bigquery.png" width="101px" height="101px" preserveAspectRatio="xMinYMin meet" x="16" y="-880.5"/>
<text text-anchor="middle" x="66.5" y="-765.1" font-family="Sans-Serif" font-size="13.00" fill="#2d3436">amadeus.e_gsheet_contrats_services</text>
</g>
<!-- 4898178a45d74999b53ff26a9f6efa75 -->
<g id="node34" class="node">
<title>4898178a45d74999b53ff26a9f6efa75</title>
<image xlink:href="icons/bigquery.png" width="101px" height="101px" preserveAspectRatio="xMinYMin meet" x="426" y="-880.5"/>
<text text-anchor="middle" x="476.5" y="-765.1" font-family="Sans-Serif" font-size="13.00" fill="#2d3436">comper.l_ama_to_ds_comper_contrats_services</text>
</g>
<!-- 1c12f47b6f9a431d9277289f5296520a&#45;&gt;4898178a45d74999b53ff26a9f6efa75 -->
<g id="edge33" class="edge">
<title>1c12f47b6f9a431d9277289f5296520a&#45;&gt;4898178a45d74999b53ff26a9f6efa75</title>
<path fill="none" stroke="#7b8894" d="M117.19,-830C117.19,-830 415.93,-830 415.93,-830"/>
<polygon fill="#7b8894" stroke="#7b8894" points="415.93,-833.5 425.93,-830 415.93,-826.5 415.93,-833.5"/>
<text text-anchor="middle" x="271.5" y="-833.6" font-family="Sans-Serif" font-size="13.00" fill="darkgrey">l_to_ds_comper_contrats_services</text>
</g>
<!-- fcc9dd7dc8b943e1baf3e446dc86f33c -->
<g id="node35" class="node">
<title>fcc9dd7dc8b943e1baf3e446dc86f33c</title>
<image xlink:href="icons/bigquery.png" width="101px" height="101px" preserveAspectRatio="xMinYMin meet" x="16" y="-700.5"/>
<text text-anchor="middle" x="66.5" y="-585.1" font-family="Sans-Serif" font-size="13.00" fill="#2d3436">reporting_equipements.bout_en_bout_equipements</text>
</g>
<!-- 1c14557282df4c75bf1c20371e4fa026 -->
<g id="node36" class="node">
<title>1c14557282df4c75bf1c20371e4fa026</title>
<image xlink:href="icons/bigquery.png" width="101px" height="101px" preserveAspectRatio="xMinYMin meet" x="426" y="-700.5"/>
<text text-anchor="middle" x="476.5" y="-585.1" font-family="Sans-Serif" font-size="13.00" fill="#2d3436">comper.l_ama_to_ds_comper_bout_en_bout_equipements</text>
</g>
<!-- fcc9dd7dc8b943e1baf3e446dc86f33c&#45;&gt;1c14557282df4c75bf1c20371e4fa026 -->
<g id="edge34" class="edge">
<title>fcc9dd7dc8b943e1baf3e446dc86f33c&#45;&gt;1c14557282df4c75bf1c20371e4fa026</title>
<path fill="none" stroke="#7b8894" d="M117.19,-650C117.19,-650 415.93,-650 415.93,-650"/>
<polygon fill="#7b8894" stroke="#7b8894" points="415.93,-653.5 425.93,-650 415.93,-646.5 415.93,-653.5"/>
<text text-anchor="middle" x="271.5" y="-653.6" font-family="Sans-Serif" font-size="13.00" fill="darkgrey">l_to_ds_comper_bout_en_bout_equipements</text>
</g>
<!-- a1e673f3e3194b27a65277566e071211 -->
<g id="node37" class="node">
<title>a1e673f3e3194b27a65277566e071211</title>
<image xlink:href="icons/bigquery.png" width="101px" height="101px" preserveAspectRatio="xMinYMin meet" x="16" y="-520.5"/>
<text text-anchor="middle" x="66.5" y="-405.1" font-family="Sans-Serif" font-size="13.00" fill="#2d3436">amadeus.e_ama_options_vertes</text>
</g>
<!-- 9c16e7de0f0742cfbd41c8a53f539d31 -->
<g id="node38" class="node">
<title>9c16e7de0f0742cfbd41c8a53f539d31</title>
<image xlink:href="icons/bigquery.png" width="101px" height="101px" preserveAspectRatio="xMinYMin meet" x="426" y="-520.5"/>
<text text-anchor="middle" x="476.5" y="-405.1" font-family="Sans-Serif" font-size="13.00" fill="#2d3436">comper.t_ama_options_vertes</text>
</g>
<!-- a1e673f3e3194b27a65277566e071211&#45;&gt;9c16e7de0f0742cfbd41c8a53f539d31 -->
<g id="edge35" class="edge">
<title>a1e673f3e3194b27a65277566e071211&#45;&gt;9c16e7de0f0742cfbd41c8a53f539d31</title>
<path fill="none" stroke="#7b8894" d="M117.19,-470C117.19,-470 415.93,-470 415.93,-470"/>
<polygon fill="#7b8894" stroke="#7b8894" points="415.93,-473.5 425.93,-470 415.93,-466.5 415.93,-473.5"/>
<text text-anchor="middle" x="271.5" y="-473.6" font-family="Sans-Serif" font-size="13.00" fill="darkgrey">t_options_vertes</text>
</g>
<!-- eab146fcd2f7404c99520b29aa0aa483 -->
<g id="node39" class="node">
<title>eab146fcd2f7404c99520b29aa0aa483</title>
<image xlink:href="icons/bigquery.png" width="101px" height="101px" preserveAspectRatio="xMinYMin meet" x="798" y="-520.5"/>
<text text-anchor="middle" x="848.5" y="-405.1" font-family="Sans-Serif" font-size="13.00" fill="#2d3436">comper.l_ama_to_ds_comper_options_vertes</text>
</g>
<!-- 9c16e7de0f0742cfbd41c8a53f539d31&#45;&gt;eab146fcd2f7404c99520b29aa0aa483 -->
<g id="edge36" class="edge">
<title>9c16e7de0f0742cfbd41c8a53f539d31&#45;&gt;eab146fcd2f7404c99520b29aa0aa483</title>
<path fill="none" stroke="#7b8894" d="M527.06,-470C527.06,-470 787.76,-470 787.76,-470"/>
<polygon fill="#7b8894" stroke="#7b8894" points="787.76,-473.5 797.76,-470 787.76,-466.5 787.76,-473.5"/>
<text text-anchor="middle" x="662.5" y="-473.6" font-family="Sans-Serif" font-size="13.00" fill="darkgrey">l_to_ds_comper_options_vertes</text>
</g>
<!-- c40f7f76a56f4a70b3a42c2ff6ec04f4 -->
<g id="node40" class="node">
<title>c40f7f76a56f4a70b3a42c2ff6ec04f4</title>
<image xlink:href="icons/bigquery.png" width="101px" height="101px" preserveAspectRatio="xMinYMin meet" x="16" y="-340.5"/>
<text text-anchor="middle" x="66.5" y="-225.1" font-family="Sans-Serif" font-size="13.00" fill="#2d3436">amadeus.e_ama_prelevement_mensualisation</text>
</g>
<!-- 8893c3b3615342dbaaef810101f0338c -->
<g id="node41" class="node">
<title>8893c3b3615342dbaaef810101f0338c</title>
<image xlink:href="icons/bigquery.png" width="101px" height="101px" preserveAspectRatio="xMinYMin meet" x="426" y="-340.5"/>
<text text-anchor="middle" x="476.5" y="-225.1" font-family="Sans-Serif" font-size="13.00" fill="#2d3436">comper.l_ama_to_ds_comper_prelevement_mensualisation</text>
</g>
<!-- c40f7f76a56f4a70b3a42c2ff6ec04f4&#45;&gt;8893c3b3615342dbaaef810101f0338c -->
<g id="edge37" class="edge">
<title>c40f7f76a56f4a70b3a42c2ff6ec04f4&#45;&gt;8893c3b3615342dbaaef810101f0338c</title>
<path fill="none" stroke="#7b8894" d="M117.19,-290C117.19,-290 415.93,-290 415.93,-290"/>
<polygon fill="#7b8894" stroke="#7b8894" points="415.93,-293.5 425.93,-290 415.93,-286.5 415.93,-293.5"/>
<text text-anchor="middle" x="271.5" y="-293.6" font-family="Sans-Serif" font-size="13.00" fill="darkgrey">l_to_ds_comper_prelevement_mensualisation</text>
</g>
<!-- 224d7b015ff14d7f9648e552af979472 -->
<g id="node42" class="node">
<title>224d7b015ff14d7f9648e552af979472</title>
<image xlink:href="icons/bigquery.png" width="101px" height="101px" preserveAspectRatio="xMinYMin meet" x="16" y="-160.5"/>
<text text-anchor="middle" x="66.5" y="-45.1" font-family="Sans-Serif" font-size="13.00" fill="#2d3436">amadeus.e_gsheet_activation_energie</text>
</g>
<!-- 4a9ab1facf9246aa9435520698d37d2c -->
<g id="node43" class="node">
<title>4a9ab1facf9246aa9435520698d37d2c</title>
<image xlink:href="icons/bigquery.png" width="101px" height="101px" preserveAspectRatio="xMinYMin meet" x="426" y="-160.5"/>
<text text-anchor="middle" x="476.5" y="-45.1" font-family="Sans-Serif" font-size="13.00" fill="#2d3436">comper.l_ama_to_ds_comper_activation_energie</text>
</g>
<!-- 224d7b015ff14d7f9648e552af979472&#45;&gt;4a9ab1facf9246aa9435520698d37d2c -->
<g id="edge38" class="edge">
<title>224d7b015ff14d7f9648e552af979472&#45;&gt;4a9ab1facf9246aa9435520698d37d2c</title>
<path fill="none" stroke="#7b8894" d="M117.19,-110C117.19,-110 415.93,-110 415.93,-110"/>
<polygon fill="#7b8894" stroke="#7b8894" points="415.93,-113.5 425.93,-110 415.93,-106.5 415.93,-113.5"/>
<text text-anchor="middle" x="271.5" y="-113.6" font-family="Sans-Serif" font-size="13.00" fill="darkgrey">l_to_ds_comper_activation_energie</text>
</g>
</g>
</svg>
