<?xml version="1.0" encoding="UTF-8" standalone="no"?>
<!DOCTYPE svg PUBLIC "-//W3C//DTD SVG 1.1//EN"
 "http://www.w3.org/Graphics/SVG/1.1/DTD/svg11.dtd">
<!-- Generated by graphviz version 2.47.1 (20210417.1919)
 -->
<!-- Title: amadeus Pages: 1 -->
<svg width="1932pt" height="2844pt"
 viewBox="0.00 0.00 1932.00 2844.00" xmlns="http://www.w3.org/2000/svg" xmlns:xlink="http://www.w3.org/1999/xlink">
<g id="graph0" class="graph" transform="scale(1 1) rotate(0) translate(144 2700)">
<title>amadeus</title>
<text text-anchor="middle" x="822" y="-9" font-family="Sans-Serif" font-size="15.00" fill="#2d3436">amadeus</text>
<g id="clust1" class="cluster">
<title>cluster_amadeus</title>
<path fill="#e5f5fd" stroke="#aeb6be" d="M20,-33C20,-33 1624,-33 1624,-33 1630,-33 1636,-39 1636,-45 1636,-45 1636,-2536 1636,-2536 1636,-2542 1630,-2548 1624,-2548 1624,-2548 20,-2548 20,-2548 14,-2548 8,-2542 8,-2536 8,-2536 8,-45 8,-45 8,-39 14,-33 20,-33"/>
<text text-anchor="middle" x="40" y="-2534.4" font-family="Sans-Serif" font-size="12.00" fill="#2d3436">amadeus</text>
</g>
<!-- 9c100ff762354d2cb505240f00f6dfa5 -->
<g id="node1" class="node">
<title>9c100ff762354d2cb505240f00f6dfa5</title>
<image xlink:href="icons/storage.png" width="101px" height="101px" preserveAspectRatio="xMinYMin meet" x="16" y="-2500.5"/>
<text text-anchor="middle" x="66.5" y="-2385.1" font-family="Sans-Serif" font-size="13.00" fill="#2d3436">amadeus_bi.formulaires/GA_VENT_DIGT_</text>
</g>
<!-- d5269aa8f637426f93c3e0d10c3849c3 -->
<g id="node2" class="node">
<title>d5269aa8f637426f93c3e0d10c3849c3</title>
<image xlink:href="icons/bigquery.png" width="101px" height="101px" preserveAspectRatio="xMinYMin meet" x="426" y="-2500.5"/>
<text text-anchor="middle" x="476.5" y="-2385.1" font-family="Sans-Serif" font-size="13.00" fill="#2d3436">amadeus.e_ama_formulaires_stor</text>
</g>
<!-- 9c100ff762354d2cb505240f00f6dfa5&#45;&gt;d5269aa8f637426f93c3e0d10c3849c3 -->
<g id="edge1" class="edge">
<title>9c100ff762354d2cb505240f00f6dfa5&#45;&gt;d5269aa8f637426f93c3e0d10c3849c3</title>
<path fill="none" stroke="#7b8894" d="M117.19,-2450C117.19,-2450 415.93,-2450 415.93,-2450"/>
<polygon fill="#7b8894" stroke="#7b8894" points="415.93,-2453.5 425.93,-2450 415.93,-2446.5 415.93,-2453.5"/>
<text text-anchor="middle" x="271.5" y="-2453.6" font-family="Sans-Serif" font-size="13.00" fill="darkgrey">e_formulaires</text>
</g>
<!-- 3033a51f53cb4efbbe7d57046473f5ec -->
<g id="node5" class="node">
<title>3033a51f53cb4efbbe7d57046473f5ec</title>
<image xlink:href="icons/bigquery.png" width="101px" height="101px" preserveAspectRatio="xMinYMin meet" x="798" y="-2320.5"/>
<text text-anchor="middle" x="848.5" y="-2205.1" font-family="Sans-Serif" font-size="13.00" fill="#2d3436">amadeus.t_ama_formulaires_campagnes</text>
</g>
<!-- d5269aa8f637426f93c3e0d10c3849c3&#45;&gt;3033a51f53cb4efbbe7d57046473f5ec -->
<g id="edge3" class="edge">
<title>d5269aa8f637426f93c3e0d10c3849c3&#45;&gt;3033a51f53cb4efbbe7d57046473f5ec</title>
<path fill="none" stroke="#7b8894" d="M494,-2381.33C494,-2369.01 494,-2360 494,-2360 494,-2360 849,-2360 849,-2360 849,-2360 849,-2348.67 849,-2348.67"/>
<polygon fill="#7b8894" stroke="#7b8894" points="852.5,-2348.67 849,-2338.67 845.5,-2348.67 852.5,-2348.67"/>
<text text-anchor="middle" x="662.5" y="-2394.6" font-family="Sans-Serif" font-size="13.00" fill="darkgrey">t_formulaires_campagnes</text>
</g>
<!-- d30a9c83d69e48a4a3d28754b29fa5c6 -->
<g id="node11" class="node">
<title>d30a9c83d69e48a4a3d28754b29fa5c6</title>
<image xlink:href="icons/bigquery.png" width="101px" height="101px" preserveAspectRatio="xMinYMin meet" x="798" y="-2500.5"/>
<text text-anchor="middle" x="848.5" y="-2385.1" font-family="Sans-Serif" font-size="13.00" fill="#2d3436">amadeus.t_ama_formulaires_verif_flux_ga</text>
</g>
<!-- d5269aa8f637426f93c3e0d10c3849c3&#45;&gt;d30a9c83d69e48a4a3d28754b29fa5c6 -->
<g id="edge9" class="edge">
<title>d5269aa8f637426f93c3e0d10c3849c3&#45;&gt;d30a9c83d69e48a4a3d28754b29fa5c6</title>
<path fill="none" stroke="#7b8894" d="M527.06,-2450C527.06,-2450 787.76,-2450 787.76,-2450"/>
<polygon fill="#7b8894" stroke="#7b8894" points="787.76,-2453.5 797.76,-2450 787.76,-2446.5 787.76,-2453.5"/>
<text text-anchor="middle" x="662.5" y="-2456.6" font-family="Sans-Serif" font-size="13.00" fill="darkgrey">t_formulaires_verif_flux_ga</text>
</g>
<!-- 294c6b7e3ffb40b9a437cc3ba2e65865 -->
<g id="node3" class="node">
<title>294c6b7e3ffb40b9a437cc3ba2e65865</title>
<image xlink:href="icons/storage.png" width="101px" height="101px" preserveAspectRatio="xMinYMin meet" x="16" y="-1960.5"/>
<text text-anchor="middle" x="66.5" y="-1845.1" font-family="Sans-Serif" font-size="13.00" fill="#2d3436">amadeus_bi.appels/GA_SVI_</text>
</g>
<!-- a493cbe403f7487eb9b71084327496d9 -->
<g id="node4" class="node">
<title>a493cbe403f7487eb9b71084327496d9</title>
<image xlink:href="icons/bigquery.png" width="101px" height="101px" preserveAspectRatio="xMinYMin meet" x="426" y="-1960.5"/>
<text text-anchor="middle" x="476.5" y="-1845.1" font-family="Sans-Serif" font-size="13.00" fill="#2d3436">amadeus.e_ama_appels</text>
</g>
<!-- 294c6b7e3ffb40b9a437cc3ba2e65865&#45;&gt;a493cbe403f7487eb9b71084327496d9 -->
<g id="edge2" class="edge">
<title>294c6b7e3ffb40b9a437cc3ba2e65865&#45;&gt;a493cbe403f7487eb9b71084327496d9</title>
<path fill="none" stroke="#7b8894" d="M117.19,-1910C117.19,-1910 415.93,-1910 415.93,-1910"/>
<polygon fill="#7b8894" stroke="#7b8894" points="415.93,-1913.5 425.93,-1910 415.93,-1906.5 415.93,-1913.5"/>
<text text-anchor="middle" x="271.5" y="-1913.6" font-family="Sans-Serif" font-size="13.00" fill="darkgrey">e_appels</text>
</g>
<!-- 1554a42148bb4cc6824b590bf82d1f23 -->
<g id="node14" class="node">
<title>1554a42148bb4cc6824b590bf82d1f23</title>
<image xlink:href="icons/bigquery.png" width="101px" height="101px" preserveAspectRatio="xMinYMin meet" x="798" y="-1675.5"/>
<text text-anchor="middle" x="848.5" y="-1560.1" font-family="Sans-Serif" font-size="13.00" fill="#2d3436">amadeus.t_ama_appels</text>
</g>
<!-- a493cbe403f7487eb9b71084327496d9&#45;&gt;1554a42148bb4cc6824b590bf82d1f23 -->
<g id="edge14" class="edge">
<title>a493cbe403f7487eb9b71084327496d9&#45;&gt;1554a42148bb4cc6824b590bf82d1f23</title>
<path fill="none" stroke="#7b8894" d="M527.46,-1910C582.68,-1910 663,-1910 663,-1910 663,-1910 663,-1682.83 663,-1682.83 663,-1682.83 787.81,-1682.83 787.81,-1682.83"/>
<polygon fill="#7b8894" stroke="#7b8894" points="787.81,-1686.33 797.81,-1682.83 787.81,-1679.33 787.81,-1686.33"/>
<text text-anchor="middle" x="662.5" y="-1853.6" font-family="Sans-Serif" font-size="13.00" fill="darkgrey">t_appels</text>
</g>
<!-- 4c073496005e43928450b4a9af726f94 -->
<g id="node24" class="node">
<title>4c073496005e43928450b4a9af726f94</title>
<image xlink:href="icons/bigquery.png" width="101px" height="101px" preserveAspectRatio="xMinYMin meet" x="798" y="-2140.5"/>
<text text-anchor="middle" x="848.5" y="-2025.1" font-family="Sans-Serif" font-size="13.00" fill="#2d3436">amadeus.t_ama_import_gads</text>
</g>
<!-- a493cbe403f7487eb9b71084327496d9&#45;&gt;4c073496005e43928450b4a9af726f94 -->
<g id="edge25" class="edge">
<title>a493cbe403f7487eb9b71084327496d9&#45;&gt;4c073496005e43928450b4a9af726f94</title>
<path fill="none" stroke="#7b8894" d="M477,-1978.54C477,-1994.62 477,-2007.17 477,-2007.17 477,-2007.17 832,-2007.17 832,-2007.17 832,-2007.17 832,-2011.22 832,-2011.22"/>
<polygon fill="#7b8894" stroke="#7b8894" points="828.5,-2011.22 832,-2021.22 835.5,-2011.22 828.5,-2011.22"/>
<text text-anchor="middle" x="662.5" y="-1972.6" font-family="Sans-Serif" font-size="13.00" fill="darkgrey">t_import_gads</text>
</g>
<!-- 77195a1f107b44fd838ebbe682b4149e -->
<g id="node8" class="node">
<title>77195a1f107b44fd838ebbe682b4149e</title>
<image xlink:href="icons/bigquery.png" width="101px" height="101px" preserveAspectRatio="xMinYMin meet" x="1208" y="-2320.5"/>
<text text-anchor="middle" x="1258.5" y="-2205.1" font-family="Sans-Serif" font-size="13.00" fill="#2d3436">amadeus.t_ama_contrats_formulaires</text>
</g>
<!-- 3033a51f53cb4efbbe7d57046473f5ec&#45;&gt;77195a1f107b44fd838ebbe682b4149e -->
<g id="edge6" class="edge">
<title>3033a51f53cb4efbbe7d57046473f5ec&#45;&gt;77195a1f107b44fd838ebbe682b4149e</title>
<path fill="none" stroke="#7b8894" d="M899.19,-2292.83C899.19,-2292.83 1197.93,-2292.83 1197.93,-2292.83"/>
<polygon fill="#7b8894" stroke="#7b8894" points="1197.93,-2296.33 1207.93,-2292.83 1197.93,-2289.33 1197.93,-2296.33"/>
<text text-anchor="middle" x="1043" y="-2273.6" font-family="Sans-Serif" font-size="13.00" fill="darkgrey">t_contrats_formulaires</text>
</g>
<!-- c5f68d658cf742e0b58e88178424af18 -->
<g id="node10" class="node">
<title>c5f68d658cf742e0b58e88178424af18</title>
<image xlink:href="icons/bigquery.png" width="101px" height="101px" preserveAspectRatio="xMinYMin meet" x="1208" y="-2500.5"/>
<text text-anchor="middle" x="1258.5" y="-2385.1" font-family="Sans-Serif" font-size="13.00" fill="#2d3436">amadeus.t_ama_leads_formulaires</text>
</g>
<!-- 3033a51f53cb4efbbe7d57046473f5ec&#45;&gt;c5f68d658cf742e0b58e88178424af18 -->
<g id="edge8" class="edge">
<title>3033a51f53cb4efbbe7d57046473f5ec&#45;&gt;c5f68d658cf742e0b58e88178424af18</title>
<path fill="none" stroke="#7b8894" d="M874,-2338.56C874,-2345.04 874,-2349.25 874,-2349.25 874,-2349.25 1259,-2349.25 1259,-2349.25 1259,-2349.25 1259,-2371.4 1259,-2371.4"/>
<polygon fill="#7b8894" stroke="#7b8894" points="1255.5,-2371.4 1259,-2381.4 1262.5,-2371.4 1255.5,-2371.4"/>
<text text-anchor="middle" x="1043" y="-2394.6" font-family="Sans-Serif" font-size="13.00" fill="darkgrey">t_leads_formulaires</text>
</g>
<!-- be9e6bc3775c480db1aa994461e565d5 -->
<g id="node6" class="node">
<title>be9e6bc3775c480db1aa994461e565d5</title>
<image xlink:href="icons/bigquery.png" width="101px" height="101px" preserveAspectRatio="xMinYMin meet" x="426" y="-2320.5"/>
<text text-anchor="middle" x="476.5" y="-2205.1" font-family="Sans-Serif" font-size="13.00" fill="#2d3436">ga.l_ga_to_ama_ga_formulaires_stor_*</text>
</g>
<!-- be9e6bc3775c480db1aa994461e565d5&#45;&gt;3033a51f53cb4efbbe7d57046473f5ec -->
<g id="edge4" class="edge">
<title>be9e6bc3775c480db1aa994461e565d5&#45;&gt;3033a51f53cb4efbbe7d57046473f5ec</title>
<path fill="none" stroke="#7b8894" d="M527.06,-2270C527.06,-2270 787.76,-2270 787.76,-2270"/>
<polygon fill="#7b8894" stroke="#7b8894" points="787.76,-2273.5 797.76,-2270 787.76,-2266.5 787.76,-2273.5"/>
<text text-anchor="middle" x="662.5" y="-2270.6" font-family="Sans-Serif" font-size="13.00" fill="darkgrey">t_formulaires_campagnes</text>
</g>
<!-- be9e6bc3775c480db1aa994461e565d5&#45;&gt;d30a9c83d69e48a4a3d28754b29fa5c6 -->
<g id="edge10" class="edge">
<title>be9e6bc3775c480db1aa994461e565d5&#45;&gt;d30a9c83d69e48a4a3d28754b29fa5c6</title>
<path fill="none" stroke="#7b8894" d="M460,-2338.6C460,-2356.43 460,-2370.75 460,-2370.75 460,-2370.75 824,-2370.75 824,-2370.75 824,-2370.75 824,-2371.82 824,-2371.82"/>
<polygon fill="#7b8894" stroke="#7b8894" points="820.5,-2371.44 824,-2381.44 827.5,-2371.44 820.5,-2371.44"/>
<text text-anchor="middle" x="662.5" y="-2332.6" font-family="Sans-Serif" font-size="13.00" fill="darkgrey">t_formulaires_verif_flux_ga</text>
</g>
<!-- 69257616817f494992dc65bf4bbe33eb -->
<g id="node7" class="node">
<title>69257616817f494992dc65bf4bbe33eb</title>
<image xlink:href="icons/bigquery.png" width="101px" height="101px" preserveAspectRatio="xMinYMin meet" x="426" y="-2140.5"/>
<text text-anchor="middle" x="476.5" y="-2025.1" font-family="Sans-Serif" font-size="13.00" fill="#2d3436">ga.t_ga_correspondance_hash_campagnes</text>
</g>
<!-- 69257616817f494992dc65bf4bbe33eb&#45;&gt;3033a51f53cb4efbbe7d57046473f5ec -->
<g id="edge5" class="edge">
<title>69257616817f494992dc65bf4bbe33eb&#45;&gt;3033a51f53cb4efbbe7d57046473f5ec</title>
<path fill="none" stroke="#7b8894" d="M477,-2158.67C477,-2170.99 477,-2180 477,-2180 477,-2180 849,-2180 849,-2180 849,-2180 849,-2191.33 849,-2191.33"/>
<polygon fill="#7b8894" stroke="#7b8894" points="845.5,-2191.33 849,-2201.33 852.5,-2191.33 845.5,-2191.33"/>
<text text-anchor="middle" x="662.5" y="-2152.6" font-family="Sans-Serif" font-size="13.00" fill="darkgrey">t_formulaires_campagnes</text>
</g>
<!-- 619bbcec55594a7abf6635dcb4030f5e -->
<g id="node9" class="node">
<title>619bbcec55594a7abf6635dcb4030f5e</title>
<image xlink:href="icons/bigquery.png" width="101px" height="101px" preserveAspectRatio="xMinYMin meet" x="798" y="-1960.5"/>
<text text-anchor="middle" x="848.5" y="-1845.1" font-family="Sans-Serif" font-size="13.00" fill="#2d3436">comper.e_v_digi_import_cube_valeur</text>
</g>
<!-- 619bbcec55594a7abf6635dcb4030f5e&#45;&gt;77195a1f107b44fd838ebbe682b4149e -->
<g id="edge7" class="edge">
<title>619bbcec55594a7abf6635dcb4030f5e&#45;&gt;77195a1f107b44fd838ebbe682b4149e</title>
<path fill="none" stroke="#7b8894" d="M899.03,-1932.83C959.88,-1932.83 1054,-1932.83 1054,-1932.83 1054,-1932.83 1054,-2247.17 1054,-2247.17 1054,-2247.17 1197.95,-2247.17 1197.95,-2247.17"/>
<polygon fill="#7b8894" stroke="#7b8894" points="1197.95,-2250.67 1207.95,-2247.17 1197.95,-2243.67 1197.95,-2250.67"/>
<text text-anchor="middle" x="1043" y="-2169.6" font-family="Sans-Serif" font-size="13.00" fill="darkgrey">t_contrats_formulaires</text>
</g>
<!-- 3b3dafcac31f4222b7511025f943d8c9 -->
<g id="node19" class="node">
<title>3b3dafcac31f4222b7511025f943d8c9</title>
<image xlink:href="icons/bigquery.png" width="101px" height="101px" preserveAspectRatio="xMinYMin meet" x="1208" y="-2140.5"/>
<text text-anchor="middle" x="1258.5" y="-2025.1" font-family="Sans-Serif" font-size="13.00" fill="#2d3436">amadeus.t_ama_contrats_appels</text>
</g>
<!-- 619bbcec55594a7abf6635dcb4030f5e&#45;&gt;3b3dafcac31f4222b7511025f943d8c9 -->
<g id="edge19" class="edge">
<title>619bbcec55594a7abf6635dcb4030f5e&#45;&gt;3b3dafcac31f4222b7511025f943d8c9</title>
<path fill="none" stroke="#7b8894" d="M866,-1978.78C866,-1987.16 866,-1992.83 866,-1992.83 866,-1992.83 1259,-1992.83 1259,-1992.83 1259,-1992.83 1259,-2011.46 1259,-2011.46"/>
<polygon fill="#7b8894" stroke="#7b8894" points="1255.5,-2011.46 1259,-2021.46 1262.5,-2011.46 1255.5,-2011.46"/>
<text text-anchor="middle" x="1043" y="-2065.6" font-family="Sans-Serif" font-size="13.00" fill="darkgrey">t_contrats_appels</text>
</g>
<!-- d840122c72f140ee9b799b29e61d195f -->
<g id="node12" class="node">
<title>d840122c72f140ee9b799b29e61d195f</title>
<image xlink:href="icons/bigquery.png" width="101px" height="101px" preserveAspectRatio="xMinYMin meet" x="426" y="-1420.5"/>
<text text-anchor="middle" x="476.5" y="-1305.1" font-family="Sans-Serif" font-size="13.00" fill="#2d3436">ga.t_ga_sessions</text>
</g>
<!-- 0b27d516ab2c42308802f63bad3c251a -->
<g id="node13" class="node">
<title>0b27d516ab2c42308802f63bad3c251a</title>
<image xlink:href="icons/bigquery.png" width="101px" height="101px" preserveAspectRatio="xMinYMin meet" x="798" y="-1420.5"/>
<text text-anchor="middle" x="848.5" y="-1305.1" font-family="Sans-Serif" font-size="13.00" fill="#2d3436">amadeus.t_ama_appels_ga</text>
</g>
<!-- d840122c72f140ee9b799b29e61d195f&#45;&gt;0b27d516ab2c42308802f63bad3c251a -->
<g id="edge11" class="edge">
<title>d840122c72f140ee9b799b29e61d195f&#45;&gt;0b27d516ab2c42308802f63bad3c251a</title>
<path fill="none" stroke="#7b8894" d="M527.06,-1370C527.06,-1370 787.76,-1370 787.76,-1370"/>
<polygon fill="#7b8894" stroke="#7b8894" points="787.76,-1373.5 797.76,-1370 787.76,-1366.5 787.76,-1373.5"/>
<text text-anchor="middle" x="662.5" y="-1373.6" font-family="Sans-Serif" font-size="13.00" fill="darkgrey">t_appels_ga</text>
</g>
<!-- 79d3976fe19c43a481f648cdc8474ea4 -->
<g id="node23" class="node">
<title>79d3976fe19c43a481f648cdc8474ea4</title>
<image xlink:href="icons/bigquery.png" width="101px" height="101px" preserveAspectRatio="xMinYMin meet" x="798" y="-1240.5"/>
<text text-anchor="middle" x="848.5" y="-1125.1" font-family="Sans-Serif" font-size="13.00" fill="#2d3436">eloqua.t_elq_promo_applis_mobiles_tlgt_appli</text>
</g>
<!-- d840122c72f140ee9b799b29e61d195f&#45;&gt;79d3976fe19c43a481f648cdc8474ea4 -->
<g id="edge24" class="edge">
<title>d840122c72f140ee9b799b29e61d195f&#45;&gt;79d3976fe19c43a481f648cdc8474ea4</title>
<path fill="none" stroke="#7b8894" d="M477,-1301.35C477,-1282.67 477,-1267.5 477,-1267.5 477,-1267.5 866,-1267.5 866,-1267.5 866,-1267.5 866,-1266.61 866,-1266.61"/>
<polygon fill="#7b8894" stroke="#7b8894" points="869.5,-1268.61 866,-1258.61 862.5,-1268.61 869.5,-1268.61"/>
<text text-anchor="middle" x="662.5" y="-1283.6" font-family="Sans-Serif" font-size="13.00" fill="darkgrey">t_elq_promo_applis_mobiles_tlgt_appli</text>
</g>
<!-- a1e2abe292d541cfbdeac33d656d4ce5 -->
<g id="node15" class="node">
<title>a1e2abe292d541cfbdeac33d656d4ce5</title>
<image xlink:href="icons/bigquery.png" width="101px" height="101px" preserveAspectRatio="xMinYMin meet" x="1208" y="-959.5"/>
<text text-anchor="middle" x="1258.5" y="-844.1" font-family="Sans-Serif" font-size="13.00" fill="#2d3436">amadeus.t_ama_appels_leviers</text>
</g>
<!-- 0b27d516ab2c42308802f63bad3c251a&#45;&gt;a1e2abe292d541cfbdeac33d656d4ce5 -->
<g id="edge13" class="edge">
<title>0b27d516ab2c42308802f63bad3c251a&#45;&gt;a1e2abe292d541cfbdeac33d656d4ce5</title>
<path fill="none" stroke="#7b8894" d="M899,-1347.17C919.31,-1347.17 938,-1347.17 938,-1347.17 938,-1347.17 938,-953.5 938,-953.5 938,-953.5 1197.72,-953.5 1197.72,-953.5"/>
<polygon fill="#7b8894" stroke="#7b8894" points="1197.72,-957 1207.72,-953.5 1197.72,-950 1197.72,-957"/>
<text text-anchor="middle" x="1043" y="-979.6" font-family="Sans-Serif" font-size="13.00" fill="darkgrey">t_appels_leviers</text>
</g>
<!-- 36bc5a6c46a34ac1b9f381e61bd8870c -->
<g id="node20" class="node">
<title>36bc5a6c46a34ac1b9f381e61bd8870c</title>
<image xlink:href="icons/bigquery.png" width="101px" height="101px" preserveAspectRatio="xMinYMin meet" x="1527" y="-1395.5"/>
<text text-anchor="middle" x="1577.5" y="-1280.1" font-family="Sans-Serif" font-size="13.00" fill="#2d3436">amadeus.t_ama_contrats_appels_leviers</text>
</g>
<!-- 0b27d516ab2c42308802f63bad3c251a&#45;&gt;36bc5a6c46a34ac1b9f381e61bd8870c -->
<g id="edge21" class="edge">
<title>0b27d516ab2c42308802f63bad3c251a&#45;&gt;36bc5a6c46a34ac1b9f381e61bd8870c</title>
<path fill="none" stroke="#7b8894" d="M832,-1301.3C832,-1293.91 832,-1289 832,-1289 832,-1289 1516.84,-1289 1516.84,-1289"/>
<polygon fill="#7b8894" stroke="#7b8894" points="1516.84,-1292.5 1526.84,-1289 1516.84,-1285.5 1516.84,-1292.5"/>
<text text-anchor="middle" x="1258.5" y="-1067.6" font-family="Sans-Serif" font-size="13.00" fill="darkgrey">t_contrats_appels_leviers</text>
</g>
<!-- 1554a42148bb4cc6824b590bf82d1f23&#45;&gt;a1e2abe292d541cfbdeac33d656d4ce5 -->
<g id="edge12" class="edge">
<title>1554a42148bb4cc6824b590bf82d1f23&#45;&gt;a1e2abe292d541cfbdeac33d656d4ce5</title>
<path fill="none" stroke="#7b8894" d="M899.29,-1568.9C935.2,-1568.9 977,-1568.9 977,-1568.9 977,-1568.9 977,-965.5 977,-965.5 977,-965.5 1197.85,-965.5 1197.85,-965.5"/>
<polygon fill="#7b8894" stroke="#7b8894" points="1197.85,-969 1207.85,-965.5 1197.85,-962 1197.85,-969"/>
<text text-anchor="middle" x="1043" y="-1224.6" font-family="Sans-Serif" font-size="13.00" fill="darkgrey">t_appels_leviers</text>
</g>
<!-- 1554a42148bb4cc6824b590bf82d1f23&#45;&gt;3b3dafcac31f4222b7511025f943d8c9 -->
<g id="edge18" class="edge">
<title>1554a42148bb4cc6824b590bf82d1f23&#45;&gt;3b3dafcac31f4222b7511025f943d8c9</title>
<path fill="none" stroke="#7b8894" d="M899.16,-1685.5C970.78,-1685.5 1093,-1685.5 1093,-1685.5 1093,-1685.5 1093,-2090 1093,-2090 1093,-2090 1197.95,-2090 1197.95,-2090"/>
<polygon fill="#7b8894" stroke="#7b8894" points="1197.95,-2093.5 1207.95,-2090 1197.95,-2086.5 1197.95,-2093.5"/>
<text text-anchor="middle" x="1043" y="-1945.6" font-family="Sans-Serif" font-size="13.00" fill="darkgrey">t_contrats_appels</text>
</g>
<!-- 377c3b28e67741789085f99eff5f2967 -->
<g id="node25" class="node">
<title>377c3b28e67741789085f99eff5f2967</title>
<image xlink:href="icons/bigquery.png" width="101px" height="101px" preserveAspectRatio="xMinYMin meet" x="1208" y="-1420.5"/>
<text text-anchor="middle" x="1258.5" y="-1305.1" font-family="Sans-Serif" font-size="13.00" fill="#2d3436">amadeus.t_ama_valeurs_plus40_datastudio_gads</text>
</g>
<!-- 1554a42148bb4cc6824b590bf82d1f23&#45;&gt;377c3b28e67741789085f99eff5f2967 -->
<g id="edge26" class="edge">
<title>1554a42148bb4cc6824b590bf82d1f23&#45;&gt;377c3b28e67741789085f99eff5f2967</title>
<path fill="none" stroke="#7b8894" d="M899.09,-1593.7C989.63,-1593.7 1170,-1593.7 1170,-1593.7 1170,-1593.7 1170,-1392.83 1170,-1392.83 1170,-1392.83 1197.79,-1392.83 1197.79,-1392.83"/>
<polygon fill="#7b8894" stroke="#7b8894" points="1197.79,-1396.33 1207.79,-1392.83 1197.79,-1389.33 1197.79,-1396.33"/>
<text text-anchor="middle" x="1043" y="-1447.6" font-family="Sans-Serif" font-size="13.00" fill="darkgrey">t_valeurs_plus40_datastudio_gads</text>
</g>
<!-- b4d29f66855c44cca2d6f78a551667df -->
<g id="node26" class="node">
<title>b4d29f66855c44cca2d6f78a551667df</title>
<image xlink:href="icons/bigquery.png" width="101px" height="101px" preserveAspectRatio="xMinYMin meet" x="1208" y="-1600.5"/>
<text text-anchor="middle" x="1258.5" y="-1485.1" font-family="Sans-Serif" font-size="13.00" fill="#2d3436">amadeus.t_ama_valeurs_datastudio_gads</text>
</g>
<!-- 1554a42148bb4cc6824b590bf82d1f23&#45;&gt;b4d29f66855c44cca2d6f78a551667df -->
<g id="edge27" class="edge">
<title>1554a42148bb4cc6824b590bf82d1f23&#45;&gt;b4d29f66855c44cca2d6f78a551667df</title>
<path fill="none" stroke="#7b8894" d="M899.19,-1606.1C899.19,-1606.1 1197.93,-1606.1 1197.93,-1606.1"/>
<polygon fill="#7b8894" stroke="#7b8894" points="1197.93,-1609.6 1207.93,-1606.1 1197.93,-1602.6 1197.93,-1609.6"/>
<text text-anchor="middle" x="1043" y="-1583.6" font-family="Sans-Serif" font-size="13.00" fill="darkgrey">t_valeurs_datastudio_gads</text>
</g>
<!-- 6e96350ceed94d029d3a23ec77b6f297 -->
<g id="node27" class="node">
<title>6e96350ceed94d029d3a23ec77b6f297</title>
<image xlink:href="icons/bigquery.png" width="101px" height="101px" preserveAspectRatio="xMinYMin meet" x="1208" y="-1780.5"/>
<text text-anchor="middle" x="1258.5" y="-1665.1" font-family="Sans-Serif" font-size="13.00" fill="#2d3436">amadeus.t_ama_valeurs_sousindicateur_gads</text>
</g>
<!-- 1554a42148bb4cc6824b590bf82d1f23&#45;&gt;6e96350ceed94d029d3a23ec77b6f297 -->
<g id="edge28" class="edge">
<title>1554a42148bb4cc6824b590bf82d1f23&#45;&gt;6e96350ceed94d029d3a23ec77b6f297</title>
<path fill="none" stroke="#7b8894" d="M899.19,-1669.5C899.19,-1669.5 1197.93,-1669.5 1197.93,-1669.5"/>
<polygon fill="#7b8894" stroke="#7b8894" points="1197.93,-1673 1207.93,-1669.5 1197.93,-1666 1197.93,-1673"/>
<text text-anchor="middle" x="1043" y="-1674.6" font-family="Sans-Serif" font-size="13.00" fill="darkgrey">t_valeurs_sousindicateur_gads</text>
</g>
<!-- 0b72b422637840798dcc1634d63ec5bc -->
<g id="node28" class="node">
<title>0b72b422637840798dcc1634d63ec5bc</title>
<image xlink:href="icons/bigquery.png" width="101px" height="101px" preserveAspectRatio="xMinYMin meet" x="1208" y="-1960.5"/>
<text text-anchor="middle" x="1258.5" y="-1845.1" font-family="Sans-Serif" font-size="13.00" fill="#2d3436">amadeus.t_ama_anciennes_valeurs_gads</text>
</g>
<!-- 1554a42148bb4cc6824b590bf82d1f23&#45;&gt;0b72b422637840798dcc1634d63ec5bc -->
<g id="edge29" class="edge">
<title>1554a42148bb4cc6824b590bf82d1f23&#45;&gt;0b72b422637840798dcc1634d63ec5bc</title>
<path fill="none" stroke="#7b8894" d="M899.01,-1677.5C980.26,-1677.5 1131,-1677.5 1131,-1677.5 1131,-1677.5 1131,-1887.17 1131,-1887.17 1131,-1887.17 1197.74,-1887.17 1197.74,-1887.17"/>
<polygon fill="#7b8894" stroke="#7b8894" points="1197.74,-1890.67 1207.74,-1887.17 1197.74,-1883.67 1197.74,-1890.67"/>
<text text-anchor="middle" x="1043" y="-1825.6" font-family="Sans-Serif" font-size="13.00" fill="darkgrey">t_anciennes_valeurs_gads</text>
</g>
<!-- 22bb9a2bd18c40e687e2a6cefd10817c -->
<g id="node29" class="node">
<title>22bb9a2bd18c40e687e2a6cefd10817c</title>
<image xlink:href="icons/bigquery.png" width="101px" height="101px" preserveAspectRatio="xMinYMin meet" x="1208" y="-1240.5"/>
<text text-anchor="middle" x="1258.5" y="-1125.1" font-family="Sans-Serif" font-size="13.00" fill="#2d3436">amadeus.t_ama_anciennes_valeurs_sousindicateur_gads</text>
</g>
<!-- 1554a42148bb4cc6824b590bf82d1f23&#45;&gt;22bb9a2bd18c40e687e2a6cefd10817c -->
<g id="edge30" class="edge">
<title>1554a42148bb4cc6824b590bf82d1f23&#45;&gt;22bb9a2bd18c40e687e2a6cefd10817c</title>
<path fill="none" stroke="#7b8894" d="M899.36,-1581.3C948.32,-1581.3 1015,-1581.3 1015,-1581.3 1015,-1581.3 1015,-1190 1015,-1190 1015,-1190 1197.75,-1190 1197.75,-1190"/>
<polygon fill="#7b8894" stroke="#7b8894" points="1197.75,-1193.5 1207.75,-1190 1197.75,-1186.5 1197.75,-1193.5"/>
<text text-anchor="middle" x="1043" y="-1352.6" font-family="Sans-Serif" font-size="13.00" fill="darkgrey">t_anciennes_valeurs_sousindicateur_gads</text>
</g>
<!-- 77ea5dbe76a94db1ba870edc5b3e94f9 -->
<g id="node18" class="node">
<title>77ea5dbe76a94db1ba870edc5b3e94f9</title>
<image xlink:href="icons/bigquery.png" width="101px" height="101px" preserveAspectRatio="xMinYMin meet" x="1527" y="-959.5"/>
<text text-anchor="middle" x="1577.5" y="-844.1" font-family="Sans-Serif" font-size="13.00" fill="#2d3436">amadeus.t_ama_leads_appels</text>
</g>
<!-- a1e2abe292d541cfbdeac33d656d4ce5&#45;&gt;77ea5dbe76a94db1ba870edc5b3e94f9 -->
<g id="edge17" class="edge">
<title>a1e2abe292d541cfbdeac33d656d4ce5&#45;&gt;77ea5dbe76a94db1ba870edc5b3e94f9</title>
<path fill="none" stroke="#7b8894" d="M1309.05,-909C1309.05,-909 1516.93,-909 1516.93,-909"/>
<polygon fill="#7b8894" stroke="#7b8894" points="1516.93,-912.5 1526.93,-909 1516.93,-905.5 1516.93,-912.5"/>
<text text-anchor="middle" x="1428.5" y="-912.6" font-family="Sans-Serif" font-size="13.00" fill="darkgrey">t_leads_appels</text>
</g>
<!-- 9c6d28b7f4c74d14a874ad587d14d9d1 -->
<g id="node16" class="node">
<title>9c6d28b7f4c74d14a874ad587d14d9d1</title>
<image xlink:href="icons/bigquery.png" width="101px" height="101px" preserveAspectRatio="xMinYMin meet" x="426" y="-1600.5"/>
<text text-anchor="middle" x="476.5" y="-1485.1" font-family="Sans-Serif" font-size="13.00" fill="#2d3436">amadeus.e_ama_appels_2020</text>
</g>
<!-- 9c6d28b7f4c74d14a874ad587d14d9d1&#45;&gt;1554a42148bb4cc6824b590bf82d1f23 -->
<g id="edge15" class="edge">
<title>9c6d28b7f4c74d14a874ad587d14d9d1&#45;&gt;1554a42148bb4cc6824b590bf82d1f23</title>
<path fill="none" stroke="#7b8894" d="M527.06,-1587.5C527.06,-1587.5 787.76,-1587.5 787.76,-1587.5"/>
<polygon fill="#7b8894" stroke="#7b8894" points="787.76,-1591 797.76,-1587.5 787.76,-1584 787.76,-1591"/>
<text text-anchor="middle" x="662.5" y="-1582.6" font-family="Sans-Serif" font-size="13.00" fill="darkgrey">t_appels</text>
</g>
<!-- 5d79bcc6d2de43a08983e576ca06c9d7 -->
<g id="node17" class="node">
<title>5d79bcc6d2de43a08983e576ca06c9d7</title>
<image xlink:href="icons/bigquery.png" width="101px" height="101px" preserveAspectRatio="xMinYMin meet" x="426" y="-1780.5"/>
<text text-anchor="middle" x="476.5" y="-1665.1" font-family="Sans-Serif" font-size="13.00" fill="#2d3436">amadeus.e_ama_appels_2018_2019</text>
</g>
<!-- 5d79bcc6d2de43a08983e576ca06c9d7&#45;&gt;1554a42148bb4cc6824b590bf82d1f23 -->
<g id="edge16" class="edge">
<title>5d79bcc6d2de43a08983e576ca06c9d7&#45;&gt;1554a42148bb4cc6824b590bf82d1f23</title>
<path fill="none" stroke="#7b8894" d="M527.06,-1672.17C527.06,-1672.17 787.76,-1672.17 787.76,-1672.17"/>
<polygon fill="#7b8894" stroke="#7b8894" points="787.76,-1675.67 797.76,-1672.17 787.76,-1668.67 787.76,-1675.67"/>
<text text-anchor="middle" x="662.5" y="-1674.6" font-family="Sans-Serif" font-size="13.00" fill="darkgrey">t_appels</text>
</g>
<!-- 3b3dafcac31f4222b7511025f943d8c9&#45;&gt;36bc5a6c46a34ac1b9f381e61bd8870c -->
<g id="edge20" class="edge">
<title>3b3dafcac31f4222b7511025f943d8c9&#45;&gt;36bc5a6c46a34ac1b9f381e61bd8870c</title>
<path fill="none" stroke="#7b8894" d="M1309.13,-2090C1399.22,-2090 1578,-2090 1578,-2090 1578,-2090 1578,-1423.75 1578,-1423.75"/>
<polygon fill="#7b8894" stroke="#7b8894" points="1581.5,-1423.75 1578,-1413.75 1574.5,-1423.75 1581.5,-1423.75"/>
<text text-anchor="middle" x="1428.5" y="-1604.6" font-family="Sans-Serif" font-size="13.00" fill="darkgrey">t_contrats_appels_leviers</text>
</g>
<!-- 184b29769d1d4233890e316d67b22f33 -->
<g id="node21" class="node">
<title>184b29769d1d4233890e316d67b22f33</title>
<image xlink:href="icons/storage.png" width="101px" height="101px" preserveAspectRatio="xMinYMin meet" x="16" y="-1240.5"/>
<text text-anchor="middle" x="66.5" y="-1125.1" font-family="Sans-Serif" font-size="13.00" fill="#2d3436">amadeus_bi.eloqua/AMA_GOOG_RETR_MARK_ELQC_315_*</text>
</g>
<!-- 961a9212eb194358980a238120d69e5a -->
<g id="node22" class="node">
<title>961a9212eb194358980a238120d69e5a</title>
<image xlink:href="icons/bigquery.png" width="101px" height="101px" preserveAspectRatio="xMinYMin meet" x="426" y="-1240.5"/>
<text text-anchor="middle" x="476.5" y="-1125.1" font-family="Sans-Serif" font-size="13.00" fill="#2d3436">eloqua.e_elq_promo_applis_mobiles_clics_emails</text>
</g>
<!-- 184b29769d1d4233890e316d67b22f33&#45;&gt;961a9212eb194358980a238120d69e5a -->
<g id="edge22" class="edge">
<title>184b29769d1d4233890e316d67b22f33&#45;&gt;961a9212eb194358980a238120d69e5a</title>
<path fill="none" stroke="#7b8894" d="M117.19,-1190C117.19,-1190 415.93,-1190 415.93,-1190"/>
<polygon fill="#7b8894" stroke="#7b8894" points="415.93,-1193.5 425.93,-1190 415.93,-1186.5 415.93,-1193.5"/>
<text text-anchor="middle" x="271.5" y="-1193.6" font-family="Sans-Serif" font-size="13.00" fill="darkgrey">e_elq_promo_applis_mobiles_clics_emails</text>
</g>
<!-- 961a9212eb194358980a238120d69e5a&#45;&gt;79d3976fe19c43a481f648cdc8474ea4 -->
<g id="edge23" class="edge">
<title>961a9212eb194358980a238120d69e5a&#45;&gt;79d3976fe19c43a481f648cdc8474ea4</title>
<path fill="none" stroke="#7b8894" d="M527.06,-1190C527.06,-1190 787.76,-1190 787.76,-1190"/>
<polygon fill="#7b8894" stroke="#7b8894" points="787.76,-1193.5 797.76,-1190 787.76,-1186.5 787.76,-1193.5"/>
<text text-anchor="middle" x="662.5" y="-1193.6" font-family="Sans-Serif" font-size="13.00" fill="darkgrey">t_elq_promo_applis_mobiles_tlgt_appli</text>
</g>
<!-- af9a865376df4f4fbb5e5338ce6bab41 -->
<g id="node30" class="node">
<title>af9a865376df4f4fbb5e5338ce6bab41</title>
<image xlink:href="icons/bigquery.png" width="101px" height="101px" preserveAspectRatio="xMinYMin meet" x="16" y="-1060.5"/>
<text text-anchor="middle" x="66.5" y="-945.1" font-family="Sans-Serif" font-size="13.00" fill="#2d3436">comper.t_v_digi_cube_valeur</text>
</g>
<!-- bedc98d8f13746bf87936452145b8396 -->
<g id="node31" class="node">
<title>bedc98d8f13746bf87936452145b8396</title>
<image xlink:href="icons/bigquery.png" width="101px" height="101px" preserveAspectRatio="xMinYMin meet" x="426" y="-1060.5"/>
<text text-anchor="middle" x="476.5" y="-945.1" font-family="Sans-Serif" font-size="13.00" fill="#2d3436">amadeus.t_ama_parrainage</text>
</g>
<!-- af9a865376df4f4fbb5e5338ce6bab41&#45;&gt;bedc98d8f13746bf87936452145b8396 -->
<g id="edge31" class="edge">
<title>af9a865376df4f4fbb5e5338ce6bab41&#45;&gt;bedc98d8f13746bf87936452145b8396</title>
<path fill="none" stroke="#7b8894" d="M117.19,-1010C117.19,-1010 415.93,-1010 415.93,-1010"/>
<polygon fill="#7b8894" stroke="#7b8894" points="415.93,-1013.5 425.93,-1010 415.93,-1006.5 415.93,-1013.5"/>
<text text-anchor="middle" x="271.5" y="-1013.6" font-family="Sans-Serif" font-size="13.00" fill="darkgrey">t_parrainage</text>
</g>
<!-- ce1358806681472db3d0c89c53758329 -->
<g id="node32" class="node">
<title>ce1358806681472db3d0c89c53758329</title>
<image xlink:href="icons/bigquery.png" width="101px" height="101px" preserveAspectRatio="xMinYMin meet" x="798" y="-1060.5"/>
<text text-anchor="middle" x="848.5" y="-945.1" font-family="Sans-Serif" font-size="13.00" fill="#2d3436">comper.l_ama_to_ds_comper_t_ama_parrainage</text>
</g>
<!-- bedc98d8f13746bf87936452145b8396&#45;&gt;ce1358806681472db3d0c89c53758329 -->
<g id="edge32" class="edge">
<title>bedc98d8f13746bf87936452145b8396&#45;&gt;ce1358806681472db3d0c89c53758329</title>
<path fill="none" stroke="#7b8894" d="M527.06,-1010C527.06,-1010 787.76,-1010 787.76,-1010"/>
<polygon fill="#7b8894" stroke="#7b8894" points="787.76,-1013.5 797.76,-1010 787.76,-1006.5 787.76,-1013.5"/>
<text text-anchor="middle" x="662.5" y="-1013.6" font-family="Sans-Serif" font-size="13.00" fill="darkgrey">l_to_ds_comper_t_ama_parrainage</text>
</g>
<!-- 8366108924b149ffbaac11ae7817e111 -->
<g id="node33" class="node">
<title>8366108924b149ffbaac11ae7817e111</title>
<image xlink:href="icons/bigquery.png" width="101px" height="101px" preserveAspectRatio="xMinYMin meet" x="16" y="-880.5"/>
<text text-anchor="middle" x="66.5" y="-765.1" font-family="Sans-Serif" font-size="13.00" fill="#2d3436">amadeus.e_gsheet_contrats_services</text>
</g>
<!-- 864452bdba4a45c4a55548ac56107dd8 -->
<g id="node34" class="node">
<title>864452bdba4a45c4a55548ac56107dd8</title>
<image xlink:href="icons/bigquery.png" width="101px" height="101px" preserveAspectRatio="xMinYMin meet" x="426" y="-880.5"/>
<text text-anchor="middle" x="476.5" y="-765.1" font-family="Sans-Serif" font-size="13.00" fill="#2d3436">comper.l_ama_to_ds_comper_contrats_services</text>
</g>
<!-- 8366108924b149ffbaac11ae7817e111&#45;&gt;864452bdba4a45c4a55548ac56107dd8 -->
<g id="edge33" class="edge">
<title>8366108924b149ffbaac11ae7817e111&#45;&gt;864452bdba4a45c4a55548ac56107dd8</title>
<path fill="none" stroke="#7b8894" d="M117.19,-830C117.19,-830 415.93,-830 415.93,-830"/>
<polygon fill="#7b8894" stroke="#7b8894" points="415.93,-833.5 425.93,-830 415.93,-826.5 415.93,-833.5"/>
<text text-anchor="middle" x="271.5" y="-833.6" font-family="Sans-Serif" font-size="13.00" fill="darkgrey">l_to_ds_comper_contrats_services</text>
</g>
<!-- 234eab90e16949a3b25dae552dddb4b8 -->
<g id="node35" class="node">
<title>234eab90e16949a3b25dae552dddb4b8</title>
<image xlink:href="icons/bigquery.png" width="101px" height="101px" preserveAspectRatio="xMinYMin meet" x="16" y="-700.5"/>
<text text-anchor="middle" x="66.5" y="-585.1" font-family="Sans-Serif" font-size="13.00" fill="#2d3436">reporting_equipements.bout_en_bout_equipements</text>
</g>
<!-- 9593beae289c4a80a42335065aef6a88 -->
<g id="node36" class="node">
<title>9593beae289c4a80a42335065aef6a88</title>
<image xlink:href="icons/bigquery.png" width="101px" height="101px" preserveAspectRatio="xMinYMin meet" x="426" y="-700.5"/>
<text text-anchor="middle" x="476.5" y="-585.1" font-family="Sans-Serif" font-size="13.00" fill="#2d3436">comper.l_ama_to_ds_comper_bout_en_bout_equipements</text>
</g>
<!-- 234eab90e16949a3b25dae552dddb4b8&#45;&gt;9593beae289c4a80a42335065aef6a88 -->
<g id="edge34" class="edge">
<title>234eab90e16949a3b25dae552dddb4b8&#45;&gt;9593beae289c4a80a42335065aef6a88</title>
<path fill="none" stroke="#7b8894" d="M117.19,-650C117.19,-650 415.93,-650 415.93,-650"/>
<polygon fill="#7b8894" stroke="#7b8894" points="415.93,-653.5 425.93,-650 415.93,-646.5 415.93,-653.5"/>
<text text-anchor="middle" x="271.5" y="-653.6" font-family="Sans-Serif" font-size="13.00" fill="darkgrey">l_to_ds_comper_bout_en_bout_equipements</text>
</g>
<!-- f80f27f554b04e2eb6cc84322f67d7d0 -->
<g id="node37" class="node">
<title>f80f27f554b04e2eb6cc84322f67d7d0</title>
<image xlink:href="icons/bigquery.png" width="101px" height="101px" preserveAspectRatio="xMinYMin meet" x="16" y="-520.5"/>
<text text-anchor="middle" x="66.5" y="-405.1" font-family="Sans-Serif" font-size="13.00" fill="#2d3436">amadeus.e_ama_options_vertes</text>
</g>
<!-- afa8aa8c3847478e820986a3f082fb23 -->
<g id="node38" class="node">
<title>afa8aa8c3847478e820986a3f082fb23</title>
<image xlink:href="icons/bigquery.png" width="101px" height="101px" preserveAspectRatio="xMinYMin meet" x="426" y="-520.5"/>
<text text-anchor="middle" x="476.5" y="-405.1" font-family="Sans-Serif" font-size="13.00" fill="#2d3436">comper.t_ama_options_vertes</text>
</g>
<!-- f80f27f554b04e2eb6cc84322f67d7d0&#45;&gt;afa8aa8c3847478e820986a3f082fb23 -->
<g id="edge35" class="edge">
<title>f80f27f554b04e2eb6cc84322f67d7d0&#45;&gt;afa8aa8c3847478e820986a3f082fb23</title>
<path fill="none" stroke="#7b8894" d="M117.19,-470C117.19,-470 415.93,-470 415.93,-470"/>
<polygon fill="#7b8894" stroke="#7b8894" points="415.93,-473.5 425.93,-470 415.93,-466.5 415.93,-473.5"/>
<text text-anchor="middle" x="271.5" y="-473.6" font-family="Sans-Serif" font-size="13.00" fill="darkgrey">t_options_vertes</text>
</g>
<!-- baf596a33fd749a58920690460bf7ed8 -->
<g id="node39" class="node">
<title>baf596a33fd749a58920690460bf7ed8</title>
<image xlink:href="icons/bigquery.png" width="101px" height="101px" preserveAspectRatio="xMinYMin meet" x="798" y="-520.5"/>
<text text-anchor="middle" x="848.5" y="-405.1" font-family="Sans-Serif" font-size="13.00" fill="#2d3436">comper.l_ama_to_ds_comper_options_vertes</text>
</g>
<!-- afa8aa8c3847478e820986a3f082fb23&#45;&gt;baf596a33fd749a58920690460bf7ed8 -->
<g id="edge36" class="edge">
<title>afa8aa8c3847478e820986a3f082fb23&#45;&gt;baf596a33fd749a58920690460bf7ed8</title>
<path fill="none" stroke="#7b8894" d="M527.06,-470C527.06,-470 787.76,-470 787.76,-470"/>
<polygon fill="#7b8894" stroke="#7b8894" points="787.76,-473.5 797.76,-470 787.76,-466.5 787.76,-473.5"/>
<text text-anchor="middle" x="662.5" y="-473.6" font-family="Sans-Serif" font-size="13.00" fill="darkgrey">l_to_ds_comper_options_vertes</text>
</g>
<!-- 76bdfe9a69ca4d9f94160e57f01bc204 -->
<g id="node40" class="node">
<title>76bdfe9a69ca4d9f94160e57f01bc204</title>
<image xlink:href="icons/bigquery.png" width="101px" height="101px" preserveAspectRatio="xMinYMin meet" x="16" y="-340.5"/>
<text text-anchor="middle" x="66.5" y="-225.1" font-family="Sans-Serif" font-size="13.00" fill="#2d3436">amadeus.e_ama_prelevement_mensualisation</text>
</g>
<!-- eeea76d7f04f40f286866972adc10446 -->
<g id="node41" class="node">
<title>eeea76d7f04f40f286866972adc10446</title>
<image xlink:href="icons/bigquery.png" width="101px" height="101px" preserveAspectRatio="xMinYMin meet" x="426" y="-340.5"/>
<text text-anchor="middle" x="476.5" y="-225.1" font-family="Sans-Serif" font-size="13.00" fill="#2d3436">comper.l_ama_to_ds_comper_prelevement_mensualisation</text>
</g>
<!-- 76bdfe9a69ca4d9f94160e57f01bc204&#45;&gt;eeea76d7f04f40f286866972adc10446 -->
<g id="edge37" class="edge">
<title>76bdfe9a69ca4d9f94160e57f01bc204&#45;&gt;eeea76d7f04f40f286866972adc10446</title>
<path fill="none" stroke="#7b8894" d="M117.19,-290C117.19,-290 415.93,-290 415.93,-290"/>
<polygon fill="#7b8894" stroke="#7b8894" points="415.93,-293.5 425.93,-290 415.93,-286.5 415.93,-293.5"/>
<text text-anchor="middle" x="271.5" y="-293.6" font-family="Sans-Serif" font-size="13.00" fill="darkgrey">l_to_ds_comper_prelevement_mensualisation</text>
</g>
<!-- 47ca03e312f84288a7db01df44ab7ea6 -->
<g id="node42" class="node">
<title>47ca03e312f84288a7db01df44ab7ea6</title>
<image xlink:href="icons/bigquery.png" width="101px" height="101px" preserveAspectRatio="xMinYMin meet" x="16" y="-160.5"/>
<text text-anchor="middle" x="66.5" y="-45.1" font-family="Sans-Serif" font-size="13.00" fill="#2d3436">amadeus.e_gsheet_activation_energie</text>
</g>
<!-- ffff40de12ec401dabdfca6fd0f04794 -->
<g id="node43" class="node">
<title>ffff40de12ec401dabdfca6fd0f04794</title>
<image xlink:href="icons/bigquery.png" width="101px" height="101px" preserveAspectRatio="xMinYMin meet" x="426" y="-160.5"/>
<text text-anchor="middle" x="476.5" y="-45.1" font-family="Sans-Serif" font-size="13.00" fill="#2d3436">comper.l_ama_to_ds_comper_activation_energie</text>
</g>
<!-- 47ca03e312f84288a7db01df44ab7ea6&#45;&gt;ffff40de12ec401dabdfca6fd0f04794 -->
<g id="edge38" class="edge">
<title>47ca03e312f84288a7db01df44ab7ea6&#45;&gt;ffff40de12ec401dabdfca6fd0f04794</title>
<path fill="none" stroke="#7b8894" d="M117.19,-110C117.19,-110 415.93,-110 415.93,-110"/>
<polygon fill="#7b8894" stroke="#7b8894" points="415.93,-113.5 425.93,-110 415.93,-106.5 415.93,-113.5"/>
<text text-anchor="middle" x="271.5" y="-113.6" font-family="Sans-Serif" font-size="13.00" fill="darkgrey">l_to_ds_comper_activation_energie</text>
</g>
</g>
</svg>
