<?xml version="1.0" encoding="UTF-8" standalone="no"?>
<!DOCTYPE svg PUBLIC "-//W3C//DTD SVG 1.1//EN"
 "http://www.w3.org/Graphics/SVG/1.1/DTD/svg11.dtd">
<!-- Generated by graphviz version 2.47.1 (20210417.1919)
 -->
<!-- Title: amadeus Pages: 1 -->
<svg width="1932pt" height="2844pt"
 viewBox="0.00 0.00 1932.00 2844.00" xmlns="http://www.w3.org/2000/svg" xmlns:xlink="http://www.w3.org/1999/xlink">
<g id="graph0" class="graph" transform="scale(1 1) rotate(0) translate(144 2700)">
<title>amadeus</title>
<text text-anchor="middle" x="822" y="-9" font-family="Sans-Serif" font-size="15.00" fill="#2d3436">amadeus</text>
<g id="clust1" class="cluster">
<title>cluster_amadeus</title>
<path fill="#e5f5fd" stroke="#aeb6be" d="M20,-33C20,-33 1624,-33 1624,-33 1630,-33 1636,-39 1636,-45 1636,-45 1636,-2536 1636,-2536 1636,-2542 1630,-2548 1624,-2548 1624,-2548 20,-2548 20,-2548 14,-2548 8,-2542 8,-2536 8,-2536 8,-45 8,-45 8,-39 14,-33 20,-33"/>
<text text-anchor="middle" x="40" y="-2534.4" font-family="Sans-Serif" font-size="12.00" fill="#2d3436">amadeus</text>
</g>
<!-- 8707cf61689243b18e56773a009c4425 -->
<g id="node1" class="node">
<title>8707cf61689243b18e56773a009c4425</title>
<image xlink:href="icons/storage.png" width="101px" height="101px" preserveAspectRatio="xMinYMin meet" x="16" y="-2500.5"/>
<text text-anchor="middle" x="66.5" y="-2385.1" font-family="Sans-Serif" font-size="13.00" fill="#2d3436">amadeus_bi.formulaires/GA_VENT_DIGT_</text>
</g>
<!-- 29cb61e6a5634ec4b4794d17bde44127 -->
<g id="node2" class="node">
<title>29cb61e6a5634ec4b4794d17bde44127</title>
<image xlink:href="icons/bigquery.png" width="101px" height="101px" preserveAspectRatio="xMinYMin meet" x="426" y="-2500.5"/>
<text text-anchor="middle" x="476.5" y="-2385.1" font-family="Sans-Serif" font-size="13.00" fill="#2d3436">amadeus.e_ama_formulaires_stor</text>
</g>
<!-- 8707cf61689243b18e56773a009c4425&#45;&gt;29cb61e6a5634ec4b4794d17bde44127 -->
<g id="edge1" class="edge">
<title>8707cf61689243b18e56773a009c4425&#45;&gt;29cb61e6a5634ec4b4794d17bde44127</title>
<path fill="none" stroke="#7b8894" d="M117.19,-2450C117.19,-2450 415.93,-2450 415.93,-2450"/>
<polygon fill="#7b8894" stroke="#7b8894" points="415.93,-2453.5 425.93,-2450 415.93,-2446.5 415.93,-2453.5"/>
<text text-anchor="middle" x="271.5" y="-2453.6" font-family="Sans-Serif" font-size="13.00" fill="darkgrey">e_formulaires</text>
</g>
<!-- 2afcf1fa6e314e8596b9a34f58e3045e -->
<g id="node5" class="node">
<title>2afcf1fa6e314e8596b9a34f58e3045e</title>
<image xlink:href="icons/bigquery.png" width="101px" height="101px" preserveAspectRatio="xMinYMin meet" x="798" y="-2320.5"/>
<text text-anchor="middle" x="848.5" y="-2205.1" font-family="Sans-Serif" font-size="13.00" fill="#2d3436">amadeus.t_ama_formulaires_campagnes</text>
</g>
<!-- 29cb61e6a5634ec4b4794d17bde44127&#45;&gt;2afcf1fa6e314e8596b9a34f58e3045e -->
<g id="edge3" class="edge">
<title>29cb61e6a5634ec4b4794d17bde44127&#45;&gt;2afcf1fa6e314e8596b9a34f58e3045e</title>
<path fill="none" stroke="#7b8894" d="M494,-2381.33C494,-2369.01 494,-2360 494,-2360 494,-2360 849,-2360 849,-2360 849,-2360 849,-2348.67 849,-2348.67"/>
<polygon fill="#7b8894" stroke="#7b8894" points="852.5,-2348.67 849,-2338.67 845.5,-2348.67 852.5,-2348.67"/>
<text text-anchor="middle" x="662.5" y="-2394.6" font-family="Sans-Serif" font-size="13.00" fill="darkgrey">t_formulaires_campagnes</text>
</g>
<!-- 646e522bcfd84a359a408891bfd98cf1 -->
<g id="node11" class="node">
<title>646e522bcfd84a359a408891bfd98cf1</title>
<image xlink:href="icons/bigquery.png" width="101px" height="101px" preserveAspectRatio="xMinYMin meet" x="798" y="-2500.5"/>
<text text-anchor="middle" x="848.5" y="-2385.1" font-family="Sans-Serif" font-size="13.00" fill="#2d3436">amadeus.t_ama_formulaires_verif_flux_ga</text>
</g>
<!-- 29cb61e6a5634ec4b4794d17bde44127&#45;&gt;646e522bcfd84a359a408891bfd98cf1 -->
<g id="edge9" class="edge">
<title>29cb61e6a5634ec4b4794d17bde44127&#45;&gt;646e522bcfd84a359a408891bfd98cf1</title>
<path fill="none" stroke="#7b8894" d="M527.06,-2450C527.06,-2450 787.76,-2450 787.76,-2450"/>
<polygon fill="#7b8894" stroke="#7b8894" points="787.76,-2453.5 797.76,-2450 787.76,-2446.5 787.76,-2453.5"/>
<text text-anchor="middle" x="662.5" y="-2456.6" font-family="Sans-Serif" font-size="13.00" fill="darkgrey">t_formulaires_verif_flux_ga</text>
</g>
<!-- 58e3f6696de94bd8a45251bf72eb4b5e -->
<g id="node3" class="node">
<title>58e3f6696de94bd8a45251bf72eb4b5e</title>
<image xlink:href="icons/storage.png" width="101px" height="101px" preserveAspectRatio="xMinYMin meet" x="16" y="-1960.5"/>
<text text-anchor="middle" x="66.5" y="-1845.1" font-family="Sans-Serif" font-size="13.00" fill="#2d3436">amadeus_bi.appels/GA_SVI_</text>
</g>
<!-- 23a0ab9e01c346afa5a82cb3d195634c -->
<g id="node4" class="node">
<title>23a0ab9e01c346afa5a82cb3d195634c</title>
<image xlink:href="icons/bigquery.png" width="101px" height="101px" preserveAspectRatio="xMinYMin meet" x="426" y="-1960.5"/>
<text text-anchor="middle" x="476.5" y="-1845.1" font-family="Sans-Serif" font-size="13.00" fill="#2d3436">amadeus.e_ama_appels</text>
</g>
<!-- 58e3f6696de94bd8a45251bf72eb4b5e&#45;&gt;23a0ab9e01c346afa5a82cb3d195634c -->
<g id="edge2" class="edge">
<title>58e3f6696de94bd8a45251bf72eb4b5e&#45;&gt;23a0ab9e01c346afa5a82cb3d195634c</title>
<path fill="none" stroke="#7b8894" d="M117.19,-1910C117.19,-1910 415.93,-1910 415.93,-1910"/>
<polygon fill="#7b8894" stroke="#7b8894" points="415.93,-1913.5 425.93,-1910 415.93,-1906.5 415.93,-1913.5"/>
<text text-anchor="middle" x="271.5" y="-1913.6" font-family="Sans-Serif" font-size="13.00" fill="darkgrey">e_appels</text>
</g>
<!-- 7a8448177981427bb7e9888f2019d7b2 -->
<g id="node14" class="node">
<title>7a8448177981427bb7e9888f2019d7b2</title>
<image xlink:href="icons/bigquery.png" width="101px" height="101px" preserveAspectRatio="xMinYMin meet" x="798" y="-1675.5"/>
<text text-anchor="middle" x="848.5" y="-1560.1" font-family="Sans-Serif" font-size="13.00" fill="#2d3436">amadeus.t_ama_appels</text>
</g>
<!-- 23a0ab9e01c346afa5a82cb3d195634c&#45;&gt;7a8448177981427bb7e9888f2019d7b2 -->
<g id="edge14" class="edge">
<title>23a0ab9e01c346afa5a82cb3d195634c&#45;&gt;7a8448177981427bb7e9888f2019d7b2</title>
<path fill="none" stroke="#7b8894" d="M527.46,-1910C582.68,-1910 663,-1910 663,-1910 663,-1910 663,-1682.83 663,-1682.83 663,-1682.83 787.81,-1682.83 787.81,-1682.83"/>
<polygon fill="#7b8894" stroke="#7b8894" points="787.81,-1686.33 797.81,-1682.83 787.81,-1679.33 787.81,-1686.33"/>
<text text-anchor="middle" x="662.5" y="-1853.6" font-family="Sans-Serif" font-size="13.00" fill="darkgrey">t_appels</text>
</g>
<!-- f51694f71eaf47a2abb88387ebeba219 -->
<g id="node24" class="node">
<title>f51694f71eaf47a2abb88387ebeba219</title>
<image xlink:href="icons/bigquery.png" width="101px" height="101px" preserveAspectRatio="xMinYMin meet" x="798" y="-2140.5"/>
<text text-anchor="middle" x="848.5" y="-2025.1" font-family="Sans-Serif" font-size="13.00" fill="#2d3436">amadeus.t_ama_import_gads</text>
</g>
<!-- 23a0ab9e01c346afa5a82cb3d195634c&#45;&gt;f51694f71eaf47a2abb88387ebeba219 -->
<g id="edge25" class="edge">
<title>23a0ab9e01c346afa5a82cb3d195634c&#45;&gt;f51694f71eaf47a2abb88387ebeba219</title>
<path fill="none" stroke="#7b8894" d="M477,-1978.54C477,-1994.62 477,-2007.17 477,-2007.17 477,-2007.17 832,-2007.17 832,-2007.17 832,-2007.17 832,-2011.22 832,-2011.22"/>
<polygon fill="#7b8894" stroke="#7b8894" points="828.5,-2011.22 832,-2021.22 835.5,-2011.22 828.5,-2011.22"/>
<text text-anchor="middle" x="662.5" y="-1972.6" font-family="Sans-Serif" font-size="13.00" fill="darkgrey">t_import_gads</text>
</g>
<!-- 5b35b719938c473fae5d85f8e4adeee0 -->
<g id="node8" class="node">
<title>5b35b719938c473fae5d85f8e4adeee0</title>
<image xlink:href="icons/bigquery.png" width="101px" height="101px" preserveAspectRatio="xMinYMin meet" x="1208" y="-2320.5"/>
<text text-anchor="middle" x="1258.5" y="-2205.1" font-family="Sans-Serif" font-size="13.00" fill="#2d3436">amadeus.t_ama_contrats_formulaires</text>
</g>
<!-- 2afcf1fa6e314e8596b9a34f58e3045e&#45;&gt;5b35b719938c473fae5d85f8e4adeee0 -->
<g id="edge6" class="edge">
<title>2afcf1fa6e314e8596b9a34f58e3045e&#45;&gt;5b35b719938c473fae5d85f8e4adeee0</title>
<path fill="none" stroke="#7b8894" d="M899.19,-2292.83C899.19,-2292.83 1197.93,-2292.83 1197.93,-2292.83"/>
<polygon fill="#7b8894" stroke="#7b8894" points="1197.93,-2296.33 1207.93,-2292.83 1197.93,-2289.33 1197.93,-2296.33"/>
<text text-anchor="middle" x="1043" y="-2273.6" font-family="Sans-Serif" font-size="13.00" fill="darkgrey">t_contrats_formulaires</text>
</g>
<!-- 711f630f9c6e447c8ddcb661cb4bb52e -->
<g id="node10" class="node">
<title>711f630f9c6e447c8ddcb661cb4bb52e</title>
<image xlink:href="icons/bigquery.png" width="101px" height="101px" preserveAspectRatio="xMinYMin meet" x="1208" y="-2500.5"/>
<text text-anchor="middle" x="1258.5" y="-2385.1" font-family="Sans-Serif" font-size="13.00" fill="#2d3436">amadeus.t_ama_leads_formulaires</text>
</g>
<!-- 2afcf1fa6e314e8596b9a34f58e3045e&#45;&gt;711f630f9c6e447c8ddcb661cb4bb52e -->
<g id="edge8" class="edge">
<title>2afcf1fa6e314e8596b9a34f58e3045e&#45;&gt;711f630f9c6e447c8ddcb661cb4bb52e</title>
<path fill="none" stroke="#7b8894" d="M874,-2338.56C874,-2345.04 874,-2349.25 874,-2349.25 874,-2349.25 1259,-2349.25 1259,-2349.25 1259,-2349.25 1259,-2371.4 1259,-2371.4"/>
<polygon fill="#7b8894" stroke="#7b8894" points="1255.5,-2371.4 1259,-2381.4 1262.5,-2371.4 1255.5,-2371.4"/>
<text text-anchor="middle" x="1043" y="-2394.6" font-family="Sans-Serif" font-size="13.00" fill="darkgrey">t_leads_formulaires</text>
</g>
<!-- fda4e2c3a5814fe58aa5e4b8aad67718 -->
<g id="node6" class="node">
<title>fda4e2c3a5814fe58aa5e4b8aad67718</title>
<image xlink:href="icons/bigquery.png" width="101px" height="101px" preserveAspectRatio="xMinYMin meet" x="426" y="-2320.5"/>
<text text-anchor="middle" x="476.5" y="-2205.1" font-family="Sans-Serif" font-size="13.00" fill="#2d3436">ga.l_ga_to_ama_ga_formulaires_stor_*</text>
</g>
<!-- fda4e2c3a5814fe58aa5e4b8aad67718&#45;&gt;2afcf1fa6e314e8596b9a34f58e3045e -->
<g id="edge4" class="edge">
<title>fda4e2c3a5814fe58aa5e4b8aad67718&#45;&gt;2afcf1fa6e314e8596b9a34f58e3045e</title>
<path fill="none" stroke="#7b8894" d="M527.06,-2270C527.06,-2270 787.76,-2270 787.76,-2270"/>
<polygon fill="#7b8894" stroke="#7b8894" points="787.76,-2273.5 797.76,-2270 787.76,-2266.5 787.76,-2273.5"/>
<text text-anchor="middle" x="662.5" y="-2270.6" font-family="Sans-Serif" font-size="13.00" fill="darkgrey">t_formulaires_campagnes</text>
</g>
<!-- fda4e2c3a5814fe58aa5e4b8aad67718&#45;&gt;646e522bcfd84a359a408891bfd98cf1 -->
<g id="edge10" class="edge">
<title>fda4e2c3a5814fe58aa5e4b8aad67718&#45;&gt;646e522bcfd84a359a408891bfd98cf1</title>
<path fill="none" stroke="#7b8894" d="M460,-2338.6C460,-2356.43 460,-2370.75 460,-2370.75 460,-2370.75 824,-2370.75 824,-2370.75 824,-2370.75 824,-2371.82 824,-2371.82"/>
<polygon fill="#7b8894" stroke="#7b8894" points="820.5,-2371.44 824,-2381.44 827.5,-2371.44 820.5,-2371.44"/>
<text text-anchor="middle" x="662.5" y="-2332.6" font-family="Sans-Serif" font-size="13.00" fill="darkgrey">t_formulaires_verif_flux_ga</text>
</g>
<!-- 6b14a4e3b1b54d3f9dbc036c87809896 -->
<g id="node7" class="node">
<title>6b14a4e3b1b54d3f9dbc036c87809896</title>
<image xlink:href="icons/bigquery.png" width="101px" height="101px" preserveAspectRatio="xMinYMin meet" x="426" y="-2140.5"/>
<text text-anchor="middle" x="476.5" y="-2025.1" font-family="Sans-Serif" font-size="13.00" fill="#2d3436">ga.t_ga_correspondance_hash_campagnes</text>
</g>
<!-- 6b14a4e3b1b54d3f9dbc036c87809896&#45;&gt;2afcf1fa6e314e8596b9a34f58e3045e -->
<g id="edge5" class="edge">
<title>6b14a4e3b1b54d3f9dbc036c87809896&#45;&gt;2afcf1fa6e314e8596b9a34f58e3045e</title>
<path fill="none" stroke="#7b8894" d="M477,-2158.67C477,-2170.99 477,-2180 477,-2180 477,-2180 849,-2180 849,-2180 849,-2180 849,-2191.33 849,-2191.33"/>
<polygon fill="#7b8894" stroke="#7b8894" points="845.5,-2191.33 849,-2201.33 852.5,-2191.33 845.5,-2191.33"/>
<text text-anchor="middle" x="662.5" y="-2152.6" font-family="Sans-Serif" font-size="13.00" fill="darkgrey">t_formulaires_campagnes</text>
</g>
<!-- 11543d0ce7104aa586bf4748472a8b13 -->
<g id="node9" class="node">
<title>11543d0ce7104aa586bf4748472a8b13</title>
<image xlink:href="icons/bigquery.png" width="101px" height="101px" preserveAspectRatio="xMinYMin meet" x="798" y="-1960.5"/>
<text text-anchor="middle" x="848.5" y="-1845.1" font-family="Sans-Serif" font-size="13.00" fill="#2d3436">comper.e_v_digi_import_cube_valeur</text>
</g>
<!-- 11543d0ce7104aa586bf4748472a8b13&#45;&gt;5b35b719938c473fae5d85f8e4adeee0 -->
<g id="edge7" class="edge">
<title>11543d0ce7104aa586bf4748472a8b13&#45;&gt;5b35b719938c473fae5d85f8e4adeee0</title>
<path fill="none" stroke="#7b8894" d="M899.03,-1932.83C959.88,-1932.83 1054,-1932.83 1054,-1932.83 1054,-1932.83 1054,-2247.17 1054,-2247.17 1054,-2247.17 1197.95,-2247.17 1197.95,-2247.17"/>
<polygon fill="#7b8894" stroke="#7b8894" points="1197.95,-2250.67 1207.95,-2247.17 1197.95,-2243.67 1197.95,-2250.67"/>
<text text-anchor="middle" x="1043" y="-2169.6" font-family="Sans-Serif" font-size="13.00" fill="darkgrey">t_contrats_formulaires</text>
</g>
<!-- 05610292e78d4cd997bf1420864a91ab -->
<g id="node19" class="node">
<title>05610292e78d4cd997bf1420864a91ab</title>
<image xlink:href="icons/bigquery.png" width="101px" height="101px" preserveAspectRatio="xMinYMin meet" x="1208" y="-2140.5"/>
<text text-anchor="middle" x="1258.5" y="-2025.1" font-family="Sans-Serif" font-size="13.00" fill="#2d3436">amadeus.t_ama_contrats_appels</text>
</g>
<!-- 11543d0ce7104aa586bf4748472a8b13&#45;&gt;05610292e78d4cd997bf1420864a91ab -->
<g id="edge19" class="edge">
<title>11543d0ce7104aa586bf4748472a8b13&#45;&gt;05610292e78d4cd997bf1420864a91ab</title>
<path fill="none" stroke="#7b8894" d="M866,-1978.78C866,-1987.16 866,-1992.83 866,-1992.83 866,-1992.83 1259,-1992.83 1259,-1992.83 1259,-1992.83 1259,-2011.46 1259,-2011.46"/>
<polygon fill="#7b8894" stroke="#7b8894" points="1255.5,-2011.46 1259,-2021.46 1262.5,-2011.46 1255.5,-2011.46"/>
<text text-anchor="middle" x="1043" y="-2065.6" font-family="Sans-Serif" font-size="13.00" fill="darkgrey">t_contrats_appels</text>
</g>
<!-- dbbcce9a1b8e4e2daef1dd58ae468450 -->
<g id="node12" class="node">
<title>dbbcce9a1b8e4e2daef1dd58ae468450</title>
<image xlink:href="icons/bigquery.png" width="101px" height="101px" preserveAspectRatio="xMinYMin meet" x="426" y="-1420.5"/>
<text text-anchor="middle" x="476.5" y="-1305.1" font-family="Sans-Serif" font-size="13.00" fill="#2d3436">ga.t_ga_sessions</text>
</g>
<!-- 6522c5b3cee0496984801e1e1e5d4765 -->
<g id="node13" class="node">
<title>6522c5b3cee0496984801e1e1e5d4765</title>
<image xlink:href="icons/bigquery.png" width="101px" height="101px" preserveAspectRatio="xMinYMin meet" x="798" y="-1420.5"/>
<text text-anchor="middle" x="848.5" y="-1305.1" font-family="Sans-Serif" font-size="13.00" fill="#2d3436">amadeus.t_ama_appels_ga</text>
</g>
<!-- dbbcce9a1b8e4e2daef1dd58ae468450&#45;&gt;6522c5b3cee0496984801e1e1e5d4765 -->
<g id="edge11" class="edge">
<title>dbbcce9a1b8e4e2daef1dd58ae468450&#45;&gt;6522c5b3cee0496984801e1e1e5d4765</title>
<path fill="none" stroke="#7b8894" d="M527.06,-1370C527.06,-1370 787.76,-1370 787.76,-1370"/>
<polygon fill="#7b8894" stroke="#7b8894" points="787.76,-1373.5 797.76,-1370 787.76,-1366.5 787.76,-1373.5"/>
<text text-anchor="middle" x="662.5" y="-1373.6" font-family="Sans-Serif" font-size="13.00" fill="darkgrey">t_appels_ga</text>
</g>
<!-- bc9cc4c4e2e54769a39822ce6902e9ec -->
<g id="node23" class="node">
<title>bc9cc4c4e2e54769a39822ce6902e9ec</title>
<image xlink:href="icons/bigquery.png" width="101px" height="101px" preserveAspectRatio="xMinYMin meet" x="798" y="-1240.5"/>
<text text-anchor="middle" x="848.5" y="-1125.1" font-family="Sans-Serif" font-size="13.00" fill="#2d3436">eloqua.t_elq_promo_applis_mobiles_tlgt_appli</text>
</g>
<!-- dbbcce9a1b8e4e2daef1dd58ae468450&#45;&gt;bc9cc4c4e2e54769a39822ce6902e9ec -->
<g id="edge24" class="edge">
<title>dbbcce9a1b8e4e2daef1dd58ae468450&#45;&gt;bc9cc4c4e2e54769a39822ce6902e9ec</title>
<path fill="none" stroke="#7b8894" d="M477,-1301.35C477,-1282.67 477,-1267.5 477,-1267.5 477,-1267.5 866,-1267.5 866,-1267.5 866,-1267.5 866,-1266.61 866,-1266.61"/>
<polygon fill="#7b8894" stroke="#7b8894" points="869.5,-1268.61 866,-1258.61 862.5,-1268.61 869.5,-1268.61"/>
<text text-anchor="middle" x="662.5" y="-1283.6" font-family="Sans-Serif" font-size="13.00" fill="darkgrey">t_elq_promo_applis_mobiles_tlgt_appli</text>
</g>
<!-- 67024e6671fd40c29c6d30cc4947c3d0 -->
<g id="node15" class="node">
<title>67024e6671fd40c29c6d30cc4947c3d0</title>
<image xlink:href="icons/bigquery.png" width="101px" height="101px" preserveAspectRatio="xMinYMin meet" x="1208" y="-959.5"/>
<text text-anchor="middle" x="1258.5" y="-844.1" font-family="Sans-Serif" font-size="13.00" fill="#2d3436">amadeus.t_ama_appels_leviers</text>
</g>
<!-- 6522c5b3cee0496984801e1e1e5d4765&#45;&gt;67024e6671fd40c29c6d30cc4947c3d0 -->
<g id="edge13" class="edge">
<title>6522c5b3cee0496984801e1e1e5d4765&#45;&gt;67024e6671fd40c29c6d30cc4947c3d0</title>
<path fill="none" stroke="#7b8894" d="M899,-1347.17C919.31,-1347.17 938,-1347.17 938,-1347.17 938,-1347.17 938,-953.5 938,-953.5 938,-953.5 1197.72,-953.5 1197.72,-953.5"/>
<polygon fill="#7b8894" stroke="#7b8894" points="1197.72,-957 1207.72,-953.5 1197.72,-950 1197.72,-957"/>
<text text-anchor="middle" x="1043" y="-979.6" font-family="Sans-Serif" font-size="13.00" fill="darkgrey">t_appels_leviers</text>
</g>
<!-- cfa51156b273472fbc8e168925d165ed -->
<g id="node20" class="node">
<title>cfa51156b273472fbc8e168925d165ed</title>
<image xlink:href="icons/bigquery.png" width="101px" height="101px" preserveAspectRatio="xMinYMin meet" x="1527" y="-1395.5"/>
<text text-anchor="middle" x="1577.5" y="-1280.1" font-family="Sans-Serif" font-size="13.00" fill="#2d3436">amadeus.t_ama_contrats_appels_leviers</text>
</g>
<!-- 6522c5b3cee0496984801e1e1e5d4765&#45;&gt;cfa51156b273472fbc8e168925d165ed -->
<g id="edge21" class="edge">
<title>6522c5b3cee0496984801e1e1e5d4765&#45;&gt;cfa51156b273472fbc8e168925d165ed</title>
<path fill="none" stroke="#7b8894" d="M832,-1301.3C832,-1293.91 832,-1289 832,-1289 832,-1289 1516.84,-1289 1516.84,-1289"/>
<polygon fill="#7b8894" stroke="#7b8894" points="1516.84,-1292.5 1526.84,-1289 1516.84,-1285.5 1516.84,-1292.5"/>
<text text-anchor="middle" x="1258.5" y="-1067.6" font-family="Sans-Serif" font-size="13.00" fill="darkgrey">t_contrats_appels_leviers</text>
</g>
<!-- 7a8448177981427bb7e9888f2019d7b2&#45;&gt;67024e6671fd40c29c6d30cc4947c3d0 -->
<g id="edge12" class="edge">
<title>7a8448177981427bb7e9888f2019d7b2&#45;&gt;67024e6671fd40c29c6d30cc4947c3d0</title>
<path fill="none" stroke="#7b8894" d="M899.29,-1568.9C935.2,-1568.9 977,-1568.9 977,-1568.9 977,-1568.9 977,-965.5 977,-965.5 977,-965.5 1197.85,-965.5 1197.85,-965.5"/>
<polygon fill="#7b8894" stroke="#7b8894" points="1197.85,-969 1207.85,-965.5 1197.85,-962 1197.85,-969"/>
<text text-anchor="middle" x="1043" y="-1224.6" font-family="Sans-Serif" font-size="13.00" fill="darkgrey">t_appels_leviers</text>
</g>
<!-- 7a8448177981427bb7e9888f2019d7b2&#45;&gt;05610292e78d4cd997bf1420864a91ab -->
<g id="edge18" class="edge">
<title>7a8448177981427bb7e9888f2019d7b2&#45;&gt;05610292e78d4cd997bf1420864a91ab</title>
<path fill="none" stroke="#7b8894" d="M899.16,-1685.5C970.78,-1685.5 1093,-1685.5 1093,-1685.5 1093,-1685.5 1093,-2090 1093,-2090 1093,-2090 1197.95,-2090 1197.95,-2090"/>
<polygon fill="#7b8894" stroke="#7b8894" points="1197.95,-2093.5 1207.95,-2090 1197.95,-2086.5 1197.95,-2093.5"/>
<text text-anchor="middle" x="1043" y="-1945.6" font-family="Sans-Serif" font-size="13.00" fill="darkgrey">t_contrats_appels</text>
</g>
<!-- 7d7f5b9aa4cd4d51a95980036a96cd49 -->
<g id="node25" class="node">
<title>7d7f5b9aa4cd4d51a95980036a96cd49</title>
<image xlink:href="icons/bigquery.png" width="101px" height="101px" preserveAspectRatio="xMinYMin meet" x="1208" y="-1420.5"/>
<text text-anchor="middle" x="1258.5" y="-1305.1" font-family="Sans-Serif" font-size="13.00" fill="#2d3436">amadeus.t_ama_valeurs_plus40_datastudio_gads</text>
</g>
<!-- 7a8448177981427bb7e9888f2019d7b2&#45;&gt;7d7f5b9aa4cd4d51a95980036a96cd49 -->
<g id="edge26" class="edge">
<title>7a8448177981427bb7e9888f2019d7b2&#45;&gt;7d7f5b9aa4cd4d51a95980036a96cd49</title>
<path fill="none" stroke="#7b8894" d="M899.09,-1593.7C989.63,-1593.7 1170,-1593.7 1170,-1593.7 1170,-1593.7 1170,-1392.83 1170,-1392.83 1170,-1392.83 1197.79,-1392.83 1197.79,-1392.83"/>
<polygon fill="#7b8894" stroke="#7b8894" points="1197.79,-1396.33 1207.79,-1392.83 1197.79,-1389.33 1197.79,-1396.33"/>
<text text-anchor="middle" x="1043" y="-1447.6" font-family="Sans-Serif" font-size="13.00" fill="darkgrey">t_valeurs_plus40_datastudio_gads</text>
</g>
<!-- 3a0b87882692478fb79762dc618d91f6 -->
<g id="node26" class="node">
<title>3a0b87882692478fb79762dc618d91f6</title>
<image xlink:href="icons/bigquery.png" width="101px" height="101px" preserveAspectRatio="xMinYMin meet" x="1208" y="-1600.5"/>
<text text-anchor="middle" x="1258.5" y="-1485.1" font-family="Sans-Serif" font-size="13.00" fill="#2d3436">amadeus.t_ama_valeurs_datastudio_gads</text>
</g>
<!-- 7a8448177981427bb7e9888f2019d7b2&#45;&gt;3a0b87882692478fb79762dc618d91f6 -->
<g id="edge27" class="edge">
<title>7a8448177981427bb7e9888f2019d7b2&#45;&gt;3a0b87882692478fb79762dc618d91f6</title>
<path fill="none" stroke="#7b8894" d="M899.19,-1606.1C899.19,-1606.1 1197.93,-1606.1 1197.93,-1606.1"/>
<polygon fill="#7b8894" stroke="#7b8894" points="1197.93,-1609.6 1207.93,-1606.1 1197.93,-1602.6 1197.93,-1609.6"/>
<text text-anchor="middle" x="1043" y="-1583.6" font-family="Sans-Serif" font-size="13.00" fill="darkgrey">t_valeurs_datastudio_gads</text>
</g>
<!-- cc30c72f972e446b8e99b9a68bcc5b64 -->
<g id="node27" class="node">
<title>cc30c72f972e446b8e99b9a68bcc5b64</title>
<image xlink:href="icons/bigquery.png" width="101px" height="101px" preserveAspectRatio="xMinYMin meet" x="1208" y="-1780.5"/>
<text text-anchor="middle" x="1258.5" y="-1665.1" font-family="Sans-Serif" font-size="13.00" fill="#2d3436">amadeus.t_ama_valeurs_sousindicateur_gads</text>
</g>
<!-- 7a8448177981427bb7e9888f2019d7b2&#45;&gt;cc30c72f972e446b8e99b9a68bcc5b64 -->
<g id="edge28" class="edge">
<title>7a8448177981427bb7e9888f2019d7b2&#45;&gt;cc30c72f972e446b8e99b9a68bcc5b64</title>
<path fill="none" stroke="#7b8894" d="M899.19,-1669.5C899.19,-1669.5 1197.93,-1669.5 1197.93,-1669.5"/>
<polygon fill="#7b8894" stroke="#7b8894" points="1197.93,-1673 1207.93,-1669.5 1197.93,-1666 1197.93,-1673"/>
<text text-anchor="middle" x="1043" y="-1674.6" font-family="Sans-Serif" font-size="13.00" fill="darkgrey">t_valeurs_sousindicateur_gads</text>
</g>
<!-- 78b53ddae4d3463f92a553087f903d7a -->
<g id="node28" class="node">
<title>78b53ddae4d3463f92a553087f903d7a</title>
<image xlink:href="icons/bigquery.png" width="101px" height="101px" preserveAspectRatio="xMinYMin meet" x="1208" y="-1960.5"/>
<text text-anchor="middle" x="1258.5" y="-1845.1" font-family="Sans-Serif" font-size="13.00" fill="#2d3436">amadeus.t_ama_anciennes_valeurs_gads</text>
</g>
<!-- 7a8448177981427bb7e9888f2019d7b2&#45;&gt;78b53ddae4d3463f92a553087f903d7a -->
<g id="edge29" class="edge">
<title>7a8448177981427bb7e9888f2019d7b2&#45;&gt;78b53ddae4d3463f92a553087f903d7a</title>
<path fill="none" stroke="#7b8894" d="M899.01,-1677.5C980.26,-1677.5 1131,-1677.5 1131,-1677.5 1131,-1677.5 1131,-1887.17 1131,-1887.17 1131,-1887.17 1197.74,-1887.17 1197.74,-1887.17"/>
<polygon fill="#7b8894" stroke="#7b8894" points="1197.74,-1890.67 1207.74,-1887.17 1197.74,-1883.67 1197.74,-1890.67"/>
<text text-anchor="middle" x="1043" y="-1825.6" font-family="Sans-Serif" font-size="13.00" fill="darkgrey">t_anciennes_valeurs_gads</text>
</g>
<!-- 95b5c371f3924c17947d70a03819dc6e -->
<g id="node29" class="node">
<title>95b5c371f3924c17947d70a03819dc6e</title>
<image xlink:href="icons/bigquery.png" width="101px" height="101px" preserveAspectRatio="xMinYMin meet" x="1208" y="-1240.5"/>
<text text-anchor="middle" x="1258.5" y="-1125.1" font-family="Sans-Serif" font-size="13.00" fill="#2d3436">amadeus.t_ama_anciennes_valeurs_sousindicateur_gads</text>
</g>
<!-- 7a8448177981427bb7e9888f2019d7b2&#45;&gt;95b5c371f3924c17947d70a03819dc6e -->
<g id="edge30" class="edge">
<title>7a8448177981427bb7e9888f2019d7b2&#45;&gt;95b5c371f3924c17947d70a03819dc6e</title>
<path fill="none" stroke="#7b8894" d="M899.36,-1581.3C948.32,-1581.3 1015,-1581.3 1015,-1581.3 1015,-1581.3 1015,-1190 1015,-1190 1015,-1190 1197.75,-1190 1197.75,-1190"/>
<polygon fill="#7b8894" stroke="#7b8894" points="1197.75,-1193.5 1207.75,-1190 1197.75,-1186.5 1197.75,-1193.5"/>
<text text-anchor="middle" x="1043" y="-1352.6" font-family="Sans-Serif" font-size="13.00" fill="darkgrey">t_anciennes_valeurs_sousindicateur_gads</text>
</g>
<!-- a196873f8edd45db9e1a575d0557d24a -->
<g id="node18" class="node">
<title>a196873f8edd45db9e1a575d0557d24a</title>
<image xlink:href="icons/bigquery.png" width="101px" height="101px" preserveAspectRatio="xMinYMin meet" x="1527" y="-959.5"/>
<text text-anchor="middle" x="1577.5" y="-844.1" font-family="Sans-Serif" font-size="13.00" fill="#2d3436">amadeus.t_ama_leads_appels</text>
</g>
<!-- 67024e6671fd40c29c6d30cc4947c3d0&#45;&gt;a196873f8edd45db9e1a575d0557d24a -->
<g id="edge17" class="edge">
<title>67024e6671fd40c29c6d30cc4947c3d0&#45;&gt;a196873f8edd45db9e1a575d0557d24a</title>
<path fill="none" stroke="#7b8894" d="M1309.05,-909C1309.05,-909 1516.93,-909 1516.93,-909"/>
<polygon fill="#7b8894" stroke="#7b8894" points="1516.93,-912.5 1526.93,-909 1516.93,-905.5 1516.93,-912.5"/>
<text text-anchor="middle" x="1428.5" y="-912.6" font-family="Sans-Serif" font-size="13.00" fill="darkgrey">t_leads_appels</text>
</g>
<!-- 194c7cdd4ee04d49bd6e6a2c74ddd9c9 -->
<g id="node16" class="node">
<title>194c7cdd4ee04d49bd6e6a2c74ddd9c9</title>
<image xlink:href="icons/bigquery.png" width="101px" height="101px" preserveAspectRatio="xMinYMin meet" x="426" y="-1600.5"/>
<text text-anchor="middle" x="476.5" y="-1485.1" font-family="Sans-Serif" font-size="13.00" fill="#2d3436">amadeus.e_ama_appels_2020</text>
</g>
<!-- 194c7cdd4ee04d49bd6e6a2c74ddd9c9&#45;&gt;7a8448177981427bb7e9888f2019d7b2 -->
<g id="edge15" class="edge">
<title>194c7cdd4ee04d49bd6e6a2c74ddd9c9&#45;&gt;7a8448177981427bb7e9888f2019d7b2</title>
<path fill="none" stroke="#7b8894" d="M527.06,-1587.5C527.06,-1587.5 787.76,-1587.5 787.76,-1587.5"/>
<polygon fill="#7b8894" stroke="#7b8894" points="787.76,-1591 797.76,-1587.5 787.76,-1584 787.76,-1591"/>
<text text-anchor="middle" x="662.5" y="-1582.6" font-family="Sans-Serif" font-size="13.00" fill="darkgrey">t_appels</text>
</g>
<!-- b792df1fc38b4b308d072b006f0549e4 -->
<g id="node17" class="node">
<title>b792df1fc38b4b308d072b006f0549e4</title>
<image xlink:href="icons/bigquery.png" width="101px" height="101px" preserveAspectRatio="xMinYMin meet" x="426" y="-1780.5"/>
<text text-anchor="middle" x="476.5" y="-1665.1" font-family="Sans-Serif" font-size="13.00" fill="#2d3436">amadeus.e_ama_appels_2018_2019</text>
</g>
<!-- b792df1fc38b4b308d072b006f0549e4&#45;&gt;7a8448177981427bb7e9888f2019d7b2 -->
<g id="edge16" class="edge">
<title>b792df1fc38b4b308d072b006f0549e4&#45;&gt;7a8448177981427bb7e9888f2019d7b2</title>
<path fill="none" stroke="#7b8894" d="M527.06,-1672.17C527.06,-1672.17 787.76,-1672.17 787.76,-1672.17"/>
<polygon fill="#7b8894" stroke="#7b8894" points="787.76,-1675.67 797.76,-1672.17 787.76,-1668.67 787.76,-1675.67"/>
<text text-anchor="middle" x="662.5" y="-1674.6" font-family="Sans-Serif" font-size="13.00" fill="darkgrey">t_appels</text>
</g>
<!-- 05610292e78d4cd997bf1420864a91ab&#45;&gt;cfa51156b273472fbc8e168925d165ed -->
<g id="edge20" class="edge">
<title>05610292e78d4cd997bf1420864a91ab&#45;&gt;cfa51156b273472fbc8e168925d165ed</title>
<path fill="none" stroke="#7b8894" d="M1309.13,-2090C1399.22,-2090 1578,-2090 1578,-2090 1578,-2090 1578,-1423.75 1578,-1423.75"/>
<polygon fill="#7b8894" stroke="#7b8894" points="1581.5,-1423.75 1578,-1413.75 1574.5,-1423.75 1581.5,-1423.75"/>
<text text-anchor="middle" x="1428.5" y="-1604.6" font-family="Sans-Serif" font-size="13.00" fill="darkgrey">t_contrats_appels_leviers</text>
</g>
<!-- 7b094aacd17a46f1a8028d3fb35cc239 -->
<g id="node21" class="node">
<title>7b094aacd17a46f1a8028d3fb35cc239</title>
<image xlink:href="icons/storage.png" width="101px" height="101px" preserveAspectRatio="xMinYMin meet" x="16" y="-1240.5"/>
<text text-anchor="middle" x="66.5" y="-1125.1" font-family="Sans-Serif" font-size="13.00" fill="#2d3436">amadeus_bi.eloqua/AMA_GOOG_RETR_MARK_ELQC_315_*</text>
</g>
<!-- 43b89e3fbb334d738e0147be2da13842 -->
<g id="node22" class="node">
<title>43b89e3fbb334d738e0147be2da13842</title>
<image xlink:href="icons/bigquery.png" width="101px" height="101px" preserveAspectRatio="xMinYMin meet" x="426" y="-1240.5"/>
<text text-anchor="middle" x="476.5" y="-1125.1" font-family="Sans-Serif" font-size="13.00" fill="#2d3436">eloqua.e_elq_promo_applis_mobiles_clics_emails</text>
</g>
<!-- 7b094aacd17a46f1a8028d3fb35cc239&#45;&gt;43b89e3fbb334d738e0147be2da13842 -->
<g id="edge22" class="edge">
<title>7b094aacd17a46f1a8028d3fb35cc239&#45;&gt;43b89e3fbb334d738e0147be2da13842</title>
<path fill="none" stroke="#7b8894" d="M117.19,-1190C117.19,-1190 415.93,-1190 415.93,-1190"/>
<polygon fill="#7b8894" stroke="#7b8894" points="415.93,-1193.5 425.93,-1190 415.93,-1186.5 415.93,-1193.5"/>
<text text-anchor="middle" x="271.5" y="-1193.6" font-family="Sans-Serif" font-size="13.00" fill="darkgrey">e_elq_promo_applis_mobiles_clics_emails</text>
</g>
<!-- 43b89e3fbb334d738e0147be2da13842&#45;&gt;bc9cc4c4e2e54769a39822ce6902e9ec -->
<g id="edge23" class="edge">
<title>43b89e3fbb334d738e0147be2da13842&#45;&gt;bc9cc4c4e2e54769a39822ce6902e9ec</title>
<path fill="none" stroke="#7b8894" d="M527.06,-1190C527.06,-1190 787.76,-1190 787.76,-1190"/>
<polygon fill="#7b8894" stroke="#7b8894" points="787.76,-1193.5 797.76,-1190 787.76,-1186.5 787.76,-1193.5"/>
<text text-anchor="middle" x="662.5" y="-1193.6" font-family="Sans-Serif" font-size="13.00" fill="darkgrey">t_elq_promo_applis_mobiles_tlgt_appli</text>
</g>
<!-- e27dd43e8a8348898f6ab42266bfc4e1 -->
<g id="node30" class="node">
<title>e27dd43e8a8348898f6ab42266bfc4e1</title>
<image xlink:href="icons/bigquery.png" width="101px" height="101px" preserveAspectRatio="xMinYMin meet" x="16" y="-1060.5"/>
<text text-anchor="middle" x="66.5" y="-945.1" font-family="Sans-Serif" font-size="13.00" fill="#2d3436">comper.t_v_digi_cube_valeur</text>
</g>
<!-- 070f38fbd9da4486b6f4f3979ab50bc0 -->
<g id="node31" class="node">
<title>070f38fbd9da4486b6f4f3979ab50bc0</title>
<image xlink:href="icons/bigquery.png" width="101px" height="101px" preserveAspectRatio="xMinYMin meet" x="426" y="-1060.5"/>
<text text-anchor="middle" x="476.5" y="-945.1" font-family="Sans-Serif" font-size="13.00" fill="#2d3436">amadeus.t_ama_parrainage</text>
</g>
<!-- e27dd43e8a8348898f6ab42266bfc4e1&#45;&gt;070f38fbd9da4486b6f4f3979ab50bc0 -->
<g id="edge31" class="edge">
<title>e27dd43e8a8348898f6ab42266bfc4e1&#45;&gt;070f38fbd9da4486b6f4f3979ab50bc0</title>
<path fill="none" stroke="#7b8894" d="M117.19,-1010C117.19,-1010 415.93,-1010 415.93,-1010"/>
<polygon fill="#7b8894" stroke="#7b8894" points="415.93,-1013.5 425.93,-1010 415.93,-1006.5 415.93,-1013.5"/>
<text text-anchor="middle" x="271.5" y="-1013.6" font-family="Sans-Serif" font-size="13.00" fill="darkgrey">t_parrainage</text>
</g>
<!-- fe85d95b261a43d592e2e16643b4ed7d -->
<g id="node32" class="node">
<title>fe85d95b261a43d592e2e16643b4ed7d</title>
<image xlink:href="icons/bigquery.png" width="101px" height="101px" preserveAspectRatio="xMinYMin meet" x="798" y="-1060.5"/>
<text text-anchor="middle" x="848.5" y="-945.1" font-family="Sans-Serif" font-size="13.00" fill="#2d3436">comper.l_ama_to_ds_comper_t_ama_parrainage</text>
</g>
<!-- 070f38fbd9da4486b6f4f3979ab50bc0&#45;&gt;fe85d95b261a43d592e2e16643b4ed7d -->
<g id="edge32" class="edge">
<title>070f38fbd9da4486b6f4f3979ab50bc0&#45;&gt;fe85d95b261a43d592e2e16643b4ed7d</title>
<path fill="none" stroke="#7b8894" d="M527.06,-1010C527.06,-1010 787.76,-1010 787.76,-1010"/>
<polygon fill="#7b8894" stroke="#7b8894" points="787.76,-1013.5 797.76,-1010 787.76,-1006.5 787.76,-1013.5"/>
<text text-anchor="middle" x="662.5" y="-1013.6" font-family="Sans-Serif" font-size="13.00" fill="darkgrey">l_to_ds_comper_t_ama_parrainage</text>
</g>
<!-- 8674f71463ae414bb51bb66fa59c761a -->
<g id="node33" class="node">
<title>8674f71463ae414bb51bb66fa59c761a</title>
<image xlink:href="icons/bigquery.png" width="101px" height="101px" preserveAspectRatio="xMinYMin meet" x="16" y="-880.5"/>
<text text-anchor="middle" x="66.5" y="-765.1" font-family="Sans-Serif" font-size="13.00" fill="#2d3436">amadeus.e_gsheet_contrats_services</text>
</g>
<!-- 9682babb6d244ed8b79f7531f0260a15 -->
<g id="node34" class="node">
<title>9682babb6d244ed8b79f7531f0260a15</title>
<image xlink:href="icons/bigquery.png" width="101px" height="101px" preserveAspectRatio="xMinYMin meet" x="426" y="-880.5"/>
<text text-anchor="middle" x="476.5" y="-765.1" font-family="Sans-Serif" font-size="13.00" fill="#2d3436">comper.l_ama_to_ds_comper_contrats_services</text>
</g>
<!-- 8674f71463ae414bb51bb66fa59c761a&#45;&gt;9682babb6d244ed8b79f7531f0260a15 -->
<g id="edge33" class="edge">
<title>8674f71463ae414bb51bb66fa59c761a&#45;&gt;9682babb6d244ed8b79f7531f0260a15</title>
<path fill="none" stroke="#7b8894" d="M117.19,-830C117.19,-830 415.93,-830 415.93,-830"/>
<polygon fill="#7b8894" stroke="#7b8894" points="415.93,-833.5 425.93,-830 415.93,-826.5 415.93,-833.5"/>
<text text-anchor="middle" x="271.5" y="-833.6" font-family="Sans-Serif" font-size="13.00" fill="darkgrey">l_to_ds_comper_contrats_services</text>
</g>
<!-- f1f6e820946d4e9c9af0fae9eea0d4c2 -->
<g id="node35" class="node">
<title>f1f6e820946d4e9c9af0fae9eea0d4c2</title>
<image xlink:href="icons/bigquery.png" width="101px" height="101px" preserveAspectRatio="xMinYMin meet" x="16" y="-700.5"/>
<text text-anchor="middle" x="66.5" y="-585.1" font-family="Sans-Serif" font-size="13.00" fill="#2d3436">reporting_equipements.bout_en_bout_equipements</text>
</g>
<!-- b3a6475bb08b44b281660d26161eaf33 -->
<g id="node36" class="node">
<title>b3a6475bb08b44b281660d26161eaf33</title>
<image xlink:href="icons/bigquery.png" width="101px" height="101px" preserveAspectRatio="xMinYMin meet" x="426" y="-700.5"/>
<text text-anchor="middle" x="476.5" y="-585.1" font-family="Sans-Serif" font-size="13.00" fill="#2d3436">comper.l_ama_to_ds_comper_bout_en_bout_equipements</text>
</g>
<!-- f1f6e820946d4e9c9af0fae9eea0d4c2&#45;&gt;b3a6475bb08b44b281660d26161eaf33 -->
<g id="edge34" class="edge">
<title>f1f6e820946d4e9c9af0fae9eea0d4c2&#45;&gt;b3a6475bb08b44b281660d26161eaf33</title>
<path fill="none" stroke="#7b8894" d="M117.19,-650C117.19,-650 415.93,-650 415.93,-650"/>
<polygon fill="#7b8894" stroke="#7b8894" points="415.93,-653.5 425.93,-650 415.93,-646.5 415.93,-653.5"/>
<text text-anchor="middle" x="271.5" y="-653.6" font-family="Sans-Serif" font-size="13.00" fill="darkgrey">l_to_ds_comper_bout_en_bout_equipements</text>
</g>
<!-- 68d23196d3f44f85a64b07c24762397b -->
<g id="node37" class="node">
<title>68d23196d3f44f85a64b07c24762397b</title>
<image xlink:href="icons/bigquery.png" width="101px" height="101px" preserveAspectRatio="xMinYMin meet" x="16" y="-520.5"/>
<text text-anchor="middle" x="66.5" y="-405.1" font-family="Sans-Serif" font-size="13.00" fill="#2d3436">amadeus.e_ama_options_vertes</text>
</g>
<!-- 2261aa42c99948b69a49bdb9a5635072 -->
<g id="node38" class="node">
<title>2261aa42c99948b69a49bdb9a5635072</title>
<image xlink:href="icons/bigquery.png" width="101px" height="101px" preserveAspectRatio="xMinYMin meet" x="426" y="-520.5"/>
<text text-anchor="middle" x="476.5" y="-405.1" font-family="Sans-Serif" font-size="13.00" fill="#2d3436">comper.t_ama_options_vertes</text>
</g>
<!-- 68d23196d3f44f85a64b07c24762397b&#45;&gt;2261aa42c99948b69a49bdb9a5635072 -->
<g id="edge35" class="edge">
<title>68d23196d3f44f85a64b07c24762397b&#45;&gt;2261aa42c99948b69a49bdb9a5635072</title>
<path fill="none" stroke="#7b8894" d="M117.19,-470C117.19,-470 415.93,-470 415.93,-470"/>
<polygon fill="#7b8894" stroke="#7b8894" points="415.93,-473.5 425.93,-470 415.93,-466.5 415.93,-473.5"/>
<text text-anchor="middle" x="271.5" y="-473.6" font-family="Sans-Serif" font-size="13.00" fill="darkgrey">t_options_vertes</text>
</g>
<!-- d95136f7a25048dc998d54ae7b87b27a -->
<g id="node39" class="node">
<title>d95136f7a25048dc998d54ae7b87b27a</title>
<image xlink:href="icons/bigquery.png" width="101px" height="101px" preserveAspectRatio="xMinYMin meet" x="798" y="-520.5"/>
<text text-anchor="middle" x="848.5" y="-405.1" font-family="Sans-Serif" font-size="13.00" fill="#2d3436">comper.l_ama_to_ds_comper_options_vertes</text>
</g>
<!-- 2261aa42c99948b69a49bdb9a5635072&#45;&gt;d95136f7a25048dc998d54ae7b87b27a -->
<g id="edge36" class="edge">
<title>2261aa42c99948b69a49bdb9a5635072&#45;&gt;d95136f7a25048dc998d54ae7b87b27a</title>
<path fill="none" stroke="#7b8894" d="M527.06,-470C527.06,-470 787.76,-470 787.76,-470"/>
<polygon fill="#7b8894" stroke="#7b8894" points="787.76,-473.5 797.76,-470 787.76,-466.5 787.76,-473.5"/>
<text text-anchor="middle" x="662.5" y="-473.6" font-family="Sans-Serif" font-size="13.00" fill="darkgrey">l_to_ds_comper_options_vertes</text>
</g>
<!-- 40d65b8f7b664182b37b9ec7995a374f -->
<g id="node40" class="node">
<title>40d65b8f7b664182b37b9ec7995a374f</title>
<image xlink:href="icons/bigquery.png" width="101px" height="101px" preserveAspectRatio="xMinYMin meet" x="16" y="-340.5"/>
<text text-anchor="middle" x="66.5" y="-225.1" font-family="Sans-Serif" font-size="13.00" fill="#2d3436">amadeus.e_ama_prelevement_mensualisation</text>
</g>
<!-- ae1f3b75a4fb4298975c4dec08438b7e -->
<g id="node41" class="node">
<title>ae1f3b75a4fb4298975c4dec08438b7e</title>
<image xlink:href="icons/bigquery.png" width="101px" height="101px" preserveAspectRatio="xMinYMin meet" x="426" y="-340.5"/>
<text text-anchor="middle" x="476.5" y="-225.1" font-family="Sans-Serif" font-size="13.00" fill="#2d3436">comper.l_ama_to_ds_comper_prelevement_mensualisation</text>
</g>
<!-- 40d65b8f7b664182b37b9ec7995a374f&#45;&gt;ae1f3b75a4fb4298975c4dec08438b7e -->
<g id="edge37" class="edge">
<title>40d65b8f7b664182b37b9ec7995a374f&#45;&gt;ae1f3b75a4fb4298975c4dec08438b7e</title>
<path fill="none" stroke="#7b8894" d="M117.19,-290C117.19,-290 415.93,-290 415.93,-290"/>
<polygon fill="#7b8894" stroke="#7b8894" points="415.93,-293.5 425.93,-290 415.93,-286.5 415.93,-293.5"/>
<text text-anchor="middle" x="271.5" y="-293.6" font-family="Sans-Serif" font-size="13.00" fill="darkgrey">l_to_ds_comper_prelevement_mensualisation</text>
</g>
<!-- 072973b47e52499c8fea0e344cdc38d1 -->
<g id="node42" class="node">
<title>072973b47e52499c8fea0e344cdc38d1</title>
<image xlink:href="icons/bigquery.png" width="101px" height="101px" preserveAspectRatio="xMinYMin meet" x="16" y="-160.5"/>
<text text-anchor="middle" x="66.5" y="-45.1" font-family="Sans-Serif" font-size="13.00" fill="#2d3436">amadeus.e_gsheet_activation_energie</text>
</g>
<!-- f845711938194c87a350c9027bf69460 -->
<g id="node43" class="node">
<title>f845711938194c87a350c9027bf69460</title>
<image xlink:href="icons/bigquery.png" width="101px" height="101px" preserveAspectRatio="xMinYMin meet" x="426" y="-160.5"/>
<text text-anchor="middle" x="476.5" y="-45.1" font-family="Sans-Serif" font-size="13.00" fill="#2d3436">comper.l_ama_to_ds_comper_activation_energie</text>
</g>
<!-- 072973b47e52499c8fea0e344cdc38d1&#45;&gt;f845711938194c87a350c9027bf69460 -->
<g id="edge38" class="edge">
<title>072973b47e52499c8fea0e344cdc38d1&#45;&gt;f845711938194c87a350c9027bf69460</title>
<path fill="none" stroke="#7b8894" d="M117.19,-110C117.19,-110 415.93,-110 415.93,-110"/>
<polygon fill="#7b8894" stroke="#7b8894" points="415.93,-113.5 425.93,-110 415.93,-106.5 415.93,-113.5"/>
<text text-anchor="middle" x="271.5" y="-113.6" font-family="Sans-Serif" font-size="13.00" fill="darkgrey">l_to_ds_comper_activation_energie</text>
</g>
</g>
</svg>
