<?xml version="1.0" encoding="UTF-8" standalone="no"?>
<!DOCTYPE svg PUBLIC "-//W3C//DTD SVG 1.1//EN"
 "http://www.w3.org/Graphics/SVG/1.1/DTD/svg11.dtd">
<!-- Generated by graphviz version 2.47.1 (20210417.1919)
 -->
<!-- Title: amadeus Pages: 1 -->
<svg width="1932pt" height="2844pt"
 viewBox="0.00 0.00 1932.00 2844.00" xmlns="http://www.w3.org/2000/svg" xmlns:xlink="http://www.w3.org/1999/xlink">
<g id="graph0" class="graph" transform="scale(1 1) rotate(0) translate(144 2700)">
<title>amadeus</title>
<text text-anchor="middle" x="822" y="-9" font-family="Sans-Serif" font-size="15.00" fill="#2d3436">amadeus</text>
<g id="clust1" class="cluster">
<title>cluster_amadeus</title>
<path fill="#e5f5fd" stroke="#aeb6be" d="M20,-33C20,-33 1624,-33 1624,-33 1630,-33 1636,-39 1636,-45 1636,-45 1636,-2536 1636,-2536 1636,-2542 1630,-2548 1624,-2548 1624,-2548 20,-2548 20,-2548 14,-2548 8,-2542 8,-2536 8,-2536 8,-45 8,-45 8,-39 14,-33 20,-33"/>
<text text-anchor="middle" x="40" y="-2534.4" font-family="Sans-Serif" font-size="12.00" fill="#2d3436">amadeus</text>
</g>
<!-- ce33c09b2bc84b0cb255e7ed0afa1147 -->
<g id="node1" class="node">
<title>ce33c09b2bc84b0cb255e7ed0afa1147</title>
<image xlink:href="icons/storage.png" width="101px" height="101px" preserveAspectRatio="xMinYMin meet" x="16" y="-2500.5"/>
<text text-anchor="middle" x="66.5" y="-2385.1" font-family="Sans-Serif" font-size="13.00" fill="#2d3436">amadeus_bi.formulaires/GA_VENT_DIGT_</text>
</g>
<!-- 4cec4726d7f44264bfe43ecd1873aca3 -->
<g id="node2" class="node">
<title>4cec4726d7f44264bfe43ecd1873aca3</title>
<image xlink:href="icons/bigquery.png" width="101px" height="101px" preserveAspectRatio="xMinYMin meet" x="426" y="-2500.5"/>
<text text-anchor="middle" x="476.5" y="-2385.1" font-family="Sans-Serif" font-size="13.00" fill="#2d3436">amadeus.e_ama_formulaires_stor</text>
</g>
<!-- ce33c09b2bc84b0cb255e7ed0afa1147&#45;&gt;4cec4726d7f44264bfe43ecd1873aca3 -->
<g id="edge1" class="edge">
<title>ce33c09b2bc84b0cb255e7ed0afa1147&#45;&gt;4cec4726d7f44264bfe43ecd1873aca3</title>
<path fill="none" stroke="#7b8894" d="M117.19,-2450C117.19,-2450 415.93,-2450 415.93,-2450"/>
<polygon fill="#7b8894" stroke="#7b8894" points="415.93,-2453.5 425.93,-2450 415.93,-2446.5 415.93,-2453.5"/>
<text text-anchor="middle" x="271.5" y="-2453.6" font-family="Sans-Serif" font-size="13.00" fill="darkgrey">e_formulaires</text>
</g>
<!-- 63d2a32754ad4299b8f77322f7c59c3e -->
<g id="node5" class="node">
<title>63d2a32754ad4299b8f77322f7c59c3e</title>
<image xlink:href="icons/bigquery.png" width="101px" height="101px" preserveAspectRatio="xMinYMin meet" x="798" y="-2320.5"/>
<text text-anchor="middle" x="848.5" y="-2205.1" font-family="Sans-Serif" font-size="13.00" fill="#2d3436">amadeus.t_ama_formulaires_campagnes</text>
</g>
<!-- 4cec4726d7f44264bfe43ecd1873aca3&#45;&gt;63d2a32754ad4299b8f77322f7c59c3e -->
<g id="edge3" class="edge">
<title>4cec4726d7f44264bfe43ecd1873aca3&#45;&gt;63d2a32754ad4299b8f77322f7c59c3e</title>
<path fill="none" stroke="#7b8894" d="M494,-2381.33C494,-2369.01 494,-2360 494,-2360 494,-2360 849,-2360 849,-2360 849,-2360 849,-2348.67 849,-2348.67"/>
<polygon fill="#7b8894" stroke="#7b8894" points="852.5,-2348.67 849,-2338.67 845.5,-2348.67 852.5,-2348.67"/>
<text text-anchor="middle" x="662.5" y="-2394.6" font-family="Sans-Serif" font-size="13.00" fill="darkgrey">t_formulaires_campagnes</text>
</g>
<!-- 7f6af0c7f4c144e0ac74aad84e5a1e91 -->
<g id="node11" class="node">
<title>7f6af0c7f4c144e0ac74aad84e5a1e91</title>
<image xlink:href="icons/bigquery.png" width="101px" height="101px" preserveAspectRatio="xMinYMin meet" x="798" y="-2500.5"/>
<text text-anchor="middle" x="848.5" y="-2385.1" font-family="Sans-Serif" font-size="13.00" fill="#2d3436">amadeus.t_ama_formulaires_verif_flux_ga</text>
</g>
<!-- 4cec4726d7f44264bfe43ecd1873aca3&#45;&gt;7f6af0c7f4c144e0ac74aad84e5a1e91 -->
<g id="edge9" class="edge">
<title>4cec4726d7f44264bfe43ecd1873aca3&#45;&gt;7f6af0c7f4c144e0ac74aad84e5a1e91</title>
<path fill="none" stroke="#7b8894" d="M527.06,-2450C527.06,-2450 787.76,-2450 787.76,-2450"/>
<polygon fill="#7b8894" stroke="#7b8894" points="787.76,-2453.5 797.76,-2450 787.76,-2446.5 787.76,-2453.5"/>
<text text-anchor="middle" x="662.5" y="-2456.6" font-family="Sans-Serif" font-size="13.00" fill="darkgrey">t_formulaires_verif_flux_ga</text>
</g>
<!-- 8cbb765679bb45d48c704db076d2a144 -->
<g id="node3" class="node">
<title>8cbb765679bb45d48c704db076d2a144</title>
<image xlink:href="icons/storage.png" width="101px" height="101px" preserveAspectRatio="xMinYMin meet" x="16" y="-1960.5"/>
<text text-anchor="middle" x="66.5" y="-1845.1" font-family="Sans-Serif" font-size="13.00" fill="#2d3436">amadeus_bi.appels/GA_SVI_</text>
</g>
<!-- faa72b432fd44f49846e9714508d92a3 -->
<g id="node4" class="node">
<title>faa72b432fd44f49846e9714508d92a3</title>
<image xlink:href="icons/bigquery.png" width="101px" height="101px" preserveAspectRatio="xMinYMin meet" x="426" y="-1960.5"/>
<text text-anchor="middle" x="476.5" y="-1845.1" font-family="Sans-Serif" font-size="13.00" fill="#2d3436">amadeus.e_ama_appels</text>
</g>
<!-- 8cbb765679bb45d48c704db076d2a144&#45;&gt;faa72b432fd44f49846e9714508d92a3 -->
<g id="edge2" class="edge">
<title>8cbb765679bb45d48c704db076d2a144&#45;&gt;faa72b432fd44f49846e9714508d92a3</title>
<path fill="none" stroke="#7b8894" d="M117.19,-1910C117.19,-1910 415.93,-1910 415.93,-1910"/>
<polygon fill="#7b8894" stroke="#7b8894" points="415.93,-1913.5 425.93,-1910 415.93,-1906.5 415.93,-1913.5"/>
<text text-anchor="middle" x="271.5" y="-1913.6" font-family="Sans-Serif" font-size="13.00" fill="darkgrey">e_appels</text>
</g>
<!-- a29adc006db849d0be9b7157a6fb1b1f -->
<g id="node14" class="node">
<title>a29adc006db849d0be9b7157a6fb1b1f</title>
<image xlink:href="icons/bigquery.png" width="101px" height="101px" preserveAspectRatio="xMinYMin meet" x="798" y="-1675.5"/>
<text text-anchor="middle" x="848.5" y="-1560.1" font-family="Sans-Serif" font-size="13.00" fill="#2d3436">amadeus.t_ama_appels</text>
</g>
<!-- faa72b432fd44f49846e9714508d92a3&#45;&gt;a29adc006db849d0be9b7157a6fb1b1f -->
<g id="edge14" class="edge">
<title>faa72b432fd44f49846e9714508d92a3&#45;&gt;a29adc006db849d0be9b7157a6fb1b1f</title>
<path fill="none" stroke="#7b8894" d="M527.46,-1910C582.68,-1910 663,-1910 663,-1910 663,-1910 663,-1682.83 663,-1682.83 663,-1682.83 787.81,-1682.83 787.81,-1682.83"/>
<polygon fill="#7b8894" stroke="#7b8894" points="787.81,-1686.33 797.81,-1682.83 787.81,-1679.33 787.81,-1686.33"/>
<text text-anchor="middle" x="662.5" y="-1853.6" font-family="Sans-Serif" font-size="13.00" fill="darkgrey">t_appels</text>
</g>
<!-- 04f306f559b14e8cb3c6d94e42b72042 -->
<g id="node24" class="node">
<title>04f306f559b14e8cb3c6d94e42b72042</title>
<image xlink:href="icons/bigquery.png" width="101px" height="101px" preserveAspectRatio="xMinYMin meet" x="798" y="-2140.5"/>
<text text-anchor="middle" x="848.5" y="-2025.1" font-family="Sans-Serif" font-size="13.00" fill="#2d3436">amadeus.t_ama_import_gads</text>
</g>
<!-- faa72b432fd44f49846e9714508d92a3&#45;&gt;04f306f559b14e8cb3c6d94e42b72042 -->
<g id="edge25" class="edge">
<title>faa72b432fd44f49846e9714508d92a3&#45;&gt;04f306f559b14e8cb3c6d94e42b72042</title>
<path fill="none" stroke="#7b8894" d="M477,-1978.54C477,-1994.62 477,-2007.17 477,-2007.17 477,-2007.17 832,-2007.17 832,-2007.17 832,-2007.17 832,-2011.22 832,-2011.22"/>
<polygon fill="#7b8894" stroke="#7b8894" points="828.5,-2011.22 832,-2021.22 835.5,-2011.22 828.5,-2011.22"/>
<text text-anchor="middle" x="662.5" y="-1972.6" font-family="Sans-Serif" font-size="13.00" fill="darkgrey">t_import_gads</text>
</g>
<!-- dded15d3713542dba1176d6e63125d8f -->
<g id="node8" class="node">
<title>dded15d3713542dba1176d6e63125d8f</title>
<image xlink:href="icons/bigquery.png" width="101px" height="101px" preserveAspectRatio="xMinYMin meet" x="1208" y="-2320.5"/>
<text text-anchor="middle" x="1258.5" y="-2205.1" font-family="Sans-Serif" font-size="13.00" fill="#2d3436">amadeus.t_ama_contrats_formulaires</text>
</g>
<!-- 63d2a32754ad4299b8f77322f7c59c3e&#45;&gt;dded15d3713542dba1176d6e63125d8f -->
<g id="edge6" class="edge">
<title>63d2a32754ad4299b8f77322f7c59c3e&#45;&gt;dded15d3713542dba1176d6e63125d8f</title>
<path fill="none" stroke="#7b8894" d="M899.19,-2292.83C899.19,-2292.83 1197.93,-2292.83 1197.93,-2292.83"/>
<polygon fill="#7b8894" stroke="#7b8894" points="1197.93,-2296.33 1207.93,-2292.83 1197.93,-2289.33 1197.93,-2296.33"/>
<text text-anchor="middle" x="1043" y="-2273.6" font-family="Sans-Serif" font-size="13.00" fill="darkgrey">t_contrats_formulaires</text>
</g>
<!-- 68a0516c910849949ee537c63a2db843 -->
<g id="node10" class="node">
<title>68a0516c910849949ee537c63a2db843</title>
<image xlink:href="icons/bigquery.png" width="101px" height="101px" preserveAspectRatio="xMinYMin meet" x="1208" y="-2500.5"/>
<text text-anchor="middle" x="1258.5" y="-2385.1" font-family="Sans-Serif" font-size="13.00" fill="#2d3436">amadeus.t_ama_leads_formulaires</text>
</g>
<!-- 63d2a32754ad4299b8f77322f7c59c3e&#45;&gt;68a0516c910849949ee537c63a2db843 -->
<g id="edge8" class="edge">
<title>63d2a32754ad4299b8f77322f7c59c3e&#45;&gt;68a0516c910849949ee537c63a2db843</title>
<path fill="none" stroke="#7b8894" d="M874,-2338.56C874,-2345.04 874,-2349.25 874,-2349.25 874,-2349.25 1259,-2349.25 1259,-2349.25 1259,-2349.25 1259,-2371.4 1259,-2371.4"/>
<polygon fill="#7b8894" stroke="#7b8894" points="1255.5,-2371.4 1259,-2381.4 1262.5,-2371.4 1255.5,-2371.4"/>
<text text-anchor="middle" x="1043" y="-2394.6" font-family="Sans-Serif" font-size="13.00" fill="darkgrey">t_leads_formulaires</text>
</g>
<!-- 3920dbdb175f4f6c88652dfb0aa6e612 -->
<g id="node6" class="node">
<title>3920dbdb175f4f6c88652dfb0aa6e612</title>
<image xlink:href="icons/bigquery.png" width="101px" height="101px" preserveAspectRatio="xMinYMin meet" x="426" y="-2320.5"/>
<text text-anchor="middle" x="476.5" y="-2205.1" font-family="Sans-Serif" font-size="13.00" fill="#2d3436">ga.l_ga_to_ama_ga_formulaires_stor_*</text>
</g>
<!-- 3920dbdb175f4f6c88652dfb0aa6e612&#45;&gt;63d2a32754ad4299b8f77322f7c59c3e -->
<g id="edge4" class="edge">
<title>3920dbdb175f4f6c88652dfb0aa6e612&#45;&gt;63d2a32754ad4299b8f77322f7c59c3e</title>
<path fill="none" stroke="#7b8894" d="M527.06,-2270C527.06,-2270 787.76,-2270 787.76,-2270"/>
<polygon fill="#7b8894" stroke="#7b8894" points="787.76,-2273.5 797.76,-2270 787.76,-2266.5 787.76,-2273.5"/>
<text text-anchor="middle" x="662.5" y="-2270.6" font-family="Sans-Serif" font-size="13.00" fill="darkgrey">t_formulaires_campagnes</text>
</g>
<!-- 3920dbdb175f4f6c88652dfb0aa6e612&#45;&gt;7f6af0c7f4c144e0ac74aad84e5a1e91 -->
<g id="edge10" class="edge">
<title>3920dbdb175f4f6c88652dfb0aa6e612&#45;&gt;7f6af0c7f4c144e0ac74aad84e5a1e91</title>
<path fill="none" stroke="#7b8894" d="M460,-2338.6C460,-2356.43 460,-2370.75 460,-2370.75 460,-2370.75 824,-2370.75 824,-2370.75 824,-2370.75 824,-2371.82 824,-2371.82"/>
<polygon fill="#7b8894" stroke="#7b8894" points="820.5,-2371.44 824,-2381.44 827.5,-2371.44 820.5,-2371.44"/>
<text text-anchor="middle" x="662.5" y="-2332.6" font-family="Sans-Serif" font-size="13.00" fill="darkgrey">t_formulaires_verif_flux_ga</text>
</g>
<!-- 693769c9572e4b90b615c9ec485ca32c -->
<g id="node7" class="node">
<title>693769c9572e4b90b615c9ec485ca32c</title>
<image xlink:href="icons/bigquery.png" width="101px" height="101px" preserveAspectRatio="xMinYMin meet" x="426" y="-2140.5"/>
<text text-anchor="middle" x="476.5" y="-2025.1" font-family="Sans-Serif" font-size="13.00" fill="#2d3436">ga.t_ga_correspondance_hash_campagnes</text>
</g>
<!-- 693769c9572e4b90b615c9ec485ca32c&#45;&gt;63d2a32754ad4299b8f77322f7c59c3e -->
<g id="edge5" class="edge">
<title>693769c9572e4b90b615c9ec485ca32c&#45;&gt;63d2a32754ad4299b8f77322f7c59c3e</title>
<path fill="none" stroke="#7b8894" d="M477,-2158.67C477,-2170.99 477,-2180 477,-2180 477,-2180 849,-2180 849,-2180 849,-2180 849,-2191.33 849,-2191.33"/>
<polygon fill="#7b8894" stroke="#7b8894" points="845.5,-2191.33 849,-2201.33 852.5,-2191.33 845.5,-2191.33"/>
<text text-anchor="middle" x="662.5" y="-2152.6" font-family="Sans-Serif" font-size="13.00" fill="darkgrey">t_formulaires_campagnes</text>
</g>
<!-- ffe88fffb340483082d143c8f0d7c672 -->
<g id="node9" class="node">
<title>ffe88fffb340483082d143c8f0d7c672</title>
<image xlink:href="icons/bigquery.png" width="101px" height="101px" preserveAspectRatio="xMinYMin meet" x="798" y="-1960.5"/>
<text text-anchor="middle" x="848.5" y="-1845.1" font-family="Sans-Serif" font-size="13.00" fill="#2d3436">comper.e_v_digi_import_cube_valeur</text>
</g>
<!-- ffe88fffb340483082d143c8f0d7c672&#45;&gt;dded15d3713542dba1176d6e63125d8f -->
<g id="edge7" class="edge">
<title>ffe88fffb340483082d143c8f0d7c672&#45;&gt;dded15d3713542dba1176d6e63125d8f</title>
<path fill="none" stroke="#7b8894" d="M899.03,-1932.83C959.88,-1932.83 1054,-1932.83 1054,-1932.83 1054,-1932.83 1054,-2247.17 1054,-2247.17 1054,-2247.17 1197.95,-2247.17 1197.95,-2247.17"/>
<polygon fill="#7b8894" stroke="#7b8894" points="1197.95,-2250.67 1207.95,-2247.17 1197.95,-2243.67 1197.95,-2250.67"/>
<text text-anchor="middle" x="1043" y="-2169.6" font-family="Sans-Serif" font-size="13.00" fill="darkgrey">t_contrats_formulaires</text>
</g>
<!-- f32cd06786474e9b82c8828f80002a9b -->
<g id="node19" class="node">
<title>f32cd06786474e9b82c8828f80002a9b</title>
<image xlink:href="icons/bigquery.png" width="101px" height="101px" preserveAspectRatio="xMinYMin meet" x="1208" y="-2140.5"/>
<text text-anchor="middle" x="1258.5" y="-2025.1" font-family="Sans-Serif" font-size="13.00" fill="#2d3436">amadeus.t_ama_contrats_appels</text>
</g>
<!-- ffe88fffb340483082d143c8f0d7c672&#45;&gt;f32cd06786474e9b82c8828f80002a9b -->
<g id="edge19" class="edge">
<title>ffe88fffb340483082d143c8f0d7c672&#45;&gt;f32cd06786474e9b82c8828f80002a9b</title>
<path fill="none" stroke="#7b8894" d="M866,-1978.78C866,-1987.16 866,-1992.83 866,-1992.83 866,-1992.83 1259,-1992.83 1259,-1992.83 1259,-1992.83 1259,-2011.46 1259,-2011.46"/>
<polygon fill="#7b8894" stroke="#7b8894" points="1255.5,-2011.46 1259,-2021.46 1262.5,-2011.46 1255.5,-2011.46"/>
<text text-anchor="middle" x="1043" y="-2065.6" font-family="Sans-Serif" font-size="13.00" fill="darkgrey">t_contrats_appels</text>
</g>
<!-- 0bf8a83f3cf94f31855d95879167f7d5 -->
<g id="node12" class="node">
<title>0bf8a83f3cf94f31855d95879167f7d5</title>
<image xlink:href="icons/bigquery.png" width="101px" height="101px" preserveAspectRatio="xMinYMin meet" x="426" y="-1420.5"/>
<text text-anchor="middle" x="476.5" y="-1305.1" font-family="Sans-Serif" font-size="13.00" fill="#2d3436">ga.t_ga_sessions</text>
</g>
<!-- 71743d37b01b4e358cf3abdd7195d934 -->
<g id="node13" class="node">
<title>71743d37b01b4e358cf3abdd7195d934</title>
<image xlink:href="icons/bigquery.png" width="101px" height="101px" preserveAspectRatio="xMinYMin meet" x="798" y="-1420.5"/>
<text text-anchor="middle" x="848.5" y="-1305.1" font-family="Sans-Serif" font-size="13.00" fill="#2d3436">amadeus.t_ama_appels_ga</text>
</g>
<!-- 0bf8a83f3cf94f31855d95879167f7d5&#45;&gt;71743d37b01b4e358cf3abdd7195d934 -->
<g id="edge11" class="edge">
<title>0bf8a83f3cf94f31855d95879167f7d5&#45;&gt;71743d37b01b4e358cf3abdd7195d934</title>
<path fill="none" stroke="#7b8894" d="M527.06,-1370C527.06,-1370 787.76,-1370 787.76,-1370"/>
<polygon fill="#7b8894" stroke="#7b8894" points="787.76,-1373.5 797.76,-1370 787.76,-1366.5 787.76,-1373.5"/>
<text text-anchor="middle" x="662.5" y="-1373.6" font-family="Sans-Serif" font-size="13.00" fill="darkgrey">t_appels_ga</text>
</g>
<!-- 72f330559960405897b8c5e8f6cb9f5b -->
<g id="node23" class="node">
<title>72f330559960405897b8c5e8f6cb9f5b</title>
<image xlink:href="icons/bigquery.png" width="101px" height="101px" preserveAspectRatio="xMinYMin meet" x="798" y="-1240.5"/>
<text text-anchor="middle" x="848.5" y="-1125.1" font-family="Sans-Serif" font-size="13.00" fill="#2d3436">eloqua.t_elq_promo_applis_mobiles_tlgt_appli</text>
</g>
<!-- 0bf8a83f3cf94f31855d95879167f7d5&#45;&gt;72f330559960405897b8c5e8f6cb9f5b -->
<g id="edge24" class="edge">
<title>0bf8a83f3cf94f31855d95879167f7d5&#45;&gt;72f330559960405897b8c5e8f6cb9f5b</title>
<path fill="none" stroke="#7b8894" d="M477,-1301.35C477,-1282.67 477,-1267.5 477,-1267.5 477,-1267.5 866,-1267.5 866,-1267.5 866,-1267.5 866,-1266.61 866,-1266.61"/>
<polygon fill="#7b8894" stroke="#7b8894" points="869.5,-1268.61 866,-1258.61 862.5,-1268.61 869.5,-1268.61"/>
<text text-anchor="middle" x="662.5" y="-1283.6" font-family="Sans-Serif" font-size="13.00" fill="darkgrey">t_elq_promo_applis_mobiles_tlgt_appli</text>
</g>
<!-- 0c3d10f41b15466596058c97220d42ca -->
<g id="node15" class="node">
<title>0c3d10f41b15466596058c97220d42ca</title>
<image xlink:href="icons/bigquery.png" width="101px" height="101px" preserveAspectRatio="xMinYMin meet" x="1208" y="-959.5"/>
<text text-anchor="middle" x="1258.5" y="-844.1" font-family="Sans-Serif" font-size="13.00" fill="#2d3436">amadeus.t_ama_appels_leviers</text>
</g>
<!-- 71743d37b01b4e358cf3abdd7195d934&#45;&gt;0c3d10f41b15466596058c97220d42ca -->
<g id="edge13" class="edge">
<title>71743d37b01b4e358cf3abdd7195d934&#45;&gt;0c3d10f41b15466596058c97220d42ca</title>
<path fill="none" stroke="#7b8894" d="M899,-1347.17C919.31,-1347.17 938,-1347.17 938,-1347.17 938,-1347.17 938,-953.5 938,-953.5 938,-953.5 1197.72,-953.5 1197.72,-953.5"/>
<polygon fill="#7b8894" stroke="#7b8894" points="1197.72,-957 1207.72,-953.5 1197.72,-950 1197.72,-957"/>
<text text-anchor="middle" x="1043" y="-979.6" font-family="Sans-Serif" font-size="13.00" fill="darkgrey">t_appels_leviers</text>
</g>
<!-- 09a361b0b8364bd39ab354784b6ac50d -->
<g id="node20" class="node">
<title>09a361b0b8364bd39ab354784b6ac50d</title>
<image xlink:href="icons/bigquery.png" width="101px" height="101px" preserveAspectRatio="xMinYMin meet" x="1527" y="-1395.5"/>
<text text-anchor="middle" x="1577.5" y="-1280.1" font-family="Sans-Serif" font-size="13.00" fill="#2d3436">amadeus.t_ama_contrats_appels_leviers</text>
</g>
<!-- 71743d37b01b4e358cf3abdd7195d934&#45;&gt;09a361b0b8364bd39ab354784b6ac50d -->
<g id="edge21" class="edge">
<title>71743d37b01b4e358cf3abdd7195d934&#45;&gt;09a361b0b8364bd39ab354784b6ac50d</title>
<path fill="none" stroke="#7b8894" d="M832,-1301.3C832,-1293.91 832,-1289 832,-1289 832,-1289 1516.84,-1289 1516.84,-1289"/>
<polygon fill="#7b8894" stroke="#7b8894" points="1516.84,-1292.5 1526.84,-1289 1516.84,-1285.5 1516.84,-1292.5"/>
<text text-anchor="middle" x="1258.5" y="-1067.6" font-family="Sans-Serif" font-size="13.00" fill="darkgrey">t_contrats_appels_leviers</text>
</g>
<!-- a29adc006db849d0be9b7157a6fb1b1f&#45;&gt;0c3d10f41b15466596058c97220d42ca -->
<g id="edge12" class="edge">
<title>a29adc006db849d0be9b7157a6fb1b1f&#45;&gt;0c3d10f41b15466596058c97220d42ca</title>
<path fill="none" stroke="#7b8894" d="M899.29,-1568.9C935.2,-1568.9 977,-1568.9 977,-1568.9 977,-1568.9 977,-965.5 977,-965.5 977,-965.5 1197.85,-965.5 1197.85,-965.5"/>
<polygon fill="#7b8894" stroke="#7b8894" points="1197.85,-969 1207.85,-965.5 1197.85,-962 1197.85,-969"/>
<text text-anchor="middle" x="1043" y="-1224.6" font-family="Sans-Serif" font-size="13.00" fill="darkgrey">t_appels_leviers</text>
</g>
<!-- a29adc006db849d0be9b7157a6fb1b1f&#45;&gt;f32cd06786474e9b82c8828f80002a9b -->
<g id="edge18" class="edge">
<title>a29adc006db849d0be9b7157a6fb1b1f&#45;&gt;f32cd06786474e9b82c8828f80002a9b</title>
<path fill="none" stroke="#7b8894" d="M899.16,-1685.5C970.78,-1685.5 1093,-1685.5 1093,-1685.5 1093,-1685.5 1093,-2090 1093,-2090 1093,-2090 1197.95,-2090 1197.95,-2090"/>
<polygon fill="#7b8894" stroke="#7b8894" points="1197.95,-2093.5 1207.95,-2090 1197.95,-2086.5 1197.95,-2093.5"/>
<text text-anchor="middle" x="1043" y="-1945.6" font-family="Sans-Serif" font-size="13.00" fill="darkgrey">t_contrats_appels</text>
</g>
<!-- 9f33fd08f33942dc91b291985ec1e844 -->
<g id="node25" class="node">
<title>9f33fd08f33942dc91b291985ec1e844</title>
<image xlink:href="icons/bigquery.png" width="101px" height="101px" preserveAspectRatio="xMinYMin meet" x="1208" y="-1420.5"/>
<text text-anchor="middle" x="1258.5" y="-1305.1" font-family="Sans-Serif" font-size="13.00" fill="#2d3436">amadeus.t_ama_valeurs_plus40_datastudio_gads</text>
</g>
<!-- a29adc006db849d0be9b7157a6fb1b1f&#45;&gt;9f33fd08f33942dc91b291985ec1e844 -->
<g id="edge26" class="edge">
<title>a29adc006db849d0be9b7157a6fb1b1f&#45;&gt;9f33fd08f33942dc91b291985ec1e844</title>
<path fill="none" stroke="#7b8894" d="M899.09,-1593.7C989.63,-1593.7 1170,-1593.7 1170,-1593.7 1170,-1593.7 1170,-1392.83 1170,-1392.83 1170,-1392.83 1197.79,-1392.83 1197.79,-1392.83"/>
<polygon fill="#7b8894" stroke="#7b8894" points="1197.79,-1396.33 1207.79,-1392.83 1197.79,-1389.33 1197.79,-1396.33"/>
<text text-anchor="middle" x="1043" y="-1447.6" font-family="Sans-Serif" font-size="13.00" fill="darkgrey">t_valeurs_plus40_datastudio_gads</text>
</g>
<!-- 87975cf733e7416a95d28b967f7cc5fd -->
<g id="node26" class="node">
<title>87975cf733e7416a95d28b967f7cc5fd</title>
<image xlink:href="icons/bigquery.png" width="101px" height="101px" preserveAspectRatio="xMinYMin meet" x="1208" y="-1600.5"/>
<text text-anchor="middle" x="1258.5" y="-1485.1" font-family="Sans-Serif" font-size="13.00" fill="#2d3436">amadeus.t_ama_valeurs_datastudio_gads</text>
</g>
<!-- a29adc006db849d0be9b7157a6fb1b1f&#45;&gt;87975cf733e7416a95d28b967f7cc5fd -->
<g id="edge27" class="edge">
<title>a29adc006db849d0be9b7157a6fb1b1f&#45;&gt;87975cf733e7416a95d28b967f7cc5fd</title>
<path fill="none" stroke="#7b8894" d="M899.19,-1606.1C899.19,-1606.1 1197.93,-1606.1 1197.93,-1606.1"/>
<polygon fill="#7b8894" stroke="#7b8894" points="1197.93,-1609.6 1207.93,-1606.1 1197.93,-1602.6 1197.93,-1609.6"/>
<text text-anchor="middle" x="1043" y="-1583.6" font-family="Sans-Serif" font-size="13.00" fill="darkgrey">t_valeurs_datastudio_gads</text>
</g>
<!-- bb98e8041f0d4bd9b110069419d63f11 -->
<g id="node27" class="node">
<title>bb98e8041f0d4bd9b110069419d63f11</title>
<image xlink:href="icons/bigquery.png" width="101px" height="101px" preserveAspectRatio="xMinYMin meet" x="1208" y="-1780.5"/>
<text text-anchor="middle" x="1258.5" y="-1665.1" font-family="Sans-Serif" font-size="13.00" fill="#2d3436">amadeus.t_ama_valeurs_sousindicateur_gads</text>
</g>
<!-- a29adc006db849d0be9b7157a6fb1b1f&#45;&gt;bb98e8041f0d4bd9b110069419d63f11 -->
<g id="edge28" class="edge">
<title>a29adc006db849d0be9b7157a6fb1b1f&#45;&gt;bb98e8041f0d4bd9b110069419d63f11</title>
<path fill="none" stroke="#7b8894" d="M899.19,-1669.5C899.19,-1669.5 1197.93,-1669.5 1197.93,-1669.5"/>
<polygon fill="#7b8894" stroke="#7b8894" points="1197.93,-1673 1207.93,-1669.5 1197.93,-1666 1197.93,-1673"/>
<text text-anchor="middle" x="1043" y="-1674.6" font-family="Sans-Serif" font-size="13.00" fill="darkgrey">t_valeurs_sousindicateur_gads</text>
</g>
<!-- adc6d7dbc5c9495c9744545f46311b68 -->
<g id="node28" class="node">
<title>adc6d7dbc5c9495c9744545f46311b68</title>
<image xlink:href="icons/bigquery.png" width="101px" height="101px" preserveAspectRatio="xMinYMin meet" x="1208" y="-1960.5"/>
<text text-anchor="middle" x="1258.5" y="-1845.1" font-family="Sans-Serif" font-size="13.00" fill="#2d3436">amadeus.t_ama_anciennes_valeurs_gads</text>
</g>
<!-- a29adc006db849d0be9b7157a6fb1b1f&#45;&gt;adc6d7dbc5c9495c9744545f46311b68 -->
<g id="edge29" class="edge">
<title>a29adc006db849d0be9b7157a6fb1b1f&#45;&gt;adc6d7dbc5c9495c9744545f46311b68</title>
<path fill="none" stroke="#7b8894" d="M899.01,-1677.5C980.26,-1677.5 1131,-1677.5 1131,-1677.5 1131,-1677.5 1131,-1887.17 1131,-1887.17 1131,-1887.17 1197.74,-1887.17 1197.74,-1887.17"/>
<polygon fill="#7b8894" stroke="#7b8894" points="1197.74,-1890.67 1207.74,-1887.17 1197.74,-1883.67 1197.74,-1890.67"/>
<text text-anchor="middle" x="1043" y="-1825.6" font-family="Sans-Serif" font-size="13.00" fill="darkgrey">t_anciennes_valeurs_gads</text>
</g>
<!-- bab0ff125c8344df99b55a1c030c3d75 -->
<g id="node29" class="node">
<title>bab0ff125c8344df99b55a1c030c3d75</title>
<image xlink:href="icons/bigquery.png" width="101px" height="101px" preserveAspectRatio="xMinYMin meet" x="1208" y="-1240.5"/>
<text text-anchor="middle" x="1258.5" y="-1125.1" font-family="Sans-Serif" font-size="13.00" fill="#2d3436">amadeus.t_ama_anciennes_valeurs_sousindicateur_gads</text>
</g>
<!-- a29adc006db849d0be9b7157a6fb1b1f&#45;&gt;bab0ff125c8344df99b55a1c030c3d75 -->
<g id="edge30" class="edge">
<title>a29adc006db849d0be9b7157a6fb1b1f&#45;&gt;bab0ff125c8344df99b55a1c030c3d75</title>
<path fill="none" stroke="#7b8894" d="M899.36,-1581.3C948.32,-1581.3 1015,-1581.3 1015,-1581.3 1015,-1581.3 1015,-1190 1015,-1190 1015,-1190 1197.75,-1190 1197.75,-1190"/>
<polygon fill="#7b8894" stroke="#7b8894" points="1197.75,-1193.5 1207.75,-1190 1197.75,-1186.5 1197.75,-1193.5"/>
<text text-anchor="middle" x="1043" y="-1352.6" font-family="Sans-Serif" font-size="13.00" fill="darkgrey">t_anciennes_valeurs_sousindicateur_gads</text>
</g>
<!-- 8df1236f606f47c4b2091eb5e445d9ad -->
<g id="node18" class="node">
<title>8df1236f606f47c4b2091eb5e445d9ad</title>
<image xlink:href="icons/bigquery.png" width="101px" height="101px" preserveAspectRatio="xMinYMin meet" x="1527" y="-959.5"/>
<text text-anchor="middle" x="1577.5" y="-844.1" font-family="Sans-Serif" font-size="13.00" fill="#2d3436">amadeus.t_ama_leads_appels</text>
</g>
<!-- 0c3d10f41b15466596058c97220d42ca&#45;&gt;8df1236f606f47c4b2091eb5e445d9ad -->
<g id="edge17" class="edge">
<title>0c3d10f41b15466596058c97220d42ca&#45;&gt;8df1236f606f47c4b2091eb5e445d9ad</title>
<path fill="none" stroke="#7b8894" d="M1309.05,-909C1309.05,-909 1516.93,-909 1516.93,-909"/>
<polygon fill="#7b8894" stroke="#7b8894" points="1516.93,-912.5 1526.93,-909 1516.93,-905.5 1516.93,-912.5"/>
<text text-anchor="middle" x="1428.5" y="-912.6" font-family="Sans-Serif" font-size="13.00" fill="darkgrey">t_leads_appels</text>
</g>
<!-- c8c807662bb148e3b79dcb20974f3996 -->
<g id="node16" class="node">
<title>c8c807662bb148e3b79dcb20974f3996</title>
<image xlink:href="icons/bigquery.png" width="101px" height="101px" preserveAspectRatio="xMinYMin meet" x="426" y="-1600.5"/>
<text text-anchor="middle" x="476.5" y="-1485.1" font-family="Sans-Serif" font-size="13.00" fill="#2d3436">amadeus.e_ama_appels_2020</text>
</g>
<!-- c8c807662bb148e3b79dcb20974f3996&#45;&gt;a29adc006db849d0be9b7157a6fb1b1f -->
<g id="edge15" class="edge">
<title>c8c807662bb148e3b79dcb20974f3996&#45;&gt;a29adc006db849d0be9b7157a6fb1b1f</title>
<path fill="none" stroke="#7b8894" d="M527.06,-1587.5C527.06,-1587.5 787.76,-1587.5 787.76,-1587.5"/>
<polygon fill="#7b8894" stroke="#7b8894" points="787.76,-1591 797.76,-1587.5 787.76,-1584 787.76,-1591"/>
<text text-anchor="middle" x="662.5" y="-1582.6" font-family="Sans-Serif" font-size="13.00" fill="darkgrey">t_appels</text>
</g>
<!-- 51c94d6c5b42415eb9b49d05268a9f60 -->
<g id="node17" class="node">
<title>51c94d6c5b42415eb9b49d05268a9f60</title>
<image xlink:href="icons/bigquery.png" width="101px" height="101px" preserveAspectRatio="xMinYMin meet" x="426" y="-1780.5"/>
<text text-anchor="middle" x="476.5" y="-1665.1" font-family="Sans-Serif" font-size="13.00" fill="#2d3436">amadeus.e_ama_appels_2018_2019</text>
</g>
<!-- 51c94d6c5b42415eb9b49d05268a9f60&#45;&gt;a29adc006db849d0be9b7157a6fb1b1f -->
<g id="edge16" class="edge">
<title>51c94d6c5b42415eb9b49d05268a9f60&#45;&gt;a29adc006db849d0be9b7157a6fb1b1f</title>
<path fill="none" stroke="#7b8894" d="M527.06,-1672.17C527.06,-1672.17 787.76,-1672.17 787.76,-1672.17"/>
<polygon fill="#7b8894" stroke="#7b8894" points="787.76,-1675.67 797.76,-1672.17 787.76,-1668.67 787.76,-1675.67"/>
<text text-anchor="middle" x="662.5" y="-1674.6" font-family="Sans-Serif" font-size="13.00" fill="darkgrey">t_appels</text>
</g>
<!-- f32cd06786474e9b82c8828f80002a9b&#45;&gt;09a361b0b8364bd39ab354784b6ac50d -->
<g id="edge20" class="edge">
<title>f32cd06786474e9b82c8828f80002a9b&#45;&gt;09a361b0b8364bd39ab354784b6ac50d</title>
<path fill="none" stroke="#7b8894" d="M1309.13,-2090C1399.22,-2090 1578,-2090 1578,-2090 1578,-2090 1578,-1423.75 1578,-1423.75"/>
<polygon fill="#7b8894" stroke="#7b8894" points="1581.5,-1423.75 1578,-1413.75 1574.5,-1423.75 1581.5,-1423.75"/>
<text text-anchor="middle" x="1428.5" y="-1604.6" font-family="Sans-Serif" font-size="13.00" fill="darkgrey">t_contrats_appels_leviers</text>
</g>
<!-- dea50448fdd94b79b53a4b12b3cc66b4 -->
<g id="node21" class="node">
<title>dea50448fdd94b79b53a4b12b3cc66b4</title>
<image xlink:href="icons/storage.png" width="101px" height="101px" preserveAspectRatio="xMinYMin meet" x="16" y="-1240.5"/>
<text text-anchor="middle" x="66.5" y="-1125.1" font-family="Sans-Serif" font-size="13.00" fill="#2d3436">amadeus_bi.eloqua/AMA_GOOG_RETR_MARK_ELQC_315_*</text>
</g>
<!-- 5fb9260279834a65804cbdff23882aed -->
<g id="node22" class="node">
<title>5fb9260279834a65804cbdff23882aed</title>
<image xlink:href="icons/bigquery.png" width="101px" height="101px" preserveAspectRatio="xMinYMin meet" x="426" y="-1240.5"/>
<text text-anchor="middle" x="476.5" y="-1125.1" font-family="Sans-Serif" font-size="13.00" fill="#2d3436">eloqua.e_elq_promo_applis_mobiles_clics_emails</text>
</g>
<!-- dea50448fdd94b79b53a4b12b3cc66b4&#45;&gt;5fb9260279834a65804cbdff23882aed -->
<g id="edge22" class="edge">
<title>dea50448fdd94b79b53a4b12b3cc66b4&#45;&gt;5fb9260279834a65804cbdff23882aed</title>
<path fill="none" stroke="#7b8894" d="M117.19,-1190C117.19,-1190 415.93,-1190 415.93,-1190"/>
<polygon fill="#7b8894" stroke="#7b8894" points="415.93,-1193.5 425.93,-1190 415.93,-1186.5 415.93,-1193.5"/>
<text text-anchor="middle" x="271.5" y="-1193.6" font-family="Sans-Serif" font-size="13.00" fill="darkgrey">e_elq_promo_applis_mobiles_clics_emails</text>
</g>
<!-- 5fb9260279834a65804cbdff23882aed&#45;&gt;72f330559960405897b8c5e8f6cb9f5b -->
<g id="edge23" class="edge">
<title>5fb9260279834a65804cbdff23882aed&#45;&gt;72f330559960405897b8c5e8f6cb9f5b</title>
<path fill="none" stroke="#7b8894" d="M527.06,-1190C527.06,-1190 787.76,-1190 787.76,-1190"/>
<polygon fill="#7b8894" stroke="#7b8894" points="787.76,-1193.5 797.76,-1190 787.76,-1186.5 787.76,-1193.5"/>
<text text-anchor="middle" x="662.5" y="-1193.6" font-family="Sans-Serif" font-size="13.00" fill="darkgrey">t_elq_promo_applis_mobiles_tlgt_appli</text>
</g>
<!-- 2471d741d56f4cbdb7b23bb5ccca29ef -->
<g id="node30" class="node">
<title>2471d741d56f4cbdb7b23bb5ccca29ef</title>
<image xlink:href="icons/bigquery.png" width="101px" height="101px" preserveAspectRatio="xMinYMin meet" x="16" y="-1060.5"/>
<text text-anchor="middle" x="66.5" y="-945.1" font-family="Sans-Serif" font-size="13.00" fill="#2d3436">comper.t_v_digi_cube_valeur</text>
</g>
<!-- 82e8a883cc12439db6c6f7c849c1eed7 -->
<g id="node31" class="node">
<title>82e8a883cc12439db6c6f7c849c1eed7</title>
<image xlink:href="icons/bigquery.png" width="101px" height="101px" preserveAspectRatio="xMinYMin meet" x="426" y="-1060.5"/>
<text text-anchor="middle" x="476.5" y="-945.1" font-family="Sans-Serif" font-size="13.00" fill="#2d3436">amadeus.t_ama_parrainage</text>
</g>
<!-- 2471d741d56f4cbdb7b23bb5ccca29ef&#45;&gt;82e8a883cc12439db6c6f7c849c1eed7 -->
<g id="edge31" class="edge">
<title>2471d741d56f4cbdb7b23bb5ccca29ef&#45;&gt;82e8a883cc12439db6c6f7c849c1eed7</title>
<path fill="none" stroke="#7b8894" d="M117.19,-1010C117.19,-1010 415.93,-1010 415.93,-1010"/>
<polygon fill="#7b8894" stroke="#7b8894" points="415.93,-1013.5 425.93,-1010 415.93,-1006.5 415.93,-1013.5"/>
<text text-anchor="middle" x="271.5" y="-1013.6" font-family="Sans-Serif" font-size="13.00" fill="darkgrey">t_parrainage</text>
</g>
<!-- b84ba1906e384cd19af23cc95f87831b -->
<g id="node32" class="node">
<title>b84ba1906e384cd19af23cc95f87831b</title>
<image xlink:href="icons/bigquery.png" width="101px" height="101px" preserveAspectRatio="xMinYMin meet" x="798" y="-1060.5"/>
<text text-anchor="middle" x="848.5" y="-945.1" font-family="Sans-Serif" font-size="13.00" fill="#2d3436">comper.l_ama_to_ds_comper_t_ama_parrainage</text>
</g>
<!-- 82e8a883cc12439db6c6f7c849c1eed7&#45;&gt;b84ba1906e384cd19af23cc95f87831b -->
<g id="edge32" class="edge">
<title>82e8a883cc12439db6c6f7c849c1eed7&#45;&gt;b84ba1906e384cd19af23cc95f87831b</title>
<path fill="none" stroke="#7b8894" d="M527.06,-1010C527.06,-1010 787.76,-1010 787.76,-1010"/>
<polygon fill="#7b8894" stroke="#7b8894" points="787.76,-1013.5 797.76,-1010 787.76,-1006.5 787.76,-1013.5"/>
<text text-anchor="middle" x="662.5" y="-1013.6" font-family="Sans-Serif" font-size="13.00" fill="darkgrey">l_to_ds_comper_t_ama_parrainage</text>
</g>
<!-- a258b41508a0412c8f2c1fdc6eb7e2d4 -->
<g id="node33" class="node">
<title>a258b41508a0412c8f2c1fdc6eb7e2d4</title>
<image xlink:href="icons/bigquery.png" width="101px" height="101px" preserveAspectRatio="xMinYMin meet" x="16" y="-880.5"/>
<text text-anchor="middle" x="66.5" y="-765.1" font-family="Sans-Serif" font-size="13.00" fill="#2d3436">amadeus.e_gsheet_contrats_services</text>
</g>
<!-- 00dbbb599b1f43e1ab664e61833ff827 -->
<g id="node34" class="node">
<title>00dbbb599b1f43e1ab664e61833ff827</title>
<image xlink:href="icons/bigquery.png" width="101px" height="101px" preserveAspectRatio="xMinYMin meet" x="426" y="-880.5"/>
<text text-anchor="middle" x="476.5" y="-765.1" font-family="Sans-Serif" font-size="13.00" fill="#2d3436">comper.l_ama_to_ds_comper_contrats_services</text>
</g>
<!-- a258b41508a0412c8f2c1fdc6eb7e2d4&#45;&gt;00dbbb599b1f43e1ab664e61833ff827 -->
<g id="edge33" class="edge">
<title>a258b41508a0412c8f2c1fdc6eb7e2d4&#45;&gt;00dbbb599b1f43e1ab664e61833ff827</title>
<path fill="none" stroke="#7b8894" d="M117.19,-830C117.19,-830 415.93,-830 415.93,-830"/>
<polygon fill="#7b8894" stroke="#7b8894" points="415.93,-833.5 425.93,-830 415.93,-826.5 415.93,-833.5"/>
<text text-anchor="middle" x="271.5" y="-833.6" font-family="Sans-Serif" font-size="13.00" fill="darkgrey">l_to_ds_comper_contrats_services</text>
</g>
<!-- 03f6a0e74fe5474b902ccc5f8a8b2bab -->
<g id="node35" class="node">
<title>03f6a0e74fe5474b902ccc5f8a8b2bab</title>
<image xlink:href="icons/bigquery.png" width="101px" height="101px" preserveAspectRatio="xMinYMin meet" x="16" y="-700.5"/>
<text text-anchor="middle" x="66.5" y="-585.1" font-family="Sans-Serif" font-size="13.00" fill="#2d3436">reporting_equipements.bout_en_bout_equipements</text>
</g>
<!-- ea8b226778c04536af4b60a09137dcde -->
<g id="node36" class="node">
<title>ea8b226778c04536af4b60a09137dcde</title>
<image xlink:href="icons/bigquery.png" width="101px" height="101px" preserveAspectRatio="xMinYMin meet" x="426" y="-700.5"/>
<text text-anchor="middle" x="476.5" y="-585.1" font-family="Sans-Serif" font-size="13.00" fill="#2d3436">comper.l_ama_to_ds_comper_bout_en_bout_equipements</text>
</g>
<!-- 03f6a0e74fe5474b902ccc5f8a8b2bab&#45;&gt;ea8b226778c04536af4b60a09137dcde -->
<g id="edge34" class="edge">
<title>03f6a0e74fe5474b902ccc5f8a8b2bab&#45;&gt;ea8b226778c04536af4b60a09137dcde</title>
<path fill="none" stroke="#7b8894" d="M117.19,-650C117.19,-650 415.93,-650 415.93,-650"/>
<polygon fill="#7b8894" stroke="#7b8894" points="415.93,-653.5 425.93,-650 415.93,-646.5 415.93,-653.5"/>
<text text-anchor="middle" x="271.5" y="-653.6" font-family="Sans-Serif" font-size="13.00" fill="darkgrey">l_to_ds_comper_bout_en_bout_equipements</text>
</g>
<!-- 6789acf0405c46e29f34eadba364a7c4 -->
<g id="node37" class="node">
<title>6789acf0405c46e29f34eadba364a7c4</title>
<image xlink:href="icons/bigquery.png" width="101px" height="101px" preserveAspectRatio="xMinYMin meet" x="16" y="-520.5"/>
<text text-anchor="middle" x="66.5" y="-405.1" font-family="Sans-Serif" font-size="13.00" fill="#2d3436">amadeus.e_ama_options_vertes</text>
</g>
<!-- 0a8380821d9944189275ea2696a19709 -->
<g id="node38" class="node">
<title>0a8380821d9944189275ea2696a19709</title>
<image xlink:href="icons/bigquery.png" width="101px" height="101px" preserveAspectRatio="xMinYMin meet" x="426" y="-520.5"/>
<text text-anchor="middle" x="476.5" y="-405.1" font-family="Sans-Serif" font-size="13.00" fill="#2d3436">comper.t_ama_options_vertes</text>
</g>
<!-- 6789acf0405c46e29f34eadba364a7c4&#45;&gt;0a8380821d9944189275ea2696a19709 -->
<g id="edge35" class="edge">
<title>6789acf0405c46e29f34eadba364a7c4&#45;&gt;0a8380821d9944189275ea2696a19709</title>
<path fill="none" stroke="#7b8894" d="M117.19,-470C117.19,-470 415.93,-470 415.93,-470"/>
<polygon fill="#7b8894" stroke="#7b8894" points="415.93,-473.5 425.93,-470 415.93,-466.5 415.93,-473.5"/>
<text text-anchor="middle" x="271.5" y="-473.6" font-family="Sans-Serif" font-size="13.00" fill="darkgrey">t_options_vertes</text>
</g>
<!-- aa578b2c1c3f47fe88ad5d996cb8ff82 -->
<g id="node39" class="node">
<title>aa578b2c1c3f47fe88ad5d996cb8ff82</title>
<image xlink:href="icons/bigquery.png" width="101px" height="101px" preserveAspectRatio="xMinYMin meet" x="798" y="-520.5"/>
<text text-anchor="middle" x="848.5" y="-405.1" font-family="Sans-Serif" font-size="13.00" fill="#2d3436">comper.l_ama_to_ds_comper_options_vertes</text>
</g>
<!-- 0a8380821d9944189275ea2696a19709&#45;&gt;aa578b2c1c3f47fe88ad5d996cb8ff82 -->
<g id="edge36" class="edge">
<title>0a8380821d9944189275ea2696a19709&#45;&gt;aa578b2c1c3f47fe88ad5d996cb8ff82</title>
<path fill="none" stroke="#7b8894" d="M527.06,-470C527.06,-470 787.76,-470 787.76,-470"/>
<polygon fill="#7b8894" stroke="#7b8894" points="787.76,-473.5 797.76,-470 787.76,-466.5 787.76,-473.5"/>
<text text-anchor="middle" x="662.5" y="-473.6" font-family="Sans-Serif" font-size="13.00" fill="darkgrey">l_to_ds_comper_options_vertes</text>
</g>
<!-- 3bab53a5fde341549c16a06e22a90f10 -->
<g id="node40" class="node">
<title>3bab53a5fde341549c16a06e22a90f10</title>
<image xlink:href="icons/bigquery.png" width="101px" height="101px" preserveAspectRatio="xMinYMin meet" x="16" y="-340.5"/>
<text text-anchor="middle" x="66.5" y="-225.1" font-family="Sans-Serif" font-size="13.00" fill="#2d3436">amadeus.e_ama_prelevement_mensualisation</text>
</g>
<!-- 2cd076d12e074afe877e6ca5d1da9471 -->
<g id="node41" class="node">
<title>2cd076d12e074afe877e6ca5d1da9471</title>
<image xlink:href="icons/bigquery.png" width="101px" height="101px" preserveAspectRatio="xMinYMin meet" x="426" y="-340.5"/>
<text text-anchor="middle" x="476.5" y="-225.1" font-family="Sans-Serif" font-size="13.00" fill="#2d3436">comper.l_ama_to_ds_comper_prelevement_mensualisation</text>
</g>
<!-- 3bab53a5fde341549c16a06e22a90f10&#45;&gt;2cd076d12e074afe877e6ca5d1da9471 -->
<g id="edge37" class="edge">
<title>3bab53a5fde341549c16a06e22a90f10&#45;&gt;2cd076d12e074afe877e6ca5d1da9471</title>
<path fill="none" stroke="#7b8894" d="M117.19,-290C117.19,-290 415.93,-290 415.93,-290"/>
<polygon fill="#7b8894" stroke="#7b8894" points="415.93,-293.5 425.93,-290 415.93,-286.5 415.93,-293.5"/>
<text text-anchor="middle" x="271.5" y="-293.6" font-family="Sans-Serif" font-size="13.00" fill="darkgrey">l_to_ds_comper_prelevement_mensualisation</text>
</g>
<!-- b878c05e41d44e7abd07928afdd40a0c -->
<g id="node42" class="node">
<title>b878c05e41d44e7abd07928afdd40a0c</title>
<image xlink:href="icons/bigquery.png" width="101px" height="101px" preserveAspectRatio="xMinYMin meet" x="16" y="-160.5"/>
<text text-anchor="middle" x="66.5" y="-45.1" font-family="Sans-Serif" font-size="13.00" fill="#2d3436">amadeus.e_gsheet_activation_energie</text>
</g>
<!-- cea7c27516f3425cb51deee622e3b586 -->
<g id="node43" class="node">
<title>cea7c27516f3425cb51deee622e3b586</title>
<image xlink:href="icons/bigquery.png" width="101px" height="101px" preserveAspectRatio="xMinYMin meet" x="426" y="-160.5"/>
<text text-anchor="middle" x="476.5" y="-45.1" font-family="Sans-Serif" font-size="13.00" fill="#2d3436">comper.l_ama_to_ds_comper_activation_energie</text>
</g>
<!-- b878c05e41d44e7abd07928afdd40a0c&#45;&gt;cea7c27516f3425cb51deee622e3b586 -->
<g id="edge38" class="edge">
<title>b878c05e41d44e7abd07928afdd40a0c&#45;&gt;cea7c27516f3425cb51deee622e3b586</title>
<path fill="none" stroke="#7b8894" d="M117.19,-110C117.19,-110 415.93,-110 415.93,-110"/>
<polygon fill="#7b8894" stroke="#7b8894" points="415.93,-113.5 425.93,-110 415.93,-106.5 415.93,-113.5"/>
<text text-anchor="middle" x="271.5" y="-113.6" font-family="Sans-Serif" font-size="13.00" fill="darkgrey">l_to_ds_comper_activation_energie</text>
</g>
</g>
</svg>
