<?xml version="1.0" encoding="UTF-8" standalone="no"?>
<!DOCTYPE svg PUBLIC "-//W3C//DTD SVG 1.1//EN"
 "http://www.w3.org/Graphics/SVG/1.1/DTD/svg11.dtd">
<!-- Generated by graphviz version 2.47.1 (20210417.1919)
 -->
<!-- Title: amadeus Pages: 1 -->
<svg width="1932pt" height="2844pt"
 viewBox="0.00 0.00 1932.00 2844.00" xmlns="http://www.w3.org/2000/svg" xmlns:xlink="http://www.w3.org/1999/xlink">
<g id="graph0" class="graph" transform="scale(1 1) rotate(0) translate(144 2700)">
<title>amadeus</title>
<text text-anchor="middle" x="822" y="-9" font-family="Sans-Serif" font-size="15.00" fill="#2d3436">amadeus</text>
<g id="clust1" class="cluster">
<title>cluster_amadeus</title>
<path fill="#e5f5fd" stroke="#aeb6be" d="M20,-33C20,-33 1624,-33 1624,-33 1630,-33 1636,-39 1636,-45 1636,-45 1636,-2536 1636,-2536 1636,-2542 1630,-2548 1624,-2548 1624,-2548 20,-2548 20,-2548 14,-2548 8,-2542 8,-2536 8,-2536 8,-45 8,-45 8,-39 14,-33 20,-33"/>
<text text-anchor="middle" x="40" y="-2534.4" font-family="Sans-Serif" font-size="12.00" fill="#2d3436">amadeus</text>
</g>
<!-- 40ff7f6c04814c658f232582d37ed73f -->
<g id="node1" class="node">
<title>40ff7f6c04814c658f232582d37ed73f</title>
<image xlink:href="icons/storage.png" width="101px" height="101px" preserveAspectRatio="xMinYMin meet" x="16" y="-2500.5"/>
<text text-anchor="middle" x="66.5" y="-2385.1" font-family="Sans-Serif" font-size="13.00" fill="#2d3436">amadeus_bi.formulaires/GA_VENT_DIGT_</text>
</g>
<!-- 2789a88fc9f449e69ee4059c51c682ca -->
<g id="node2" class="node">
<title>2789a88fc9f449e69ee4059c51c682ca</title>
<image xlink:href="icons/bigquery.png" width="101px" height="101px" preserveAspectRatio="xMinYMin meet" x="426" y="-2500.5"/>
<text text-anchor="middle" x="476.5" y="-2385.1" font-family="Sans-Serif" font-size="13.00" fill="#2d3436">amadeus.e_ama_formulaires_stor</text>
</g>
<!-- 40ff7f6c04814c658f232582d37ed73f&#45;&gt;2789a88fc9f449e69ee4059c51c682ca -->
<g id="edge1" class="edge">
<title>40ff7f6c04814c658f232582d37ed73f&#45;&gt;2789a88fc9f449e69ee4059c51c682ca</title>
<path fill="none" stroke="#7b8894" d="M117.19,-2450C117.19,-2450 415.93,-2450 415.93,-2450"/>
<polygon fill="#7b8894" stroke="#7b8894" points="415.93,-2453.5 425.93,-2450 415.93,-2446.5 415.93,-2453.5"/>
<text text-anchor="middle" x="271.5" y="-2453.6" font-family="Sans-Serif" font-size="13.00" fill="darkgrey">e_formulaires</text>
</g>
<!-- d2b5dde340414f20a5fc0c65d8272038 -->
<g id="node5" class="node">
<title>d2b5dde340414f20a5fc0c65d8272038</title>
<image xlink:href="icons/bigquery.png" width="101px" height="101px" preserveAspectRatio="xMinYMin meet" x="798" y="-2320.5"/>
<text text-anchor="middle" x="848.5" y="-2205.1" font-family="Sans-Serif" font-size="13.00" fill="#2d3436">amadeus.t_ama_formulaires_campagnes</text>
</g>
<!-- 2789a88fc9f449e69ee4059c51c682ca&#45;&gt;d2b5dde340414f20a5fc0c65d8272038 -->
<g id="edge3" class="edge">
<title>2789a88fc9f449e69ee4059c51c682ca&#45;&gt;d2b5dde340414f20a5fc0c65d8272038</title>
<path fill="none" stroke="#7b8894" d="M494,-2381.33C494,-2369.01 494,-2360 494,-2360 494,-2360 849,-2360 849,-2360 849,-2360 849,-2348.67 849,-2348.67"/>
<polygon fill="#7b8894" stroke="#7b8894" points="852.5,-2348.67 849,-2338.67 845.5,-2348.67 852.5,-2348.67"/>
<text text-anchor="middle" x="662.5" y="-2394.6" font-family="Sans-Serif" font-size="13.00" fill="darkgrey">t_formulaires_campagnes</text>
</g>
<!-- fd9f4e35c7e24136a460f87f5dd472e7 -->
<g id="node11" class="node">
<title>fd9f4e35c7e24136a460f87f5dd472e7</title>
<image xlink:href="icons/bigquery.png" width="101px" height="101px" preserveAspectRatio="xMinYMin meet" x="798" y="-2500.5"/>
<text text-anchor="middle" x="848.5" y="-2385.1" font-family="Sans-Serif" font-size="13.00" fill="#2d3436">amadeus.t_ama_formulaires_verif_flux_ga</text>
</g>
<!-- 2789a88fc9f449e69ee4059c51c682ca&#45;&gt;fd9f4e35c7e24136a460f87f5dd472e7 -->
<g id="edge9" class="edge">
<title>2789a88fc9f449e69ee4059c51c682ca&#45;&gt;fd9f4e35c7e24136a460f87f5dd472e7</title>
<path fill="none" stroke="#7b8894" d="M527.06,-2450C527.06,-2450 787.76,-2450 787.76,-2450"/>
<polygon fill="#7b8894" stroke="#7b8894" points="787.76,-2453.5 797.76,-2450 787.76,-2446.5 787.76,-2453.5"/>
<text text-anchor="middle" x="662.5" y="-2456.6" font-family="Sans-Serif" font-size="13.00" fill="darkgrey">t_formulaires_verif_flux_ga</text>
</g>
<!-- 8010faa42d6949b990f6200d0a1583c1 -->
<g id="node3" class="node">
<title>8010faa42d6949b990f6200d0a1583c1</title>
<image xlink:href="icons/storage.png" width="101px" height="101px" preserveAspectRatio="xMinYMin meet" x="16" y="-1960.5"/>
<text text-anchor="middle" x="66.5" y="-1845.1" font-family="Sans-Serif" font-size="13.00" fill="#2d3436">amadeus_bi.appels/GA_SVI_</text>
</g>
<!-- 5277b5ca458444d295665d05108773ae -->
<g id="node4" class="node">
<title>5277b5ca458444d295665d05108773ae</title>
<image xlink:href="icons/bigquery.png" width="101px" height="101px" preserveAspectRatio="xMinYMin meet" x="426" y="-1960.5"/>
<text text-anchor="middle" x="476.5" y="-1845.1" font-family="Sans-Serif" font-size="13.00" fill="#2d3436">amadeus.e_ama_appels</text>
</g>
<!-- 8010faa42d6949b990f6200d0a1583c1&#45;&gt;5277b5ca458444d295665d05108773ae -->
<g id="edge2" class="edge">
<title>8010faa42d6949b990f6200d0a1583c1&#45;&gt;5277b5ca458444d295665d05108773ae</title>
<path fill="none" stroke="#7b8894" d="M117.19,-1910C117.19,-1910 415.93,-1910 415.93,-1910"/>
<polygon fill="#7b8894" stroke="#7b8894" points="415.93,-1913.5 425.93,-1910 415.93,-1906.5 415.93,-1913.5"/>
<text text-anchor="middle" x="271.5" y="-1913.6" font-family="Sans-Serif" font-size="13.00" fill="darkgrey">e_appels</text>
</g>
<!-- d43b312220f14856b78ae203da4efccc -->
<g id="node14" class="node">
<title>d43b312220f14856b78ae203da4efccc</title>
<image xlink:href="icons/bigquery.png" width="101px" height="101px" preserveAspectRatio="xMinYMin meet" x="798" y="-1675.5"/>
<text text-anchor="middle" x="848.5" y="-1560.1" font-family="Sans-Serif" font-size="13.00" fill="#2d3436">amadeus.t_ama_appels</text>
</g>
<!-- 5277b5ca458444d295665d05108773ae&#45;&gt;d43b312220f14856b78ae203da4efccc -->
<g id="edge14" class="edge">
<title>5277b5ca458444d295665d05108773ae&#45;&gt;d43b312220f14856b78ae203da4efccc</title>
<path fill="none" stroke="#7b8894" d="M527.46,-1910C582.68,-1910 663,-1910 663,-1910 663,-1910 663,-1682.83 663,-1682.83 663,-1682.83 787.81,-1682.83 787.81,-1682.83"/>
<polygon fill="#7b8894" stroke="#7b8894" points="787.81,-1686.33 797.81,-1682.83 787.81,-1679.33 787.81,-1686.33"/>
<text text-anchor="middle" x="662.5" y="-1853.6" font-family="Sans-Serif" font-size="13.00" fill="darkgrey">t_appels</text>
</g>
<!-- 22428b58922b4d699689f8ae0894ed01 -->
<g id="node24" class="node">
<title>22428b58922b4d699689f8ae0894ed01</title>
<image xlink:href="icons/bigquery.png" width="101px" height="101px" preserveAspectRatio="xMinYMin meet" x="798" y="-2140.5"/>
<text text-anchor="middle" x="848.5" y="-2025.1" font-family="Sans-Serif" font-size="13.00" fill="#2d3436">amadeus.t_ama_import_gads</text>
</g>
<!-- 5277b5ca458444d295665d05108773ae&#45;&gt;22428b58922b4d699689f8ae0894ed01 -->
<g id="edge25" class="edge">
<title>5277b5ca458444d295665d05108773ae&#45;&gt;22428b58922b4d699689f8ae0894ed01</title>
<path fill="none" stroke="#7b8894" d="M477,-1978.54C477,-1994.62 477,-2007.17 477,-2007.17 477,-2007.17 832,-2007.17 832,-2007.17 832,-2007.17 832,-2011.22 832,-2011.22"/>
<polygon fill="#7b8894" stroke="#7b8894" points="828.5,-2011.22 832,-2021.22 835.5,-2011.22 828.5,-2011.22"/>
<text text-anchor="middle" x="662.5" y="-1972.6" font-family="Sans-Serif" font-size="13.00" fill="darkgrey">t_import_gads</text>
</g>
<!-- 687ea8a96cd948d4865d422134652a35 -->
<g id="node8" class="node">
<title>687ea8a96cd948d4865d422134652a35</title>
<image xlink:href="icons/bigquery.png" width="101px" height="101px" preserveAspectRatio="xMinYMin meet" x="1208" y="-2320.5"/>
<text text-anchor="middle" x="1258.5" y="-2205.1" font-family="Sans-Serif" font-size="13.00" fill="#2d3436">amadeus.t_ama_contrats_formulaires</text>
</g>
<!-- d2b5dde340414f20a5fc0c65d8272038&#45;&gt;687ea8a96cd948d4865d422134652a35 -->
<g id="edge6" class="edge">
<title>d2b5dde340414f20a5fc0c65d8272038&#45;&gt;687ea8a96cd948d4865d422134652a35</title>
<path fill="none" stroke="#7b8894" d="M899.19,-2292.83C899.19,-2292.83 1197.93,-2292.83 1197.93,-2292.83"/>
<polygon fill="#7b8894" stroke="#7b8894" points="1197.93,-2296.33 1207.93,-2292.83 1197.93,-2289.33 1197.93,-2296.33"/>
<text text-anchor="middle" x="1043" y="-2273.6" font-family="Sans-Serif" font-size="13.00" fill="darkgrey">t_contrats_formulaires</text>
</g>
<!-- d76e13ada19b42d69e4749ceeb531f9a -->
<g id="node10" class="node">
<title>d76e13ada19b42d69e4749ceeb531f9a</title>
<image xlink:href="icons/bigquery.png" width="101px" height="101px" preserveAspectRatio="xMinYMin meet" x="1208" y="-2500.5"/>
<text text-anchor="middle" x="1258.5" y="-2385.1" font-family="Sans-Serif" font-size="13.00" fill="#2d3436">amadeus.t_ama_leads_formulaires</text>
</g>
<!-- d2b5dde340414f20a5fc0c65d8272038&#45;&gt;d76e13ada19b42d69e4749ceeb531f9a -->
<g id="edge8" class="edge">
<title>d2b5dde340414f20a5fc0c65d8272038&#45;&gt;d76e13ada19b42d69e4749ceeb531f9a</title>
<path fill="none" stroke="#7b8894" d="M874,-2338.56C874,-2345.04 874,-2349.25 874,-2349.25 874,-2349.25 1259,-2349.25 1259,-2349.25 1259,-2349.25 1259,-2371.4 1259,-2371.4"/>
<polygon fill="#7b8894" stroke="#7b8894" points="1255.5,-2371.4 1259,-2381.4 1262.5,-2371.4 1255.5,-2371.4"/>
<text text-anchor="middle" x="1043" y="-2394.6" font-family="Sans-Serif" font-size="13.00" fill="darkgrey">t_leads_formulaires</text>
</g>
<!-- 11210f0942834ff38652e64ffd4fbf06 -->
<g id="node6" class="node">
<title>11210f0942834ff38652e64ffd4fbf06</title>
<image xlink:href="icons/bigquery.png" width="101px" height="101px" preserveAspectRatio="xMinYMin meet" x="426" y="-2320.5"/>
<text text-anchor="middle" x="476.5" y="-2205.1" font-family="Sans-Serif" font-size="13.00" fill="#2d3436">ga.l_ga_to_ama_ga_formulaires_stor_*</text>
</g>
<!-- 11210f0942834ff38652e64ffd4fbf06&#45;&gt;d2b5dde340414f20a5fc0c65d8272038 -->
<g id="edge4" class="edge">
<title>11210f0942834ff38652e64ffd4fbf06&#45;&gt;d2b5dde340414f20a5fc0c65d8272038</title>
<path fill="none" stroke="#7b8894" d="M527.06,-2270C527.06,-2270 787.76,-2270 787.76,-2270"/>
<polygon fill="#7b8894" stroke="#7b8894" points="787.76,-2273.5 797.76,-2270 787.76,-2266.5 787.76,-2273.5"/>
<text text-anchor="middle" x="662.5" y="-2270.6" font-family="Sans-Serif" font-size="13.00" fill="darkgrey">t_formulaires_campagnes</text>
</g>
<!-- 11210f0942834ff38652e64ffd4fbf06&#45;&gt;fd9f4e35c7e24136a460f87f5dd472e7 -->
<g id="edge10" class="edge">
<title>11210f0942834ff38652e64ffd4fbf06&#45;&gt;fd9f4e35c7e24136a460f87f5dd472e7</title>
<path fill="none" stroke="#7b8894" d="M460,-2338.6C460,-2356.43 460,-2370.75 460,-2370.75 460,-2370.75 824,-2370.75 824,-2370.75 824,-2370.75 824,-2371.82 824,-2371.82"/>
<polygon fill="#7b8894" stroke="#7b8894" points="820.5,-2371.44 824,-2381.44 827.5,-2371.44 820.5,-2371.44"/>
<text text-anchor="middle" x="662.5" y="-2332.6" font-family="Sans-Serif" font-size="13.00" fill="darkgrey">t_formulaires_verif_flux_ga</text>
</g>
<!-- 1dcdfeca7f8d4672a5f8ce8574bf8aee -->
<g id="node7" class="node">
<title>1dcdfeca7f8d4672a5f8ce8574bf8aee</title>
<image xlink:href="icons/bigquery.png" width="101px" height="101px" preserveAspectRatio="xMinYMin meet" x="426" y="-2140.5"/>
<text text-anchor="middle" x="476.5" y="-2025.1" font-family="Sans-Serif" font-size="13.00" fill="#2d3436">ga.t_ga_correspondance_hash_campagnes</text>
</g>
<!-- 1dcdfeca7f8d4672a5f8ce8574bf8aee&#45;&gt;d2b5dde340414f20a5fc0c65d8272038 -->
<g id="edge5" class="edge">
<title>1dcdfeca7f8d4672a5f8ce8574bf8aee&#45;&gt;d2b5dde340414f20a5fc0c65d8272038</title>
<path fill="none" stroke="#7b8894" d="M477,-2158.67C477,-2170.99 477,-2180 477,-2180 477,-2180 849,-2180 849,-2180 849,-2180 849,-2191.33 849,-2191.33"/>
<polygon fill="#7b8894" stroke="#7b8894" points="845.5,-2191.33 849,-2201.33 852.5,-2191.33 845.5,-2191.33"/>
<text text-anchor="middle" x="662.5" y="-2152.6" font-family="Sans-Serif" font-size="13.00" fill="darkgrey">t_formulaires_campagnes</text>
</g>
<!-- 2059c60b4878498e9d6ab74142319d90 -->
<g id="node9" class="node">
<title>2059c60b4878498e9d6ab74142319d90</title>
<image xlink:href="icons/bigquery.png" width="101px" height="101px" preserveAspectRatio="xMinYMin meet" x="798" y="-1960.5"/>
<text text-anchor="middle" x="848.5" y="-1845.1" font-family="Sans-Serif" font-size="13.00" fill="#2d3436">comper.e_v_digi_import_cube_valeur</text>
</g>
<!-- 2059c60b4878498e9d6ab74142319d90&#45;&gt;687ea8a96cd948d4865d422134652a35 -->
<g id="edge7" class="edge">
<title>2059c60b4878498e9d6ab74142319d90&#45;&gt;687ea8a96cd948d4865d422134652a35</title>
<path fill="none" stroke="#7b8894" d="M899.03,-1932.83C959.88,-1932.83 1054,-1932.83 1054,-1932.83 1054,-1932.83 1054,-2247.17 1054,-2247.17 1054,-2247.17 1197.95,-2247.17 1197.95,-2247.17"/>
<polygon fill="#7b8894" stroke="#7b8894" points="1197.95,-2250.67 1207.95,-2247.17 1197.95,-2243.67 1197.95,-2250.67"/>
<text text-anchor="middle" x="1043" y="-2169.6" font-family="Sans-Serif" font-size="13.00" fill="darkgrey">t_contrats_formulaires</text>
</g>
<!-- 90244a79f4e14571a281c275f3170cff -->
<g id="node19" class="node">
<title>90244a79f4e14571a281c275f3170cff</title>
<image xlink:href="icons/bigquery.png" width="101px" height="101px" preserveAspectRatio="xMinYMin meet" x="1208" y="-2140.5"/>
<text text-anchor="middle" x="1258.5" y="-2025.1" font-family="Sans-Serif" font-size="13.00" fill="#2d3436">amadeus.t_ama_contrats_appels</text>
</g>
<!-- 2059c60b4878498e9d6ab74142319d90&#45;&gt;90244a79f4e14571a281c275f3170cff -->
<g id="edge19" class="edge">
<title>2059c60b4878498e9d6ab74142319d90&#45;&gt;90244a79f4e14571a281c275f3170cff</title>
<path fill="none" stroke="#7b8894" d="M866,-1978.78C866,-1987.16 866,-1992.83 866,-1992.83 866,-1992.83 1259,-1992.83 1259,-1992.83 1259,-1992.83 1259,-2011.46 1259,-2011.46"/>
<polygon fill="#7b8894" stroke="#7b8894" points="1255.5,-2011.46 1259,-2021.46 1262.5,-2011.46 1255.5,-2011.46"/>
<text text-anchor="middle" x="1043" y="-2065.6" font-family="Sans-Serif" font-size="13.00" fill="darkgrey">t_contrats_appels</text>
</g>
<!-- b504e1ccfbed4734b012708a1c74e70f -->
<g id="node12" class="node">
<title>b504e1ccfbed4734b012708a1c74e70f</title>
<image xlink:href="icons/bigquery.png" width="101px" height="101px" preserveAspectRatio="xMinYMin meet" x="426" y="-1420.5"/>
<text text-anchor="middle" x="476.5" y="-1305.1" font-family="Sans-Serif" font-size="13.00" fill="#2d3436">ga.t_ga_sessions</text>
</g>
<!-- 3ccd0c378ee74bf69bfdba692aa444a5 -->
<g id="node13" class="node">
<title>3ccd0c378ee74bf69bfdba692aa444a5</title>
<image xlink:href="icons/bigquery.png" width="101px" height="101px" preserveAspectRatio="xMinYMin meet" x="798" y="-1420.5"/>
<text text-anchor="middle" x="848.5" y="-1305.1" font-family="Sans-Serif" font-size="13.00" fill="#2d3436">amadeus.t_ama_appels_ga</text>
</g>
<!-- b504e1ccfbed4734b012708a1c74e70f&#45;&gt;3ccd0c378ee74bf69bfdba692aa444a5 -->
<g id="edge11" class="edge">
<title>b504e1ccfbed4734b012708a1c74e70f&#45;&gt;3ccd0c378ee74bf69bfdba692aa444a5</title>
<path fill="none" stroke="#7b8894" d="M527.06,-1370C527.06,-1370 787.76,-1370 787.76,-1370"/>
<polygon fill="#7b8894" stroke="#7b8894" points="787.76,-1373.5 797.76,-1370 787.76,-1366.5 787.76,-1373.5"/>
<text text-anchor="middle" x="662.5" y="-1373.6" font-family="Sans-Serif" font-size="13.00" fill="darkgrey">t_appels_ga</text>
</g>
<!-- 6acba65a7b244f65b689333e12961dba -->
<g id="node23" class="node">
<title>6acba65a7b244f65b689333e12961dba</title>
<image xlink:href="icons/bigquery.png" width="101px" height="101px" preserveAspectRatio="xMinYMin meet" x="798" y="-1240.5"/>
<text text-anchor="middle" x="848.5" y="-1125.1" font-family="Sans-Serif" font-size="13.00" fill="#2d3436">eloqua.t_elq_promo_applis_mobiles_tlgt_appli</text>
</g>
<!-- b504e1ccfbed4734b012708a1c74e70f&#45;&gt;6acba65a7b244f65b689333e12961dba -->
<g id="edge24" class="edge">
<title>b504e1ccfbed4734b012708a1c74e70f&#45;&gt;6acba65a7b244f65b689333e12961dba</title>
<path fill="none" stroke="#7b8894" d="M477,-1301.35C477,-1282.67 477,-1267.5 477,-1267.5 477,-1267.5 866,-1267.5 866,-1267.5 866,-1267.5 866,-1266.61 866,-1266.61"/>
<polygon fill="#7b8894" stroke="#7b8894" points="869.5,-1268.61 866,-1258.61 862.5,-1268.61 869.5,-1268.61"/>
<text text-anchor="middle" x="662.5" y="-1283.6" font-family="Sans-Serif" font-size="13.00" fill="darkgrey">t_elq_promo_applis_mobiles_tlgt_appli</text>
</g>
<!-- 8dbd8045400f45fb9fe00f4fa62283e5 -->
<g id="node15" class="node">
<title>8dbd8045400f45fb9fe00f4fa62283e5</title>
<image xlink:href="icons/bigquery.png" width="101px" height="101px" preserveAspectRatio="xMinYMin meet" x="1208" y="-959.5"/>
<text text-anchor="middle" x="1258.5" y="-844.1" font-family="Sans-Serif" font-size="13.00" fill="#2d3436">amadeus.t_ama_appels_leviers</text>
</g>
<!-- 3ccd0c378ee74bf69bfdba692aa444a5&#45;&gt;8dbd8045400f45fb9fe00f4fa62283e5 -->
<g id="edge13" class="edge">
<title>3ccd0c378ee74bf69bfdba692aa444a5&#45;&gt;8dbd8045400f45fb9fe00f4fa62283e5</title>
<path fill="none" stroke="#7b8894" d="M899,-1347.17C919.31,-1347.17 938,-1347.17 938,-1347.17 938,-1347.17 938,-953.5 938,-953.5 938,-953.5 1197.72,-953.5 1197.72,-953.5"/>
<polygon fill="#7b8894" stroke="#7b8894" points="1197.72,-957 1207.72,-953.5 1197.72,-950 1197.72,-957"/>
<text text-anchor="middle" x="1043" y="-979.6" font-family="Sans-Serif" font-size="13.00" fill="darkgrey">t_appels_leviers</text>
</g>
<!-- d58ecac5fc4e4d00ba862c383772b1af -->
<g id="node20" class="node">
<title>d58ecac5fc4e4d00ba862c383772b1af</title>
<image xlink:href="icons/bigquery.png" width="101px" height="101px" preserveAspectRatio="xMinYMin meet" x="1527" y="-1395.5"/>
<text text-anchor="middle" x="1577.5" y="-1280.1" font-family="Sans-Serif" font-size="13.00" fill="#2d3436">amadeus.t_ama_contrats_appels_leviers</text>
</g>
<!-- 3ccd0c378ee74bf69bfdba692aa444a5&#45;&gt;d58ecac5fc4e4d00ba862c383772b1af -->
<g id="edge21" class="edge">
<title>3ccd0c378ee74bf69bfdba692aa444a5&#45;&gt;d58ecac5fc4e4d00ba862c383772b1af</title>
<path fill="none" stroke="#7b8894" d="M832,-1301.3C832,-1293.91 832,-1289 832,-1289 832,-1289 1516.84,-1289 1516.84,-1289"/>
<polygon fill="#7b8894" stroke="#7b8894" points="1516.84,-1292.5 1526.84,-1289 1516.84,-1285.5 1516.84,-1292.5"/>
<text text-anchor="middle" x="1258.5" y="-1067.6" font-family="Sans-Serif" font-size="13.00" fill="darkgrey">t_contrats_appels_leviers</text>
</g>
<!-- d43b312220f14856b78ae203da4efccc&#45;&gt;8dbd8045400f45fb9fe00f4fa62283e5 -->
<g id="edge12" class="edge">
<title>d43b312220f14856b78ae203da4efccc&#45;&gt;8dbd8045400f45fb9fe00f4fa62283e5</title>
<path fill="none" stroke="#7b8894" d="M899.29,-1568.9C935.2,-1568.9 977,-1568.9 977,-1568.9 977,-1568.9 977,-965.5 977,-965.5 977,-965.5 1197.85,-965.5 1197.85,-965.5"/>
<polygon fill="#7b8894" stroke="#7b8894" points="1197.85,-969 1207.85,-965.5 1197.85,-962 1197.85,-969"/>
<text text-anchor="middle" x="1043" y="-1224.6" font-family="Sans-Serif" font-size="13.00" fill="darkgrey">t_appels_leviers</text>
</g>
<!-- d43b312220f14856b78ae203da4efccc&#45;&gt;90244a79f4e14571a281c275f3170cff -->
<g id="edge18" class="edge">
<title>d43b312220f14856b78ae203da4efccc&#45;&gt;90244a79f4e14571a281c275f3170cff</title>
<path fill="none" stroke="#7b8894" d="M899.16,-1685.5C970.78,-1685.5 1093,-1685.5 1093,-1685.5 1093,-1685.5 1093,-2090 1093,-2090 1093,-2090 1197.95,-2090 1197.95,-2090"/>
<polygon fill="#7b8894" stroke="#7b8894" points="1197.95,-2093.5 1207.95,-2090 1197.95,-2086.5 1197.95,-2093.5"/>
<text text-anchor="middle" x="1043" y="-1945.6" font-family="Sans-Serif" font-size="13.00" fill="darkgrey">t_contrats_appels</text>
</g>
<!-- 4338b1b71e2543cfbe083e63190c04af -->
<g id="node25" class="node">
<title>4338b1b71e2543cfbe083e63190c04af</title>
<image xlink:href="icons/bigquery.png" width="101px" height="101px" preserveAspectRatio="xMinYMin meet" x="1208" y="-1420.5"/>
<text text-anchor="middle" x="1258.5" y="-1305.1" font-family="Sans-Serif" font-size="13.00" fill="#2d3436">amadeus.t_ama_valeurs_plus40_datastudio_gads</text>
</g>
<!-- d43b312220f14856b78ae203da4efccc&#45;&gt;4338b1b71e2543cfbe083e63190c04af -->
<g id="edge26" class="edge">
<title>d43b312220f14856b78ae203da4efccc&#45;&gt;4338b1b71e2543cfbe083e63190c04af</title>
<path fill="none" stroke="#7b8894" d="M899.09,-1593.7C989.63,-1593.7 1170,-1593.7 1170,-1593.7 1170,-1593.7 1170,-1392.83 1170,-1392.83 1170,-1392.83 1197.79,-1392.83 1197.79,-1392.83"/>
<polygon fill="#7b8894" stroke="#7b8894" points="1197.79,-1396.33 1207.79,-1392.83 1197.79,-1389.33 1197.79,-1396.33"/>
<text text-anchor="middle" x="1043" y="-1447.6" font-family="Sans-Serif" font-size="13.00" fill="darkgrey">t_valeurs_plus40_datastudio_gads</text>
</g>
<!-- 47c19fa702744604b86a0bb508d1088e -->
<g id="node26" class="node">
<title>47c19fa702744604b86a0bb508d1088e</title>
<image xlink:href="icons/bigquery.png" width="101px" height="101px" preserveAspectRatio="xMinYMin meet" x="1208" y="-1600.5"/>
<text text-anchor="middle" x="1258.5" y="-1485.1" font-family="Sans-Serif" font-size="13.00" fill="#2d3436">amadeus.t_ama_valeurs_datastudio_gads</text>
</g>
<!-- d43b312220f14856b78ae203da4efccc&#45;&gt;47c19fa702744604b86a0bb508d1088e -->
<g id="edge27" class="edge">
<title>d43b312220f14856b78ae203da4efccc&#45;&gt;47c19fa702744604b86a0bb508d1088e</title>
<path fill="none" stroke="#7b8894" d="M899.19,-1606.1C899.19,-1606.1 1197.93,-1606.1 1197.93,-1606.1"/>
<polygon fill="#7b8894" stroke="#7b8894" points="1197.93,-1609.6 1207.93,-1606.1 1197.93,-1602.6 1197.93,-1609.6"/>
<text text-anchor="middle" x="1043" y="-1583.6" font-family="Sans-Serif" font-size="13.00" fill="darkgrey">t_valeurs_datastudio_gads</text>
</g>
<!-- abcd132c745141bdaadf5cf25e3cecd8 -->
<g id="node27" class="node">
<title>abcd132c745141bdaadf5cf25e3cecd8</title>
<image xlink:href="icons/bigquery.png" width="101px" height="101px" preserveAspectRatio="xMinYMin meet" x="1208" y="-1780.5"/>
<text text-anchor="middle" x="1258.5" y="-1665.1" font-family="Sans-Serif" font-size="13.00" fill="#2d3436">amadeus.t_ama_valeurs_sousindicateur_gads</text>
</g>
<!-- d43b312220f14856b78ae203da4efccc&#45;&gt;abcd132c745141bdaadf5cf25e3cecd8 -->
<g id="edge28" class="edge">
<title>d43b312220f14856b78ae203da4efccc&#45;&gt;abcd132c745141bdaadf5cf25e3cecd8</title>
<path fill="none" stroke="#7b8894" d="M899.19,-1669.5C899.19,-1669.5 1197.93,-1669.5 1197.93,-1669.5"/>
<polygon fill="#7b8894" stroke="#7b8894" points="1197.93,-1673 1207.93,-1669.5 1197.93,-1666 1197.93,-1673"/>
<text text-anchor="middle" x="1043" y="-1674.6" font-family="Sans-Serif" font-size="13.00" fill="darkgrey">t_valeurs_sousindicateur_gads</text>
</g>
<!-- 7b241903c3464cddb46a0bbe65847760 -->
<g id="node28" class="node">
<title>7b241903c3464cddb46a0bbe65847760</title>
<image xlink:href="icons/bigquery.png" width="101px" height="101px" preserveAspectRatio="xMinYMin meet" x="1208" y="-1960.5"/>
<text text-anchor="middle" x="1258.5" y="-1845.1" font-family="Sans-Serif" font-size="13.00" fill="#2d3436">amadeus.t_ama_anciennes_valeurs_gads</text>
</g>
<!-- d43b312220f14856b78ae203da4efccc&#45;&gt;7b241903c3464cddb46a0bbe65847760 -->
<g id="edge29" class="edge">
<title>d43b312220f14856b78ae203da4efccc&#45;&gt;7b241903c3464cddb46a0bbe65847760</title>
<path fill="none" stroke="#7b8894" d="M899.01,-1677.5C980.26,-1677.5 1131,-1677.5 1131,-1677.5 1131,-1677.5 1131,-1887.17 1131,-1887.17 1131,-1887.17 1197.74,-1887.17 1197.74,-1887.17"/>
<polygon fill="#7b8894" stroke="#7b8894" points="1197.74,-1890.67 1207.74,-1887.17 1197.74,-1883.67 1197.74,-1890.67"/>
<text text-anchor="middle" x="1043" y="-1825.6" font-family="Sans-Serif" font-size="13.00" fill="darkgrey">t_anciennes_valeurs_gads</text>
</g>
<!-- 38ed7f9165ae4a688a2671d06a809142 -->
<g id="node29" class="node">
<title>38ed7f9165ae4a688a2671d06a809142</title>
<image xlink:href="icons/bigquery.png" width="101px" height="101px" preserveAspectRatio="xMinYMin meet" x="1208" y="-1240.5"/>
<text text-anchor="middle" x="1258.5" y="-1125.1" font-family="Sans-Serif" font-size="13.00" fill="#2d3436">amadeus.t_ama_anciennes_valeurs_sousindicateur_gads</text>
</g>
<!-- d43b312220f14856b78ae203da4efccc&#45;&gt;38ed7f9165ae4a688a2671d06a809142 -->
<g id="edge30" class="edge">
<title>d43b312220f14856b78ae203da4efccc&#45;&gt;38ed7f9165ae4a688a2671d06a809142</title>
<path fill="none" stroke="#7b8894" d="M899.36,-1581.3C948.32,-1581.3 1015,-1581.3 1015,-1581.3 1015,-1581.3 1015,-1190 1015,-1190 1015,-1190 1197.75,-1190 1197.75,-1190"/>
<polygon fill="#7b8894" stroke="#7b8894" points="1197.75,-1193.5 1207.75,-1190 1197.75,-1186.5 1197.75,-1193.5"/>
<text text-anchor="middle" x="1043" y="-1352.6" font-family="Sans-Serif" font-size="13.00" fill="darkgrey">t_anciennes_valeurs_sousindicateur_gads</text>
</g>
<!-- 2e336ecff5984d099d886eda79920c70 -->
<g id="node18" class="node">
<title>2e336ecff5984d099d886eda79920c70</title>
<image xlink:href="icons/bigquery.png" width="101px" height="101px" preserveAspectRatio="xMinYMin meet" x="1527" y="-959.5"/>
<text text-anchor="middle" x="1577.5" y="-844.1" font-family="Sans-Serif" font-size="13.00" fill="#2d3436">amadeus.t_ama_leads_appels</text>
</g>
<!-- 8dbd8045400f45fb9fe00f4fa62283e5&#45;&gt;2e336ecff5984d099d886eda79920c70 -->
<g id="edge17" class="edge">
<title>8dbd8045400f45fb9fe00f4fa62283e5&#45;&gt;2e336ecff5984d099d886eda79920c70</title>
<path fill="none" stroke="#7b8894" d="M1309.05,-909C1309.05,-909 1516.93,-909 1516.93,-909"/>
<polygon fill="#7b8894" stroke="#7b8894" points="1516.93,-912.5 1526.93,-909 1516.93,-905.5 1516.93,-912.5"/>
<text text-anchor="middle" x="1428.5" y="-912.6" font-family="Sans-Serif" font-size="13.00" fill="darkgrey">t_leads_appels</text>
</g>
<!-- 7bc44ec519eb41e3862eb7f24720c511 -->
<g id="node16" class="node">
<title>7bc44ec519eb41e3862eb7f24720c511</title>
<image xlink:href="icons/bigquery.png" width="101px" height="101px" preserveAspectRatio="xMinYMin meet" x="426" y="-1600.5"/>
<text text-anchor="middle" x="476.5" y="-1485.1" font-family="Sans-Serif" font-size="13.00" fill="#2d3436">amadeus.e_ama_appels_2020</text>
</g>
<!-- 7bc44ec519eb41e3862eb7f24720c511&#45;&gt;d43b312220f14856b78ae203da4efccc -->
<g id="edge15" class="edge">
<title>7bc44ec519eb41e3862eb7f24720c511&#45;&gt;d43b312220f14856b78ae203da4efccc</title>
<path fill="none" stroke="#7b8894" d="M527.06,-1587.5C527.06,-1587.5 787.76,-1587.5 787.76,-1587.5"/>
<polygon fill="#7b8894" stroke="#7b8894" points="787.76,-1591 797.76,-1587.5 787.76,-1584 787.76,-1591"/>
<text text-anchor="middle" x="662.5" y="-1582.6" font-family="Sans-Serif" font-size="13.00" fill="darkgrey">t_appels</text>
</g>
<!-- 062fd2df0b264d7e90cfce0fb03e978c -->
<g id="node17" class="node">
<title>062fd2df0b264d7e90cfce0fb03e978c</title>
<image xlink:href="icons/bigquery.png" width="101px" height="101px" preserveAspectRatio="xMinYMin meet" x="426" y="-1780.5"/>
<text text-anchor="middle" x="476.5" y="-1665.1" font-family="Sans-Serif" font-size="13.00" fill="#2d3436">amadeus.e_ama_appels_2018_2019</text>
</g>
<!-- 062fd2df0b264d7e90cfce0fb03e978c&#45;&gt;d43b312220f14856b78ae203da4efccc -->
<g id="edge16" class="edge">
<title>062fd2df0b264d7e90cfce0fb03e978c&#45;&gt;d43b312220f14856b78ae203da4efccc</title>
<path fill="none" stroke="#7b8894" d="M527.06,-1672.17C527.06,-1672.17 787.76,-1672.17 787.76,-1672.17"/>
<polygon fill="#7b8894" stroke="#7b8894" points="787.76,-1675.67 797.76,-1672.17 787.76,-1668.67 787.76,-1675.67"/>
<text text-anchor="middle" x="662.5" y="-1674.6" font-family="Sans-Serif" font-size="13.00" fill="darkgrey">t_appels</text>
</g>
<!-- 90244a79f4e14571a281c275f3170cff&#45;&gt;d58ecac5fc4e4d00ba862c383772b1af -->
<g id="edge20" class="edge">
<title>90244a79f4e14571a281c275f3170cff&#45;&gt;d58ecac5fc4e4d00ba862c383772b1af</title>
<path fill="none" stroke="#7b8894" d="M1309.13,-2090C1399.22,-2090 1578,-2090 1578,-2090 1578,-2090 1578,-1423.75 1578,-1423.75"/>
<polygon fill="#7b8894" stroke="#7b8894" points="1581.5,-1423.75 1578,-1413.75 1574.5,-1423.75 1581.5,-1423.75"/>
<text text-anchor="middle" x="1428.5" y="-1604.6" font-family="Sans-Serif" font-size="13.00" fill="darkgrey">t_contrats_appels_leviers</text>
</g>
<!-- 102a64ae84e44b5197eb2eb4440d65a5 -->
<g id="node21" class="node">
<title>102a64ae84e44b5197eb2eb4440d65a5</title>
<image xlink:href="icons/storage.png" width="101px" height="101px" preserveAspectRatio="xMinYMin meet" x="16" y="-1240.5"/>
<text text-anchor="middle" x="66.5" y="-1125.1" font-family="Sans-Serif" font-size="13.00" fill="#2d3436">amadeus_bi.eloqua/AMA_GOOG_RETR_MARK_ELQC_315_*</text>
</g>
<!-- 06276c340e1242fe91d1a82b69441fbd -->
<g id="node22" class="node">
<title>06276c340e1242fe91d1a82b69441fbd</title>
<image xlink:href="icons/bigquery.png" width="101px" height="101px" preserveAspectRatio="xMinYMin meet" x="426" y="-1240.5"/>
<text text-anchor="middle" x="476.5" y="-1125.1" font-family="Sans-Serif" font-size="13.00" fill="#2d3436">eloqua.e_elq_promo_applis_mobiles_clics_emails</text>
</g>
<!-- 102a64ae84e44b5197eb2eb4440d65a5&#45;&gt;06276c340e1242fe91d1a82b69441fbd -->
<g id="edge22" class="edge">
<title>102a64ae84e44b5197eb2eb4440d65a5&#45;&gt;06276c340e1242fe91d1a82b69441fbd</title>
<path fill="none" stroke="#7b8894" d="M117.19,-1190C117.19,-1190 415.93,-1190 415.93,-1190"/>
<polygon fill="#7b8894" stroke="#7b8894" points="415.93,-1193.5 425.93,-1190 415.93,-1186.5 415.93,-1193.5"/>
<text text-anchor="middle" x="271.5" y="-1193.6" font-family="Sans-Serif" font-size="13.00" fill="darkgrey">e_elq_promo_applis_mobiles_clics_emails</text>
</g>
<!-- 06276c340e1242fe91d1a82b69441fbd&#45;&gt;6acba65a7b244f65b689333e12961dba -->
<g id="edge23" class="edge">
<title>06276c340e1242fe91d1a82b69441fbd&#45;&gt;6acba65a7b244f65b689333e12961dba</title>
<path fill="none" stroke="#7b8894" d="M527.06,-1190C527.06,-1190 787.76,-1190 787.76,-1190"/>
<polygon fill="#7b8894" stroke="#7b8894" points="787.76,-1193.5 797.76,-1190 787.76,-1186.5 787.76,-1193.5"/>
<text text-anchor="middle" x="662.5" y="-1193.6" font-family="Sans-Serif" font-size="13.00" fill="darkgrey">t_elq_promo_applis_mobiles_tlgt_appli</text>
</g>
<!-- a9a03e039cca453581eb698b550c4cb7 -->
<g id="node30" class="node">
<title>a9a03e039cca453581eb698b550c4cb7</title>
<image xlink:href="icons/bigquery.png" width="101px" height="101px" preserveAspectRatio="xMinYMin meet" x="16" y="-1060.5"/>
<text text-anchor="middle" x="66.5" y="-945.1" font-family="Sans-Serif" font-size="13.00" fill="#2d3436">comper.t_v_digi_cube_valeur</text>
</g>
<!-- 0897b9f6c4dc483ab93aaa593f7b9051 -->
<g id="node31" class="node">
<title>0897b9f6c4dc483ab93aaa593f7b9051</title>
<image xlink:href="icons/bigquery.png" width="101px" height="101px" preserveAspectRatio="xMinYMin meet" x="426" y="-1060.5"/>
<text text-anchor="middle" x="476.5" y="-945.1" font-family="Sans-Serif" font-size="13.00" fill="#2d3436">amadeus.t_ama_parrainage</text>
</g>
<!-- a9a03e039cca453581eb698b550c4cb7&#45;&gt;0897b9f6c4dc483ab93aaa593f7b9051 -->
<g id="edge31" class="edge">
<title>a9a03e039cca453581eb698b550c4cb7&#45;&gt;0897b9f6c4dc483ab93aaa593f7b9051</title>
<path fill="none" stroke="#7b8894" d="M117.19,-1010C117.19,-1010 415.93,-1010 415.93,-1010"/>
<polygon fill="#7b8894" stroke="#7b8894" points="415.93,-1013.5 425.93,-1010 415.93,-1006.5 415.93,-1013.5"/>
<text text-anchor="middle" x="271.5" y="-1013.6" font-family="Sans-Serif" font-size="13.00" fill="darkgrey">t_parrainage</text>
</g>
<!-- fbec56bb9f9c4917a1010ccf6763d41e -->
<g id="node32" class="node">
<title>fbec56bb9f9c4917a1010ccf6763d41e</title>
<image xlink:href="icons/bigquery.png" width="101px" height="101px" preserveAspectRatio="xMinYMin meet" x="798" y="-1060.5"/>
<text text-anchor="middle" x="848.5" y="-945.1" font-family="Sans-Serif" font-size="13.00" fill="#2d3436">comper.l_ama_to_ds_comper_t_ama_parrainage</text>
</g>
<!-- 0897b9f6c4dc483ab93aaa593f7b9051&#45;&gt;fbec56bb9f9c4917a1010ccf6763d41e -->
<g id="edge32" class="edge">
<title>0897b9f6c4dc483ab93aaa593f7b9051&#45;&gt;fbec56bb9f9c4917a1010ccf6763d41e</title>
<path fill="none" stroke="#7b8894" d="M527.06,-1010C527.06,-1010 787.76,-1010 787.76,-1010"/>
<polygon fill="#7b8894" stroke="#7b8894" points="787.76,-1013.5 797.76,-1010 787.76,-1006.5 787.76,-1013.5"/>
<text text-anchor="middle" x="662.5" y="-1013.6" font-family="Sans-Serif" font-size="13.00" fill="darkgrey">l_to_ds_comper_t_ama_parrainage</text>
</g>
<!-- c904819d92ba433f8ce7c1d3e4ad2394 -->
<g id="node33" class="node">
<title>c904819d92ba433f8ce7c1d3e4ad2394</title>
<image xlink:href="icons/bigquery.png" width="101px" height="101px" preserveAspectRatio="xMinYMin meet" x="16" y="-880.5"/>
<text text-anchor="middle" x="66.5" y="-765.1" font-family="Sans-Serif" font-size="13.00" fill="#2d3436">amadeus.e_gsheet_contrats_services</text>
</g>
<!-- fc11dde687bd43de8d7868a37314dfef -->
<g id="node34" class="node">
<title>fc11dde687bd43de8d7868a37314dfef</title>
<image xlink:href="icons/bigquery.png" width="101px" height="101px" preserveAspectRatio="xMinYMin meet" x="426" y="-880.5"/>
<text text-anchor="middle" x="476.5" y="-765.1" font-family="Sans-Serif" font-size="13.00" fill="#2d3436">comper.l_ama_to_ds_comper_contrats_services</text>
</g>
<!-- c904819d92ba433f8ce7c1d3e4ad2394&#45;&gt;fc11dde687bd43de8d7868a37314dfef -->
<g id="edge33" class="edge">
<title>c904819d92ba433f8ce7c1d3e4ad2394&#45;&gt;fc11dde687bd43de8d7868a37314dfef</title>
<path fill="none" stroke="#7b8894" d="M117.19,-830C117.19,-830 415.93,-830 415.93,-830"/>
<polygon fill="#7b8894" stroke="#7b8894" points="415.93,-833.5 425.93,-830 415.93,-826.5 415.93,-833.5"/>
<text text-anchor="middle" x="271.5" y="-833.6" font-family="Sans-Serif" font-size="13.00" fill="darkgrey">l_to_ds_comper_contrats_services</text>
</g>
<!-- c9fa038e51524fbaa08276bff90cb4e3 -->
<g id="node35" class="node">
<title>c9fa038e51524fbaa08276bff90cb4e3</title>
<image xlink:href="icons/bigquery.png" width="101px" height="101px" preserveAspectRatio="xMinYMin meet" x="16" y="-700.5"/>
<text text-anchor="middle" x="66.5" y="-585.1" font-family="Sans-Serif" font-size="13.00" fill="#2d3436">reporting_equipements.bout_en_bout_equipements</text>
</g>
<!-- ffd5d95bb513484789a34403223748a1 -->
<g id="node36" class="node">
<title>ffd5d95bb513484789a34403223748a1</title>
<image xlink:href="icons/bigquery.png" width="101px" height="101px" preserveAspectRatio="xMinYMin meet" x="426" y="-700.5"/>
<text text-anchor="middle" x="476.5" y="-585.1" font-family="Sans-Serif" font-size="13.00" fill="#2d3436">comper.l_ama_to_ds_comper_bout_en_bout_equipements</text>
</g>
<!-- c9fa038e51524fbaa08276bff90cb4e3&#45;&gt;ffd5d95bb513484789a34403223748a1 -->
<g id="edge34" class="edge">
<title>c9fa038e51524fbaa08276bff90cb4e3&#45;&gt;ffd5d95bb513484789a34403223748a1</title>
<path fill="none" stroke="#7b8894" d="M117.19,-650C117.19,-650 415.93,-650 415.93,-650"/>
<polygon fill="#7b8894" stroke="#7b8894" points="415.93,-653.5 425.93,-650 415.93,-646.5 415.93,-653.5"/>
<text text-anchor="middle" x="271.5" y="-653.6" font-family="Sans-Serif" font-size="13.00" fill="darkgrey">l_to_ds_comper_bout_en_bout_equipements</text>
</g>
<!-- 0e48fab968b245a3a16139ec652d4d1b -->
<g id="node37" class="node">
<title>0e48fab968b245a3a16139ec652d4d1b</title>
<image xlink:href="icons/bigquery.png" width="101px" height="101px" preserveAspectRatio="xMinYMin meet" x="16" y="-520.5"/>
<text text-anchor="middle" x="66.5" y="-405.1" font-family="Sans-Serif" font-size="13.00" fill="#2d3436">amadeus.e_ama_options_vertes</text>
</g>
<!-- 8da53cff241049f9a657c4dcba807b26 -->
<g id="node38" class="node">
<title>8da53cff241049f9a657c4dcba807b26</title>
<image xlink:href="icons/bigquery.png" width="101px" height="101px" preserveAspectRatio="xMinYMin meet" x="426" y="-520.5"/>
<text text-anchor="middle" x="476.5" y="-405.1" font-family="Sans-Serif" font-size="13.00" fill="#2d3436">comper.t_ama_options_vertes</text>
</g>
<!-- 0e48fab968b245a3a16139ec652d4d1b&#45;&gt;8da53cff241049f9a657c4dcba807b26 -->
<g id="edge35" class="edge">
<title>0e48fab968b245a3a16139ec652d4d1b&#45;&gt;8da53cff241049f9a657c4dcba807b26</title>
<path fill="none" stroke="#7b8894" d="M117.19,-470C117.19,-470 415.93,-470 415.93,-470"/>
<polygon fill="#7b8894" stroke="#7b8894" points="415.93,-473.5 425.93,-470 415.93,-466.5 415.93,-473.5"/>
<text text-anchor="middle" x="271.5" y="-473.6" font-family="Sans-Serif" font-size="13.00" fill="darkgrey">t_options_vertes</text>
</g>
<!-- 769328d4793641d1afa34e00b41c59b1 -->
<g id="node39" class="node">
<title>769328d4793641d1afa34e00b41c59b1</title>
<image xlink:href="icons/bigquery.png" width="101px" height="101px" preserveAspectRatio="xMinYMin meet" x="798" y="-520.5"/>
<text text-anchor="middle" x="848.5" y="-405.1" font-family="Sans-Serif" font-size="13.00" fill="#2d3436">comper.l_ama_to_ds_comper_options_vertes</text>
</g>
<!-- 8da53cff241049f9a657c4dcba807b26&#45;&gt;769328d4793641d1afa34e00b41c59b1 -->
<g id="edge36" class="edge">
<title>8da53cff241049f9a657c4dcba807b26&#45;&gt;769328d4793641d1afa34e00b41c59b1</title>
<path fill="none" stroke="#7b8894" d="M527.06,-470C527.06,-470 787.76,-470 787.76,-470"/>
<polygon fill="#7b8894" stroke="#7b8894" points="787.76,-473.5 797.76,-470 787.76,-466.5 787.76,-473.5"/>
<text text-anchor="middle" x="662.5" y="-473.6" font-family="Sans-Serif" font-size="13.00" fill="darkgrey">l_to_ds_comper_options_vertes</text>
</g>
<!-- dc5fd68127c14441aa9efa8fb23f7fba -->
<g id="node40" class="node">
<title>dc5fd68127c14441aa9efa8fb23f7fba</title>
<image xlink:href="icons/bigquery.png" width="101px" height="101px" preserveAspectRatio="xMinYMin meet" x="16" y="-340.5"/>
<text text-anchor="middle" x="66.5" y="-225.1" font-family="Sans-Serif" font-size="13.00" fill="#2d3436">amadeus.e_ama_prelevement_mensualisation</text>
</g>
<!-- e2bbe68dd34b470f9230ca6721022f95 -->
<g id="node41" class="node">
<title>e2bbe68dd34b470f9230ca6721022f95</title>
<image xlink:href="icons/bigquery.png" width="101px" height="101px" preserveAspectRatio="xMinYMin meet" x="426" y="-340.5"/>
<text text-anchor="middle" x="476.5" y="-225.1" font-family="Sans-Serif" font-size="13.00" fill="#2d3436">comper.l_ama_to_ds_comper_prelevement_mensualisation</text>
</g>
<!-- dc5fd68127c14441aa9efa8fb23f7fba&#45;&gt;e2bbe68dd34b470f9230ca6721022f95 -->
<g id="edge37" class="edge">
<title>dc5fd68127c14441aa9efa8fb23f7fba&#45;&gt;e2bbe68dd34b470f9230ca6721022f95</title>
<path fill="none" stroke="#7b8894" d="M117.19,-290C117.19,-290 415.93,-290 415.93,-290"/>
<polygon fill="#7b8894" stroke="#7b8894" points="415.93,-293.5 425.93,-290 415.93,-286.5 415.93,-293.5"/>
<text text-anchor="middle" x="271.5" y="-293.6" font-family="Sans-Serif" font-size="13.00" fill="darkgrey">l_to_ds_comper_prelevement_mensualisation</text>
</g>
<!-- 873446c11c76487d9f0f53fb66558c97 -->
<g id="node42" class="node">
<title>873446c11c76487d9f0f53fb66558c97</title>
<image xlink:href="icons/bigquery.png" width="101px" height="101px" preserveAspectRatio="xMinYMin meet" x="16" y="-160.5"/>
<text text-anchor="middle" x="66.5" y="-45.1" font-family="Sans-Serif" font-size="13.00" fill="#2d3436">amadeus.e_gsheet_activation_energie</text>
</g>
<!-- 4d9fb3dc48ce4a90b2c7d48f9828d461 -->
<g id="node43" class="node">
<title>4d9fb3dc48ce4a90b2c7d48f9828d461</title>
<image xlink:href="icons/bigquery.png" width="101px" height="101px" preserveAspectRatio="xMinYMin meet" x="426" y="-160.5"/>
<text text-anchor="middle" x="476.5" y="-45.1" font-family="Sans-Serif" font-size="13.00" fill="#2d3436">comper.l_ama_to_ds_comper_activation_energie</text>
</g>
<!-- 873446c11c76487d9f0f53fb66558c97&#45;&gt;4d9fb3dc48ce4a90b2c7d48f9828d461 -->
<g id="edge38" class="edge">
<title>873446c11c76487d9f0f53fb66558c97&#45;&gt;4d9fb3dc48ce4a90b2c7d48f9828d461</title>
<path fill="none" stroke="#7b8894" d="M117.19,-110C117.19,-110 415.93,-110 415.93,-110"/>
<polygon fill="#7b8894" stroke="#7b8894" points="415.93,-113.5 425.93,-110 415.93,-106.5 415.93,-113.5"/>
<text text-anchor="middle" x="271.5" y="-113.6" font-family="Sans-Serif" font-size="13.00" fill="darkgrey">l_to_ds_comper_activation_energie</text>
</g>
</g>
</svg>
