<?xml version="1.0" encoding="UTF-8" standalone="no"?>
<!DOCTYPE svg PUBLIC "-//W3C//DTD SVG 1.1//EN"
 "http://www.w3.org/Graphics/SVG/1.1/DTD/svg11.dtd">
<!-- Generated by graphviz version 2.47.1 (20210417.1919)
 -->
<!-- Title: amadeus Pages: 1 -->
<svg width="1932pt" height="2844pt"
 viewBox="0.00 0.00 1932.00 2844.00" xmlns="http://www.w3.org/2000/svg" xmlns:xlink="http://www.w3.org/1999/xlink">
<g id="graph0" class="graph" transform="scale(1 1) rotate(0) translate(144 2700)">
<title>amadeus</title>
<text text-anchor="middle" x="822" y="-9" font-family="Sans-Serif" font-size="15.00" fill="#2d3436">amadeus</text>
<g id="clust1" class="cluster">
<title>cluster_amadeus</title>
<path fill="#e5f5fd" stroke="#aeb6be" d="M20,-33C20,-33 1624,-33 1624,-33 1630,-33 1636,-39 1636,-45 1636,-45 1636,-2536 1636,-2536 1636,-2542 1630,-2548 1624,-2548 1624,-2548 20,-2548 20,-2548 14,-2548 8,-2542 8,-2536 8,-2536 8,-45 8,-45 8,-39 14,-33 20,-33"/>
<text text-anchor="middle" x="40" y="-2534.4" font-family="Sans-Serif" font-size="12.00" fill="#2d3436">amadeus</text>
</g>
<!-- 9523f7fd31ee4cf3bd136d5cc90edde4 -->
<g id="node1" class="node">
<title>9523f7fd31ee4cf3bd136d5cc90edde4</title>
<image xlink:href="icons/storage.png" width="101px" height="101px" preserveAspectRatio="xMinYMin meet" x="16" y="-2500.5"/>
<text text-anchor="middle" x="66.5" y="-2385.1" font-family="Sans-Serif" font-size="13.00" fill="#2d3436">amadeus_bi.formulaires/GA_VENT_DIGT_</text>
</g>
<!-- ae223291514d46189655116ffb4b0f29 -->
<g id="node2" class="node">
<title>ae223291514d46189655116ffb4b0f29</title>
<image xlink:href="icons/bigquery.png" width="101px" height="101px" preserveAspectRatio="xMinYMin meet" x="426" y="-2500.5"/>
<text text-anchor="middle" x="476.5" y="-2385.1" font-family="Sans-Serif" font-size="13.00" fill="#2d3436">amadeus.e_ama_formulaires_stor</text>
</g>
<!-- 9523f7fd31ee4cf3bd136d5cc90edde4&#45;&gt;ae223291514d46189655116ffb4b0f29 -->
<g id="edge1" class="edge">
<title>9523f7fd31ee4cf3bd136d5cc90edde4&#45;&gt;ae223291514d46189655116ffb4b0f29</title>
<path fill="none" stroke="#7b8894" d="M117.19,-2450C117.19,-2450 415.93,-2450 415.93,-2450"/>
<polygon fill="#7b8894" stroke="#7b8894" points="415.93,-2453.5 425.93,-2450 415.93,-2446.5 415.93,-2453.5"/>
<text text-anchor="middle" x="271.5" y="-2453.6" font-family="Sans-Serif" font-size="13.00" fill="darkgrey">e_formulaires</text>
</g>
<!-- 601eccdb1312413a901208c85f4529b3 -->
<g id="node5" class="node">
<title>601eccdb1312413a901208c85f4529b3</title>
<image xlink:href="icons/bigquery.png" width="101px" height="101px" preserveAspectRatio="xMinYMin meet" x="798" y="-2320.5"/>
<text text-anchor="middle" x="848.5" y="-2205.1" font-family="Sans-Serif" font-size="13.00" fill="#2d3436">amadeus.t_ama_formulaires_campagnes</text>
</g>
<!-- ae223291514d46189655116ffb4b0f29&#45;&gt;601eccdb1312413a901208c85f4529b3 -->
<g id="edge3" class="edge">
<title>ae223291514d46189655116ffb4b0f29&#45;&gt;601eccdb1312413a901208c85f4529b3</title>
<path fill="none" stroke="#7b8894" d="M494,-2381.33C494,-2369.01 494,-2360 494,-2360 494,-2360 849,-2360 849,-2360 849,-2360 849,-2348.67 849,-2348.67"/>
<polygon fill="#7b8894" stroke="#7b8894" points="852.5,-2348.67 849,-2338.67 845.5,-2348.67 852.5,-2348.67"/>
<text text-anchor="middle" x="662.5" y="-2394.6" font-family="Sans-Serif" font-size="13.00" fill="darkgrey">t_formulaires_campagnes</text>
</g>
<!-- 454eefc7de414af98be199b3519d8eb0 -->
<g id="node11" class="node">
<title>454eefc7de414af98be199b3519d8eb0</title>
<image xlink:href="icons/bigquery.png" width="101px" height="101px" preserveAspectRatio="xMinYMin meet" x="798" y="-2500.5"/>
<text text-anchor="middle" x="848.5" y="-2385.1" font-family="Sans-Serif" font-size="13.00" fill="#2d3436">amadeus.t_ama_formulaires_verif_flux_ga</text>
</g>
<!-- ae223291514d46189655116ffb4b0f29&#45;&gt;454eefc7de414af98be199b3519d8eb0 -->
<g id="edge9" class="edge">
<title>ae223291514d46189655116ffb4b0f29&#45;&gt;454eefc7de414af98be199b3519d8eb0</title>
<path fill="none" stroke="#7b8894" d="M527.06,-2450C527.06,-2450 787.76,-2450 787.76,-2450"/>
<polygon fill="#7b8894" stroke="#7b8894" points="787.76,-2453.5 797.76,-2450 787.76,-2446.5 787.76,-2453.5"/>
<text text-anchor="middle" x="662.5" y="-2456.6" font-family="Sans-Serif" font-size="13.00" fill="darkgrey">t_formulaires_verif_flux_ga</text>
</g>
<!-- fe736e70793840d2bb23b6a8bc5274b5 -->
<g id="node3" class="node">
<title>fe736e70793840d2bb23b6a8bc5274b5</title>
<image xlink:href="icons/storage.png" width="101px" height="101px" preserveAspectRatio="xMinYMin meet" x="16" y="-1960.5"/>
<text text-anchor="middle" x="66.5" y="-1845.1" font-family="Sans-Serif" font-size="13.00" fill="#2d3436">amadeus_bi.appels/GA_SVI_</text>
</g>
<!-- fe09f090aa14412db3b74d6bc8a8d82c -->
<g id="node4" class="node">
<title>fe09f090aa14412db3b74d6bc8a8d82c</title>
<image xlink:href="icons/bigquery.png" width="101px" height="101px" preserveAspectRatio="xMinYMin meet" x="426" y="-1960.5"/>
<text text-anchor="middle" x="476.5" y="-1845.1" font-family="Sans-Serif" font-size="13.00" fill="#2d3436">amadeus.e_ama_appels</text>
</g>
<!-- fe736e70793840d2bb23b6a8bc5274b5&#45;&gt;fe09f090aa14412db3b74d6bc8a8d82c -->
<g id="edge2" class="edge">
<title>fe736e70793840d2bb23b6a8bc5274b5&#45;&gt;fe09f090aa14412db3b74d6bc8a8d82c</title>
<path fill="none" stroke="#7b8894" d="M117.19,-1910C117.19,-1910 415.93,-1910 415.93,-1910"/>
<polygon fill="#7b8894" stroke="#7b8894" points="415.93,-1913.5 425.93,-1910 415.93,-1906.5 415.93,-1913.5"/>
<text text-anchor="middle" x="271.5" y="-1913.6" font-family="Sans-Serif" font-size="13.00" fill="darkgrey">e_appels</text>
</g>
<!-- caf344340478436d8a87d5e3cb22e810 -->
<g id="node14" class="node">
<title>caf344340478436d8a87d5e3cb22e810</title>
<image xlink:href="icons/bigquery.png" width="101px" height="101px" preserveAspectRatio="xMinYMin meet" x="798" y="-1675.5"/>
<text text-anchor="middle" x="848.5" y="-1560.1" font-family="Sans-Serif" font-size="13.00" fill="#2d3436">amadeus.t_ama_appels</text>
</g>
<!-- fe09f090aa14412db3b74d6bc8a8d82c&#45;&gt;caf344340478436d8a87d5e3cb22e810 -->
<g id="edge14" class="edge">
<title>fe09f090aa14412db3b74d6bc8a8d82c&#45;&gt;caf344340478436d8a87d5e3cb22e810</title>
<path fill="none" stroke="#7b8894" d="M527.46,-1910C582.68,-1910 663,-1910 663,-1910 663,-1910 663,-1682.83 663,-1682.83 663,-1682.83 787.81,-1682.83 787.81,-1682.83"/>
<polygon fill="#7b8894" stroke="#7b8894" points="787.81,-1686.33 797.81,-1682.83 787.81,-1679.33 787.81,-1686.33"/>
<text text-anchor="middle" x="662.5" y="-1853.6" font-family="Sans-Serif" font-size="13.00" fill="darkgrey">t_appels</text>
</g>
<!-- 1592b9947cbd40d980ccd59a5253848d -->
<g id="node24" class="node">
<title>1592b9947cbd40d980ccd59a5253848d</title>
<image xlink:href="icons/bigquery.png" width="101px" height="101px" preserveAspectRatio="xMinYMin meet" x="798" y="-2140.5"/>
<text text-anchor="middle" x="848.5" y="-2025.1" font-family="Sans-Serif" font-size="13.00" fill="#2d3436">amadeus.t_ama_import_gads</text>
</g>
<!-- fe09f090aa14412db3b74d6bc8a8d82c&#45;&gt;1592b9947cbd40d980ccd59a5253848d -->
<g id="edge25" class="edge">
<title>fe09f090aa14412db3b74d6bc8a8d82c&#45;&gt;1592b9947cbd40d980ccd59a5253848d</title>
<path fill="none" stroke="#7b8894" d="M477,-1978.54C477,-1994.62 477,-2007.17 477,-2007.17 477,-2007.17 832,-2007.17 832,-2007.17 832,-2007.17 832,-2011.22 832,-2011.22"/>
<polygon fill="#7b8894" stroke="#7b8894" points="828.5,-2011.22 832,-2021.22 835.5,-2011.22 828.5,-2011.22"/>
<text text-anchor="middle" x="662.5" y="-1972.6" font-family="Sans-Serif" font-size="13.00" fill="darkgrey">t_import_gads</text>
</g>
<!-- 0eb05d16bd334b349df5f335b5c308a6 -->
<g id="node8" class="node">
<title>0eb05d16bd334b349df5f335b5c308a6</title>
<image xlink:href="icons/bigquery.png" width="101px" height="101px" preserveAspectRatio="xMinYMin meet" x="1208" y="-2320.5"/>
<text text-anchor="middle" x="1258.5" y="-2205.1" font-family="Sans-Serif" font-size="13.00" fill="#2d3436">amadeus.t_ama_contrats_formulaires</text>
</g>
<!-- 601eccdb1312413a901208c85f4529b3&#45;&gt;0eb05d16bd334b349df5f335b5c308a6 -->
<g id="edge6" class="edge">
<title>601eccdb1312413a901208c85f4529b3&#45;&gt;0eb05d16bd334b349df5f335b5c308a6</title>
<path fill="none" stroke="#7b8894" d="M899.19,-2292.83C899.19,-2292.83 1197.93,-2292.83 1197.93,-2292.83"/>
<polygon fill="#7b8894" stroke="#7b8894" points="1197.93,-2296.33 1207.93,-2292.83 1197.93,-2289.33 1197.93,-2296.33"/>
<text text-anchor="middle" x="1043" y="-2273.6" font-family="Sans-Serif" font-size="13.00" fill="darkgrey">t_contrats_formulaires</text>
</g>
<!-- aeb3b88389c54f938be06052a3b7324d -->
<g id="node10" class="node">
<title>aeb3b88389c54f938be06052a3b7324d</title>
<image xlink:href="icons/bigquery.png" width="101px" height="101px" preserveAspectRatio="xMinYMin meet" x="1208" y="-2500.5"/>
<text text-anchor="middle" x="1258.5" y="-2385.1" font-family="Sans-Serif" font-size="13.00" fill="#2d3436">amadeus.t_ama_leads_formulaires</text>
</g>
<!-- 601eccdb1312413a901208c85f4529b3&#45;&gt;aeb3b88389c54f938be06052a3b7324d -->
<g id="edge8" class="edge">
<title>601eccdb1312413a901208c85f4529b3&#45;&gt;aeb3b88389c54f938be06052a3b7324d</title>
<path fill="none" stroke="#7b8894" d="M874,-2338.56C874,-2345.04 874,-2349.25 874,-2349.25 874,-2349.25 1259,-2349.25 1259,-2349.25 1259,-2349.25 1259,-2371.4 1259,-2371.4"/>
<polygon fill="#7b8894" stroke="#7b8894" points="1255.5,-2371.4 1259,-2381.4 1262.5,-2371.4 1255.5,-2371.4"/>
<text text-anchor="middle" x="1043" y="-2394.6" font-family="Sans-Serif" font-size="13.00" fill="darkgrey">t_leads_formulaires</text>
</g>
<!-- 2e89d841dcaf49a098230ad701eba0e7 -->
<g id="node6" class="node">
<title>2e89d841dcaf49a098230ad701eba0e7</title>
<image xlink:href="icons/bigquery.png" width="101px" height="101px" preserveAspectRatio="xMinYMin meet" x="426" y="-2320.5"/>
<text text-anchor="middle" x="476.5" y="-2205.1" font-family="Sans-Serif" font-size="13.00" fill="#2d3436">ga.l_ga_to_ama_ga_formulaires_stor_*</text>
</g>
<!-- 2e89d841dcaf49a098230ad701eba0e7&#45;&gt;601eccdb1312413a901208c85f4529b3 -->
<g id="edge4" class="edge">
<title>2e89d841dcaf49a098230ad701eba0e7&#45;&gt;601eccdb1312413a901208c85f4529b3</title>
<path fill="none" stroke="#7b8894" d="M527.06,-2270C527.06,-2270 787.76,-2270 787.76,-2270"/>
<polygon fill="#7b8894" stroke="#7b8894" points="787.76,-2273.5 797.76,-2270 787.76,-2266.5 787.76,-2273.5"/>
<text text-anchor="middle" x="662.5" y="-2270.6" font-family="Sans-Serif" font-size="13.00" fill="darkgrey">t_formulaires_campagnes</text>
</g>
<!-- 2e89d841dcaf49a098230ad701eba0e7&#45;&gt;454eefc7de414af98be199b3519d8eb0 -->
<g id="edge10" class="edge">
<title>2e89d841dcaf49a098230ad701eba0e7&#45;&gt;454eefc7de414af98be199b3519d8eb0</title>
<path fill="none" stroke="#7b8894" d="M460,-2338.6C460,-2356.43 460,-2370.75 460,-2370.75 460,-2370.75 824,-2370.75 824,-2370.75 824,-2370.75 824,-2371.82 824,-2371.82"/>
<polygon fill="#7b8894" stroke="#7b8894" points="820.5,-2371.44 824,-2381.44 827.5,-2371.44 820.5,-2371.44"/>
<text text-anchor="middle" x="662.5" y="-2332.6" font-family="Sans-Serif" font-size="13.00" fill="darkgrey">t_formulaires_verif_flux_ga</text>
</g>
<!-- 0dc0335e3e534c659688782421c978b5 -->
<g id="node7" class="node">
<title>0dc0335e3e534c659688782421c978b5</title>
<image xlink:href="icons/bigquery.png" width="101px" height="101px" preserveAspectRatio="xMinYMin meet" x="426" y="-2140.5"/>
<text text-anchor="middle" x="476.5" y="-2025.1" font-family="Sans-Serif" font-size="13.00" fill="#2d3436">ga.t_ga_correspondance_hash_campagnes</text>
</g>
<!-- 0dc0335e3e534c659688782421c978b5&#45;&gt;601eccdb1312413a901208c85f4529b3 -->
<g id="edge5" class="edge">
<title>0dc0335e3e534c659688782421c978b5&#45;&gt;601eccdb1312413a901208c85f4529b3</title>
<path fill="none" stroke="#7b8894" d="M477,-2158.67C477,-2170.99 477,-2180 477,-2180 477,-2180 849,-2180 849,-2180 849,-2180 849,-2191.33 849,-2191.33"/>
<polygon fill="#7b8894" stroke="#7b8894" points="845.5,-2191.33 849,-2201.33 852.5,-2191.33 845.5,-2191.33"/>
<text text-anchor="middle" x="662.5" y="-2152.6" font-family="Sans-Serif" font-size="13.00" fill="darkgrey">t_formulaires_campagnes</text>
</g>
<!-- 185c87c63fd442d5b104cde5b03decff -->
<g id="node9" class="node">
<title>185c87c63fd442d5b104cde5b03decff</title>
<image xlink:href="icons/bigquery.png" width="101px" height="101px" preserveAspectRatio="xMinYMin meet" x="798" y="-1960.5"/>
<text text-anchor="middle" x="848.5" y="-1845.1" font-family="Sans-Serif" font-size="13.00" fill="#2d3436">comper.e_v_digi_import_cube_valeur</text>
</g>
<!-- 185c87c63fd442d5b104cde5b03decff&#45;&gt;0eb05d16bd334b349df5f335b5c308a6 -->
<g id="edge7" class="edge">
<title>185c87c63fd442d5b104cde5b03decff&#45;&gt;0eb05d16bd334b349df5f335b5c308a6</title>
<path fill="none" stroke="#7b8894" d="M899.03,-1932.83C959.88,-1932.83 1054,-1932.83 1054,-1932.83 1054,-1932.83 1054,-2247.17 1054,-2247.17 1054,-2247.17 1197.95,-2247.17 1197.95,-2247.17"/>
<polygon fill="#7b8894" stroke="#7b8894" points="1197.95,-2250.67 1207.95,-2247.17 1197.95,-2243.67 1197.95,-2250.67"/>
<text text-anchor="middle" x="1043" y="-2169.6" font-family="Sans-Serif" font-size="13.00" fill="darkgrey">t_contrats_formulaires</text>
</g>
<!-- ac2abd9f4180495ab825c85d9ba51476 -->
<g id="node19" class="node">
<title>ac2abd9f4180495ab825c85d9ba51476</title>
<image xlink:href="icons/bigquery.png" width="101px" height="101px" preserveAspectRatio="xMinYMin meet" x="1208" y="-2140.5"/>
<text text-anchor="middle" x="1258.5" y="-2025.1" font-family="Sans-Serif" font-size="13.00" fill="#2d3436">amadeus.t_ama_contrats_appels</text>
</g>
<!-- 185c87c63fd442d5b104cde5b03decff&#45;&gt;ac2abd9f4180495ab825c85d9ba51476 -->
<g id="edge19" class="edge">
<title>185c87c63fd442d5b104cde5b03decff&#45;&gt;ac2abd9f4180495ab825c85d9ba51476</title>
<path fill="none" stroke="#7b8894" d="M866,-1978.78C866,-1987.16 866,-1992.83 866,-1992.83 866,-1992.83 1259,-1992.83 1259,-1992.83 1259,-1992.83 1259,-2011.46 1259,-2011.46"/>
<polygon fill="#7b8894" stroke="#7b8894" points="1255.5,-2011.46 1259,-2021.46 1262.5,-2011.46 1255.5,-2011.46"/>
<text text-anchor="middle" x="1043" y="-2065.6" font-family="Sans-Serif" font-size="13.00" fill="darkgrey">t_contrats_appels</text>
</g>
<!-- ce2fbbe6365a4a8f8ed84a0632268a0b -->
<g id="node12" class="node">
<title>ce2fbbe6365a4a8f8ed84a0632268a0b</title>
<image xlink:href="icons/bigquery.png" width="101px" height="101px" preserveAspectRatio="xMinYMin meet" x="426" y="-1420.5"/>
<text text-anchor="middle" x="476.5" y="-1305.1" font-family="Sans-Serif" font-size="13.00" fill="#2d3436">ga.t_ga_sessions</text>
</g>
<!-- d29779af606141d5be2e76a5065555f1 -->
<g id="node13" class="node">
<title>d29779af606141d5be2e76a5065555f1</title>
<image xlink:href="icons/bigquery.png" width="101px" height="101px" preserveAspectRatio="xMinYMin meet" x="798" y="-1420.5"/>
<text text-anchor="middle" x="848.5" y="-1305.1" font-family="Sans-Serif" font-size="13.00" fill="#2d3436">amadeus.t_ama_appels_ga</text>
</g>
<!-- ce2fbbe6365a4a8f8ed84a0632268a0b&#45;&gt;d29779af606141d5be2e76a5065555f1 -->
<g id="edge11" class="edge">
<title>ce2fbbe6365a4a8f8ed84a0632268a0b&#45;&gt;d29779af606141d5be2e76a5065555f1</title>
<path fill="none" stroke="#7b8894" d="M527.06,-1370C527.06,-1370 787.76,-1370 787.76,-1370"/>
<polygon fill="#7b8894" stroke="#7b8894" points="787.76,-1373.5 797.76,-1370 787.76,-1366.5 787.76,-1373.5"/>
<text text-anchor="middle" x="662.5" y="-1373.6" font-family="Sans-Serif" font-size="13.00" fill="darkgrey">t_appels_ga</text>
</g>
<!-- 85e89544242249948233ca8a23eef545 -->
<g id="node23" class="node">
<title>85e89544242249948233ca8a23eef545</title>
<image xlink:href="icons/bigquery.png" width="101px" height="101px" preserveAspectRatio="xMinYMin meet" x="798" y="-1240.5"/>
<text text-anchor="middle" x="848.5" y="-1125.1" font-family="Sans-Serif" font-size="13.00" fill="#2d3436">eloqua.t_elq_promo_applis_mobiles_tlgt_appli</text>
</g>
<!-- ce2fbbe6365a4a8f8ed84a0632268a0b&#45;&gt;85e89544242249948233ca8a23eef545 -->
<g id="edge24" class="edge">
<title>ce2fbbe6365a4a8f8ed84a0632268a0b&#45;&gt;85e89544242249948233ca8a23eef545</title>
<path fill="none" stroke="#7b8894" d="M477,-1301.35C477,-1282.67 477,-1267.5 477,-1267.5 477,-1267.5 866,-1267.5 866,-1267.5 866,-1267.5 866,-1266.61 866,-1266.61"/>
<polygon fill="#7b8894" stroke="#7b8894" points="869.5,-1268.61 866,-1258.61 862.5,-1268.61 869.5,-1268.61"/>
<text text-anchor="middle" x="662.5" y="-1283.6" font-family="Sans-Serif" font-size="13.00" fill="darkgrey">t_elq_promo_applis_mobiles_tlgt_appli</text>
</g>
<!-- 9b3f005621b143d186159bf92f279405 -->
<g id="node15" class="node">
<title>9b3f005621b143d186159bf92f279405</title>
<image xlink:href="icons/bigquery.png" width="101px" height="101px" preserveAspectRatio="xMinYMin meet" x="1208" y="-959.5"/>
<text text-anchor="middle" x="1258.5" y="-844.1" font-family="Sans-Serif" font-size="13.00" fill="#2d3436">amadeus.t_ama_appels_leviers</text>
</g>
<!-- d29779af606141d5be2e76a5065555f1&#45;&gt;9b3f005621b143d186159bf92f279405 -->
<g id="edge13" class="edge">
<title>d29779af606141d5be2e76a5065555f1&#45;&gt;9b3f005621b143d186159bf92f279405</title>
<path fill="none" stroke="#7b8894" d="M899,-1347.17C919.31,-1347.17 938,-1347.17 938,-1347.17 938,-1347.17 938,-953.5 938,-953.5 938,-953.5 1197.72,-953.5 1197.72,-953.5"/>
<polygon fill="#7b8894" stroke="#7b8894" points="1197.72,-957 1207.72,-953.5 1197.72,-950 1197.72,-957"/>
<text text-anchor="middle" x="1043" y="-979.6" font-family="Sans-Serif" font-size="13.00" fill="darkgrey">t_appels_leviers</text>
</g>
<!-- 240b1274ccaf450c93f3fa4287a066eb -->
<g id="node20" class="node">
<title>240b1274ccaf450c93f3fa4287a066eb</title>
<image xlink:href="icons/bigquery.png" width="101px" height="101px" preserveAspectRatio="xMinYMin meet" x="1527" y="-1395.5"/>
<text text-anchor="middle" x="1577.5" y="-1280.1" font-family="Sans-Serif" font-size="13.00" fill="#2d3436">amadeus.t_ama_contrats_appels_leviers</text>
</g>
<!-- d29779af606141d5be2e76a5065555f1&#45;&gt;240b1274ccaf450c93f3fa4287a066eb -->
<g id="edge21" class="edge">
<title>d29779af606141d5be2e76a5065555f1&#45;&gt;240b1274ccaf450c93f3fa4287a066eb</title>
<path fill="none" stroke="#7b8894" d="M832,-1301.3C832,-1293.91 832,-1289 832,-1289 832,-1289 1516.84,-1289 1516.84,-1289"/>
<polygon fill="#7b8894" stroke="#7b8894" points="1516.84,-1292.5 1526.84,-1289 1516.84,-1285.5 1516.84,-1292.5"/>
<text text-anchor="middle" x="1258.5" y="-1067.6" font-family="Sans-Serif" font-size="13.00" fill="darkgrey">t_contrats_appels_leviers</text>
</g>
<!-- caf344340478436d8a87d5e3cb22e810&#45;&gt;9b3f005621b143d186159bf92f279405 -->
<g id="edge12" class="edge">
<title>caf344340478436d8a87d5e3cb22e810&#45;&gt;9b3f005621b143d186159bf92f279405</title>
<path fill="none" stroke="#7b8894" d="M899.29,-1568.9C935.2,-1568.9 977,-1568.9 977,-1568.9 977,-1568.9 977,-965.5 977,-965.5 977,-965.5 1197.85,-965.5 1197.85,-965.5"/>
<polygon fill="#7b8894" stroke="#7b8894" points="1197.85,-969 1207.85,-965.5 1197.85,-962 1197.85,-969"/>
<text text-anchor="middle" x="1043" y="-1224.6" font-family="Sans-Serif" font-size="13.00" fill="darkgrey">t_appels_leviers</text>
</g>
<!-- caf344340478436d8a87d5e3cb22e810&#45;&gt;ac2abd9f4180495ab825c85d9ba51476 -->
<g id="edge18" class="edge">
<title>caf344340478436d8a87d5e3cb22e810&#45;&gt;ac2abd9f4180495ab825c85d9ba51476</title>
<path fill="none" stroke="#7b8894" d="M899.16,-1685.5C970.78,-1685.5 1093,-1685.5 1093,-1685.5 1093,-1685.5 1093,-2090 1093,-2090 1093,-2090 1197.95,-2090 1197.95,-2090"/>
<polygon fill="#7b8894" stroke="#7b8894" points="1197.95,-2093.5 1207.95,-2090 1197.95,-2086.5 1197.95,-2093.5"/>
<text text-anchor="middle" x="1043" y="-1945.6" font-family="Sans-Serif" font-size="13.00" fill="darkgrey">t_contrats_appels</text>
</g>
<!-- a898f86bb4fb4830835e63f13eb34acd -->
<g id="node25" class="node">
<title>a898f86bb4fb4830835e63f13eb34acd</title>
<image xlink:href="icons/bigquery.png" width="101px" height="101px" preserveAspectRatio="xMinYMin meet" x="1208" y="-1420.5"/>
<text text-anchor="middle" x="1258.5" y="-1305.1" font-family="Sans-Serif" font-size="13.00" fill="#2d3436">amadeus.t_ama_valeurs_plus40_datastudio_gads</text>
</g>
<!-- caf344340478436d8a87d5e3cb22e810&#45;&gt;a898f86bb4fb4830835e63f13eb34acd -->
<g id="edge26" class="edge">
<title>caf344340478436d8a87d5e3cb22e810&#45;&gt;a898f86bb4fb4830835e63f13eb34acd</title>
<path fill="none" stroke="#7b8894" d="M899.09,-1593.7C989.63,-1593.7 1170,-1593.7 1170,-1593.7 1170,-1593.7 1170,-1392.83 1170,-1392.83 1170,-1392.83 1197.79,-1392.83 1197.79,-1392.83"/>
<polygon fill="#7b8894" stroke="#7b8894" points="1197.79,-1396.33 1207.79,-1392.83 1197.79,-1389.33 1197.79,-1396.33"/>
<text text-anchor="middle" x="1043" y="-1447.6" font-family="Sans-Serif" font-size="13.00" fill="darkgrey">t_valeurs_plus40_datastudio_gads</text>
</g>
<!-- c6d13e76d1d6409889d2d7dec9e5c5a0 -->
<g id="node26" class="node">
<title>c6d13e76d1d6409889d2d7dec9e5c5a0</title>
<image xlink:href="icons/bigquery.png" width="101px" height="101px" preserveAspectRatio="xMinYMin meet" x="1208" y="-1600.5"/>
<text text-anchor="middle" x="1258.5" y="-1485.1" font-family="Sans-Serif" font-size="13.00" fill="#2d3436">amadeus.t_ama_valeurs_datastudio_gads</text>
</g>
<!-- caf344340478436d8a87d5e3cb22e810&#45;&gt;c6d13e76d1d6409889d2d7dec9e5c5a0 -->
<g id="edge27" class="edge">
<title>caf344340478436d8a87d5e3cb22e810&#45;&gt;c6d13e76d1d6409889d2d7dec9e5c5a0</title>
<path fill="none" stroke="#7b8894" d="M899.19,-1606.1C899.19,-1606.1 1197.93,-1606.1 1197.93,-1606.1"/>
<polygon fill="#7b8894" stroke="#7b8894" points="1197.93,-1609.6 1207.93,-1606.1 1197.93,-1602.6 1197.93,-1609.6"/>
<text text-anchor="middle" x="1043" y="-1583.6" font-family="Sans-Serif" font-size="13.00" fill="darkgrey">t_valeurs_datastudio_gads</text>
</g>
<!-- 07618fd796fe430abc44a1dc9fca4a15 -->
<g id="node27" class="node">
<title>07618fd796fe430abc44a1dc9fca4a15</title>
<image xlink:href="icons/bigquery.png" width="101px" height="101px" preserveAspectRatio="xMinYMin meet" x="1208" y="-1780.5"/>
<text text-anchor="middle" x="1258.5" y="-1665.1" font-family="Sans-Serif" font-size="13.00" fill="#2d3436">amadeus.t_ama_valeurs_sousindicateur_gads</text>
</g>
<!-- caf344340478436d8a87d5e3cb22e810&#45;&gt;07618fd796fe430abc44a1dc9fca4a15 -->
<g id="edge28" class="edge">
<title>caf344340478436d8a87d5e3cb22e810&#45;&gt;07618fd796fe430abc44a1dc9fca4a15</title>
<path fill="none" stroke="#7b8894" d="M899.19,-1669.5C899.19,-1669.5 1197.93,-1669.5 1197.93,-1669.5"/>
<polygon fill="#7b8894" stroke="#7b8894" points="1197.93,-1673 1207.93,-1669.5 1197.93,-1666 1197.93,-1673"/>
<text text-anchor="middle" x="1043" y="-1674.6" font-family="Sans-Serif" font-size="13.00" fill="darkgrey">t_valeurs_sousindicateur_gads</text>
</g>
<!-- 713c5e4a22e6457e882157e6e778fad9 -->
<g id="node28" class="node">
<title>713c5e4a22e6457e882157e6e778fad9</title>
<image xlink:href="icons/bigquery.png" width="101px" height="101px" preserveAspectRatio="xMinYMin meet" x="1208" y="-1960.5"/>
<text text-anchor="middle" x="1258.5" y="-1845.1" font-family="Sans-Serif" font-size="13.00" fill="#2d3436">amadeus.t_ama_anciennes_valeurs_gads</text>
</g>
<!-- caf344340478436d8a87d5e3cb22e810&#45;&gt;713c5e4a22e6457e882157e6e778fad9 -->
<g id="edge29" class="edge">
<title>caf344340478436d8a87d5e3cb22e810&#45;&gt;713c5e4a22e6457e882157e6e778fad9</title>
<path fill="none" stroke="#7b8894" d="M899.01,-1677.5C980.26,-1677.5 1131,-1677.5 1131,-1677.5 1131,-1677.5 1131,-1887.17 1131,-1887.17 1131,-1887.17 1197.74,-1887.17 1197.74,-1887.17"/>
<polygon fill="#7b8894" stroke="#7b8894" points="1197.74,-1890.67 1207.74,-1887.17 1197.74,-1883.67 1197.74,-1890.67"/>
<text text-anchor="middle" x="1043" y="-1825.6" font-family="Sans-Serif" font-size="13.00" fill="darkgrey">t_anciennes_valeurs_gads</text>
</g>
<!-- 75412680966b41d28a36083417b87dde -->
<g id="node29" class="node">
<title>75412680966b41d28a36083417b87dde</title>
<image xlink:href="icons/bigquery.png" width="101px" height="101px" preserveAspectRatio="xMinYMin meet" x="1208" y="-1240.5"/>
<text text-anchor="middle" x="1258.5" y="-1125.1" font-family="Sans-Serif" font-size="13.00" fill="#2d3436">amadeus.t_ama_anciennes_valeurs_sousindicateur_gads</text>
</g>
<!-- caf344340478436d8a87d5e3cb22e810&#45;&gt;75412680966b41d28a36083417b87dde -->
<g id="edge30" class="edge">
<title>caf344340478436d8a87d5e3cb22e810&#45;&gt;75412680966b41d28a36083417b87dde</title>
<path fill="none" stroke="#7b8894" d="M899.36,-1581.3C948.32,-1581.3 1015,-1581.3 1015,-1581.3 1015,-1581.3 1015,-1190 1015,-1190 1015,-1190 1197.75,-1190 1197.75,-1190"/>
<polygon fill="#7b8894" stroke="#7b8894" points="1197.75,-1193.5 1207.75,-1190 1197.75,-1186.5 1197.75,-1193.5"/>
<text text-anchor="middle" x="1043" y="-1352.6" font-family="Sans-Serif" font-size="13.00" fill="darkgrey">t_anciennes_valeurs_sousindicateur_gads</text>
</g>
<!-- c3b1a954c5a24f398b6c74dfadf9dd3a -->
<g id="node18" class="node">
<title>c3b1a954c5a24f398b6c74dfadf9dd3a</title>
<image xlink:href="icons/bigquery.png" width="101px" height="101px" preserveAspectRatio="xMinYMin meet" x="1527" y="-959.5"/>
<text text-anchor="middle" x="1577.5" y="-844.1" font-family="Sans-Serif" font-size="13.00" fill="#2d3436">amadeus.t_ama_leads_appels</text>
</g>
<!-- 9b3f005621b143d186159bf92f279405&#45;&gt;c3b1a954c5a24f398b6c74dfadf9dd3a -->
<g id="edge17" class="edge">
<title>9b3f005621b143d186159bf92f279405&#45;&gt;c3b1a954c5a24f398b6c74dfadf9dd3a</title>
<path fill="none" stroke="#7b8894" d="M1309.05,-909C1309.05,-909 1516.93,-909 1516.93,-909"/>
<polygon fill="#7b8894" stroke="#7b8894" points="1516.93,-912.5 1526.93,-909 1516.93,-905.5 1516.93,-912.5"/>
<text text-anchor="middle" x="1428.5" y="-912.6" font-family="Sans-Serif" font-size="13.00" fill="darkgrey">t_leads_appels</text>
</g>
<!-- c022f082a28a401b881593bea76c140e -->
<g id="node16" class="node">
<title>c022f082a28a401b881593bea76c140e</title>
<image xlink:href="icons/bigquery.png" width="101px" height="101px" preserveAspectRatio="xMinYMin meet" x="426" y="-1600.5"/>
<text text-anchor="middle" x="476.5" y="-1485.1" font-family="Sans-Serif" font-size="13.00" fill="#2d3436">amadeus.e_ama_appels_2020</text>
</g>
<!-- c022f082a28a401b881593bea76c140e&#45;&gt;caf344340478436d8a87d5e3cb22e810 -->
<g id="edge15" class="edge">
<title>c022f082a28a401b881593bea76c140e&#45;&gt;caf344340478436d8a87d5e3cb22e810</title>
<path fill="none" stroke="#7b8894" d="M527.06,-1587.5C527.06,-1587.5 787.76,-1587.5 787.76,-1587.5"/>
<polygon fill="#7b8894" stroke="#7b8894" points="787.76,-1591 797.76,-1587.5 787.76,-1584 787.76,-1591"/>
<text text-anchor="middle" x="662.5" y="-1582.6" font-family="Sans-Serif" font-size="13.00" fill="darkgrey">t_appels</text>
</g>
<!-- f4dc132cb221414394e741ba32b7a96d -->
<g id="node17" class="node">
<title>f4dc132cb221414394e741ba32b7a96d</title>
<image xlink:href="icons/bigquery.png" width="101px" height="101px" preserveAspectRatio="xMinYMin meet" x="426" y="-1780.5"/>
<text text-anchor="middle" x="476.5" y="-1665.1" font-family="Sans-Serif" font-size="13.00" fill="#2d3436">amadeus.e_ama_appels_2018_2019</text>
</g>
<!-- f4dc132cb221414394e741ba32b7a96d&#45;&gt;caf344340478436d8a87d5e3cb22e810 -->
<g id="edge16" class="edge">
<title>f4dc132cb221414394e741ba32b7a96d&#45;&gt;caf344340478436d8a87d5e3cb22e810</title>
<path fill="none" stroke="#7b8894" d="M527.06,-1672.17C527.06,-1672.17 787.76,-1672.17 787.76,-1672.17"/>
<polygon fill="#7b8894" stroke="#7b8894" points="787.76,-1675.67 797.76,-1672.17 787.76,-1668.67 787.76,-1675.67"/>
<text text-anchor="middle" x="662.5" y="-1674.6" font-family="Sans-Serif" font-size="13.00" fill="darkgrey">t_appels</text>
</g>
<!-- ac2abd9f4180495ab825c85d9ba51476&#45;&gt;240b1274ccaf450c93f3fa4287a066eb -->
<g id="edge20" class="edge">
<title>ac2abd9f4180495ab825c85d9ba51476&#45;&gt;240b1274ccaf450c93f3fa4287a066eb</title>
<path fill="none" stroke="#7b8894" d="M1309.13,-2090C1399.22,-2090 1578,-2090 1578,-2090 1578,-2090 1578,-1423.75 1578,-1423.75"/>
<polygon fill="#7b8894" stroke="#7b8894" points="1581.5,-1423.75 1578,-1413.75 1574.5,-1423.75 1581.5,-1423.75"/>
<text text-anchor="middle" x="1428.5" y="-1604.6" font-family="Sans-Serif" font-size="13.00" fill="darkgrey">t_contrats_appels_leviers</text>
</g>
<!-- f78d5c4eb4994a388e92131203996bc0 -->
<g id="node21" class="node">
<title>f78d5c4eb4994a388e92131203996bc0</title>
<image xlink:href="icons/storage.png" width="101px" height="101px" preserveAspectRatio="xMinYMin meet" x="16" y="-1240.5"/>
<text text-anchor="middle" x="66.5" y="-1125.1" font-family="Sans-Serif" font-size="13.00" fill="#2d3436">amadeus_bi.eloqua/AMA_GOOG_RETR_MARK_ELQC_315_*</text>
</g>
<!-- a2361fb001c247bd9a07eb250fc62ff6 -->
<g id="node22" class="node">
<title>a2361fb001c247bd9a07eb250fc62ff6</title>
<image xlink:href="icons/bigquery.png" width="101px" height="101px" preserveAspectRatio="xMinYMin meet" x="426" y="-1240.5"/>
<text text-anchor="middle" x="476.5" y="-1125.1" font-family="Sans-Serif" font-size="13.00" fill="#2d3436">eloqua.e_elq_promo_applis_mobiles_clics_emails</text>
</g>
<!-- f78d5c4eb4994a388e92131203996bc0&#45;&gt;a2361fb001c247bd9a07eb250fc62ff6 -->
<g id="edge22" class="edge">
<title>f78d5c4eb4994a388e92131203996bc0&#45;&gt;a2361fb001c247bd9a07eb250fc62ff6</title>
<path fill="none" stroke="#7b8894" d="M117.19,-1190C117.19,-1190 415.93,-1190 415.93,-1190"/>
<polygon fill="#7b8894" stroke="#7b8894" points="415.93,-1193.5 425.93,-1190 415.93,-1186.5 415.93,-1193.5"/>
<text text-anchor="middle" x="271.5" y="-1193.6" font-family="Sans-Serif" font-size="13.00" fill="darkgrey">e_elq_promo_applis_mobiles_clics_emails</text>
</g>
<!-- a2361fb001c247bd9a07eb250fc62ff6&#45;&gt;85e89544242249948233ca8a23eef545 -->
<g id="edge23" class="edge">
<title>a2361fb001c247bd9a07eb250fc62ff6&#45;&gt;85e89544242249948233ca8a23eef545</title>
<path fill="none" stroke="#7b8894" d="M527.06,-1190C527.06,-1190 787.76,-1190 787.76,-1190"/>
<polygon fill="#7b8894" stroke="#7b8894" points="787.76,-1193.5 797.76,-1190 787.76,-1186.5 787.76,-1193.5"/>
<text text-anchor="middle" x="662.5" y="-1193.6" font-family="Sans-Serif" font-size="13.00" fill="darkgrey">t_elq_promo_applis_mobiles_tlgt_appli</text>
</g>
<!-- 8f33c24b5dc54476846afe8c1a8779c9 -->
<g id="node30" class="node">
<title>8f33c24b5dc54476846afe8c1a8779c9</title>
<image xlink:href="icons/bigquery.png" width="101px" height="101px" preserveAspectRatio="xMinYMin meet" x="16" y="-1060.5"/>
<text text-anchor="middle" x="66.5" y="-945.1" font-family="Sans-Serif" font-size="13.00" fill="#2d3436">comper.t_v_digi_cube_valeur</text>
</g>
<!-- 077a957ad0af4f8ca67406ec3fe36f5f -->
<g id="node31" class="node">
<title>077a957ad0af4f8ca67406ec3fe36f5f</title>
<image xlink:href="icons/bigquery.png" width="101px" height="101px" preserveAspectRatio="xMinYMin meet" x="426" y="-1060.5"/>
<text text-anchor="middle" x="476.5" y="-945.1" font-family="Sans-Serif" font-size="13.00" fill="#2d3436">amadeus.t_ama_parrainage</text>
</g>
<!-- 8f33c24b5dc54476846afe8c1a8779c9&#45;&gt;077a957ad0af4f8ca67406ec3fe36f5f -->
<g id="edge31" class="edge">
<title>8f33c24b5dc54476846afe8c1a8779c9&#45;&gt;077a957ad0af4f8ca67406ec3fe36f5f</title>
<path fill="none" stroke="#7b8894" d="M117.19,-1010C117.19,-1010 415.93,-1010 415.93,-1010"/>
<polygon fill="#7b8894" stroke="#7b8894" points="415.93,-1013.5 425.93,-1010 415.93,-1006.5 415.93,-1013.5"/>
<text text-anchor="middle" x="271.5" y="-1013.6" font-family="Sans-Serif" font-size="13.00" fill="darkgrey">t_parrainage</text>
</g>
<!-- 8183017195824e5dbdbe422b91b88d9f -->
<g id="node32" class="node">
<title>8183017195824e5dbdbe422b91b88d9f</title>
<image xlink:href="icons/bigquery.png" width="101px" height="101px" preserveAspectRatio="xMinYMin meet" x="798" y="-1060.5"/>
<text text-anchor="middle" x="848.5" y="-945.1" font-family="Sans-Serif" font-size="13.00" fill="#2d3436">comper.l_ama_to_ds_comper_t_ama_parrainage</text>
</g>
<!-- 077a957ad0af4f8ca67406ec3fe36f5f&#45;&gt;8183017195824e5dbdbe422b91b88d9f -->
<g id="edge32" class="edge">
<title>077a957ad0af4f8ca67406ec3fe36f5f&#45;&gt;8183017195824e5dbdbe422b91b88d9f</title>
<path fill="none" stroke="#7b8894" d="M527.06,-1010C527.06,-1010 787.76,-1010 787.76,-1010"/>
<polygon fill="#7b8894" stroke="#7b8894" points="787.76,-1013.5 797.76,-1010 787.76,-1006.5 787.76,-1013.5"/>
<text text-anchor="middle" x="662.5" y="-1013.6" font-family="Sans-Serif" font-size="13.00" fill="darkgrey">l_to_ds_comper_t_ama_parrainage</text>
</g>
<!-- 2ed3ef425dfe4aa4812372ba56656523 -->
<g id="node33" class="node">
<title>2ed3ef425dfe4aa4812372ba56656523</title>
<image xlink:href="icons/bigquery.png" width="101px" height="101px" preserveAspectRatio="xMinYMin meet" x="16" y="-880.5"/>
<text text-anchor="middle" x="66.5" y="-765.1" font-family="Sans-Serif" font-size="13.00" fill="#2d3436">amadeus.e_gsheet_contrats_services</text>
</g>
<!-- 340adfa750524be4b9f19fa885a1d589 -->
<g id="node34" class="node">
<title>340adfa750524be4b9f19fa885a1d589</title>
<image xlink:href="icons/bigquery.png" width="101px" height="101px" preserveAspectRatio="xMinYMin meet" x="426" y="-880.5"/>
<text text-anchor="middle" x="476.5" y="-765.1" font-family="Sans-Serif" font-size="13.00" fill="#2d3436">comper.l_ama_to_ds_comper_contrats_services</text>
</g>
<!-- 2ed3ef425dfe4aa4812372ba56656523&#45;&gt;340adfa750524be4b9f19fa885a1d589 -->
<g id="edge33" class="edge">
<title>2ed3ef425dfe4aa4812372ba56656523&#45;&gt;340adfa750524be4b9f19fa885a1d589</title>
<path fill="none" stroke="#7b8894" d="M117.19,-830C117.19,-830 415.93,-830 415.93,-830"/>
<polygon fill="#7b8894" stroke="#7b8894" points="415.93,-833.5 425.93,-830 415.93,-826.5 415.93,-833.5"/>
<text text-anchor="middle" x="271.5" y="-833.6" font-family="Sans-Serif" font-size="13.00" fill="darkgrey">l_to_ds_comper_contrats_services</text>
</g>
<!-- 97dbb86320cd41ff896b84d1d168c295 -->
<g id="node35" class="node">
<title>97dbb86320cd41ff896b84d1d168c295</title>
<image xlink:href="icons/bigquery.png" width="101px" height="101px" preserveAspectRatio="xMinYMin meet" x="16" y="-700.5"/>
<text text-anchor="middle" x="66.5" y="-585.1" font-family="Sans-Serif" font-size="13.00" fill="#2d3436">reporting_equipements.bout_en_bout_equipements</text>
</g>
<!-- 4c42a6abb6d54c658a3e7cc221cc9dc4 -->
<g id="node36" class="node">
<title>4c42a6abb6d54c658a3e7cc221cc9dc4</title>
<image xlink:href="icons/bigquery.png" width="101px" height="101px" preserveAspectRatio="xMinYMin meet" x="426" y="-700.5"/>
<text text-anchor="middle" x="476.5" y="-585.1" font-family="Sans-Serif" font-size="13.00" fill="#2d3436">comper.l_ama_to_ds_comper_bout_en_bout_equipements</text>
</g>
<!-- 97dbb86320cd41ff896b84d1d168c295&#45;&gt;4c42a6abb6d54c658a3e7cc221cc9dc4 -->
<g id="edge34" class="edge">
<title>97dbb86320cd41ff896b84d1d168c295&#45;&gt;4c42a6abb6d54c658a3e7cc221cc9dc4</title>
<path fill="none" stroke="#7b8894" d="M117.19,-650C117.19,-650 415.93,-650 415.93,-650"/>
<polygon fill="#7b8894" stroke="#7b8894" points="415.93,-653.5 425.93,-650 415.93,-646.5 415.93,-653.5"/>
<text text-anchor="middle" x="271.5" y="-653.6" font-family="Sans-Serif" font-size="13.00" fill="darkgrey">l_to_ds_comper_bout_en_bout_equipements</text>
</g>
<!-- ca6f81bbdc8c4579b3cebd585c0ae6d0 -->
<g id="node37" class="node">
<title>ca6f81bbdc8c4579b3cebd585c0ae6d0</title>
<image xlink:href="icons/bigquery.png" width="101px" height="101px" preserveAspectRatio="xMinYMin meet" x="16" y="-520.5"/>
<text text-anchor="middle" x="66.5" y="-405.1" font-family="Sans-Serif" font-size="13.00" fill="#2d3436">amadeus.e_ama_options_vertes</text>
</g>
<!-- 6317ddaa34b241b7b42cec67ebcdb6d7 -->
<g id="node38" class="node">
<title>6317ddaa34b241b7b42cec67ebcdb6d7</title>
<image xlink:href="icons/bigquery.png" width="101px" height="101px" preserveAspectRatio="xMinYMin meet" x="426" y="-520.5"/>
<text text-anchor="middle" x="476.5" y="-405.1" font-family="Sans-Serif" font-size="13.00" fill="#2d3436">comper.t_ama_options_vertes</text>
</g>
<!-- ca6f81bbdc8c4579b3cebd585c0ae6d0&#45;&gt;6317ddaa34b241b7b42cec67ebcdb6d7 -->
<g id="edge35" class="edge">
<title>ca6f81bbdc8c4579b3cebd585c0ae6d0&#45;&gt;6317ddaa34b241b7b42cec67ebcdb6d7</title>
<path fill="none" stroke="#7b8894" d="M117.19,-470C117.19,-470 415.93,-470 415.93,-470"/>
<polygon fill="#7b8894" stroke="#7b8894" points="415.93,-473.5 425.93,-470 415.93,-466.5 415.93,-473.5"/>
<text text-anchor="middle" x="271.5" y="-473.6" font-family="Sans-Serif" font-size="13.00" fill="darkgrey">t_options_vertes</text>
</g>
<!-- 41e71a1bce564fcbb5f148d517b03ae7 -->
<g id="node39" class="node">
<title>41e71a1bce564fcbb5f148d517b03ae7</title>
<image xlink:href="icons/bigquery.png" width="101px" height="101px" preserveAspectRatio="xMinYMin meet" x="798" y="-520.5"/>
<text text-anchor="middle" x="848.5" y="-405.1" font-family="Sans-Serif" font-size="13.00" fill="#2d3436">comper.l_ama_to_ds_comper_options_vertes</text>
</g>
<!-- 6317ddaa34b241b7b42cec67ebcdb6d7&#45;&gt;41e71a1bce564fcbb5f148d517b03ae7 -->
<g id="edge36" class="edge">
<title>6317ddaa34b241b7b42cec67ebcdb6d7&#45;&gt;41e71a1bce564fcbb5f148d517b03ae7</title>
<path fill="none" stroke="#7b8894" d="M527.06,-470C527.06,-470 787.76,-470 787.76,-470"/>
<polygon fill="#7b8894" stroke="#7b8894" points="787.76,-473.5 797.76,-470 787.76,-466.5 787.76,-473.5"/>
<text text-anchor="middle" x="662.5" y="-473.6" font-family="Sans-Serif" font-size="13.00" fill="darkgrey">l_to_ds_comper_options_vertes</text>
</g>
<!-- 2f0236afd5af4a1c963cab2e4dbe609c -->
<g id="node40" class="node">
<title>2f0236afd5af4a1c963cab2e4dbe609c</title>
<image xlink:href="icons/bigquery.png" width="101px" height="101px" preserveAspectRatio="xMinYMin meet" x="16" y="-340.5"/>
<text text-anchor="middle" x="66.5" y="-225.1" font-family="Sans-Serif" font-size="13.00" fill="#2d3436">amadeus.e_ama_prelevement_mensualisation</text>
</g>
<!-- fb0442142dc14c478281e10b5af35cff -->
<g id="node41" class="node">
<title>fb0442142dc14c478281e10b5af35cff</title>
<image xlink:href="icons/bigquery.png" width="101px" height="101px" preserveAspectRatio="xMinYMin meet" x="426" y="-340.5"/>
<text text-anchor="middle" x="476.5" y="-225.1" font-family="Sans-Serif" font-size="13.00" fill="#2d3436">comper.l_ama_to_ds_comper_prelevement_mensualisation</text>
</g>
<!-- 2f0236afd5af4a1c963cab2e4dbe609c&#45;&gt;fb0442142dc14c478281e10b5af35cff -->
<g id="edge37" class="edge">
<title>2f0236afd5af4a1c963cab2e4dbe609c&#45;&gt;fb0442142dc14c478281e10b5af35cff</title>
<path fill="none" stroke="#7b8894" d="M117.19,-290C117.19,-290 415.93,-290 415.93,-290"/>
<polygon fill="#7b8894" stroke="#7b8894" points="415.93,-293.5 425.93,-290 415.93,-286.5 415.93,-293.5"/>
<text text-anchor="middle" x="271.5" y="-293.6" font-family="Sans-Serif" font-size="13.00" fill="darkgrey">l_to_ds_comper_prelevement_mensualisation</text>
</g>
<!-- 91a72f1f22574880837951190dce2ece -->
<g id="node42" class="node">
<title>91a72f1f22574880837951190dce2ece</title>
<image xlink:href="icons/bigquery.png" width="101px" height="101px" preserveAspectRatio="xMinYMin meet" x="16" y="-160.5"/>
<text text-anchor="middle" x="66.5" y="-45.1" font-family="Sans-Serif" font-size="13.00" fill="#2d3436">amadeus.e_gsheet_activation_energie</text>
</g>
<!-- ff7dfbc1354d432eb275edb167f9a4aa -->
<g id="node43" class="node">
<title>ff7dfbc1354d432eb275edb167f9a4aa</title>
<image xlink:href="icons/bigquery.png" width="101px" height="101px" preserveAspectRatio="xMinYMin meet" x="426" y="-160.5"/>
<text text-anchor="middle" x="476.5" y="-45.1" font-family="Sans-Serif" font-size="13.00" fill="#2d3436">comper.l_ama_to_ds_comper_activation_energie</text>
</g>
<!-- 91a72f1f22574880837951190dce2ece&#45;&gt;ff7dfbc1354d432eb275edb167f9a4aa -->
<g id="edge38" class="edge">
<title>91a72f1f22574880837951190dce2ece&#45;&gt;ff7dfbc1354d432eb275edb167f9a4aa</title>
<path fill="none" stroke="#7b8894" d="M117.19,-110C117.19,-110 415.93,-110 415.93,-110"/>
<polygon fill="#7b8894" stroke="#7b8894" points="415.93,-113.5 425.93,-110 415.93,-106.5 415.93,-113.5"/>
<text text-anchor="middle" x="271.5" y="-113.6" font-family="Sans-Serif" font-size="13.00" fill="darkgrey">l_to_ds_comper_activation_energie</text>
</g>
</g>
</svg>
