<?xml version="1.0" encoding="UTF-8" standalone="no"?>
<!DOCTYPE svg PUBLIC "-//W3C//DTD SVG 1.1//EN"
 "http://www.w3.org/Graphics/SVG/1.1/DTD/svg11.dtd">
<!-- Generated by graphviz version 2.47.1 (20210417.1919)
 -->
<!-- Title: comper Pages: 1 -->
<svg width="2895pt" height="2304pt"
 viewBox="0.00 0.00 2895.00 2304.00" xmlns="http://www.w3.org/2000/svg" xmlns:xlink="http://www.w3.org/1999/xlink">
<g id="graph0" class="graph" transform="scale(1 1) rotate(0) translate(144 2160)">
<title>comper</title>
<text text-anchor="middle" x="1303.5" y="-9" font-family="Sans-Serif" font-size="15.00" fill="#2d3436">comper</text>
<g id="clust1" class="cluster">
<title>cluster_comper</title>
<path fill="#e5f5fd" stroke="#aeb6be" d="M20,-33C20,-33 2587,-33 2587,-33 2593,-33 2599,-39 2599,-45 2599,-45 2599,-1996 2599,-1996 2599,-2002 2593,-2008 2587,-2008 2587,-2008 20,-2008 20,-2008 14,-2008 8,-2002 8,-1996 8,-1996 8,-45 8,-45 8,-39 14,-33 20,-33"/>
<text text-anchor="middle" x="36" y="-1994.4" font-family="Sans-Serif" font-size="12.00" fill="#2d3436">comper</text>
</g>
<!-- 7d60f0e93b0d451a9a5d6d691fa17de8 -->
<g id="node1" class="node">
<title>7d60f0e93b0d451a9a5d6d691fa17de8</title>
<image xlink:href="icons/storage.png" width="101px" height="101px" preserveAspectRatio="xMinYMin meet" x="16" y="-1600.5"/>
<text text-anchor="middle" x="66.5" y="-1485.1" font-family="Sans-Serif" font-size="13.00" fill="#2d3436">amadeus_bi.contrats/ama_contrats_digitaux_stor_*</text>
</g>
<!-- 8903afde45464e568bf4a82d735fccc0 -->
<g id="node2" class="node">
<title>8903afde45464e568bf4a82d735fccc0</title>
<image xlink:href="icons/bigquery.png" width="101px" height="101px" preserveAspectRatio="xMinYMin meet" x="295" y="-1600.5"/>
<text text-anchor="middle" x="345.5" y="-1485.1" font-family="Sans-Serif" font-size="13.00" fill="#2d3436">comper.e_v_digi_import_cube_valeur</text>
</g>
<!-- 7d60f0e93b0d451a9a5d6d691fa17de8&#45;&gt;8903afde45464e568bf4a82d735fccc0 -->
<g id="edge1" class="edge">
<title>7d60f0e93b0d451a9a5d6d691fa17de8&#45;&gt;8903afde45464e568bf4a82d735fccc0</title>
<path fill="none" stroke="#7b8894" d="M117.02,-1550C117.02,-1550 284.88,-1550 284.88,-1550"/>
<polygon fill="#7b8894" stroke="#7b8894" points="284.88,-1553.5 294.88,-1550 284.88,-1546.5 284.88,-1553.5"/>
<text text-anchor="middle" x="206" y="-1553.6" font-family="Sans-Serif" font-size="13.00" fill="darkgrey">e_import_cube_valeur</text>
</g>
<!-- fa060c9b9c234110b24251d6b9dcd2aa -->
<g id="node9" class="node">
<title>fa060c9b9c234110b24251d6b9dcd2aa</title>
<image xlink:href="icons/bigquery.png" width="101px" height="101px" preserveAspectRatio="xMinYMin meet" x="640" y="-1735.5"/>
<text text-anchor="middle" x="690.5" y="-1620.1" font-family="Sans-Serif" font-size="13.00" fill="#2d3436">comper.t_v_digi_cube_valeur</text>
</g>
<!-- 8903afde45464e568bf4a82d735fccc0&#45;&gt;fa060c9b9c234110b24251d6b9dcd2aa -->
<g id="edge7" class="edge">
<title>8903afde45464e568bf4a82d735fccc0&#45;&gt;fa060c9b9c234110b24251d6b9dcd2aa</title>
<path fill="none" stroke="#7b8894" d="M346,-1618.67C346,-1630.99 346,-1640 346,-1640 346,-1640 629.67,-1640 629.67,-1640"/>
<polygon fill="#7b8894" stroke="#7b8894" points="629.67,-1643.5 639.67,-1640 629.67,-1636.5 629.67,-1643.5"/>
<text text-anchor="middle" x="518" y="-1598.6" font-family="Sans-Serif" font-size="13.00" fill="darkgrey">t_cube_valeur</text>
</g>
<!-- f746d37b989f4978b1f99504691d61b2 -->
<g id="node3" class="node">
<title>f746d37b989f4978b1f99504691d61b2</title>
<image xlink:href="icons/bigquery.png" width="101px" height="101px" preserveAspectRatio="xMinYMin meet" x="16" y="-1100.5"/>
<text text-anchor="middle" x="66.5" y="-985.1" font-family="Sans-Serif" font-size="13.00" fill="#2d3436">amadeus.t_ama_contrats_appels_leviers</text>
</g>
<!-- 0051daf465f040b3a93699176913a1dd -->
<g id="node4" class="node">
<title>0051daf465f040b3a93699176913a1dd</title>
<image xlink:href="icons/bigquery.png" width="101px" height="101px" preserveAspectRatio="xMinYMin meet" x="295" y="-1190.5"/>
<text text-anchor="middle" x="345.5" y="-1075.1" font-family="Sans-Serif" font-size="13.00" fill="#2d3436">amadeus.t_ama_ventes_digitales</text>
</g>
<!-- f746d37b989f4978b1f99504691d61b2&#45;&gt;0051daf465f040b3a93699176913a1dd -->
<g id="edge2" class="edge">
<title>f746d37b989f4978b1f99504691d61b2&#45;&gt;0051daf465f040b3a93699176913a1dd</title>
<path fill="none" stroke="#7b8894" d="M117.02,-1095C117.02,-1095 284.88,-1095 284.88,-1095"/>
<polygon fill="#7b8894" stroke="#7b8894" points="284.88,-1098.5 294.88,-1095 284.88,-1091.5 284.88,-1098.5"/>
<text text-anchor="middle" x="206" y="-1083.6" font-family="Sans-Serif" font-size="13.00" fill="darkgrey">t_ventes_digitales</text>
</g>
<!-- b0d6bfaa38e44b3e8272b51cfaf855f0 -->
<g id="node7" class="node">
<title>b0d6bfaa38e44b3e8272b51cfaf855f0</title>
<image xlink:href="icons/bigquery.png" width="101px" height="101px" preserveAspectRatio="xMinYMin meet" x="640" y="-1190.5"/>
<text text-anchor="middle" x="690.5" y="-1075.1" font-family="Sans-Serif" font-size="13.00" fill="#2d3436">comper.t_ama_realise</text>
</g>
<!-- 0051daf465f040b3a93699176913a1dd&#45;&gt;b0d6bfaa38e44b3e8272b51cfaf855f0 -->
<g id="edge6" class="edge">
<title>0051daf465f040b3a93699176913a1dd&#45;&gt;b0d6bfaa38e44b3e8272b51cfaf855f0</title>
<path fill="none" stroke="#7b8894" d="M396.04,-1140C396.04,-1140 629.83,-1140 629.83,-1140"/>
<polygon fill="#7b8894" stroke="#7b8894" points="629.83,-1143.5 639.83,-1140 629.83,-1136.5 629.83,-1143.5"/>
<text text-anchor="middle" x="518" y="-1143.6" font-family="Sans-Serif" font-size="13.00" fill="darkgrey">t_realise</text>
</g>
<!-- 043b76eaa3d1470cb6907109e416f384 -->
<g id="node5" class="node">
<title>043b76eaa3d1470cb6907109e416f384</title>
<image xlink:href="icons/bigquery.png" width="101px" height="101px" preserveAspectRatio="xMinYMin meet" x="16" y="-1280.5"/>
<text text-anchor="middle" x="66.5" y="-1165.1" font-family="Sans-Serif" font-size="13.00" fill="#2d3436">amadeus.t_ama_contrats_formulaires</text>
</g>
<!-- 043b76eaa3d1470cb6907109e416f384&#45;&gt;0051daf465f040b3a93699176913a1dd -->
<g id="edge3" class="edge">
<title>043b76eaa3d1470cb6907109e416f384&#45;&gt;0051daf465f040b3a93699176913a1dd</title>
<path fill="none" stroke="#7b8894" d="M117.02,-1185C117.02,-1185 284.88,-1185 284.88,-1185"/>
<polygon fill="#7b8894" stroke="#7b8894" points="284.88,-1188.5 294.88,-1185 284.88,-1181.5 284.88,-1188.5"/>
<text text-anchor="middle" x="206" y="-1204.6" font-family="Sans-Serif" font-size="13.00" fill="darkgrey">t_ventes_digitales</text>
</g>
<!-- 84af96e587974fe38a03957023584f19 -->
<g id="node6" class="node">
<title>84af96e587974fe38a03957023584f19</title>
<image xlink:href="icons/bigquery.png" width="101px" height="101px" preserveAspectRatio="xMinYMin meet" x="295" y="-1010.5"/>
<text text-anchor="middle" x="345.5" y="-895.1" font-family="Sans-Serif" font-size="13.00" fill="#2d3436">amadeus.t_ama_leads_appels</text>
</g>
<!-- 84af96e587974fe38a03957023584f19&#45;&gt;b0d6bfaa38e44b3e8272b51cfaf855f0 -->
<g id="edge4" class="edge">
<title>84af96e587974fe38a03957023584f19&#45;&gt;b0d6bfaa38e44b3e8272b51cfaf855f0</title>
<path fill="none" stroke="#7b8894" d="M396.11,-1024.5C488.26,-1024.5 674,-1024.5 674,-1024.5 674,-1024.5 674,-1061.48 674,-1061.48"/>
<polygon fill="#7b8894" stroke="#7b8894" points="670.5,-1061.48 674,-1071.48 677.5,-1061.48 670.5,-1061.48"/>
<text text-anchor="middle" x="518" y="-1022.6" font-family="Sans-Serif" font-size="13.00" fill="darkgrey">t_realise</text>
</g>
<!-- 6310ba59ca574867bb9cda3a5b2906b8 -->
<g id="node10" class="node">
<title>6310ba59ca574867bb9cda3a5b2906b8</title>
<image xlink:href="icons/bigquery.png" width="101px" height="101px" preserveAspectRatio="xMinYMin meet" x="1066.5" y="-959.5"/>
<text text-anchor="middle" x="1117" y="-844.1" font-family="Sans-Serif" font-size="13.00" fill="#2d3436">comper.t_datastudio_point_de_sortie</text>
</g>
<!-- b0d6bfaa38e44b3e8272b51cfaf855f0&#45;&gt;6310ba59ca574867bb9cda3a5b2906b8 -->
<g id="edge8" class="edge">
<title>b0d6bfaa38e44b3e8272b51cfaf855f0&#45;&gt;6310ba59ca574867bb9cda3a5b2906b8</title>
<path fill="none" stroke="#7b8894" d="M708,-1071.15C708,-1035.36 708,-999 708,-999 708,-999 1117,-999 1117,-999 1117,-999 1117,-987.67 1117,-987.67"/>
<polygon fill="#7b8894" stroke="#7b8894" points="1120.5,-987.67 1117,-977.67 1113.5,-987.67 1120.5,-987.67"/>
<text text-anchor="middle" x="870.5" y="-1059.6" font-family="Sans-Serif" font-size="13.00" fill="darkgrey">t_point_de_sortie</text>
</g>
<!-- ca3371dccbb34a49af54e59055cd7034 -->
<g id="node13" class="node">
<title>ca3371dccbb34a49af54e59055cd7034</title>
<image xlink:href="icons/bigquery.png" width="101px" height="101px" preserveAspectRatio="xMinYMin meet" x="1522" y="-1679.5"/>
<text text-anchor="middle" x="1572.5" y="-1564.1" font-family="Sans-Serif" font-size="13.00" fill="#2d3436">comper.l_datastudio_contrats_offres_energie_hors_depenses</text>
</g>
<!-- b0d6bfaa38e44b3e8272b51cfaf855f0&#45;&gt;ca3371dccbb34a49af54e59055cd7034 -->
<g id="edge11" class="edge">
<title>b0d6bfaa38e44b3e8272b51cfaf855f0&#45;&gt;ca3371dccbb34a49af54e59055cd7034</title>
<path fill="none" stroke="#7b8894" d="M741.2,-1179C889.15,-1179 1310,-1179 1310,-1179 1310,-1179 1310,-1629 1310,-1629 1310,-1629 1511.89,-1629 1511.89,-1629"/>
<polygon fill="#7b8894" stroke="#7b8894" points="1511.89,-1632.5 1521.89,-1629 1511.89,-1625.5 1511.89,-1632.5"/>
<text text-anchor="middle" x="1117" y="-1787.6" font-family="Sans-Serif" font-size="13.00" fill="darkgrey">t_contrats_offres_energie_hors_depenses</text>
</g>
<!-- c4a84ec3b80e4754a61c6d5c064960fa -->
<g id="node8" class="node">
<title>c4a84ec3b80e4754a61c6d5c064960fa</title>
<image xlink:href="icons/bigquery.png" width="101px" height="101px" preserveAspectRatio="xMinYMin meet" x="295" y="-1370.5"/>
<text text-anchor="middle" x="345.5" y="-1255.1" font-family="Sans-Serif" font-size="13.00" fill="#2d3436">amadeus.t_ama_leads_formulaires</text>
</g>
<!-- c4a84ec3b80e4754a61c6d5c064960fa&#45;&gt;b0d6bfaa38e44b3e8272b51cfaf855f0 -->
<g id="edge5" class="edge">
<title>c4a84ec3b80e4754a61c6d5c064960fa&#45;&gt;b0d6bfaa38e44b3e8272b51cfaf855f0</title>
<path fill="none" stroke="#7b8894" d="M396.11,-1294.5C492.07,-1294.5 691,-1294.5 691,-1294.5 691,-1294.5 691,-1218.67 691,-1218.67"/>
<polygon fill="#7b8894" stroke="#7b8894" points="694.5,-1218.67 691,-1208.67 687.5,-1218.67 694.5,-1218.67"/>
<text text-anchor="middle" x="518" y="-1264.6" font-family="Sans-Serif" font-size="13.00" fill="darkgrey">t_realise</text>
</g>
<!-- 7edc11aec95345e4b133c764b8a8f0b7 -->
<g id="node37" class="node">
<title>7edc11aec95345e4b133c764b8a8f0b7</title>
<image xlink:href="icons/bigquery.png" width="101px" height="101px" preserveAspectRatio="xMinYMin meet" x="1066.5" y="-1960.5"/>
<text text-anchor="middle" x="1117" y="-1845.1" font-family="Sans-Serif" font-size="13.00" fill="#2d3436">comper.t_datastudio_contrats_offres_energie_date_lead</text>
</g>
<!-- fa060c9b9c234110b24251d6b9dcd2aa&#45;&gt;7edc11aec95345e4b133c764b8a8f0b7 -->
<g id="edge38" class="edge">
<title>fa060c9b9c234110b24251d6b9dcd2aa&#45;&gt;7edc11aec95345e4b133c764b8a8f0b7</title>
<path fill="none" stroke="#7b8894" d="M741.1,-1716.17C854.08,-1716.17 1117,-1716.17 1117,-1716.17 1117,-1716.17 1117,-1831.39 1117,-1831.39"/>
<polygon fill="#7b8894" stroke="#7b8894" points="1113.5,-1831.39 1117,-1841.39 1120.5,-1831.39 1113.5,-1831.39"/>
<text text-anchor="middle" x="870.5" y="-1844.6" font-family="Sans-Serif" font-size="13.00" fill="darkgrey">t_contrats_offres_energie_date_lead</text>
</g>
<!-- 6310ba59ca574867bb9cda3a5b2906b8&#45;&gt;ca3371dccbb34a49af54e59055cd7034 -->
<g id="edge14" class="edge">
<title>6310ba59ca574867bb9cda3a5b2906b8&#45;&gt;ca3371dccbb34a49af54e59055cd7034</title>
<path fill="none" stroke="#7b8894" d="M1167.52,-959.5C1261.1,-959.5 1452,-959.5 1452,-959.5 1452,-959.5 1452,-1583.33 1452,-1583.33 1452,-1583.33 1511.75,-1583.33 1511.75,-1583.33"/>
<polygon fill="#7b8894" stroke="#7b8894" points="1511.75,-1586.83 1521.75,-1583.33 1511.75,-1579.83 1511.75,-1586.83"/>
<text text-anchor="middle" x="1378" y="-1074.6" font-family="Sans-Serif" font-size="13.00" fill="darkgrey">t_contrats_offres_energie_hors_depenses</text>
</g>
<!-- 01e6abc01ab541dc9354131310ea8ebe -->
<g id="node11" class="node">
<title>01e6abc01ab541dc9354131310ea8ebe</title>
<image xlink:href="icons/bigquery.png" width="101px" height="101px" preserveAspectRatio="xMinYMin meet" x="640" y="-959.5"/>
<text text-anchor="middle" x="690.5" y="-844.1" font-family="Sans-Serif" font-size="13.00" fill="#2d3436">comper.e_ds_comper_saisonnalite</text>
</g>
<!-- 01e6abc01ab541dc9354131310ea8ebe&#45;&gt;6310ba59ca574867bb9cda3a5b2906b8 -->
<g id="edge9" class="edge">
<title>01e6abc01ab541dc9354131310ea8ebe&#45;&gt;6310ba59ca574867bb9cda3a5b2906b8</title>
<path fill="none" stroke="#7b8894" d="M741.1,-909C741.1,-909 1056.47,-909 1056.47,-909"/>
<polygon fill="#7b8894" stroke="#7b8894" points="1056.47,-912.5 1066.47,-909 1056.47,-905.5 1056.47,-912.5"/>
<text text-anchor="middle" x="870.5" y="-912.6" font-family="Sans-Serif" font-size="13.00" fill="darkgrey">t_point_de_sortie</text>
</g>
<!-- c3c75128b2be429dafef5fad62df5da0 -->
<g id="node12" class="node">
<title>c3c75128b2be429dafef5fad62df5da0</title>
<image xlink:href="icons/bigquery.png" width="101px" height="101px" preserveAspectRatio="xMinYMin meet" x="1066.5" y="-1679.5"/>
<text text-anchor="middle" x="1117" y="-1564.1" font-family="Sans-Serif" font-size="13.00" fill="#2d3436">comper.e_datastudio_contrats_offres_energie_2018</text>
</g>
<!-- c3c75128b2be429dafef5fad62df5da0&#45;&gt;ca3371dccbb34a49af54e59055cd7034 -->
<g id="edge10" class="edge">
<title>c3c75128b2be429dafef5fad62df5da0&#45;&gt;ca3371dccbb34a49af54e59055cd7034</title>
<path fill="none" stroke="#7b8894" d="M1167.93,-1674.67C1167.93,-1674.67 1511.9,-1674.67 1511.9,-1674.67"/>
<polygon fill="#7b8894" stroke="#7b8894" points="1511.9,-1678.17 1521.9,-1674.67 1511.9,-1671.17 1511.9,-1678.17"/>
<text text-anchor="middle" x="1378" y="-1632.6" font-family="Sans-Serif" font-size="13.00" fill="darkgrey">t_contrats_offres_energie_hors_depenses</text>
</g>
<!-- 79bc79b71f604e82af014dc66996f8a6 -->
<g id="node17" class="node">
<title>79bc79b71f604e82af014dc66996f8a6</title>
<image xlink:href="icons/bigquery.png" width="101px" height="101px" preserveAspectRatio="xMinYMin meet" x="1828.5" y="-1679.5"/>
<text text-anchor="middle" x="1879" y="-1564.1" font-family="Sans-Serif" font-size="13.00" fill="#2d3436">comper.t_datastudio_depenses_acquisition</text>
</g>
<!-- ca3371dccbb34a49af54e59055cd7034&#45;&gt;79bc79b71f604e82af014dc66996f8a6 -->
<g id="edge16" class="edge">
<title>ca3371dccbb34a49af54e59055cd7034&#45;&gt;79bc79b71f604e82af014dc66996f8a6</title>
<path fill="none" stroke="#7b8894" d="M1623.11,-1629C1623.11,-1629 1818.31,-1629 1818.31,-1629"/>
<polygon fill="#7b8894" stroke="#7b8894" points="1818.31,-1632.5 1828.31,-1629 1818.31,-1625.5 1818.31,-1632.5"/>
<text text-anchor="middle" x="1715" y="-1632.6" font-family="Sans-Serif" font-size="13.00" fill="darkgrey">t_depenses_acquisition</text>
</g>
<!-- 43de678081614310a4dbf7655a785c85 -->
<g id="node19" class="node">
<title>43de678081614310a4dbf7655a785c85</title>
<image xlink:href="icons/bigquery.png" width="101px" height="101px" preserveAspectRatio="xMinYMin meet" x="1828.5" y="-1960.5"/>
<text text-anchor="middle" x="1879" y="-1845.1" font-family="Sans-Serif" font-size="13.00" fill="#2d3436">comper.t_datastudio_depenses_traitement</text>
</g>
<!-- ca3371dccbb34a49af54e59055cd7034&#45;&gt;43de678081614310a4dbf7655a785c85 -->
<g id="edge18" class="edge">
<title>ca3371dccbb34a49af54e59055cd7034&#45;&gt;43de678081614310a4dbf7655a785c85</title>
<path fill="none" stroke="#7b8894" d="M1590,-1697.52C1590,-1717.87 1590,-1734.83 1590,-1734.83 1590,-1734.83 1879,-1734.83 1879,-1734.83 1879,-1734.83 1879,-1831.27 1879,-1831.27"/>
<polygon fill="#7b8894" stroke="#7b8894" points="1875.5,-1831.27 1879,-1841.27 1882.5,-1831.27 1875.5,-1831.27"/>
<text text-anchor="middle" x="1715" y="-1844.6" font-family="Sans-Serif" font-size="13.00" fill="darkgrey">t_depenses_traitement</text>
</g>
<!-- 7a2c568520aa4b639d65ed8a07968e14 -->
<g id="node21" class="node">
<title>7a2c568520aa4b639d65ed8a07968e14</title>
<image xlink:href="icons/bigquery.png" width="101px" height="101px" preserveAspectRatio="xMinYMin meet" x="2149" y="-1960.5"/>
<text text-anchor="middle" x="2199.5" y="-1845.1" font-family="Sans-Serif" font-size="13.00" fill="#2d3436">comper.l_datastudio_contrats_offres_energie</text>
</g>
<!-- ca3371dccbb34a49af54e59055cd7034&#45;&gt;7a2c568520aa4b639d65ed8a07968e14 -->
<g id="edge20" class="edge">
<title>ca3371dccbb34a49af54e59055cd7034&#45;&gt;7a2c568520aa4b639d65ed8a07968e14</title>
<path fill="none" stroke="#7b8894" d="M1556,-1697.69C1556,-1752.44 1556,-1820 1556,-1820 1556,-1820 2200,-1820 2200,-1820 2200,-1820 2200,-1831.33 2200,-1831.33"/>
<polygon fill="#7b8894" stroke="#7b8894" points="2196.5,-1831.33 2200,-1841.33 2203.5,-1831.33 2196.5,-1831.33"/>
<text text-anchor="middle" x="1879" y="-1787.6" font-family="Sans-Serif" font-size="13.00" fill="darkgrey">t_contrats_offres_energie</text>
</g>
<!-- 968c8810004a4efc92079625007b2cbf -->
<g id="node14" class="node">
<title>968c8810004a4efc92079625007b2cbf</title>
<image xlink:href="icons/bigquery.png" width="101px" height="101px" preserveAspectRatio="xMinYMin meet" x="1066.5" y="-1499.5"/>
<text text-anchor="middle" x="1117" y="-1384.1" font-family="Sans-Serif" font-size="13.00" fill="#2d3436">comper.e_ds_comper_objectifs_2018_seulement</text>
</g>
<!-- 968c8810004a4efc92079625007b2cbf&#45;&gt;ca3371dccbb34a49af54e59055cd7034 -->
<g id="edge12" class="edge">
<title>968c8810004a4efc92079625007b2cbf&#45;&gt;ca3371dccbb34a49af54e59055cd7034</title>
<path fill="none" stroke="#7b8894" d="M1117,-1517.54C1117,-1533.62 1117,-1546.17 1117,-1546.17 1117,-1546.17 1556,-1546.17 1556,-1546.17 1556,-1546.17 1556,-1550.22 1556,-1550.22"/>
<polygon fill="#7b8894" stroke="#7b8894" points="1552.5,-1550.22 1556,-1560.22 1559.5,-1550.22 1552.5,-1550.22"/>
<text text-anchor="middle" x="1378" y="-1511.6" font-family="Sans-Serif" font-size="13.00" fill="darkgrey">t_contrats_offres_energie_hors_depenses</text>
</g>
<!-- 13864dc42ad54d04a436be4cef79a083 -->
<g id="node15" class="node">
<title>13864dc42ad54d04a436be4cef79a083</title>
<image xlink:href="icons/bigquery.png" width="101px" height="101px" preserveAspectRatio="xMinYMin meet" x="1066.5" y="-1319.5"/>
<text text-anchor="middle" x="1117" y="-1204.1" font-family="Sans-Serif" font-size="13.00" fill="#2d3436">comper.e_ds_comper_objectifs_2019_seulement</text>
</g>
<!-- 13864dc42ad54d04a436be4cef79a083&#45;&gt;ca3371dccbb34a49af54e59055cd7034 -->
<g id="edge13" class="edge">
<title>13864dc42ad54d04a436be4cef79a083&#45;&gt;ca3371dccbb34a49af54e59055cd7034</title>
<path fill="none" stroke="#7b8894" d="M1167.68,-1319.5C1201.2,-1319.5 1239,-1319.5 1239,-1319.5 1239,-1319.5 1239,-1651.83 1239,-1651.83 1239,-1651.83 1511.85,-1651.83 1511.85,-1651.83"/>
<polygon fill="#7b8894" stroke="#7b8894" points="1511.85,-1655.33 1521.85,-1651.83 1511.85,-1648.33 1511.85,-1655.33"/>
<text text-anchor="middle" x="1378" y="-1360.6" font-family="Sans-Serif" font-size="13.00" fill="darkgrey">t_contrats_offres_energie_hors_depenses</text>
</g>
<!-- 4f0ad98203cb4644963735c47c527ca0 -->
<g id="node16" class="node">
<title>4f0ad98203cb4644963735c47c527ca0</title>
<image xlink:href="icons/bigquery.png" width="101px" height="101px" preserveAspectRatio="xMinYMin meet" x="1066.5" y="-1139.5"/>
<text text-anchor="middle" x="1117" y="-1024.1" font-family="Sans-Serif" font-size="13.00" fill="#2d3436">comper.e_ds_comper_objectifs</text>
</g>
<!-- 4f0ad98203cb4644963735c47c527ca0&#45;&gt;ca3371dccbb34a49af54e59055cd7034 -->
<g id="edge15" class="edge">
<title>4f0ad98203cb4644963735c47c527ca0&#45;&gt;ca3371dccbb34a49af54e59055cd7034</title>
<path fill="none" stroke="#7b8894" d="M1167.59,-1139.5C1244.25,-1139.5 1381,-1139.5 1381,-1139.5 1381,-1139.5 1381,-1606.17 1381,-1606.17 1381,-1606.17 1511.94,-1606.17 1511.94,-1606.17"/>
<polygon fill="#7b8894" stroke="#7b8894" points="1511.94,-1609.67 1521.94,-1606.17 1511.94,-1602.67 1511.94,-1609.67"/>
<text text-anchor="middle" x="1378" y="-1195.6" font-family="Sans-Serif" font-size="13.00" fill="darkgrey">t_contrats_offres_energie_hors_depenses</text>
</g>
<!-- 79bc79b71f604e82af014dc66996f8a6&#45;&gt;7a2c568520aa4b639d65ed8a07968e14 -->
<g id="edge21" class="edge">
<title>79bc79b71f604e82af014dc66996f8a6&#45;&gt;7a2c568520aa4b639d65ed8a07968e14</title>
<path fill="none" stroke="#7b8894" d="M1929.79,-1679.5C1964.04,-1679.5 2003,-1679.5 2003,-1679.5 2003,-1679.5 2003,-1910 2003,-1910 2003,-1910 2138.9,-1910 2138.9,-1910"/>
<polygon fill="#7b8894" stroke="#7b8894" points="2138.9,-1913.5 2148.9,-1910 2138.9,-1906.5 2138.9,-1913.5"/>
<text text-anchor="middle" x="2050" y="-1699.6" font-family="Sans-Serif" font-size="13.00" fill="darkgrey">t_contrats_offres_energie</text>
</g>
<!-- 7e26b60f8f024451afba79fab2ce61d8 -->
<g id="node18" class="node">
<title>7e26b60f8f024451afba79fab2ce61d8</title>
<image xlink:href="icons/bigquery.png" width="101px" height="101px" preserveAspectRatio="xMinYMin meet" x="1522" y="-1499.5"/>
<text text-anchor="middle" x="1572.5" y="-1384.1" font-family="Sans-Serif" font-size="13.00" fill="#2d3436">depenses.e_gsheet_depenses_acquisition</text>
</g>
<!-- 7e26b60f8f024451afba79fab2ce61d8&#45;&gt;79bc79b71f604e82af014dc66996f8a6 -->
<g id="edge17" class="edge">
<title>7e26b60f8f024451afba79fab2ce61d8&#45;&gt;79bc79b71f604e82af014dc66996f8a6</title>
<path fill="none" stroke="#7b8894" d="M1590,-1517.78C1590,-1526.16 1590,-1531.83 1590,-1531.83 1590,-1531.83 1879,-1531.83 1879,-1531.83 1879,-1531.83 1879,-1550.46 1879,-1550.46"/>
<polygon fill="#7b8894" stroke="#7b8894" points="1875.5,-1550.46 1879,-1560.46 1882.5,-1550.46 1875.5,-1550.46"/>
<text text-anchor="middle" x="1715" y="-1511.6" font-family="Sans-Serif" font-size="13.00" fill="darkgrey">t_depenses_acquisition</text>
</g>
<!-- 43de678081614310a4dbf7655a785c85&#45;&gt;7a2c568520aa4b639d65ed8a07968e14 -->
<g id="edge22" class="edge">
<title>43de678081614310a4dbf7655a785c85&#45;&gt;7a2c568520aa4b639d65ed8a07968e14</title>
<path fill="none" stroke="#7b8894" d="M1929.78,-1944.25C1929.78,-1944.25 2138.95,-1944.25 2138.95,-1944.25"/>
<polygon fill="#7b8894" stroke="#7b8894" points="2138.95,-1947.75 2148.95,-1944.25 2138.95,-1940.75 2138.95,-1947.75"/>
<text text-anchor="middle" x="2050" y="-1913.6" font-family="Sans-Serif" font-size="13.00" fill="darkgrey">t_contrats_offres_energie</text>
</g>
<!-- 849ef0249682472191f2431f14c171e0 -->
<g id="node20" class="node">
<title>849ef0249682472191f2431f14c171e0</title>
<image xlink:href="icons/bigquery.png" width="101px" height="101px" preserveAspectRatio="xMinYMin meet" x="1522" y="-1960.5"/>
<text text-anchor="middle" x="1572.5" y="-1845.1" font-family="Sans-Serif" font-size="13.00" fill="#2d3436">depenses.e_gsheet_depenses_traitement</text>
</g>
<!-- 849ef0249682472191f2431f14c171e0&#45;&gt;43de678081614310a4dbf7655a785c85 -->
<g id="edge19" class="edge">
<title>849ef0249682472191f2431f14c171e0&#45;&gt;43de678081614310a4dbf7655a785c85</title>
<path fill="none" stroke="#7b8894" d="M1623.11,-1910C1623.11,-1910 1818.31,-1910 1818.31,-1910"/>
<polygon fill="#7b8894" stroke="#7b8894" points="1818.31,-1913.5 1828.31,-1910 1818.31,-1906.5 1818.31,-1913.5"/>
<text text-anchor="middle" x="1715" y="-1913.6" font-family="Sans-Serif" font-size="13.00" fill="darkgrey">t_depenses_traitement</text>
</g>
<!-- ed579a70a8164f8880d5d9bdb9c05d1a -->
<g id="node23" class="node">
<title>ed579a70a8164f8880d5d9bdb9c05d1a</title>
<image xlink:href="icons/bigquery.png" width="101px" height="101px" preserveAspectRatio="xMinYMin meet" x="2490" y="-1060.5"/>
<text text-anchor="middle" x="2540.5" y="-945.1" font-family="Sans-Serif" font-size="13.00" fill="#2d3436">comper.l_v_digi_to_ds_comper_ventes_digitales</text>
</g>
<!-- 7a2c568520aa4b639d65ed8a07968e14&#45;&gt;ed579a70a8164f8880d5d9bdb9c05d1a -->
<g id="edge24" class="edge">
<title>7a2c568520aa4b639d65ed8a07968e14&#45;&gt;ed579a70a8164f8880d5d9bdb9c05d1a</title>
<path fill="none" stroke="#7b8894" d="M2250.14,-1910C2352.64,-1910 2575,-1910 2575,-1910 2575,-1910 2575,-1088.76 2575,-1088.76"/>
<polygon fill="#7b8894" stroke="#7b8894" points="2578.5,-1088.76 2575,-1078.76 2571.5,-1088.76 2578.5,-1088.76"/>
<text text-anchor="middle" x="2370" y="-1798.6" font-family="Sans-Serif" font-size="13.00" fill="darkgrey">l_to_ds_comper_ventes_digitales</text>
</g>
<!-- 612b28d9ee5543e69bbecfc3b3e8096a -->
<g id="node22" class="node">
<title>612b28d9ee5543e69bbecfc3b3e8096a</title>
<image xlink:href="icons/bigquery.png" width="101px" height="101px" preserveAspectRatio="xMinYMin meet" x="1828.5" y="-1499.5"/>
<text text-anchor="middle" x="1879" y="-1384.1" font-family="Sans-Serif" font-size="13.00" fill="#2d3436">comper.l_datastudio_contrats_offres_energie_avant_2021</text>
</g>
<!-- 612b28d9ee5543e69bbecfc3b3e8096a&#45;&gt;7a2c568520aa4b639d65ed8a07968e14 -->
<g id="edge23" class="edge">
<title>612b28d9ee5543e69bbecfc3b3e8096a&#45;&gt;7a2c568520aa4b639d65ed8a07968e14</title>
<path fill="none" stroke="#7b8894" d="M1929.73,-1499.5C1988.1,-1499.5 2076,-1499.5 2076,-1499.5 2076,-1499.5 2076,-1875.75 2076,-1875.75 2076,-1875.75 2138.91,-1875.75 2138.91,-1875.75"/>
<polygon fill="#7b8894" stroke="#7b8894" points="2138.91,-1879.25 2148.91,-1875.75 2138.91,-1872.25 2138.91,-1879.25"/>
<text text-anchor="middle" x="2050" y="-1544.6" font-family="Sans-Serif" font-size="13.00" fill="darkgrey">t_contrats_offres_energie</text>
</g>
<!-- 7007ba112af74d5886bbfb6d03616d9b -->
<g id="node24" class="node">
<title>7007ba112af74d5886bbfb6d03616d9b</title>
<image xlink:href="icons/bigquery.png" width="101px" height="101px" preserveAspectRatio="xMinYMin meet" x="2149" y="-1780.5"/>
<text text-anchor="middle" x="2199.5" y="-1665.1" font-family="Sans-Serif" font-size="13.00" fill="#2d3436">comper.l_ama_to_ds_comper_contrats_services</text>
</g>
<!-- 7007ba112af74d5886bbfb6d03616d9b&#45;&gt;ed579a70a8164f8880d5d9bdb9c05d1a -->
<g id="edge25" class="edge">
<title>7007ba112af74d5886bbfb6d03616d9b&#45;&gt;ed579a70a8164f8880d5d9bdb9c05d1a</title>
<path fill="none" stroke="#7b8894" d="M2250.1,-1730C2348.92,-1730 2558,-1730 2558,-1730 2558,-1730 2558,-1088.71 2558,-1088.71"/>
<polygon fill="#7b8894" stroke="#7b8894" points="2561.5,-1088.71 2558,-1078.71 2554.5,-1088.71 2561.5,-1088.71"/>
<text text-anchor="middle" x="2370" y="-1622.6" font-family="Sans-Serif" font-size="13.00" fill="darkgrey">l_to_ds_comper_ventes_digitales</text>
</g>
<!-- b1d9cef7e345473eb22a81f75e662186 -->
<g id="node25" class="node">
<title>b1d9cef7e345473eb22a81f75e662186</title>
<image xlink:href="icons/bigquery.png" width="101px" height="101px" preserveAspectRatio="xMinYMin meet" x="2149" y="-1600.5"/>
<text text-anchor="middle" x="2199.5" y="-1485.1" font-family="Sans-Serif" font-size="13.00" fill="#2d3436">comper.l_ama_to_ds_comper_options_vertes</text>
</g>
<!-- b1d9cef7e345473eb22a81f75e662186&#45;&gt;ed579a70a8164f8880d5d9bdb9c05d1a -->
<g id="edge26" class="edge">
<title>b1d9cef7e345473eb22a81f75e662186&#45;&gt;ed579a70a8164f8880d5d9bdb9c05d1a</title>
<path fill="none" stroke="#7b8894" d="M2250.26,-1550C2345.39,-1550 2541,-1550 2541,-1550 2541,-1550 2541,-1088.67 2541,-1088.67"/>
<polygon fill="#7b8894" stroke="#7b8894" points="2544.5,-1088.67 2541,-1078.67 2537.5,-1088.67 2544.5,-1088.67"/>
<text text-anchor="middle" x="2370" y="-1449.6" font-family="Sans-Serif" font-size="13.00" fill="darkgrey">l_to_ds_comper_ventes_digitales</text>
</g>
<!-- 7ad5fb4a29a74cdebcc5044126c10d04 -->
<g id="node26" class="node">
<title>7ad5fb4a29a74cdebcc5044126c10d04</title>
<image xlink:href="icons/bigquery.png" width="101px" height="101px" preserveAspectRatio="xMinYMin meet" x="2149" y="-1420.5"/>
<text text-anchor="middle" x="2199.5" y="-1305.1" font-family="Sans-Serif" font-size="13.00" fill="#2d3436">comper.l_ama_to_ds_comper_t_ama_parrainage</text>
</g>
<!-- 7ad5fb4a29a74cdebcc5044126c10d04&#45;&gt;ed579a70a8164f8880d5d9bdb9c05d1a -->
<g id="edge27" class="edge">
<title>7ad5fb4a29a74cdebcc5044126c10d04&#45;&gt;ed579a70a8164f8880d5d9bdb9c05d1a</title>
<path fill="none" stroke="#7b8894" d="M2250.2,-1370C2341.47,-1370 2524,-1370 2524,-1370 2524,-1370 2524,-1088.56 2524,-1088.56"/>
<polygon fill="#7b8894" stroke="#7b8894" points="2527.5,-1088.56 2524,-1078.56 2520.5,-1088.56 2527.5,-1088.56"/>
<text text-anchor="middle" x="2370" y="-1284.6" font-family="Sans-Serif" font-size="13.00" fill="darkgrey">l_to_ds_comper_ventes_digitales</text>
</g>
<!-- 02a87e8c7d5147eb908bd5fcbb07bd9d -->
<g id="node27" class="node">
<title>02a87e8c7d5147eb908bd5fcbb07bd9d</title>
<image xlink:href="icons/bigquery.png" width="101px" height="101px" preserveAspectRatio="xMinYMin meet" x="2149" y="-1240.5"/>
<text text-anchor="middle" x="2199.5" y="-1125.1" font-family="Sans-Serif" font-size="13.00" fill="#2d3436">comper.l_ga_to_ds_comper_e_gsheet_cee_souscriptions</text>
</g>
<!-- 02a87e8c7d5147eb908bd5fcbb07bd9d&#45;&gt;ed579a70a8164f8880d5d9bdb9c05d1a -->
<g id="edge28" class="edge">
<title>02a87e8c7d5147eb908bd5fcbb07bd9d&#45;&gt;ed579a70a8164f8880d5d9bdb9c05d1a</title>
<path fill="none" stroke="#7b8894" d="M2250.28,-1190C2337.62,-1190 2507,-1190 2507,-1190 2507,-1190 2507,-1088.56 2507,-1088.56"/>
<polygon fill="#7b8894" stroke="#7b8894" points="2510.5,-1088.56 2507,-1078.56 2503.5,-1088.56 2510.5,-1088.56"/>
<text text-anchor="middle" x="2370" y="-1134.6" font-family="Sans-Serif" font-size="13.00" fill="darkgrey">l_to_ds_comper_ventes_digitales</text>
</g>
<!-- aac88f24ff7644e19ec6ce0b58898921 -->
<g id="node28" class="node">
<title>aac88f24ff7644e19ec6ce0b58898921</title>
<image xlink:href="icons/bigquery.png" width="101px" height="101px" preserveAspectRatio="xMinYMin meet" x="2149" y="-1060.5"/>
<text text-anchor="middle" x="2199.5" y="-945.1" font-family="Sans-Serif" font-size="13.00" fill="#2d3436">comper.l_ama_to_ds_comper_bout_en_bout_equipements</text>
</g>
<!-- aac88f24ff7644e19ec6ce0b58898921&#45;&gt;ed579a70a8164f8880d5d9bdb9c05d1a -->
<g id="edge29" class="edge">
<title>aac88f24ff7644e19ec6ce0b58898921&#45;&gt;ed579a70a8164f8880d5d9bdb9c05d1a</title>
<path fill="none" stroke="#7b8894" d="M2250.18,-1010C2250.18,-1010 2479.82,-1010 2479.82,-1010"/>
<polygon fill="#7b8894" stroke="#7b8894" points="2479.82,-1013.5 2489.82,-1010 2479.82,-1006.5 2479.82,-1013.5"/>
<text text-anchor="middle" x="2370" y="-1013.6" font-family="Sans-Serif" font-size="13.00" fill="darkgrey">l_to_ds_comper_ventes_digitales</text>
</g>
<!-- d4dcef1c706b45debfc997fe0ad4cc34 -->
<g id="node29" class="node">
<title>d4dcef1c706b45debfc997fe0ad4cc34</title>
<image xlink:href="icons/bigquery.png" width="101px" height="101px" preserveAspectRatio="xMinYMin meet" x="2149" y="-880.5"/>
<text text-anchor="middle" x="2199.5" y="-765.1" font-family="Sans-Serif" font-size="13.00" fill="#2d3436">comper.e_ds_comper_objectifs_hors_energie</text>
</g>
<!-- d4dcef1c706b45debfc997fe0ad4cc34&#45;&gt;ed579a70a8164f8880d5d9bdb9c05d1a -->
<g id="edge30" class="edge">
<title>d4dcef1c706b45debfc997fe0ad4cc34&#45;&gt;ed579a70a8164f8880d5d9bdb9c05d1a</title>
<path fill="none" stroke="#7b8894" d="M2250.28,-830C2337.62,-830 2507,-830 2507,-830 2507,-830 2507,-931.44 2507,-931.44"/>
<polygon fill="#7b8894" stroke="#7b8894" points="2503.5,-931.44 2507,-941.44 2510.5,-931.44 2503.5,-931.44"/>
<text text-anchor="middle" x="2370" y="-892.6" font-family="Sans-Serif" font-size="13.00" fill="darkgrey">l_to_ds_comper_ventes_digitales</text>
</g>
<!-- 3ef3cf3af6844c498722accf0758c42b -->
<g id="node30" class="node">
<title>3ef3cf3af6844c498722accf0758c42b</title>
<image xlink:href="icons/bigquery.png" width="101px" height="101px" preserveAspectRatio="xMinYMin meet" x="2149" y="-700.5"/>
<text text-anchor="middle" x="2199.5" y="-585.1" font-family="Sans-Serif" font-size="13.00" fill="#2d3436">comper.l_mypower_to_ds_comper_mypower</text>
</g>
<!-- 3ef3cf3af6844c498722accf0758c42b&#45;&gt;ed579a70a8164f8880d5d9bdb9c05d1a -->
<g id="edge31" class="edge">
<title>3ef3cf3af6844c498722accf0758c42b&#45;&gt;ed579a70a8164f8880d5d9bdb9c05d1a</title>
<path fill="none" stroke="#7b8894" d="M2250.2,-650C2341.47,-650 2524,-650 2524,-650 2524,-650 2524,-931.44 2524,-931.44"/>
<polygon fill="#7b8894" stroke="#7b8894" points="2520.5,-931.44 2524,-941.44 2527.5,-931.44 2520.5,-931.44"/>
<text text-anchor="middle" x="2370" y="-741.6" font-family="Sans-Serif" font-size="13.00" fill="darkgrey">l_to_ds_comper_ventes_digitales</text>
</g>
<!-- 6a993eb9a126428081bfaf10db4e0f8f -->
<g id="node31" class="node">
<title>6a993eb9a126428081bfaf10db4e0f8f</title>
<image xlink:href="icons/bigquery.png" width="101px" height="101px" preserveAspectRatio="xMinYMin meet" x="2149" y="-520.5"/>
<text text-anchor="middle" x="2199.5" y="-405.1" font-family="Sans-Serif" font-size="13.00" fill="#2d3436">comper.l_ama_to_ds_comper_prelevement_mensualisation</text>
</g>
<!-- 6a993eb9a126428081bfaf10db4e0f8f&#45;&gt;ed579a70a8164f8880d5d9bdb9c05d1a -->
<g id="edge32" class="edge">
<title>6a993eb9a126428081bfaf10db4e0f8f&#45;&gt;ed579a70a8164f8880d5d9bdb9c05d1a</title>
<path fill="none" stroke="#7b8894" d="M2250.26,-470C2345.39,-470 2541,-470 2541,-470 2541,-470 2541,-931.33 2541,-931.33"/>
<polygon fill="#7b8894" stroke="#7b8894" points="2537.5,-931.33 2541,-941.33 2544.5,-931.33 2537.5,-931.33"/>
<text text-anchor="middle" x="2370" y="-576.6" font-family="Sans-Serif" font-size="13.00" fill="darkgrey">l_to_ds_comper_ventes_digitales</text>
</g>
<!-- 4cf07718a34b44a7970aee6f3de7431f -->
<g id="node32" class="node">
<title>4cf07718a34b44a7970aee6f3de7431f</title>
<image xlink:href="icons/bigquery.png" width="101px" height="101px" preserveAspectRatio="xMinYMin meet" x="2149" y="-340.5"/>
<text text-anchor="middle" x="2199.5" y="-225.1" font-family="Sans-Serif" font-size="13.00" fill="#2d3436">comper.l_ama_to_ds_comper_activation_energie</text>
</g>
<!-- 4cf07718a34b44a7970aee6f3de7431f&#45;&gt;ed579a70a8164f8880d5d9bdb9c05d1a -->
<g id="edge33" class="edge">
<title>4cf07718a34b44a7970aee6f3de7431f&#45;&gt;ed579a70a8164f8880d5d9bdb9c05d1a</title>
<path fill="none" stroke="#7b8894" d="M2250.1,-290C2348.92,-290 2558,-290 2558,-290 2558,-290 2558,-931.29 2558,-931.29"/>
<polygon fill="#7b8894" stroke="#7b8894" points="2554.5,-931.29 2558,-941.29 2561.5,-931.29 2554.5,-931.29"/>
<text text-anchor="middle" x="2370" y="-403.6" font-family="Sans-Serif" font-size="13.00" fill="darkgrey">l_to_ds_comper_ventes_digitales</text>
</g>
<!-- 6252f3ac1c23478680a92080706e7975 -->
<g id="node33" class="node">
<title>6252f3ac1c23478680a92080706e7975</title>
<image xlink:href="icons/bigquery.png" width="101px" height="101px" preserveAspectRatio="xMinYMin meet" x="2149" y="-160.5"/>
<text text-anchor="middle" x="2199.5" y="-45.1" font-family="Sans-Serif" font-size="13.00" fill="#2d3436">comper.l_ga_to_ds_comper_sessions</text>
</g>
<!-- 6252f3ac1c23478680a92080706e7975&#45;&gt;ed579a70a8164f8880d5d9bdb9c05d1a -->
<g id="edge34" class="edge">
<title>6252f3ac1c23478680a92080706e7975&#45;&gt;ed579a70a8164f8880d5d9bdb9c05d1a</title>
<path fill="none" stroke="#7b8894" d="M2250.14,-110C2352.64,-110 2575,-110 2575,-110 2575,-110 2575,-931.24 2575,-931.24"/>
<polygon fill="#7b8894" stroke="#7b8894" points="2571.5,-931.24 2575,-941.24 2578.5,-931.24 2571.5,-931.24"/>
<text text-anchor="middle" x="2370" y="-227.6" font-family="Sans-Serif" font-size="13.00" fill="darkgrey">l_to_ds_comper_ventes_digitales</text>
</g>
<!-- bc07f7849f154fea965b171344503bd6 -->
<g id="node34" class="node">
<title>bc07f7849f154fea965b171344503bd6</title>
<image xlink:href="icons/bigquery.png" width="101px" height="101px" preserveAspectRatio="xMinYMin meet" x="295" y="-1960.5"/>
<text text-anchor="middle" x="345.5" y="-1845.1" font-family="Sans-Serif" font-size="13.00" fill="#2d3436">amadeus.t_ama_appels_date_lead</text>
</g>
<!-- da6e49e67d9f482ba94da982c7cc3d3a -->
<g id="node35" class="node">
<title>da6e49e67d9f482ba94da982c7cc3d3a</title>
<image xlink:href="icons/bigquery.png" width="101px" height="101px" preserveAspectRatio="xMinYMin meet" x="640" y="-1960.5"/>
<text text-anchor="middle" x="690.5" y="-1845.1" font-family="Sans-Serif" font-size="13.00" fill="#2d3436">comper.t_datastudio_realise_non_debiaise_date_lead</text>
</g>
<!-- bc07f7849f154fea965b171344503bd6&#45;&gt;da6e49e67d9f482ba94da982c7cc3d3a -->
<g id="edge35" class="edge">
<title>bc07f7849f154fea965b171344503bd6&#45;&gt;da6e49e67d9f482ba94da982c7cc3d3a</title>
<path fill="none" stroke="#7b8894" d="M396.04,-1910C396.04,-1910 629.83,-1910 629.83,-1910"/>
<polygon fill="#7b8894" stroke="#7b8894" points="629.83,-1913.5 639.83,-1910 629.83,-1906.5 629.83,-1913.5"/>
<text text-anchor="middle" x="518" y="-1913.6" font-family="Sans-Serif" font-size="13.00" fill="darkgrey">t_realise_non_debiaise_date_lead</text>
</g>
<!-- da6e49e67d9f482ba94da982c7cc3d3a&#45;&gt;7edc11aec95345e4b133c764b8a8f0b7 -->
<g id="edge37" class="edge">
<title>da6e49e67d9f482ba94da982c7cc3d3a&#45;&gt;7edc11aec95345e4b133c764b8a8f0b7</title>
<path fill="none" stroke="#7b8894" d="M741.1,-1910C741.1,-1910 1056.47,-1910 1056.47,-1910"/>
<polygon fill="#7b8894" stroke="#7b8894" points="1056.47,-1913.5 1066.47,-1910 1056.47,-1906.5 1056.47,-1913.5"/>
<text text-anchor="middle" x="870.5" y="-1913.6" font-family="Sans-Serif" font-size="13.00" fill="darkgrey">t_contrats_offres_energie_date_lead</text>
</g>
<!-- 9485259d384643148b059271b5fd875e -->
<g id="node36" class="node">
<title>9485259d384643148b059271b5fd875e</title>
<image xlink:href="icons/bigquery.png" width="101px" height="101px" preserveAspectRatio="xMinYMin meet" x="295" y="-1780.5"/>
<text text-anchor="middle" x="345.5" y="-1665.1" font-family="Sans-Serif" font-size="13.00" fill="#2d3436">amadeus.t_ama_formulaires_date_lead</text>
</g>
<!-- 9485259d384643148b059271b5fd875e&#45;&gt;da6e49e67d9f482ba94da982c7cc3d3a -->
<g id="edge36" class="edge">
<title>9485259d384643148b059271b5fd875e&#45;&gt;da6e49e67d9f482ba94da982c7cc3d3a</title>
<path fill="none" stroke="#7b8894" d="M396.11,-1776C492.07,-1776 691,-1776 691,-1776 691,-1776 691,-1831.43 691,-1831.43"/>
<polygon fill="#7b8894" stroke="#7b8894" points="687.5,-1831.43 691,-1841.43 694.5,-1831.43 687.5,-1831.43"/>
<text text-anchor="middle" x="518" y="-1792.6" font-family="Sans-Serif" font-size="13.00" fill="darkgrey">t_realise_non_debiaise_date_lead</text>
</g>
</g>
</svg>
