<?xml version="1.0" encoding="UTF-8" standalone="no"?>
<!DOCTYPE svg PUBLIC "-//W3C//DTD SVG 1.1//EN"
 "http://www.w3.org/Graphics/SVG/1.1/DTD/svg11.dtd">
<!-- Generated by graphviz version 2.47.1 (20210417.1919)
 -->
<!-- Title: comper Pages: 1 -->
<svg width="1450pt" height="3024pt"
 viewBox="0.00 0.00 1450.00 3024.00" xmlns="http://www.w3.org/2000/svg" xmlns:xlink="http://www.w3.org/1999/xlink">
<g id="graph0" class="graph" transform="scale(1 1) rotate(0) translate(144 2880)">
<title>comper</title>
<text text-anchor="middle" x="581" y="-9" font-family="Sans-Serif" font-size="15.00" fill="#2d3436">comper</text>
<g id="clust1" class="cluster">
<title>cluster_comper</title>
<path fill="#e5f5fd" stroke="#aeb6be" d="M20,-33C20,-33 1142,-33 1142,-33 1148,-33 1154,-39 1154,-45 1154,-45 1154,-2716 1154,-2716 1154,-2722 1148,-2728 1142,-2728 1142,-2728 20,-2728 20,-2728 14,-2728 8,-2722 8,-2716 8,-2716 8,-45 8,-45 8,-39 14,-33 20,-33"/>
<text text-anchor="middle" x="36" y="-2714.4" font-family="Sans-Serif" font-size="12.00" fill="#2d3436">comper</text>
</g>
<!-- 654a248fa419470497f224dbc31eb486 -->
<g id="node1" class="node">
<title>654a248fa419470497f224dbc31eb486</title>
<image xlink:href="icons/storage.png" width="101px" height="101px" preserveAspectRatio="xMinYMin meet" x="16" y="-2680.5"/>
<text text-anchor="middle" x="66.5" y="-2565.1" font-family="Sans-Serif" font-size="13.00" fill="#2d3436">amadeus_bi.contrats/ama_contrats_digitaux_stor_</text>
</g>
<!-- 832faeca6e2f45b99a9246b77bf79ffc -->
<g id="node2" class="node">
<title>832faeca6e2f45b99a9246b77bf79ffc</title>
<image xlink:href="icons/bigquery.png" width="101px" height="101px" preserveAspectRatio="xMinYMin meet" x="405" y="-2680.5"/>
<text text-anchor="middle" x="455.5" y="-2565.1" font-family="Sans-Serif" font-size="13.00" fill="#2d3436">comper.e_v_digi_import_cube_valeur</text>
</g>
<!-- 654a248fa419470497f224dbc31eb486&#45;&gt;832faeca6e2f45b99a9246b77bf79ffc -->
<g id="edge1" class="edge">
<title>654a248fa419470497f224dbc31eb486&#45;&gt;832faeca6e2f45b99a9246b77bf79ffc</title>
<path fill="none" stroke="#7b8894" d="M117.35,-2630C117.35,-2630 394.94,-2630 394.94,-2630"/>
<polygon fill="#7b8894" stroke="#7b8894" points="394.94,-2633.5 404.94,-2630 394.94,-2626.5 394.94,-2633.5"/>
<text text-anchor="middle" x="261" y="-2633.6" font-family="Sans-Serif" font-size="13.00" fill="darkgrey">e_import_cube_valeur</text>
</g>
<!-- aee7b17ddf704755abe199862b81cd4f -->
<g id="node10" class="node">
<title>aee7b17ddf704755abe199862b81cd4f</title>
<image xlink:href="icons/bigquery.png" width="101px" height="101px" preserveAspectRatio="xMinYMin meet" x="704" y="-2680.5"/>
<text text-anchor="middle" x="754.5" y="-2565.1" font-family="Sans-Serif" font-size="13.00" fill="#2d3436">comper.t_v_digi_cube_valeur</text>
</g>
<!-- 832faeca6e2f45b99a9246b77bf79ffc&#45;&gt;aee7b17ddf704755abe199862b81cd4f -->
<g id="edge7" class="edge">
<title>832faeca6e2f45b99a9246b77bf79ffc&#45;&gt;aee7b17ddf704755abe199862b81cd4f</title>
<path fill="none" stroke="#7b8894" d="M506.22,-2630C506.22,-2630 693.53,-2630 693.53,-2630"/>
<polygon fill="#7b8894" stroke="#7b8894" points="693.53,-2633.5 703.53,-2630 693.53,-2626.5 693.53,-2633.5"/>
<text text-anchor="middle" x="605" y="-2633.6" font-family="Sans-Serif" font-size="13.00" fill="darkgrey">t_cube_valeur</text>
</g>
<!-- 2f3e9c8851dc40d08a72a997a8a5dd4b -->
<g id="node3" class="node">
<title>2f3e9c8851dc40d08a72a997a8a5dd4b</title>
<image xlink:href="icons/bigquery.png" width="101px" height="101px" preserveAspectRatio="xMinYMin meet" x="16" y="-2500.5"/>
<text text-anchor="middle" x="66.5" y="-2385.1" font-family="Sans-Serif" font-size="13.00" fill="#2d3436">amadeus.t_ama_contrats_appels_leviers</text>
</g>
<!-- a529af6b1944461d8eeeeb48afb24aa5 -->
<g id="node4" class="node">
<title>a529af6b1944461d8eeeeb48afb24aa5</title>
<image xlink:href="icons/bigquery.png" width="101px" height="101px" preserveAspectRatio="xMinYMin meet" x="405" y="-2500.5"/>
<text text-anchor="middle" x="455.5" y="-2385.1" font-family="Sans-Serif" font-size="13.00" fill="#2d3436">amadeus.t_ama_ventes_digitales</text>
</g>
<!-- 2f3e9c8851dc40d08a72a997a8a5dd4b&#45;&gt;a529af6b1944461d8eeeeb48afb24aa5 -->
<g id="edge2" class="edge">
<title>2f3e9c8851dc40d08a72a997a8a5dd4b&#45;&gt;a529af6b1944461d8eeeeb48afb24aa5</title>
<path fill="none" stroke="#7b8894" d="M117.35,-2450C117.35,-2450 394.94,-2450 394.94,-2450"/>
<polygon fill="#7b8894" stroke="#7b8894" points="394.94,-2453.5 404.94,-2450 394.94,-2446.5 394.94,-2453.5"/>
<text text-anchor="middle" x="261" y="-2453.6" font-family="Sans-Serif" font-size="13.00" fill="darkgrey">t_ventes_digitales</text>
</g>
<!-- 2f43bcfba93a45d48bf8f031f43e27a5 -->
<g id="node5" class="node">
<title>2f43bcfba93a45d48bf8f031f43e27a5</title>
<image xlink:href="icons/bigquery.png" width="101px" height="101px" preserveAspectRatio="xMinYMin meet" x="16" y="-2320.5"/>
<text text-anchor="middle" x="66.5" y="-2205.1" font-family="Sans-Serif" font-size="13.00" fill="#2d3436">[?config?].t_ama_contrats_formulaires</text>
</g>
<!-- 2f43bcfba93a45d48bf8f031f43e27a5&#45;&gt;a529af6b1944461d8eeeeb48afb24aa5 -->
<g id="edge3" class="edge">
<title>2f43bcfba93a45d48bf8f031f43e27a5&#45;&gt;a529af6b1944461d8eeeeb48afb24aa5</title>
<path fill="none" stroke="#7b8894" d="M67,-2338.54C67,-2354.62 67,-2367.17 67,-2367.17 67,-2367.17 439,-2367.17 439,-2367.17 439,-2367.17 439,-2371.22 439,-2371.22"/>
<polygon fill="#7b8894" stroke="#7b8894" points="435.5,-2371.22 439,-2381.22 442.5,-2371.22 435.5,-2371.22"/>
<text text-anchor="middle" x="261" y="-2332.6" font-family="Sans-Serif" font-size="13.00" fill="darkgrey">t_ventes_digitales</text>
</g>
<!-- abd47b36ab424dfe8cf8d182a2573951 -->
<g id="node6" class="node">
<title>abd47b36ab424dfe8cf8d182a2573951</title>
<image xlink:href="icons/bigquery.png" width="101px" height="101px" preserveAspectRatio="xMinYMin meet" x="16" y="-2140.5"/>
<text text-anchor="middle" x="66.5" y="-2025.1" font-family="Sans-Serif" font-size="13.00" fill="#2d3436">amadeus.t_ama_leads_appels</text>
</g>
<!-- ab34a7e52808466fb4c006337308f88d -->
<g id="node7" class="node">
<title>ab34a7e52808466fb4c006337308f88d</title>
<image xlink:href="icons/bigquery.png" width="101px" height="101px" preserveAspectRatio="xMinYMin meet" x="405" y="-2140.5"/>
<text text-anchor="middle" x="455.5" y="-2025.1" font-family="Sans-Serif" font-size="13.00" fill="#2d3436">comper.t_ama_realise</text>
</g>
<!-- abd47b36ab424dfe8cf8d182a2573951&#45;&gt;ab34a7e52808466fb4c006337308f88d -->
<g id="edge4" class="edge">
<title>abd47b36ab424dfe8cf8d182a2573951&#45;&gt;ab34a7e52808466fb4c006337308f88d</title>
<path fill="none" stroke="#7b8894" d="M117.35,-2112.83C117.35,-2112.83 394.94,-2112.83 394.94,-2112.83"/>
<polygon fill="#7b8894" stroke="#7b8894" points="394.94,-2116.33 404.94,-2112.83 394.94,-2109.33 394.94,-2116.33"/>
<text text-anchor="middle" x="261" y="-2093.6" font-family="Sans-Serif" font-size="13.00" fill="darkgrey">t_realise</text>
</g>
<!-- 1695d43d4a154664a1c8b5dd2d7b9abe -->
<g id="node11" class="node">
<title>1695d43d4a154664a1c8b5dd2d7b9abe</title>
<image xlink:href="icons/bigquery.png" width="101px" height="101px" preserveAspectRatio="xMinYMin meet" x="704" y="-2500.5"/>
<text text-anchor="middle" x="754.5" y="-2385.1" font-family="Sans-Serif" font-size="13.00" fill="#2d3436">comper.t_datastudio_point_de_sortie</text>
</g>
<!-- ab34a7e52808466fb4c006337308f88d&#45;&gt;1695d43d4a154664a1c8b5dd2d7b9abe -->
<g id="edge8" class="edge">
<title>ab34a7e52808466fb4c006337308f88d&#45;&gt;1695d43d4a154664a1c8b5dd2d7b9abe</title>
<path fill="none" stroke="#7b8894" d="M506.25,-2124.25C518.43,-2124.25 528,-2124.25 528,-2124.25 528,-2124.25 528,-2450 528,-2450 528,-2450 693.95,-2450 693.95,-2450"/>
<polygon fill="#7b8894" stroke="#7b8894" points="693.95,-2453.5 703.95,-2450 693.95,-2446.5 693.95,-2453.5"/>
<text text-anchor="middle" x="605" y="-2152.6" font-family="Sans-Serif" font-size="13.00" fill="darkgrey">t_point_de_sortie</text>
</g>
<!-- 67e9ba241f5b40678c1fec80dc5a73ff -->
<g id="node8" class="node">
<title>67e9ba241f5b40678c1fec80dc5a73ff</title>
<image xlink:href="icons/bigquery.png" width="101px" height="101px" preserveAspectRatio="xMinYMin meet" x="16" y="-1960.5"/>
<text text-anchor="middle" x="66.5" y="-1845.1" font-family="Sans-Serif" font-size="13.00" fill="#2d3436">[?config?].t_ama_leads_formulaires</text>
</g>
<!-- 67e9ba241f5b40678c1fec80dc5a73ff&#45;&gt;ab34a7e52808466fb4c006337308f88d -->
<g id="edge5" class="edge">
<title>67e9ba241f5b40678c1fec80dc5a73ff&#45;&gt;ab34a7e52808466fb4c006337308f88d</title>
<path fill="none" stroke="#7b8894" d="M67,-1978.67C67,-1990.99 67,-2000 67,-2000 67,-2000 456,-2000 456,-2000 456,-2000 456,-2011.33 456,-2011.33"/>
<polygon fill="#7b8894" stroke="#7b8894" points="452.5,-2011.33 456,-2021.33 459.5,-2011.33 452.5,-2011.33"/>
<text text-anchor="middle" x="261" y="-1972.6" font-family="Sans-Serif" font-size="13.00" fill="darkgrey">t_realise</text>
</g>
<!-- 45606fedcc234169b093387f5f11621c -->
<g id="node9" class="node">
<title>45606fedcc234169b093387f5f11621c</title>
<image xlink:href="icons/bigquery.png" width="101px" height="101px" preserveAspectRatio="xMinYMin meet" x="16" y="-1780.5"/>
<text text-anchor="middle" x="66.5" y="-1665.1" font-family="Sans-Serif" font-size="13.00" fill="#2d3436">[?config?].t_ama_ventes_digitales</text>
</g>
<!-- 45606fedcc234169b093387f5f11621c&#45;&gt;ab34a7e52808466fb4c006337308f88d -->
<g id="edge6" class="edge">
<title>45606fedcc234169b093387f5f11621c&#45;&gt;ab34a7e52808466fb4c006337308f88d</title>
<path fill="none" stroke="#7b8894" d="M117.08,-1778.93C138.68,-1778.93 159,-1778.93 159,-1778.93 159,-1778.93 159,-2067.17 159,-2067.17 159,-2067.17 394.87,-2067.17 394.87,-2067.17"/>
<polygon fill="#7b8894" stroke="#7b8894" points="394.87,-2070.67 404.87,-2067.17 394.87,-2063.67 394.87,-2070.67"/>
<text text-anchor="middle" x="261" y="-1821.6" font-family="Sans-Serif" font-size="13.00" fill="darkgrey">t_realise</text>
</g>
<!-- 306f09b7931f4e77a730773f0f821834 -->
<g id="node12" class="node">
<title>306f09b7931f4e77a730773f0f821834</title>
<image xlink:href="icons/bigquery.png" width="101px" height="101px" preserveAspectRatio="xMinYMin meet" x="405" y="-2320.5"/>
<text text-anchor="middle" x="455.5" y="-2205.1" font-family="Sans-Serif" font-size="13.00" fill="#2d3436">[?config?].e_ds_comper_saisonnalite</text>
</g>
<!-- 306f09b7931f4e77a730773f0f821834&#45;&gt;1695d43d4a154664a1c8b5dd2d7b9abe -->
<g id="edge9" class="edge">
<title>306f09b7931f4e77a730773f0f821834&#45;&gt;1695d43d4a154664a1c8b5dd2d7b9abe</title>
<path fill="none" stroke="#7b8894" d="M473,-2338.78C473,-2347.16 473,-2352.83 473,-2352.83 473,-2352.83 755,-2352.83 755,-2352.83 755,-2352.83 755,-2371.46 755,-2371.46"/>
<polygon fill="#7b8894" stroke="#7b8894" points="751.5,-2371.46 755,-2381.46 758.5,-2371.46 751.5,-2371.46"/>
<text text-anchor="middle" x="605" y="-2363.6" font-family="Sans-Serif" font-size="13.00" fill="darkgrey">t_point_de_sortie</text>
</g>
<!-- a98cb7b7942a4597afd04109cc972098 -->
<g id="node13" class="node">
<title>a98cb7b7942a4597afd04109cc972098</title>
<image xlink:href="icons/bigquery.png" width="101px" height="101px" preserveAspectRatio="xMinYMin meet" x="16" y="-1600.5"/>
<text text-anchor="middle" x="66.5" y="-1485.1" font-family="Sans-Serif" font-size="13.00" fill="#2d3436">comper.e_datastudio_contrats_offres_energie_2018</text>
</g>
<!-- 3ab5fa6c41284a9e921f643f3f0caebc -->
<g id="node14" class="node">
<title>3ab5fa6c41284a9e921f643f3f0caebc</title>
<image xlink:href="icons/bigquery.png" width="101px" height="101px" preserveAspectRatio="xMinYMin meet" x="405" y="-1780.5"/>
<text text-anchor="middle" x="455.5" y="-1665.1" font-family="Sans-Serif" font-size="13.00" fill="#2d3436">comper.l_datastudio_contrats_offres_energie_hors_depenses</text>
</g>
<!-- a98cb7b7942a4597afd04109cc972098&#45;&gt;3ab5fa6c41284a9e921f643f3f0caebc -->
<g id="edge10" class="edge">
<title>a98cb7b7942a4597afd04109cc972098&#45;&gt;3ab5fa6c41284a9e921f643f3f0caebc</title>
<path fill="none" stroke="#7b8894" d="M67,-1618.67C67,-1630.99 67,-1640 67,-1640 67,-1640 456,-1640 456,-1640 456,-1640 456,-1651.33 456,-1651.33"/>
<polygon fill="#7b8894" stroke="#7b8894" points="452.5,-1651.33 456,-1661.33 459.5,-1651.33 452.5,-1651.33"/>
<text text-anchor="middle" x="261" y="-1643.6" font-family="Sans-Serif" font-size="13.00" fill="darkgrey">t_contrats_offres_energie_hors_depenses</text>
</g>
<!-- eaa7d3cb46aa475690b05c49eb1f545e -->
<g id="node20" class="node">
<title>eaa7d3cb46aa475690b05c49eb1f545e</title>
<image xlink:href="icons/bigquery.png" width="101px" height="101px" preserveAspectRatio="xMinYMin meet" x="704" y="-2140.5"/>
<text text-anchor="middle" x="754.5" y="-2025.1" font-family="Sans-Serif" font-size="13.00" fill="#2d3436">comper.t_datastudio_depenses_acquisition</text>
</g>
<!-- 3ab5fa6c41284a9e921f643f3f0caebc&#45;&gt;eaa7d3cb46aa475690b05c49eb1f545e -->
<g id="edge16" class="edge">
<title>3ab5fa6c41284a9e921f643f3f0caebc&#45;&gt;eaa7d3cb46aa475690b05c49eb1f545e</title>
<path fill="none" stroke="#7b8894" d="M506.29,-1707.17C545.81,-1707.17 594,-1707.17 594,-1707.17 594,-1707.17 594,-2090 594,-2090 594,-2090 693.72,-2090 693.72,-2090"/>
<polygon fill="#7b8894" stroke="#7b8894" points="693.72,-2093.5 703.72,-2090 693.72,-2086.5 693.72,-2093.5"/>
<text text-anchor="middle" x="605" y="-1868.6" font-family="Sans-Serif" font-size="13.00" fill="darkgrey">t_depenses_acquisition</text>
</g>
<!-- 3168aec96cc14760bac910d059f86cd8 -->
<g id="node22" class="node">
<title>3168aec96cc14760bac910d059f86cd8</title>
<image xlink:href="icons/bigquery.png" width="101px" height="101px" preserveAspectRatio="xMinYMin meet" x="704" y="-2320.5"/>
<text text-anchor="middle" x="754.5" y="-2205.1" font-family="Sans-Serif" font-size="13.00" fill="#2d3436">comper.t_datastudio_depenses_traitement</text>
</g>
<!-- 3ab5fa6c41284a9e921f643f3f0caebc&#45;&gt;3168aec96cc14760bac910d059f86cd8 -->
<g id="edge18" class="edge">
<title>3ab5fa6c41284a9e921f643f3f0caebc&#45;&gt;3168aec96cc14760bac910d059f86cd8</title>
<path fill="none" stroke="#7b8894" d="M506.26,-1752.83C537.65,-1752.83 572,-1752.83 572,-1752.83 572,-1752.83 572,-2247.17 572,-2247.17 572,-2247.17 693.66,-2247.17 693.66,-2247.17"/>
<polygon fill="#7b8894" stroke="#7b8894" points="693.66,-2250.67 703.66,-2247.17 693.66,-2243.67 693.66,-2250.67"/>
<text text-anchor="middle" x="605" y="-1986.6" font-family="Sans-Serif" font-size="13.00" fill="darkgrey">t_depenses_traitement</text>
</g>
<!-- e65316e15b294f5a8747189757e7a340 -->
<g id="node24" class="node">
<title>e65316e15b294f5a8747189757e7a340</title>
<image xlink:href="icons/bigquery.png" width="101px" height="101px" preserveAspectRatio="xMinYMin meet" x="704" y="-1960.5"/>
<text text-anchor="middle" x="754.5" y="-1845.1" font-family="Sans-Serif" font-size="13.00" fill="#2d3436">comper.l_datastudio_contrats_offres_energie</text>
</g>
<!-- 3ab5fa6c41284a9e921f643f3f0caebc&#45;&gt;e65316e15b294f5a8747189757e7a340 -->
<g id="edge20" class="edge">
<title>3ab5fa6c41284a9e921f643f3f0caebc&#45;&gt;e65316e15b294f5a8747189757e7a340</title>
<path fill="none" stroke="#7b8894" d="M456,-1798.67C456,-1810.99 456,-1820 456,-1820 456,-1820 755,-1820 755,-1820 755,-1820 755,-1831.33 755,-1831.33"/>
<polygon fill="#7b8894" stroke="#7b8894" points="751.5,-1831.33 755,-1841.33 758.5,-1831.33 751.5,-1831.33"/>
<text text-anchor="middle" x="605" y="-1769.6" font-family="Sans-Serif" font-size="13.00" fill="darkgrey">t_contrats_offres_energie</text>
</g>
<!-- 9b480b8ad528413a8e76ac7b6548c147 -->
<g id="node15" class="node">
<title>9b480b8ad528413a8e76ac7b6548c147</title>
<image xlink:href="icons/bigquery.png" width="101px" height="101px" preserveAspectRatio="xMinYMin meet" x="16" y="-1420.5"/>
<text text-anchor="middle" x="66.5" y="-1305.1" font-family="Sans-Serif" font-size="13.00" fill="#2d3436">[?config?].t_ama_realise</text>
</g>
<!-- 9b480b8ad528413a8e76ac7b6548c147&#45;&gt;3ab5fa6c41284a9e921f643f3f0caebc -->
<g id="edge11" class="edge">
<title>9b480b8ad528413a8e76ac7b6548c147&#45;&gt;3ab5fa6c41284a9e921f643f3f0caebc</title>
<path fill="none" stroke="#7b8894" d="M117.35,-1370C155.08,-1370 200,-1370 200,-1370 200,-1370 200,-1759.36 200,-1759.36 200,-1759.36 394.72,-1759.36 394.72,-1759.36"/>
<polygon fill="#7b8894" stroke="#7b8894" points="394.72,-1762.86 404.72,-1759.36 394.72,-1755.86 394.72,-1762.86"/>
<text text-anchor="middle" x="261" y="-1477.6" font-family="Sans-Serif" font-size="13.00" fill="darkgrey">t_contrats_offres_energie_hors_depenses</text>
</g>
<!-- 4cd22680117d4a31a0bf289ed89599c9 -->
<g id="node16" class="node">
<title>4cd22680117d4a31a0bf289ed89599c9</title>
<image xlink:href="icons/bigquery.png" width="101px" height="101px" preserveAspectRatio="xMinYMin meet" x="16" y="-1240.5"/>
<text text-anchor="middle" x="66.5" y="-1125.1" font-family="Sans-Serif" font-size="13.00" fill="#2d3436">[?config?].e_ds_comper_objectifs_2018_seulement</text>
</g>
<!-- 4cd22680117d4a31a0bf289ed89599c9&#45;&gt;3ab5fa6c41284a9e921f643f3f0caebc -->
<g id="edge12" class="edge">
<title>4cd22680117d4a31a0bf289ed89599c9&#45;&gt;3ab5fa6c41284a9e921f643f3f0caebc</title>
<path fill="none" stroke="#7b8894" d="M117.44,-1190C168.95,-1190 241,-1190 241,-1190 241,-1190 241,-1739.79 241,-1739.79 241,-1739.79 394.94,-1739.79 394.94,-1739.79"/>
<polygon fill="#7b8894" stroke="#7b8894" points="394.94,-1743.29 404.94,-1739.79 394.94,-1736.29 394.94,-1743.29"/>
<text text-anchor="middle" x="261" y="-1304.6" font-family="Sans-Serif" font-size="13.00" fill="darkgrey">t_contrats_offres_energie_hors_depenses</text>
</g>
<!-- 97bd9f9e1dae46a4b5f70bd737026288 -->
<g id="node17" class="node">
<title>97bd9f9e1dae46a4b5f70bd737026288</title>
<image xlink:href="icons/bigquery.png" width="101px" height="101px" preserveAspectRatio="xMinYMin meet" x="16" y="-1060.5"/>
<text text-anchor="middle" x="66.5" y="-945.1" font-family="Sans-Serif" font-size="13.00" fill="#2d3436">[?config?].e_ds_comper_objectifs_2019_seulement</text>
</g>
<!-- 97bd9f9e1dae46a4b5f70bd737026288&#45;&gt;3ab5fa6c41284a9e921f643f3f0caebc -->
<g id="edge13" class="edge">
<title>97bd9f9e1dae46a4b5f70bd737026288&#45;&gt;3ab5fa6c41284a9e921f643f3f0caebc</title>
<path fill="none" stroke="#7b8894" d="M117.03,-1010C180.72,-1010 282,-1010 282,-1010 282,-1010 282,-1720.21 282,-1720.21 282,-1720.21 394.85,-1720.21 394.85,-1720.21"/>
<polygon fill="#7b8894" stroke="#7b8894" points="394.85,-1723.71 404.85,-1720.21 394.85,-1716.71 394.85,-1723.71"/>
<text text-anchor="middle" x="261" y="-1127.6" font-family="Sans-Serif" font-size="13.00" fill="darkgrey">t_contrats_offres_energie_hors_depenses</text>
</g>
<!-- a856d8ded8ff452b9eb81b10ada8c390 -->
<g id="node18" class="node">
<title>a856d8ded8ff452b9eb81b10ada8c390</title>
<image xlink:href="icons/bigquery.png" width="101px" height="101px" preserveAspectRatio="xMinYMin meet" x="16" y="-880.5"/>
<text text-anchor="middle" x="66.5" y="-765.1" font-family="Sans-Serif" font-size="13.00" fill="#2d3436">[?config?].t_datastudio_point_de_sortie</text>
</g>
<!-- a856d8ded8ff452b9eb81b10ada8c390&#45;&gt;3ab5fa6c41284a9e921f643f3f0caebc -->
<g id="edge14" class="edge">
<title>a856d8ded8ff452b9eb81b10ada8c390&#45;&gt;3ab5fa6c41284a9e921f643f3f0caebc</title>
<path fill="none" stroke="#7b8894" d="M117.18,-830C191.93,-830 323,-830 323,-830 323,-830 323,-1700.64 323,-1700.64 323,-1700.64 394.65,-1700.64 394.65,-1700.64"/>
<polygon fill="#7b8894" stroke="#7b8894" points="394.65,-1704.14 404.65,-1700.64 394.65,-1697.14 394.65,-1704.14"/>
<text text-anchor="middle" x="261" y="-949.6" font-family="Sans-Serif" font-size="13.00" fill="darkgrey">t_contrats_offres_energie_hors_depenses</text>
</g>
<!-- e215e75b3c0f4a9fa18ec410141c7761 -->
<g id="node19" class="node">
<title>e215e75b3c0f4a9fa18ec410141c7761</title>
<image xlink:href="icons/bigquery.png" width="101px" height="101px" preserveAspectRatio="xMinYMin meet" x="16" y="-700.5"/>
<text text-anchor="middle" x="66.5" y="-585.1" font-family="Sans-Serif" font-size="13.00" fill="#2d3436">[?config?].e_ds_comper_objectifs</text>
</g>
<!-- e215e75b3c0f4a9fa18ec410141c7761&#45;&gt;3ab5fa6c41284a9e921f643f3f0caebc -->
<g id="edge15" class="edge">
<title>e215e75b3c0f4a9fa18ec410141c7761&#45;&gt;3ab5fa6c41284a9e921f643f3f0caebc</title>
<path fill="none" stroke="#7b8894" d="M117.3,-650C202.27,-650 364,-650 364,-650 364,-650 364,-1681.07 364,-1681.07 364,-1681.07 394.93,-1681.07 394.93,-1681.07"/>
<polygon fill="#7b8894" stroke="#7b8894" points="394.93,-1684.57 404.93,-1681.07 394.93,-1677.57 394.93,-1684.57"/>
<text text-anchor="middle" x="261" y="-712.6" font-family="Sans-Serif" font-size="13.00" fill="darkgrey">t_contrats_offres_energie_hors_depenses</text>
</g>
<!-- 4dee0f13b72844198c609fb24e14907e -->
<g id="node21" class="node">
<title>4dee0f13b72844198c609fb24e14907e</title>
<image xlink:href="icons/bigquery.png" width="101px" height="101px" preserveAspectRatio="xMinYMin meet" x="405" y="-1600.5"/>
<text text-anchor="middle" x="455.5" y="-1485.1" font-family="Sans-Serif" font-size="13.00" fill="#2d3436">depenses.e_gsheet_depenses_acquisition</text>
</g>
<!-- 4dee0f13b72844198c609fb24e14907e&#45;&gt;eaa7d3cb46aa475690b05c49eb1f545e -->
<g id="edge17" class="edge">
<title>4dee0f13b72844198c609fb24e14907e&#45;&gt;eaa7d3cb46aa475690b05c49eb1f545e</title>
<path fill="none" stroke="#7b8894" d="M506.28,-1550C553.3,-1550 616,-1550 616,-1550 616,-1550 616,-2055.75 616,-2055.75 616,-2055.75 693.71,-2055.75 693.71,-2055.75"/>
<polygon fill="#7b8894" stroke="#7b8894" points="693.71,-2059.25 703.71,-2055.75 693.71,-2052.25 693.71,-2059.25"/>
<text text-anchor="middle" x="605" y="-1630.6" font-family="Sans-Serif" font-size="13.00" fill="darkgrey">t_depenses_acquisition</text>
</g>
<!-- f16a6e18e82c4f81b8cb7e79b72c1275 -->
<g id="node23" class="node">
<title>f16a6e18e82c4f81b8cb7e79b72c1275</title>
<image xlink:href="icons/bigquery.png" width="101px" height="101px" preserveAspectRatio="xMinYMin meet" x="405" y="-1960.5"/>
<text text-anchor="middle" x="455.5" y="-1845.1" font-family="Sans-Serif" font-size="13.00" fill="#2d3436">depenses.e_gsheet_depenses_traitement</text>
</g>
<!-- f16a6e18e82c4f81b8cb7e79b72c1275&#45;&gt;3168aec96cc14760bac910d059f86cd8 -->
<g id="edge19" class="edge">
<title>f16a6e18e82c4f81b8cb7e79b72c1275&#45;&gt;3168aec96cc14760bac910d059f86cd8</title>
<path fill="none" stroke="#7b8894" d="M506.07,-1951.1C528.54,-1951.1 550,-1951.1 550,-1951.1 550,-1951.1 550,-2292.83 550,-2292.83 550,-2292.83 693.95,-2292.83 693.95,-2292.83"/>
<polygon fill="#7b8894" stroke="#7b8894" points="693.95,-2296.33 703.95,-2292.83 693.95,-2289.33 693.95,-2296.33"/>
<text text-anchor="middle" x="605" y="-2076.6" font-family="Sans-Serif" font-size="13.00" fill="darkgrey">t_depenses_traitement</text>
</g>
<!-- 66b903592d784a2fbd142c8859d04be0 -->
<g id="node28" class="node">
<title>66b903592d784a2fbd142c8859d04be0</title>
<image xlink:href="icons/bigquery.png" width="101px" height="101px" preserveAspectRatio="xMinYMin meet" x="1045" y="-1060.5"/>
<text text-anchor="middle" x="1095.5" y="-945.1" font-family="Sans-Serif" font-size="13.00" fill="#2d3436">comper.l_v_digi_to_ds_comper_ventes_digitales</text>
</g>
<!-- e65316e15b294f5a8747189757e7a340&#45;&gt;66b903592d784a2fbd142c8859d04be0 -->
<g id="edge24" class="edge">
<title>e65316e15b294f5a8747189757e7a340&#45;&gt;66b903592d784a2fbd142c8859d04be0</title>
<path fill="none" stroke="#7b8894" d="M805.14,-1910C907.64,-1910 1130,-1910 1130,-1910 1130,-1910 1130,-1088.76 1130,-1088.76"/>
<polygon fill="#7b8894" stroke="#7b8894" points="1133.5,-1088.76 1130,-1078.76 1126.5,-1088.76 1133.5,-1088.76"/>
<text text-anchor="middle" x="925" y="-1798.6" font-family="Sans-Serif" font-size="13.00" fill="darkgrey">l_to_ds_comper_ventes_digitales</text>
</g>
<!-- 5e668c8635e44a8eaa196b542ba055bf -->
<g id="node25" class="node">
<title>5e668c8635e44a8eaa196b542ba055bf</title>
<image xlink:href="icons/bigquery.png" width="101px" height="101px" preserveAspectRatio="xMinYMin meet" x="405" y="-1420.5"/>
<text text-anchor="middle" x="455.5" y="-1305.1" font-family="Sans-Serif" font-size="13.00" fill="#2d3436">[?config?].t_datastudio_depenses_acquisition</text>
</g>
<!-- 5e668c8635e44a8eaa196b542ba055bf&#45;&gt;e65316e15b294f5a8747189757e7a340 -->
<g id="edge21" class="edge">
<title>5e668c8635e44a8eaa196b542ba055bf&#45;&gt;e65316e15b294f5a8747189757e7a340</title>
<path fill="none" stroke="#7b8894" d="M506.34,-1370C560.34,-1370 638,-1370 638,-1370 638,-1370 638,-1923.7 638,-1923.7 638,-1923.7 693.74,-1923.7 693.74,-1923.7"/>
<polygon fill="#7b8894" stroke="#7b8894" points="693.74,-1927.2 703.74,-1923.7 693.74,-1920.2 693.74,-1927.2"/>
<text text-anchor="middle" x="605" y="-1470.6" font-family="Sans-Serif" font-size="13.00" fill="darkgrey">t_contrats_offres_energie</text>
</g>
<!-- 895b327abfa44fc78895976fcab876d9 -->
<g id="node26" class="node">
<title>895b327abfa44fc78895976fcab876d9</title>
<image xlink:href="icons/bigquery.png" width="101px" height="101px" preserveAspectRatio="xMinYMin meet" x="405" y="-1240.5"/>
<text text-anchor="middle" x="455.5" y="-1125.1" font-family="Sans-Serif" font-size="13.00" fill="#2d3436">[?config?].t_datastudio_depenses_traitement</text>
</g>
<!-- 895b327abfa44fc78895976fcab876d9&#45;&gt;e65316e15b294f5a8747189757e7a340 -->
<g id="edge22" class="edge">
<title>895b327abfa44fc78895976fcab876d9&#45;&gt;e65316e15b294f5a8747189757e7a340</title>
<path fill="none" stroke="#7b8894" d="M506.05,-1190C566.61,-1190 660,-1190 660,-1190 660,-1190 660,-1896.3 660,-1896.3 660,-1896.3 693.93,-1896.3 693.93,-1896.3"/>
<polygon fill="#7b8894" stroke="#7b8894" points="693.93,-1899.8 703.93,-1896.3 693.93,-1892.8 693.93,-1899.8"/>
<text text-anchor="middle" x="605" y="-1300.6" font-family="Sans-Serif" font-size="13.00" fill="darkgrey">t_contrats_offres_energie</text>
</g>
<!-- 929b3d45c1a44791959ee8fcc915e95c -->
<g id="node27" class="node">
<title>929b3d45c1a44791959ee8fcc915e95c</title>
<image xlink:href="icons/bigquery.png" width="101px" height="101px" preserveAspectRatio="xMinYMin meet" x="405" y="-1060.5"/>
<text text-anchor="middle" x="455.5" y="-945.1" font-family="Sans-Serif" font-size="13.00" fill="#2d3436">[?config?].l_datastudio_contrats_offres_energie_avant_2021</text>
</g>
<!-- 929b3d45c1a44791959ee8fcc915e95c&#45;&gt;e65316e15b294f5a8747189757e7a340 -->
<g id="edge23" class="edge">
<title>929b3d45c1a44791959ee8fcc915e95c&#45;&gt;e65316e15b294f5a8747189757e7a340</title>
<path fill="none" stroke="#7b8894" d="M506.05,-1010C572.8,-1010 682,-1010 682,-1010 682,-1010 682,-1868.9 682,-1868.9 682,-1868.9 693.75,-1868.9 693.75,-1868.9"/>
<polygon fill="#7b8894" stroke="#7b8894" points="693.75,-1872.4 703.75,-1868.9 693.75,-1865.4 693.75,-1872.4"/>
<text text-anchor="middle" x="605" y="-1125.6" font-family="Sans-Serif" font-size="13.00" fill="darkgrey">t_contrats_offres_energie</text>
</g>
<!-- 3b226c4ba19e4fedb3ed2c82c53dabc9 -->
<g id="node29" class="node">
<title>3b226c4ba19e4fedb3ed2c82c53dabc9</title>
<image xlink:href="icons/bigquery.png" width="101px" height="101px" preserveAspectRatio="xMinYMin meet" x="704" y="-1780.5"/>
<text text-anchor="middle" x="754.5" y="-1665.1" font-family="Sans-Serif" font-size="13.00" fill="#2d3436">[?config?].l_ama_to_ds_comper_contrats_services</text>
</g>
<!-- 3b226c4ba19e4fedb3ed2c82c53dabc9&#45;&gt;66b903592d784a2fbd142c8859d04be0 -->
<g id="edge25" class="edge">
<title>3b226c4ba19e4fedb3ed2c82c53dabc9&#45;&gt;66b903592d784a2fbd142c8859d04be0</title>
<path fill="none" stroke="#7b8894" d="M805.1,-1730C903.92,-1730 1113,-1730 1113,-1730 1113,-1730 1113,-1088.71 1113,-1088.71"/>
<polygon fill="#7b8894" stroke="#7b8894" points="1116.5,-1088.71 1113,-1078.71 1109.5,-1088.71 1116.5,-1088.71"/>
<text text-anchor="middle" x="925" y="-1622.6" font-family="Sans-Serif" font-size="13.00" fill="darkgrey">l_to_ds_comper_ventes_digitales</text>
</g>
<!-- 3a3ade0710044fc79eca1ca93d5761e9 -->
<g id="node30" class="node">
<title>3a3ade0710044fc79eca1ca93d5761e9</title>
<image xlink:href="icons/bigquery.png" width="101px" height="101px" preserveAspectRatio="xMinYMin meet" x="704" y="-1600.5"/>
<text text-anchor="middle" x="754.5" y="-1485.1" font-family="Sans-Serif" font-size="13.00" fill="#2d3436">[?config?].l_ama_to_ds_comper_options_vertes</text>
</g>
<!-- 3a3ade0710044fc79eca1ca93d5761e9&#45;&gt;66b903592d784a2fbd142c8859d04be0 -->
<g id="edge26" class="edge">
<title>3a3ade0710044fc79eca1ca93d5761e9&#45;&gt;66b903592d784a2fbd142c8859d04be0</title>
<path fill="none" stroke="#7b8894" d="M805.26,-1550C900.39,-1550 1096,-1550 1096,-1550 1096,-1550 1096,-1088.67 1096,-1088.67"/>
<polygon fill="#7b8894" stroke="#7b8894" points="1099.5,-1088.67 1096,-1078.67 1092.5,-1088.67 1099.5,-1088.67"/>
<text text-anchor="middle" x="925" y="-1449.6" font-family="Sans-Serif" font-size="13.00" fill="darkgrey">l_to_ds_comper_ventes_digitales</text>
</g>
<!-- 71acd6674bb04c308a26acf0f9d0b7e1 -->
<g id="node31" class="node">
<title>71acd6674bb04c308a26acf0f9d0b7e1</title>
<image xlink:href="icons/bigquery.png" width="101px" height="101px" preserveAspectRatio="xMinYMin meet" x="704" y="-1420.5"/>
<text text-anchor="middle" x="754.5" y="-1305.1" font-family="Sans-Serif" font-size="13.00" fill="#2d3436">[?config?].l_ama_to_ds_comper_t_ama_parrainage</text>
</g>
<!-- 71acd6674bb04c308a26acf0f9d0b7e1&#45;&gt;66b903592d784a2fbd142c8859d04be0 -->
<g id="edge27" class="edge">
<title>71acd6674bb04c308a26acf0f9d0b7e1&#45;&gt;66b903592d784a2fbd142c8859d04be0</title>
<path fill="none" stroke="#7b8894" d="M805.2,-1370C896.47,-1370 1079,-1370 1079,-1370 1079,-1370 1079,-1088.56 1079,-1088.56"/>
<polygon fill="#7b8894" stroke="#7b8894" points="1082.5,-1088.56 1079,-1078.56 1075.5,-1088.56 1082.5,-1088.56"/>
<text text-anchor="middle" x="925" y="-1284.6" font-family="Sans-Serif" font-size="13.00" fill="darkgrey">l_to_ds_comper_ventes_digitales</text>
</g>
<!-- 73fddb77a1f1489182e518c010a309d4 -->
<g id="node32" class="node">
<title>73fddb77a1f1489182e518c010a309d4</title>
<image xlink:href="icons/bigquery.png" width="101px" height="101px" preserveAspectRatio="xMinYMin meet" x="704" y="-1240.5"/>
<text text-anchor="middle" x="754.5" y="-1125.1" font-family="Sans-Serif" font-size="13.00" fill="#2d3436">[?config?].l_ga_to_ds_comper_e_gsheet_cee_souscriptions</text>
</g>
<!-- 73fddb77a1f1489182e518c010a309d4&#45;&gt;66b903592d784a2fbd142c8859d04be0 -->
<g id="edge28" class="edge">
<title>73fddb77a1f1489182e518c010a309d4&#45;&gt;66b903592d784a2fbd142c8859d04be0</title>
<path fill="none" stroke="#7b8894" d="M805.28,-1190C892.62,-1190 1062,-1190 1062,-1190 1062,-1190 1062,-1088.56 1062,-1088.56"/>
<polygon fill="#7b8894" stroke="#7b8894" points="1065.5,-1088.56 1062,-1078.56 1058.5,-1088.56 1065.5,-1088.56"/>
<text text-anchor="middle" x="925" y="-1134.6" font-family="Sans-Serif" font-size="13.00" fill="darkgrey">l_to_ds_comper_ventes_digitales</text>
</g>
<!-- 59a48cac6ddf47d1ba02ab18d7579e71 -->
<g id="node33" class="node">
<title>59a48cac6ddf47d1ba02ab18d7579e71</title>
<image xlink:href="icons/bigquery.png" width="101px" height="101px" preserveAspectRatio="xMinYMin meet" x="704" y="-1060.5"/>
<text text-anchor="middle" x="754.5" y="-945.1" font-family="Sans-Serif" font-size="13.00" fill="#2d3436">[?config?].l_ama_to_ds_comper_bout_en_bout_equipements</text>
</g>
<!-- 59a48cac6ddf47d1ba02ab18d7579e71&#45;&gt;66b903592d784a2fbd142c8859d04be0 -->
<g id="edge29" class="edge">
<title>59a48cac6ddf47d1ba02ab18d7579e71&#45;&gt;66b903592d784a2fbd142c8859d04be0</title>
<path fill="none" stroke="#7b8894" d="M805.18,-1010C805.18,-1010 1034.82,-1010 1034.82,-1010"/>
<polygon fill="#7b8894" stroke="#7b8894" points="1034.82,-1013.5 1044.82,-1010 1034.82,-1006.5 1034.82,-1013.5"/>
<text text-anchor="middle" x="925" y="-1013.6" font-family="Sans-Serif" font-size="13.00" fill="darkgrey">l_to_ds_comper_ventes_digitales</text>
</g>
<!-- 599ed3f4182f404a88d4e50c6427bd7c -->
<g id="node34" class="node">
<title>599ed3f4182f404a88d4e50c6427bd7c</title>
<image xlink:href="icons/bigquery.png" width="101px" height="101px" preserveAspectRatio="xMinYMin meet" x="704" y="-880.5"/>
<text text-anchor="middle" x="754.5" y="-765.1" font-family="Sans-Serif" font-size="13.00" fill="#2d3436">[?config?].e_ds_comper_objectifs_hors_energie</text>
</g>
<!-- 599ed3f4182f404a88d4e50c6427bd7c&#45;&gt;66b903592d784a2fbd142c8859d04be0 -->
<g id="edge30" class="edge">
<title>599ed3f4182f404a88d4e50c6427bd7c&#45;&gt;66b903592d784a2fbd142c8859d04be0</title>
<path fill="none" stroke="#7b8894" d="M805.28,-830C892.62,-830 1062,-830 1062,-830 1062,-830 1062,-931.44 1062,-931.44"/>
<polygon fill="#7b8894" stroke="#7b8894" points="1058.5,-931.44 1062,-941.44 1065.5,-931.44 1058.5,-931.44"/>
<text text-anchor="middle" x="925" y="-892.6" font-family="Sans-Serif" font-size="13.00" fill="darkgrey">l_to_ds_comper_ventes_digitales</text>
</g>
<!-- 7105639f1e584c229eb45ab563e78078 -->
<g id="node35" class="node">
<title>7105639f1e584c229eb45ab563e78078</title>
<image xlink:href="icons/bigquery.png" width="101px" height="101px" preserveAspectRatio="xMinYMin meet" x="704" y="-700.5"/>
<text text-anchor="middle" x="754.5" y="-585.1" font-family="Sans-Serif" font-size="13.00" fill="#2d3436">[?config?].l_mypower_to_ds_comper_mypower</text>
</g>
<!-- 7105639f1e584c229eb45ab563e78078&#45;&gt;66b903592d784a2fbd142c8859d04be0 -->
<g id="edge31" class="edge">
<title>7105639f1e584c229eb45ab563e78078&#45;&gt;66b903592d784a2fbd142c8859d04be0</title>
<path fill="none" stroke="#7b8894" d="M805.2,-650C896.47,-650 1079,-650 1079,-650 1079,-650 1079,-931.44 1079,-931.44"/>
<polygon fill="#7b8894" stroke="#7b8894" points="1075.5,-931.44 1079,-941.44 1082.5,-931.44 1075.5,-931.44"/>
<text text-anchor="middle" x="925" y="-741.6" font-family="Sans-Serif" font-size="13.00" fill="darkgrey">l_to_ds_comper_ventes_digitales</text>
</g>
<!-- 225d71f84eef47b19fa3d886d835b057 -->
<g id="node36" class="node">
<title>225d71f84eef47b19fa3d886d835b057</title>
<image xlink:href="icons/bigquery.png" width="101px" height="101px" preserveAspectRatio="xMinYMin meet" x="704" y="-520.5"/>
<text text-anchor="middle" x="754.5" y="-405.1" font-family="Sans-Serif" font-size="13.00" fill="#2d3436">[?config?].l_ama_to_ds_comper_prelevement_mensualisation</text>
</g>
<!-- 225d71f84eef47b19fa3d886d835b057&#45;&gt;66b903592d784a2fbd142c8859d04be0 -->
<g id="edge32" class="edge">
<title>225d71f84eef47b19fa3d886d835b057&#45;&gt;66b903592d784a2fbd142c8859d04be0</title>
<path fill="none" stroke="#7b8894" d="M805.26,-470C900.39,-470 1096,-470 1096,-470 1096,-470 1096,-931.33 1096,-931.33"/>
<polygon fill="#7b8894" stroke="#7b8894" points="1092.5,-931.33 1096,-941.33 1099.5,-931.33 1092.5,-931.33"/>
<text text-anchor="middle" x="925" y="-576.6" font-family="Sans-Serif" font-size="13.00" fill="darkgrey">l_to_ds_comper_ventes_digitales</text>
</g>
<!-- 6f2dce65d16e40d69a4c59d02de57ddb -->
<g id="node37" class="node">
<title>6f2dce65d16e40d69a4c59d02de57ddb</title>
<image xlink:href="icons/bigquery.png" width="101px" height="101px" preserveAspectRatio="xMinYMin meet" x="704" y="-340.5"/>
<text text-anchor="middle" x="754.5" y="-225.1" font-family="Sans-Serif" font-size="13.00" fill="#2d3436">[?config?].l_ama_to_ds_comper_activation_energie</text>
</g>
<!-- 6f2dce65d16e40d69a4c59d02de57ddb&#45;&gt;66b903592d784a2fbd142c8859d04be0 -->
<g id="edge33" class="edge">
<title>6f2dce65d16e40d69a4c59d02de57ddb&#45;&gt;66b903592d784a2fbd142c8859d04be0</title>
<path fill="none" stroke="#7b8894" d="M805.1,-290C903.92,-290 1113,-290 1113,-290 1113,-290 1113,-931.29 1113,-931.29"/>
<polygon fill="#7b8894" stroke="#7b8894" points="1109.5,-931.29 1113,-941.29 1116.5,-931.29 1109.5,-931.29"/>
<text text-anchor="middle" x="925" y="-403.6" font-family="Sans-Serif" font-size="13.00" fill="darkgrey">l_to_ds_comper_ventes_digitales</text>
</g>
<!-- 34af778e086a4db2a93bc5e3a27b701f -->
<g id="node38" class="node">
<title>34af778e086a4db2a93bc5e3a27b701f</title>
<image xlink:href="icons/bigquery.png" width="101px" height="101px" preserveAspectRatio="xMinYMin meet" x="704" y="-160.5"/>
<text text-anchor="middle" x="754.5" y="-45.1" font-family="Sans-Serif" font-size="13.00" fill="#2d3436">[?config?].l_ga_to_ds_comper_sessions</text>
</g>
<!-- 34af778e086a4db2a93bc5e3a27b701f&#45;&gt;66b903592d784a2fbd142c8859d04be0 -->
<g id="edge34" class="edge">
<title>34af778e086a4db2a93bc5e3a27b701f&#45;&gt;66b903592d784a2fbd142c8859d04be0</title>
<path fill="none" stroke="#7b8894" d="M805.14,-110C907.64,-110 1130,-110 1130,-110 1130,-110 1130,-931.24 1130,-931.24"/>
<polygon fill="#7b8894" stroke="#7b8894" points="1126.5,-931.24 1130,-941.24 1133.5,-931.24 1126.5,-931.24"/>
<text text-anchor="middle" x="925" y="-227.6" font-family="Sans-Serif" font-size="13.00" fill="darkgrey">l_to_ds_comper_ventes_digitales</text>
</g>
</g>
</svg>
