<?xml version="1.0" encoding="UTF-8" standalone="no"?>
<!DOCTYPE svg PUBLIC "-//W3C//DTD SVG 1.1//EN"
 "http://www.w3.org/Graphics/SVG/1.1/DTD/svg11.dtd">
<!-- Generated by graphviz version 2.47.1 (20210417.1919)
 -->
<!-- Title: comper Pages: 1 -->
<svg width="1450pt" height="3024pt"
 viewBox="0.00 0.00 1450.00 3024.00" xmlns="http://www.w3.org/2000/svg" xmlns:xlink="http://www.w3.org/1999/xlink">
<g id="graph0" class="graph" transform="scale(1 1) rotate(0) translate(144 2880)">
<title>comper</title>
<text text-anchor="middle" x="581" y="-9" font-family="Sans-Serif" font-size="15.00" fill="#2d3436">comper</text>
<g id="clust1" class="cluster">
<title>cluster_comper</title>
<path fill="#e5f5fd" stroke="#aeb6be" d="M20,-33C20,-33 1142,-33 1142,-33 1148,-33 1154,-39 1154,-45 1154,-45 1154,-2716 1154,-2716 1154,-2722 1148,-2728 1142,-2728 1142,-2728 20,-2728 20,-2728 14,-2728 8,-2722 8,-2716 8,-2716 8,-45 8,-45 8,-39 14,-33 20,-33"/>
<text text-anchor="middle" x="36" y="-2714.4" font-family="Sans-Serif" font-size="12.00" fill="#2d3436">comper</text>
</g>
<!-- 8e3a918b0c46460e9d8997e86a90b0f1 -->
<g id="node1" class="node">
<title>8e3a918b0c46460e9d8997e86a90b0f1</title>
<image xlink:href="icons/storage.png" width="101px" height="101px" preserveAspectRatio="xMinYMin meet" x="16" y="-2680.5"/>
<text text-anchor="middle" x="66.5" y="-2565.1" font-family="Sans-Serif" font-size="13.00" fill="#2d3436">amadeus_bi.contrats/ama_contrats_digitaux_stor_</text>
</g>
<!-- 489cf3b8786f4dd5870c54aed5e1e847 -->
<g id="node2" class="node">
<title>489cf3b8786f4dd5870c54aed5e1e847</title>
<image xlink:href="icons/bigquery.png" width="101px" height="101px" preserveAspectRatio="xMinYMin meet" x="405" y="-2680.5"/>
<text text-anchor="middle" x="455.5" y="-2565.1" font-family="Sans-Serif" font-size="13.00" fill="#2d3436">comper.e_v_digi_import_cube_valeur</text>
</g>
<!-- 8e3a918b0c46460e9d8997e86a90b0f1&#45;&gt;489cf3b8786f4dd5870c54aed5e1e847 -->
<g id="edge1" class="edge">
<title>8e3a918b0c46460e9d8997e86a90b0f1&#45;&gt;489cf3b8786f4dd5870c54aed5e1e847</title>
<path fill="none" stroke="#7b8894" d="M117.35,-2630C117.35,-2630 394.94,-2630 394.94,-2630"/>
<polygon fill="#7b8894" stroke="#7b8894" points="394.94,-2633.5 404.94,-2630 394.94,-2626.5 394.94,-2633.5"/>
<text text-anchor="middle" x="261" y="-2633.6" font-family="Sans-Serif" font-size="13.00" fill="darkgrey">e_import_cube_valeur</text>
</g>
<!-- 102068b6b719491fa79637a3806257df -->
<g id="node10" class="node">
<title>102068b6b719491fa79637a3806257df</title>
<image xlink:href="icons/bigquery.png" width="101px" height="101px" preserveAspectRatio="xMinYMin meet" x="704" y="-2680.5"/>
<text text-anchor="middle" x="754.5" y="-2565.1" font-family="Sans-Serif" font-size="13.00" fill="#2d3436">comper.t_v_digi_cube_valeur</text>
</g>
<!-- 489cf3b8786f4dd5870c54aed5e1e847&#45;&gt;102068b6b719491fa79637a3806257df -->
<g id="edge7" class="edge">
<title>489cf3b8786f4dd5870c54aed5e1e847&#45;&gt;102068b6b719491fa79637a3806257df</title>
<path fill="none" stroke="#7b8894" d="M506.22,-2630C506.22,-2630 693.53,-2630 693.53,-2630"/>
<polygon fill="#7b8894" stroke="#7b8894" points="693.53,-2633.5 703.53,-2630 693.53,-2626.5 693.53,-2633.5"/>
<text text-anchor="middle" x="605" y="-2633.6" font-family="Sans-Serif" font-size="13.00" fill="darkgrey">t_cube_valeur</text>
</g>
<!-- 36f0b5f4f76740a49ac069ffe11bec11 -->
<g id="node3" class="node">
<title>36f0b5f4f76740a49ac069ffe11bec11</title>
<image xlink:href="icons/bigquery.png" width="101px" height="101px" preserveAspectRatio="xMinYMin meet" x="16" y="-2500.5"/>
<text text-anchor="middle" x="66.5" y="-2385.1" font-family="Sans-Serif" font-size="13.00" fill="#2d3436">amadeus.t_ama_contrats_appels_leviers</text>
</g>
<!-- cf6dae1225834b928d7f10636fd2502a -->
<g id="node4" class="node">
<title>cf6dae1225834b928d7f10636fd2502a</title>
<image xlink:href="icons/bigquery.png" width="101px" height="101px" preserveAspectRatio="xMinYMin meet" x="405" y="-2500.5"/>
<text text-anchor="middle" x="455.5" y="-2385.1" font-family="Sans-Serif" font-size="13.00" fill="#2d3436">amadeus.t_ama_ventes_digitales</text>
</g>
<!-- 36f0b5f4f76740a49ac069ffe11bec11&#45;&gt;cf6dae1225834b928d7f10636fd2502a -->
<g id="edge2" class="edge">
<title>36f0b5f4f76740a49ac069ffe11bec11&#45;&gt;cf6dae1225834b928d7f10636fd2502a</title>
<path fill="none" stroke="#7b8894" d="M117.35,-2450C117.35,-2450 394.94,-2450 394.94,-2450"/>
<polygon fill="#7b8894" stroke="#7b8894" points="394.94,-2453.5 404.94,-2450 394.94,-2446.5 394.94,-2453.5"/>
<text text-anchor="middle" x="261" y="-2453.6" font-family="Sans-Serif" font-size="13.00" fill="darkgrey">t_ventes_digitales</text>
</g>
<!-- 769157895d5743a49fc2ee6fd2e2e7fa -->
<g id="node5" class="node">
<title>769157895d5743a49fc2ee6fd2e2e7fa</title>
<image xlink:href="icons/bigquery.png" width="101px" height="101px" preserveAspectRatio="xMinYMin meet" x="16" y="-2320.5"/>
<text text-anchor="middle" x="66.5" y="-2205.1" font-family="Sans-Serif" font-size="13.00" fill="#2d3436">[?config?].t_ama_contrats_formulaires</text>
</g>
<!-- 769157895d5743a49fc2ee6fd2e2e7fa&#45;&gt;cf6dae1225834b928d7f10636fd2502a -->
<g id="edge3" class="edge">
<title>769157895d5743a49fc2ee6fd2e2e7fa&#45;&gt;cf6dae1225834b928d7f10636fd2502a</title>
<path fill="none" stroke="#7b8894" d="M67,-2338.54C67,-2354.62 67,-2367.17 67,-2367.17 67,-2367.17 439,-2367.17 439,-2367.17 439,-2367.17 439,-2371.22 439,-2371.22"/>
<polygon fill="#7b8894" stroke="#7b8894" points="435.5,-2371.22 439,-2381.22 442.5,-2371.22 435.5,-2371.22"/>
<text text-anchor="middle" x="261" y="-2332.6" font-family="Sans-Serif" font-size="13.00" fill="darkgrey">t_ventes_digitales</text>
</g>
<!-- eac10008efc5433e89261d4472c569c0 -->
<g id="node6" class="node">
<title>eac10008efc5433e89261d4472c569c0</title>
<image xlink:href="icons/bigquery.png" width="101px" height="101px" preserveAspectRatio="xMinYMin meet" x="16" y="-2140.5"/>
<text text-anchor="middle" x="66.5" y="-2025.1" font-family="Sans-Serif" font-size="13.00" fill="#2d3436">amadeus.t_ama_leads_appels</text>
</g>
<!-- 3c390ff71d6845939923ccaa56129919 -->
<g id="node7" class="node">
<title>3c390ff71d6845939923ccaa56129919</title>
<image xlink:href="icons/bigquery.png" width="101px" height="101px" preserveAspectRatio="xMinYMin meet" x="405" y="-2140.5"/>
<text text-anchor="middle" x="455.5" y="-2025.1" font-family="Sans-Serif" font-size="13.00" fill="#2d3436">comper.t_ama_realise</text>
</g>
<!-- eac10008efc5433e89261d4472c569c0&#45;&gt;3c390ff71d6845939923ccaa56129919 -->
<g id="edge4" class="edge">
<title>eac10008efc5433e89261d4472c569c0&#45;&gt;3c390ff71d6845939923ccaa56129919</title>
<path fill="none" stroke="#7b8894" d="M117.35,-2112.83C117.35,-2112.83 394.94,-2112.83 394.94,-2112.83"/>
<polygon fill="#7b8894" stroke="#7b8894" points="394.94,-2116.33 404.94,-2112.83 394.94,-2109.33 394.94,-2116.33"/>
<text text-anchor="middle" x="261" y="-2093.6" font-family="Sans-Serif" font-size="13.00" fill="darkgrey">t_realise</text>
</g>
<!-- 9edd959ff3424f1589d43fe91dad24b9 -->
<g id="node11" class="node">
<title>9edd959ff3424f1589d43fe91dad24b9</title>
<image xlink:href="icons/bigquery.png" width="101px" height="101px" preserveAspectRatio="xMinYMin meet" x="704" y="-2500.5"/>
<text text-anchor="middle" x="754.5" y="-2385.1" font-family="Sans-Serif" font-size="13.00" fill="#2d3436">comper.t_datastudio_point_de_sortie</text>
</g>
<!-- 3c390ff71d6845939923ccaa56129919&#45;&gt;9edd959ff3424f1589d43fe91dad24b9 -->
<g id="edge8" class="edge">
<title>3c390ff71d6845939923ccaa56129919&#45;&gt;9edd959ff3424f1589d43fe91dad24b9</title>
<path fill="none" stroke="#7b8894" d="M506.25,-2124.25C518.43,-2124.25 528,-2124.25 528,-2124.25 528,-2124.25 528,-2450 528,-2450 528,-2450 693.95,-2450 693.95,-2450"/>
<polygon fill="#7b8894" stroke="#7b8894" points="693.95,-2453.5 703.95,-2450 693.95,-2446.5 693.95,-2453.5"/>
<text text-anchor="middle" x="605" y="-2152.6" font-family="Sans-Serif" font-size="13.00" fill="darkgrey">t_point_de_sortie</text>
</g>
<!-- 755c71325b204a54849037e13ae58b4b -->
<g id="node8" class="node">
<title>755c71325b204a54849037e13ae58b4b</title>
<image xlink:href="icons/bigquery.png" width="101px" height="101px" preserveAspectRatio="xMinYMin meet" x="16" y="-1960.5"/>
<text text-anchor="middle" x="66.5" y="-1845.1" font-family="Sans-Serif" font-size="13.00" fill="#2d3436">[?config?].t_ama_leads_formulaires</text>
</g>
<!-- 755c71325b204a54849037e13ae58b4b&#45;&gt;3c390ff71d6845939923ccaa56129919 -->
<g id="edge5" class="edge">
<title>755c71325b204a54849037e13ae58b4b&#45;&gt;3c390ff71d6845939923ccaa56129919</title>
<path fill="none" stroke="#7b8894" d="M67,-1978.67C67,-1990.99 67,-2000 67,-2000 67,-2000 456,-2000 456,-2000 456,-2000 456,-2011.33 456,-2011.33"/>
<polygon fill="#7b8894" stroke="#7b8894" points="452.5,-2011.33 456,-2021.33 459.5,-2011.33 452.5,-2011.33"/>
<text text-anchor="middle" x="261" y="-1972.6" font-family="Sans-Serif" font-size="13.00" fill="darkgrey">t_realise</text>
</g>
<!-- 89272ba92bf24fb79cd7a43c557e49b9 -->
<g id="node9" class="node">
<title>89272ba92bf24fb79cd7a43c557e49b9</title>
<image xlink:href="icons/bigquery.png" width="101px" height="101px" preserveAspectRatio="xMinYMin meet" x="16" y="-1780.5"/>
<text text-anchor="middle" x="66.5" y="-1665.1" font-family="Sans-Serif" font-size="13.00" fill="#2d3436">[?config?].t_ama_ventes_digitales</text>
</g>
<!-- 89272ba92bf24fb79cd7a43c557e49b9&#45;&gt;3c390ff71d6845939923ccaa56129919 -->
<g id="edge6" class="edge">
<title>89272ba92bf24fb79cd7a43c557e49b9&#45;&gt;3c390ff71d6845939923ccaa56129919</title>
<path fill="none" stroke="#7b8894" d="M117.08,-1778.93C138.68,-1778.93 159,-1778.93 159,-1778.93 159,-1778.93 159,-2067.17 159,-2067.17 159,-2067.17 394.87,-2067.17 394.87,-2067.17"/>
<polygon fill="#7b8894" stroke="#7b8894" points="394.87,-2070.67 404.87,-2067.17 394.87,-2063.67 394.87,-2070.67"/>
<text text-anchor="middle" x="261" y="-1821.6" font-family="Sans-Serif" font-size="13.00" fill="darkgrey">t_realise</text>
</g>
<!-- fc94f90c0e2b4987842c3f8124fba705 -->
<g id="node12" class="node">
<title>fc94f90c0e2b4987842c3f8124fba705</title>
<image xlink:href="icons/bigquery.png" width="101px" height="101px" preserveAspectRatio="xMinYMin meet" x="405" y="-2320.5"/>
<text text-anchor="middle" x="455.5" y="-2205.1" font-family="Sans-Serif" font-size="13.00" fill="#2d3436">[?config?].e_ds_comper_saisonnalite</text>
</g>
<!-- fc94f90c0e2b4987842c3f8124fba705&#45;&gt;9edd959ff3424f1589d43fe91dad24b9 -->
<g id="edge9" class="edge">
<title>fc94f90c0e2b4987842c3f8124fba705&#45;&gt;9edd959ff3424f1589d43fe91dad24b9</title>
<path fill="none" stroke="#7b8894" d="M473,-2338.78C473,-2347.16 473,-2352.83 473,-2352.83 473,-2352.83 755,-2352.83 755,-2352.83 755,-2352.83 755,-2371.46 755,-2371.46"/>
<polygon fill="#7b8894" stroke="#7b8894" points="751.5,-2371.46 755,-2381.46 758.5,-2371.46 751.5,-2371.46"/>
<text text-anchor="middle" x="605" y="-2363.6" font-family="Sans-Serif" font-size="13.00" fill="darkgrey">t_point_de_sortie</text>
</g>
<!-- 678c7ba028244ef4864b02dd5b4196df -->
<g id="node13" class="node">
<title>678c7ba028244ef4864b02dd5b4196df</title>
<image xlink:href="icons/bigquery.png" width="101px" height="101px" preserveAspectRatio="xMinYMin meet" x="16" y="-1600.5"/>
<text text-anchor="middle" x="66.5" y="-1485.1" font-family="Sans-Serif" font-size="13.00" fill="#2d3436">comper.e_datastudio_contrats_offres_energie_2018</text>
</g>
<!-- 7e2d9885625d42d3af3dd5362655aa6e -->
<g id="node14" class="node">
<title>7e2d9885625d42d3af3dd5362655aa6e</title>
<image xlink:href="icons/bigquery.png" width="101px" height="101px" preserveAspectRatio="xMinYMin meet" x="405" y="-1780.5"/>
<text text-anchor="middle" x="455.5" y="-1665.1" font-family="Sans-Serif" font-size="13.00" fill="#2d3436">comper.l_datastudio_contrats_offres_energie_hors_depenses</text>
</g>
<!-- 678c7ba028244ef4864b02dd5b4196df&#45;&gt;7e2d9885625d42d3af3dd5362655aa6e -->
<g id="edge10" class="edge">
<title>678c7ba028244ef4864b02dd5b4196df&#45;&gt;7e2d9885625d42d3af3dd5362655aa6e</title>
<path fill="none" stroke="#7b8894" d="M67,-1618.67C67,-1630.99 67,-1640 67,-1640 67,-1640 456,-1640 456,-1640 456,-1640 456,-1651.33 456,-1651.33"/>
<polygon fill="#7b8894" stroke="#7b8894" points="452.5,-1651.33 456,-1661.33 459.5,-1651.33 452.5,-1651.33"/>
<text text-anchor="middle" x="261" y="-1643.6" font-family="Sans-Serif" font-size="13.00" fill="darkgrey">t_contrats_offres_energie_hors_depenses</text>
</g>
<!-- 12d3eab9bf994c6083408a31f32f466c -->
<g id="node20" class="node">
<title>12d3eab9bf994c6083408a31f32f466c</title>
<image xlink:href="icons/bigquery.png" width="101px" height="101px" preserveAspectRatio="xMinYMin meet" x="704" y="-2140.5"/>
<text text-anchor="middle" x="754.5" y="-2025.1" font-family="Sans-Serif" font-size="13.00" fill="#2d3436">comper.t_datastudio_depenses_acquisition</text>
</g>
<!-- 7e2d9885625d42d3af3dd5362655aa6e&#45;&gt;12d3eab9bf994c6083408a31f32f466c -->
<g id="edge16" class="edge">
<title>7e2d9885625d42d3af3dd5362655aa6e&#45;&gt;12d3eab9bf994c6083408a31f32f466c</title>
<path fill="none" stroke="#7b8894" d="M506.29,-1707.17C545.81,-1707.17 594,-1707.17 594,-1707.17 594,-1707.17 594,-2090 594,-2090 594,-2090 693.72,-2090 693.72,-2090"/>
<polygon fill="#7b8894" stroke="#7b8894" points="693.72,-2093.5 703.72,-2090 693.72,-2086.5 693.72,-2093.5"/>
<text text-anchor="middle" x="605" y="-1868.6" font-family="Sans-Serif" font-size="13.00" fill="darkgrey">t_depenses_acquisition</text>
</g>
<!-- b87049c836db4ca2af24093be597a531 -->
<g id="node22" class="node">
<title>b87049c836db4ca2af24093be597a531</title>
<image xlink:href="icons/bigquery.png" width="101px" height="101px" preserveAspectRatio="xMinYMin meet" x="704" y="-2320.5"/>
<text text-anchor="middle" x="754.5" y="-2205.1" font-family="Sans-Serif" font-size="13.00" fill="#2d3436">comper.t_datastudio_depenses_traitement</text>
</g>
<!-- 7e2d9885625d42d3af3dd5362655aa6e&#45;&gt;b87049c836db4ca2af24093be597a531 -->
<g id="edge18" class="edge">
<title>7e2d9885625d42d3af3dd5362655aa6e&#45;&gt;b87049c836db4ca2af24093be597a531</title>
<path fill="none" stroke="#7b8894" d="M506.26,-1752.83C537.65,-1752.83 572,-1752.83 572,-1752.83 572,-1752.83 572,-2247.17 572,-2247.17 572,-2247.17 693.66,-2247.17 693.66,-2247.17"/>
<polygon fill="#7b8894" stroke="#7b8894" points="693.66,-2250.67 703.66,-2247.17 693.66,-2243.67 693.66,-2250.67"/>
<text text-anchor="middle" x="605" y="-1986.6" font-family="Sans-Serif" font-size="13.00" fill="darkgrey">t_depenses_traitement</text>
</g>
<!-- a0841b5bfcbb4988be9fba7fd6def544 -->
<g id="node24" class="node">
<title>a0841b5bfcbb4988be9fba7fd6def544</title>
<image xlink:href="icons/bigquery.png" width="101px" height="101px" preserveAspectRatio="xMinYMin meet" x="704" y="-1960.5"/>
<text text-anchor="middle" x="754.5" y="-1845.1" font-family="Sans-Serif" font-size="13.00" fill="#2d3436">comper.l_datastudio_contrats_offres_energie</text>
</g>
<!-- 7e2d9885625d42d3af3dd5362655aa6e&#45;&gt;a0841b5bfcbb4988be9fba7fd6def544 -->
<g id="edge20" class="edge">
<title>7e2d9885625d42d3af3dd5362655aa6e&#45;&gt;a0841b5bfcbb4988be9fba7fd6def544</title>
<path fill="none" stroke="#7b8894" d="M456,-1798.67C456,-1810.99 456,-1820 456,-1820 456,-1820 755,-1820 755,-1820 755,-1820 755,-1831.33 755,-1831.33"/>
<polygon fill="#7b8894" stroke="#7b8894" points="751.5,-1831.33 755,-1841.33 758.5,-1831.33 751.5,-1831.33"/>
<text text-anchor="middle" x="605" y="-1769.6" font-family="Sans-Serif" font-size="13.00" fill="darkgrey">t_contrats_offres_energie</text>
</g>
<!-- 438ce23585fa456c88c301fd400ebc98 -->
<g id="node15" class="node">
<title>438ce23585fa456c88c301fd400ebc98</title>
<image xlink:href="icons/bigquery.png" width="101px" height="101px" preserveAspectRatio="xMinYMin meet" x="16" y="-1420.5"/>
<text text-anchor="middle" x="66.5" y="-1305.1" font-family="Sans-Serif" font-size="13.00" fill="#2d3436">[?config?].t_ama_realise</text>
</g>
<!-- 438ce23585fa456c88c301fd400ebc98&#45;&gt;7e2d9885625d42d3af3dd5362655aa6e -->
<g id="edge11" class="edge">
<title>438ce23585fa456c88c301fd400ebc98&#45;&gt;7e2d9885625d42d3af3dd5362655aa6e</title>
<path fill="none" stroke="#7b8894" d="M117.35,-1370C155.08,-1370 200,-1370 200,-1370 200,-1370 200,-1759.36 200,-1759.36 200,-1759.36 394.72,-1759.36 394.72,-1759.36"/>
<polygon fill="#7b8894" stroke="#7b8894" points="394.72,-1762.86 404.72,-1759.36 394.72,-1755.86 394.72,-1762.86"/>
<text text-anchor="middle" x="261" y="-1477.6" font-family="Sans-Serif" font-size="13.00" fill="darkgrey">t_contrats_offres_energie_hors_depenses</text>
</g>
<!-- 3c74dbe00e334347a976346c154f73f5 -->
<g id="node16" class="node">
<title>3c74dbe00e334347a976346c154f73f5</title>
<image xlink:href="icons/bigquery.png" width="101px" height="101px" preserveAspectRatio="xMinYMin meet" x="16" y="-1240.5"/>
<text text-anchor="middle" x="66.5" y="-1125.1" font-family="Sans-Serif" font-size="13.00" fill="#2d3436">[?config?].e_ds_comper_objectifs_2018_seulement</text>
</g>
<!-- 3c74dbe00e334347a976346c154f73f5&#45;&gt;7e2d9885625d42d3af3dd5362655aa6e -->
<g id="edge12" class="edge">
<title>3c74dbe00e334347a976346c154f73f5&#45;&gt;7e2d9885625d42d3af3dd5362655aa6e</title>
<path fill="none" stroke="#7b8894" d="M117.44,-1190C168.95,-1190 241,-1190 241,-1190 241,-1190 241,-1739.79 241,-1739.79 241,-1739.79 394.94,-1739.79 394.94,-1739.79"/>
<polygon fill="#7b8894" stroke="#7b8894" points="394.94,-1743.29 404.94,-1739.79 394.94,-1736.29 394.94,-1743.29"/>
<text text-anchor="middle" x="261" y="-1304.6" font-family="Sans-Serif" font-size="13.00" fill="darkgrey">t_contrats_offres_energie_hors_depenses</text>
</g>
<!-- 5f7515a0c11b4162b6488ed69e7aca03 -->
<g id="node17" class="node">
<title>5f7515a0c11b4162b6488ed69e7aca03</title>
<image xlink:href="icons/bigquery.png" width="101px" height="101px" preserveAspectRatio="xMinYMin meet" x="16" y="-1060.5"/>
<text text-anchor="middle" x="66.5" y="-945.1" font-family="Sans-Serif" font-size="13.00" fill="#2d3436">[?config?].e_ds_comper_objectifs_2019_seulement</text>
</g>
<!-- 5f7515a0c11b4162b6488ed69e7aca03&#45;&gt;7e2d9885625d42d3af3dd5362655aa6e -->
<g id="edge13" class="edge">
<title>5f7515a0c11b4162b6488ed69e7aca03&#45;&gt;7e2d9885625d42d3af3dd5362655aa6e</title>
<path fill="none" stroke="#7b8894" d="M117.03,-1010C180.72,-1010 282,-1010 282,-1010 282,-1010 282,-1720.21 282,-1720.21 282,-1720.21 394.85,-1720.21 394.85,-1720.21"/>
<polygon fill="#7b8894" stroke="#7b8894" points="394.85,-1723.71 404.85,-1720.21 394.85,-1716.71 394.85,-1723.71"/>
<text text-anchor="middle" x="261" y="-1127.6" font-family="Sans-Serif" font-size="13.00" fill="darkgrey">t_contrats_offres_energie_hors_depenses</text>
</g>
<!-- 02a65b4b9b244673a3fe7a8e79031a22 -->
<g id="node18" class="node">
<title>02a65b4b9b244673a3fe7a8e79031a22</title>
<image xlink:href="icons/bigquery.png" width="101px" height="101px" preserveAspectRatio="xMinYMin meet" x="16" y="-880.5"/>
<text text-anchor="middle" x="66.5" y="-765.1" font-family="Sans-Serif" font-size="13.00" fill="#2d3436">[?config?].t_datastudio_point_de_sortie</text>
</g>
<!-- 02a65b4b9b244673a3fe7a8e79031a22&#45;&gt;7e2d9885625d42d3af3dd5362655aa6e -->
<g id="edge14" class="edge">
<title>02a65b4b9b244673a3fe7a8e79031a22&#45;&gt;7e2d9885625d42d3af3dd5362655aa6e</title>
<path fill="none" stroke="#7b8894" d="M117.18,-830C191.93,-830 323,-830 323,-830 323,-830 323,-1700.64 323,-1700.64 323,-1700.64 394.65,-1700.64 394.65,-1700.64"/>
<polygon fill="#7b8894" stroke="#7b8894" points="394.65,-1704.14 404.65,-1700.64 394.65,-1697.14 394.65,-1704.14"/>
<text text-anchor="middle" x="261" y="-949.6" font-family="Sans-Serif" font-size="13.00" fill="darkgrey">t_contrats_offres_energie_hors_depenses</text>
</g>
<!-- b11d0b5c26354bae869c9be0152c1d7a -->
<g id="node19" class="node">
<title>b11d0b5c26354bae869c9be0152c1d7a</title>
<image xlink:href="icons/bigquery.png" width="101px" height="101px" preserveAspectRatio="xMinYMin meet" x="16" y="-700.5"/>
<text text-anchor="middle" x="66.5" y="-585.1" font-family="Sans-Serif" font-size="13.00" fill="#2d3436">[?config?].e_ds_comper_objectifs</text>
</g>
<!-- b11d0b5c26354bae869c9be0152c1d7a&#45;&gt;7e2d9885625d42d3af3dd5362655aa6e -->
<g id="edge15" class="edge">
<title>b11d0b5c26354bae869c9be0152c1d7a&#45;&gt;7e2d9885625d42d3af3dd5362655aa6e</title>
<path fill="none" stroke="#7b8894" d="M117.3,-650C202.27,-650 364,-650 364,-650 364,-650 364,-1681.07 364,-1681.07 364,-1681.07 394.93,-1681.07 394.93,-1681.07"/>
<polygon fill="#7b8894" stroke="#7b8894" points="394.93,-1684.57 404.93,-1681.07 394.93,-1677.57 394.93,-1684.57"/>
<text text-anchor="middle" x="261" y="-712.6" font-family="Sans-Serif" font-size="13.00" fill="darkgrey">t_contrats_offres_energie_hors_depenses</text>
</g>
<!-- 53d76a910da4428393b681ae92ddb242 -->
<g id="node21" class="node">
<title>53d76a910da4428393b681ae92ddb242</title>
<image xlink:href="icons/bigquery.png" width="101px" height="101px" preserveAspectRatio="xMinYMin meet" x="405" y="-1600.5"/>
<text text-anchor="middle" x="455.5" y="-1485.1" font-family="Sans-Serif" font-size="13.00" fill="#2d3436">depenses.e_gsheet_depenses_acquisition</text>
</g>
<!-- 53d76a910da4428393b681ae92ddb242&#45;&gt;12d3eab9bf994c6083408a31f32f466c -->
<g id="edge17" class="edge">
<title>53d76a910da4428393b681ae92ddb242&#45;&gt;12d3eab9bf994c6083408a31f32f466c</title>
<path fill="none" stroke="#7b8894" d="M506.28,-1550C553.3,-1550 616,-1550 616,-1550 616,-1550 616,-2055.75 616,-2055.75 616,-2055.75 693.71,-2055.75 693.71,-2055.75"/>
<polygon fill="#7b8894" stroke="#7b8894" points="693.71,-2059.25 703.71,-2055.75 693.71,-2052.25 693.71,-2059.25"/>
<text text-anchor="middle" x="605" y="-1630.6" font-family="Sans-Serif" font-size="13.00" fill="darkgrey">t_depenses_acquisition</text>
</g>
<!-- 32eb303a8d034dd49482aa7007100858 -->
<g id="node23" class="node">
<title>32eb303a8d034dd49482aa7007100858</title>
<image xlink:href="icons/bigquery.png" width="101px" height="101px" preserveAspectRatio="xMinYMin meet" x="405" y="-1960.5"/>
<text text-anchor="middle" x="455.5" y="-1845.1" font-family="Sans-Serif" font-size="13.00" fill="#2d3436">depenses.e_gsheet_depenses_traitement</text>
</g>
<!-- 32eb303a8d034dd49482aa7007100858&#45;&gt;b87049c836db4ca2af24093be597a531 -->
<g id="edge19" class="edge">
<title>32eb303a8d034dd49482aa7007100858&#45;&gt;b87049c836db4ca2af24093be597a531</title>
<path fill="none" stroke="#7b8894" d="M506.07,-1951.1C528.54,-1951.1 550,-1951.1 550,-1951.1 550,-1951.1 550,-2292.83 550,-2292.83 550,-2292.83 693.95,-2292.83 693.95,-2292.83"/>
<polygon fill="#7b8894" stroke="#7b8894" points="693.95,-2296.33 703.95,-2292.83 693.95,-2289.33 693.95,-2296.33"/>
<text text-anchor="middle" x="605" y="-2076.6" font-family="Sans-Serif" font-size="13.00" fill="darkgrey">t_depenses_traitement</text>
</g>
<!-- eb8edda47e5f4043a5abadd57dd97217 -->
<g id="node28" class="node">
<title>eb8edda47e5f4043a5abadd57dd97217</title>
<image xlink:href="icons/bigquery.png" width="101px" height="101px" preserveAspectRatio="xMinYMin meet" x="1045" y="-1060.5"/>
<text text-anchor="middle" x="1095.5" y="-945.1" font-family="Sans-Serif" font-size="13.00" fill="#2d3436">comper.l_v_digi_to_ds_comper_ventes_digitales</text>
</g>
<!-- a0841b5bfcbb4988be9fba7fd6def544&#45;&gt;eb8edda47e5f4043a5abadd57dd97217 -->
<g id="edge24" class="edge">
<title>a0841b5bfcbb4988be9fba7fd6def544&#45;&gt;eb8edda47e5f4043a5abadd57dd97217</title>
<path fill="none" stroke="#7b8894" d="M805.14,-1910C907.64,-1910 1130,-1910 1130,-1910 1130,-1910 1130,-1088.76 1130,-1088.76"/>
<polygon fill="#7b8894" stroke="#7b8894" points="1133.5,-1088.76 1130,-1078.76 1126.5,-1088.76 1133.5,-1088.76"/>
<text text-anchor="middle" x="925" y="-1798.6" font-family="Sans-Serif" font-size="13.00" fill="darkgrey">l_to_ds_comper_ventes_digitales</text>
</g>
<!-- 74d3d3b98b3d43a7b068df05d49b7329 -->
<g id="node25" class="node">
<title>74d3d3b98b3d43a7b068df05d49b7329</title>
<image xlink:href="icons/bigquery.png" width="101px" height="101px" preserveAspectRatio="xMinYMin meet" x="405" y="-1420.5"/>
<text text-anchor="middle" x="455.5" y="-1305.1" font-family="Sans-Serif" font-size="13.00" fill="#2d3436">[?config?].t_datastudio_depenses_acquisition</text>
</g>
<!-- 74d3d3b98b3d43a7b068df05d49b7329&#45;&gt;a0841b5bfcbb4988be9fba7fd6def544 -->
<g id="edge21" class="edge">
<title>74d3d3b98b3d43a7b068df05d49b7329&#45;&gt;a0841b5bfcbb4988be9fba7fd6def544</title>
<path fill="none" stroke="#7b8894" d="M506.34,-1370C560.34,-1370 638,-1370 638,-1370 638,-1370 638,-1923.7 638,-1923.7 638,-1923.7 693.74,-1923.7 693.74,-1923.7"/>
<polygon fill="#7b8894" stroke="#7b8894" points="693.74,-1927.2 703.74,-1923.7 693.74,-1920.2 693.74,-1927.2"/>
<text text-anchor="middle" x="605" y="-1470.6" font-family="Sans-Serif" font-size="13.00" fill="darkgrey">t_contrats_offres_energie</text>
</g>
<!-- 513beb632a2a43569b320b6d7a4428d9 -->
<g id="node26" class="node">
<title>513beb632a2a43569b320b6d7a4428d9</title>
<image xlink:href="icons/bigquery.png" width="101px" height="101px" preserveAspectRatio="xMinYMin meet" x="405" y="-1240.5"/>
<text text-anchor="middle" x="455.5" y="-1125.1" font-family="Sans-Serif" font-size="13.00" fill="#2d3436">[?config?].t_datastudio_depenses_traitement</text>
</g>
<!-- 513beb632a2a43569b320b6d7a4428d9&#45;&gt;a0841b5bfcbb4988be9fba7fd6def544 -->
<g id="edge22" class="edge">
<title>513beb632a2a43569b320b6d7a4428d9&#45;&gt;a0841b5bfcbb4988be9fba7fd6def544</title>
<path fill="none" stroke="#7b8894" d="M506.05,-1190C566.61,-1190 660,-1190 660,-1190 660,-1190 660,-1896.3 660,-1896.3 660,-1896.3 693.93,-1896.3 693.93,-1896.3"/>
<polygon fill="#7b8894" stroke="#7b8894" points="693.93,-1899.8 703.93,-1896.3 693.93,-1892.8 693.93,-1899.8"/>
<text text-anchor="middle" x="605" y="-1300.6" font-family="Sans-Serif" font-size="13.00" fill="darkgrey">t_contrats_offres_energie</text>
</g>
<!-- 2f8e5a7d4dcb40fda1e61b1e14d6402d -->
<g id="node27" class="node">
<title>2f8e5a7d4dcb40fda1e61b1e14d6402d</title>
<image xlink:href="icons/bigquery.png" width="101px" height="101px" preserveAspectRatio="xMinYMin meet" x="405" y="-1060.5"/>
<text text-anchor="middle" x="455.5" y="-945.1" font-family="Sans-Serif" font-size="13.00" fill="#2d3436">[?config?].l_datastudio_contrats_offres_energie_avant_2021</text>
</g>
<!-- 2f8e5a7d4dcb40fda1e61b1e14d6402d&#45;&gt;a0841b5bfcbb4988be9fba7fd6def544 -->
<g id="edge23" class="edge">
<title>2f8e5a7d4dcb40fda1e61b1e14d6402d&#45;&gt;a0841b5bfcbb4988be9fba7fd6def544</title>
<path fill="none" stroke="#7b8894" d="M506.05,-1010C572.8,-1010 682,-1010 682,-1010 682,-1010 682,-1868.9 682,-1868.9 682,-1868.9 693.75,-1868.9 693.75,-1868.9"/>
<polygon fill="#7b8894" stroke="#7b8894" points="693.75,-1872.4 703.75,-1868.9 693.75,-1865.4 693.75,-1872.4"/>
<text text-anchor="middle" x="605" y="-1125.6" font-family="Sans-Serif" font-size="13.00" fill="darkgrey">t_contrats_offres_energie</text>
</g>
<!-- 3954b44bbce44120894bc1f91d80458d -->
<g id="node29" class="node">
<title>3954b44bbce44120894bc1f91d80458d</title>
<image xlink:href="icons/bigquery.png" width="101px" height="101px" preserveAspectRatio="xMinYMin meet" x="704" y="-1780.5"/>
<text text-anchor="middle" x="754.5" y="-1665.1" font-family="Sans-Serif" font-size="13.00" fill="#2d3436">[?config?].l_ama_to_ds_comper_contrats_services</text>
</g>
<!-- 3954b44bbce44120894bc1f91d80458d&#45;&gt;eb8edda47e5f4043a5abadd57dd97217 -->
<g id="edge25" class="edge">
<title>3954b44bbce44120894bc1f91d80458d&#45;&gt;eb8edda47e5f4043a5abadd57dd97217</title>
<path fill="none" stroke="#7b8894" d="M805.1,-1730C903.92,-1730 1113,-1730 1113,-1730 1113,-1730 1113,-1088.71 1113,-1088.71"/>
<polygon fill="#7b8894" stroke="#7b8894" points="1116.5,-1088.71 1113,-1078.71 1109.5,-1088.71 1116.5,-1088.71"/>
<text text-anchor="middle" x="925" y="-1622.6" font-family="Sans-Serif" font-size="13.00" fill="darkgrey">l_to_ds_comper_ventes_digitales</text>
</g>
<!-- c88377188502426dba62932dec5e42a8 -->
<g id="node30" class="node">
<title>c88377188502426dba62932dec5e42a8</title>
<image xlink:href="icons/bigquery.png" width="101px" height="101px" preserveAspectRatio="xMinYMin meet" x="704" y="-1600.5"/>
<text text-anchor="middle" x="754.5" y="-1485.1" font-family="Sans-Serif" font-size="13.00" fill="#2d3436">[?config?].l_ama_to_ds_comper_options_vertes</text>
</g>
<!-- c88377188502426dba62932dec5e42a8&#45;&gt;eb8edda47e5f4043a5abadd57dd97217 -->
<g id="edge26" class="edge">
<title>c88377188502426dba62932dec5e42a8&#45;&gt;eb8edda47e5f4043a5abadd57dd97217</title>
<path fill="none" stroke="#7b8894" d="M805.26,-1550C900.39,-1550 1096,-1550 1096,-1550 1096,-1550 1096,-1088.67 1096,-1088.67"/>
<polygon fill="#7b8894" stroke="#7b8894" points="1099.5,-1088.67 1096,-1078.67 1092.5,-1088.67 1099.5,-1088.67"/>
<text text-anchor="middle" x="925" y="-1449.6" font-family="Sans-Serif" font-size="13.00" fill="darkgrey">l_to_ds_comper_ventes_digitales</text>
</g>
<!-- ae0e1a8582d7491cb7d9ae90b176aff8 -->
<g id="node31" class="node">
<title>ae0e1a8582d7491cb7d9ae90b176aff8</title>
<image xlink:href="icons/bigquery.png" width="101px" height="101px" preserveAspectRatio="xMinYMin meet" x="704" y="-1420.5"/>
<text text-anchor="middle" x="754.5" y="-1305.1" font-family="Sans-Serif" font-size="13.00" fill="#2d3436">[?config?].l_ama_to_ds_comper_t_ama_parrainage</text>
</g>
<!-- ae0e1a8582d7491cb7d9ae90b176aff8&#45;&gt;eb8edda47e5f4043a5abadd57dd97217 -->
<g id="edge27" class="edge">
<title>ae0e1a8582d7491cb7d9ae90b176aff8&#45;&gt;eb8edda47e5f4043a5abadd57dd97217</title>
<path fill="none" stroke="#7b8894" d="M805.2,-1370C896.47,-1370 1079,-1370 1079,-1370 1079,-1370 1079,-1088.56 1079,-1088.56"/>
<polygon fill="#7b8894" stroke="#7b8894" points="1082.5,-1088.56 1079,-1078.56 1075.5,-1088.56 1082.5,-1088.56"/>
<text text-anchor="middle" x="925" y="-1284.6" font-family="Sans-Serif" font-size="13.00" fill="darkgrey">l_to_ds_comper_ventes_digitales</text>
</g>
<!-- e9bef450fdf943138f67e689b30d0dfa -->
<g id="node32" class="node">
<title>e9bef450fdf943138f67e689b30d0dfa</title>
<image xlink:href="icons/bigquery.png" width="101px" height="101px" preserveAspectRatio="xMinYMin meet" x="704" y="-1240.5"/>
<text text-anchor="middle" x="754.5" y="-1125.1" font-family="Sans-Serif" font-size="13.00" fill="#2d3436">[?config?].l_ga_to_ds_comper_e_gsheet_cee_souscriptions</text>
</g>
<!-- e9bef450fdf943138f67e689b30d0dfa&#45;&gt;eb8edda47e5f4043a5abadd57dd97217 -->
<g id="edge28" class="edge">
<title>e9bef450fdf943138f67e689b30d0dfa&#45;&gt;eb8edda47e5f4043a5abadd57dd97217</title>
<path fill="none" stroke="#7b8894" d="M805.28,-1190C892.62,-1190 1062,-1190 1062,-1190 1062,-1190 1062,-1088.56 1062,-1088.56"/>
<polygon fill="#7b8894" stroke="#7b8894" points="1065.5,-1088.56 1062,-1078.56 1058.5,-1088.56 1065.5,-1088.56"/>
<text text-anchor="middle" x="925" y="-1134.6" font-family="Sans-Serif" font-size="13.00" fill="darkgrey">l_to_ds_comper_ventes_digitales</text>
</g>
<!-- 0f64dfddd84646fc8298fcd783b874c0 -->
<g id="node33" class="node">
<title>0f64dfddd84646fc8298fcd783b874c0</title>
<image xlink:href="icons/bigquery.png" width="101px" height="101px" preserveAspectRatio="xMinYMin meet" x="704" y="-1060.5"/>
<text text-anchor="middle" x="754.5" y="-945.1" font-family="Sans-Serif" font-size="13.00" fill="#2d3436">[?config?].l_ama_to_ds_comper_bout_en_bout_equipements</text>
</g>
<!-- 0f64dfddd84646fc8298fcd783b874c0&#45;&gt;eb8edda47e5f4043a5abadd57dd97217 -->
<g id="edge29" class="edge">
<title>0f64dfddd84646fc8298fcd783b874c0&#45;&gt;eb8edda47e5f4043a5abadd57dd97217</title>
<path fill="none" stroke="#7b8894" d="M805.18,-1010C805.18,-1010 1034.82,-1010 1034.82,-1010"/>
<polygon fill="#7b8894" stroke="#7b8894" points="1034.82,-1013.5 1044.82,-1010 1034.82,-1006.5 1034.82,-1013.5"/>
<text text-anchor="middle" x="925" y="-1013.6" font-family="Sans-Serif" font-size="13.00" fill="darkgrey">l_to_ds_comper_ventes_digitales</text>
</g>
<!-- 42795741adda4f16a9677e156fb1eb9d -->
<g id="node34" class="node">
<title>42795741adda4f16a9677e156fb1eb9d</title>
<image xlink:href="icons/bigquery.png" width="101px" height="101px" preserveAspectRatio="xMinYMin meet" x="704" y="-880.5"/>
<text text-anchor="middle" x="754.5" y="-765.1" font-family="Sans-Serif" font-size="13.00" fill="#2d3436">[?config?].e_ds_comper_objectifs_hors_energie</text>
</g>
<!-- 42795741adda4f16a9677e156fb1eb9d&#45;&gt;eb8edda47e5f4043a5abadd57dd97217 -->
<g id="edge30" class="edge">
<title>42795741adda4f16a9677e156fb1eb9d&#45;&gt;eb8edda47e5f4043a5abadd57dd97217</title>
<path fill="none" stroke="#7b8894" d="M805.28,-830C892.62,-830 1062,-830 1062,-830 1062,-830 1062,-931.44 1062,-931.44"/>
<polygon fill="#7b8894" stroke="#7b8894" points="1058.5,-931.44 1062,-941.44 1065.5,-931.44 1058.5,-931.44"/>
<text text-anchor="middle" x="925" y="-892.6" font-family="Sans-Serif" font-size="13.00" fill="darkgrey">l_to_ds_comper_ventes_digitales</text>
</g>
<!-- 1447a21235d04d56afcfdc956e7aac57 -->
<g id="node35" class="node">
<title>1447a21235d04d56afcfdc956e7aac57</title>
<image xlink:href="icons/bigquery.png" width="101px" height="101px" preserveAspectRatio="xMinYMin meet" x="704" y="-700.5"/>
<text text-anchor="middle" x="754.5" y="-585.1" font-family="Sans-Serif" font-size="13.00" fill="#2d3436">[?config?].l_mypower_to_ds_comper_mypower</text>
</g>
<!-- 1447a21235d04d56afcfdc956e7aac57&#45;&gt;eb8edda47e5f4043a5abadd57dd97217 -->
<g id="edge31" class="edge">
<title>1447a21235d04d56afcfdc956e7aac57&#45;&gt;eb8edda47e5f4043a5abadd57dd97217</title>
<path fill="none" stroke="#7b8894" d="M805.2,-650C896.47,-650 1079,-650 1079,-650 1079,-650 1079,-931.44 1079,-931.44"/>
<polygon fill="#7b8894" stroke="#7b8894" points="1075.5,-931.44 1079,-941.44 1082.5,-931.44 1075.5,-931.44"/>
<text text-anchor="middle" x="925" y="-741.6" font-family="Sans-Serif" font-size="13.00" fill="darkgrey">l_to_ds_comper_ventes_digitales</text>
</g>
<!-- 94a7ca6cd188489f87f662d71d8de65d -->
<g id="node36" class="node">
<title>94a7ca6cd188489f87f662d71d8de65d</title>
<image xlink:href="icons/bigquery.png" width="101px" height="101px" preserveAspectRatio="xMinYMin meet" x="704" y="-520.5"/>
<text text-anchor="middle" x="754.5" y="-405.1" font-family="Sans-Serif" font-size="13.00" fill="#2d3436">[?config?].l_ama_to_ds_comper_prelevement_mensualisation</text>
</g>
<!-- 94a7ca6cd188489f87f662d71d8de65d&#45;&gt;eb8edda47e5f4043a5abadd57dd97217 -->
<g id="edge32" class="edge">
<title>94a7ca6cd188489f87f662d71d8de65d&#45;&gt;eb8edda47e5f4043a5abadd57dd97217</title>
<path fill="none" stroke="#7b8894" d="M805.26,-470C900.39,-470 1096,-470 1096,-470 1096,-470 1096,-931.33 1096,-931.33"/>
<polygon fill="#7b8894" stroke="#7b8894" points="1092.5,-931.33 1096,-941.33 1099.5,-931.33 1092.5,-931.33"/>
<text text-anchor="middle" x="925" y="-576.6" font-family="Sans-Serif" font-size="13.00" fill="darkgrey">l_to_ds_comper_ventes_digitales</text>
</g>
<!-- 97cfd7423af54fdeb0e60880e4dee9b0 -->
<g id="node37" class="node">
<title>97cfd7423af54fdeb0e60880e4dee9b0</title>
<image xlink:href="icons/bigquery.png" width="101px" height="101px" preserveAspectRatio="xMinYMin meet" x="704" y="-340.5"/>
<text text-anchor="middle" x="754.5" y="-225.1" font-family="Sans-Serif" font-size="13.00" fill="#2d3436">[?config?].l_ama_to_ds_comper_activation_energie</text>
</g>
<!-- 97cfd7423af54fdeb0e60880e4dee9b0&#45;&gt;eb8edda47e5f4043a5abadd57dd97217 -->
<g id="edge33" class="edge">
<title>97cfd7423af54fdeb0e60880e4dee9b0&#45;&gt;eb8edda47e5f4043a5abadd57dd97217</title>
<path fill="none" stroke="#7b8894" d="M805.1,-290C903.92,-290 1113,-290 1113,-290 1113,-290 1113,-931.29 1113,-931.29"/>
<polygon fill="#7b8894" stroke="#7b8894" points="1109.5,-931.29 1113,-941.29 1116.5,-931.29 1109.5,-931.29"/>
<text text-anchor="middle" x="925" y="-403.6" font-family="Sans-Serif" font-size="13.00" fill="darkgrey">l_to_ds_comper_ventes_digitales</text>
</g>
<!-- 61f05f8cba29438baf01bc7fd915bf34 -->
<g id="node38" class="node">
<title>61f05f8cba29438baf01bc7fd915bf34</title>
<image xlink:href="icons/bigquery.png" width="101px" height="101px" preserveAspectRatio="xMinYMin meet" x="704" y="-160.5"/>
<text text-anchor="middle" x="754.5" y="-45.1" font-family="Sans-Serif" font-size="13.00" fill="#2d3436">[?config?].l_ga_to_ds_comper_sessions</text>
</g>
<!-- 61f05f8cba29438baf01bc7fd915bf34&#45;&gt;eb8edda47e5f4043a5abadd57dd97217 -->
<g id="edge34" class="edge">
<title>61f05f8cba29438baf01bc7fd915bf34&#45;&gt;eb8edda47e5f4043a5abadd57dd97217</title>
<path fill="none" stroke="#7b8894" d="M805.14,-110C907.64,-110 1130,-110 1130,-110 1130,-110 1130,-931.24 1130,-931.24"/>
<polygon fill="#7b8894" stroke="#7b8894" points="1126.5,-931.24 1130,-941.24 1133.5,-931.24 1126.5,-931.24"/>
<text text-anchor="middle" x="925" y="-227.6" font-family="Sans-Serif" font-size="13.00" fill="darkgrey">l_to_ds_comper_ventes_digitales</text>
</g>
</g>
</svg>
