<?xml version="1.0" encoding="UTF-8" standalone="no"?>
<!DOCTYPE svg PUBLIC "-//W3C//DTD SVG 1.1//EN"
 "http://www.w3.org/Graphics/SVG/1.1/DTD/svg11.dtd">
<!-- Generated by graphviz version 2.47.1 (20210417.1919)
 -->
<!-- Title: comper Pages: 1 -->
<svg width="1450pt" height="3024pt"
 viewBox="0.00 0.00 1450.00 3024.00" xmlns="http://www.w3.org/2000/svg" xmlns:xlink="http://www.w3.org/1999/xlink">
<g id="graph0" class="graph" transform="scale(1 1) rotate(0) translate(144 2880)">
<title>comper</title>
<text text-anchor="middle" x="581" y="-9" font-family="Sans-Serif" font-size="15.00" fill="#2d3436">comper</text>
<g id="clust1" class="cluster">
<title>cluster_comper</title>
<path fill="#e5f5fd" stroke="#aeb6be" d="M20,-33C20,-33 1142,-33 1142,-33 1148,-33 1154,-39 1154,-45 1154,-45 1154,-2716 1154,-2716 1154,-2722 1148,-2728 1142,-2728 1142,-2728 20,-2728 20,-2728 14,-2728 8,-2722 8,-2716 8,-2716 8,-45 8,-45 8,-39 14,-33 20,-33"/>
<text text-anchor="middle" x="36" y="-2714.4" font-family="Sans-Serif" font-size="12.00" fill="#2d3436">comper</text>
</g>
<!-- e3b595c645184c8eb22100dce9b1d79b -->
<g id="node1" class="node">
<title>e3b595c645184c8eb22100dce9b1d79b</title>
<image xlink:href="icons/storage.png" width="101px" height="101px" preserveAspectRatio="xMinYMin meet" x="16" y="-2680.5"/>
<text text-anchor="middle" x="66.5" y="-2565.1" font-family="Sans-Serif" font-size="13.00" fill="#2d3436">amadeus_bi.contrats/ama_contrats_digitaux_stor_</text>
</g>
<!-- c68eb3b5d3ea41a8aef8233f35cad371 -->
<g id="node2" class="node">
<title>c68eb3b5d3ea41a8aef8233f35cad371</title>
<image xlink:href="icons/bigquery.png" width="101px" height="101px" preserveAspectRatio="xMinYMin meet" x="405" y="-2680.5"/>
<text text-anchor="middle" x="455.5" y="-2565.1" font-family="Sans-Serif" font-size="13.00" fill="#2d3436">comper.e_v_digi_import_cube_valeur</text>
</g>
<!-- e3b595c645184c8eb22100dce9b1d79b&#45;&gt;c68eb3b5d3ea41a8aef8233f35cad371 -->
<g id="edge1" class="edge">
<title>e3b595c645184c8eb22100dce9b1d79b&#45;&gt;c68eb3b5d3ea41a8aef8233f35cad371</title>
<path fill="none" stroke="#7b8894" d="M117.35,-2630C117.35,-2630 394.94,-2630 394.94,-2630"/>
<polygon fill="#7b8894" stroke="#7b8894" points="394.94,-2633.5 404.94,-2630 394.94,-2626.5 394.94,-2633.5"/>
<text text-anchor="middle" x="261" y="-2633.6" font-family="Sans-Serif" font-size="13.00" fill="darkgrey">e_import_cube_valeur</text>
</g>
<!-- bfd1540f8ade4ddd8aa315c6e181c2dc -->
<g id="node10" class="node">
<title>bfd1540f8ade4ddd8aa315c6e181c2dc</title>
<image xlink:href="icons/bigquery.png" width="101px" height="101px" preserveAspectRatio="xMinYMin meet" x="704" y="-2680.5"/>
<text text-anchor="middle" x="754.5" y="-2565.1" font-family="Sans-Serif" font-size="13.00" fill="#2d3436">comper.t_v_digi_cube_valeur</text>
</g>
<!-- c68eb3b5d3ea41a8aef8233f35cad371&#45;&gt;bfd1540f8ade4ddd8aa315c6e181c2dc -->
<g id="edge7" class="edge">
<title>c68eb3b5d3ea41a8aef8233f35cad371&#45;&gt;bfd1540f8ade4ddd8aa315c6e181c2dc</title>
<path fill="none" stroke="#7b8894" d="M506.22,-2630C506.22,-2630 693.53,-2630 693.53,-2630"/>
<polygon fill="#7b8894" stroke="#7b8894" points="693.53,-2633.5 703.53,-2630 693.53,-2626.5 693.53,-2633.5"/>
<text text-anchor="middle" x="605" y="-2633.6" font-family="Sans-Serif" font-size="13.00" fill="darkgrey">t_cube_valeur</text>
</g>
<!-- 4b462045ddcd4f58aa8ebd5fa6e9990c -->
<g id="node3" class="node">
<title>4b462045ddcd4f58aa8ebd5fa6e9990c</title>
<image xlink:href="icons/bigquery.png" width="101px" height="101px" preserveAspectRatio="xMinYMin meet" x="16" y="-2500.5"/>
<text text-anchor="middle" x="66.5" y="-2385.1" font-family="Sans-Serif" font-size="13.00" fill="#2d3436">amadeus.t_ama_contrats_appels_leviers</text>
</g>
<!-- 3b76212d000644f795bbaa73cfba132f -->
<g id="node4" class="node">
<title>3b76212d000644f795bbaa73cfba132f</title>
<image xlink:href="icons/bigquery.png" width="101px" height="101px" preserveAspectRatio="xMinYMin meet" x="405" y="-2500.5"/>
<text text-anchor="middle" x="455.5" y="-2385.1" font-family="Sans-Serif" font-size="13.00" fill="#2d3436">amadeus.t_ama_ventes_digitales</text>
</g>
<!-- 4b462045ddcd4f58aa8ebd5fa6e9990c&#45;&gt;3b76212d000644f795bbaa73cfba132f -->
<g id="edge2" class="edge">
<title>4b462045ddcd4f58aa8ebd5fa6e9990c&#45;&gt;3b76212d000644f795bbaa73cfba132f</title>
<path fill="none" stroke="#7b8894" d="M117.35,-2450C117.35,-2450 394.94,-2450 394.94,-2450"/>
<polygon fill="#7b8894" stroke="#7b8894" points="394.94,-2453.5 404.94,-2450 394.94,-2446.5 394.94,-2453.5"/>
<text text-anchor="middle" x="261" y="-2453.6" font-family="Sans-Serif" font-size="13.00" fill="darkgrey">t_ventes_digitales</text>
</g>
<!-- de5393ac6de04ecf8541f828a9945de3 -->
<g id="node5" class="node">
<title>de5393ac6de04ecf8541f828a9945de3</title>
<image xlink:href="icons/bigquery.png" width="101px" height="101px" preserveAspectRatio="xMinYMin meet" x="16" y="-2320.5"/>
<text text-anchor="middle" x="66.5" y="-2205.1" font-family="Sans-Serif" font-size="13.00" fill="#2d3436">[?config?].t_ama_contrats_formulaires</text>
</g>
<!-- de5393ac6de04ecf8541f828a9945de3&#45;&gt;3b76212d000644f795bbaa73cfba132f -->
<g id="edge3" class="edge">
<title>de5393ac6de04ecf8541f828a9945de3&#45;&gt;3b76212d000644f795bbaa73cfba132f</title>
<path fill="none" stroke="#7b8894" d="M67,-2338.54C67,-2354.62 67,-2367.17 67,-2367.17 67,-2367.17 439,-2367.17 439,-2367.17 439,-2367.17 439,-2371.22 439,-2371.22"/>
<polygon fill="#7b8894" stroke="#7b8894" points="435.5,-2371.22 439,-2381.22 442.5,-2371.22 435.5,-2371.22"/>
<text text-anchor="middle" x="261" y="-2332.6" font-family="Sans-Serif" font-size="13.00" fill="darkgrey">t_ventes_digitales</text>
</g>
<!-- 2340586ae1fa4434baa97d4d6b0cf1f0 -->
<g id="node6" class="node">
<title>2340586ae1fa4434baa97d4d6b0cf1f0</title>
<image xlink:href="icons/bigquery.png" width="101px" height="101px" preserveAspectRatio="xMinYMin meet" x="16" y="-2140.5"/>
<text text-anchor="middle" x="66.5" y="-2025.1" font-family="Sans-Serif" font-size="13.00" fill="#2d3436">amadeus.t_ama_leads_appels</text>
</g>
<!-- 7ef19735a0b544b1ad712103d90f8e3c -->
<g id="node7" class="node">
<title>7ef19735a0b544b1ad712103d90f8e3c</title>
<image xlink:href="icons/bigquery.png" width="101px" height="101px" preserveAspectRatio="xMinYMin meet" x="405" y="-2140.5"/>
<text text-anchor="middle" x="455.5" y="-2025.1" font-family="Sans-Serif" font-size="13.00" fill="#2d3436">comper.t_ama_realise</text>
</g>
<!-- 2340586ae1fa4434baa97d4d6b0cf1f0&#45;&gt;7ef19735a0b544b1ad712103d90f8e3c -->
<g id="edge4" class="edge">
<title>2340586ae1fa4434baa97d4d6b0cf1f0&#45;&gt;7ef19735a0b544b1ad712103d90f8e3c</title>
<path fill="none" stroke="#7b8894" d="M117.35,-2112.83C117.35,-2112.83 394.94,-2112.83 394.94,-2112.83"/>
<polygon fill="#7b8894" stroke="#7b8894" points="394.94,-2116.33 404.94,-2112.83 394.94,-2109.33 394.94,-2116.33"/>
<text text-anchor="middle" x="261" y="-2093.6" font-family="Sans-Serif" font-size="13.00" fill="darkgrey">t_realise</text>
</g>
<!-- 2987c299bc264a2d80ff28d21c02a29a -->
<g id="node11" class="node">
<title>2987c299bc264a2d80ff28d21c02a29a</title>
<image xlink:href="icons/bigquery.png" width="101px" height="101px" preserveAspectRatio="xMinYMin meet" x="704" y="-2500.5"/>
<text text-anchor="middle" x="754.5" y="-2385.1" font-family="Sans-Serif" font-size="13.00" fill="#2d3436">comper.t_datastudio_point_de_sortie</text>
</g>
<!-- 7ef19735a0b544b1ad712103d90f8e3c&#45;&gt;2987c299bc264a2d80ff28d21c02a29a -->
<g id="edge8" class="edge">
<title>7ef19735a0b544b1ad712103d90f8e3c&#45;&gt;2987c299bc264a2d80ff28d21c02a29a</title>
<path fill="none" stroke="#7b8894" d="M506.25,-2124.25C518.43,-2124.25 528,-2124.25 528,-2124.25 528,-2124.25 528,-2450 528,-2450 528,-2450 693.95,-2450 693.95,-2450"/>
<polygon fill="#7b8894" stroke="#7b8894" points="693.95,-2453.5 703.95,-2450 693.95,-2446.5 693.95,-2453.5"/>
<text text-anchor="middle" x="605" y="-2152.6" font-family="Sans-Serif" font-size="13.00" fill="darkgrey">t_point_de_sortie</text>
</g>
<!-- 92c0d468abcf48549fb5d0ce446e288b -->
<g id="node8" class="node">
<title>92c0d468abcf48549fb5d0ce446e288b</title>
<image xlink:href="icons/bigquery.png" width="101px" height="101px" preserveAspectRatio="xMinYMin meet" x="16" y="-1960.5"/>
<text text-anchor="middle" x="66.5" y="-1845.1" font-family="Sans-Serif" font-size="13.00" fill="#2d3436">[?config?].t_ama_leads_formulaires</text>
</g>
<!-- 92c0d468abcf48549fb5d0ce446e288b&#45;&gt;7ef19735a0b544b1ad712103d90f8e3c -->
<g id="edge5" class="edge">
<title>92c0d468abcf48549fb5d0ce446e288b&#45;&gt;7ef19735a0b544b1ad712103d90f8e3c</title>
<path fill="none" stroke="#7b8894" d="M67,-1978.67C67,-1990.99 67,-2000 67,-2000 67,-2000 456,-2000 456,-2000 456,-2000 456,-2011.33 456,-2011.33"/>
<polygon fill="#7b8894" stroke="#7b8894" points="452.5,-2011.33 456,-2021.33 459.5,-2011.33 452.5,-2011.33"/>
<text text-anchor="middle" x="261" y="-1972.6" font-family="Sans-Serif" font-size="13.00" fill="darkgrey">t_realise</text>
</g>
<!-- 552488b3997f4d14b9c08dcd7089fa0d -->
<g id="node9" class="node">
<title>552488b3997f4d14b9c08dcd7089fa0d</title>
<image xlink:href="icons/bigquery.png" width="101px" height="101px" preserveAspectRatio="xMinYMin meet" x="16" y="-1780.5"/>
<text text-anchor="middle" x="66.5" y="-1665.1" font-family="Sans-Serif" font-size="13.00" fill="#2d3436">[?config?].t_ama_ventes_digitales</text>
</g>
<!-- 552488b3997f4d14b9c08dcd7089fa0d&#45;&gt;7ef19735a0b544b1ad712103d90f8e3c -->
<g id="edge6" class="edge">
<title>552488b3997f4d14b9c08dcd7089fa0d&#45;&gt;7ef19735a0b544b1ad712103d90f8e3c</title>
<path fill="none" stroke="#7b8894" d="M117.08,-1778.93C138.68,-1778.93 159,-1778.93 159,-1778.93 159,-1778.93 159,-2067.17 159,-2067.17 159,-2067.17 394.87,-2067.17 394.87,-2067.17"/>
<polygon fill="#7b8894" stroke="#7b8894" points="394.87,-2070.67 404.87,-2067.17 394.87,-2063.67 394.87,-2070.67"/>
<text text-anchor="middle" x="261" y="-1821.6" font-family="Sans-Serif" font-size="13.00" fill="darkgrey">t_realise</text>
</g>
<!-- 76de0a4f46bc4d168656e41343b53ca9 -->
<g id="node12" class="node">
<title>76de0a4f46bc4d168656e41343b53ca9</title>
<image xlink:href="icons/bigquery.png" width="101px" height="101px" preserveAspectRatio="xMinYMin meet" x="405" y="-2320.5"/>
<text text-anchor="middle" x="455.5" y="-2205.1" font-family="Sans-Serif" font-size="13.00" fill="#2d3436">[?config?].e_ds_comper_saisonnalite</text>
</g>
<!-- 76de0a4f46bc4d168656e41343b53ca9&#45;&gt;2987c299bc264a2d80ff28d21c02a29a -->
<g id="edge9" class="edge">
<title>76de0a4f46bc4d168656e41343b53ca9&#45;&gt;2987c299bc264a2d80ff28d21c02a29a</title>
<path fill="none" stroke="#7b8894" d="M473,-2338.78C473,-2347.16 473,-2352.83 473,-2352.83 473,-2352.83 755,-2352.83 755,-2352.83 755,-2352.83 755,-2371.46 755,-2371.46"/>
<polygon fill="#7b8894" stroke="#7b8894" points="751.5,-2371.46 755,-2381.46 758.5,-2371.46 751.5,-2371.46"/>
<text text-anchor="middle" x="605" y="-2363.6" font-family="Sans-Serif" font-size="13.00" fill="darkgrey">t_point_de_sortie</text>
</g>
<!-- 51b66bc5bc2f45138d699888f0b131a4 -->
<g id="node13" class="node">
<title>51b66bc5bc2f45138d699888f0b131a4</title>
<image xlink:href="icons/bigquery.png" width="101px" height="101px" preserveAspectRatio="xMinYMin meet" x="16" y="-1600.5"/>
<text text-anchor="middle" x="66.5" y="-1485.1" font-family="Sans-Serif" font-size="13.00" fill="#2d3436">comper.e_datastudio_contrats_offres_energie_2018</text>
</g>
<!-- 0b4ea28c09804bc29d82e4b08f59d718 -->
<g id="node14" class="node">
<title>0b4ea28c09804bc29d82e4b08f59d718</title>
<image xlink:href="icons/bigquery.png" width="101px" height="101px" preserveAspectRatio="xMinYMin meet" x="405" y="-1780.5"/>
<text text-anchor="middle" x="455.5" y="-1665.1" font-family="Sans-Serif" font-size="13.00" fill="#2d3436">comper.l_datastudio_contrats_offres_energie_hors_depenses</text>
</g>
<!-- 51b66bc5bc2f45138d699888f0b131a4&#45;&gt;0b4ea28c09804bc29d82e4b08f59d718 -->
<g id="edge10" class="edge">
<title>51b66bc5bc2f45138d699888f0b131a4&#45;&gt;0b4ea28c09804bc29d82e4b08f59d718</title>
<path fill="none" stroke="#7b8894" d="M67,-1618.67C67,-1630.99 67,-1640 67,-1640 67,-1640 456,-1640 456,-1640 456,-1640 456,-1651.33 456,-1651.33"/>
<polygon fill="#7b8894" stroke="#7b8894" points="452.5,-1651.33 456,-1661.33 459.5,-1651.33 452.5,-1651.33"/>
<text text-anchor="middle" x="261" y="-1643.6" font-family="Sans-Serif" font-size="13.00" fill="darkgrey">t_contrats_offres_energie_hors_depenses</text>
</g>
<!-- 8bf451b718f54220988ace40726eb466 -->
<g id="node20" class="node">
<title>8bf451b718f54220988ace40726eb466</title>
<image xlink:href="icons/bigquery.png" width="101px" height="101px" preserveAspectRatio="xMinYMin meet" x="704" y="-2140.5"/>
<text text-anchor="middle" x="754.5" y="-2025.1" font-family="Sans-Serif" font-size="13.00" fill="#2d3436">comper.t_datastudio_depenses_acquisition</text>
</g>
<!-- 0b4ea28c09804bc29d82e4b08f59d718&#45;&gt;8bf451b718f54220988ace40726eb466 -->
<g id="edge16" class="edge">
<title>0b4ea28c09804bc29d82e4b08f59d718&#45;&gt;8bf451b718f54220988ace40726eb466</title>
<path fill="none" stroke="#7b8894" d="M506.29,-1707.17C545.81,-1707.17 594,-1707.17 594,-1707.17 594,-1707.17 594,-2090 594,-2090 594,-2090 693.72,-2090 693.72,-2090"/>
<polygon fill="#7b8894" stroke="#7b8894" points="693.72,-2093.5 703.72,-2090 693.72,-2086.5 693.72,-2093.5"/>
<text text-anchor="middle" x="605" y="-1868.6" font-family="Sans-Serif" font-size="13.00" fill="darkgrey">t_depenses_acquisition</text>
</g>
<!-- 33e078ee1c06492686296f7b09953858 -->
<g id="node22" class="node">
<title>33e078ee1c06492686296f7b09953858</title>
<image xlink:href="icons/bigquery.png" width="101px" height="101px" preserveAspectRatio="xMinYMin meet" x="704" y="-2320.5"/>
<text text-anchor="middle" x="754.5" y="-2205.1" font-family="Sans-Serif" font-size="13.00" fill="#2d3436">comper.t_datastudio_depenses_traitement</text>
</g>
<!-- 0b4ea28c09804bc29d82e4b08f59d718&#45;&gt;33e078ee1c06492686296f7b09953858 -->
<g id="edge18" class="edge">
<title>0b4ea28c09804bc29d82e4b08f59d718&#45;&gt;33e078ee1c06492686296f7b09953858</title>
<path fill="none" stroke="#7b8894" d="M506.26,-1752.83C537.65,-1752.83 572,-1752.83 572,-1752.83 572,-1752.83 572,-2247.17 572,-2247.17 572,-2247.17 693.66,-2247.17 693.66,-2247.17"/>
<polygon fill="#7b8894" stroke="#7b8894" points="693.66,-2250.67 703.66,-2247.17 693.66,-2243.67 693.66,-2250.67"/>
<text text-anchor="middle" x="605" y="-1986.6" font-family="Sans-Serif" font-size="13.00" fill="darkgrey">t_depenses_traitement</text>
</g>
<!-- c5bf61586efe4275826b98bd2820fbcd -->
<g id="node24" class="node">
<title>c5bf61586efe4275826b98bd2820fbcd</title>
<image xlink:href="icons/bigquery.png" width="101px" height="101px" preserveAspectRatio="xMinYMin meet" x="704" y="-1960.5"/>
<text text-anchor="middle" x="754.5" y="-1845.1" font-family="Sans-Serif" font-size="13.00" fill="#2d3436">comper.l_datastudio_contrats_offres_energie</text>
</g>
<!-- 0b4ea28c09804bc29d82e4b08f59d718&#45;&gt;c5bf61586efe4275826b98bd2820fbcd -->
<g id="edge20" class="edge">
<title>0b4ea28c09804bc29d82e4b08f59d718&#45;&gt;c5bf61586efe4275826b98bd2820fbcd</title>
<path fill="none" stroke="#7b8894" d="M456,-1798.67C456,-1810.99 456,-1820 456,-1820 456,-1820 755,-1820 755,-1820 755,-1820 755,-1831.33 755,-1831.33"/>
<polygon fill="#7b8894" stroke="#7b8894" points="751.5,-1831.33 755,-1841.33 758.5,-1831.33 751.5,-1831.33"/>
<text text-anchor="middle" x="605" y="-1769.6" font-family="Sans-Serif" font-size="13.00" fill="darkgrey">t_contrats_offres_energie</text>
</g>
<!-- 1751d7615da843b098fd690e104a8e2f -->
<g id="node15" class="node">
<title>1751d7615da843b098fd690e104a8e2f</title>
<image xlink:href="icons/bigquery.png" width="101px" height="101px" preserveAspectRatio="xMinYMin meet" x="16" y="-1420.5"/>
<text text-anchor="middle" x="66.5" y="-1305.1" font-family="Sans-Serif" font-size="13.00" fill="#2d3436">[?config?].t_ama_realise</text>
</g>
<!-- 1751d7615da843b098fd690e104a8e2f&#45;&gt;0b4ea28c09804bc29d82e4b08f59d718 -->
<g id="edge11" class="edge">
<title>1751d7615da843b098fd690e104a8e2f&#45;&gt;0b4ea28c09804bc29d82e4b08f59d718</title>
<path fill="none" stroke="#7b8894" d="M117.35,-1370C155.08,-1370 200,-1370 200,-1370 200,-1370 200,-1759.36 200,-1759.36 200,-1759.36 394.72,-1759.36 394.72,-1759.36"/>
<polygon fill="#7b8894" stroke="#7b8894" points="394.72,-1762.86 404.72,-1759.36 394.72,-1755.86 394.72,-1762.86"/>
<text text-anchor="middle" x="261" y="-1477.6" font-family="Sans-Serif" font-size="13.00" fill="darkgrey">t_contrats_offres_energie_hors_depenses</text>
</g>
<!-- 25005e99b81540d28737966d308ea9eb -->
<g id="node16" class="node">
<title>25005e99b81540d28737966d308ea9eb</title>
<image xlink:href="icons/bigquery.png" width="101px" height="101px" preserveAspectRatio="xMinYMin meet" x="16" y="-1240.5"/>
<text text-anchor="middle" x="66.5" y="-1125.1" font-family="Sans-Serif" font-size="13.00" fill="#2d3436">[?config?].e_ds_comper_objectifs_2018_seulement</text>
</g>
<!-- 25005e99b81540d28737966d308ea9eb&#45;&gt;0b4ea28c09804bc29d82e4b08f59d718 -->
<g id="edge12" class="edge">
<title>25005e99b81540d28737966d308ea9eb&#45;&gt;0b4ea28c09804bc29d82e4b08f59d718</title>
<path fill="none" stroke="#7b8894" d="M117.44,-1190C168.95,-1190 241,-1190 241,-1190 241,-1190 241,-1739.79 241,-1739.79 241,-1739.79 394.94,-1739.79 394.94,-1739.79"/>
<polygon fill="#7b8894" stroke="#7b8894" points="394.94,-1743.29 404.94,-1739.79 394.94,-1736.29 394.94,-1743.29"/>
<text text-anchor="middle" x="261" y="-1304.6" font-family="Sans-Serif" font-size="13.00" fill="darkgrey">t_contrats_offres_energie_hors_depenses</text>
</g>
<!-- 9c9b34c06749470abd0c61e43496e93f -->
<g id="node17" class="node">
<title>9c9b34c06749470abd0c61e43496e93f</title>
<image xlink:href="icons/bigquery.png" width="101px" height="101px" preserveAspectRatio="xMinYMin meet" x="16" y="-1060.5"/>
<text text-anchor="middle" x="66.5" y="-945.1" font-family="Sans-Serif" font-size="13.00" fill="#2d3436">[?config?].e_ds_comper_objectifs_2019_seulement</text>
</g>
<!-- 9c9b34c06749470abd0c61e43496e93f&#45;&gt;0b4ea28c09804bc29d82e4b08f59d718 -->
<g id="edge13" class="edge">
<title>9c9b34c06749470abd0c61e43496e93f&#45;&gt;0b4ea28c09804bc29d82e4b08f59d718</title>
<path fill="none" stroke="#7b8894" d="M117.03,-1010C180.72,-1010 282,-1010 282,-1010 282,-1010 282,-1720.21 282,-1720.21 282,-1720.21 394.85,-1720.21 394.85,-1720.21"/>
<polygon fill="#7b8894" stroke="#7b8894" points="394.85,-1723.71 404.85,-1720.21 394.85,-1716.71 394.85,-1723.71"/>
<text text-anchor="middle" x="261" y="-1127.6" font-family="Sans-Serif" font-size="13.00" fill="darkgrey">t_contrats_offres_energie_hors_depenses</text>
</g>
<!-- 6102bdde31674e3fa91740df1d088586 -->
<g id="node18" class="node">
<title>6102bdde31674e3fa91740df1d088586</title>
<image xlink:href="icons/bigquery.png" width="101px" height="101px" preserveAspectRatio="xMinYMin meet" x="16" y="-880.5"/>
<text text-anchor="middle" x="66.5" y="-765.1" font-family="Sans-Serif" font-size="13.00" fill="#2d3436">[?config?].t_datastudio_point_de_sortie</text>
</g>
<!-- 6102bdde31674e3fa91740df1d088586&#45;&gt;0b4ea28c09804bc29d82e4b08f59d718 -->
<g id="edge14" class="edge">
<title>6102bdde31674e3fa91740df1d088586&#45;&gt;0b4ea28c09804bc29d82e4b08f59d718</title>
<path fill="none" stroke="#7b8894" d="M117.18,-830C191.93,-830 323,-830 323,-830 323,-830 323,-1700.64 323,-1700.64 323,-1700.64 394.65,-1700.64 394.65,-1700.64"/>
<polygon fill="#7b8894" stroke="#7b8894" points="394.65,-1704.14 404.65,-1700.64 394.65,-1697.14 394.65,-1704.14"/>
<text text-anchor="middle" x="261" y="-949.6" font-family="Sans-Serif" font-size="13.00" fill="darkgrey">t_contrats_offres_energie_hors_depenses</text>
</g>
<!-- a5d90bef7c04472bb48899ce492aeceb -->
<g id="node19" class="node">
<title>a5d90bef7c04472bb48899ce492aeceb</title>
<image xlink:href="icons/bigquery.png" width="101px" height="101px" preserveAspectRatio="xMinYMin meet" x="16" y="-700.5"/>
<text text-anchor="middle" x="66.5" y="-585.1" font-family="Sans-Serif" font-size="13.00" fill="#2d3436">[?config?].e_ds_comper_objectifs</text>
</g>
<!-- a5d90bef7c04472bb48899ce492aeceb&#45;&gt;0b4ea28c09804bc29d82e4b08f59d718 -->
<g id="edge15" class="edge">
<title>a5d90bef7c04472bb48899ce492aeceb&#45;&gt;0b4ea28c09804bc29d82e4b08f59d718</title>
<path fill="none" stroke="#7b8894" d="M117.3,-650C202.27,-650 364,-650 364,-650 364,-650 364,-1681.07 364,-1681.07 364,-1681.07 394.93,-1681.07 394.93,-1681.07"/>
<polygon fill="#7b8894" stroke="#7b8894" points="394.93,-1684.57 404.93,-1681.07 394.93,-1677.57 394.93,-1684.57"/>
<text text-anchor="middle" x="261" y="-712.6" font-family="Sans-Serif" font-size="13.00" fill="darkgrey">t_contrats_offres_energie_hors_depenses</text>
</g>
<!-- 039f1a61889e4201a7bea9941ef259f0 -->
<g id="node21" class="node">
<title>039f1a61889e4201a7bea9941ef259f0</title>
<image xlink:href="icons/bigquery.png" width="101px" height="101px" preserveAspectRatio="xMinYMin meet" x="405" y="-1600.5"/>
<text text-anchor="middle" x="455.5" y="-1485.1" font-family="Sans-Serif" font-size="13.00" fill="#2d3436">depenses.e_gsheet_depenses_acquisition</text>
</g>
<!-- 039f1a61889e4201a7bea9941ef259f0&#45;&gt;8bf451b718f54220988ace40726eb466 -->
<g id="edge17" class="edge">
<title>039f1a61889e4201a7bea9941ef259f0&#45;&gt;8bf451b718f54220988ace40726eb466</title>
<path fill="none" stroke="#7b8894" d="M506.28,-1550C553.3,-1550 616,-1550 616,-1550 616,-1550 616,-2055.75 616,-2055.75 616,-2055.75 693.71,-2055.75 693.71,-2055.75"/>
<polygon fill="#7b8894" stroke="#7b8894" points="693.71,-2059.25 703.71,-2055.75 693.71,-2052.25 693.71,-2059.25"/>
<text text-anchor="middle" x="605" y="-1630.6" font-family="Sans-Serif" font-size="13.00" fill="darkgrey">t_depenses_acquisition</text>
</g>
<!-- aa537445ea454678a3cca1dee08eb914 -->
<g id="node23" class="node">
<title>aa537445ea454678a3cca1dee08eb914</title>
<image xlink:href="icons/bigquery.png" width="101px" height="101px" preserveAspectRatio="xMinYMin meet" x="405" y="-1960.5"/>
<text text-anchor="middle" x="455.5" y="-1845.1" font-family="Sans-Serif" font-size="13.00" fill="#2d3436">depenses.e_gsheet_depenses_traitement</text>
</g>
<!-- aa537445ea454678a3cca1dee08eb914&#45;&gt;33e078ee1c06492686296f7b09953858 -->
<g id="edge19" class="edge">
<title>aa537445ea454678a3cca1dee08eb914&#45;&gt;33e078ee1c06492686296f7b09953858</title>
<path fill="none" stroke="#7b8894" d="M506.07,-1951.1C528.54,-1951.1 550,-1951.1 550,-1951.1 550,-1951.1 550,-2292.83 550,-2292.83 550,-2292.83 693.95,-2292.83 693.95,-2292.83"/>
<polygon fill="#7b8894" stroke="#7b8894" points="693.95,-2296.33 703.95,-2292.83 693.95,-2289.33 693.95,-2296.33"/>
<text text-anchor="middle" x="605" y="-2076.6" font-family="Sans-Serif" font-size="13.00" fill="darkgrey">t_depenses_traitement</text>
</g>
<!-- 858559c7dc1f4cf18ad64f5dfef61729 -->
<g id="node28" class="node">
<title>858559c7dc1f4cf18ad64f5dfef61729</title>
<image xlink:href="icons/bigquery.png" width="101px" height="101px" preserveAspectRatio="xMinYMin meet" x="1045" y="-1060.5"/>
<text text-anchor="middle" x="1095.5" y="-945.1" font-family="Sans-Serif" font-size="13.00" fill="#2d3436">comper.l_v_digi_to_ds_comper_ventes_digitales</text>
</g>
<!-- c5bf61586efe4275826b98bd2820fbcd&#45;&gt;858559c7dc1f4cf18ad64f5dfef61729 -->
<g id="edge24" class="edge">
<title>c5bf61586efe4275826b98bd2820fbcd&#45;&gt;858559c7dc1f4cf18ad64f5dfef61729</title>
<path fill="none" stroke="#7b8894" d="M805.14,-1910C907.64,-1910 1130,-1910 1130,-1910 1130,-1910 1130,-1088.76 1130,-1088.76"/>
<polygon fill="#7b8894" stroke="#7b8894" points="1133.5,-1088.76 1130,-1078.76 1126.5,-1088.76 1133.5,-1088.76"/>
<text text-anchor="middle" x="925" y="-1798.6" font-family="Sans-Serif" font-size="13.00" fill="darkgrey">l_to_ds_comper_ventes_digitales</text>
</g>
<!-- 55fb497de96d484fb31339b840318aca -->
<g id="node25" class="node">
<title>55fb497de96d484fb31339b840318aca</title>
<image xlink:href="icons/bigquery.png" width="101px" height="101px" preserveAspectRatio="xMinYMin meet" x="405" y="-1420.5"/>
<text text-anchor="middle" x="455.5" y="-1305.1" font-family="Sans-Serif" font-size="13.00" fill="#2d3436">[?config?].t_datastudio_depenses_acquisition</text>
</g>
<!-- 55fb497de96d484fb31339b840318aca&#45;&gt;c5bf61586efe4275826b98bd2820fbcd -->
<g id="edge21" class="edge">
<title>55fb497de96d484fb31339b840318aca&#45;&gt;c5bf61586efe4275826b98bd2820fbcd</title>
<path fill="none" stroke="#7b8894" d="M506.34,-1370C560.34,-1370 638,-1370 638,-1370 638,-1370 638,-1923.7 638,-1923.7 638,-1923.7 693.74,-1923.7 693.74,-1923.7"/>
<polygon fill="#7b8894" stroke="#7b8894" points="693.74,-1927.2 703.74,-1923.7 693.74,-1920.2 693.74,-1927.2"/>
<text text-anchor="middle" x="605" y="-1470.6" font-family="Sans-Serif" font-size="13.00" fill="darkgrey">t_contrats_offres_energie</text>
</g>
<!-- 3696def271274a54b277b4a49ae97f98 -->
<g id="node26" class="node">
<title>3696def271274a54b277b4a49ae97f98</title>
<image xlink:href="icons/bigquery.png" width="101px" height="101px" preserveAspectRatio="xMinYMin meet" x="405" y="-1240.5"/>
<text text-anchor="middle" x="455.5" y="-1125.1" font-family="Sans-Serif" font-size="13.00" fill="#2d3436">[?config?].t_datastudio_depenses_traitement</text>
</g>
<!-- 3696def271274a54b277b4a49ae97f98&#45;&gt;c5bf61586efe4275826b98bd2820fbcd -->
<g id="edge22" class="edge">
<title>3696def271274a54b277b4a49ae97f98&#45;&gt;c5bf61586efe4275826b98bd2820fbcd</title>
<path fill="none" stroke="#7b8894" d="M506.05,-1190C566.61,-1190 660,-1190 660,-1190 660,-1190 660,-1896.3 660,-1896.3 660,-1896.3 693.93,-1896.3 693.93,-1896.3"/>
<polygon fill="#7b8894" stroke="#7b8894" points="693.93,-1899.8 703.93,-1896.3 693.93,-1892.8 693.93,-1899.8"/>
<text text-anchor="middle" x="605" y="-1300.6" font-family="Sans-Serif" font-size="13.00" fill="darkgrey">t_contrats_offres_energie</text>
</g>
<!-- 38154d5f052749b09ab43552d6702343 -->
<g id="node27" class="node">
<title>38154d5f052749b09ab43552d6702343</title>
<image xlink:href="icons/bigquery.png" width="101px" height="101px" preserveAspectRatio="xMinYMin meet" x="405" y="-1060.5"/>
<text text-anchor="middle" x="455.5" y="-945.1" font-family="Sans-Serif" font-size="13.00" fill="#2d3436">[?config?].l_datastudio_contrats_offres_energie_avant_2021</text>
</g>
<!-- 38154d5f052749b09ab43552d6702343&#45;&gt;c5bf61586efe4275826b98bd2820fbcd -->
<g id="edge23" class="edge">
<title>38154d5f052749b09ab43552d6702343&#45;&gt;c5bf61586efe4275826b98bd2820fbcd</title>
<path fill="none" stroke="#7b8894" d="M506.05,-1010C572.8,-1010 682,-1010 682,-1010 682,-1010 682,-1868.9 682,-1868.9 682,-1868.9 693.75,-1868.9 693.75,-1868.9"/>
<polygon fill="#7b8894" stroke="#7b8894" points="693.75,-1872.4 703.75,-1868.9 693.75,-1865.4 693.75,-1872.4"/>
<text text-anchor="middle" x="605" y="-1125.6" font-family="Sans-Serif" font-size="13.00" fill="darkgrey">t_contrats_offres_energie</text>
</g>
<!-- d585cb6467e8485fbc7c850f207d2a40 -->
<g id="node29" class="node">
<title>d585cb6467e8485fbc7c850f207d2a40</title>
<image xlink:href="icons/bigquery.png" width="101px" height="101px" preserveAspectRatio="xMinYMin meet" x="704" y="-1780.5"/>
<text text-anchor="middle" x="754.5" y="-1665.1" font-family="Sans-Serif" font-size="13.00" fill="#2d3436">[?config?].l_ama_to_ds_comper_contrats_services</text>
</g>
<!-- d585cb6467e8485fbc7c850f207d2a40&#45;&gt;858559c7dc1f4cf18ad64f5dfef61729 -->
<g id="edge25" class="edge">
<title>d585cb6467e8485fbc7c850f207d2a40&#45;&gt;858559c7dc1f4cf18ad64f5dfef61729</title>
<path fill="none" stroke="#7b8894" d="M805.1,-1730C903.92,-1730 1113,-1730 1113,-1730 1113,-1730 1113,-1088.71 1113,-1088.71"/>
<polygon fill="#7b8894" stroke="#7b8894" points="1116.5,-1088.71 1113,-1078.71 1109.5,-1088.71 1116.5,-1088.71"/>
<text text-anchor="middle" x="925" y="-1622.6" font-family="Sans-Serif" font-size="13.00" fill="darkgrey">l_to_ds_comper_ventes_digitales</text>
</g>
<!-- d99f713420f343008adfdb1f7b653d9e -->
<g id="node30" class="node">
<title>d99f713420f343008adfdb1f7b653d9e</title>
<image xlink:href="icons/bigquery.png" width="101px" height="101px" preserveAspectRatio="xMinYMin meet" x="704" y="-1600.5"/>
<text text-anchor="middle" x="754.5" y="-1485.1" font-family="Sans-Serif" font-size="13.00" fill="#2d3436">[?config?].l_ama_to_ds_comper_options_vertes</text>
</g>
<!-- d99f713420f343008adfdb1f7b653d9e&#45;&gt;858559c7dc1f4cf18ad64f5dfef61729 -->
<g id="edge26" class="edge">
<title>d99f713420f343008adfdb1f7b653d9e&#45;&gt;858559c7dc1f4cf18ad64f5dfef61729</title>
<path fill="none" stroke="#7b8894" d="M805.26,-1550C900.39,-1550 1096,-1550 1096,-1550 1096,-1550 1096,-1088.67 1096,-1088.67"/>
<polygon fill="#7b8894" stroke="#7b8894" points="1099.5,-1088.67 1096,-1078.67 1092.5,-1088.67 1099.5,-1088.67"/>
<text text-anchor="middle" x="925" y="-1449.6" font-family="Sans-Serif" font-size="13.00" fill="darkgrey">l_to_ds_comper_ventes_digitales</text>
</g>
<!-- f05e059d17c8410086097a4f59504e13 -->
<g id="node31" class="node">
<title>f05e059d17c8410086097a4f59504e13</title>
<image xlink:href="icons/bigquery.png" width="101px" height="101px" preserveAspectRatio="xMinYMin meet" x="704" y="-1420.5"/>
<text text-anchor="middle" x="754.5" y="-1305.1" font-family="Sans-Serif" font-size="13.00" fill="#2d3436">[?config?].l_ama_to_ds_comper_t_ama_parrainage</text>
</g>
<!-- f05e059d17c8410086097a4f59504e13&#45;&gt;858559c7dc1f4cf18ad64f5dfef61729 -->
<g id="edge27" class="edge">
<title>f05e059d17c8410086097a4f59504e13&#45;&gt;858559c7dc1f4cf18ad64f5dfef61729</title>
<path fill="none" stroke="#7b8894" d="M805.2,-1370C896.47,-1370 1079,-1370 1079,-1370 1079,-1370 1079,-1088.56 1079,-1088.56"/>
<polygon fill="#7b8894" stroke="#7b8894" points="1082.5,-1088.56 1079,-1078.56 1075.5,-1088.56 1082.5,-1088.56"/>
<text text-anchor="middle" x="925" y="-1284.6" font-family="Sans-Serif" font-size="13.00" fill="darkgrey">l_to_ds_comper_ventes_digitales</text>
</g>
<!-- 2f285b826aaa4339a3c2e9d036bab2b8 -->
<g id="node32" class="node">
<title>2f285b826aaa4339a3c2e9d036bab2b8</title>
<image xlink:href="icons/bigquery.png" width="101px" height="101px" preserveAspectRatio="xMinYMin meet" x="704" y="-1240.5"/>
<text text-anchor="middle" x="754.5" y="-1125.1" font-family="Sans-Serif" font-size="13.00" fill="#2d3436">[?config?].l_ga_to_ds_comper_e_gsheet_cee_souscriptions</text>
</g>
<!-- 2f285b826aaa4339a3c2e9d036bab2b8&#45;&gt;858559c7dc1f4cf18ad64f5dfef61729 -->
<g id="edge28" class="edge">
<title>2f285b826aaa4339a3c2e9d036bab2b8&#45;&gt;858559c7dc1f4cf18ad64f5dfef61729</title>
<path fill="none" stroke="#7b8894" d="M805.28,-1190C892.62,-1190 1062,-1190 1062,-1190 1062,-1190 1062,-1088.56 1062,-1088.56"/>
<polygon fill="#7b8894" stroke="#7b8894" points="1065.5,-1088.56 1062,-1078.56 1058.5,-1088.56 1065.5,-1088.56"/>
<text text-anchor="middle" x="925" y="-1134.6" font-family="Sans-Serif" font-size="13.00" fill="darkgrey">l_to_ds_comper_ventes_digitales</text>
</g>
<!-- 63d57ae5ec464d6da3583f08352d390d -->
<g id="node33" class="node">
<title>63d57ae5ec464d6da3583f08352d390d</title>
<image xlink:href="icons/bigquery.png" width="101px" height="101px" preserveAspectRatio="xMinYMin meet" x="704" y="-1060.5"/>
<text text-anchor="middle" x="754.5" y="-945.1" font-family="Sans-Serif" font-size="13.00" fill="#2d3436">[?config?].l_ama_to_ds_comper_bout_en_bout_equipements</text>
</g>
<!-- 63d57ae5ec464d6da3583f08352d390d&#45;&gt;858559c7dc1f4cf18ad64f5dfef61729 -->
<g id="edge29" class="edge">
<title>63d57ae5ec464d6da3583f08352d390d&#45;&gt;858559c7dc1f4cf18ad64f5dfef61729</title>
<path fill="none" stroke="#7b8894" d="M805.18,-1010C805.18,-1010 1034.82,-1010 1034.82,-1010"/>
<polygon fill="#7b8894" stroke="#7b8894" points="1034.82,-1013.5 1044.82,-1010 1034.82,-1006.5 1034.82,-1013.5"/>
<text text-anchor="middle" x="925" y="-1013.6" font-family="Sans-Serif" font-size="13.00" fill="darkgrey">l_to_ds_comper_ventes_digitales</text>
</g>
<!-- c7eb37e5a69b40ad9c22c6a87bd82317 -->
<g id="node34" class="node">
<title>c7eb37e5a69b40ad9c22c6a87bd82317</title>
<image xlink:href="icons/bigquery.png" width="101px" height="101px" preserveAspectRatio="xMinYMin meet" x="704" y="-880.5"/>
<text text-anchor="middle" x="754.5" y="-765.1" font-family="Sans-Serif" font-size="13.00" fill="#2d3436">[?config?].e_ds_comper_objectifs_hors_energie</text>
</g>
<!-- c7eb37e5a69b40ad9c22c6a87bd82317&#45;&gt;858559c7dc1f4cf18ad64f5dfef61729 -->
<g id="edge30" class="edge">
<title>c7eb37e5a69b40ad9c22c6a87bd82317&#45;&gt;858559c7dc1f4cf18ad64f5dfef61729</title>
<path fill="none" stroke="#7b8894" d="M805.28,-830C892.62,-830 1062,-830 1062,-830 1062,-830 1062,-931.44 1062,-931.44"/>
<polygon fill="#7b8894" stroke="#7b8894" points="1058.5,-931.44 1062,-941.44 1065.5,-931.44 1058.5,-931.44"/>
<text text-anchor="middle" x="925" y="-892.6" font-family="Sans-Serif" font-size="13.00" fill="darkgrey">l_to_ds_comper_ventes_digitales</text>
</g>
<!-- 665ed04345ce4414adc72eb1798b42a3 -->
<g id="node35" class="node">
<title>665ed04345ce4414adc72eb1798b42a3</title>
<image xlink:href="icons/bigquery.png" width="101px" height="101px" preserveAspectRatio="xMinYMin meet" x="704" y="-700.5"/>
<text text-anchor="middle" x="754.5" y="-585.1" font-family="Sans-Serif" font-size="13.00" fill="#2d3436">[?config?].l_mypower_to_ds_comper_mypower</text>
</g>
<!-- 665ed04345ce4414adc72eb1798b42a3&#45;&gt;858559c7dc1f4cf18ad64f5dfef61729 -->
<g id="edge31" class="edge">
<title>665ed04345ce4414adc72eb1798b42a3&#45;&gt;858559c7dc1f4cf18ad64f5dfef61729</title>
<path fill="none" stroke="#7b8894" d="M805.2,-650C896.47,-650 1079,-650 1079,-650 1079,-650 1079,-931.44 1079,-931.44"/>
<polygon fill="#7b8894" stroke="#7b8894" points="1075.5,-931.44 1079,-941.44 1082.5,-931.44 1075.5,-931.44"/>
<text text-anchor="middle" x="925" y="-741.6" font-family="Sans-Serif" font-size="13.00" fill="darkgrey">l_to_ds_comper_ventes_digitales</text>
</g>
<!-- 43bd6af223df4f75b02437be6d016c15 -->
<g id="node36" class="node">
<title>43bd6af223df4f75b02437be6d016c15</title>
<image xlink:href="icons/bigquery.png" width="101px" height="101px" preserveAspectRatio="xMinYMin meet" x="704" y="-520.5"/>
<text text-anchor="middle" x="754.5" y="-405.1" font-family="Sans-Serif" font-size="13.00" fill="#2d3436">[?config?].l_ama_to_ds_comper_prelevement_mensualisation</text>
</g>
<!-- 43bd6af223df4f75b02437be6d016c15&#45;&gt;858559c7dc1f4cf18ad64f5dfef61729 -->
<g id="edge32" class="edge">
<title>43bd6af223df4f75b02437be6d016c15&#45;&gt;858559c7dc1f4cf18ad64f5dfef61729</title>
<path fill="none" stroke="#7b8894" d="M805.26,-470C900.39,-470 1096,-470 1096,-470 1096,-470 1096,-931.33 1096,-931.33"/>
<polygon fill="#7b8894" stroke="#7b8894" points="1092.5,-931.33 1096,-941.33 1099.5,-931.33 1092.5,-931.33"/>
<text text-anchor="middle" x="925" y="-576.6" font-family="Sans-Serif" font-size="13.00" fill="darkgrey">l_to_ds_comper_ventes_digitales</text>
</g>
<!-- abb6e3eb35c247098045fc312341cbe0 -->
<g id="node37" class="node">
<title>abb6e3eb35c247098045fc312341cbe0</title>
<image xlink:href="icons/bigquery.png" width="101px" height="101px" preserveAspectRatio="xMinYMin meet" x="704" y="-340.5"/>
<text text-anchor="middle" x="754.5" y="-225.1" font-family="Sans-Serif" font-size="13.00" fill="#2d3436">[?config?].l_ama_to_ds_comper_activation_energie</text>
</g>
<!-- abb6e3eb35c247098045fc312341cbe0&#45;&gt;858559c7dc1f4cf18ad64f5dfef61729 -->
<g id="edge33" class="edge">
<title>abb6e3eb35c247098045fc312341cbe0&#45;&gt;858559c7dc1f4cf18ad64f5dfef61729</title>
<path fill="none" stroke="#7b8894" d="M805.1,-290C903.92,-290 1113,-290 1113,-290 1113,-290 1113,-931.29 1113,-931.29"/>
<polygon fill="#7b8894" stroke="#7b8894" points="1109.5,-931.29 1113,-941.29 1116.5,-931.29 1109.5,-931.29"/>
<text text-anchor="middle" x="925" y="-403.6" font-family="Sans-Serif" font-size="13.00" fill="darkgrey">l_to_ds_comper_ventes_digitales</text>
</g>
<!-- ec68e2504c1f440a911f4128290fa420 -->
<g id="node38" class="node">
<title>ec68e2504c1f440a911f4128290fa420</title>
<image xlink:href="icons/bigquery.png" width="101px" height="101px" preserveAspectRatio="xMinYMin meet" x="704" y="-160.5"/>
<text text-anchor="middle" x="754.5" y="-45.1" font-family="Sans-Serif" font-size="13.00" fill="#2d3436">[?config?].l_ga_to_ds_comper_sessions</text>
</g>
<!-- ec68e2504c1f440a911f4128290fa420&#45;&gt;858559c7dc1f4cf18ad64f5dfef61729 -->
<g id="edge34" class="edge">
<title>ec68e2504c1f440a911f4128290fa420&#45;&gt;858559c7dc1f4cf18ad64f5dfef61729</title>
<path fill="none" stroke="#7b8894" d="M805.14,-110C907.64,-110 1130,-110 1130,-110 1130,-110 1130,-931.24 1130,-931.24"/>
<polygon fill="#7b8894" stroke="#7b8894" points="1126.5,-931.24 1130,-941.24 1133.5,-931.24 1126.5,-931.24"/>
<text text-anchor="middle" x="925" y="-227.6" font-family="Sans-Serif" font-size="13.00" fill="darkgrey">l_to_ds_comper_ventes_digitales</text>
</g>
</g>
</svg>
