<?xml version="1.0" encoding="UTF-8" standalone="no"?>
<!DOCTYPE svg PUBLIC "-//W3C//DTD SVG 1.1//EN"
 "http://www.w3.org/Graphics/SVG/1.1/DTD/svg11.dtd">
<!-- Generated by graphviz version 2.47.1 (20210417.1919)
 -->
<!-- Title: comper Pages: 1 -->
<svg width="1450pt" height="3024pt"
 viewBox="0.00 0.00 1450.00 3024.00" xmlns="http://www.w3.org/2000/svg" xmlns:xlink="http://www.w3.org/1999/xlink">
<g id="graph0" class="graph" transform="scale(1 1) rotate(0) translate(144 2880)">
<title>comper</title>
<text text-anchor="middle" x="581" y="-9" font-family="Sans-Serif" font-size="15.00" fill="#2d3436">comper</text>
<g id="clust1" class="cluster">
<title>cluster_comper</title>
<path fill="#e5f5fd" stroke="#aeb6be" d="M20,-33C20,-33 1142,-33 1142,-33 1148,-33 1154,-39 1154,-45 1154,-45 1154,-2716 1154,-2716 1154,-2722 1148,-2728 1142,-2728 1142,-2728 20,-2728 20,-2728 14,-2728 8,-2722 8,-2716 8,-2716 8,-45 8,-45 8,-39 14,-33 20,-33"/>
<text text-anchor="middle" x="36" y="-2714.4" font-family="Sans-Serif" font-size="12.00" fill="#2d3436">comper</text>
</g>
<!-- e57dc1e227b045f2995efbb8ad8e7c4c -->
<g id="node1" class="node">
<title>e57dc1e227b045f2995efbb8ad8e7c4c</title>
<image xlink:href="icons/storage.png" width="101px" height="101px" preserveAspectRatio="xMinYMin meet" x="16" y="-2680.5"/>
<text text-anchor="middle" x="66.5" y="-2565.1" font-family="Sans-Serif" font-size="13.00" fill="#2d3436">amadeus_bi.contrats/ama_contrats_digitaux_stor_</text>
</g>
<!-- b075facdc98147cd993f6b2109a07375 -->
<g id="node2" class="node">
<title>b075facdc98147cd993f6b2109a07375</title>
<image xlink:href="icons/bigquery.png" width="101px" height="101px" preserveAspectRatio="xMinYMin meet" x="405" y="-2680.5"/>
<text text-anchor="middle" x="455.5" y="-2565.1" font-family="Sans-Serif" font-size="13.00" fill="#2d3436">comper.e_v_digi_import_cube_valeur</text>
</g>
<!-- e57dc1e227b045f2995efbb8ad8e7c4c&#45;&gt;b075facdc98147cd993f6b2109a07375 -->
<g id="edge1" class="edge">
<title>e57dc1e227b045f2995efbb8ad8e7c4c&#45;&gt;b075facdc98147cd993f6b2109a07375</title>
<path fill="none" stroke="#7b8894" d="M117.35,-2630C117.35,-2630 394.94,-2630 394.94,-2630"/>
<polygon fill="#7b8894" stroke="#7b8894" points="394.94,-2633.5 404.94,-2630 394.94,-2626.5 394.94,-2633.5"/>
<text text-anchor="middle" x="261" y="-2633.6" font-family="Sans-Serif" font-size="13.00" fill="darkgrey">e_import_cube_valeur</text>
</g>
<!-- fd9d99ccf8ae4a84ab6f79b5c2409026 -->
<g id="node10" class="node">
<title>fd9d99ccf8ae4a84ab6f79b5c2409026</title>
<image xlink:href="icons/bigquery.png" width="101px" height="101px" preserveAspectRatio="xMinYMin meet" x="704" y="-2680.5"/>
<text text-anchor="middle" x="754.5" y="-2565.1" font-family="Sans-Serif" font-size="13.00" fill="#2d3436">comper.t_v_digi_cube_valeur</text>
</g>
<!-- b075facdc98147cd993f6b2109a07375&#45;&gt;fd9d99ccf8ae4a84ab6f79b5c2409026 -->
<g id="edge7" class="edge">
<title>b075facdc98147cd993f6b2109a07375&#45;&gt;fd9d99ccf8ae4a84ab6f79b5c2409026</title>
<path fill="none" stroke="#7b8894" d="M506.22,-2630C506.22,-2630 693.53,-2630 693.53,-2630"/>
<polygon fill="#7b8894" stroke="#7b8894" points="693.53,-2633.5 703.53,-2630 693.53,-2626.5 693.53,-2633.5"/>
<text text-anchor="middle" x="605" y="-2633.6" font-family="Sans-Serif" font-size="13.00" fill="darkgrey">t_cube_valeur</text>
</g>
<!-- 5a87356f65d849e194cb94c79b70bda5 -->
<g id="node3" class="node">
<title>5a87356f65d849e194cb94c79b70bda5</title>
<image xlink:href="icons/bigquery.png" width="101px" height="101px" preserveAspectRatio="xMinYMin meet" x="16" y="-2500.5"/>
<text text-anchor="middle" x="66.5" y="-2385.1" font-family="Sans-Serif" font-size="13.00" fill="#2d3436">amadeus.t_ama_contrats_appels_leviers</text>
</g>
<!-- a540feefe1f14353a9425f3fa716ee86 -->
<g id="node4" class="node">
<title>a540feefe1f14353a9425f3fa716ee86</title>
<image xlink:href="icons/bigquery.png" width="101px" height="101px" preserveAspectRatio="xMinYMin meet" x="405" y="-2500.5"/>
<text text-anchor="middle" x="455.5" y="-2385.1" font-family="Sans-Serif" font-size="13.00" fill="#2d3436">amadeus.t_ama_ventes_digitales</text>
</g>
<!-- 5a87356f65d849e194cb94c79b70bda5&#45;&gt;a540feefe1f14353a9425f3fa716ee86 -->
<g id="edge2" class="edge">
<title>5a87356f65d849e194cb94c79b70bda5&#45;&gt;a540feefe1f14353a9425f3fa716ee86</title>
<path fill="none" stroke="#7b8894" d="M117.35,-2450C117.35,-2450 394.94,-2450 394.94,-2450"/>
<polygon fill="#7b8894" stroke="#7b8894" points="394.94,-2453.5 404.94,-2450 394.94,-2446.5 394.94,-2453.5"/>
<text text-anchor="middle" x="261" y="-2453.6" font-family="Sans-Serif" font-size="13.00" fill="darkgrey">t_ventes_digitales</text>
</g>
<!-- 7853b27663c5431eb515de60dd218f91 -->
<g id="node5" class="node">
<title>7853b27663c5431eb515de60dd218f91</title>
<image xlink:href="icons/bigquery.png" width="101px" height="101px" preserveAspectRatio="xMinYMin meet" x="16" y="-2320.5"/>
<text text-anchor="middle" x="66.5" y="-2205.1" font-family="Sans-Serif" font-size="13.00" fill="#2d3436">[?config?].t_ama_contrats_formulaires</text>
</g>
<!-- 7853b27663c5431eb515de60dd218f91&#45;&gt;a540feefe1f14353a9425f3fa716ee86 -->
<g id="edge3" class="edge">
<title>7853b27663c5431eb515de60dd218f91&#45;&gt;a540feefe1f14353a9425f3fa716ee86</title>
<path fill="none" stroke="#7b8894" d="M67,-2338.54C67,-2354.62 67,-2367.17 67,-2367.17 67,-2367.17 439,-2367.17 439,-2367.17 439,-2367.17 439,-2371.22 439,-2371.22"/>
<polygon fill="#7b8894" stroke="#7b8894" points="435.5,-2371.22 439,-2381.22 442.5,-2371.22 435.5,-2371.22"/>
<text text-anchor="middle" x="261" y="-2332.6" font-family="Sans-Serif" font-size="13.00" fill="darkgrey">t_ventes_digitales</text>
</g>
<!-- 3dce745b102547b7a900903573c3bacd -->
<g id="node6" class="node">
<title>3dce745b102547b7a900903573c3bacd</title>
<image xlink:href="icons/bigquery.png" width="101px" height="101px" preserveAspectRatio="xMinYMin meet" x="16" y="-2140.5"/>
<text text-anchor="middle" x="66.5" y="-2025.1" font-family="Sans-Serif" font-size="13.00" fill="#2d3436">amadeus.t_ama_leads_appels</text>
</g>
<!-- 6951df2de0a848b8b95075fd01e8b91f -->
<g id="node7" class="node">
<title>6951df2de0a848b8b95075fd01e8b91f</title>
<image xlink:href="icons/bigquery.png" width="101px" height="101px" preserveAspectRatio="xMinYMin meet" x="405" y="-2140.5"/>
<text text-anchor="middle" x="455.5" y="-2025.1" font-family="Sans-Serif" font-size="13.00" fill="#2d3436">comper.t_ama_realise</text>
</g>
<!-- 3dce745b102547b7a900903573c3bacd&#45;&gt;6951df2de0a848b8b95075fd01e8b91f -->
<g id="edge4" class="edge">
<title>3dce745b102547b7a900903573c3bacd&#45;&gt;6951df2de0a848b8b95075fd01e8b91f</title>
<path fill="none" stroke="#7b8894" d="M117.35,-2112.83C117.35,-2112.83 394.94,-2112.83 394.94,-2112.83"/>
<polygon fill="#7b8894" stroke="#7b8894" points="394.94,-2116.33 404.94,-2112.83 394.94,-2109.33 394.94,-2116.33"/>
<text text-anchor="middle" x="261" y="-2093.6" font-family="Sans-Serif" font-size="13.00" fill="darkgrey">t_realise</text>
</g>
<!-- 2cd028a979084f96a3c05f2c5f8124c1 -->
<g id="node11" class="node">
<title>2cd028a979084f96a3c05f2c5f8124c1</title>
<image xlink:href="icons/bigquery.png" width="101px" height="101px" preserveAspectRatio="xMinYMin meet" x="704" y="-2500.5"/>
<text text-anchor="middle" x="754.5" y="-2385.1" font-family="Sans-Serif" font-size="13.00" fill="#2d3436">comper.t_datastudio_point_de_sortie</text>
</g>
<!-- 6951df2de0a848b8b95075fd01e8b91f&#45;&gt;2cd028a979084f96a3c05f2c5f8124c1 -->
<g id="edge8" class="edge">
<title>6951df2de0a848b8b95075fd01e8b91f&#45;&gt;2cd028a979084f96a3c05f2c5f8124c1</title>
<path fill="none" stroke="#7b8894" d="M506.25,-2124.25C518.43,-2124.25 528,-2124.25 528,-2124.25 528,-2124.25 528,-2450 528,-2450 528,-2450 693.95,-2450 693.95,-2450"/>
<polygon fill="#7b8894" stroke="#7b8894" points="693.95,-2453.5 703.95,-2450 693.95,-2446.5 693.95,-2453.5"/>
<text text-anchor="middle" x="605" y="-2152.6" font-family="Sans-Serif" font-size="13.00" fill="darkgrey">t_point_de_sortie</text>
</g>
<!-- ecadf7f1bf44431aafe38625a0fab72b -->
<g id="node8" class="node">
<title>ecadf7f1bf44431aafe38625a0fab72b</title>
<image xlink:href="icons/bigquery.png" width="101px" height="101px" preserveAspectRatio="xMinYMin meet" x="16" y="-1960.5"/>
<text text-anchor="middle" x="66.5" y="-1845.1" font-family="Sans-Serif" font-size="13.00" fill="#2d3436">[?config?].t_ama_leads_formulaires</text>
</g>
<!-- ecadf7f1bf44431aafe38625a0fab72b&#45;&gt;6951df2de0a848b8b95075fd01e8b91f -->
<g id="edge5" class="edge">
<title>ecadf7f1bf44431aafe38625a0fab72b&#45;&gt;6951df2de0a848b8b95075fd01e8b91f</title>
<path fill="none" stroke="#7b8894" d="M67,-1978.67C67,-1990.99 67,-2000 67,-2000 67,-2000 456,-2000 456,-2000 456,-2000 456,-2011.33 456,-2011.33"/>
<polygon fill="#7b8894" stroke="#7b8894" points="452.5,-2011.33 456,-2021.33 459.5,-2011.33 452.5,-2011.33"/>
<text text-anchor="middle" x="261" y="-1972.6" font-family="Sans-Serif" font-size="13.00" fill="darkgrey">t_realise</text>
</g>
<!-- bb314f2dff4a4cadbc1d1765828a228d -->
<g id="node9" class="node">
<title>bb314f2dff4a4cadbc1d1765828a228d</title>
<image xlink:href="icons/bigquery.png" width="101px" height="101px" preserveAspectRatio="xMinYMin meet" x="16" y="-1780.5"/>
<text text-anchor="middle" x="66.5" y="-1665.1" font-family="Sans-Serif" font-size="13.00" fill="#2d3436">[?config?].t_ama_ventes_digitales</text>
</g>
<!-- bb314f2dff4a4cadbc1d1765828a228d&#45;&gt;6951df2de0a848b8b95075fd01e8b91f -->
<g id="edge6" class="edge">
<title>bb314f2dff4a4cadbc1d1765828a228d&#45;&gt;6951df2de0a848b8b95075fd01e8b91f</title>
<path fill="none" stroke="#7b8894" d="M117.08,-1778.93C138.68,-1778.93 159,-1778.93 159,-1778.93 159,-1778.93 159,-2067.17 159,-2067.17 159,-2067.17 394.87,-2067.17 394.87,-2067.17"/>
<polygon fill="#7b8894" stroke="#7b8894" points="394.87,-2070.67 404.87,-2067.17 394.87,-2063.67 394.87,-2070.67"/>
<text text-anchor="middle" x="261" y="-1821.6" font-family="Sans-Serif" font-size="13.00" fill="darkgrey">t_realise</text>
</g>
<!-- 28f015121d3b4ee78112e830e081f2bf -->
<g id="node12" class="node">
<title>28f015121d3b4ee78112e830e081f2bf</title>
<image xlink:href="icons/bigquery.png" width="101px" height="101px" preserveAspectRatio="xMinYMin meet" x="405" y="-2320.5"/>
<text text-anchor="middle" x="455.5" y="-2205.1" font-family="Sans-Serif" font-size="13.00" fill="#2d3436">[?config?].e_ds_comper_saisonnalite</text>
</g>
<!-- 28f015121d3b4ee78112e830e081f2bf&#45;&gt;2cd028a979084f96a3c05f2c5f8124c1 -->
<g id="edge9" class="edge">
<title>28f015121d3b4ee78112e830e081f2bf&#45;&gt;2cd028a979084f96a3c05f2c5f8124c1</title>
<path fill="none" stroke="#7b8894" d="M473,-2338.78C473,-2347.16 473,-2352.83 473,-2352.83 473,-2352.83 755,-2352.83 755,-2352.83 755,-2352.83 755,-2371.46 755,-2371.46"/>
<polygon fill="#7b8894" stroke="#7b8894" points="751.5,-2371.46 755,-2381.46 758.5,-2371.46 751.5,-2371.46"/>
<text text-anchor="middle" x="605" y="-2363.6" font-family="Sans-Serif" font-size="13.00" fill="darkgrey">t_point_de_sortie</text>
</g>
<!-- 40ff1860c52e4afd88a67b4f2f66cfb7 -->
<g id="node13" class="node">
<title>40ff1860c52e4afd88a67b4f2f66cfb7</title>
<image xlink:href="icons/bigquery.png" width="101px" height="101px" preserveAspectRatio="xMinYMin meet" x="16" y="-1600.5"/>
<text text-anchor="middle" x="66.5" y="-1485.1" font-family="Sans-Serif" font-size="13.00" fill="#2d3436">comper.e_datastudio_contrats_offres_energie_2018</text>
</g>
<!-- 951454c0842f4cadb2985416ca76bed3 -->
<g id="node14" class="node">
<title>951454c0842f4cadb2985416ca76bed3</title>
<image xlink:href="icons/bigquery.png" width="101px" height="101px" preserveAspectRatio="xMinYMin meet" x="405" y="-1780.5"/>
<text text-anchor="middle" x="455.5" y="-1665.1" font-family="Sans-Serif" font-size="13.00" fill="#2d3436">comper.l_datastudio_contrats_offres_energie_hors_depenses</text>
</g>
<!-- 40ff1860c52e4afd88a67b4f2f66cfb7&#45;&gt;951454c0842f4cadb2985416ca76bed3 -->
<g id="edge10" class="edge">
<title>40ff1860c52e4afd88a67b4f2f66cfb7&#45;&gt;951454c0842f4cadb2985416ca76bed3</title>
<path fill="none" stroke="#7b8894" d="M67,-1618.67C67,-1630.99 67,-1640 67,-1640 67,-1640 456,-1640 456,-1640 456,-1640 456,-1651.33 456,-1651.33"/>
<polygon fill="#7b8894" stroke="#7b8894" points="452.5,-1651.33 456,-1661.33 459.5,-1651.33 452.5,-1651.33"/>
<text text-anchor="middle" x="261" y="-1643.6" font-family="Sans-Serif" font-size="13.00" fill="darkgrey">t_contrats_offres_energie_hors_depenses</text>
</g>
<!-- cf08733d6ee44495992821a75979b186 -->
<g id="node20" class="node">
<title>cf08733d6ee44495992821a75979b186</title>
<image xlink:href="icons/bigquery.png" width="101px" height="101px" preserveAspectRatio="xMinYMin meet" x="704" y="-2140.5"/>
<text text-anchor="middle" x="754.5" y="-2025.1" font-family="Sans-Serif" font-size="13.00" fill="#2d3436">comper.t_datastudio_depenses_acquisition</text>
</g>
<!-- 951454c0842f4cadb2985416ca76bed3&#45;&gt;cf08733d6ee44495992821a75979b186 -->
<g id="edge16" class="edge">
<title>951454c0842f4cadb2985416ca76bed3&#45;&gt;cf08733d6ee44495992821a75979b186</title>
<path fill="none" stroke="#7b8894" d="M506.29,-1707.17C545.81,-1707.17 594,-1707.17 594,-1707.17 594,-1707.17 594,-2090 594,-2090 594,-2090 693.72,-2090 693.72,-2090"/>
<polygon fill="#7b8894" stroke="#7b8894" points="693.72,-2093.5 703.72,-2090 693.72,-2086.5 693.72,-2093.5"/>
<text text-anchor="middle" x="605" y="-1868.6" font-family="Sans-Serif" font-size="13.00" fill="darkgrey">t_depenses_acquisition</text>
</g>
<!-- f91d7b58614c4fe8ac2b4233a6edbdd6 -->
<g id="node22" class="node">
<title>f91d7b58614c4fe8ac2b4233a6edbdd6</title>
<image xlink:href="icons/bigquery.png" width="101px" height="101px" preserveAspectRatio="xMinYMin meet" x="704" y="-2320.5"/>
<text text-anchor="middle" x="754.5" y="-2205.1" font-family="Sans-Serif" font-size="13.00" fill="#2d3436">comper.t_datastudio_depenses_traitement</text>
</g>
<!-- 951454c0842f4cadb2985416ca76bed3&#45;&gt;f91d7b58614c4fe8ac2b4233a6edbdd6 -->
<g id="edge18" class="edge">
<title>951454c0842f4cadb2985416ca76bed3&#45;&gt;f91d7b58614c4fe8ac2b4233a6edbdd6</title>
<path fill="none" stroke="#7b8894" d="M506.26,-1752.83C537.65,-1752.83 572,-1752.83 572,-1752.83 572,-1752.83 572,-2247.17 572,-2247.17 572,-2247.17 693.66,-2247.17 693.66,-2247.17"/>
<polygon fill="#7b8894" stroke="#7b8894" points="693.66,-2250.67 703.66,-2247.17 693.66,-2243.67 693.66,-2250.67"/>
<text text-anchor="middle" x="605" y="-1986.6" font-family="Sans-Serif" font-size="13.00" fill="darkgrey">t_depenses_traitement</text>
</g>
<!-- 7c4e437805c14fd99dd2d8d5fede410a -->
<g id="node24" class="node">
<title>7c4e437805c14fd99dd2d8d5fede410a</title>
<image xlink:href="icons/bigquery.png" width="101px" height="101px" preserveAspectRatio="xMinYMin meet" x="704" y="-1960.5"/>
<text text-anchor="middle" x="754.5" y="-1845.1" font-family="Sans-Serif" font-size="13.00" fill="#2d3436">comper.l_datastudio_contrats_offres_energie</text>
</g>
<!-- 951454c0842f4cadb2985416ca76bed3&#45;&gt;7c4e437805c14fd99dd2d8d5fede410a -->
<g id="edge20" class="edge">
<title>951454c0842f4cadb2985416ca76bed3&#45;&gt;7c4e437805c14fd99dd2d8d5fede410a</title>
<path fill="none" stroke="#7b8894" d="M456,-1798.67C456,-1810.99 456,-1820 456,-1820 456,-1820 755,-1820 755,-1820 755,-1820 755,-1831.33 755,-1831.33"/>
<polygon fill="#7b8894" stroke="#7b8894" points="751.5,-1831.33 755,-1841.33 758.5,-1831.33 751.5,-1831.33"/>
<text text-anchor="middle" x="605" y="-1769.6" font-family="Sans-Serif" font-size="13.00" fill="darkgrey">t_contrats_offres_energie</text>
</g>
<!-- eeb1d073aef442daa80293fa461bead1 -->
<g id="node15" class="node">
<title>eeb1d073aef442daa80293fa461bead1</title>
<image xlink:href="icons/bigquery.png" width="101px" height="101px" preserveAspectRatio="xMinYMin meet" x="16" y="-1420.5"/>
<text text-anchor="middle" x="66.5" y="-1305.1" font-family="Sans-Serif" font-size="13.00" fill="#2d3436">[?config?].t_ama_realise</text>
</g>
<!-- eeb1d073aef442daa80293fa461bead1&#45;&gt;951454c0842f4cadb2985416ca76bed3 -->
<g id="edge11" class="edge">
<title>eeb1d073aef442daa80293fa461bead1&#45;&gt;951454c0842f4cadb2985416ca76bed3</title>
<path fill="none" stroke="#7b8894" d="M117.35,-1370C155.08,-1370 200,-1370 200,-1370 200,-1370 200,-1759.36 200,-1759.36 200,-1759.36 394.72,-1759.36 394.72,-1759.36"/>
<polygon fill="#7b8894" stroke="#7b8894" points="394.72,-1762.86 404.72,-1759.36 394.72,-1755.86 394.72,-1762.86"/>
<text text-anchor="middle" x="261" y="-1477.6" font-family="Sans-Serif" font-size="13.00" fill="darkgrey">t_contrats_offres_energie_hors_depenses</text>
</g>
<!-- 276f0988f0d942359c568db727ffcbf0 -->
<g id="node16" class="node">
<title>276f0988f0d942359c568db727ffcbf0</title>
<image xlink:href="icons/bigquery.png" width="101px" height="101px" preserveAspectRatio="xMinYMin meet" x="16" y="-1240.5"/>
<text text-anchor="middle" x="66.5" y="-1125.1" font-family="Sans-Serif" font-size="13.00" fill="#2d3436">[?config?].e_ds_comper_objectifs_2018_seulement</text>
</g>
<!-- 276f0988f0d942359c568db727ffcbf0&#45;&gt;951454c0842f4cadb2985416ca76bed3 -->
<g id="edge12" class="edge">
<title>276f0988f0d942359c568db727ffcbf0&#45;&gt;951454c0842f4cadb2985416ca76bed3</title>
<path fill="none" stroke="#7b8894" d="M117.44,-1190C168.95,-1190 241,-1190 241,-1190 241,-1190 241,-1739.79 241,-1739.79 241,-1739.79 394.94,-1739.79 394.94,-1739.79"/>
<polygon fill="#7b8894" stroke="#7b8894" points="394.94,-1743.29 404.94,-1739.79 394.94,-1736.29 394.94,-1743.29"/>
<text text-anchor="middle" x="261" y="-1304.6" font-family="Sans-Serif" font-size="13.00" fill="darkgrey">t_contrats_offres_energie_hors_depenses</text>
</g>
<!-- 877a946e8a0f4dffb5eab47fbd46cd95 -->
<g id="node17" class="node">
<title>877a946e8a0f4dffb5eab47fbd46cd95</title>
<image xlink:href="icons/bigquery.png" width="101px" height="101px" preserveAspectRatio="xMinYMin meet" x="16" y="-1060.5"/>
<text text-anchor="middle" x="66.5" y="-945.1" font-family="Sans-Serif" font-size="13.00" fill="#2d3436">[?config?].e_ds_comper_objectifs_2019_seulement</text>
</g>
<!-- 877a946e8a0f4dffb5eab47fbd46cd95&#45;&gt;951454c0842f4cadb2985416ca76bed3 -->
<g id="edge13" class="edge">
<title>877a946e8a0f4dffb5eab47fbd46cd95&#45;&gt;951454c0842f4cadb2985416ca76bed3</title>
<path fill="none" stroke="#7b8894" d="M117.03,-1010C180.72,-1010 282,-1010 282,-1010 282,-1010 282,-1720.21 282,-1720.21 282,-1720.21 394.85,-1720.21 394.85,-1720.21"/>
<polygon fill="#7b8894" stroke="#7b8894" points="394.85,-1723.71 404.85,-1720.21 394.85,-1716.71 394.85,-1723.71"/>
<text text-anchor="middle" x="261" y="-1127.6" font-family="Sans-Serif" font-size="13.00" fill="darkgrey">t_contrats_offres_energie_hors_depenses</text>
</g>
<!-- b61887b021b14dad85abd44e5e2e9f74 -->
<g id="node18" class="node">
<title>b61887b021b14dad85abd44e5e2e9f74</title>
<image xlink:href="icons/bigquery.png" width="101px" height="101px" preserveAspectRatio="xMinYMin meet" x="16" y="-880.5"/>
<text text-anchor="middle" x="66.5" y="-765.1" font-family="Sans-Serif" font-size="13.00" fill="#2d3436">[?config?].t_datastudio_point_de_sortie</text>
</g>
<!-- b61887b021b14dad85abd44e5e2e9f74&#45;&gt;951454c0842f4cadb2985416ca76bed3 -->
<g id="edge14" class="edge">
<title>b61887b021b14dad85abd44e5e2e9f74&#45;&gt;951454c0842f4cadb2985416ca76bed3</title>
<path fill="none" stroke="#7b8894" d="M117.18,-830C191.93,-830 323,-830 323,-830 323,-830 323,-1700.64 323,-1700.64 323,-1700.64 394.65,-1700.64 394.65,-1700.64"/>
<polygon fill="#7b8894" stroke="#7b8894" points="394.65,-1704.14 404.65,-1700.64 394.65,-1697.14 394.65,-1704.14"/>
<text text-anchor="middle" x="261" y="-949.6" font-family="Sans-Serif" font-size="13.00" fill="darkgrey">t_contrats_offres_energie_hors_depenses</text>
</g>
<!-- 55cfe241430246a0872e81b8dcef1641 -->
<g id="node19" class="node">
<title>55cfe241430246a0872e81b8dcef1641</title>
<image xlink:href="icons/bigquery.png" width="101px" height="101px" preserveAspectRatio="xMinYMin meet" x="16" y="-700.5"/>
<text text-anchor="middle" x="66.5" y="-585.1" font-family="Sans-Serif" font-size="13.00" fill="#2d3436">[?config?].e_ds_comper_objectifs</text>
</g>
<!-- 55cfe241430246a0872e81b8dcef1641&#45;&gt;951454c0842f4cadb2985416ca76bed3 -->
<g id="edge15" class="edge">
<title>55cfe241430246a0872e81b8dcef1641&#45;&gt;951454c0842f4cadb2985416ca76bed3</title>
<path fill="none" stroke="#7b8894" d="M117.3,-650C202.27,-650 364,-650 364,-650 364,-650 364,-1681.07 364,-1681.07 364,-1681.07 394.93,-1681.07 394.93,-1681.07"/>
<polygon fill="#7b8894" stroke="#7b8894" points="394.93,-1684.57 404.93,-1681.07 394.93,-1677.57 394.93,-1684.57"/>
<text text-anchor="middle" x="261" y="-712.6" font-family="Sans-Serif" font-size="13.00" fill="darkgrey">t_contrats_offres_energie_hors_depenses</text>
</g>
<!-- e6ed56283d8b4b9695d7b996d97b0d30 -->
<g id="node21" class="node">
<title>e6ed56283d8b4b9695d7b996d97b0d30</title>
<image xlink:href="icons/bigquery.png" width="101px" height="101px" preserveAspectRatio="xMinYMin meet" x="405" y="-1600.5"/>
<text text-anchor="middle" x="455.5" y="-1485.1" font-family="Sans-Serif" font-size="13.00" fill="#2d3436">depenses.e_gsheet_depenses_acquisition</text>
</g>
<!-- e6ed56283d8b4b9695d7b996d97b0d30&#45;&gt;cf08733d6ee44495992821a75979b186 -->
<g id="edge17" class="edge">
<title>e6ed56283d8b4b9695d7b996d97b0d30&#45;&gt;cf08733d6ee44495992821a75979b186</title>
<path fill="none" stroke="#7b8894" d="M506.28,-1550C553.3,-1550 616,-1550 616,-1550 616,-1550 616,-2055.75 616,-2055.75 616,-2055.75 693.71,-2055.75 693.71,-2055.75"/>
<polygon fill="#7b8894" stroke="#7b8894" points="693.71,-2059.25 703.71,-2055.75 693.71,-2052.25 693.71,-2059.25"/>
<text text-anchor="middle" x="605" y="-1630.6" font-family="Sans-Serif" font-size="13.00" fill="darkgrey">t_depenses_acquisition</text>
</g>
<!-- 49aa46e18c6b471c98b45c99410e490b -->
<g id="node23" class="node">
<title>49aa46e18c6b471c98b45c99410e490b</title>
<image xlink:href="icons/bigquery.png" width="101px" height="101px" preserveAspectRatio="xMinYMin meet" x="405" y="-1960.5"/>
<text text-anchor="middle" x="455.5" y="-1845.1" font-family="Sans-Serif" font-size="13.00" fill="#2d3436">depenses.e_gsheet_depenses_traitement</text>
</g>
<!-- 49aa46e18c6b471c98b45c99410e490b&#45;&gt;f91d7b58614c4fe8ac2b4233a6edbdd6 -->
<g id="edge19" class="edge">
<title>49aa46e18c6b471c98b45c99410e490b&#45;&gt;f91d7b58614c4fe8ac2b4233a6edbdd6</title>
<path fill="none" stroke="#7b8894" d="M506.07,-1951.1C528.54,-1951.1 550,-1951.1 550,-1951.1 550,-1951.1 550,-2292.83 550,-2292.83 550,-2292.83 693.95,-2292.83 693.95,-2292.83"/>
<polygon fill="#7b8894" stroke="#7b8894" points="693.95,-2296.33 703.95,-2292.83 693.95,-2289.33 693.95,-2296.33"/>
<text text-anchor="middle" x="605" y="-2076.6" font-family="Sans-Serif" font-size="13.00" fill="darkgrey">t_depenses_traitement</text>
</g>
<!-- 181827c643d44420b43bae3d3357cb0f -->
<g id="node28" class="node">
<title>181827c643d44420b43bae3d3357cb0f</title>
<image xlink:href="icons/bigquery.png" width="101px" height="101px" preserveAspectRatio="xMinYMin meet" x="1045" y="-1060.5"/>
<text text-anchor="middle" x="1095.5" y="-945.1" font-family="Sans-Serif" font-size="13.00" fill="#2d3436">comper.l_v_digi_to_ds_comper_ventes_digitales</text>
</g>
<!-- 7c4e437805c14fd99dd2d8d5fede410a&#45;&gt;181827c643d44420b43bae3d3357cb0f -->
<g id="edge24" class="edge">
<title>7c4e437805c14fd99dd2d8d5fede410a&#45;&gt;181827c643d44420b43bae3d3357cb0f</title>
<path fill="none" stroke="#7b8894" d="M805.14,-1910C907.64,-1910 1130,-1910 1130,-1910 1130,-1910 1130,-1088.76 1130,-1088.76"/>
<polygon fill="#7b8894" stroke="#7b8894" points="1133.5,-1088.76 1130,-1078.76 1126.5,-1088.76 1133.5,-1088.76"/>
<text text-anchor="middle" x="925" y="-1798.6" font-family="Sans-Serif" font-size="13.00" fill="darkgrey">l_to_ds_comper_ventes_digitales</text>
</g>
<!-- c581c292ac3444a0bf430b56e95c89eb -->
<g id="node25" class="node">
<title>c581c292ac3444a0bf430b56e95c89eb</title>
<image xlink:href="icons/bigquery.png" width="101px" height="101px" preserveAspectRatio="xMinYMin meet" x="405" y="-1420.5"/>
<text text-anchor="middle" x="455.5" y="-1305.1" font-family="Sans-Serif" font-size="13.00" fill="#2d3436">[?config?].t_datastudio_depenses_acquisition</text>
</g>
<!-- c581c292ac3444a0bf430b56e95c89eb&#45;&gt;7c4e437805c14fd99dd2d8d5fede410a -->
<g id="edge21" class="edge">
<title>c581c292ac3444a0bf430b56e95c89eb&#45;&gt;7c4e437805c14fd99dd2d8d5fede410a</title>
<path fill="none" stroke="#7b8894" d="M506.34,-1370C560.34,-1370 638,-1370 638,-1370 638,-1370 638,-1923.7 638,-1923.7 638,-1923.7 693.74,-1923.7 693.74,-1923.7"/>
<polygon fill="#7b8894" stroke="#7b8894" points="693.74,-1927.2 703.74,-1923.7 693.74,-1920.2 693.74,-1927.2"/>
<text text-anchor="middle" x="605" y="-1470.6" font-family="Sans-Serif" font-size="13.00" fill="darkgrey">t_contrats_offres_energie</text>
</g>
<!-- 3474c559bce545d499cf83c3be7360be -->
<g id="node26" class="node">
<title>3474c559bce545d499cf83c3be7360be</title>
<image xlink:href="icons/bigquery.png" width="101px" height="101px" preserveAspectRatio="xMinYMin meet" x="405" y="-1240.5"/>
<text text-anchor="middle" x="455.5" y="-1125.1" font-family="Sans-Serif" font-size="13.00" fill="#2d3436">[?config?].t_datastudio_depenses_traitement</text>
</g>
<!-- 3474c559bce545d499cf83c3be7360be&#45;&gt;7c4e437805c14fd99dd2d8d5fede410a -->
<g id="edge22" class="edge">
<title>3474c559bce545d499cf83c3be7360be&#45;&gt;7c4e437805c14fd99dd2d8d5fede410a</title>
<path fill="none" stroke="#7b8894" d="M506.05,-1190C566.61,-1190 660,-1190 660,-1190 660,-1190 660,-1896.3 660,-1896.3 660,-1896.3 693.93,-1896.3 693.93,-1896.3"/>
<polygon fill="#7b8894" stroke="#7b8894" points="693.93,-1899.8 703.93,-1896.3 693.93,-1892.8 693.93,-1899.8"/>
<text text-anchor="middle" x="605" y="-1300.6" font-family="Sans-Serif" font-size="13.00" fill="darkgrey">t_contrats_offres_energie</text>
</g>
<!-- 90d3ebc7ddf24a46b6f7b2d7c6a3b735 -->
<g id="node27" class="node">
<title>90d3ebc7ddf24a46b6f7b2d7c6a3b735</title>
<image xlink:href="icons/bigquery.png" width="101px" height="101px" preserveAspectRatio="xMinYMin meet" x="405" y="-1060.5"/>
<text text-anchor="middle" x="455.5" y="-945.1" font-family="Sans-Serif" font-size="13.00" fill="#2d3436">[?config?].l_datastudio_contrats_offres_energie_avant_2021</text>
</g>
<!-- 90d3ebc7ddf24a46b6f7b2d7c6a3b735&#45;&gt;7c4e437805c14fd99dd2d8d5fede410a -->
<g id="edge23" class="edge">
<title>90d3ebc7ddf24a46b6f7b2d7c6a3b735&#45;&gt;7c4e437805c14fd99dd2d8d5fede410a</title>
<path fill="none" stroke="#7b8894" d="M506.05,-1010C572.8,-1010 682,-1010 682,-1010 682,-1010 682,-1868.9 682,-1868.9 682,-1868.9 693.75,-1868.9 693.75,-1868.9"/>
<polygon fill="#7b8894" stroke="#7b8894" points="693.75,-1872.4 703.75,-1868.9 693.75,-1865.4 693.75,-1872.4"/>
<text text-anchor="middle" x="605" y="-1125.6" font-family="Sans-Serif" font-size="13.00" fill="darkgrey">t_contrats_offres_energie</text>
</g>
<!-- 1158d69a23ee461ebda0eefba92ee5e6 -->
<g id="node29" class="node">
<title>1158d69a23ee461ebda0eefba92ee5e6</title>
<image xlink:href="icons/bigquery.png" width="101px" height="101px" preserveAspectRatio="xMinYMin meet" x="704" y="-1780.5"/>
<text text-anchor="middle" x="754.5" y="-1665.1" font-family="Sans-Serif" font-size="13.00" fill="#2d3436">[?config?].l_ama_to_ds_comper_contrats_services</text>
</g>
<!-- 1158d69a23ee461ebda0eefba92ee5e6&#45;&gt;181827c643d44420b43bae3d3357cb0f -->
<g id="edge25" class="edge">
<title>1158d69a23ee461ebda0eefba92ee5e6&#45;&gt;181827c643d44420b43bae3d3357cb0f</title>
<path fill="none" stroke="#7b8894" d="M805.1,-1730C903.92,-1730 1113,-1730 1113,-1730 1113,-1730 1113,-1088.71 1113,-1088.71"/>
<polygon fill="#7b8894" stroke="#7b8894" points="1116.5,-1088.71 1113,-1078.71 1109.5,-1088.71 1116.5,-1088.71"/>
<text text-anchor="middle" x="925" y="-1622.6" font-family="Sans-Serif" font-size="13.00" fill="darkgrey">l_to_ds_comper_ventes_digitales</text>
</g>
<!-- 1b6e8f62e8e14c269a89ed3de70114cf -->
<g id="node30" class="node">
<title>1b6e8f62e8e14c269a89ed3de70114cf</title>
<image xlink:href="icons/bigquery.png" width="101px" height="101px" preserveAspectRatio="xMinYMin meet" x="704" y="-1600.5"/>
<text text-anchor="middle" x="754.5" y="-1485.1" font-family="Sans-Serif" font-size="13.00" fill="#2d3436">[?config?].l_ama_to_ds_comper_options_vertes</text>
</g>
<!-- 1b6e8f62e8e14c269a89ed3de70114cf&#45;&gt;181827c643d44420b43bae3d3357cb0f -->
<g id="edge26" class="edge">
<title>1b6e8f62e8e14c269a89ed3de70114cf&#45;&gt;181827c643d44420b43bae3d3357cb0f</title>
<path fill="none" stroke="#7b8894" d="M805.26,-1550C900.39,-1550 1096,-1550 1096,-1550 1096,-1550 1096,-1088.67 1096,-1088.67"/>
<polygon fill="#7b8894" stroke="#7b8894" points="1099.5,-1088.67 1096,-1078.67 1092.5,-1088.67 1099.5,-1088.67"/>
<text text-anchor="middle" x="925" y="-1449.6" font-family="Sans-Serif" font-size="13.00" fill="darkgrey">l_to_ds_comper_ventes_digitales</text>
</g>
<!-- 7b5d7fdba30249a3b01cb3a1daff38e8 -->
<g id="node31" class="node">
<title>7b5d7fdba30249a3b01cb3a1daff38e8</title>
<image xlink:href="icons/bigquery.png" width="101px" height="101px" preserveAspectRatio="xMinYMin meet" x="704" y="-1420.5"/>
<text text-anchor="middle" x="754.5" y="-1305.1" font-family="Sans-Serif" font-size="13.00" fill="#2d3436">[?config?].l_ama_to_ds_comper_t_ama_parrainage</text>
</g>
<!-- 7b5d7fdba30249a3b01cb3a1daff38e8&#45;&gt;181827c643d44420b43bae3d3357cb0f -->
<g id="edge27" class="edge">
<title>7b5d7fdba30249a3b01cb3a1daff38e8&#45;&gt;181827c643d44420b43bae3d3357cb0f</title>
<path fill="none" stroke="#7b8894" d="M805.2,-1370C896.47,-1370 1079,-1370 1079,-1370 1079,-1370 1079,-1088.56 1079,-1088.56"/>
<polygon fill="#7b8894" stroke="#7b8894" points="1082.5,-1088.56 1079,-1078.56 1075.5,-1088.56 1082.5,-1088.56"/>
<text text-anchor="middle" x="925" y="-1284.6" font-family="Sans-Serif" font-size="13.00" fill="darkgrey">l_to_ds_comper_ventes_digitales</text>
</g>
<!-- 131eb5146f254d47a2b4b8a20b04a96d -->
<g id="node32" class="node">
<title>131eb5146f254d47a2b4b8a20b04a96d</title>
<image xlink:href="icons/bigquery.png" width="101px" height="101px" preserveAspectRatio="xMinYMin meet" x="704" y="-1240.5"/>
<text text-anchor="middle" x="754.5" y="-1125.1" font-family="Sans-Serif" font-size="13.00" fill="#2d3436">[?config?].l_ga_to_ds_comper_e_gsheet_cee_souscriptions</text>
</g>
<!-- 131eb5146f254d47a2b4b8a20b04a96d&#45;&gt;181827c643d44420b43bae3d3357cb0f -->
<g id="edge28" class="edge">
<title>131eb5146f254d47a2b4b8a20b04a96d&#45;&gt;181827c643d44420b43bae3d3357cb0f</title>
<path fill="none" stroke="#7b8894" d="M805.28,-1190C892.62,-1190 1062,-1190 1062,-1190 1062,-1190 1062,-1088.56 1062,-1088.56"/>
<polygon fill="#7b8894" stroke="#7b8894" points="1065.5,-1088.56 1062,-1078.56 1058.5,-1088.56 1065.5,-1088.56"/>
<text text-anchor="middle" x="925" y="-1134.6" font-family="Sans-Serif" font-size="13.00" fill="darkgrey">l_to_ds_comper_ventes_digitales</text>
</g>
<!-- e32204bc9fa64ed0b8ce363922c635f4 -->
<g id="node33" class="node">
<title>e32204bc9fa64ed0b8ce363922c635f4</title>
<image xlink:href="icons/bigquery.png" width="101px" height="101px" preserveAspectRatio="xMinYMin meet" x="704" y="-1060.5"/>
<text text-anchor="middle" x="754.5" y="-945.1" font-family="Sans-Serif" font-size="13.00" fill="#2d3436">[?config?].l_ama_to_ds_comper_bout_en_bout_equipements</text>
</g>
<!-- e32204bc9fa64ed0b8ce363922c635f4&#45;&gt;181827c643d44420b43bae3d3357cb0f -->
<g id="edge29" class="edge">
<title>e32204bc9fa64ed0b8ce363922c635f4&#45;&gt;181827c643d44420b43bae3d3357cb0f</title>
<path fill="none" stroke="#7b8894" d="M805.18,-1010C805.18,-1010 1034.82,-1010 1034.82,-1010"/>
<polygon fill="#7b8894" stroke="#7b8894" points="1034.82,-1013.5 1044.82,-1010 1034.82,-1006.5 1034.82,-1013.5"/>
<text text-anchor="middle" x="925" y="-1013.6" font-family="Sans-Serif" font-size="13.00" fill="darkgrey">l_to_ds_comper_ventes_digitales</text>
</g>
<!-- b6237f05c14241d0996372f90b69bac3 -->
<g id="node34" class="node">
<title>b6237f05c14241d0996372f90b69bac3</title>
<image xlink:href="icons/bigquery.png" width="101px" height="101px" preserveAspectRatio="xMinYMin meet" x="704" y="-880.5"/>
<text text-anchor="middle" x="754.5" y="-765.1" font-family="Sans-Serif" font-size="13.00" fill="#2d3436">[?config?].e_ds_comper_objectifs_hors_energie</text>
</g>
<!-- b6237f05c14241d0996372f90b69bac3&#45;&gt;181827c643d44420b43bae3d3357cb0f -->
<g id="edge30" class="edge">
<title>b6237f05c14241d0996372f90b69bac3&#45;&gt;181827c643d44420b43bae3d3357cb0f</title>
<path fill="none" stroke="#7b8894" d="M805.28,-830C892.62,-830 1062,-830 1062,-830 1062,-830 1062,-931.44 1062,-931.44"/>
<polygon fill="#7b8894" stroke="#7b8894" points="1058.5,-931.44 1062,-941.44 1065.5,-931.44 1058.5,-931.44"/>
<text text-anchor="middle" x="925" y="-892.6" font-family="Sans-Serif" font-size="13.00" fill="darkgrey">l_to_ds_comper_ventes_digitales</text>
</g>
<!-- a9c1a8431d0a4e3ab750173eaafb30b0 -->
<g id="node35" class="node">
<title>a9c1a8431d0a4e3ab750173eaafb30b0</title>
<image xlink:href="icons/bigquery.png" width="101px" height="101px" preserveAspectRatio="xMinYMin meet" x="704" y="-700.5"/>
<text text-anchor="middle" x="754.5" y="-585.1" font-family="Sans-Serif" font-size="13.00" fill="#2d3436">[?config?].l_mypower_to_ds_comper_mypower</text>
</g>
<!-- a9c1a8431d0a4e3ab750173eaafb30b0&#45;&gt;181827c643d44420b43bae3d3357cb0f -->
<g id="edge31" class="edge">
<title>a9c1a8431d0a4e3ab750173eaafb30b0&#45;&gt;181827c643d44420b43bae3d3357cb0f</title>
<path fill="none" stroke="#7b8894" d="M805.2,-650C896.47,-650 1079,-650 1079,-650 1079,-650 1079,-931.44 1079,-931.44"/>
<polygon fill="#7b8894" stroke="#7b8894" points="1075.5,-931.44 1079,-941.44 1082.5,-931.44 1075.5,-931.44"/>
<text text-anchor="middle" x="925" y="-741.6" font-family="Sans-Serif" font-size="13.00" fill="darkgrey">l_to_ds_comper_ventes_digitales</text>
</g>
<!-- bd0a3690b2604353a7b81315cd033ac4 -->
<g id="node36" class="node">
<title>bd0a3690b2604353a7b81315cd033ac4</title>
<image xlink:href="icons/bigquery.png" width="101px" height="101px" preserveAspectRatio="xMinYMin meet" x="704" y="-520.5"/>
<text text-anchor="middle" x="754.5" y="-405.1" font-family="Sans-Serif" font-size="13.00" fill="#2d3436">[?config?].l_ama_to_ds_comper_prelevement_mensualisation</text>
</g>
<!-- bd0a3690b2604353a7b81315cd033ac4&#45;&gt;181827c643d44420b43bae3d3357cb0f -->
<g id="edge32" class="edge">
<title>bd0a3690b2604353a7b81315cd033ac4&#45;&gt;181827c643d44420b43bae3d3357cb0f</title>
<path fill="none" stroke="#7b8894" d="M805.26,-470C900.39,-470 1096,-470 1096,-470 1096,-470 1096,-931.33 1096,-931.33"/>
<polygon fill="#7b8894" stroke="#7b8894" points="1092.5,-931.33 1096,-941.33 1099.5,-931.33 1092.5,-931.33"/>
<text text-anchor="middle" x="925" y="-576.6" font-family="Sans-Serif" font-size="13.00" fill="darkgrey">l_to_ds_comper_ventes_digitales</text>
</g>
<!-- 23a6089f56cf42718cee3c15a0a9e68e -->
<g id="node37" class="node">
<title>23a6089f56cf42718cee3c15a0a9e68e</title>
<image xlink:href="icons/bigquery.png" width="101px" height="101px" preserveAspectRatio="xMinYMin meet" x="704" y="-340.5"/>
<text text-anchor="middle" x="754.5" y="-225.1" font-family="Sans-Serif" font-size="13.00" fill="#2d3436">[?config?].l_ama_to_ds_comper_activation_energie</text>
</g>
<!-- 23a6089f56cf42718cee3c15a0a9e68e&#45;&gt;181827c643d44420b43bae3d3357cb0f -->
<g id="edge33" class="edge">
<title>23a6089f56cf42718cee3c15a0a9e68e&#45;&gt;181827c643d44420b43bae3d3357cb0f</title>
<path fill="none" stroke="#7b8894" d="M805.1,-290C903.92,-290 1113,-290 1113,-290 1113,-290 1113,-931.29 1113,-931.29"/>
<polygon fill="#7b8894" stroke="#7b8894" points="1109.5,-931.29 1113,-941.29 1116.5,-931.29 1109.5,-931.29"/>
<text text-anchor="middle" x="925" y="-403.6" font-family="Sans-Serif" font-size="13.00" fill="darkgrey">l_to_ds_comper_ventes_digitales</text>
</g>
<!-- 5959a3860db648679ff6b1fcef3f491c -->
<g id="node38" class="node">
<title>5959a3860db648679ff6b1fcef3f491c</title>
<image xlink:href="icons/bigquery.png" width="101px" height="101px" preserveAspectRatio="xMinYMin meet" x="704" y="-160.5"/>
<text text-anchor="middle" x="754.5" y="-45.1" font-family="Sans-Serif" font-size="13.00" fill="#2d3436">[?config?].l_ga_to_ds_comper_sessions</text>
</g>
<!-- 5959a3860db648679ff6b1fcef3f491c&#45;&gt;181827c643d44420b43bae3d3357cb0f -->
<g id="edge34" class="edge">
<title>5959a3860db648679ff6b1fcef3f491c&#45;&gt;181827c643d44420b43bae3d3357cb0f</title>
<path fill="none" stroke="#7b8894" d="M805.14,-110C907.64,-110 1130,-110 1130,-110 1130,-110 1130,-931.24 1130,-931.24"/>
<polygon fill="#7b8894" stroke="#7b8894" points="1126.5,-931.24 1130,-941.24 1133.5,-931.24 1126.5,-931.24"/>
<text text-anchor="middle" x="925" y="-227.6" font-family="Sans-Serif" font-size="13.00" fill="darkgrey">l_to_ds_comper_ventes_digitales</text>
</g>
</g>
</svg>
