<?xml version="1.0" encoding="UTF-8" standalone="no"?>
<!DOCTYPE svg PUBLIC "-//W3C//DTD SVG 1.1//EN"
 "http://www.w3.org/Graphics/SVG/1.1/DTD/svg11.dtd">
<!-- Generated by graphviz version 2.47.1 (20210417.1919)
 -->
<!-- Title: comper Pages: 1 -->
<svg width="1418pt" height="4307pt"
 viewBox="0.00 0.00 1418.00 4307.00" xmlns="http://www.w3.org/2000/svg" xmlns:xlink="http://www.w3.org/1999/xlink">
<g id="graph0" class="graph" transform="scale(1 1) rotate(0) translate(144 4163)">
<title>comper</title>
<text text-anchor="middle" x="565" y="-34" font-family="Sans-Serif" font-size="100.00" fill="#2d3436">comper</text>
<!-- 156e4c32ed94469999c7a707c5e87e30 -->
<g id="node1" class="node">
<title>156e4c32ed94469999c7a707c5e87e30</title>
<image xlink:href="icons/bigquery.png" width="101px" height="101px" preserveAspectRatio="xMinYMin meet" x="389" y="-237"/>
<text text-anchor="middle" x="439.5" y="-121.6" font-family="Sans-Serif" font-size="13.00" fill="#2d3436">comper.e_v_digi_import_cube_valeur</text>
</g>
<!-- 23b13bec663f42cdaf874e370a0568b5 -->
<g id="node10" class="node">
<title>23b13bec663f42cdaf874e370a0568b5</title>
<image xlink:href="icons/bigquery.png" width="101px" height="101px" preserveAspectRatio="xMinYMin meet" x="688" y="-237"/>
<text text-anchor="middle" x="738.5" y="-121.6" font-family="Sans-Serif" font-size="13.00" fill="#2d3436">comper.t_v_digi_cube_valeur</text>
</g>
<!-- 156e4c32ed94469999c7a707c5e87e30&#45;&gt;23b13bec663f42cdaf874e370a0568b5 -->
<g id="edge7" class="edge">
<title>156e4c32ed94469999c7a707c5e87e30&#45;&gt;23b13bec663f42cdaf874e370a0568b5</title>
<path fill="none" stroke="#7b8894" d="M490.22,-186.5C490.22,-186.5 677.53,-186.5 677.53,-186.5"/>
<polygon fill="#7b8894" stroke="#7b8894" points="677.53,-190 687.53,-186.5 677.53,-183 677.53,-190"/>
<text text-anchor="middle" x="589" y="-190.1" font-family="Sans-Serif" font-size="13.00" fill="#2d3436">t_cube_valeur</text>
</g>
<!-- 8b98742d34e54f4cb48ea940e2161016 -->
<g id="node2" class="node">
<title>8b98742d34e54f4cb48ea940e2161016</title>
<image xlink:href="C:\Users\MD1116\Dev\Github_VinceCabs\dgp-particuliers-data-pipelines\.venv\lib\site-packages\resources/gcp/storage\storage.png" width="101px" height="101px" preserveAspectRatio="xMinYMin meet" x="0" y="-237"/>
<text text-anchor="middle" x="50.5" y="-121.6" font-family="Sans-Serif" font-size="13.00" fill="#2d3436">amadeus_bi.contrats/ama_contrats_digitaux_stor_</text>
</g>
<!-- 8b98742d34e54f4cb48ea940e2161016&#45;&gt;156e4c32ed94469999c7a707c5e87e30 -->
<g id="edge1" class="edge">
<title>8b98742d34e54f4cb48ea940e2161016&#45;&gt;156e4c32ed94469999c7a707c5e87e30</title>
<path fill="none" stroke="#7b8894" d="M101.35,-186.5C101.35,-186.5 378.94,-186.5 378.94,-186.5"/>
<polygon fill="#7b8894" stroke="#7b8894" points="378.94,-190 388.94,-186.5 378.94,-183 378.94,-190"/>
<text text-anchor="middle" x="245" y="-190.1" font-family="Sans-Serif" font-size="13.00" fill="#2d3436">e_import_cube_valeur</text>
</g>
<!-- 45109fe78ead4f089222c87cfef1e7c1 -->
<g id="node3" class="node">
<title>45109fe78ead4f089222c87cfef1e7c1</title>
<image xlink:href="icons/bigquery.png" width="101px" height="101px" preserveAspectRatio="xMinYMin meet" x="389" y="-507"/>
<text text-anchor="middle" x="439.5" y="-391.6" font-family="Sans-Serif" font-size="13.00" fill="#2d3436">amadeus.t_ama_ventes_digitales</text>
</g>
<!-- 74464a39cdd74d189f880c3206d4859f -->
<g id="node4" class="node">
<title>74464a39cdd74d189f880c3206d4859f</title>
<image xlink:href="icons/bigquery.png" width="101px" height="101px" preserveAspectRatio="xMinYMin meet" x="0" y="-642"/>
<text text-anchor="middle" x="50.5" y="-526.6" font-family="Sans-Serif" font-size="13.00" fill="#2d3436">amadeus.t_ama_contrats_appels_leviers</text>
</g>
<!-- 74464a39cdd74d189f880c3206d4859f&#45;&gt;45109fe78ead4f089222c87cfef1e7c1 -->
<g id="edge2" class="edge">
<title>74464a39cdd74d189f880c3206d4859f&#45;&gt;45109fe78ead4f089222c87cfef1e7c1</title>
<path fill="none" stroke="#7b8894" d="M51,-522.83C51,-510.51 51,-501.5 51,-501.5 51,-501.5 378.71,-501.5 378.71,-501.5"/>
<polygon fill="#7b8894" stroke="#7b8894" points="378.71,-505 388.71,-501.5 378.71,-498 378.71,-505"/>
<text text-anchor="middle" x="245" y="-595.1" font-family="Sans-Serif" font-size="13.00" fill="#2d3436">t_ventes_digitales</text>
</g>
<!-- 9f96d4512ed046d8baaa48b4cb8bf1ab -->
<g id="node5" class="node">
<title>9f96d4512ed046d8baaa48b4cb8bf1ab</title>
<image xlink:href="icons/bigquery.png" width="101px" height="101px" preserveAspectRatio="xMinYMin meet" x="0" y="-462"/>
<text text-anchor="middle" x="50.5" y="-346.6" font-family="Sans-Serif" font-size="13.00" fill="#2d3436">[?config?].t_ama_contrats_formulaires</text>
</g>
<!-- 9f96d4512ed046d8baaa48b4cb8bf1ab&#45;&gt;45109fe78ead4f089222c87cfef1e7c1 -->
<g id="edge3" class="edge">
<title>9f96d4512ed046d8baaa48b4cb8bf1ab&#45;&gt;45109fe78ead4f089222c87cfef1e7c1</title>
<path fill="none" stroke="#7b8894" d="M101.35,-434C101.35,-434 378.94,-434 378.94,-434"/>
<polygon fill="#7b8894" stroke="#7b8894" points="378.94,-437.5 388.94,-434 378.94,-430.5 378.94,-437.5"/>
<text text-anchor="middle" x="245" y="-415.1" font-family="Sans-Serif" font-size="13.00" fill="#2d3436">t_ventes_digitales</text>
</g>
<!-- 85cd69cfab9843759f4be61346b4396a -->
<g id="node6" class="node">
<title>85cd69cfab9843759f4be61346b4396a</title>
<image xlink:href="icons/bigquery.png" width="101px" height="101px" preserveAspectRatio="xMinYMin meet" x="389" y="-1002"/>
<text text-anchor="middle" x="439.5" y="-886.6" font-family="Sans-Serif" font-size="13.00" fill="#2d3436">comper.t_ama_realise</text>
</g>
<!-- c2218ba0b8fb445ca3db9077f82a1676 -->
<g id="node11" class="node">
<title>c2218ba0b8fb445ca3db9077f82a1676</title>
<image xlink:href="icons/bigquery.png" width="101px" height="101px" preserveAspectRatio="xMinYMin meet" x="688" y="-1121"/>
<text text-anchor="middle" x="738.5" y="-1005.6" font-family="Sans-Serif" font-size="13.00" fill="#2d3436">comper.t_datastudio_point_de_sortie</text>
</g>
<!-- 85cd69cfab9843759f4be61346b4396a&#45;&gt;c2218ba0b8fb445ca3db9077f82a1676 -->
<g id="edge8" class="edge">
<title>85cd69cfab9843759f4be61346b4396a&#45;&gt;c2218ba0b8fb445ca3db9077f82a1676</title>
<path fill="none" stroke="#7b8894" d="M490.22,-1011C490.22,-1011 677.53,-1011 677.53,-1011"/>
<polygon fill="#7b8894" stroke="#7b8894" points="677.53,-1014.5 687.53,-1011 677.53,-1007.5 677.53,-1014.5"/>
<text text-anchor="middle" x="589" y="-1014.1" font-family="Sans-Serif" font-size="13.00" fill="#2d3436">t_point_de_sortie</text>
</g>
<!-- 6611f0b3c71041d1a7ac2a2a4be45b97 -->
<g id="node7" class="node">
<title>6611f0b3c71041d1a7ac2a2a4be45b97</title>
<image xlink:href="icons/bigquery.png" width="101px" height="101px" preserveAspectRatio="xMinYMin meet" x="0" y="-1182"/>
<text text-anchor="middle" x="50.5" y="-1066.6" font-family="Sans-Serif" font-size="13.00" fill="#2d3436">amadeus.t_ama_leads_appels</text>
</g>
<!-- 6611f0b3c71041d1a7ac2a2a4be45b97&#45;&gt;85cd69cfab9843759f4be61346b4396a -->
<g id="edge4" class="edge">
<title>6611f0b3c71041d1a7ac2a2a4be45b97&#45;&gt;85cd69cfab9843759f4be61346b4396a</title>
<path fill="none" stroke="#7b8894" d="M51,-1062.83C51,-1050.51 51,-1041.5 51,-1041.5 51,-1041.5 440,-1041.5 440,-1041.5 440,-1041.5 440,-1030.17 440,-1030.17"/>
<polygon fill="#7b8894" stroke="#7b8894" points="443.5,-1030.17 440,-1020.17 436.5,-1030.17 443.5,-1030.17"/>
<text text-anchor="middle" x="245" y="-1135.1" font-family="Sans-Serif" font-size="13.00" fill="#2d3436">t_realise</text>
</g>
<!-- 27c5796b1f964a488954ea15833cab8b -->
<g id="node8" class="node">
<title>27c5796b1f964a488954ea15833cab8b</title>
<image xlink:href="icons/bigquery.png" width="101px" height="101px" preserveAspectRatio="xMinYMin meet" x="0" y="-1002"/>
<text text-anchor="middle" x="50.5" y="-886.6" font-family="Sans-Serif" font-size="13.00" fill="#2d3436">[?config?].t_ama_leads_formulaires</text>
</g>
<!-- 27c5796b1f964a488954ea15833cab8b&#45;&gt;85cd69cfab9843759f4be61346b4396a -->
<g id="edge5" class="edge">
<title>27c5796b1f964a488954ea15833cab8b&#45;&gt;85cd69cfab9843759f4be61346b4396a</title>
<path fill="none" stroke="#7b8894" d="M101.35,-951.5C101.35,-951.5 378.94,-951.5 378.94,-951.5"/>
<polygon fill="#7b8894" stroke="#7b8894" points="378.94,-955 388.94,-951.5 378.94,-948 378.94,-955"/>
<text text-anchor="middle" x="245" y="-955.1" font-family="Sans-Serif" font-size="13.00" fill="#2d3436">t_realise</text>
</g>
<!-- 262e0666bc6d4d19881132118289f7b0 -->
<g id="node9" class="node">
<title>262e0666bc6d4d19881132118289f7b0</title>
<image xlink:href="icons/bigquery.png" width="101px" height="101px" preserveAspectRatio="xMinYMin meet" x="0" y="-822"/>
<text text-anchor="middle" x="50.5" y="-706.6" font-family="Sans-Serif" font-size="13.00" fill="#2d3436">[?config?].t_ama_ventes_digitales</text>
</g>
<!-- 262e0666bc6d4d19881132118289f7b0&#45;&gt;85cd69cfab9843759f4be61346b4396a -->
<g id="edge6" class="edge">
<title>262e0666bc6d4d19881132118289f7b0&#45;&gt;85cd69cfab9843759f4be61346b4396a</title>
<path fill="none" stroke="#7b8894" d="M101.02,-771.5C206.41,-771.5 440,-771.5 440,-771.5 440,-771.5 440,-872.94 440,-872.94"/>
<polygon fill="#7b8894" stroke="#7b8894" points="436.5,-872.94 440,-882.94 443.5,-872.94 436.5,-872.94"/>
<text text-anchor="middle" x="245" y="-775.1" font-family="Sans-Serif" font-size="13.00" fill="#2d3436">t_realise</text>
</g>
<!-- 838c59aaae5d482e99fd1b2c69a84fb3 -->
<g id="node12" class="node">
<title>838c59aaae5d482e99fd1b2c69a84fb3</title>
<image xlink:href="icons/bigquery.png" width="101px" height="101px" preserveAspectRatio="xMinYMin meet" x="389" y="-1182"/>
<text text-anchor="middle" x="439.5" y="-1066.6" font-family="Sans-Serif" font-size="13.00" fill="#2d3436">[?config?].e_ds_comper_saisonnalite</text>
</g>
<!-- 838c59aaae5d482e99fd1b2c69a84fb3&#45;&gt;c2218ba0b8fb445ca3db9077f82a1676 -->
<g id="edge9" class="edge">
<title>838c59aaae5d482e99fd1b2c69a84fb3&#45;&gt;c2218ba0b8fb445ca3db9077f82a1676</title>
<path fill="none" stroke="#7b8894" d="M490.22,-1101C490.22,-1101 677.53,-1101 677.53,-1101"/>
<polygon fill="#7b8894" stroke="#7b8894" points="677.53,-1104.5 687.53,-1101 677.53,-1097.5 677.53,-1104.5"/>
<text text-anchor="middle" x="589" y="-1135.1" font-family="Sans-Serif" font-size="13.00" fill="#2d3436">t_point_de_sortie</text>
</g>
<!-- 1acad89ebae14a7c94c7863efde1eec6 -->
<g id="node13" class="node">
<title>1acad89ebae14a7c94c7863efde1eec6</title>
<image xlink:href="icons/bigquery.png" width="101px" height="101px" preserveAspectRatio="xMinYMin meet" x="389" y="-3551"/>
<text text-anchor="middle" x="439.5" y="-3435.6" font-family="Sans-Serif" font-size="13.00" fill="#2d3436">comper.l_datastudio_contrats_offres_energie_hors_depenses</text>
</g>
<!-- 8073e91676c34022bac237cf3322d30a -->
<g id="node20" class="node">
<title>8073e91676c34022bac237cf3322d30a</title>
<image xlink:href="icons/bigquery.png" width="101px" height="101px" preserveAspectRatio="xMinYMin meet" x="688" y="-3677"/>
<text text-anchor="middle" x="738.5" y="-3561.6" font-family="Sans-Serif" font-size="13.00" fill="#2d3436">comper.t_datastudio_depenses_acquisition</text>
</g>
<!-- 1acad89ebae14a7c94c7863efde1eec6&#45;&gt;8073e91676c34022bac237cf3322d30a -->
<g id="edge16" class="edge">
<title>1acad89ebae14a7c94c7863efde1eec6&#45;&gt;8073e91676c34022bac237cf3322d30a</title>
<path fill="none" stroke="#7b8894" d="M490.22,-3563.5C490.22,-3563.5 677.53,-3563.5 677.53,-3563.5"/>
<polygon fill="#7b8894" stroke="#7b8894" points="677.53,-3567 687.53,-3563.5 677.53,-3560 677.53,-3567"/>
<text text-anchor="middle" x="589" y="-3587.1" font-family="Sans-Serif" font-size="13.00" fill="#2d3436">t_depenses_acquisition</text>
</g>
<!-- 0be245fa4d874934a18f865ff5da4798 -->
<g id="node22" class="node">
<title>0be245fa4d874934a18f865ff5da4798</title>
<image xlink:href="icons/bigquery.png" width="101px" height="101px" preserveAspectRatio="xMinYMin meet" x="688" y="-3494"/>
<text text-anchor="middle" x="738.5" y="-3378.6" font-family="Sans-Serif" font-size="13.00" fill="#2d3436">comper.t_datastudio_depenses_traitement</text>
</g>
<!-- 1acad89ebae14a7c94c7863efde1eec6&#45;&gt;0be245fa4d874934a18f865ff5da4798 -->
<g id="edge18" class="edge">
<title>1acad89ebae14a7c94c7863efde1eec6&#45;&gt;0be245fa4d874934a18f865ff5da4798</title>
<path fill="none" stroke="#7b8894" d="M490.22,-3485.33C490.22,-3485.33 677.53,-3485.33 677.53,-3485.33"/>
<polygon fill="#7b8894" stroke="#7b8894" points="677.53,-3488.83 687.53,-3485.33 677.53,-3481.83 677.53,-3488.83"/>
<text text-anchor="middle" x="589" y="-3490.1" font-family="Sans-Serif" font-size="13.00" fill="#2d3436">t_depenses_traitement</text>
</g>
<!-- 46f1e57384874261b4a3e2cdc452ab87 -->
<g id="node24" class="node">
<title>46f1e57384874261b4a3e2cdc452ab87</title>
<image xlink:href="icons/bigquery.png" width="101px" height="101px" preserveAspectRatio="xMinYMin meet" x="688" y="-3101"/>
<text text-anchor="middle" x="738.5" y="-2985.6" font-family="Sans-Serif" font-size="13.00" fill="#2d3436">comper.l_datastudio_contrats_offres_energie</text>
</g>
<!-- 1acad89ebae14a7c94c7863efde1eec6&#45;&gt;46f1e57384874261b4a3e2cdc452ab87 -->
<g id="edge20" class="edge">
<title>1acad89ebae14a7c94c7863efde1eec6&#45;&gt;46f1e57384874261b4a3e2cdc452ab87</title>
<path fill="none" stroke="#7b8894" d="M490.26,-3458.67C521.65,-3458.67 556,-3458.67 556,-3458.67 556,-3458.67 556,-3103.33 556,-3103.33 556,-3103.33 677.66,-3103.33 677.66,-3103.33"/>
<polygon fill="#7b8894" stroke="#7b8894" points="677.66,-3106.83 687.66,-3103.33 677.66,-3099.83 677.66,-3106.83"/>
<text text-anchor="middle" x="589" y="-3414.1" font-family="Sans-Serif" font-size="13.00" fill="#2d3436">t_contrats_offres_energie</text>
</g>
<!-- ed7f490016cc416a83fa28ff85d8aa39 -->
<g id="node14" class="node">
<title>ed7f490016cc416a83fa28ff85d8aa39</title>
<image xlink:href="icons/bigquery.png" width="101px" height="101px" preserveAspectRatio="xMinYMin meet" x="0" y="-4001"/>
<text text-anchor="middle" x="50.5" y="-3885.6" font-family="Sans-Serif" font-size="13.00" fill="#2d3436">comper.e_datastudio_contrats_offres_energie_2018</text>
</g>
<!-- ed7f490016cc416a83fa28ff85d8aa39&#45;&gt;1acad89ebae14a7c94c7863efde1eec6 -->
<g id="edge10" class="edge">
<title>ed7f490016cc416a83fa28ff85d8aa39&#45;&gt;1acad89ebae14a7c94c7863efde1eec6</title>
<path fill="none" stroke="#7b8894" d="M101.15,-3950.5C182.2,-3950.5 332,-3950.5 332,-3950.5 332,-3950.5 332,-3557.25 332,-3557.25 332,-3557.25 378.9,-3557.25 378.9,-3557.25"/>
<polygon fill="#7b8894" stroke="#7b8894" points="378.9,-3560.75 388.9,-3557.25 378.9,-3553.75 378.9,-3560.75"/>
<text text-anchor="middle" x="245" y="-3954.1" font-family="Sans-Serif" font-size="13.00" fill="#2d3436">t_contrats_offres_energie_hors_depenses</text>
</g>
<!-- d9265ee2fcc242f5ab276eb8342979cb -->
<g id="node15" class="node">
<title>d9265ee2fcc242f5ab276eb8342979cb</title>
<image xlink:href="icons/bigquery.png" width="101px" height="101px" preserveAspectRatio="xMinYMin meet" x="0" y="-3821"/>
<text text-anchor="middle" x="50.5" y="-3705.6" font-family="Sans-Serif" font-size="13.00" fill="#2d3436">[?config?].t_ama_realise</text>
</g>
<!-- d9265ee2fcc242f5ab276eb8342979cb&#45;&gt;1acad89ebae14a7c94c7863efde1eec6 -->
<g id="edge11" class="edge">
<title>d9265ee2fcc242f5ab276eb8342979cb&#45;&gt;1acad89ebae14a7c94c7863efde1eec6</title>
<path fill="none" stroke="#7b8894" d="M101.22,-3725.5C167.16,-3725.5 274,-3725.5 274,-3725.5 274,-3725.5 274,-3545.5 274,-3545.5 274,-3545.5 378.95,-3545.5 378.95,-3545.5"/>
<polygon fill="#7b8894" stroke="#7b8894" points="378.95,-3549 388.95,-3545.5 378.95,-3542 378.95,-3549"/>
<text text-anchor="middle" x="245" y="-3774.1" font-family="Sans-Serif" font-size="13.00" fill="#2d3436">t_contrats_offres_energie_hors_depenses</text>
</g>
<!-- 5ed1ff48d4ea44b98c131ddf86d28467 -->
<g id="node16" class="node">
<title>5ed1ff48d4ea44b98c131ddf86d28467</title>
<image xlink:href="icons/bigquery.png" width="101px" height="101px" preserveAspectRatio="xMinYMin meet" x="0" y="-3641"/>
<text text-anchor="middle" x="50.5" y="-3525.6" font-family="Sans-Serif" font-size="13.00" fill="#2d3436">[?config?].e_ds_comper_objectifs_2018_seulement</text>
</g>
<!-- 5ed1ff48d4ea44b98c131ddf86d28467&#45;&gt;1acad89ebae14a7c94c7863efde1eec6 -->
<g id="edge12" class="edge">
<title>5ed1ff48d4ea44b98c131ddf86d28467&#45;&gt;1acad89ebae14a7c94c7863efde1eec6</title>
<path fill="none" stroke="#7b8894" d="M101.35,-3533.75C101.35,-3533.75 378.94,-3533.75 378.94,-3533.75"/>
<polygon fill="#7b8894" stroke="#7b8894" points="378.94,-3537.25 388.94,-3533.75 378.94,-3530.25 378.94,-3537.25"/>
<text text-anchor="middle" x="245" y="-3594.1" font-family="Sans-Serif" font-size="13.00" fill="#2d3436">t_contrats_offres_energie_hors_depenses</text>
</g>
<!-- c7c6f1e106f74941b3a4802a7f55b28b -->
<g id="node17" class="node">
<title>c7c6f1e106f74941b3a4802a7f55b28b</title>
<image xlink:href="icons/bigquery.png" width="101px" height="101px" preserveAspectRatio="xMinYMin meet" x="0" y="-3461"/>
<text text-anchor="middle" x="50.5" y="-3345.6" font-family="Sans-Serif" font-size="13.00" fill="#2d3436">[?config?].e_ds_comper_objectifs_2019_seulement</text>
</g>
<!-- c7c6f1e106f74941b3a4802a7f55b28b&#45;&gt;1acad89ebae14a7c94c7863efde1eec6 -->
<g id="edge13" class="edge">
<title>c7c6f1e106f74941b3a4802a7f55b28b&#45;&gt;1acad89ebae14a7c94c7863efde1eec6</title>
<path fill="none" stroke="#7b8894" d="M101.35,-3467.25C101.35,-3467.25 378.94,-3467.25 378.94,-3467.25"/>
<polygon fill="#7b8894" stroke="#7b8894" points="378.94,-3470.75 388.94,-3467.25 378.94,-3463.75 378.94,-3470.75"/>
<text text-anchor="middle" x="245" y="-3414.1" font-family="Sans-Serif" font-size="13.00" fill="#2d3436">t_contrats_offres_energie_hors_depenses</text>
</g>
<!-- a0177b8f85cc42c9ba7a10367732c3c9 -->
<g id="node18" class="node">
<title>a0177b8f85cc42c9ba7a10367732c3c9</title>
<image xlink:href="icons/bigquery.png" width="101px" height="101px" preserveAspectRatio="xMinYMin meet" x="0" y="-3281"/>
<text text-anchor="middle" x="50.5" y="-3165.6" font-family="Sans-Serif" font-size="13.00" fill="#2d3436">[?config?].t_datastudio_point_de_sortie</text>
</g>
<!-- a0177b8f85cc42c9ba7a10367732c3c9&#45;&gt;1acad89ebae14a7c94c7863efde1eec6 -->
<g id="edge14" class="edge">
<title>a0177b8f85cc42c9ba7a10367732c3c9&#45;&gt;1acad89ebae14a7c94c7863efde1eec6</title>
<path fill="none" stroke="#7b8894" d="M101.26,-3275.5C129.49,-3275.5 159,-3275.5 159,-3275.5 159,-3275.5 159,-3455.5 159,-3455.5 159,-3455.5 378.7,-3455.5 378.7,-3455.5"/>
<polygon fill="#7b8894" stroke="#7b8894" points="378.7,-3459 388.7,-3455.5 378.7,-3452 378.7,-3459"/>
<text text-anchor="middle" x="245" y="-3234.1" font-family="Sans-Serif" font-size="13.00" fill="#2d3436">t_contrats_offres_energie_hors_depenses</text>
</g>
<!-- 481558f083bf40089a1f458dc3b0d006 -->
<g id="node19" class="node">
<title>481558f083bf40089a1f458dc3b0d006</title>
<image xlink:href="icons/bigquery.png" width="101px" height="101px" preserveAspectRatio="xMinYMin meet" x="0" y="-3101"/>
<text text-anchor="middle" x="50.5" y="-2985.6" font-family="Sans-Serif" font-size="13.00" fill="#2d3436">[?config?].e_ds_comper_objectifs</text>
</g>
<!-- 481558f083bf40089a1f458dc3b0d006&#45;&gt;1acad89ebae14a7c94c7863efde1eec6 -->
<g id="edge15" class="edge">
<title>481558f083bf40089a1f458dc3b0d006&#45;&gt;1acad89ebae14a7c94c7863efde1eec6</title>
<path fill="none" stroke="#7b8894" d="M101.36,-3095.5C150.32,-3095.5 217,-3095.5 217,-3095.5 217,-3095.5 217,-3443.75 217,-3443.75 217,-3443.75 378.73,-3443.75 378.73,-3443.75"/>
<polygon fill="#7b8894" stroke="#7b8894" points="378.73,-3447.25 388.73,-3443.75 378.73,-3440.25 378.73,-3447.25"/>
<text text-anchor="middle" x="245" y="-3054.1" font-family="Sans-Serif" font-size="13.00" fill="#2d3436">t_contrats_offres_energie_hors_depenses</text>
</g>
<!-- 426c5351bd214abc85db1f486b27c093 -->
<g id="node21" class="node">
<title>426c5351bd214abc85db1f486b27c093</title>
<image xlink:href="icons/bigquery.png" width="101px" height="101px" preserveAspectRatio="xMinYMin meet" x="389" y="-3731"/>
<text text-anchor="middle" x="439.5" y="-3615.6" font-family="Sans-Serif" font-size="13.00" fill="#2d3436">depenses.e_gsheet_depenses_acquisition</text>
</g>
<!-- 426c5351bd214abc85db1f486b27c093&#45;&gt;8073e91676c34022bac237cf3322d30a -->
<g id="edge17" class="edge">
<title>426c5351bd214abc85db1f486b27c093&#45;&gt;8073e91676c34022bac237cf3322d30a</title>
<path fill="none" stroke="#7b8894" d="M490.22,-3653.5C490.22,-3653.5 677.53,-3653.5 677.53,-3653.5"/>
<polygon fill="#7b8894" stroke="#7b8894" points="677.53,-3657 687.53,-3653.5 677.53,-3650 677.53,-3657"/>
<text text-anchor="middle" x="589" y="-3684.1" font-family="Sans-Serif" font-size="13.00" fill="#2d3436">t_depenses_acquisition</text>
</g>
<!-- 47ae18658b954c1595b9b4bcc3ffed2f -->
<g id="node23" class="node">
<title>47ae18658b954c1595b9b4bcc3ffed2f</title>
<image xlink:href="icons/bigquery.png" width="101px" height="101px" preserveAspectRatio="xMinYMin meet" x="389" y="-3371"/>
<text text-anchor="middle" x="439.5" y="-3255.6" font-family="Sans-Serif" font-size="13.00" fill="#2d3436">depenses.e_gsheet_depenses_traitement</text>
</g>
<!-- 47ae18658b954c1595b9b4bcc3ffed2f&#45;&gt;0be245fa4d874934a18f865ff5da4798 -->
<g id="edge19" class="edge">
<title>47ae18658b954c1595b9b4bcc3ffed2f&#45;&gt;0be245fa4d874934a18f865ff5da4798</title>
<path fill="none" stroke="#7b8894" d="M490.22,-3382C490.22,-3382 677.53,-3382 677.53,-3382"/>
<polygon fill="#7b8894" stroke="#7b8894" points="677.53,-3385.5 687.53,-3382 677.53,-3378.5 677.53,-3385.5"/>
<text text-anchor="middle" x="589" y="-3324.1" font-family="Sans-Serif" font-size="13.00" fill="#2d3436">t_depenses_traitement</text>
</g>
<!-- 9c7a1f343f9644379f545b46bba6cc2a -->
<g id="node28" class="node">
<title>9c7a1f343f9644379f545b46bba6cc2a</title>
<image xlink:href="icons/bigquery.png" width="101px" height="101px" preserveAspectRatio="xMinYMin meet" x="1029" y="-2201"/>
<text text-anchor="middle" x="1079.5" y="-2085.6" font-family="Sans-Serif" font-size="13.00" fill="#2d3436">comper.l_v_digi_to_ds_comper_ventes_digitales</text>
</g>
<!-- 46f1e57384874261b4a3e2cdc452ab87&#45;&gt;9c7a1f343f9644379f545b46bba6cc2a -->
<g id="edge24" class="edge">
<title>46f1e57384874261b4a3e2cdc452ab87&#45;&gt;9c7a1f343f9644379f545b46bba6cc2a</title>
<path fill="none" stroke="#7b8894" d="M789.14,-3050.5C891.64,-3050.5 1114,-3050.5 1114,-3050.5 1114,-3050.5 1114,-2229.26 1114,-2229.26"/>
<polygon fill="#7b8894" stroke="#7b8894" points="1117.5,-2229.26 1114,-2219.26 1110.5,-2229.26 1117.5,-2229.26"/>
<text text-anchor="middle" x="909" y="-2995.1" font-family="Sans-Serif" font-size="13.00" fill="#2d3436">l_to_ds_comper_ventes_digitales</text>
</g>
<!-- b3e980be4f3043ddaeb7789b84a0f8de -->
<g id="node25" class="node">
<title>b3e980be4f3043ddaeb7789b84a0f8de</title>
<image xlink:href="icons/bigquery.png" width="101px" height="101px" preserveAspectRatio="xMinYMin meet" x="389" y="-3191"/>
<text text-anchor="middle" x="439.5" y="-3075.6" font-family="Sans-Serif" font-size="13.00" fill="#2d3436">[?config?].t_datastudio_depenses_acquisition</text>
</g>
<!-- b3e980be4f3043ddaeb7789b84a0f8de&#45;&gt;46f1e57384874261b4a3e2cdc452ab87 -->
<g id="edge21" class="edge">
<title>b3e980be4f3043ddaeb7789b84a0f8de&#45;&gt;46f1e57384874261b4a3e2cdc452ab87</title>
<path fill="none" stroke="#7b8894" d="M490.22,-3087.67C490.22,-3087.67 677.53,-3087.67 677.53,-3087.67"/>
<polygon fill="#7b8894" stroke="#7b8894" points="677.53,-3091.17 687.53,-3087.67 677.53,-3084.17 677.53,-3091.17"/>
<text text-anchor="middle" x="589" y="-3144.1" font-family="Sans-Serif" font-size="13.00" fill="#2d3436">t_contrats_offres_energie</text>
</g>
<!-- 56a4c9d8444f45d9a7fe1e3355a523a5 -->
<g id="node26" class="node">
<title>56a4c9d8444f45d9a7fe1e3355a523a5</title>
<image xlink:href="icons/bigquery.png" width="101px" height="101px" preserveAspectRatio="xMinYMin meet" x="389" y="-3011"/>
<text text-anchor="middle" x="439.5" y="-2895.6" font-family="Sans-Serif" font-size="13.00" fill="#2d3436">[?config?].t_datastudio_depenses_traitement</text>
</g>
<!-- 56a4c9d8444f45d9a7fe1e3355a523a5&#45;&gt;46f1e57384874261b4a3e2cdc452ab87 -->
<g id="edge22" class="edge">
<title>56a4c9d8444f45d9a7fe1e3355a523a5&#45;&gt;46f1e57384874261b4a3e2cdc452ab87</title>
<path fill="none" stroke="#7b8894" d="M490.22,-3013.33C490.22,-3013.33 677.53,-3013.33 677.53,-3013.33"/>
<polygon fill="#7b8894" stroke="#7b8894" points="677.53,-3016.83 687.53,-3013.33 677.53,-3009.83 677.53,-3016.83"/>
<text text-anchor="middle" x="589" y="-2964.1" font-family="Sans-Serif" font-size="13.00" fill="#2d3436">t_contrats_offres_energie</text>
</g>
<!-- 7ded61ab148247fc84e5f6c16d68689e -->
<g id="node27" class="node">
<title>7ded61ab148247fc84e5f6c16d68689e</title>
<image xlink:href="icons/bigquery.png" width="101px" height="101px" preserveAspectRatio="xMinYMin meet" x="389" y="-2831"/>
<text text-anchor="middle" x="439.5" y="-2715.6" font-family="Sans-Serif" font-size="13.00" fill="#2d3436">[?config?].l_datastudio_contrats_offres_energie_avant_2021</text>
</g>
<!-- 7ded61ab148247fc84e5f6c16d68689e&#45;&gt;46f1e57384874261b4a3e2cdc452ab87 -->
<g id="edge23" class="edge">
<title>7ded61ab148247fc84e5f6c16d68689e&#45;&gt;46f1e57384874261b4a3e2cdc452ab87</title>
<path fill="none" stroke="#7b8894" d="M490.34,-2825.5C544.34,-2825.5 622,-2825.5 622,-2825.5 622,-2825.5 622,-2997.67 622,-2997.67 622,-2997.67 677.74,-2997.67 677.74,-2997.67"/>
<polygon fill="#7b8894" stroke="#7b8894" points="677.74,-3001.17 687.74,-2997.67 677.74,-2994.17 677.74,-3001.17"/>
<text text-anchor="middle" x="589" y="-2784.1" font-family="Sans-Serif" font-size="13.00" fill="#2d3436">t_contrats_offres_energie</text>
</g>
<!-- 43703df4d518473fbb64983a8e0cacbb -->
<g id="node29" class="node">
<title>43703df4d518473fbb64983a8e0cacbb</title>
<image xlink:href="icons/bigquery.png" width="101px" height="101px" preserveAspectRatio="xMinYMin meet" x="688" y="-2921"/>
<text text-anchor="middle" x="738.5" y="-2805.6" font-family="Sans-Serif" font-size="13.00" fill="#2d3436">[?config?].l_ama_to_ds_comper_contrats_services</text>
</g>
<!-- 43703df4d518473fbb64983a8e0cacbb&#45;&gt;9c7a1f343f9644379f545b46bba6cc2a -->
<g id="edge25" class="edge">
<title>43703df4d518473fbb64983a8e0cacbb&#45;&gt;9c7a1f343f9644379f545b46bba6cc2a</title>
<path fill="none" stroke="#7b8894" d="M789.1,-2870.5C887.92,-2870.5 1097,-2870.5 1097,-2870.5 1097,-2870.5 1097,-2229.21 1097,-2229.21"/>
<polygon fill="#7b8894" stroke="#7b8894" points="1100.5,-2229.21 1097,-2219.21 1093.5,-2229.21 1100.5,-2229.21"/>
<text text-anchor="middle" x="909" y="-2874.1" font-family="Sans-Serif" font-size="13.00" fill="#2d3436">l_to_ds_comper_ventes_digitales</text>
</g>
<!-- e0ba5b01a15a4c18a102ee6cce1bcc36 -->
<g id="node30" class="node">
<title>e0ba5b01a15a4c18a102ee6cce1bcc36</title>
<image xlink:href="icons/bigquery.png" width="101px" height="101px" preserveAspectRatio="xMinYMin meet" x="688" y="-2741"/>
<text text-anchor="middle" x="738.5" y="-2625.6" font-family="Sans-Serif" font-size="13.00" fill="#2d3436">[?config?].l_ama_to_ds_comper_options_vertes</text>
</g>
<!-- e0ba5b01a15a4c18a102ee6cce1bcc36&#45;&gt;9c7a1f343f9644379f545b46bba6cc2a -->
<g id="edge26" class="edge">
<title>e0ba5b01a15a4c18a102ee6cce1bcc36&#45;&gt;9c7a1f343f9644379f545b46bba6cc2a</title>
<path fill="none" stroke="#7b8894" d="M789.26,-2690.5C884.39,-2690.5 1080,-2690.5 1080,-2690.5 1080,-2690.5 1080,-2229.17 1080,-2229.17"/>
<polygon fill="#7b8894" stroke="#7b8894" points="1083.5,-2229.17 1080,-2219.17 1076.5,-2229.17 1083.5,-2229.17"/>
<text text-anchor="middle" x="909" y="-2694.1" font-family="Sans-Serif" font-size="13.00" fill="#2d3436">l_to_ds_comper_ventes_digitales</text>
</g>
<!-- fbcbcc32ec714c72b3f071f19d597d44 -->
<g id="node31" class="node">
<title>fbcbcc32ec714c72b3f071f19d597d44</title>
<image xlink:href="icons/bigquery.png" width="101px" height="101px" preserveAspectRatio="xMinYMin meet" x="688" y="-2561"/>
<text text-anchor="middle" x="738.5" y="-2445.6" font-family="Sans-Serif" font-size="13.00" fill="#2d3436">[?config?].l_ama_to_ds_comper_t_ama_parrainage</text>
</g>
<!-- fbcbcc32ec714c72b3f071f19d597d44&#45;&gt;9c7a1f343f9644379f545b46bba6cc2a -->
<g id="edge27" class="edge">
<title>fbcbcc32ec714c72b3f071f19d597d44&#45;&gt;9c7a1f343f9644379f545b46bba6cc2a</title>
<path fill="none" stroke="#7b8894" d="M789.2,-2510.5C880.47,-2510.5 1063,-2510.5 1063,-2510.5 1063,-2510.5 1063,-2229.06 1063,-2229.06"/>
<polygon fill="#7b8894" stroke="#7b8894" points="1066.5,-2229.06 1063,-2219.06 1059.5,-2229.06 1066.5,-2229.06"/>
<text text-anchor="middle" x="909" y="-2514.1" font-family="Sans-Serif" font-size="13.00" fill="#2d3436">l_to_ds_comper_ventes_digitales</text>
</g>
<!-- 95dfb79c15fe499fae41091428e0f024 -->
<g id="node32" class="node">
<title>95dfb79c15fe499fae41091428e0f024</title>
<image xlink:href="icons/bigquery.png" width="101px" height="101px" preserveAspectRatio="xMinYMin meet" x="688" y="-2381"/>
<text text-anchor="middle" x="738.5" y="-2265.6" font-family="Sans-Serif" font-size="13.00" fill="#2d3436">[?config?].l_ga_to_ds_comper_e_gsheet_cee_souscriptions</text>
</g>
<!-- 95dfb79c15fe499fae41091428e0f024&#45;&gt;9c7a1f343f9644379f545b46bba6cc2a -->
<g id="edge28" class="edge">
<title>95dfb79c15fe499fae41091428e0f024&#45;&gt;9c7a1f343f9644379f545b46bba6cc2a</title>
<path fill="none" stroke="#7b8894" d="M789.28,-2330.5C876.62,-2330.5 1046,-2330.5 1046,-2330.5 1046,-2330.5 1046,-2229.06 1046,-2229.06"/>
<polygon fill="#7b8894" stroke="#7b8894" points="1049.5,-2229.06 1046,-2219.06 1042.5,-2229.06 1049.5,-2229.06"/>
<text text-anchor="middle" x="909" y="-2334.1" font-family="Sans-Serif" font-size="13.00" fill="#2d3436">l_to_ds_comper_ventes_digitales</text>
</g>
<!-- 575bdf98c5e34347bb78738d8efd09e2 -->
<g id="node33" class="node">
<title>575bdf98c5e34347bb78738d8efd09e2</title>
<image xlink:href="icons/bigquery.png" width="101px" height="101px" preserveAspectRatio="xMinYMin meet" x="688" y="-2201"/>
<text text-anchor="middle" x="738.5" y="-2085.6" font-family="Sans-Serif" font-size="13.00" fill="#2d3436">[?config?].l_ama_to_ds_comper_bout_en_bout_equipements</text>
</g>
<!-- 575bdf98c5e34347bb78738d8efd09e2&#45;&gt;9c7a1f343f9644379f545b46bba6cc2a -->
<g id="edge29" class="edge">
<title>575bdf98c5e34347bb78738d8efd09e2&#45;&gt;9c7a1f343f9644379f545b46bba6cc2a</title>
<path fill="none" stroke="#7b8894" d="M789.18,-2150.5C789.18,-2150.5 1018.82,-2150.5 1018.82,-2150.5"/>
<polygon fill="#7b8894" stroke="#7b8894" points="1018.82,-2154 1028.82,-2150.5 1018.82,-2147 1018.82,-2154"/>
<text text-anchor="middle" x="909" y="-2154.1" font-family="Sans-Serif" font-size="13.00" fill="#2d3436">l_to_ds_comper_ventes_digitales</text>
</g>
<!-- cb8ab50d63864f61a7df89e9b396cfc6 -->
<g id="node34" class="node">
<title>cb8ab50d63864f61a7df89e9b396cfc6</title>
<image xlink:href="icons/bigquery.png" width="101px" height="101px" preserveAspectRatio="xMinYMin meet" x="688" y="-2021"/>
<text text-anchor="middle" x="738.5" y="-1905.6" font-family="Sans-Serif" font-size="13.00" fill="#2d3436">[?config?].e_ds_comper_objectifs_hors_energie</text>
</g>
<!-- cb8ab50d63864f61a7df89e9b396cfc6&#45;&gt;9c7a1f343f9644379f545b46bba6cc2a -->
<g id="edge30" class="edge">
<title>cb8ab50d63864f61a7df89e9b396cfc6&#45;&gt;9c7a1f343f9644379f545b46bba6cc2a</title>
<path fill="none" stroke="#7b8894" d="M789.28,-1970.5C876.62,-1970.5 1046,-1970.5 1046,-1970.5 1046,-1970.5 1046,-2071.94 1046,-2071.94"/>
<polygon fill="#7b8894" stroke="#7b8894" points="1042.5,-2071.94 1046,-2081.94 1049.5,-2071.94 1042.5,-2071.94"/>
<text text-anchor="middle" x="909" y="-1974.1" font-family="Sans-Serif" font-size="13.00" fill="#2d3436">l_to_ds_comper_ventes_digitales</text>
</g>
<!-- 04997d573ef64a7fb21d999cc6702897 -->
<g id="node35" class="node">
<title>04997d573ef64a7fb21d999cc6702897</title>
<image xlink:href="icons/bigquery.png" width="101px" height="101px" preserveAspectRatio="xMinYMin meet" x="688" y="-1841"/>
<text text-anchor="middle" x="738.5" y="-1725.6" font-family="Sans-Serif" font-size="13.00" fill="#2d3436">[?config?].l_mypower_to_ds_comper_mypower</text>
</g>
<!-- 04997d573ef64a7fb21d999cc6702897&#45;&gt;9c7a1f343f9644379f545b46bba6cc2a -->
<g id="edge31" class="edge">
<title>04997d573ef64a7fb21d999cc6702897&#45;&gt;9c7a1f343f9644379f545b46bba6cc2a</title>
<path fill="none" stroke="#7b8894" d="M789.2,-1790.5C880.47,-1790.5 1063,-1790.5 1063,-1790.5 1063,-1790.5 1063,-2071.94 1063,-2071.94"/>
<polygon fill="#7b8894" stroke="#7b8894" points="1059.5,-2071.94 1063,-2081.94 1066.5,-2071.94 1059.5,-2071.94"/>
<text text-anchor="middle" x="909" y="-1794.1" font-family="Sans-Serif" font-size="13.00" fill="#2d3436">l_to_ds_comper_ventes_digitales</text>
</g>
<!-- 412cd0d784e341f2a7a65a3dd7e252af -->
<g id="node36" class="node">
<title>412cd0d784e341f2a7a65a3dd7e252af</title>
<image xlink:href="icons/bigquery.png" width="101px" height="101px" preserveAspectRatio="xMinYMin meet" x="688" y="-1661"/>
<text text-anchor="middle" x="738.5" y="-1545.6" font-family="Sans-Serif" font-size="13.00" fill="#2d3436">[?config?].l_ama_to_ds_comper_prelevement_mensualisation</text>
</g>
<!-- 412cd0d784e341f2a7a65a3dd7e252af&#45;&gt;9c7a1f343f9644379f545b46bba6cc2a -->
<g id="edge32" class="edge">
<title>412cd0d784e341f2a7a65a3dd7e252af&#45;&gt;9c7a1f343f9644379f545b46bba6cc2a</title>
<path fill="none" stroke="#7b8894" d="M789.26,-1610.5C884.39,-1610.5 1080,-1610.5 1080,-1610.5 1080,-1610.5 1080,-2071.83 1080,-2071.83"/>
<polygon fill="#7b8894" stroke="#7b8894" points="1076.5,-2071.83 1080,-2081.83 1083.5,-2071.83 1076.5,-2071.83"/>
<text text-anchor="middle" x="909" y="-1614.1" font-family="Sans-Serif" font-size="13.00" fill="#2d3436">l_to_ds_comper_ventes_digitales</text>
</g>
<!-- 805fc848036b44e28d6bbf4f963fb332 -->
<g id="node37" class="node">
<title>805fc848036b44e28d6bbf4f963fb332</title>
<image xlink:href="icons/bigquery.png" width="101px" height="101px" preserveAspectRatio="xMinYMin meet" x="688" y="-1481"/>
<text text-anchor="middle" x="738.5" y="-1365.6" font-family="Sans-Serif" font-size="13.00" fill="#2d3436">[?config?].l_ama_to_ds_comper_activation_energie</text>
</g>
<!-- 805fc848036b44e28d6bbf4f963fb332&#45;&gt;9c7a1f343f9644379f545b46bba6cc2a -->
<g id="edge33" class="edge">
<title>805fc848036b44e28d6bbf4f963fb332&#45;&gt;9c7a1f343f9644379f545b46bba6cc2a</title>
<path fill="none" stroke="#7b8894" d="M789.1,-1430.5C887.92,-1430.5 1097,-1430.5 1097,-1430.5 1097,-1430.5 1097,-2071.79 1097,-2071.79"/>
<polygon fill="#7b8894" stroke="#7b8894" points="1093.5,-2071.79 1097,-2081.79 1100.5,-2071.79 1093.5,-2071.79"/>
<text text-anchor="middle" x="909" y="-1434.1" font-family="Sans-Serif" font-size="13.00" fill="#2d3436">l_to_ds_comper_ventes_digitales</text>
</g>
<!-- ce01099e826c4c8ba5c20cdb306b1d0f -->
<g id="node38" class="node">
<title>ce01099e826c4c8ba5c20cdb306b1d0f</title>
<image xlink:href="icons/bigquery.png" width="101px" height="101px" preserveAspectRatio="xMinYMin meet" x="688" y="-1301"/>
<text text-anchor="middle" x="738.5" y="-1185.6" font-family="Sans-Serif" font-size="13.00" fill="#2d3436">[?config?].l_ga_to_ds_comper_sessions</text>
</g>
<!-- ce01099e826c4c8ba5c20cdb306b1d0f&#45;&gt;9c7a1f343f9644379f545b46bba6cc2a -->
<g id="edge34" class="edge">
<title>ce01099e826c4c8ba5c20cdb306b1d0f&#45;&gt;9c7a1f343f9644379f545b46bba6cc2a</title>
<path fill="none" stroke="#7b8894" d="M789.14,-1250.5C891.64,-1250.5 1114,-1250.5 1114,-1250.5 1114,-1250.5 1114,-2071.74 1114,-2071.74"/>
<polygon fill="#7b8894" stroke="#7b8894" points="1110.5,-2071.74 1114,-2081.74 1117.5,-2071.74 1110.5,-2071.74"/>
<text text-anchor="middle" x="909" y="-1254.1" font-family="Sans-Serif" font-size="13.00" fill="#2d3436">l_to_ds_comper_ventes_digitales</text>
</g>
</g>
</svg>
