<?xml version="1.0" encoding="UTF-8" standalone="no"?>
<!DOCTYPE svg PUBLIC "-//W3C//DTD SVG 1.1//EN"
 "http://www.w3.org/Graphics/SVG/1.1/DTD/svg11.dtd">
<!-- Generated by graphviz version 2.47.1 (20210417.1919)
 -->
<!-- Title: comper Pages: 1 -->
<svg width="2895pt" height="2304pt"
 viewBox="0.00 0.00 2895.00 2304.00" xmlns="http://www.w3.org/2000/svg" xmlns:xlink="http://www.w3.org/1999/xlink">
<g id="graph0" class="graph" transform="scale(1 1) rotate(0) translate(144 2160)">
<title>comper</title>
<text text-anchor="middle" x="1303.5" y="-9" font-family="Sans-Serif" font-size="15.00" fill="#2d3436">comper</text>
<g id="clust1" class="cluster">
<title>cluster_comper</title>
<path fill="#e5f5fd" stroke="#aeb6be" d="M20,-33C20,-33 2587,-33 2587,-33 2593,-33 2599,-39 2599,-45 2599,-45 2599,-1996 2599,-1996 2599,-2002 2593,-2008 2587,-2008 2587,-2008 20,-2008 20,-2008 14,-2008 8,-2002 8,-1996 8,-1996 8,-45 8,-45 8,-39 14,-33 20,-33"/>
<text text-anchor="middle" x="36" y="-1994.4" font-family="Sans-Serif" font-size="12.00" fill="#2d3436">comper</text>
</g>
<!-- 052946de685143fc84b2f8c6327a6ec5 -->
<g id="node1" class="node">
<title>052946de685143fc84b2f8c6327a6ec5</title>
<image xlink:href="icons/storage.png" width="101px" height="101px" preserveAspectRatio="xMinYMin meet" x="16" y="-1600.5"/>
<text text-anchor="middle" x="66.5" y="-1485.1" font-family="Sans-Serif" font-size="13.00" fill="#2d3436">amadeus_bi.contrats/ama_contrats_digitaux_stor_*</text>
</g>
<!-- 2ef70123d4a94ab0b5e977ea09924873 -->
<g id="node2" class="node">
<title>2ef70123d4a94ab0b5e977ea09924873</title>
<image xlink:href="icons/bigquery.png" width="101px" height="101px" preserveAspectRatio="xMinYMin meet" x="295" y="-1600.5"/>
<text text-anchor="middle" x="345.5" y="-1485.1" font-family="Sans-Serif" font-size="13.00" fill="#2d3436">comper.e_v_digi_import_cube_valeur</text>
</g>
<!-- 052946de685143fc84b2f8c6327a6ec5&#45;&gt;2ef70123d4a94ab0b5e977ea09924873 -->
<g id="edge1" class="edge">
<title>052946de685143fc84b2f8c6327a6ec5&#45;&gt;2ef70123d4a94ab0b5e977ea09924873</title>
<path fill="none" stroke="#7b8894" d="M117.02,-1550C117.02,-1550 284.88,-1550 284.88,-1550"/>
<polygon fill="#7b8894" stroke="#7b8894" points="284.88,-1553.5 294.88,-1550 284.88,-1546.5 284.88,-1553.5"/>
<text text-anchor="middle" x="206" y="-1553.6" font-family="Sans-Serif" font-size="13.00" fill="darkgrey">e_import_cube_valeur</text>
</g>
<!-- 9dfedd07fc19418397c1bc15664051e9 -->
<g id="node9" class="node">
<title>9dfedd07fc19418397c1bc15664051e9</title>
<image xlink:href="icons/bigquery.png" width="101px" height="101px" preserveAspectRatio="xMinYMin meet" x="640" y="-1735.5"/>
<text text-anchor="middle" x="690.5" y="-1620.1" font-family="Sans-Serif" font-size="13.00" fill="#2d3436">comper.t_v_digi_cube_valeur</text>
</g>
<!-- 2ef70123d4a94ab0b5e977ea09924873&#45;&gt;9dfedd07fc19418397c1bc15664051e9 -->
<g id="edge7" class="edge">
<title>2ef70123d4a94ab0b5e977ea09924873&#45;&gt;9dfedd07fc19418397c1bc15664051e9</title>
<path fill="none" stroke="#7b8894" d="M346,-1618.67C346,-1630.99 346,-1640 346,-1640 346,-1640 629.67,-1640 629.67,-1640"/>
<polygon fill="#7b8894" stroke="#7b8894" points="629.67,-1643.5 639.67,-1640 629.67,-1636.5 629.67,-1643.5"/>
<text text-anchor="middle" x="518" y="-1598.6" font-family="Sans-Serif" font-size="13.00" fill="darkgrey">t_cube_valeur</text>
</g>
<!-- f924479b397f4bf7ab1d5ecbd00283c5 -->
<g id="node3" class="node">
<title>f924479b397f4bf7ab1d5ecbd00283c5</title>
<image xlink:href="icons/bigquery.png" width="101px" height="101px" preserveAspectRatio="xMinYMin meet" x="16" y="-1100.5"/>
<text text-anchor="middle" x="66.5" y="-985.1" font-family="Sans-Serif" font-size="13.00" fill="#2d3436">amadeus.t_ama_contrats_appels_leviers</text>
</g>
<!-- 70c771a79f6b4312955f0c215536c229 -->
<g id="node4" class="node">
<title>70c771a79f6b4312955f0c215536c229</title>
<image xlink:href="icons/bigquery.png" width="101px" height="101px" preserveAspectRatio="xMinYMin meet" x="295" y="-1190.5"/>
<text text-anchor="middle" x="345.5" y="-1075.1" font-family="Sans-Serif" font-size="13.00" fill="#2d3436">amadeus.t_ama_ventes_digitales</text>
</g>
<!-- f924479b397f4bf7ab1d5ecbd00283c5&#45;&gt;70c771a79f6b4312955f0c215536c229 -->
<g id="edge2" class="edge">
<title>f924479b397f4bf7ab1d5ecbd00283c5&#45;&gt;70c771a79f6b4312955f0c215536c229</title>
<path fill="none" stroke="#7b8894" d="M117.02,-1095C117.02,-1095 284.88,-1095 284.88,-1095"/>
<polygon fill="#7b8894" stroke="#7b8894" points="284.88,-1098.5 294.88,-1095 284.88,-1091.5 284.88,-1098.5"/>
<text text-anchor="middle" x="206" y="-1083.6" font-family="Sans-Serif" font-size="13.00" fill="darkgrey">t_ventes_digitales</text>
</g>
<!-- 061e9d945978407c82f336787c980dcd -->
<g id="node7" class="node">
<title>061e9d945978407c82f336787c980dcd</title>
<image xlink:href="icons/bigquery.png" width="101px" height="101px" preserveAspectRatio="xMinYMin meet" x="640" y="-1190.5"/>
<text text-anchor="middle" x="690.5" y="-1075.1" font-family="Sans-Serif" font-size="13.00" fill="#2d3436">comper.t_ama_realise</text>
</g>
<!-- 70c771a79f6b4312955f0c215536c229&#45;&gt;061e9d945978407c82f336787c980dcd -->
<g id="edge6" class="edge">
<title>70c771a79f6b4312955f0c215536c229&#45;&gt;061e9d945978407c82f336787c980dcd</title>
<path fill="none" stroke="#7b8894" d="M396.04,-1140C396.04,-1140 629.83,-1140 629.83,-1140"/>
<polygon fill="#7b8894" stroke="#7b8894" points="629.83,-1143.5 639.83,-1140 629.83,-1136.5 629.83,-1143.5"/>
<text text-anchor="middle" x="518" y="-1143.6" font-family="Sans-Serif" font-size="13.00" fill="darkgrey">t_realise</text>
</g>
<!-- 5e708e31c76049749581b8d0abc2302d -->
<g id="node5" class="node">
<title>5e708e31c76049749581b8d0abc2302d</title>
<image xlink:href="icons/bigquery.png" width="101px" height="101px" preserveAspectRatio="xMinYMin meet" x="16" y="-1280.5"/>
<text text-anchor="middle" x="66.5" y="-1165.1" font-family="Sans-Serif" font-size="13.00" fill="#2d3436">amadeus.t_ama_contrats_formulaires</text>
</g>
<!-- 5e708e31c76049749581b8d0abc2302d&#45;&gt;70c771a79f6b4312955f0c215536c229 -->
<g id="edge3" class="edge">
<title>5e708e31c76049749581b8d0abc2302d&#45;&gt;70c771a79f6b4312955f0c215536c229</title>
<path fill="none" stroke="#7b8894" d="M117.02,-1185C117.02,-1185 284.88,-1185 284.88,-1185"/>
<polygon fill="#7b8894" stroke="#7b8894" points="284.88,-1188.5 294.88,-1185 284.88,-1181.5 284.88,-1188.5"/>
<text text-anchor="middle" x="206" y="-1204.6" font-family="Sans-Serif" font-size="13.00" fill="darkgrey">t_ventes_digitales</text>
</g>
<!-- a3d7cda85df24725b79908ddec5e8598 -->
<g id="node6" class="node">
<title>a3d7cda85df24725b79908ddec5e8598</title>
<image xlink:href="icons/bigquery.png" width="101px" height="101px" preserveAspectRatio="xMinYMin meet" x="295" y="-1010.5"/>
<text text-anchor="middle" x="345.5" y="-895.1" font-family="Sans-Serif" font-size="13.00" fill="#2d3436">amadeus.t_ama_leads_appels</text>
</g>
<!-- a3d7cda85df24725b79908ddec5e8598&#45;&gt;061e9d945978407c82f336787c980dcd -->
<g id="edge4" class="edge">
<title>a3d7cda85df24725b79908ddec5e8598&#45;&gt;061e9d945978407c82f336787c980dcd</title>
<path fill="none" stroke="#7b8894" d="M396.11,-1024.5C488.26,-1024.5 674,-1024.5 674,-1024.5 674,-1024.5 674,-1061.48 674,-1061.48"/>
<polygon fill="#7b8894" stroke="#7b8894" points="670.5,-1061.48 674,-1071.48 677.5,-1061.48 670.5,-1061.48"/>
<text text-anchor="middle" x="518" y="-1022.6" font-family="Sans-Serif" font-size="13.00" fill="darkgrey">t_realise</text>
</g>
<!-- 09a5f5ba35fb473b98330b38b930a8f8 -->
<g id="node10" class="node">
<title>09a5f5ba35fb473b98330b38b930a8f8</title>
<image xlink:href="icons/bigquery.png" width="101px" height="101px" preserveAspectRatio="xMinYMin meet" x="1066.5" y="-959.5"/>
<text text-anchor="middle" x="1117" y="-844.1" font-family="Sans-Serif" font-size="13.00" fill="#2d3436">comper.t_datastudio_point_de_sortie</text>
</g>
<!-- 061e9d945978407c82f336787c980dcd&#45;&gt;09a5f5ba35fb473b98330b38b930a8f8 -->
<g id="edge8" class="edge">
<title>061e9d945978407c82f336787c980dcd&#45;&gt;09a5f5ba35fb473b98330b38b930a8f8</title>
<path fill="none" stroke="#7b8894" d="M708,-1071.15C708,-1035.36 708,-999 708,-999 708,-999 1117,-999 1117,-999 1117,-999 1117,-987.67 1117,-987.67"/>
<polygon fill="#7b8894" stroke="#7b8894" points="1120.5,-987.67 1117,-977.67 1113.5,-987.67 1120.5,-987.67"/>
<text text-anchor="middle" x="870.5" y="-1059.6" font-family="Sans-Serif" font-size="13.00" fill="darkgrey">t_point_de_sortie</text>
</g>
<!-- 3abd51c942ee46fd9a342be5e81b2d3c -->
<g id="node13" class="node">
<title>3abd51c942ee46fd9a342be5e81b2d3c</title>
<image xlink:href="icons/bigquery.png" width="101px" height="101px" preserveAspectRatio="xMinYMin meet" x="1522" y="-1679.5"/>
<text text-anchor="middle" x="1572.5" y="-1564.1" font-family="Sans-Serif" font-size="13.00" fill="#2d3436">comper.l_datastudio_contrats_offres_energie_hors_depenses</text>
</g>
<!-- 061e9d945978407c82f336787c980dcd&#45;&gt;3abd51c942ee46fd9a342be5e81b2d3c -->
<g id="edge11" class="edge">
<title>061e9d945978407c82f336787c980dcd&#45;&gt;3abd51c942ee46fd9a342be5e81b2d3c</title>
<path fill="none" stroke="#7b8894" d="M741.2,-1179C889.15,-1179 1310,-1179 1310,-1179 1310,-1179 1310,-1629 1310,-1629 1310,-1629 1511.89,-1629 1511.89,-1629"/>
<polygon fill="#7b8894" stroke="#7b8894" points="1511.89,-1632.5 1521.89,-1629 1511.89,-1625.5 1511.89,-1632.5"/>
<text text-anchor="middle" x="1117" y="-1787.6" font-family="Sans-Serif" font-size="13.00" fill="darkgrey">t_contrats_offres_energie_hors_depenses</text>
</g>
<!-- 7ca98dfcb4b94d89b40bdf0e36530163 -->
<g id="node8" class="node">
<title>7ca98dfcb4b94d89b40bdf0e36530163</title>
<image xlink:href="icons/bigquery.png" width="101px" height="101px" preserveAspectRatio="xMinYMin meet" x="295" y="-1370.5"/>
<text text-anchor="middle" x="345.5" y="-1255.1" font-family="Sans-Serif" font-size="13.00" fill="#2d3436">amadeus.t_ama_leads_formulaires</text>
</g>
<!-- 7ca98dfcb4b94d89b40bdf0e36530163&#45;&gt;061e9d945978407c82f336787c980dcd -->
<g id="edge5" class="edge">
<title>7ca98dfcb4b94d89b40bdf0e36530163&#45;&gt;061e9d945978407c82f336787c980dcd</title>
<path fill="none" stroke="#7b8894" d="M396.11,-1294.5C492.07,-1294.5 691,-1294.5 691,-1294.5 691,-1294.5 691,-1218.67 691,-1218.67"/>
<polygon fill="#7b8894" stroke="#7b8894" points="694.5,-1218.67 691,-1208.67 687.5,-1218.67 694.5,-1218.67"/>
<text text-anchor="middle" x="518" y="-1264.6" font-family="Sans-Serif" font-size="13.00" fill="darkgrey">t_realise</text>
</g>
<!-- 358e8410623c47c4b265c21d04aa08a6 -->
<g id="node37" class="node">
<title>358e8410623c47c4b265c21d04aa08a6</title>
<image xlink:href="icons/bigquery.png" width="101px" height="101px" preserveAspectRatio="xMinYMin meet" x="1066.5" y="-1960.5"/>
<text text-anchor="middle" x="1117" y="-1845.1" font-family="Sans-Serif" font-size="13.00" fill="#2d3436">comper.t_datastudio_contrats_offres_energie_date_lead</text>
</g>
<!-- 9dfedd07fc19418397c1bc15664051e9&#45;&gt;358e8410623c47c4b265c21d04aa08a6 -->
<g id="edge38" class="edge">
<title>9dfedd07fc19418397c1bc15664051e9&#45;&gt;358e8410623c47c4b265c21d04aa08a6</title>
<path fill="none" stroke="#7b8894" d="M741.1,-1716.17C854.08,-1716.17 1117,-1716.17 1117,-1716.17 1117,-1716.17 1117,-1831.39 1117,-1831.39"/>
<polygon fill="#7b8894" stroke="#7b8894" points="1113.5,-1831.39 1117,-1841.39 1120.5,-1831.39 1113.5,-1831.39"/>
<text text-anchor="middle" x="870.5" y="-1844.6" font-family="Sans-Serif" font-size="13.00" fill="darkgrey">t_contrats_offres_energie_date_lead</text>
</g>
<!-- 09a5f5ba35fb473b98330b38b930a8f8&#45;&gt;3abd51c942ee46fd9a342be5e81b2d3c -->
<g id="edge14" class="edge">
<title>09a5f5ba35fb473b98330b38b930a8f8&#45;&gt;3abd51c942ee46fd9a342be5e81b2d3c</title>
<path fill="none" stroke="#7b8894" d="M1167.52,-959.5C1261.1,-959.5 1452,-959.5 1452,-959.5 1452,-959.5 1452,-1583.33 1452,-1583.33 1452,-1583.33 1511.75,-1583.33 1511.75,-1583.33"/>
<polygon fill="#7b8894" stroke="#7b8894" points="1511.75,-1586.83 1521.75,-1583.33 1511.75,-1579.83 1511.75,-1586.83"/>
<text text-anchor="middle" x="1378" y="-1074.6" font-family="Sans-Serif" font-size="13.00" fill="darkgrey">t_contrats_offres_energie_hors_depenses</text>
</g>
<!-- 77e8a7073c904ee28238b68ec1280f4e -->
<g id="node11" class="node">
<title>77e8a7073c904ee28238b68ec1280f4e</title>
<image xlink:href="icons/bigquery.png" width="101px" height="101px" preserveAspectRatio="xMinYMin meet" x="640" y="-959.5"/>
<text text-anchor="middle" x="690.5" y="-844.1" font-family="Sans-Serif" font-size="13.00" fill="#2d3436">comper.e_ds_comper_saisonnalite</text>
</g>
<!-- 77e8a7073c904ee28238b68ec1280f4e&#45;&gt;09a5f5ba35fb473b98330b38b930a8f8 -->
<g id="edge9" class="edge">
<title>77e8a7073c904ee28238b68ec1280f4e&#45;&gt;09a5f5ba35fb473b98330b38b930a8f8</title>
<path fill="none" stroke="#7b8894" d="M741.1,-909C741.1,-909 1056.47,-909 1056.47,-909"/>
<polygon fill="#7b8894" stroke="#7b8894" points="1056.47,-912.5 1066.47,-909 1056.47,-905.5 1056.47,-912.5"/>
<text text-anchor="middle" x="870.5" y="-912.6" font-family="Sans-Serif" font-size="13.00" fill="darkgrey">t_point_de_sortie</text>
</g>
<!-- 0c1bc04020174d9c97e90b59dfca8fad -->
<g id="node12" class="node">
<title>0c1bc04020174d9c97e90b59dfca8fad</title>
<image xlink:href="icons/bigquery.png" width="101px" height="101px" preserveAspectRatio="xMinYMin meet" x="1066.5" y="-1679.5"/>
<text text-anchor="middle" x="1117" y="-1564.1" font-family="Sans-Serif" font-size="13.00" fill="#2d3436">comper.e_datastudio_contrats_offres_energie_2018</text>
</g>
<!-- 0c1bc04020174d9c97e90b59dfca8fad&#45;&gt;3abd51c942ee46fd9a342be5e81b2d3c -->
<g id="edge10" class="edge">
<title>0c1bc04020174d9c97e90b59dfca8fad&#45;&gt;3abd51c942ee46fd9a342be5e81b2d3c</title>
<path fill="none" stroke="#7b8894" d="M1167.93,-1674.67C1167.93,-1674.67 1511.9,-1674.67 1511.9,-1674.67"/>
<polygon fill="#7b8894" stroke="#7b8894" points="1511.9,-1678.17 1521.9,-1674.67 1511.9,-1671.17 1511.9,-1678.17"/>
<text text-anchor="middle" x="1378" y="-1632.6" font-family="Sans-Serif" font-size="13.00" fill="darkgrey">t_contrats_offres_energie_hors_depenses</text>
</g>
<!-- e8d50e00b28e4e5889d6b082f72254b1 -->
<g id="node17" class="node">
<title>e8d50e00b28e4e5889d6b082f72254b1</title>
<image xlink:href="icons/bigquery.png" width="101px" height="101px" preserveAspectRatio="xMinYMin meet" x="1828.5" y="-1679.5"/>
<text text-anchor="middle" x="1879" y="-1564.1" font-family="Sans-Serif" font-size="13.00" fill="#2d3436">comper.t_datastudio_depenses_acquisition</text>
</g>
<!-- 3abd51c942ee46fd9a342be5e81b2d3c&#45;&gt;e8d50e00b28e4e5889d6b082f72254b1 -->
<g id="edge16" class="edge">
<title>3abd51c942ee46fd9a342be5e81b2d3c&#45;&gt;e8d50e00b28e4e5889d6b082f72254b1</title>
<path fill="none" stroke="#7b8894" d="M1623.11,-1629C1623.11,-1629 1818.31,-1629 1818.31,-1629"/>
<polygon fill="#7b8894" stroke="#7b8894" points="1818.31,-1632.5 1828.31,-1629 1818.31,-1625.5 1818.31,-1632.5"/>
<text text-anchor="middle" x="1715" y="-1632.6" font-family="Sans-Serif" font-size="13.00" fill="darkgrey">t_depenses_acquisition</text>
</g>
<!-- 740d17b3df2647479f47c1de95bdfc4a -->
<g id="node19" class="node">
<title>740d17b3df2647479f47c1de95bdfc4a</title>
<image xlink:href="icons/bigquery.png" width="101px" height="101px" preserveAspectRatio="xMinYMin meet" x="1828.5" y="-1960.5"/>
<text text-anchor="middle" x="1879" y="-1845.1" font-family="Sans-Serif" font-size="13.00" fill="#2d3436">comper.t_datastudio_depenses_traitement</text>
</g>
<!-- 3abd51c942ee46fd9a342be5e81b2d3c&#45;&gt;740d17b3df2647479f47c1de95bdfc4a -->
<g id="edge18" class="edge">
<title>3abd51c942ee46fd9a342be5e81b2d3c&#45;&gt;740d17b3df2647479f47c1de95bdfc4a</title>
<path fill="none" stroke="#7b8894" d="M1590,-1697.52C1590,-1717.87 1590,-1734.83 1590,-1734.83 1590,-1734.83 1879,-1734.83 1879,-1734.83 1879,-1734.83 1879,-1831.27 1879,-1831.27"/>
<polygon fill="#7b8894" stroke="#7b8894" points="1875.5,-1831.27 1879,-1841.27 1882.5,-1831.27 1875.5,-1831.27"/>
<text text-anchor="middle" x="1715" y="-1844.6" font-family="Sans-Serif" font-size="13.00" fill="darkgrey">t_depenses_traitement</text>
</g>
<!-- 5e69c286df5947518b7f774d0934c571 -->
<g id="node21" class="node">
<title>5e69c286df5947518b7f774d0934c571</title>
<image xlink:href="icons/bigquery.png" width="101px" height="101px" preserveAspectRatio="xMinYMin meet" x="2149" y="-1960.5"/>
<text text-anchor="middle" x="2199.5" y="-1845.1" font-family="Sans-Serif" font-size="13.00" fill="#2d3436">comper.l_datastudio_contrats_offres_energie</text>
</g>
<!-- 3abd51c942ee46fd9a342be5e81b2d3c&#45;&gt;5e69c286df5947518b7f774d0934c571 -->
<g id="edge20" class="edge">
<title>3abd51c942ee46fd9a342be5e81b2d3c&#45;&gt;5e69c286df5947518b7f774d0934c571</title>
<path fill="none" stroke="#7b8894" d="M1556,-1697.69C1556,-1752.44 1556,-1820 1556,-1820 1556,-1820 2200,-1820 2200,-1820 2200,-1820 2200,-1831.33 2200,-1831.33"/>
<polygon fill="#7b8894" stroke="#7b8894" points="2196.5,-1831.33 2200,-1841.33 2203.5,-1831.33 2196.5,-1831.33"/>
<text text-anchor="middle" x="1879" y="-1787.6" font-family="Sans-Serif" font-size="13.00" fill="darkgrey">t_contrats_offres_energie</text>
</g>
<!-- 3a0c5769accf497b82b87c94425bef5a -->
<g id="node14" class="node">
<title>3a0c5769accf497b82b87c94425bef5a</title>
<image xlink:href="icons/bigquery.png" width="101px" height="101px" preserveAspectRatio="xMinYMin meet" x="1066.5" y="-1499.5"/>
<text text-anchor="middle" x="1117" y="-1384.1" font-family="Sans-Serif" font-size="13.00" fill="#2d3436">comper.e_ds_comper_objectifs_2018_seulement</text>
</g>
<!-- 3a0c5769accf497b82b87c94425bef5a&#45;&gt;3abd51c942ee46fd9a342be5e81b2d3c -->
<g id="edge12" class="edge">
<title>3a0c5769accf497b82b87c94425bef5a&#45;&gt;3abd51c942ee46fd9a342be5e81b2d3c</title>
<path fill="none" stroke="#7b8894" d="M1117,-1517.54C1117,-1533.62 1117,-1546.17 1117,-1546.17 1117,-1546.17 1556,-1546.17 1556,-1546.17 1556,-1546.17 1556,-1550.22 1556,-1550.22"/>
<polygon fill="#7b8894" stroke="#7b8894" points="1552.5,-1550.22 1556,-1560.22 1559.5,-1550.22 1552.5,-1550.22"/>
<text text-anchor="middle" x="1378" y="-1511.6" font-family="Sans-Serif" font-size="13.00" fill="darkgrey">t_contrats_offres_energie_hors_depenses</text>
</g>
<!-- b9d489193c364f19a0bbb90a92c1f133 -->
<g id="node15" class="node">
<title>b9d489193c364f19a0bbb90a92c1f133</title>
<image xlink:href="icons/bigquery.png" width="101px" height="101px" preserveAspectRatio="xMinYMin meet" x="1066.5" y="-1319.5"/>
<text text-anchor="middle" x="1117" y="-1204.1" font-family="Sans-Serif" font-size="13.00" fill="#2d3436">comper.e_ds_comper_objectifs_2019_seulement</text>
</g>
<!-- b9d489193c364f19a0bbb90a92c1f133&#45;&gt;3abd51c942ee46fd9a342be5e81b2d3c -->
<g id="edge13" class="edge">
<title>b9d489193c364f19a0bbb90a92c1f133&#45;&gt;3abd51c942ee46fd9a342be5e81b2d3c</title>
<path fill="none" stroke="#7b8894" d="M1167.68,-1319.5C1201.2,-1319.5 1239,-1319.5 1239,-1319.5 1239,-1319.5 1239,-1651.83 1239,-1651.83 1239,-1651.83 1511.85,-1651.83 1511.85,-1651.83"/>
<polygon fill="#7b8894" stroke="#7b8894" points="1511.85,-1655.33 1521.85,-1651.83 1511.85,-1648.33 1511.85,-1655.33"/>
<text text-anchor="middle" x="1378" y="-1360.6" font-family="Sans-Serif" font-size="13.00" fill="darkgrey">t_contrats_offres_energie_hors_depenses</text>
</g>
<!-- d3e88fe17f6d431d8329ca049cd29b94 -->
<g id="node16" class="node">
<title>d3e88fe17f6d431d8329ca049cd29b94</title>
<image xlink:href="icons/bigquery.png" width="101px" height="101px" preserveAspectRatio="xMinYMin meet" x="1066.5" y="-1139.5"/>
<text text-anchor="middle" x="1117" y="-1024.1" font-family="Sans-Serif" font-size="13.00" fill="#2d3436">comper.e_ds_comper_objectifs</text>
</g>
<!-- d3e88fe17f6d431d8329ca049cd29b94&#45;&gt;3abd51c942ee46fd9a342be5e81b2d3c -->
<g id="edge15" class="edge">
<title>d3e88fe17f6d431d8329ca049cd29b94&#45;&gt;3abd51c942ee46fd9a342be5e81b2d3c</title>
<path fill="none" stroke="#7b8894" d="M1167.59,-1139.5C1244.25,-1139.5 1381,-1139.5 1381,-1139.5 1381,-1139.5 1381,-1606.17 1381,-1606.17 1381,-1606.17 1511.94,-1606.17 1511.94,-1606.17"/>
<polygon fill="#7b8894" stroke="#7b8894" points="1511.94,-1609.67 1521.94,-1606.17 1511.94,-1602.67 1511.94,-1609.67"/>
<text text-anchor="middle" x="1378" y="-1195.6" font-family="Sans-Serif" font-size="13.00" fill="darkgrey">t_contrats_offres_energie_hors_depenses</text>
</g>
<!-- e8d50e00b28e4e5889d6b082f72254b1&#45;&gt;5e69c286df5947518b7f774d0934c571 -->
<g id="edge21" class="edge">
<title>e8d50e00b28e4e5889d6b082f72254b1&#45;&gt;5e69c286df5947518b7f774d0934c571</title>
<path fill="none" stroke="#7b8894" d="M1929.79,-1679.5C1964.04,-1679.5 2003,-1679.5 2003,-1679.5 2003,-1679.5 2003,-1910 2003,-1910 2003,-1910 2138.9,-1910 2138.9,-1910"/>
<polygon fill="#7b8894" stroke="#7b8894" points="2138.9,-1913.5 2148.9,-1910 2138.9,-1906.5 2138.9,-1913.5"/>
<text text-anchor="middle" x="2050" y="-1699.6" font-family="Sans-Serif" font-size="13.00" fill="darkgrey">t_contrats_offres_energie</text>
</g>
<!-- 6e8ea910ea864c3ba708a7fdc1fac35d -->
<g id="node18" class="node">
<title>6e8ea910ea864c3ba708a7fdc1fac35d</title>
<image xlink:href="icons/bigquery.png" width="101px" height="101px" preserveAspectRatio="xMinYMin meet" x="1522" y="-1499.5"/>
<text text-anchor="middle" x="1572.5" y="-1384.1" font-family="Sans-Serif" font-size="13.00" fill="#2d3436">depenses.e_gsheet_depenses_acquisition</text>
</g>
<!-- 6e8ea910ea864c3ba708a7fdc1fac35d&#45;&gt;e8d50e00b28e4e5889d6b082f72254b1 -->
<g id="edge17" class="edge">
<title>6e8ea910ea864c3ba708a7fdc1fac35d&#45;&gt;e8d50e00b28e4e5889d6b082f72254b1</title>
<path fill="none" stroke="#7b8894" d="M1590,-1517.78C1590,-1526.16 1590,-1531.83 1590,-1531.83 1590,-1531.83 1879,-1531.83 1879,-1531.83 1879,-1531.83 1879,-1550.46 1879,-1550.46"/>
<polygon fill="#7b8894" stroke="#7b8894" points="1875.5,-1550.46 1879,-1560.46 1882.5,-1550.46 1875.5,-1550.46"/>
<text text-anchor="middle" x="1715" y="-1511.6" font-family="Sans-Serif" font-size="13.00" fill="darkgrey">t_depenses_acquisition</text>
</g>
<!-- 740d17b3df2647479f47c1de95bdfc4a&#45;&gt;5e69c286df5947518b7f774d0934c571 -->
<g id="edge22" class="edge">
<title>740d17b3df2647479f47c1de95bdfc4a&#45;&gt;5e69c286df5947518b7f774d0934c571</title>
<path fill="none" stroke="#7b8894" d="M1929.78,-1944.25C1929.78,-1944.25 2138.95,-1944.25 2138.95,-1944.25"/>
<polygon fill="#7b8894" stroke="#7b8894" points="2138.95,-1947.75 2148.95,-1944.25 2138.95,-1940.75 2138.95,-1947.75"/>
<text text-anchor="middle" x="2050" y="-1913.6" font-family="Sans-Serif" font-size="13.00" fill="darkgrey">t_contrats_offres_energie</text>
</g>
<!-- d86aef862c5c465f823c126db53be6d4 -->
<g id="node20" class="node">
<title>d86aef862c5c465f823c126db53be6d4</title>
<image xlink:href="icons/bigquery.png" width="101px" height="101px" preserveAspectRatio="xMinYMin meet" x="1522" y="-1960.5"/>
<text text-anchor="middle" x="1572.5" y="-1845.1" font-family="Sans-Serif" font-size="13.00" fill="#2d3436">depenses.e_gsheet_depenses_traitement</text>
</g>
<!-- d86aef862c5c465f823c126db53be6d4&#45;&gt;740d17b3df2647479f47c1de95bdfc4a -->
<g id="edge19" class="edge">
<title>d86aef862c5c465f823c126db53be6d4&#45;&gt;740d17b3df2647479f47c1de95bdfc4a</title>
<path fill="none" stroke="#7b8894" d="M1623.11,-1910C1623.11,-1910 1818.31,-1910 1818.31,-1910"/>
<polygon fill="#7b8894" stroke="#7b8894" points="1818.31,-1913.5 1828.31,-1910 1818.31,-1906.5 1818.31,-1913.5"/>
<text text-anchor="middle" x="1715" y="-1913.6" font-family="Sans-Serif" font-size="13.00" fill="darkgrey">t_depenses_traitement</text>
</g>
<!-- e16384db95d64e2db037c559520ac5df -->
<g id="node23" class="node">
<title>e16384db95d64e2db037c559520ac5df</title>
<image xlink:href="icons/bigquery.png" width="101px" height="101px" preserveAspectRatio="xMinYMin meet" x="2490" y="-1060.5"/>
<text text-anchor="middle" x="2540.5" y="-945.1" font-family="Sans-Serif" font-size="13.00" fill="#2d3436">comper.l_v_digi_to_ds_comper_ventes_digitales</text>
</g>
<!-- 5e69c286df5947518b7f774d0934c571&#45;&gt;e16384db95d64e2db037c559520ac5df -->
<g id="edge24" class="edge">
<title>5e69c286df5947518b7f774d0934c571&#45;&gt;e16384db95d64e2db037c559520ac5df</title>
<path fill="none" stroke="#7b8894" d="M2250.14,-1910C2352.64,-1910 2575,-1910 2575,-1910 2575,-1910 2575,-1088.76 2575,-1088.76"/>
<polygon fill="#7b8894" stroke="#7b8894" points="2578.5,-1088.76 2575,-1078.76 2571.5,-1088.76 2578.5,-1088.76"/>
<text text-anchor="middle" x="2370" y="-1798.6" font-family="Sans-Serif" font-size="13.00" fill="darkgrey">l_to_ds_comper_ventes_digitales</text>
</g>
<!-- 80051e12d7ad4f53bae6ccd71b24769c -->
<g id="node22" class="node">
<title>80051e12d7ad4f53bae6ccd71b24769c</title>
<image xlink:href="icons/bigquery.png" width="101px" height="101px" preserveAspectRatio="xMinYMin meet" x="1828.5" y="-1499.5"/>
<text text-anchor="middle" x="1879" y="-1384.1" font-family="Sans-Serif" font-size="13.00" fill="#2d3436">comper.l_datastudio_contrats_offres_energie_avant_2021</text>
</g>
<!-- 80051e12d7ad4f53bae6ccd71b24769c&#45;&gt;5e69c286df5947518b7f774d0934c571 -->
<g id="edge23" class="edge">
<title>80051e12d7ad4f53bae6ccd71b24769c&#45;&gt;5e69c286df5947518b7f774d0934c571</title>
<path fill="none" stroke="#7b8894" d="M1929.73,-1499.5C1988.1,-1499.5 2076,-1499.5 2076,-1499.5 2076,-1499.5 2076,-1875.75 2076,-1875.75 2076,-1875.75 2138.91,-1875.75 2138.91,-1875.75"/>
<polygon fill="#7b8894" stroke="#7b8894" points="2138.91,-1879.25 2148.91,-1875.75 2138.91,-1872.25 2138.91,-1879.25"/>
<text text-anchor="middle" x="2050" y="-1544.6" font-family="Sans-Serif" font-size="13.00" fill="darkgrey">t_contrats_offres_energie</text>
</g>
<!-- fd67d9aa360340c7bcb3c856b08f35c8 -->
<g id="node24" class="node">
<title>fd67d9aa360340c7bcb3c856b08f35c8</title>
<image xlink:href="icons/bigquery.png" width="101px" height="101px" preserveAspectRatio="xMinYMin meet" x="2149" y="-1780.5"/>
<text text-anchor="middle" x="2199.5" y="-1665.1" font-family="Sans-Serif" font-size="13.00" fill="#2d3436">comper.l_ama_to_ds_comper_contrats_services</text>
</g>
<!-- fd67d9aa360340c7bcb3c856b08f35c8&#45;&gt;e16384db95d64e2db037c559520ac5df -->
<g id="edge25" class="edge">
<title>fd67d9aa360340c7bcb3c856b08f35c8&#45;&gt;e16384db95d64e2db037c559520ac5df</title>
<path fill="none" stroke="#7b8894" d="M2250.1,-1730C2348.92,-1730 2558,-1730 2558,-1730 2558,-1730 2558,-1088.71 2558,-1088.71"/>
<polygon fill="#7b8894" stroke="#7b8894" points="2561.5,-1088.71 2558,-1078.71 2554.5,-1088.71 2561.5,-1088.71"/>
<text text-anchor="middle" x="2370" y="-1622.6" font-family="Sans-Serif" font-size="13.00" fill="darkgrey">l_to_ds_comper_ventes_digitales</text>
</g>
<!-- 7bd3cd027ec641d486c0f03ba2dd5c7f -->
<g id="node25" class="node">
<title>7bd3cd027ec641d486c0f03ba2dd5c7f</title>
<image xlink:href="icons/bigquery.png" width="101px" height="101px" preserveAspectRatio="xMinYMin meet" x="2149" y="-1600.5"/>
<text text-anchor="middle" x="2199.5" y="-1485.1" font-family="Sans-Serif" font-size="13.00" fill="#2d3436">comper.l_ama_to_ds_comper_options_vertes</text>
</g>
<!-- 7bd3cd027ec641d486c0f03ba2dd5c7f&#45;&gt;e16384db95d64e2db037c559520ac5df -->
<g id="edge26" class="edge">
<title>7bd3cd027ec641d486c0f03ba2dd5c7f&#45;&gt;e16384db95d64e2db037c559520ac5df</title>
<path fill="none" stroke="#7b8894" d="M2250.26,-1550C2345.39,-1550 2541,-1550 2541,-1550 2541,-1550 2541,-1088.67 2541,-1088.67"/>
<polygon fill="#7b8894" stroke="#7b8894" points="2544.5,-1088.67 2541,-1078.67 2537.5,-1088.67 2544.5,-1088.67"/>
<text text-anchor="middle" x="2370" y="-1449.6" font-family="Sans-Serif" font-size="13.00" fill="darkgrey">l_to_ds_comper_ventes_digitales</text>
</g>
<!-- c6ac16370f944ea4bcc1c09437aa3d2c -->
<g id="node26" class="node">
<title>c6ac16370f944ea4bcc1c09437aa3d2c</title>
<image xlink:href="icons/bigquery.png" width="101px" height="101px" preserveAspectRatio="xMinYMin meet" x="2149" y="-1420.5"/>
<text text-anchor="middle" x="2199.5" y="-1305.1" font-family="Sans-Serif" font-size="13.00" fill="#2d3436">comper.l_ama_to_ds_comper_t_ama_parrainage</text>
</g>
<!-- c6ac16370f944ea4bcc1c09437aa3d2c&#45;&gt;e16384db95d64e2db037c559520ac5df -->
<g id="edge27" class="edge">
<title>c6ac16370f944ea4bcc1c09437aa3d2c&#45;&gt;e16384db95d64e2db037c559520ac5df</title>
<path fill="none" stroke="#7b8894" d="M2250.2,-1370C2341.47,-1370 2524,-1370 2524,-1370 2524,-1370 2524,-1088.56 2524,-1088.56"/>
<polygon fill="#7b8894" stroke="#7b8894" points="2527.5,-1088.56 2524,-1078.56 2520.5,-1088.56 2527.5,-1088.56"/>
<text text-anchor="middle" x="2370" y="-1284.6" font-family="Sans-Serif" font-size="13.00" fill="darkgrey">l_to_ds_comper_ventes_digitales</text>
</g>
<!-- 6076249e423944eeb79ed1c3e9fa03a4 -->
<g id="node27" class="node">
<title>6076249e423944eeb79ed1c3e9fa03a4</title>
<image xlink:href="icons/bigquery.png" width="101px" height="101px" preserveAspectRatio="xMinYMin meet" x="2149" y="-1240.5"/>
<text text-anchor="middle" x="2199.5" y="-1125.1" font-family="Sans-Serif" font-size="13.00" fill="#2d3436">comper.l_ga_to_ds_comper_e_gsheet_cee_souscriptions</text>
</g>
<!-- 6076249e423944eeb79ed1c3e9fa03a4&#45;&gt;e16384db95d64e2db037c559520ac5df -->
<g id="edge28" class="edge">
<title>6076249e423944eeb79ed1c3e9fa03a4&#45;&gt;e16384db95d64e2db037c559520ac5df</title>
<path fill="none" stroke="#7b8894" d="M2250.28,-1190C2337.62,-1190 2507,-1190 2507,-1190 2507,-1190 2507,-1088.56 2507,-1088.56"/>
<polygon fill="#7b8894" stroke="#7b8894" points="2510.5,-1088.56 2507,-1078.56 2503.5,-1088.56 2510.5,-1088.56"/>
<text text-anchor="middle" x="2370" y="-1134.6" font-family="Sans-Serif" font-size="13.00" fill="darkgrey">l_to_ds_comper_ventes_digitales</text>
</g>
<!-- f41ca85e0dba491984c4340ea0778c8b -->
<g id="node28" class="node">
<title>f41ca85e0dba491984c4340ea0778c8b</title>
<image xlink:href="icons/bigquery.png" width="101px" height="101px" preserveAspectRatio="xMinYMin meet" x="2149" y="-1060.5"/>
<text text-anchor="middle" x="2199.5" y="-945.1" font-family="Sans-Serif" font-size="13.00" fill="#2d3436">comper.l_ama_to_ds_comper_bout_en_bout_equipements</text>
</g>
<!-- f41ca85e0dba491984c4340ea0778c8b&#45;&gt;e16384db95d64e2db037c559520ac5df -->
<g id="edge29" class="edge">
<title>f41ca85e0dba491984c4340ea0778c8b&#45;&gt;e16384db95d64e2db037c559520ac5df</title>
<path fill="none" stroke="#7b8894" d="M2250.18,-1010C2250.18,-1010 2479.82,-1010 2479.82,-1010"/>
<polygon fill="#7b8894" stroke="#7b8894" points="2479.82,-1013.5 2489.82,-1010 2479.82,-1006.5 2479.82,-1013.5"/>
<text text-anchor="middle" x="2370" y="-1013.6" font-family="Sans-Serif" font-size="13.00" fill="darkgrey">l_to_ds_comper_ventes_digitales</text>
</g>
<!-- f6deabcb2d524945a11f8b929ef7e603 -->
<g id="node29" class="node">
<title>f6deabcb2d524945a11f8b929ef7e603</title>
<image xlink:href="icons/bigquery.png" width="101px" height="101px" preserveAspectRatio="xMinYMin meet" x="2149" y="-880.5"/>
<text text-anchor="middle" x="2199.5" y="-765.1" font-family="Sans-Serif" font-size="13.00" fill="#2d3436">comper.e_ds_comper_objectifs_hors_energie</text>
</g>
<!-- f6deabcb2d524945a11f8b929ef7e603&#45;&gt;e16384db95d64e2db037c559520ac5df -->
<g id="edge30" class="edge">
<title>f6deabcb2d524945a11f8b929ef7e603&#45;&gt;e16384db95d64e2db037c559520ac5df</title>
<path fill="none" stroke="#7b8894" d="M2250.28,-830C2337.62,-830 2507,-830 2507,-830 2507,-830 2507,-931.44 2507,-931.44"/>
<polygon fill="#7b8894" stroke="#7b8894" points="2503.5,-931.44 2507,-941.44 2510.5,-931.44 2503.5,-931.44"/>
<text text-anchor="middle" x="2370" y="-892.6" font-family="Sans-Serif" font-size="13.00" fill="darkgrey">l_to_ds_comper_ventes_digitales</text>
</g>
<!-- f2c314f9eba744aa937d96358621a492 -->
<g id="node30" class="node">
<title>f2c314f9eba744aa937d96358621a492</title>
<image xlink:href="icons/bigquery.png" width="101px" height="101px" preserveAspectRatio="xMinYMin meet" x="2149" y="-700.5"/>
<text text-anchor="middle" x="2199.5" y="-585.1" font-family="Sans-Serif" font-size="13.00" fill="#2d3436">comper.l_mypower_to_ds_comper_mypower</text>
</g>
<!-- f2c314f9eba744aa937d96358621a492&#45;&gt;e16384db95d64e2db037c559520ac5df -->
<g id="edge31" class="edge">
<title>f2c314f9eba744aa937d96358621a492&#45;&gt;e16384db95d64e2db037c559520ac5df</title>
<path fill="none" stroke="#7b8894" d="M2250.2,-650C2341.47,-650 2524,-650 2524,-650 2524,-650 2524,-931.44 2524,-931.44"/>
<polygon fill="#7b8894" stroke="#7b8894" points="2520.5,-931.44 2524,-941.44 2527.5,-931.44 2520.5,-931.44"/>
<text text-anchor="middle" x="2370" y="-741.6" font-family="Sans-Serif" font-size="13.00" fill="darkgrey">l_to_ds_comper_ventes_digitales</text>
</g>
<!-- 1e8c43883a314bb7901df0095c312360 -->
<g id="node31" class="node">
<title>1e8c43883a314bb7901df0095c312360</title>
<image xlink:href="icons/bigquery.png" width="101px" height="101px" preserveAspectRatio="xMinYMin meet" x="2149" y="-520.5"/>
<text text-anchor="middle" x="2199.5" y="-405.1" font-family="Sans-Serif" font-size="13.00" fill="#2d3436">comper.l_ama_to_ds_comper_prelevement_mensualisation</text>
</g>
<!-- 1e8c43883a314bb7901df0095c312360&#45;&gt;e16384db95d64e2db037c559520ac5df -->
<g id="edge32" class="edge">
<title>1e8c43883a314bb7901df0095c312360&#45;&gt;e16384db95d64e2db037c559520ac5df</title>
<path fill="none" stroke="#7b8894" d="M2250.26,-470C2345.39,-470 2541,-470 2541,-470 2541,-470 2541,-931.33 2541,-931.33"/>
<polygon fill="#7b8894" stroke="#7b8894" points="2537.5,-931.33 2541,-941.33 2544.5,-931.33 2537.5,-931.33"/>
<text text-anchor="middle" x="2370" y="-576.6" font-family="Sans-Serif" font-size="13.00" fill="darkgrey">l_to_ds_comper_ventes_digitales</text>
</g>
<!-- 5b0e29b0ea164f2aa8909cfb1d1a0fc0 -->
<g id="node32" class="node">
<title>5b0e29b0ea164f2aa8909cfb1d1a0fc0</title>
<image xlink:href="icons/bigquery.png" width="101px" height="101px" preserveAspectRatio="xMinYMin meet" x="2149" y="-340.5"/>
<text text-anchor="middle" x="2199.5" y="-225.1" font-family="Sans-Serif" font-size="13.00" fill="#2d3436">comper.l_ama_to_ds_comper_activation_energie</text>
</g>
<!-- 5b0e29b0ea164f2aa8909cfb1d1a0fc0&#45;&gt;e16384db95d64e2db037c559520ac5df -->
<g id="edge33" class="edge">
<title>5b0e29b0ea164f2aa8909cfb1d1a0fc0&#45;&gt;e16384db95d64e2db037c559520ac5df</title>
<path fill="none" stroke="#7b8894" d="M2250.1,-290C2348.92,-290 2558,-290 2558,-290 2558,-290 2558,-931.29 2558,-931.29"/>
<polygon fill="#7b8894" stroke="#7b8894" points="2554.5,-931.29 2558,-941.29 2561.5,-931.29 2554.5,-931.29"/>
<text text-anchor="middle" x="2370" y="-403.6" font-family="Sans-Serif" font-size="13.00" fill="darkgrey">l_to_ds_comper_ventes_digitales</text>
</g>
<!-- a6a30edb7d3c414b84b1891da449cfac -->
<g id="node33" class="node">
<title>a6a30edb7d3c414b84b1891da449cfac</title>
<image xlink:href="icons/bigquery.png" width="101px" height="101px" preserveAspectRatio="xMinYMin meet" x="2149" y="-160.5"/>
<text text-anchor="middle" x="2199.5" y="-45.1" font-family="Sans-Serif" font-size="13.00" fill="#2d3436">comper.l_ga_to_ds_comper_sessions</text>
</g>
<!-- a6a30edb7d3c414b84b1891da449cfac&#45;&gt;e16384db95d64e2db037c559520ac5df -->
<g id="edge34" class="edge">
<title>a6a30edb7d3c414b84b1891da449cfac&#45;&gt;e16384db95d64e2db037c559520ac5df</title>
<path fill="none" stroke="#7b8894" d="M2250.14,-110C2352.64,-110 2575,-110 2575,-110 2575,-110 2575,-931.24 2575,-931.24"/>
<polygon fill="#7b8894" stroke="#7b8894" points="2571.5,-931.24 2575,-941.24 2578.5,-931.24 2571.5,-931.24"/>
<text text-anchor="middle" x="2370" y="-227.6" font-family="Sans-Serif" font-size="13.00" fill="darkgrey">l_to_ds_comper_ventes_digitales</text>
</g>
<!-- c7b39a5307024b198401d57e6629e8d5 -->
<g id="node34" class="node">
<title>c7b39a5307024b198401d57e6629e8d5</title>
<image xlink:href="icons/bigquery.png" width="101px" height="101px" preserveAspectRatio="xMinYMin meet" x="295" y="-1960.5"/>
<text text-anchor="middle" x="345.5" y="-1845.1" font-family="Sans-Serif" font-size="13.00" fill="#2d3436">amadeus.t_ama_appels_date_lead</text>
</g>
<!-- 453bf1950b6345ab859e4a7c02da8fe3 -->
<g id="node35" class="node">
<title>453bf1950b6345ab859e4a7c02da8fe3</title>
<image xlink:href="icons/bigquery.png" width="101px" height="101px" preserveAspectRatio="xMinYMin meet" x="640" y="-1960.5"/>
<text text-anchor="middle" x="690.5" y="-1845.1" font-family="Sans-Serif" font-size="13.00" fill="#2d3436">comper.t_datastudio_realise_non_debiaise_date_lead</text>
</g>
<!-- c7b39a5307024b198401d57e6629e8d5&#45;&gt;453bf1950b6345ab859e4a7c02da8fe3 -->
<g id="edge35" class="edge">
<title>c7b39a5307024b198401d57e6629e8d5&#45;&gt;453bf1950b6345ab859e4a7c02da8fe3</title>
<path fill="none" stroke="#7b8894" d="M396.04,-1910C396.04,-1910 629.83,-1910 629.83,-1910"/>
<polygon fill="#7b8894" stroke="#7b8894" points="629.83,-1913.5 639.83,-1910 629.83,-1906.5 629.83,-1913.5"/>
<text text-anchor="middle" x="518" y="-1913.6" font-family="Sans-Serif" font-size="13.00" fill="darkgrey">t_realise_non_debiaise_date_lead</text>
</g>
<!-- 453bf1950b6345ab859e4a7c02da8fe3&#45;&gt;358e8410623c47c4b265c21d04aa08a6 -->
<g id="edge37" class="edge">
<title>453bf1950b6345ab859e4a7c02da8fe3&#45;&gt;358e8410623c47c4b265c21d04aa08a6</title>
<path fill="none" stroke="#7b8894" d="M741.1,-1910C741.1,-1910 1056.47,-1910 1056.47,-1910"/>
<polygon fill="#7b8894" stroke="#7b8894" points="1056.47,-1913.5 1066.47,-1910 1056.47,-1906.5 1056.47,-1913.5"/>
<text text-anchor="middle" x="870.5" y="-1913.6" font-family="Sans-Serif" font-size="13.00" fill="darkgrey">t_contrats_offres_energie_date_lead</text>
</g>
<!-- 4bdbb8d1274140c89fcecd60b96e65f6 -->
<g id="node36" class="node">
<title>4bdbb8d1274140c89fcecd60b96e65f6</title>
<image xlink:href="icons/bigquery.png" width="101px" height="101px" preserveAspectRatio="xMinYMin meet" x="295" y="-1780.5"/>
<text text-anchor="middle" x="345.5" y="-1665.1" font-family="Sans-Serif" font-size="13.00" fill="#2d3436">amadeus.t_ama_formulaires_date_lead</text>
</g>
<!-- 4bdbb8d1274140c89fcecd60b96e65f6&#45;&gt;453bf1950b6345ab859e4a7c02da8fe3 -->
<g id="edge36" class="edge">
<title>4bdbb8d1274140c89fcecd60b96e65f6&#45;&gt;453bf1950b6345ab859e4a7c02da8fe3</title>
<path fill="none" stroke="#7b8894" d="M396.11,-1776C492.07,-1776 691,-1776 691,-1776 691,-1776 691,-1831.43 691,-1831.43"/>
<polygon fill="#7b8894" stroke="#7b8894" points="687.5,-1831.43 691,-1841.43 694.5,-1831.43 687.5,-1831.43"/>
<text text-anchor="middle" x="518" y="-1792.6" font-family="Sans-Serif" font-size="13.00" fill="darkgrey">t_realise_non_debiaise_date_lead</text>
</g>
</g>
</svg>
