<?xml version="1.0" encoding="UTF-8" standalone="no"?>
<!DOCTYPE svg PUBLIC "-//W3C//DTD SVG 1.1//EN"
 "http://www.w3.org/Graphics/SVG/1.1/DTD/svg11.dtd">
<!-- Generated by graphviz version 2.47.1 (20210417.1919)
 -->
<!-- Title: comper Pages: 1 -->
<svg width="1450pt" height="3024pt"
 viewBox="0.00 0.00 1450.00 3024.00" xmlns="http://www.w3.org/2000/svg" xmlns:xlink="http://www.w3.org/1999/xlink">
<g id="graph0" class="graph" transform="scale(1 1) rotate(0) translate(144 2880)">
<title>comper</title>
<text text-anchor="middle" x="581" y="-9" font-family="Sans-Serif" font-size="15.00" fill="#2d3436">comper</text>
<g id="clust1" class="cluster">
<title>cluster_comper</title>
<path fill="#e5f5fd" stroke="#aeb6be" d="M20,-33C20,-33 1142,-33 1142,-33 1148,-33 1154,-39 1154,-45 1154,-45 1154,-2716 1154,-2716 1154,-2722 1148,-2728 1142,-2728 1142,-2728 20,-2728 20,-2728 14,-2728 8,-2722 8,-2716 8,-2716 8,-45 8,-45 8,-39 14,-33 20,-33"/>
<text text-anchor="middle" x="36" y="-2714.4" font-family="Sans-Serif" font-size="12.00" fill="#2d3436">comper</text>
</g>
<!-- 7248204bf9eb4dac888fdb9dbec80a7f -->
<g id="node1" class="node">
<title>7248204bf9eb4dac888fdb9dbec80a7f</title>
<image xlink:href="icons/storage.png" width="101px" height="101px" preserveAspectRatio="xMinYMin meet" x="16" y="-2680.5"/>
<text text-anchor="middle" x="66.5" y="-2565.1" font-family="Sans-Serif" font-size="13.00" fill="#2d3436">amadeus_bi.contrats/ama_contrats_digitaux_stor_</text>
</g>
<!-- 3a4f13217fc146e4ab0e446e5632c8d7 -->
<g id="node2" class="node">
<title>3a4f13217fc146e4ab0e446e5632c8d7</title>
<image xlink:href="icons/bigquery.png" width="101px" height="101px" preserveAspectRatio="xMinYMin meet" x="405" y="-2680.5"/>
<text text-anchor="middle" x="455.5" y="-2565.1" font-family="Sans-Serif" font-size="13.00" fill="#2d3436">comper.e_v_digi_import_cube_valeur</text>
</g>
<!-- 7248204bf9eb4dac888fdb9dbec80a7f&#45;&gt;3a4f13217fc146e4ab0e446e5632c8d7 -->
<g id="edge1" class="edge">
<title>7248204bf9eb4dac888fdb9dbec80a7f&#45;&gt;3a4f13217fc146e4ab0e446e5632c8d7</title>
<path fill="none" stroke="#7b8894" d="M117.35,-2630C117.35,-2630 394.94,-2630 394.94,-2630"/>
<polygon fill="#7b8894" stroke="#7b8894" points="394.94,-2633.5 404.94,-2630 394.94,-2626.5 394.94,-2633.5"/>
<text text-anchor="middle" x="261" y="-2633.6" font-family="Sans-Serif" font-size="13.00" fill="darkgrey">e_import_cube_valeur</text>
</g>
<!-- f94dd9257397451d8501a5daf978839b -->
<g id="node10" class="node">
<title>f94dd9257397451d8501a5daf978839b</title>
<image xlink:href="icons/bigquery.png" width="101px" height="101px" preserveAspectRatio="xMinYMin meet" x="704" y="-2680.5"/>
<text text-anchor="middle" x="754.5" y="-2565.1" font-family="Sans-Serif" font-size="13.00" fill="#2d3436">comper.t_v_digi_cube_valeur</text>
</g>
<!-- 3a4f13217fc146e4ab0e446e5632c8d7&#45;&gt;f94dd9257397451d8501a5daf978839b -->
<g id="edge7" class="edge">
<title>3a4f13217fc146e4ab0e446e5632c8d7&#45;&gt;f94dd9257397451d8501a5daf978839b</title>
<path fill="none" stroke="#7b8894" d="M506.22,-2630C506.22,-2630 693.53,-2630 693.53,-2630"/>
<polygon fill="#7b8894" stroke="#7b8894" points="693.53,-2633.5 703.53,-2630 693.53,-2626.5 693.53,-2633.5"/>
<text text-anchor="middle" x="605" y="-2633.6" font-family="Sans-Serif" font-size="13.00" fill="darkgrey">t_cube_valeur</text>
</g>
<!-- ea67d047b85f4cfd93b4699517b624fd -->
<g id="node3" class="node">
<title>ea67d047b85f4cfd93b4699517b624fd</title>
<image xlink:href="icons/bigquery.png" width="101px" height="101px" preserveAspectRatio="xMinYMin meet" x="16" y="-2500.5"/>
<text text-anchor="middle" x="66.5" y="-2385.1" font-family="Sans-Serif" font-size="13.00" fill="#2d3436">amadeus.t_ama_contrats_appels_leviers</text>
</g>
<!-- ccb798ffbc774bad8ead0570a3eccf29 -->
<g id="node4" class="node">
<title>ccb798ffbc774bad8ead0570a3eccf29</title>
<image xlink:href="icons/bigquery.png" width="101px" height="101px" preserveAspectRatio="xMinYMin meet" x="405" y="-2500.5"/>
<text text-anchor="middle" x="455.5" y="-2385.1" font-family="Sans-Serif" font-size="13.00" fill="#2d3436">amadeus.t_ama_ventes_digitales</text>
</g>
<!-- ea67d047b85f4cfd93b4699517b624fd&#45;&gt;ccb798ffbc774bad8ead0570a3eccf29 -->
<g id="edge2" class="edge">
<title>ea67d047b85f4cfd93b4699517b624fd&#45;&gt;ccb798ffbc774bad8ead0570a3eccf29</title>
<path fill="none" stroke="#7b8894" d="M117.35,-2450C117.35,-2450 394.94,-2450 394.94,-2450"/>
<polygon fill="#7b8894" stroke="#7b8894" points="394.94,-2453.5 404.94,-2450 394.94,-2446.5 394.94,-2453.5"/>
<text text-anchor="middle" x="261" y="-2453.6" font-family="Sans-Serif" font-size="13.00" fill="darkgrey">t_ventes_digitales</text>
</g>
<!-- 7ed581fdb98f4db7bc1911485c58aa5d -->
<g id="node5" class="node">
<title>7ed581fdb98f4db7bc1911485c58aa5d</title>
<image xlink:href="icons/bigquery.png" width="101px" height="101px" preserveAspectRatio="xMinYMin meet" x="16" y="-2320.5"/>
<text text-anchor="middle" x="66.5" y="-2205.1" font-family="Sans-Serif" font-size="13.00" fill="#2d3436">[?config?].t_ama_contrats_formulaires</text>
</g>
<!-- 7ed581fdb98f4db7bc1911485c58aa5d&#45;&gt;ccb798ffbc774bad8ead0570a3eccf29 -->
<g id="edge3" class="edge">
<title>7ed581fdb98f4db7bc1911485c58aa5d&#45;&gt;ccb798ffbc774bad8ead0570a3eccf29</title>
<path fill="none" stroke="#7b8894" d="M67,-2338.54C67,-2354.62 67,-2367.17 67,-2367.17 67,-2367.17 439,-2367.17 439,-2367.17 439,-2367.17 439,-2371.22 439,-2371.22"/>
<polygon fill="#7b8894" stroke="#7b8894" points="435.5,-2371.22 439,-2381.22 442.5,-2371.22 435.5,-2371.22"/>
<text text-anchor="middle" x="261" y="-2332.6" font-family="Sans-Serif" font-size="13.00" fill="darkgrey">t_ventes_digitales</text>
</g>
<!-- c9bd5e04f959435da85fedc65c45e922 -->
<g id="node6" class="node">
<title>c9bd5e04f959435da85fedc65c45e922</title>
<image xlink:href="icons/bigquery.png" width="101px" height="101px" preserveAspectRatio="xMinYMin meet" x="16" y="-2140.5"/>
<text text-anchor="middle" x="66.5" y="-2025.1" font-family="Sans-Serif" font-size="13.00" fill="#2d3436">amadeus.t_ama_leads_appels</text>
</g>
<!-- 7f7b643bfa454547bf442b70ff6fe77e -->
<g id="node7" class="node">
<title>7f7b643bfa454547bf442b70ff6fe77e</title>
<image xlink:href="icons/bigquery.png" width="101px" height="101px" preserveAspectRatio="xMinYMin meet" x="405" y="-2140.5"/>
<text text-anchor="middle" x="455.5" y="-2025.1" font-family="Sans-Serif" font-size="13.00" fill="#2d3436">comper.t_ama_realise</text>
</g>
<!-- c9bd5e04f959435da85fedc65c45e922&#45;&gt;7f7b643bfa454547bf442b70ff6fe77e -->
<g id="edge4" class="edge">
<title>c9bd5e04f959435da85fedc65c45e922&#45;&gt;7f7b643bfa454547bf442b70ff6fe77e</title>
<path fill="none" stroke="#7b8894" d="M117.35,-2112.83C117.35,-2112.83 394.94,-2112.83 394.94,-2112.83"/>
<polygon fill="#7b8894" stroke="#7b8894" points="394.94,-2116.33 404.94,-2112.83 394.94,-2109.33 394.94,-2116.33"/>
<text text-anchor="middle" x="261" y="-2093.6" font-family="Sans-Serif" font-size="13.00" fill="darkgrey">t_realise</text>
</g>
<!-- 4c6ec384e46e44c8b3b24e76f970d1cd -->
<g id="node11" class="node">
<title>4c6ec384e46e44c8b3b24e76f970d1cd</title>
<image xlink:href="icons/bigquery.png" width="101px" height="101px" preserveAspectRatio="xMinYMin meet" x="704" y="-2500.5"/>
<text text-anchor="middle" x="754.5" y="-2385.1" font-family="Sans-Serif" font-size="13.00" fill="#2d3436">comper.t_datastudio_point_de_sortie</text>
</g>
<!-- 7f7b643bfa454547bf442b70ff6fe77e&#45;&gt;4c6ec384e46e44c8b3b24e76f970d1cd -->
<g id="edge8" class="edge">
<title>7f7b643bfa454547bf442b70ff6fe77e&#45;&gt;4c6ec384e46e44c8b3b24e76f970d1cd</title>
<path fill="none" stroke="#7b8894" d="M506.25,-2124.25C518.43,-2124.25 528,-2124.25 528,-2124.25 528,-2124.25 528,-2450 528,-2450 528,-2450 693.95,-2450 693.95,-2450"/>
<polygon fill="#7b8894" stroke="#7b8894" points="693.95,-2453.5 703.95,-2450 693.95,-2446.5 693.95,-2453.5"/>
<text text-anchor="middle" x="605" y="-2152.6" font-family="Sans-Serif" font-size="13.00" fill="darkgrey">t_point_de_sortie</text>
</g>
<!-- e18a8933efc742dcb4e13bc5f7343586 -->
<g id="node8" class="node">
<title>e18a8933efc742dcb4e13bc5f7343586</title>
<image xlink:href="icons/bigquery.png" width="101px" height="101px" preserveAspectRatio="xMinYMin meet" x="16" y="-1960.5"/>
<text text-anchor="middle" x="66.5" y="-1845.1" font-family="Sans-Serif" font-size="13.00" fill="#2d3436">[?config?].t_ama_leads_formulaires</text>
</g>
<!-- e18a8933efc742dcb4e13bc5f7343586&#45;&gt;7f7b643bfa454547bf442b70ff6fe77e -->
<g id="edge5" class="edge">
<title>e18a8933efc742dcb4e13bc5f7343586&#45;&gt;7f7b643bfa454547bf442b70ff6fe77e</title>
<path fill="none" stroke="#7b8894" d="M67,-1978.67C67,-1990.99 67,-2000 67,-2000 67,-2000 456,-2000 456,-2000 456,-2000 456,-2011.33 456,-2011.33"/>
<polygon fill="#7b8894" stroke="#7b8894" points="452.5,-2011.33 456,-2021.33 459.5,-2011.33 452.5,-2011.33"/>
<text text-anchor="middle" x="261" y="-1972.6" font-family="Sans-Serif" font-size="13.00" fill="darkgrey">t_realise</text>
</g>
<!-- f4cb9974277a41b6bd5690c58a81a861 -->
<g id="node9" class="node">
<title>f4cb9974277a41b6bd5690c58a81a861</title>
<image xlink:href="icons/bigquery.png" width="101px" height="101px" preserveAspectRatio="xMinYMin meet" x="16" y="-1780.5"/>
<text text-anchor="middle" x="66.5" y="-1665.1" font-family="Sans-Serif" font-size="13.00" fill="#2d3436">[?config?].t_ama_ventes_digitales</text>
</g>
<!-- f4cb9974277a41b6bd5690c58a81a861&#45;&gt;7f7b643bfa454547bf442b70ff6fe77e -->
<g id="edge6" class="edge">
<title>f4cb9974277a41b6bd5690c58a81a861&#45;&gt;7f7b643bfa454547bf442b70ff6fe77e</title>
<path fill="none" stroke="#7b8894" d="M117.08,-1778.93C138.68,-1778.93 159,-1778.93 159,-1778.93 159,-1778.93 159,-2067.17 159,-2067.17 159,-2067.17 394.87,-2067.17 394.87,-2067.17"/>
<polygon fill="#7b8894" stroke="#7b8894" points="394.87,-2070.67 404.87,-2067.17 394.87,-2063.67 394.87,-2070.67"/>
<text text-anchor="middle" x="261" y="-1821.6" font-family="Sans-Serif" font-size="13.00" fill="darkgrey">t_realise</text>
</g>
<!-- c6586df60dac4a28b6b1f7e49b1894f8 -->
<g id="node12" class="node">
<title>c6586df60dac4a28b6b1f7e49b1894f8</title>
<image xlink:href="icons/bigquery.png" width="101px" height="101px" preserveAspectRatio="xMinYMin meet" x="405" y="-2320.5"/>
<text text-anchor="middle" x="455.5" y="-2205.1" font-family="Sans-Serif" font-size="13.00" fill="#2d3436">[?config?].e_ds_comper_saisonnalite</text>
</g>
<!-- c6586df60dac4a28b6b1f7e49b1894f8&#45;&gt;4c6ec384e46e44c8b3b24e76f970d1cd -->
<g id="edge9" class="edge">
<title>c6586df60dac4a28b6b1f7e49b1894f8&#45;&gt;4c6ec384e46e44c8b3b24e76f970d1cd</title>
<path fill="none" stroke="#7b8894" d="M473,-2338.78C473,-2347.16 473,-2352.83 473,-2352.83 473,-2352.83 755,-2352.83 755,-2352.83 755,-2352.83 755,-2371.46 755,-2371.46"/>
<polygon fill="#7b8894" stroke="#7b8894" points="751.5,-2371.46 755,-2381.46 758.5,-2371.46 751.5,-2371.46"/>
<text text-anchor="middle" x="605" y="-2363.6" font-family="Sans-Serif" font-size="13.00" fill="darkgrey">t_point_de_sortie</text>
</g>
<!-- 6b37642fa4b3429584eb76c0af83d8c3 -->
<g id="node13" class="node">
<title>6b37642fa4b3429584eb76c0af83d8c3</title>
<image xlink:href="icons/bigquery.png" width="101px" height="101px" preserveAspectRatio="xMinYMin meet" x="16" y="-1600.5"/>
<text text-anchor="middle" x="66.5" y="-1485.1" font-family="Sans-Serif" font-size="13.00" fill="#2d3436">comper.e_datastudio_contrats_offres_energie_2018</text>
</g>
<!-- 2358967aab784354bc8244ed002e120b -->
<g id="node14" class="node">
<title>2358967aab784354bc8244ed002e120b</title>
<image xlink:href="icons/bigquery.png" width="101px" height="101px" preserveAspectRatio="xMinYMin meet" x="405" y="-1780.5"/>
<text text-anchor="middle" x="455.5" y="-1665.1" font-family="Sans-Serif" font-size="13.00" fill="#2d3436">comper.l_datastudio_contrats_offres_energie_hors_depenses</text>
</g>
<!-- 6b37642fa4b3429584eb76c0af83d8c3&#45;&gt;2358967aab784354bc8244ed002e120b -->
<g id="edge10" class="edge">
<title>6b37642fa4b3429584eb76c0af83d8c3&#45;&gt;2358967aab784354bc8244ed002e120b</title>
<path fill="none" stroke="#7b8894" d="M67,-1618.67C67,-1630.99 67,-1640 67,-1640 67,-1640 456,-1640 456,-1640 456,-1640 456,-1651.33 456,-1651.33"/>
<polygon fill="#7b8894" stroke="#7b8894" points="452.5,-1651.33 456,-1661.33 459.5,-1651.33 452.5,-1651.33"/>
<text text-anchor="middle" x="261" y="-1643.6" font-family="Sans-Serif" font-size="13.00" fill="darkgrey">t_contrats_offres_energie_hors_depenses</text>
</g>
<!-- 5ec4ef0546e44cfc82957a720d3b934b -->
<g id="node20" class="node">
<title>5ec4ef0546e44cfc82957a720d3b934b</title>
<image xlink:href="icons/bigquery.png" width="101px" height="101px" preserveAspectRatio="xMinYMin meet" x="704" y="-2140.5"/>
<text text-anchor="middle" x="754.5" y="-2025.1" font-family="Sans-Serif" font-size="13.00" fill="#2d3436">comper.t_datastudio_depenses_acquisition</text>
</g>
<!-- 2358967aab784354bc8244ed002e120b&#45;&gt;5ec4ef0546e44cfc82957a720d3b934b -->
<g id="edge16" class="edge">
<title>2358967aab784354bc8244ed002e120b&#45;&gt;5ec4ef0546e44cfc82957a720d3b934b</title>
<path fill="none" stroke="#7b8894" d="M506.29,-1707.17C545.81,-1707.17 594,-1707.17 594,-1707.17 594,-1707.17 594,-2090 594,-2090 594,-2090 693.72,-2090 693.72,-2090"/>
<polygon fill="#7b8894" stroke="#7b8894" points="693.72,-2093.5 703.72,-2090 693.72,-2086.5 693.72,-2093.5"/>
<text text-anchor="middle" x="605" y="-1868.6" font-family="Sans-Serif" font-size="13.00" fill="darkgrey">t_depenses_acquisition</text>
</g>
<!-- c83387d64088409e85a2afed3571483e -->
<g id="node22" class="node">
<title>c83387d64088409e85a2afed3571483e</title>
<image xlink:href="icons/bigquery.png" width="101px" height="101px" preserveAspectRatio="xMinYMin meet" x="704" y="-2320.5"/>
<text text-anchor="middle" x="754.5" y="-2205.1" font-family="Sans-Serif" font-size="13.00" fill="#2d3436">comper.t_datastudio_depenses_traitement</text>
</g>
<!-- 2358967aab784354bc8244ed002e120b&#45;&gt;c83387d64088409e85a2afed3571483e -->
<g id="edge18" class="edge">
<title>2358967aab784354bc8244ed002e120b&#45;&gt;c83387d64088409e85a2afed3571483e</title>
<path fill="none" stroke="#7b8894" d="M506.26,-1752.83C537.65,-1752.83 572,-1752.83 572,-1752.83 572,-1752.83 572,-2247.17 572,-2247.17 572,-2247.17 693.66,-2247.17 693.66,-2247.17"/>
<polygon fill="#7b8894" stroke="#7b8894" points="693.66,-2250.67 703.66,-2247.17 693.66,-2243.67 693.66,-2250.67"/>
<text text-anchor="middle" x="605" y="-1986.6" font-family="Sans-Serif" font-size="13.00" fill="darkgrey">t_depenses_traitement</text>
</g>
<!-- 57baf300c6704c6c8578fdf18ca60a42 -->
<g id="node24" class="node">
<title>57baf300c6704c6c8578fdf18ca60a42</title>
<image xlink:href="icons/bigquery.png" width="101px" height="101px" preserveAspectRatio="xMinYMin meet" x="704" y="-1960.5"/>
<text text-anchor="middle" x="754.5" y="-1845.1" font-family="Sans-Serif" font-size="13.00" fill="#2d3436">comper.l_datastudio_contrats_offres_energie</text>
</g>
<!-- 2358967aab784354bc8244ed002e120b&#45;&gt;57baf300c6704c6c8578fdf18ca60a42 -->
<g id="edge20" class="edge">
<title>2358967aab784354bc8244ed002e120b&#45;&gt;57baf300c6704c6c8578fdf18ca60a42</title>
<path fill="none" stroke="#7b8894" d="M456,-1798.67C456,-1810.99 456,-1820 456,-1820 456,-1820 755,-1820 755,-1820 755,-1820 755,-1831.33 755,-1831.33"/>
<polygon fill="#7b8894" stroke="#7b8894" points="751.5,-1831.33 755,-1841.33 758.5,-1831.33 751.5,-1831.33"/>
<text text-anchor="middle" x="605" y="-1769.6" font-family="Sans-Serif" font-size="13.00" fill="darkgrey">t_contrats_offres_energie</text>
</g>
<!-- bdd7326da32d4ddca55e8fa34c10f607 -->
<g id="node15" class="node">
<title>bdd7326da32d4ddca55e8fa34c10f607</title>
<image xlink:href="icons/bigquery.png" width="101px" height="101px" preserveAspectRatio="xMinYMin meet" x="16" y="-1420.5"/>
<text text-anchor="middle" x="66.5" y="-1305.1" font-family="Sans-Serif" font-size="13.00" fill="#2d3436">[?config?].t_ama_realise</text>
</g>
<!-- bdd7326da32d4ddca55e8fa34c10f607&#45;&gt;2358967aab784354bc8244ed002e120b -->
<g id="edge11" class="edge">
<title>bdd7326da32d4ddca55e8fa34c10f607&#45;&gt;2358967aab784354bc8244ed002e120b</title>
<path fill="none" stroke="#7b8894" d="M117.35,-1370C155.08,-1370 200,-1370 200,-1370 200,-1370 200,-1759.36 200,-1759.36 200,-1759.36 394.72,-1759.36 394.72,-1759.36"/>
<polygon fill="#7b8894" stroke="#7b8894" points="394.72,-1762.86 404.72,-1759.36 394.72,-1755.86 394.72,-1762.86"/>
<text text-anchor="middle" x="261" y="-1477.6" font-family="Sans-Serif" font-size="13.00" fill="darkgrey">t_contrats_offres_energie_hors_depenses</text>
</g>
<!-- 0178894f06114f67bf7b38def6c7c895 -->
<g id="node16" class="node">
<title>0178894f06114f67bf7b38def6c7c895</title>
<image xlink:href="icons/bigquery.png" width="101px" height="101px" preserveAspectRatio="xMinYMin meet" x="16" y="-1240.5"/>
<text text-anchor="middle" x="66.5" y="-1125.1" font-family="Sans-Serif" font-size="13.00" fill="#2d3436">[?config?].e_ds_comper_objectifs_2018_seulement</text>
</g>
<!-- 0178894f06114f67bf7b38def6c7c895&#45;&gt;2358967aab784354bc8244ed002e120b -->
<g id="edge12" class="edge">
<title>0178894f06114f67bf7b38def6c7c895&#45;&gt;2358967aab784354bc8244ed002e120b</title>
<path fill="none" stroke="#7b8894" d="M117.44,-1190C168.95,-1190 241,-1190 241,-1190 241,-1190 241,-1739.79 241,-1739.79 241,-1739.79 394.94,-1739.79 394.94,-1739.79"/>
<polygon fill="#7b8894" stroke="#7b8894" points="394.94,-1743.29 404.94,-1739.79 394.94,-1736.29 394.94,-1743.29"/>
<text text-anchor="middle" x="261" y="-1304.6" font-family="Sans-Serif" font-size="13.00" fill="darkgrey">t_contrats_offres_energie_hors_depenses</text>
</g>
<!-- 94b214402ecb43c7b48fc351aa32a817 -->
<g id="node17" class="node">
<title>94b214402ecb43c7b48fc351aa32a817</title>
<image xlink:href="icons/bigquery.png" width="101px" height="101px" preserveAspectRatio="xMinYMin meet" x="16" y="-1060.5"/>
<text text-anchor="middle" x="66.5" y="-945.1" font-family="Sans-Serif" font-size="13.00" fill="#2d3436">[?config?].e_ds_comper_objectifs_2019_seulement</text>
</g>
<!-- 94b214402ecb43c7b48fc351aa32a817&#45;&gt;2358967aab784354bc8244ed002e120b -->
<g id="edge13" class="edge">
<title>94b214402ecb43c7b48fc351aa32a817&#45;&gt;2358967aab784354bc8244ed002e120b</title>
<path fill="none" stroke="#7b8894" d="M117.03,-1010C180.72,-1010 282,-1010 282,-1010 282,-1010 282,-1720.21 282,-1720.21 282,-1720.21 394.85,-1720.21 394.85,-1720.21"/>
<polygon fill="#7b8894" stroke="#7b8894" points="394.85,-1723.71 404.85,-1720.21 394.85,-1716.71 394.85,-1723.71"/>
<text text-anchor="middle" x="261" y="-1127.6" font-family="Sans-Serif" font-size="13.00" fill="darkgrey">t_contrats_offres_energie_hors_depenses</text>
</g>
<!-- 3623ee1194d04940802e0dfeaab85e59 -->
<g id="node18" class="node">
<title>3623ee1194d04940802e0dfeaab85e59</title>
<image xlink:href="icons/bigquery.png" width="101px" height="101px" preserveAspectRatio="xMinYMin meet" x="16" y="-880.5"/>
<text text-anchor="middle" x="66.5" y="-765.1" font-family="Sans-Serif" font-size="13.00" fill="#2d3436">[?config?].t_datastudio_point_de_sortie</text>
</g>
<!-- 3623ee1194d04940802e0dfeaab85e59&#45;&gt;2358967aab784354bc8244ed002e120b -->
<g id="edge14" class="edge">
<title>3623ee1194d04940802e0dfeaab85e59&#45;&gt;2358967aab784354bc8244ed002e120b</title>
<path fill="none" stroke="#7b8894" d="M117.18,-830C191.93,-830 323,-830 323,-830 323,-830 323,-1700.64 323,-1700.64 323,-1700.64 394.65,-1700.64 394.65,-1700.64"/>
<polygon fill="#7b8894" stroke="#7b8894" points="394.65,-1704.14 404.65,-1700.64 394.65,-1697.14 394.65,-1704.14"/>
<text text-anchor="middle" x="261" y="-949.6" font-family="Sans-Serif" font-size="13.00" fill="darkgrey">t_contrats_offres_energie_hors_depenses</text>
</g>
<!-- 4e5e3866b1f443b0ab678a17633546cc -->
<g id="node19" class="node">
<title>4e5e3866b1f443b0ab678a17633546cc</title>
<image xlink:href="icons/bigquery.png" width="101px" height="101px" preserveAspectRatio="xMinYMin meet" x="16" y="-700.5"/>
<text text-anchor="middle" x="66.5" y="-585.1" font-family="Sans-Serif" font-size="13.00" fill="#2d3436">[?config?].e_ds_comper_objectifs</text>
</g>
<!-- 4e5e3866b1f443b0ab678a17633546cc&#45;&gt;2358967aab784354bc8244ed002e120b -->
<g id="edge15" class="edge">
<title>4e5e3866b1f443b0ab678a17633546cc&#45;&gt;2358967aab784354bc8244ed002e120b</title>
<path fill="none" stroke="#7b8894" d="M117.3,-650C202.27,-650 364,-650 364,-650 364,-650 364,-1681.07 364,-1681.07 364,-1681.07 394.93,-1681.07 394.93,-1681.07"/>
<polygon fill="#7b8894" stroke="#7b8894" points="394.93,-1684.57 404.93,-1681.07 394.93,-1677.57 394.93,-1684.57"/>
<text text-anchor="middle" x="261" y="-712.6" font-family="Sans-Serif" font-size="13.00" fill="darkgrey">t_contrats_offres_energie_hors_depenses</text>
</g>
<!-- ca095df28f6a491687f761a9e9b0bdb8 -->
<g id="node21" class="node">
<title>ca095df28f6a491687f761a9e9b0bdb8</title>
<image xlink:href="icons/bigquery.png" width="101px" height="101px" preserveAspectRatio="xMinYMin meet" x="405" y="-1600.5"/>
<text text-anchor="middle" x="455.5" y="-1485.1" font-family="Sans-Serif" font-size="13.00" fill="#2d3436">depenses.e_gsheet_depenses_acquisition</text>
</g>
<!-- ca095df28f6a491687f761a9e9b0bdb8&#45;&gt;5ec4ef0546e44cfc82957a720d3b934b -->
<g id="edge17" class="edge">
<title>ca095df28f6a491687f761a9e9b0bdb8&#45;&gt;5ec4ef0546e44cfc82957a720d3b934b</title>
<path fill="none" stroke="#7b8894" d="M506.28,-1550C553.3,-1550 616,-1550 616,-1550 616,-1550 616,-2055.75 616,-2055.75 616,-2055.75 693.71,-2055.75 693.71,-2055.75"/>
<polygon fill="#7b8894" stroke="#7b8894" points="693.71,-2059.25 703.71,-2055.75 693.71,-2052.25 693.71,-2059.25"/>
<text text-anchor="middle" x="605" y="-1630.6" font-family="Sans-Serif" font-size="13.00" fill="darkgrey">t_depenses_acquisition</text>
</g>
<!-- 686734cc6652451ea925b28a8b1ff7a4 -->
<g id="node23" class="node">
<title>686734cc6652451ea925b28a8b1ff7a4</title>
<image xlink:href="icons/bigquery.png" width="101px" height="101px" preserveAspectRatio="xMinYMin meet" x="405" y="-1960.5"/>
<text text-anchor="middle" x="455.5" y="-1845.1" font-family="Sans-Serif" font-size="13.00" fill="#2d3436">depenses.e_gsheet_depenses_traitement</text>
</g>
<!-- 686734cc6652451ea925b28a8b1ff7a4&#45;&gt;c83387d64088409e85a2afed3571483e -->
<g id="edge19" class="edge">
<title>686734cc6652451ea925b28a8b1ff7a4&#45;&gt;c83387d64088409e85a2afed3571483e</title>
<path fill="none" stroke="#7b8894" d="M506.07,-1951.1C528.54,-1951.1 550,-1951.1 550,-1951.1 550,-1951.1 550,-2292.83 550,-2292.83 550,-2292.83 693.95,-2292.83 693.95,-2292.83"/>
<polygon fill="#7b8894" stroke="#7b8894" points="693.95,-2296.33 703.95,-2292.83 693.95,-2289.33 693.95,-2296.33"/>
<text text-anchor="middle" x="605" y="-2076.6" font-family="Sans-Serif" font-size="13.00" fill="darkgrey">t_depenses_traitement</text>
</g>
<!-- 78cd3bc8b70947d58d9565d7a5505151 -->
<g id="node28" class="node">
<title>78cd3bc8b70947d58d9565d7a5505151</title>
<image xlink:href="icons/bigquery.png" width="101px" height="101px" preserveAspectRatio="xMinYMin meet" x="1045" y="-1060.5"/>
<text text-anchor="middle" x="1095.5" y="-945.1" font-family="Sans-Serif" font-size="13.00" fill="#2d3436">comper.l_v_digi_to_ds_comper_ventes_digitales</text>
</g>
<!-- 57baf300c6704c6c8578fdf18ca60a42&#45;&gt;78cd3bc8b70947d58d9565d7a5505151 -->
<g id="edge24" class="edge">
<title>57baf300c6704c6c8578fdf18ca60a42&#45;&gt;78cd3bc8b70947d58d9565d7a5505151</title>
<path fill="none" stroke="#7b8894" d="M805.14,-1910C907.64,-1910 1130,-1910 1130,-1910 1130,-1910 1130,-1088.76 1130,-1088.76"/>
<polygon fill="#7b8894" stroke="#7b8894" points="1133.5,-1088.76 1130,-1078.76 1126.5,-1088.76 1133.5,-1088.76"/>
<text text-anchor="middle" x="925" y="-1798.6" font-family="Sans-Serif" font-size="13.00" fill="darkgrey">l_to_ds_comper_ventes_digitales</text>
</g>
<!-- 0b9193aed14745649f73d60503a3862e -->
<g id="node25" class="node">
<title>0b9193aed14745649f73d60503a3862e</title>
<image xlink:href="icons/bigquery.png" width="101px" height="101px" preserveAspectRatio="xMinYMin meet" x="405" y="-1420.5"/>
<text text-anchor="middle" x="455.5" y="-1305.1" font-family="Sans-Serif" font-size="13.00" fill="#2d3436">[?config?].t_datastudio_depenses_acquisition</text>
</g>
<!-- 0b9193aed14745649f73d60503a3862e&#45;&gt;57baf300c6704c6c8578fdf18ca60a42 -->
<g id="edge21" class="edge">
<title>0b9193aed14745649f73d60503a3862e&#45;&gt;57baf300c6704c6c8578fdf18ca60a42</title>
<path fill="none" stroke="#7b8894" d="M506.34,-1370C560.34,-1370 638,-1370 638,-1370 638,-1370 638,-1923.7 638,-1923.7 638,-1923.7 693.74,-1923.7 693.74,-1923.7"/>
<polygon fill="#7b8894" stroke="#7b8894" points="693.74,-1927.2 703.74,-1923.7 693.74,-1920.2 693.74,-1927.2"/>
<text text-anchor="middle" x="605" y="-1470.6" font-family="Sans-Serif" font-size="13.00" fill="darkgrey">t_contrats_offres_energie</text>
</g>
<!-- 19b496680f334d4383dff05230086486 -->
<g id="node26" class="node">
<title>19b496680f334d4383dff05230086486</title>
<image xlink:href="icons/bigquery.png" width="101px" height="101px" preserveAspectRatio="xMinYMin meet" x="405" y="-1240.5"/>
<text text-anchor="middle" x="455.5" y="-1125.1" font-family="Sans-Serif" font-size="13.00" fill="#2d3436">[?config?].t_datastudio_depenses_traitement</text>
</g>
<!-- 19b496680f334d4383dff05230086486&#45;&gt;57baf300c6704c6c8578fdf18ca60a42 -->
<g id="edge22" class="edge">
<title>19b496680f334d4383dff05230086486&#45;&gt;57baf300c6704c6c8578fdf18ca60a42</title>
<path fill="none" stroke="#7b8894" d="M506.05,-1190C566.61,-1190 660,-1190 660,-1190 660,-1190 660,-1896.3 660,-1896.3 660,-1896.3 693.93,-1896.3 693.93,-1896.3"/>
<polygon fill="#7b8894" stroke="#7b8894" points="693.93,-1899.8 703.93,-1896.3 693.93,-1892.8 693.93,-1899.8"/>
<text text-anchor="middle" x="605" y="-1300.6" font-family="Sans-Serif" font-size="13.00" fill="darkgrey">t_contrats_offres_energie</text>
</g>
<!-- c976e004d6614975a174235896defcf5 -->
<g id="node27" class="node">
<title>c976e004d6614975a174235896defcf5</title>
<image xlink:href="icons/bigquery.png" width="101px" height="101px" preserveAspectRatio="xMinYMin meet" x="405" y="-1060.5"/>
<text text-anchor="middle" x="455.5" y="-945.1" font-family="Sans-Serif" font-size="13.00" fill="#2d3436">[?config?].l_datastudio_contrats_offres_energie_avant_2021</text>
</g>
<!-- c976e004d6614975a174235896defcf5&#45;&gt;57baf300c6704c6c8578fdf18ca60a42 -->
<g id="edge23" class="edge">
<title>c976e004d6614975a174235896defcf5&#45;&gt;57baf300c6704c6c8578fdf18ca60a42</title>
<path fill="none" stroke="#7b8894" d="M506.05,-1010C572.8,-1010 682,-1010 682,-1010 682,-1010 682,-1868.9 682,-1868.9 682,-1868.9 693.75,-1868.9 693.75,-1868.9"/>
<polygon fill="#7b8894" stroke="#7b8894" points="693.75,-1872.4 703.75,-1868.9 693.75,-1865.4 693.75,-1872.4"/>
<text text-anchor="middle" x="605" y="-1125.6" font-family="Sans-Serif" font-size="13.00" fill="darkgrey">t_contrats_offres_energie</text>
</g>
<!-- addd6eaf260c43c9824593d2423d5c1b -->
<g id="node29" class="node">
<title>addd6eaf260c43c9824593d2423d5c1b</title>
<image xlink:href="icons/bigquery.png" width="101px" height="101px" preserveAspectRatio="xMinYMin meet" x="704" y="-1780.5"/>
<text text-anchor="middle" x="754.5" y="-1665.1" font-family="Sans-Serif" font-size="13.00" fill="#2d3436">[?config?].l_ama_to_ds_comper_contrats_services</text>
</g>
<!-- addd6eaf260c43c9824593d2423d5c1b&#45;&gt;78cd3bc8b70947d58d9565d7a5505151 -->
<g id="edge25" class="edge">
<title>addd6eaf260c43c9824593d2423d5c1b&#45;&gt;78cd3bc8b70947d58d9565d7a5505151</title>
<path fill="none" stroke="#7b8894" d="M805.1,-1730C903.92,-1730 1113,-1730 1113,-1730 1113,-1730 1113,-1088.71 1113,-1088.71"/>
<polygon fill="#7b8894" stroke="#7b8894" points="1116.5,-1088.71 1113,-1078.71 1109.5,-1088.71 1116.5,-1088.71"/>
<text text-anchor="middle" x="925" y="-1622.6" font-family="Sans-Serif" font-size="13.00" fill="darkgrey">l_to_ds_comper_ventes_digitales</text>
</g>
<!-- dc1a9eb2ca5c4c94a32e384e71f44869 -->
<g id="node30" class="node">
<title>dc1a9eb2ca5c4c94a32e384e71f44869</title>
<image xlink:href="icons/bigquery.png" width="101px" height="101px" preserveAspectRatio="xMinYMin meet" x="704" y="-1600.5"/>
<text text-anchor="middle" x="754.5" y="-1485.1" font-family="Sans-Serif" font-size="13.00" fill="#2d3436">[?config?].l_ama_to_ds_comper_options_vertes</text>
</g>
<!-- dc1a9eb2ca5c4c94a32e384e71f44869&#45;&gt;78cd3bc8b70947d58d9565d7a5505151 -->
<g id="edge26" class="edge">
<title>dc1a9eb2ca5c4c94a32e384e71f44869&#45;&gt;78cd3bc8b70947d58d9565d7a5505151</title>
<path fill="none" stroke="#7b8894" d="M805.26,-1550C900.39,-1550 1096,-1550 1096,-1550 1096,-1550 1096,-1088.67 1096,-1088.67"/>
<polygon fill="#7b8894" stroke="#7b8894" points="1099.5,-1088.67 1096,-1078.67 1092.5,-1088.67 1099.5,-1088.67"/>
<text text-anchor="middle" x="925" y="-1449.6" font-family="Sans-Serif" font-size="13.00" fill="darkgrey">l_to_ds_comper_ventes_digitales</text>
</g>
<!-- fb233ff4edbc4a3da77a3cf6071d80b5 -->
<g id="node31" class="node">
<title>fb233ff4edbc4a3da77a3cf6071d80b5</title>
<image xlink:href="icons/bigquery.png" width="101px" height="101px" preserveAspectRatio="xMinYMin meet" x="704" y="-1420.5"/>
<text text-anchor="middle" x="754.5" y="-1305.1" font-family="Sans-Serif" font-size="13.00" fill="#2d3436">[?config?].l_ama_to_ds_comper_t_ama_parrainage</text>
</g>
<!-- fb233ff4edbc4a3da77a3cf6071d80b5&#45;&gt;78cd3bc8b70947d58d9565d7a5505151 -->
<g id="edge27" class="edge">
<title>fb233ff4edbc4a3da77a3cf6071d80b5&#45;&gt;78cd3bc8b70947d58d9565d7a5505151</title>
<path fill="none" stroke="#7b8894" d="M805.2,-1370C896.47,-1370 1079,-1370 1079,-1370 1079,-1370 1079,-1088.56 1079,-1088.56"/>
<polygon fill="#7b8894" stroke="#7b8894" points="1082.5,-1088.56 1079,-1078.56 1075.5,-1088.56 1082.5,-1088.56"/>
<text text-anchor="middle" x="925" y="-1284.6" font-family="Sans-Serif" font-size="13.00" fill="darkgrey">l_to_ds_comper_ventes_digitales</text>
</g>
<!-- fba8ac184fdd40e2ae6c28fb7d9a6a6d -->
<g id="node32" class="node">
<title>fba8ac184fdd40e2ae6c28fb7d9a6a6d</title>
<image xlink:href="icons/bigquery.png" width="101px" height="101px" preserveAspectRatio="xMinYMin meet" x="704" y="-1240.5"/>
<text text-anchor="middle" x="754.5" y="-1125.1" font-family="Sans-Serif" font-size="13.00" fill="#2d3436">[?config?].l_ga_to_ds_comper_e_gsheet_cee_souscriptions</text>
</g>
<!-- fba8ac184fdd40e2ae6c28fb7d9a6a6d&#45;&gt;78cd3bc8b70947d58d9565d7a5505151 -->
<g id="edge28" class="edge">
<title>fba8ac184fdd40e2ae6c28fb7d9a6a6d&#45;&gt;78cd3bc8b70947d58d9565d7a5505151</title>
<path fill="none" stroke="#7b8894" d="M805.28,-1190C892.62,-1190 1062,-1190 1062,-1190 1062,-1190 1062,-1088.56 1062,-1088.56"/>
<polygon fill="#7b8894" stroke="#7b8894" points="1065.5,-1088.56 1062,-1078.56 1058.5,-1088.56 1065.5,-1088.56"/>
<text text-anchor="middle" x="925" y="-1134.6" font-family="Sans-Serif" font-size="13.00" fill="darkgrey">l_to_ds_comper_ventes_digitales</text>
</g>
<!-- 3da775cb3d514c82be88839c62d97b7b -->
<g id="node33" class="node">
<title>3da775cb3d514c82be88839c62d97b7b</title>
<image xlink:href="icons/bigquery.png" width="101px" height="101px" preserveAspectRatio="xMinYMin meet" x="704" y="-1060.5"/>
<text text-anchor="middle" x="754.5" y="-945.1" font-family="Sans-Serif" font-size="13.00" fill="#2d3436">[?config?].l_ama_to_ds_comper_bout_en_bout_equipements</text>
</g>
<!-- 3da775cb3d514c82be88839c62d97b7b&#45;&gt;78cd3bc8b70947d58d9565d7a5505151 -->
<g id="edge29" class="edge">
<title>3da775cb3d514c82be88839c62d97b7b&#45;&gt;78cd3bc8b70947d58d9565d7a5505151</title>
<path fill="none" stroke="#7b8894" d="M805.18,-1010C805.18,-1010 1034.82,-1010 1034.82,-1010"/>
<polygon fill="#7b8894" stroke="#7b8894" points="1034.82,-1013.5 1044.82,-1010 1034.82,-1006.5 1034.82,-1013.5"/>
<text text-anchor="middle" x="925" y="-1013.6" font-family="Sans-Serif" font-size="13.00" fill="darkgrey">l_to_ds_comper_ventes_digitales</text>
</g>
<!-- 266c735f5836412f946c506b1fdc709d -->
<g id="node34" class="node">
<title>266c735f5836412f946c506b1fdc709d</title>
<image xlink:href="icons/bigquery.png" width="101px" height="101px" preserveAspectRatio="xMinYMin meet" x="704" y="-880.5"/>
<text text-anchor="middle" x="754.5" y="-765.1" font-family="Sans-Serif" font-size="13.00" fill="#2d3436">[?config?].e_ds_comper_objectifs_hors_energie</text>
</g>
<!-- 266c735f5836412f946c506b1fdc709d&#45;&gt;78cd3bc8b70947d58d9565d7a5505151 -->
<g id="edge30" class="edge">
<title>266c735f5836412f946c506b1fdc709d&#45;&gt;78cd3bc8b70947d58d9565d7a5505151</title>
<path fill="none" stroke="#7b8894" d="M805.28,-830C892.62,-830 1062,-830 1062,-830 1062,-830 1062,-931.44 1062,-931.44"/>
<polygon fill="#7b8894" stroke="#7b8894" points="1058.5,-931.44 1062,-941.44 1065.5,-931.44 1058.5,-931.44"/>
<text text-anchor="middle" x="925" y="-892.6" font-family="Sans-Serif" font-size="13.00" fill="darkgrey">l_to_ds_comper_ventes_digitales</text>
</g>
<!-- 073c8886a31d4dff90882ac19c1db1cf -->
<g id="node35" class="node">
<title>073c8886a31d4dff90882ac19c1db1cf</title>
<image xlink:href="icons/bigquery.png" width="101px" height="101px" preserveAspectRatio="xMinYMin meet" x="704" y="-700.5"/>
<text text-anchor="middle" x="754.5" y="-585.1" font-family="Sans-Serif" font-size="13.00" fill="#2d3436">[?config?].l_mypower_to_ds_comper_mypower</text>
</g>
<!-- 073c8886a31d4dff90882ac19c1db1cf&#45;&gt;78cd3bc8b70947d58d9565d7a5505151 -->
<g id="edge31" class="edge">
<title>073c8886a31d4dff90882ac19c1db1cf&#45;&gt;78cd3bc8b70947d58d9565d7a5505151</title>
<path fill="none" stroke="#7b8894" d="M805.2,-650C896.47,-650 1079,-650 1079,-650 1079,-650 1079,-931.44 1079,-931.44"/>
<polygon fill="#7b8894" stroke="#7b8894" points="1075.5,-931.44 1079,-941.44 1082.5,-931.44 1075.5,-931.44"/>
<text text-anchor="middle" x="925" y="-741.6" font-family="Sans-Serif" font-size="13.00" fill="darkgrey">l_to_ds_comper_ventes_digitales</text>
</g>
<!-- 61f75e0324154758ae6573e2b102034f -->
<g id="node36" class="node">
<title>61f75e0324154758ae6573e2b102034f</title>
<image xlink:href="icons/bigquery.png" width="101px" height="101px" preserveAspectRatio="xMinYMin meet" x="704" y="-520.5"/>
<text text-anchor="middle" x="754.5" y="-405.1" font-family="Sans-Serif" font-size="13.00" fill="#2d3436">[?config?].l_ama_to_ds_comper_prelevement_mensualisation</text>
</g>
<!-- 61f75e0324154758ae6573e2b102034f&#45;&gt;78cd3bc8b70947d58d9565d7a5505151 -->
<g id="edge32" class="edge">
<title>61f75e0324154758ae6573e2b102034f&#45;&gt;78cd3bc8b70947d58d9565d7a5505151</title>
<path fill="none" stroke="#7b8894" d="M805.26,-470C900.39,-470 1096,-470 1096,-470 1096,-470 1096,-931.33 1096,-931.33"/>
<polygon fill="#7b8894" stroke="#7b8894" points="1092.5,-931.33 1096,-941.33 1099.5,-931.33 1092.5,-931.33"/>
<text text-anchor="middle" x="925" y="-576.6" font-family="Sans-Serif" font-size="13.00" fill="darkgrey">l_to_ds_comper_ventes_digitales</text>
</g>
<!-- b2ed58ce1b414229b0757397518524bd -->
<g id="node37" class="node">
<title>b2ed58ce1b414229b0757397518524bd</title>
<image xlink:href="icons/bigquery.png" width="101px" height="101px" preserveAspectRatio="xMinYMin meet" x="704" y="-340.5"/>
<text text-anchor="middle" x="754.5" y="-225.1" font-family="Sans-Serif" font-size="13.00" fill="#2d3436">[?config?].l_ama_to_ds_comper_activation_energie</text>
</g>
<!-- b2ed58ce1b414229b0757397518524bd&#45;&gt;78cd3bc8b70947d58d9565d7a5505151 -->
<g id="edge33" class="edge">
<title>b2ed58ce1b414229b0757397518524bd&#45;&gt;78cd3bc8b70947d58d9565d7a5505151</title>
<path fill="none" stroke="#7b8894" d="M805.1,-290C903.92,-290 1113,-290 1113,-290 1113,-290 1113,-931.29 1113,-931.29"/>
<polygon fill="#7b8894" stroke="#7b8894" points="1109.5,-931.29 1113,-941.29 1116.5,-931.29 1109.5,-931.29"/>
<text text-anchor="middle" x="925" y="-403.6" font-family="Sans-Serif" font-size="13.00" fill="darkgrey">l_to_ds_comper_ventes_digitales</text>
</g>
<!-- eddce1a2dc9a4d12b6f275e5d703ccaa -->
<g id="node38" class="node">
<title>eddce1a2dc9a4d12b6f275e5d703ccaa</title>
<image xlink:href="icons/bigquery.png" width="101px" height="101px" preserveAspectRatio="xMinYMin meet" x="704" y="-160.5"/>
<text text-anchor="middle" x="754.5" y="-45.1" font-family="Sans-Serif" font-size="13.00" fill="#2d3436">[?config?].l_ga_to_ds_comper_sessions</text>
</g>
<!-- eddce1a2dc9a4d12b6f275e5d703ccaa&#45;&gt;78cd3bc8b70947d58d9565d7a5505151 -->
<g id="edge34" class="edge">
<title>eddce1a2dc9a4d12b6f275e5d703ccaa&#45;&gt;78cd3bc8b70947d58d9565d7a5505151</title>
<path fill="none" stroke="#7b8894" d="M805.14,-110C907.64,-110 1130,-110 1130,-110 1130,-110 1130,-931.24 1130,-931.24"/>
<polygon fill="#7b8894" stroke="#7b8894" points="1126.5,-931.24 1130,-941.24 1133.5,-931.24 1126.5,-931.24"/>
<text text-anchor="middle" x="925" y="-227.6" font-family="Sans-Serif" font-size="13.00" fill="darkgrey">l_to_ds_comper_ventes_digitales</text>
</g>
</g>
</svg>
