<?xml version="1.0" encoding="UTF-8" standalone="no"?>
<!DOCTYPE svg PUBLIC "-//W3C//DTD SVG 1.1//EN"
 "http://www.w3.org/Graphics/SVG/1.1/DTD/svg11.dtd">
<!-- Generated by graphviz version 2.47.1 (20210417.1919)
 -->
<!-- Title: dareboost Pages: 1 -->
<svg width="985pt" height="684pt"
 viewBox="0.00 0.00 985.00 684.00" xmlns="http://www.w3.org/2000/svg" xmlns:xlink="http://www.w3.org/1999/xlink">
<g id="graph0" class="graph" transform="scale(1 1) rotate(0) translate(144 540)">
<title>dareboost</title>
<text text-anchor="middle" x="348.5" y="-9" font-family="Sans-Serif" font-size="15.00" fill="#2d3436">dareboost</text>
<g id="clust1" class="cluster">
<title>cluster_dareboost</title>
<path fill="#e5f5fd" stroke="#aeb6be" d="M20,-33C20,-33 677,-33 677,-33 683,-33 689,-39 689,-45 689,-45 689,-376 689,-376 689,-382 683,-388 677,-388 677,-388 20,-388 20,-388 14,-388 8,-382 8,-376 8,-376 8,-45 8,-45 8,-39 14,-33 20,-33"/>
<text text-anchor="middle" x="42.5" y="-374.4" font-family="Sans-Serif" font-size="12.00" fill="#2d3436">dareboost</text>
</g>
<!-- dc821fa2a8ef43dc851f931544053355 -->
<g id="node1" class="node">
<title>dc821fa2a8ef43dc851f931544053355</title>
<image xlink:href="icons/dareboost.png" width="101px" height="101px" preserveAspectRatio="xMinYMin meet" x="16" y="-191.5"/>
<text text-anchor="middle" x="66.5" y="-76.1" font-family="Sans-Serif" font-size="13.00" fill="#2d3436">Dareboost API</text>
</g>
<!-- 4947b04bfccb422abaa661a188e18329 -->
<g id="node2" class="node">
<title>4947b04bfccb422abaa661a188e18329</title>
<image xlink:href="icons/bigquery.png" width="101px" height="101px" preserveAspectRatio="xMinYMin meet" x="244" y="-160.5"/>
<text text-anchor="middle" x="294.5" y="-45.1" font-family="Sans-Serif" font-size="13.00" fill="#2d3436">dareboost.e_dbst_monitoring_api</text>
</g>
<!-- dc821fa2a8ef43dc851f931544053355&#45;&gt;4947b04bfccb422abaa661a188e18329 -->
<g id="edge1" class="edge">
<title>dc821fa2a8ef43dc851f931544053355&#45;&gt;4947b04bfccb422abaa661a188e18329</title>
<path fill="none" stroke="#7b8894" d="M117.1,-125.5C117.1,-125.5 233.65,-125.5 233.65,-125.5"/>
<polygon fill="#7b8894" stroke="#7b8894" points="233.65,-129 243.65,-125.5 233.65,-122 233.65,-129"/>
<text text-anchor="middle" x="180.5" y="-128.6" font-family="Sans-Serif" font-size="13.00" fill="darkgrey">e_monitoring</text>
</g>
<!-- f7a090af06e84c53b1647ee868606332 -->
<g id="node3" class="node">
<title>f7a090af06e84c53b1647ee868606332</title>
<image xlink:href="icons/bigquery.png" width="101px" height="101px" preserveAspectRatio="xMinYMin meet" x="244" y="-340.5"/>
<text text-anchor="middle" x="294.5" y="-225.1" font-family="Sans-Serif" font-size="13.00" fill="#2d3436">dareboost.e_dbst_scenarios_api</text>
</g>
<!-- dc821fa2a8ef43dc851f931544053355&#45;&gt;f7a090af06e84c53b1647ee868606332 -->
<g id="edge2" class="edge">
<title>dc821fa2a8ef43dc851f931544053355&#45;&gt;f7a090af06e84c53b1647ee868606332</title>
<path fill="none" stroke="#7b8894" d="M117.21,-194C184.53,-194 295,-194 295,-194 295,-194 295,-211.25 295,-211.25"/>
<polygon fill="#7b8894" stroke="#7b8894" points="291.5,-211.25 295,-221.25 298.5,-211.25 291.5,-211.25"/>
<text text-anchor="middle" x="180.5" y="-249.6" font-family="Sans-Serif" font-size="13.00" fill="darkgrey">e_scenarios</text>
</g>
<!-- 8ebbd2e90434462e9d3b0eebabae0c98 -->
<g id="node4" class="node">
<title>8ebbd2e90434462e9d3b0eebabae0c98</title>
<image xlink:href="icons/bigquery.png" width="101px" height="101px" preserveAspectRatio="xMinYMin meet" x="580" y="-220.5"/>
<text text-anchor="middle" x="630.5" y="-105.1" font-family="Sans-Serif" font-size="13.00" fill="#2d3436">dareboost.l_dbst_to_datastudio_mesures_jours</text>
</g>
<!-- 4947b04bfccb422abaa661a188e18329&#45;&gt;8ebbd2e90434462e9d3b0eebabae0c98 -->
<g id="edge3" class="edge">
<title>4947b04bfccb422abaa661a188e18329&#45;&gt;8ebbd2e90434462e9d3b0eebabae0c98</title>
<path fill="none" stroke="#7b8894" d="M345.17,-140C345.17,-140 569.97,-140 569.97,-140"/>
<polygon fill="#7b8894" stroke="#7b8894" points="569.97,-143.5 579.97,-140 569.97,-136.5 569.97,-143.5"/>
<text text-anchor="middle" x="462.5" y="-142.6" font-family="Sans-Serif" font-size="13.00" fill="darkgrey">l_to_datastudio_monitoring_jour</text>
</g>
<!-- f7a090af06e84c53b1647ee868606332&#45;&gt;8ebbd2e90434462e9d3b0eebabae0c98 -->
<g id="edge4" class="edge">
<title>f7a090af06e84c53b1647ee868606332&#45;&gt;8ebbd2e90434462e9d3b0eebabae0c98</title>
<path fill="none" stroke="#7b8894" d="M345.17,-230C345.17,-230 569.97,-230 569.97,-230"/>
<polygon fill="#7b8894" stroke="#7b8894" points="569.97,-233.5 579.97,-230 569.97,-226.5 569.97,-233.5"/>
<text text-anchor="middle" x="462.5" y="-263.6" font-family="Sans-Serif" font-size="13.00" fill="darkgrey">l_to_datastudio_scenarios_jour</text>
</g>
</g>
</svg>
