<?xml version="1.0" encoding="UTF-8" standalone="no"?>
<!DOCTYPE svg PUBLIC "-//W3C//DTD SVG 1.1//EN"
 "http://www.w3.org/Graphics/SVG/1.1/DTD/svg11.dtd">
<!-- Generated by graphviz version 2.47.1 (20210417.1919)
 -->
<!-- Title: dashboard_seo Pages: 1 -->
<svg width="732pt" height="1044pt"
 viewBox="0.00 0.00 732.00 1044.00" xmlns="http://www.w3.org/2000/svg" xmlns:xlink="http://www.w3.org/1999/xlink">
<g id="graph0" class="graph" transform="scale(1 1) rotate(0) translate(144 900)">
<title>dashboard_seo</title>
<text text-anchor="middle" x="222" y="-9" font-family="Sans-Serif" font-size="15.00" fill="#2d3436">dashboard_seo</text>
<g id="clust1" class="cluster">
<title>cluster_dashboard_seo</title>
<path fill="#e5f5fd" stroke="#aeb6be" d="M20,-33C20,-33 424,-33 424,-33 430,-33 436,-39 436,-45 436,-45 436,-736 436,-736 436,-742 430,-748 424,-748 424,-748 20,-748 20,-748 14,-748 8,-742 8,-736 8,-736 8,-45 8,-45 8,-39 14,-33 20,-33"/>
<text text-anchor="middle" x="56.5" y="-734.4" font-family="Sans-Serif" font-size="12.00" fill="#2d3436">dashboard_seo</text>
</g>
<!-- 51f5de2840f64819a3b88cb58e7e0b9c -->
<g id="node1" class="node">
<title>51f5de2840f64819a3b88cb58e7e0b9c</title>
<image xlink:href="icons/bigquery.png" width="101px" height="101px" preserveAspectRatio="xMinYMin meet" x="16" y="-430.5"/>
<text text-anchor="middle" x="66.5" y="-315.1" font-family="Sans-Serif" font-size="13.00" fill="#2d3436">ga.t_ga_sessions</text>
</g>
<!-- 562bd6b358a944c99593ab4f842140f1 -->
<g id="node2" class="node">
<title>562bd6b358a944c99593ab4f842140f1</title>
<image xlink:href="icons/bigquery.png" width="101px" height="101px" preserveAspectRatio="xMinYMin meet" x="327" y="-520.5"/>
<text text-anchor="middle" x="377.5" y="-405.1" font-family="Sans-Serif" font-size="13.00" fill="#2d3436">ds_seo.l_ga_to_ds_seo_traffic_usine</text>
</g>
<!-- 51f5de2840f64819a3b88cb58e7e0b9c&#45;&gt;562bd6b358a944c99593ab4f842140f1 -->
<g id="edge1" class="edge">
<title>51f5de2840f64819a3b88cb58e7e0b9c&#45;&gt;562bd6b358a944c99593ab4f842140f1</title>
<path fill="none" stroke="#7b8894" d="M117.16,-425C117.16,-425 316.86,-425 316.86,-425"/>
<polygon fill="#7b8894" stroke="#7b8894" points="316.86,-428.5 326.86,-425 316.86,-421.5 316.86,-428.5"/>
<text text-anchor="middle" x="222" y="-443.6" font-family="Sans-Serif" font-size="13.00" fill="darkgrey">l_to_ds_seo_traffic_usine</text>
</g>
<!-- 0b259855a7774a008ffc7130131f9ee0 -->
<g id="node3" class="node">
<title>0b259855a7774a008ffc7130131f9ee0</title>
<image xlink:href="icons/bigquery.png" width="101px" height="101px" preserveAspectRatio="xMinYMin meet" x="327" y="-700.5"/>
<text text-anchor="middle" x="377.5" y="-585.1" font-family="Sans-Serif" font-size="13.00" fill="#2d3436">ds_seo.l_ga_to_ds_seo_leads_usine</text>
</g>
<!-- 51f5de2840f64819a3b88cb58e7e0b9c&#45;&gt;0b259855a7774a008ffc7130131f9ee0 -->
<g id="edge2" class="edge">
<title>51f5de2840f64819a3b88cb58e7e0b9c&#45;&gt;0b259855a7774a008ffc7130131f9ee0</title>
<path fill="none" stroke="#7b8894" d="M67,-448.83C67,-528.83 67,-650 67,-650 67,-650 316.92,-650 316.92,-650"/>
<polygon fill="#7b8894" stroke="#7b8894" points="316.92,-653.5 326.92,-650 316.92,-646.5 316.92,-653.5"/>
<text text-anchor="middle" x="222" y="-593.6" font-family="Sans-Serif" font-size="13.00" fill="darkgrey">l_to_ds_seo_leads_usine</text>
</g>
<!-- b40e112627c24a339b484ee3b09ccd9a -->
<g id="node4" class="node">
<title>b40e112627c24a339b484ee3b09ccd9a</title>
<image xlink:href="icons/bigquery.png" width="101px" height="101px" preserveAspectRatio="xMinYMin meet" x="327" y="-340.5"/>
<text text-anchor="middle" x="377.5" y="-225.1" font-family="Sans-Serif" font-size="13.00" fill="#2d3436">ds_seo.l_ga_to_ds_seo_variation</text>
</g>
<!-- 51f5de2840f64819a3b88cb58e7e0b9c&#45;&gt;b40e112627c24a339b484ee3b09ccd9a -->
<g id="edge3" class="edge">
<title>51f5de2840f64819a3b88cb58e7e0b9c&#45;&gt;b40e112627c24a339b484ee3b09ccd9a</title>
<path fill="none" stroke="#7b8894" d="M117.16,-342.83C117.16,-342.83 316.86,-342.83 316.86,-342.83"/>
<polygon fill="#7b8894" stroke="#7b8894" points="316.86,-346.33 326.86,-342.83 316.86,-339.33 316.86,-346.33"/>
<text text-anchor="middle" x="222" y="-322.6" font-family="Sans-Serif" font-size="13.00" fill="darkgrey">l_to_ds_seo_variation</text>
</g>
<!-- 6822a268bb3840ab89f8b5323d406c54 -->
<g id="node5" class="node">
<title>6822a268bb3840ab89f8b5323d406c54</title>
<image xlink:href="icons/bigquery.png" width="101px" height="101px" preserveAspectRatio="xMinYMin meet" x="327" y="-160.5"/>
<text text-anchor="middle" x="377.5" y="-45.1" font-family="Sans-Serif" font-size="13.00" fill="#2d3436">ds_seo.l_ga_to_ds_seo_contrats_usine</text>
</g>
<!-- 51f5de2840f64819a3b88cb58e7e0b9c&#45;&gt;6822a268bb3840ab89f8b5323d406c54 -->
<g id="edge4" class="edge">
<title>51f5de2840f64819a3b88cb58e7e0b9c&#45;&gt;6822a268bb3840ab89f8b5323d406c54</title>
<path fill="none" stroke="#7b8894" d="M117.42,-327.17C162.77,-327.17 222,-327.17 222,-327.17 222,-327.17 222,-132.83 222,-132.83 222,-132.83 316.58,-132.83 316.58,-132.83"/>
<polygon fill="#7b8894" stroke="#7b8894" points="316.58,-136.33 326.58,-132.83 316.58,-129.33 316.58,-136.33"/>
<text text-anchor="middle" x="222" y="-232.6" font-family="Sans-Serif" font-size="13.00" fill="darkgrey">l_to_ds_seo_contrats_usine</text>
</g>
<!-- 4a14d1ba732c407cbc5926229e3e037e -->
<g id="node6" class="node">
<title>4a14d1ba732c407cbc5926229e3e037e</title>
<image xlink:href="icons/bigquery.png" width="101px" height="101px" preserveAspectRatio="xMinYMin meet" x="16" y="-160.5"/>
<text text-anchor="middle" x="66.5" y="-45.1" font-family="Sans-Serif" font-size="13.00" fill="#2d3436">amadeus.e_ama_formulaires_stor</text>
</g>
<!-- 4a14d1ba732c407cbc5926229e3e037e&#45;&gt;6822a268bb3840ab89f8b5323d406c54 -->
<g id="edge5" class="edge">
<title>4a14d1ba732c407cbc5926229e3e037e&#45;&gt;6822a268bb3840ab89f8b5323d406c54</title>
<path fill="none" stroke="#7b8894" d="M117.16,-87.17C117.16,-87.17 316.86,-87.17 316.86,-87.17"/>
<polygon fill="#7b8894" stroke="#7b8894" points="316.86,-90.67 326.86,-87.17 316.86,-83.67 316.86,-90.67"/>
<text text-anchor="middle" x="222" y="-113.6" font-family="Sans-Serif" font-size="13.00" fill="darkgrey">l_to_ds_seo_contrats_usine</text>
</g>
</g>
</svg>
