<?xml version="1.0" encoding="UTF-8" standalone="no"?>
<!DOCTYPE svg PUBLIC "-//W3C//DTD SVG 1.1//EN"
 "http://www.w3.org/Graphics/SVG/1.1/DTD/svg11.dtd">
<!-- Generated by graphviz version 2.47.1 (20210417.1919)
 -->
<!-- Title: dashboard_seo Pages: 1 -->
<svg width="780pt" height="2844pt"
 viewBox="0.00 0.00 780.00 2844.00" xmlns="http://www.w3.org/2000/svg" xmlns:xlink="http://www.w3.org/1999/xlink">
<g id="graph0" class="graph" transform="scale(1 1) rotate(0) translate(144 2700)">
<title>dashboard_seo</title>
<text text-anchor="middle" x="246" y="-9" font-family="Sans-Serif" font-size="15.00" fill="#2d3436">dashboard_seo</text>
<g id="clust1" class="cluster">
<title>cluster_dashboard_seo</title>
<path fill="#e5f5fd" stroke="#aeb6be" d="M20,-33C20,-33 472,-33 472,-33 478,-33 484,-39 484,-45 484,-45 484,-2536 484,-2536 484,-2542 478,-2548 472,-2548 472,-2548 20,-2548 20,-2548 14,-2548 8,-2542 8,-2536 8,-2536 8,-45 8,-45 8,-39 14,-33 20,-33"/>
<text text-anchor="middle" x="56.5" y="-2534.4" font-family="Sans-Serif" font-size="12.00" fill="#2d3436">dashboard_seo</text>
</g>
<!-- baec4c68922945fc8d063ca2605f2c57 -->
<g id="node1" class="node">
<title>baec4c68922945fc8d063ca2605f2c57</title>
<image xlink:href="icons/bigquery.png" width="101px" height="101px" preserveAspectRatio="xMinYMin meet" x="16" y="-1420.5"/>
<text text-anchor="middle" x="66.5" y="-1305.1" font-family="Sans-Serif" font-size="13.00" fill="#2d3436">ga.t_ga_sessions</text>
</g>
<!-- 9f4f2a357acf4f1d83e3374665c905bf -->
<g id="node2" class="node">
<title>9f4f2a357acf4f1d83e3374665c905bf</title>
<image xlink:href="icons/bigquery.png" width="101px" height="101px" preserveAspectRatio="xMinYMin meet" x="375" y="-1600.5"/>
<text text-anchor="middle" x="425.5" y="-1485.1" font-family="Sans-Serif" font-size="13.00" fill="#2d3436">ds_seo.l_ga_to_ds_seo_traffic_usine</text>
</g>
<!-- baec4c68922945fc8d063ca2605f2c57&#45;&gt;9f4f2a357acf4f1d83e3374665c905bf -->
<g id="edge1" class="edge">
<title>baec4c68922945fc8d063ca2605f2c57&#45;&gt;9f4f2a357acf4f1d83e3374665c905bf</title>
<path fill="none" stroke="#7b8894" d="M103,-1438.56C103,-1489.43 103,-1550 103,-1550 103,-1550 364.75,-1550 364.75,-1550"/>
<polygon fill="#7b8894" stroke="#7b8894" points="364.75,-1553.5 374.75,-1550 364.75,-1546.5 364.75,-1553.5"/>
<text text-anchor="middle" x="246" y="-1494.6" font-family="Sans-Serif" font-size="13.00" fill="darkgrey">l_to_ds_seo_traffic_usine</text>
</g>
<!-- 052c59a030f5458fbcbb671930bceded -->
<g id="node3" class="node">
<title>052c59a030f5458fbcbb671930bceded</title>
<image xlink:href="icons/bigquery.png" width="101px" height="101px" preserveAspectRatio="xMinYMin meet" x="375" y="-1780.5"/>
<text text-anchor="middle" x="425.5" y="-1665.1" font-family="Sans-Serif" font-size="13.00" fill="#2d3436">ds_seo.l_ga_to_ds_seo_leads_usine</text>
</g>
<!-- baec4c68922945fc8d063ca2605f2c57&#45;&gt;052c59a030f5458fbcbb671930bceded -->
<g id="edge2" class="edge">
<title>baec4c68922945fc8d063ca2605f2c57&#45;&gt;052c59a030f5458fbcbb671930bceded</title>
<path fill="none" stroke="#7b8894" d="M89,-1438.56C89,-1543.01 89,-1730 89,-1730 89,-1730 364.76,-1730 364.76,-1730"/>
<polygon fill="#7b8894" stroke="#7b8894" points="364.76,-1733.5 374.76,-1730 364.76,-1726.5 364.76,-1733.5"/>
<text text-anchor="middle" x="246" y="-1644.6" font-family="Sans-Serif" font-size="13.00" fill="darkgrey">l_to_ds_seo_leads_usine</text>
</g>
<!-- ac6ec322df65412eb8a3ea5db5748c90 -->
<g id="node4" class="node">
<title>ac6ec322df65412eb8a3ea5db5748c90</title>
<image xlink:href="icons/bigquery.png" width="101px" height="101px" preserveAspectRatio="xMinYMin meet" x="375" y="-1960.5"/>
<text text-anchor="middle" x="425.5" y="-1845.1" font-family="Sans-Serif" font-size="13.00" fill="#2d3436">ds_seo.l_ga_to_ds_seo_traffic_hors_hp_login</text>
</g>
<!-- baec4c68922945fc8d063ca2605f2c57&#45;&gt;ac6ec322df65412eb8a3ea5db5748c90 -->
<g id="edge3" class="edge">
<title>baec4c68922945fc8d063ca2605f2c57&#45;&gt;ac6ec322df65412eb8a3ea5db5748c90</title>
<path fill="none" stroke="#7b8894" d="M74,-1438.67C74,-1584.11 74,-1910 74,-1910 74,-1910 364.76,-1910 364.76,-1910"/>
<polygon fill="#7b8894" stroke="#7b8894" points="364.76,-1913.5 374.76,-1910 364.76,-1906.5 364.76,-1913.5"/>
<text text-anchor="middle" x="246" y="-1809.6" font-family="Sans-Serif" font-size="13.00" fill="darkgrey">l_to_ds_seo_traffic_hors_hp_login</text>
</g>
<!-- e2d4275dfe0c4da7b8f293c45ac9be4e -->
<g id="node5" class="node">
<title>e2d4275dfe0c4da7b8f293c45ac9be4e</title>
<image xlink:href="icons/bigquery.png" width="101px" height="101px" preserveAspectRatio="xMinYMin meet" x="375" y="-2140.5"/>
<text text-anchor="middle" x="425.5" y="-2025.1" font-family="Sans-Serif" font-size="13.00" fill="#2d3436">ds_seo.l_ga_to_ds_seo_leads_hors_hp_login</text>
</g>
<!-- baec4c68922945fc8d063ca2605f2c57&#45;&gt;e2d4275dfe0c4da7b8f293c45ac9be4e -->
<g id="edge4" class="edge">
<title>baec4c68922945fc8d063ca2605f2c57&#45;&gt;e2d4275dfe0c4da7b8f293c45ac9be4e</title>
<path fill="none" stroke="#7b8894" d="M60,-1438.71C60,-1618.68 60,-2090 60,-2090 60,-2090 364.68,-2090 364.68,-2090"/>
<polygon fill="#7b8894" stroke="#7b8894" points="364.68,-2093.5 374.68,-2090 364.68,-2086.5 364.68,-2093.5"/>
<text text-anchor="middle" x="246" y="-1982.6" font-family="Sans-Serif" font-size="13.00" fill="darkgrey">l_to_ds_seo_leads_hors_hp_login</text>
</g>
<!-- fd566a70bf0e4208a3bfd997f998fd3b -->
<g id="node6" class="node">
<title>fd566a70bf0e4208a3bfd997f998fd3b</title>
<image xlink:href="icons/bigquery.png" width="101px" height="101px" preserveAspectRatio="xMinYMin meet" x="375" y="-2320.5"/>
<text text-anchor="middle" x="425.5" y="-2205.1" font-family="Sans-Serif" font-size="13.00" fill="#2d3436">ds_seo.l_ga_to_ds_seo_traffic_quotidien</text>
</g>
<!-- baec4c68922945fc8d063ca2605f2c57&#45;&gt;fd566a70bf0e4208a3bfd997f998fd3b -->
<g id="edge5" class="edge">
<title>baec4c68922945fc8d063ca2605f2c57&#45;&gt;fd566a70bf0e4208a3bfd997f998fd3b</title>
<path fill="none" stroke="#7b8894" d="M45,-1438.76C45,-1649.14 45,-2270 45,-2270 45,-2270 364.97,-2270 364.97,-2270"/>
<polygon fill="#7b8894" stroke="#7b8894" points="364.97,-2273.5 374.97,-2270 364.97,-2266.5 364.97,-2273.5"/>
<text text-anchor="middle" x="246" y="-2158.6" font-family="Sans-Serif" font-size="13.00" fill="darkgrey">l_to_ds_seo_traffic_quotidien</text>
</g>
<!-- 8669a77ec59f462a808726dd5a654138 -->
<g id="node7" class="node">
<title>8669a77ec59f462a808726dd5a654138</title>
<image xlink:href="icons/bigquery.png" width="101px" height="101px" preserveAspectRatio="xMinYMin meet" x="375" y="-2500.5"/>
<text text-anchor="middle" x="425.5" y="-2385.1" font-family="Sans-Serif" font-size="13.00" fill="#2d3436">ds_seo.l_ga_to_ds_seo_leads</text>
</g>
<!-- baec4c68922945fc8d063ca2605f2c57&#45;&gt;8669a77ec59f462a808726dd5a654138 -->
<g id="edge6" class="edge">
<title>baec4c68922945fc8d063ca2605f2c57&#45;&gt;8669a77ec59f462a808726dd5a654138</title>
<path fill="none" stroke="#7b8894" d="M31,-1438.79C31,-1676.68 31,-2450 31,-2450 31,-2450 364.73,-2450 364.73,-2450"/>
<polygon fill="#7b8894" stroke="#7b8894" points="364.73,-2453.5 374.73,-2450 364.73,-2446.5 364.73,-2453.5"/>
<text text-anchor="middle" x="246" y="-2336.6" font-family="Sans-Serif" font-size="13.00" fill="darkgrey">l_to_ds_seo_leads</text>
</g>
<!-- 09aa3ae322ed44039ad0b49b0368a19a -->
<g id="node8" class="node">
<title>09aa3ae322ed44039ad0b49b0368a19a</title>
<image xlink:href="icons/bigquery.png" width="101px" height="101px" preserveAspectRatio="xMinYMin meet" x="375" y="-880.5"/>
<text text-anchor="middle" x="425.5" y="-765.1" font-family="Sans-Serif" font-size="13.00" fill="#2d3436">ds_seo.l_ga_to_ds_seo_session_categories</text>
</g>
<!-- baec4c68922945fc8d063ca2605f2c57&#45;&gt;09aa3ae322ed44039ad0b49b0368a19a -->
<g id="edge7" class="edge">
<title>baec4c68922945fc8d063ca2605f2c57&#45;&gt;09aa3ae322ed44039ad0b49b0368a19a</title>
<path fill="none" stroke="#7b8894" d="M60,-1301.33C60,-1155.89 60,-830 60,-830 60,-830 364.68,-830 364.68,-830"/>
<polygon fill="#7b8894" stroke="#7b8894" points="364.68,-833.5 374.68,-830 364.68,-826.5 364.68,-833.5"/>
<text text-anchor="middle" x="246" y="-1111.6" font-family="Sans-Serif" font-size="13.00" fill="darkgrey">l_to_ds_seo_session_categories</text>
</g>
<!-- 032a27a5ecf54873924c0e84b4b245ea -->
<g id="node9" class="node">
<title>032a27a5ecf54873924c0e84b4b245ea</title>
<image xlink:href="icons/bigquery.png" width="101px" height="101px" preserveAspectRatio="xMinYMin meet" x="375" y="-1060.5"/>
<text text-anchor="middle" x="425.5" y="-945.1" font-family="Sans-Serif" font-size="13.00" fill="#2d3436">ds_seo.l_ga_to_ds_seo_leads_categories</text>
</g>
<!-- baec4c68922945fc8d063ca2605f2c57&#45;&gt;032a27a5ecf54873924c0e84b4b245ea -->
<g id="edge8" class="edge">
<title>baec4c68922945fc8d063ca2605f2c57&#45;&gt;032a27a5ecf54873924c0e84b4b245ea</title>
<path fill="none" stroke="#7b8894" d="M74,-1301.44C74,-1196.99 74,-1010 74,-1010 74,-1010 364.76,-1010 364.76,-1010"/>
<polygon fill="#7b8894" stroke="#7b8894" points="364.76,-1013.5 374.76,-1010 364.76,-1006.5 364.76,-1013.5"/>
<text text-anchor="middle" x="246" y="-1216.6" font-family="Sans-Serif" font-size="13.00" fill="darkgrey">l_to_ds_seo_leads_categories</text>
</g>
<!-- 91c161b3aaef40c680dec86b50ae8ece -->
<g id="node10" class="node">
<title>91c161b3aaef40c680dec86b50ae8ece</title>
<image xlink:href="icons/bigquery.png" width="101px" height="101px" preserveAspectRatio="xMinYMin meet" x="375" y="-1240.5"/>
<text text-anchor="middle" x="425.5" y="-1125.1" font-family="Sans-Serif" font-size="13.00" fill="#2d3436">ds_seo.l_ga_to_ds_seo_traffic_quotidien_hebd</text>
</g>
<!-- baec4c68922945fc8d063ca2605f2c57&#45;&gt;91c161b3aaef40c680dec86b50ae8ece -->
<g id="edge9" class="edge">
<title>baec4c68922945fc8d063ca2605f2c57&#45;&gt;91c161b3aaef40c680dec86b50ae8ece</title>
<path fill="none" stroke="#7b8894" d="M89,-1301.44C89,-1250.57 89,-1190 89,-1190 89,-1190 364.76,-1190 364.76,-1190"/>
<polygon fill="#7b8894" stroke="#7b8894" points="364.76,-1193.5 374.76,-1190 364.76,-1186.5 364.76,-1193.5"/>
<text text-anchor="middle" x="246" y="-1300.6" font-family="Sans-Serif" font-size="13.00" fill="darkgrey">l_to_ds_seo_traffic_quotidien_hebd</text>
</g>
<!-- 35ac3737eea440738f1167c0631b7731 -->
<g id="node11" class="node">
<title>35ac3737eea440738f1167c0631b7731</title>
<image xlink:href="icons/bigquery.png" width="101px" height="101px" preserveAspectRatio="xMinYMin meet" x="375" y="-520.5"/>
<text text-anchor="middle" x="425.5" y="-405.1" font-family="Sans-Serif" font-size="13.00" fill="#2d3436">ds_seo.l_ga_to_ds_seo_contrats</text>
</g>
<!-- baec4c68922945fc8d063ca2605f2c57&#45;&gt;35ac3737eea440738f1167c0631b7731 -->
<g id="edge10" class="edge">
<title>baec4c68922945fc8d063ca2605f2c57&#45;&gt;35ac3737eea440738f1167c0631b7731</title>
<path fill="none" stroke="#7b8894" d="M31,-1301.29C31,-1105.71 31,-560 31,-560 31,-560 426,-560 426,-560 426,-560 426,-548.67 426,-548.67"/>
<polygon fill="#7b8894" stroke="#7b8894" points="429.5,-548.67 426,-538.67 422.5,-548.67 429.5,-548.67"/>
<text text-anchor="middle" x="246" y="-726.6" font-family="Sans-Serif" font-size="13.00" fill="darkgrey">l_to_ds_seo_contrats</text>
</g>
<!-- 1402c5c908854311949851bb0d880ac8 -->
<g id="node13" class="node">
<title>1402c5c908854311949851bb0d880ac8</title>
<image xlink:href="icons/bigquery.png" width="101px" height="101px" preserveAspectRatio="xMinYMin meet" x="375" y="-1420.5"/>
<text text-anchor="middle" x="425.5" y="-1305.1" font-family="Sans-Serif" font-size="13.00" fill="#2d3436">ds_seo.l_ga_to_ds_seo_variation</text>
</g>
<!-- baec4c68922945fc8d063ca2605f2c57&#45;&gt;1402c5c908854311949851bb0d880ac8 -->
<g id="edge12" class="edge">
<title>baec4c68922945fc8d063ca2605f2c57&#45;&gt;1402c5c908854311949851bb0d880ac8</title>
<path fill="none" stroke="#7b8894" d="M117.17,-1392.83C117.17,-1392.83 364.79,-1392.83 364.79,-1392.83"/>
<polygon fill="#7b8894" stroke="#7b8894" points="364.79,-1396.33 374.79,-1392.83 364.79,-1389.33 364.79,-1396.33"/>
<text text-anchor="middle" x="246" y="-1373.6" font-family="Sans-Serif" font-size="13.00" fill="darkgrey">l_to_ds_seo_variation</text>
</g>
<!-- 171d8d727375443db45006fbcaad1c0f -->
<g id="node16" class="node">
<title>171d8d727375443db45006fbcaad1c0f</title>
<image xlink:href="icons/bigquery.png" width="101px" height="101px" preserveAspectRatio="xMinYMin meet" x="375" y="-340.5"/>
<text text-anchor="middle" x="425.5" y="-225.1" font-family="Sans-Serif" font-size="13.00" fill="#2d3436">ds_seo.l_ga_to_ds_seo_contrats_hors_hp_login</text>
</g>
<!-- baec4c68922945fc8d063ca2605f2c57&#45;&gt;171d8d727375443db45006fbcaad1c0f -->
<g id="edge14" class="edge">
<title>baec4c68922945fc8d063ca2605f2c57&#45;&gt;171d8d727375443db45006fbcaad1c0f</title>
<path fill="none" stroke="#7b8894" d="M117.46,-1347.17C170.53,-1347.17 246,-1347.17 246,-1347.17 246,-1347.17 246,-312.83 246,-312.83 246,-312.83 364.54,-312.83 364.54,-312.83"/>
<polygon fill="#7b8894" stroke="#7b8894" points="364.54,-316.33 374.54,-312.83 364.54,-309.33 364.54,-316.33"/>
<text text-anchor="middle" x="246" y="-549.6" font-family="Sans-Serif" font-size="13.00" fill="darkgrey">l_to_ds_seo_contrats_hors_hp_login</text>
</g>
<!-- 084e23db488e48a8b6e78aa8f32e4ac3 -->
<g id="node17" class="node">
<title>084e23db488e48a8b6e78aa8f32e4ac3</title>
<image xlink:href="icons/bigquery.png" width="101px" height="101px" preserveAspectRatio="xMinYMin meet" x="375" y="-700.5"/>
<text text-anchor="middle" x="425.5" y="-585.1" font-family="Sans-Serif" font-size="13.00" fill="#2d3436">ds_seo.l_ga_to_ds_seo_contrats_usine</text>
</g>
<!-- baec4c68922945fc8d063ca2605f2c57&#45;&gt;084e23db488e48a8b6e78aa8f32e4ac3 -->
<g id="edge16" class="edge">
<title>baec4c68922945fc8d063ca2605f2c57&#45;&gt;084e23db488e48a8b6e78aa8f32e4ac3</title>
<path fill="none" stroke="#7b8894" d="M45,-1301.24C45,-1125.36 45,-672.83 45,-672.83 45,-672.83 364.97,-672.83 364.97,-672.83"/>
<polygon fill="#7b8894" stroke="#7b8894" points="364.97,-676.33 374.97,-672.83 364.97,-669.33 364.97,-676.33"/>
<text text-anchor="middle" x="246" y="-962.6" font-family="Sans-Serif" font-size="13.00" fill="darkgrey">l_to_ds_seo_contrats_usine</text>
</g>
<!-- 74bee4cab9c54f64ba3023a5f2a31a46 -->
<g id="node12" class="node">
<title>74bee4cab9c54f64ba3023a5f2a31a46</title>
<image xlink:href="icons/bigquery.png" width="101px" height="101px" preserveAspectRatio="xMinYMin meet" x="16" y="-520.5"/>
<text text-anchor="middle" x="66.5" y="-405.1" font-family="Sans-Serif" font-size="13.00" fill="#2d3436">amadeus.e_ama_formulaires_stor</text>
</g>
<!-- 74bee4cab9c54f64ba3023a5f2a31a46&#45;&gt;35ac3737eea440738f1167c0631b7731 -->
<g id="edge11" class="edge">
<title>74bee4cab9c54f64ba3023a5f2a31a46&#45;&gt;35ac3737eea440738f1167c0631b7731</title>
<path fill="none" stroke="#7b8894" d="M117.17,-470C117.17,-470 364.79,-470 364.79,-470"/>
<polygon fill="#7b8894" stroke="#7b8894" points="364.79,-473.5 374.79,-470 364.79,-466.5 364.79,-473.5"/>
<text text-anchor="middle" x="246" y="-473.6" font-family="Sans-Serif" font-size="13.00" fill="darkgrey">l_to_ds_seo_contrats</text>
</g>
<!-- 74bee4cab9c54f64ba3023a5f2a31a46&#45;&gt;171d8d727375443db45006fbcaad1c0f -->
<g id="edge15" class="edge">
<title>74bee4cab9c54f64ba3023a5f2a31a46&#45;&gt;171d8d727375443db45006fbcaad1c0f</title>
<path fill="none" stroke="#7b8894" d="M67,-401.33C67,-342.49 67,-267.17 67,-267.17 67,-267.17 364.9,-267.17 364.9,-267.17"/>
<polygon fill="#7b8894" stroke="#7b8894" points="364.9,-270.67 374.9,-267.17 364.9,-263.67 364.9,-270.67"/>
<text text-anchor="middle" x="246" y="-352.6" font-family="Sans-Serif" font-size="13.00" fill="darkgrey">l_to_ds_seo_contrats_hors_hp_login</text>
</g>
<!-- 74bee4cab9c54f64ba3023a5f2a31a46&#45;&gt;084e23db488e48a8b6e78aa8f32e4ac3 -->
<g id="edge17" class="edge">
<title>74bee4cab9c54f64ba3023a5f2a31a46&#45;&gt;084e23db488e48a8b6e78aa8f32e4ac3</title>
<path fill="none" stroke="#7b8894" d="M103,-538.94C103,-581.16 103,-627.17 103,-627.17 103,-627.17 364.75,-627.17 364.75,-627.17"/>
<polygon fill="#7b8894" stroke="#7b8894" points="364.75,-630.67 374.75,-627.17 364.75,-623.67 364.75,-630.67"/>
<text text-anchor="middle" x="246" y="-639.6" font-family="Sans-Serif" font-size="13.00" fill="darkgrey">l_to_ds_seo_contrats_usine</text>
</g>
<!-- 8d91ff4c9aac494b92210b7a637c7369 -->
<g id="node14" class="node">
<title>8d91ff4c9aac494b92210b7a637c7369</title>
<image xlink:href="icons/bigquery.png" width="101px" height="101px" preserveAspectRatio="xMinYMin meet" x="16" y="-160.5"/>
<text text-anchor="middle" x="66.5" y="-45.1" font-family="Sans-Serif" font-size="13.00" fill="#2d3436">ds_seo.__TABLES__</text>
</g>
<!-- a4aafc8cd4e94655844402bfbf15c28c -->
<g id="node15" class="node">
<title>a4aafc8cd4e94655844402bfbf15c28c</title>
<image xlink:href="icons/bigquery.png" width="101px" height="101px" preserveAspectRatio="xMinYMin meet" x="375" y="-160.5"/>
<text text-anchor="middle" x="425.5" y="-45.1" font-family="Sans-Serif" font-size="13.00" fill="#2d3436">ds_seo.l_bq_to_ds_seo_last_modified</text>
</g>
<!-- 8d91ff4c9aac494b92210b7a637c7369&#45;&gt;a4aafc8cd4e94655844402bfbf15c28c -->
<g id="edge13" class="edge">
<title>8d91ff4c9aac494b92210b7a637c7369&#45;&gt;a4aafc8cd4e94655844402bfbf15c28c</title>
<path fill="none" stroke="#7b8894" d="M117.17,-110C117.17,-110 364.79,-110 364.79,-110"/>
<polygon fill="#7b8894" stroke="#7b8894" points="364.79,-113.5 374.79,-110 364.79,-106.5 364.79,-113.5"/>
<text text-anchor="middle" x="246" y="-113.6" font-family="Sans-Serif" font-size="13.00" fill="darkgrey">l_to_ds_seo_last_modified</text>
</g>
</g>
</svg>
