<?xml version="1.0" encoding="UTF-8" standalone="no"?>
<!DOCTYPE svg PUBLIC "-//W3C//DTD SVG 1.1//EN"
 "http://www.w3.org/Graphics/SVG/1.1/DTD/svg11.dtd">
<!-- Generated by graphviz version 2.47.1 (20210417.1919)
 -->
<!-- Title: dashboard_seo Pages: 1 -->
<svg width="780pt" height="2844pt"
 viewBox="0.00 0.00 780.00 2844.00" xmlns="http://www.w3.org/2000/svg" xmlns:xlink="http://www.w3.org/1999/xlink">
<g id="graph0" class="graph" transform="scale(1 1) rotate(0) translate(144 2700)">
<title>dashboard_seo</title>
<text text-anchor="middle" x="246" y="-9" font-family="Sans-Serif" font-size="15.00" fill="#2d3436">dashboard_seo</text>
<g id="clust1" class="cluster">
<title>cluster_dashboard_seo</title>
<path fill="#e5f5fd" stroke="#aeb6be" d="M20,-33C20,-33 472,-33 472,-33 478,-33 484,-39 484,-45 484,-45 484,-2536 484,-2536 484,-2542 478,-2548 472,-2548 472,-2548 20,-2548 20,-2548 14,-2548 8,-2542 8,-2536 8,-2536 8,-45 8,-45 8,-39 14,-33 20,-33"/>
<text text-anchor="middle" x="56.5" y="-2534.4" font-family="Sans-Serif" font-size="12.00" fill="#2d3436">dashboard_seo</text>
</g>
<!-- d3becf5ffb6d4796924bac024c259cf6 -->
<g id="node1" class="node">
<title>d3becf5ffb6d4796924bac024c259cf6</title>
<image xlink:href="icons/bigquery.png" width="101px" height="101px" preserveAspectRatio="xMinYMin meet" x="16" y="-1420.5"/>
<text text-anchor="middle" x="66.5" y="-1305.1" font-family="Sans-Serif" font-size="13.00" fill="#2d3436">ga.t_ga_sessions</text>
</g>
<!-- 01ed0ba2e1184412b869e72b9cdfd2b2 -->
<g id="node2" class="node">
<title>01ed0ba2e1184412b869e72b9cdfd2b2</title>
<image xlink:href="icons/bigquery.png" width="101px" height="101px" preserveAspectRatio="xMinYMin meet" x="375" y="-1600.5"/>
<text text-anchor="middle" x="425.5" y="-1485.1" font-family="Sans-Serif" font-size="13.00" fill="#2d3436">ds_seo.l_ga_to_ds_seo_traffic_usine</text>
</g>
<!-- d3becf5ffb6d4796924bac024c259cf6&#45;&gt;01ed0ba2e1184412b869e72b9cdfd2b2 -->
<g id="edge1" class="edge">
<title>d3becf5ffb6d4796924bac024c259cf6&#45;&gt;01ed0ba2e1184412b869e72b9cdfd2b2</title>
<path fill="none" stroke="#7b8894" d="M103,-1438.56C103,-1489.43 103,-1550 103,-1550 103,-1550 364.75,-1550 364.75,-1550"/>
<polygon fill="#7b8894" stroke="#7b8894" points="364.75,-1553.5 374.75,-1550 364.75,-1546.5 364.75,-1553.5"/>
<text text-anchor="middle" x="246" y="-1494.6" font-family="Sans-Serif" font-size="13.00" fill="darkgrey">l_to_ds_seo_traffic_usine</text>
</g>
<!-- cf69d9553f154979bf532782583ec450 -->
<g id="node3" class="node">
<title>cf69d9553f154979bf532782583ec450</title>
<image xlink:href="icons/bigquery.png" width="101px" height="101px" preserveAspectRatio="xMinYMin meet" x="375" y="-1780.5"/>
<text text-anchor="middle" x="425.5" y="-1665.1" font-family="Sans-Serif" font-size="13.00" fill="#2d3436">ds_seo.l_ga_to_ds_seo_leads_usine</text>
</g>
<!-- d3becf5ffb6d4796924bac024c259cf6&#45;&gt;cf69d9553f154979bf532782583ec450 -->
<g id="edge2" class="edge">
<title>d3becf5ffb6d4796924bac024c259cf6&#45;&gt;cf69d9553f154979bf532782583ec450</title>
<path fill="none" stroke="#7b8894" d="M89,-1438.56C89,-1543.01 89,-1730 89,-1730 89,-1730 364.76,-1730 364.76,-1730"/>
<polygon fill="#7b8894" stroke="#7b8894" points="364.76,-1733.5 374.76,-1730 364.76,-1726.5 364.76,-1733.5"/>
<text text-anchor="middle" x="246" y="-1644.6" font-family="Sans-Serif" font-size="13.00" fill="darkgrey">l_to_ds_seo_leads_usine</text>
</g>
<!-- 18068a9667d2433f833ed1cfefea7757 -->
<g id="node4" class="node">
<title>18068a9667d2433f833ed1cfefea7757</title>
<image xlink:href="icons/bigquery.png" width="101px" height="101px" preserveAspectRatio="xMinYMin meet" x="375" y="-1960.5"/>
<text text-anchor="middle" x="425.5" y="-1845.1" font-family="Sans-Serif" font-size="13.00" fill="#2d3436">ds_seo.l_ga_to_ds_seo_traffic_hors_hp_login</text>
</g>
<!-- d3becf5ffb6d4796924bac024c259cf6&#45;&gt;18068a9667d2433f833ed1cfefea7757 -->
<g id="edge3" class="edge">
<title>d3becf5ffb6d4796924bac024c259cf6&#45;&gt;18068a9667d2433f833ed1cfefea7757</title>
<path fill="none" stroke="#7b8894" d="M74,-1438.67C74,-1584.11 74,-1910 74,-1910 74,-1910 364.76,-1910 364.76,-1910"/>
<polygon fill="#7b8894" stroke="#7b8894" points="364.76,-1913.5 374.76,-1910 364.76,-1906.5 364.76,-1913.5"/>
<text text-anchor="middle" x="246" y="-1809.6" font-family="Sans-Serif" font-size="13.00" fill="darkgrey">l_to_ds_seo_traffic_hors_hp_login</text>
</g>
<!-- 29274a66a9ae49dab902f8e78967f431 -->
<g id="node5" class="node">
<title>29274a66a9ae49dab902f8e78967f431</title>
<image xlink:href="icons/bigquery.png" width="101px" height="101px" preserveAspectRatio="xMinYMin meet" x="375" y="-2140.5"/>
<text text-anchor="middle" x="425.5" y="-2025.1" font-family="Sans-Serif" font-size="13.00" fill="#2d3436">ds_seo.l_ga_to_ds_seo_leads_hors_hp_login</text>
</g>
<!-- d3becf5ffb6d4796924bac024c259cf6&#45;&gt;29274a66a9ae49dab902f8e78967f431 -->
<g id="edge4" class="edge">
<title>d3becf5ffb6d4796924bac024c259cf6&#45;&gt;29274a66a9ae49dab902f8e78967f431</title>
<path fill="none" stroke="#7b8894" d="M60,-1438.71C60,-1618.68 60,-2090 60,-2090 60,-2090 364.68,-2090 364.68,-2090"/>
<polygon fill="#7b8894" stroke="#7b8894" points="364.68,-2093.5 374.68,-2090 364.68,-2086.5 364.68,-2093.5"/>
<text text-anchor="middle" x="246" y="-1982.6" font-family="Sans-Serif" font-size="13.00" fill="darkgrey">l_to_ds_seo_leads_hors_hp_login</text>
</g>
<!-- 9b316e42b70147188136c0bc80bdcfee -->
<g id="node6" class="node">
<title>9b316e42b70147188136c0bc80bdcfee</title>
<image xlink:href="icons/bigquery.png" width="101px" height="101px" preserveAspectRatio="xMinYMin meet" x="375" y="-2320.5"/>
<text text-anchor="middle" x="425.5" y="-2205.1" font-family="Sans-Serif" font-size="13.00" fill="#2d3436">ds_seo.l_ga_to_ds_seo_traffic_quotidien</text>
</g>
<!-- d3becf5ffb6d4796924bac024c259cf6&#45;&gt;9b316e42b70147188136c0bc80bdcfee -->
<g id="edge5" class="edge">
<title>d3becf5ffb6d4796924bac024c259cf6&#45;&gt;9b316e42b70147188136c0bc80bdcfee</title>
<path fill="none" stroke="#7b8894" d="M45,-1438.76C45,-1649.14 45,-2270 45,-2270 45,-2270 364.97,-2270 364.97,-2270"/>
<polygon fill="#7b8894" stroke="#7b8894" points="364.97,-2273.5 374.97,-2270 364.97,-2266.5 364.97,-2273.5"/>
<text text-anchor="middle" x="246" y="-2158.6" font-family="Sans-Serif" font-size="13.00" fill="darkgrey">l_to_ds_seo_traffic_quotidien</text>
</g>
<!-- 75fcb1afafb143d0b2f5eab3070685fe -->
<g id="node7" class="node">
<title>75fcb1afafb143d0b2f5eab3070685fe</title>
<image xlink:href="icons/bigquery.png" width="101px" height="101px" preserveAspectRatio="xMinYMin meet" x="375" y="-2500.5"/>
<text text-anchor="middle" x="425.5" y="-2385.1" font-family="Sans-Serif" font-size="13.00" fill="#2d3436">ds_seo.l_ga_to_ds_seo_leads</text>
</g>
<!-- d3becf5ffb6d4796924bac024c259cf6&#45;&gt;75fcb1afafb143d0b2f5eab3070685fe -->
<g id="edge6" class="edge">
<title>d3becf5ffb6d4796924bac024c259cf6&#45;&gt;75fcb1afafb143d0b2f5eab3070685fe</title>
<path fill="none" stroke="#7b8894" d="M31,-1438.79C31,-1676.68 31,-2450 31,-2450 31,-2450 364.73,-2450 364.73,-2450"/>
<polygon fill="#7b8894" stroke="#7b8894" points="364.73,-2453.5 374.73,-2450 364.73,-2446.5 364.73,-2453.5"/>
<text text-anchor="middle" x="246" y="-2336.6" font-family="Sans-Serif" font-size="13.00" fill="darkgrey">l_to_ds_seo_leads</text>
</g>
<!-- 015a89263dcf4bb6bcb8cb817d422e56 -->
<g id="node8" class="node">
<title>015a89263dcf4bb6bcb8cb817d422e56</title>
<image xlink:href="icons/bigquery.png" width="101px" height="101px" preserveAspectRatio="xMinYMin meet" x="375" y="-880.5"/>
<text text-anchor="middle" x="425.5" y="-765.1" font-family="Sans-Serif" font-size="13.00" fill="#2d3436">ds_seo.l_ga_to_ds_seo_session_categories</text>
</g>
<!-- d3becf5ffb6d4796924bac024c259cf6&#45;&gt;015a89263dcf4bb6bcb8cb817d422e56 -->
<g id="edge7" class="edge">
<title>d3becf5ffb6d4796924bac024c259cf6&#45;&gt;015a89263dcf4bb6bcb8cb817d422e56</title>
<path fill="none" stroke="#7b8894" d="M60,-1301.33C60,-1155.89 60,-830 60,-830 60,-830 364.68,-830 364.68,-830"/>
<polygon fill="#7b8894" stroke="#7b8894" points="364.68,-833.5 374.68,-830 364.68,-826.5 364.68,-833.5"/>
<text text-anchor="middle" x="246" y="-1111.6" font-family="Sans-Serif" font-size="13.00" fill="darkgrey">l_to_ds_seo_session_categories</text>
</g>
<!-- 45fad7885a39444580bd7f1a427b8cb3 -->
<g id="node9" class="node">
<title>45fad7885a39444580bd7f1a427b8cb3</title>
<image xlink:href="icons/bigquery.png" width="101px" height="101px" preserveAspectRatio="xMinYMin meet" x="375" y="-1060.5"/>
<text text-anchor="middle" x="425.5" y="-945.1" font-family="Sans-Serif" font-size="13.00" fill="#2d3436">ds_seo.l_ga_to_ds_seo_leads_categories</text>
</g>
<!-- d3becf5ffb6d4796924bac024c259cf6&#45;&gt;45fad7885a39444580bd7f1a427b8cb3 -->
<g id="edge8" class="edge">
<title>d3becf5ffb6d4796924bac024c259cf6&#45;&gt;45fad7885a39444580bd7f1a427b8cb3</title>
<path fill="none" stroke="#7b8894" d="M74,-1301.44C74,-1196.99 74,-1010 74,-1010 74,-1010 364.76,-1010 364.76,-1010"/>
<polygon fill="#7b8894" stroke="#7b8894" points="364.76,-1013.5 374.76,-1010 364.76,-1006.5 364.76,-1013.5"/>
<text text-anchor="middle" x="246" y="-1216.6" font-family="Sans-Serif" font-size="13.00" fill="darkgrey">l_to_ds_seo_leads_categories</text>
</g>
<!-- a95f7b0879574674b35a13e379b9c90b -->
<g id="node10" class="node">
<title>a95f7b0879574674b35a13e379b9c90b</title>
<image xlink:href="icons/bigquery.png" width="101px" height="101px" preserveAspectRatio="xMinYMin meet" x="375" y="-1240.5"/>
<text text-anchor="middle" x="425.5" y="-1125.1" font-family="Sans-Serif" font-size="13.00" fill="#2d3436">ds_seo.l_ga_to_ds_seo_traffic_quotidien_hebd</text>
</g>
<!-- d3becf5ffb6d4796924bac024c259cf6&#45;&gt;a95f7b0879574674b35a13e379b9c90b -->
<g id="edge9" class="edge">
<title>d3becf5ffb6d4796924bac024c259cf6&#45;&gt;a95f7b0879574674b35a13e379b9c90b</title>
<path fill="none" stroke="#7b8894" d="M89,-1301.44C89,-1250.57 89,-1190 89,-1190 89,-1190 364.76,-1190 364.76,-1190"/>
<polygon fill="#7b8894" stroke="#7b8894" points="364.76,-1193.5 374.76,-1190 364.76,-1186.5 364.76,-1193.5"/>
<text text-anchor="middle" x="246" y="-1300.6" font-family="Sans-Serif" font-size="13.00" fill="darkgrey">l_to_ds_seo_traffic_quotidien_hebd</text>
</g>
<!-- 55ce2bf9bb444a4eb19c57a048d20c82 -->
<g id="node11" class="node">
<title>55ce2bf9bb444a4eb19c57a048d20c82</title>
<image xlink:href="icons/bigquery.png" width="101px" height="101px" preserveAspectRatio="xMinYMin meet" x="375" y="-520.5"/>
<text text-anchor="middle" x="425.5" y="-405.1" font-family="Sans-Serif" font-size="13.00" fill="#2d3436">ds_seo.l_ga_to_ds_seo_contrats</text>
</g>
<!-- d3becf5ffb6d4796924bac024c259cf6&#45;&gt;55ce2bf9bb444a4eb19c57a048d20c82 -->
<g id="edge10" class="edge">
<title>d3becf5ffb6d4796924bac024c259cf6&#45;&gt;55ce2bf9bb444a4eb19c57a048d20c82</title>
<path fill="none" stroke="#7b8894" d="M31,-1301.29C31,-1105.71 31,-560 31,-560 31,-560 426,-560 426,-560 426,-560 426,-548.67 426,-548.67"/>
<polygon fill="#7b8894" stroke="#7b8894" points="429.5,-548.67 426,-538.67 422.5,-548.67 429.5,-548.67"/>
<text text-anchor="middle" x="246" y="-726.6" font-family="Sans-Serif" font-size="13.00" fill="darkgrey">l_to_ds_seo_contrats</text>
</g>
<!-- 6d13768d29b74aa9bc6161b1deb83510 -->
<g id="node13" class="node">
<title>6d13768d29b74aa9bc6161b1deb83510</title>
<image xlink:href="icons/bigquery.png" width="101px" height="101px" preserveAspectRatio="xMinYMin meet" x="375" y="-1420.5"/>
<text text-anchor="middle" x="425.5" y="-1305.1" font-family="Sans-Serif" font-size="13.00" fill="#2d3436">ds_seo.l_ga_to_ds_seo_variation</text>
</g>
<!-- d3becf5ffb6d4796924bac024c259cf6&#45;&gt;6d13768d29b74aa9bc6161b1deb83510 -->
<g id="edge12" class="edge">
<title>d3becf5ffb6d4796924bac024c259cf6&#45;&gt;6d13768d29b74aa9bc6161b1deb83510</title>
<path fill="none" stroke="#7b8894" d="M117.17,-1392.83C117.17,-1392.83 364.79,-1392.83 364.79,-1392.83"/>
<polygon fill="#7b8894" stroke="#7b8894" points="364.79,-1396.33 374.79,-1392.83 364.79,-1389.33 364.79,-1396.33"/>
<text text-anchor="middle" x="246" y="-1373.6" font-family="Sans-Serif" font-size="13.00" fill="darkgrey">l_to_ds_seo_variation</text>
</g>
<!-- 99252a160a13498495cd14f78c81c80e -->
<g id="node16" class="node">
<title>99252a160a13498495cd14f78c81c80e</title>
<image xlink:href="icons/bigquery.png" width="101px" height="101px" preserveAspectRatio="xMinYMin meet" x="375" y="-340.5"/>
<text text-anchor="middle" x="425.5" y="-225.1" font-family="Sans-Serif" font-size="13.00" fill="#2d3436">ds_seo.l_ga_to_ds_seo_contrats_hors_hp_login</text>
</g>
<!-- d3becf5ffb6d4796924bac024c259cf6&#45;&gt;99252a160a13498495cd14f78c81c80e -->
<g id="edge14" class="edge">
<title>d3becf5ffb6d4796924bac024c259cf6&#45;&gt;99252a160a13498495cd14f78c81c80e</title>
<path fill="none" stroke="#7b8894" d="M117.46,-1347.17C170.53,-1347.17 246,-1347.17 246,-1347.17 246,-1347.17 246,-312.83 246,-312.83 246,-312.83 364.54,-312.83 364.54,-312.83"/>
<polygon fill="#7b8894" stroke="#7b8894" points="364.54,-316.33 374.54,-312.83 364.54,-309.33 364.54,-316.33"/>
<text text-anchor="middle" x="246" y="-549.6" font-family="Sans-Serif" font-size="13.00" fill="darkgrey">l_to_ds_seo_contrats_hors_hp_login</text>
</g>
<!-- d93722db3091449cb11171e0cb81dc76 -->
<g id="node17" class="node">
<title>d93722db3091449cb11171e0cb81dc76</title>
<image xlink:href="icons/bigquery.png" width="101px" height="101px" preserveAspectRatio="xMinYMin meet" x="375" y="-700.5"/>
<text text-anchor="middle" x="425.5" y="-585.1" font-family="Sans-Serif" font-size="13.00" fill="#2d3436">ds_seo.l_ga_to_ds_seo_contrats_usine</text>
</g>
<!-- d3becf5ffb6d4796924bac024c259cf6&#45;&gt;d93722db3091449cb11171e0cb81dc76 -->
<g id="edge16" class="edge">
<title>d3becf5ffb6d4796924bac024c259cf6&#45;&gt;d93722db3091449cb11171e0cb81dc76</title>
<path fill="none" stroke="#7b8894" d="M45,-1301.24C45,-1125.36 45,-672.83 45,-672.83 45,-672.83 364.97,-672.83 364.97,-672.83"/>
<polygon fill="#7b8894" stroke="#7b8894" points="364.97,-676.33 374.97,-672.83 364.97,-669.33 364.97,-676.33"/>
<text text-anchor="middle" x="246" y="-962.6" font-family="Sans-Serif" font-size="13.00" fill="darkgrey">l_to_ds_seo_contrats_usine</text>
</g>
<!-- 7a5367a00940441eb7da66d7ec5ddd50 -->
<g id="node12" class="node">
<title>7a5367a00940441eb7da66d7ec5ddd50</title>
<image xlink:href="icons/bigquery.png" width="101px" height="101px" preserveAspectRatio="xMinYMin meet" x="16" y="-520.5"/>
<text text-anchor="middle" x="66.5" y="-405.1" font-family="Sans-Serif" font-size="13.00" fill="#2d3436">amadeus.e_ama_formulaires_stor</text>
</g>
<!-- 7a5367a00940441eb7da66d7ec5ddd50&#45;&gt;55ce2bf9bb444a4eb19c57a048d20c82 -->
<g id="edge11" class="edge">
<title>7a5367a00940441eb7da66d7ec5ddd50&#45;&gt;55ce2bf9bb444a4eb19c57a048d20c82</title>
<path fill="none" stroke="#7b8894" d="M117.17,-470C117.17,-470 364.79,-470 364.79,-470"/>
<polygon fill="#7b8894" stroke="#7b8894" points="364.79,-473.5 374.79,-470 364.79,-466.5 364.79,-473.5"/>
<text text-anchor="middle" x="246" y="-473.6" font-family="Sans-Serif" font-size="13.00" fill="darkgrey">l_to_ds_seo_contrats</text>
</g>
<!-- 7a5367a00940441eb7da66d7ec5ddd50&#45;&gt;99252a160a13498495cd14f78c81c80e -->
<g id="edge15" class="edge">
<title>7a5367a00940441eb7da66d7ec5ddd50&#45;&gt;99252a160a13498495cd14f78c81c80e</title>
<path fill="none" stroke="#7b8894" d="M67,-401.33C67,-342.49 67,-267.17 67,-267.17 67,-267.17 364.9,-267.17 364.9,-267.17"/>
<polygon fill="#7b8894" stroke="#7b8894" points="364.9,-270.67 374.9,-267.17 364.9,-263.67 364.9,-270.67"/>
<text text-anchor="middle" x="246" y="-352.6" font-family="Sans-Serif" font-size="13.00" fill="darkgrey">l_to_ds_seo_contrats_hors_hp_login</text>
</g>
<!-- 7a5367a00940441eb7da66d7ec5ddd50&#45;&gt;d93722db3091449cb11171e0cb81dc76 -->
<g id="edge17" class="edge">
<title>7a5367a00940441eb7da66d7ec5ddd50&#45;&gt;d93722db3091449cb11171e0cb81dc76</title>
<path fill="none" stroke="#7b8894" d="M103,-538.94C103,-581.16 103,-627.17 103,-627.17 103,-627.17 364.75,-627.17 364.75,-627.17"/>
<polygon fill="#7b8894" stroke="#7b8894" points="364.75,-630.67 374.75,-627.17 364.75,-623.67 364.75,-630.67"/>
<text text-anchor="middle" x="246" y="-639.6" font-family="Sans-Serif" font-size="13.00" fill="darkgrey">l_to_ds_seo_contrats_usine</text>
</g>
<!-- fca047a067af4ea7ba378dfd477ee209 -->
<g id="node14" class="node">
<title>fca047a067af4ea7ba378dfd477ee209</title>
<image xlink:href="icons/bigquery.png" width="101px" height="101px" preserveAspectRatio="xMinYMin meet" x="16" y="-160.5"/>
<text text-anchor="middle" x="66.5" y="-45.1" font-family="Sans-Serif" font-size="13.00" fill="#2d3436">ds_seo.__TABLES__</text>
</g>
<!-- e708fcd41c0e4d3ba01faf915a190509 -->
<g id="node15" class="node">
<title>e708fcd41c0e4d3ba01faf915a190509</title>
<image xlink:href="icons/bigquery.png" width="101px" height="101px" preserveAspectRatio="xMinYMin meet" x="375" y="-160.5"/>
<text text-anchor="middle" x="425.5" y="-45.1" font-family="Sans-Serif" font-size="13.00" fill="#2d3436">ds_seo.l_bq_to_ds_seo_last_modified</text>
</g>
<!-- fca047a067af4ea7ba378dfd477ee209&#45;&gt;e708fcd41c0e4d3ba01faf915a190509 -->
<g id="edge13" class="edge">
<title>fca047a067af4ea7ba378dfd477ee209&#45;&gt;e708fcd41c0e4d3ba01faf915a190509</title>
<path fill="none" stroke="#7b8894" d="M117.17,-110C117.17,-110 364.79,-110 364.79,-110"/>
<polygon fill="#7b8894" stroke="#7b8894" points="364.79,-113.5 374.79,-110 364.79,-106.5 364.79,-113.5"/>
<text text-anchor="middle" x="246" y="-113.6" font-family="Sans-Serif" font-size="13.00" fill="darkgrey">l_to_ds_seo_last_modified</text>
</g>
</g>
</svg>
