<?xml version="1.0" encoding="UTF-8" standalone="no"?>
<!DOCTYPE svg PUBLIC "-//W3C//DTD SVG 1.1//EN"
 "http://www.w3.org/Graphics/SVG/1.1/DTD/svg11.dtd">
<!-- Generated by graphviz version 2.47.1 (20210417.1919)
 -->
<!-- Title: dashboard_seo Pages: 1 -->
<svg width="732pt" height="1044pt"
 viewBox="0.00 0.00 732.00 1044.00" xmlns="http://www.w3.org/2000/svg" xmlns:xlink="http://www.w3.org/1999/xlink">
<g id="graph0" class="graph" transform="scale(1 1) rotate(0) translate(144 900)">
<title>dashboard_seo</title>
<text text-anchor="middle" x="222" y="-9" font-family="Sans-Serif" font-size="15.00" fill="#2d3436">dashboard_seo</text>
<g id="clust1" class="cluster">
<title>cluster_dashboard_seo</title>
<path fill="#e5f5fd" stroke="#aeb6be" d="M20,-33C20,-33 424,-33 424,-33 430,-33 436,-39 436,-45 436,-45 436,-736 436,-736 436,-742 430,-748 424,-748 424,-748 20,-748 20,-748 14,-748 8,-742 8,-736 8,-736 8,-45 8,-45 8,-39 14,-33 20,-33"/>
<text text-anchor="middle" x="56.5" y="-734.4" font-family="Sans-Serif" font-size="12.00" fill="#2d3436">dashboard_seo</text>
</g>
<!-- d895ca8fd44840d99012a3ba8d31aa63 -->
<g id="node1" class="node">
<title>d895ca8fd44840d99012a3ba8d31aa63</title>
<image xlink:href="icons/bigquery.png" width="101px" height="101px" preserveAspectRatio="xMinYMin meet" x="16" y="-430.5"/>
<text text-anchor="middle" x="66.5" y="-315.1" font-family="Sans-Serif" font-size="13.00" fill="#2d3436">ga.t_ga_sessions</text>
</g>
<!-- b4c5cb83b1c34be1af22e65f43d7dcd7 -->
<g id="node2" class="node">
<title>b4c5cb83b1c34be1af22e65f43d7dcd7</title>
<image xlink:href="icons/bigquery.png" width="101px" height="101px" preserveAspectRatio="xMinYMin meet" x="327" y="-520.5"/>
<text text-anchor="middle" x="377.5" y="-405.1" font-family="Sans-Serif" font-size="13.00" fill="#2d3436">ds_seo.l_ga_to_ds_seo_traffic_usine</text>
</g>
<!-- d895ca8fd44840d99012a3ba8d31aa63&#45;&gt;b4c5cb83b1c34be1af22e65f43d7dcd7 -->
<g id="edge1" class="edge">
<title>d895ca8fd44840d99012a3ba8d31aa63&#45;&gt;b4c5cb83b1c34be1af22e65f43d7dcd7</title>
<path fill="none" stroke="#7b8894" d="M117.16,-425C117.16,-425 316.86,-425 316.86,-425"/>
<polygon fill="#7b8894" stroke="#7b8894" points="316.86,-428.5 326.86,-425 316.86,-421.5 316.86,-428.5"/>
<text text-anchor="middle" x="222" y="-443.6" font-family="Sans-Serif" font-size="13.00" fill="darkgrey">l_to_ds_seo_traffic_usine</text>
</g>
<!-- 91615cffc8f3410ea88a97ca26647eaa -->
<g id="node3" class="node">
<title>91615cffc8f3410ea88a97ca26647eaa</title>
<image xlink:href="icons/bigquery.png" width="101px" height="101px" preserveAspectRatio="xMinYMin meet" x="327" y="-700.5"/>
<text text-anchor="middle" x="377.5" y="-585.1" font-family="Sans-Serif" font-size="13.00" fill="#2d3436">ds_seo.l_ga_to_ds_seo_leads_usine</text>
</g>
<!-- d895ca8fd44840d99012a3ba8d31aa63&#45;&gt;91615cffc8f3410ea88a97ca26647eaa -->
<g id="edge2" class="edge">
<title>d895ca8fd44840d99012a3ba8d31aa63&#45;&gt;91615cffc8f3410ea88a97ca26647eaa</title>
<path fill="none" stroke="#7b8894" d="M67,-448.83C67,-528.83 67,-650 67,-650 67,-650 316.92,-650 316.92,-650"/>
<polygon fill="#7b8894" stroke="#7b8894" points="316.92,-653.5 326.92,-650 316.92,-646.5 316.92,-653.5"/>
<text text-anchor="middle" x="222" y="-593.6" font-family="Sans-Serif" font-size="13.00" fill="darkgrey">l_to_ds_seo_leads_usine</text>
</g>
<!-- f35cffc39c63490ea6a1f7fc695faee7 -->
<g id="node4" class="node">
<title>f35cffc39c63490ea6a1f7fc695faee7</title>
<image xlink:href="icons/bigquery.png" width="101px" height="101px" preserveAspectRatio="xMinYMin meet" x="327" y="-340.5"/>
<text text-anchor="middle" x="377.5" y="-225.1" font-family="Sans-Serif" font-size="13.00" fill="#2d3436">ds_seo.l_ga_to_ds_seo_variation</text>
</g>
<!-- d895ca8fd44840d99012a3ba8d31aa63&#45;&gt;f35cffc39c63490ea6a1f7fc695faee7 -->
<g id="edge3" class="edge">
<title>d895ca8fd44840d99012a3ba8d31aa63&#45;&gt;f35cffc39c63490ea6a1f7fc695faee7</title>
<path fill="none" stroke="#7b8894" d="M117.16,-342.83C117.16,-342.83 316.86,-342.83 316.86,-342.83"/>
<polygon fill="#7b8894" stroke="#7b8894" points="316.86,-346.33 326.86,-342.83 316.86,-339.33 316.86,-346.33"/>
<text text-anchor="middle" x="222" y="-322.6" font-family="Sans-Serif" font-size="13.00" fill="darkgrey">l_to_ds_seo_variation</text>
</g>
<!-- d361f5560c80449c9134f759219e0401 -->
<g id="node5" class="node">
<title>d361f5560c80449c9134f759219e0401</title>
<image xlink:href="icons/bigquery.png" width="101px" height="101px" preserveAspectRatio="xMinYMin meet" x="327" y="-160.5"/>
<text text-anchor="middle" x="377.5" y="-45.1" font-family="Sans-Serif" font-size="13.00" fill="#2d3436">ds_seo.l_ga_to_ds_seo_contrats_usine</text>
</g>
<!-- d895ca8fd44840d99012a3ba8d31aa63&#45;&gt;d361f5560c80449c9134f759219e0401 -->
<g id="edge4" class="edge">
<title>d895ca8fd44840d99012a3ba8d31aa63&#45;&gt;d361f5560c80449c9134f759219e0401</title>
<path fill="none" stroke="#7b8894" d="M117.42,-327.17C162.77,-327.17 222,-327.17 222,-327.17 222,-327.17 222,-132.83 222,-132.83 222,-132.83 316.58,-132.83 316.58,-132.83"/>
<polygon fill="#7b8894" stroke="#7b8894" points="316.58,-136.33 326.58,-132.83 316.58,-129.33 316.58,-136.33"/>
<text text-anchor="middle" x="222" y="-232.6" font-family="Sans-Serif" font-size="13.00" fill="darkgrey">l_to_ds_seo_contrats_usine</text>
</g>
<!-- 1c69be3c52f54fbf85c1fc7bb1d12774 -->
<g id="node6" class="node">
<title>1c69be3c52f54fbf85c1fc7bb1d12774</title>
<image xlink:href="icons/bigquery.png" width="101px" height="101px" preserveAspectRatio="xMinYMin meet" x="16" y="-160.5"/>
<text text-anchor="middle" x="66.5" y="-45.1" font-family="Sans-Serif" font-size="13.00" fill="#2d3436">amadeus.e_ama_formulaires_stor</text>
</g>
<!-- 1c69be3c52f54fbf85c1fc7bb1d12774&#45;&gt;d361f5560c80449c9134f759219e0401 -->
<g id="edge5" class="edge">
<title>1c69be3c52f54fbf85c1fc7bb1d12774&#45;&gt;d361f5560c80449c9134f759219e0401</title>
<path fill="none" stroke="#7b8894" d="M117.16,-87.17C117.16,-87.17 316.86,-87.17 316.86,-87.17"/>
<polygon fill="#7b8894" stroke="#7b8894" points="316.86,-90.67 326.86,-87.17 316.86,-83.67 316.86,-90.67"/>
<text text-anchor="middle" x="222" y="-113.6" font-family="Sans-Serif" font-size="13.00" fill="darkgrey">l_to_ds_seo_contrats_usine</text>
</g>
</g>
</svg>
