<?xml version="1.0" encoding="UTF-8" standalone="no"?>
<!DOCTYPE svg PUBLIC "-//W3C//DTD SVG 1.1//EN"
 "http://www.w3.org/Graphics/SVG/1.1/DTD/svg11.dtd">
<!-- Generated by graphviz version 2.47.1 (20210417.1919)
 -->
<!-- Title: ga_historique_et_formulaires Pages: 1 -->
<svg width="1154pt" height="864pt"
 viewBox="0.00 0.00 1154.00 864.00" xmlns="http://www.w3.org/2000/svg" xmlns:xlink="http://www.w3.org/1999/xlink">
<g id="graph0" class="graph" transform="scale(1 1) rotate(0) translate(144 720)">
<title>ga_historique_et_formulaires</title>
<text text-anchor="middle" x="433" y="-9" font-family="Sans-Serif" font-size="15.00" fill="#2d3436">ga_historique_et_formulaires</text>
<g id="clust1" class="cluster">
<title>cluster_ga_historique_et_formulaires</title>
<path fill="#e5f5fd" stroke="#aeb6be" d="M20,-33C20,-33 846,-33 846,-33 852,-33 858,-39 858,-45 858,-45 858,-556 858,-556 858,-562 852,-568 846,-568 846,-568 20,-568 20,-568 14,-568 8,-562 8,-556 8,-556 8,-45 8,-45 8,-39 14,-33 20,-33"/>
<text text-anchor="middle" x="94" y="-554.4" font-family="Sans-Serif" font-size="12.00" fill="#2d3436">ga_historique_et_formulaires</text>
</g>
<!-- eeb96524ace9420188e600948555a4a3 -->
<g id="node1" class="node">
<title>eeb96524ace9420188e600948555a4a3</title>
<image xlink:href="icons/bigquery.png" width="101px" height="101px" preserveAspectRatio="xMinYMin meet" x="16" y="-430.5"/>
<text text-anchor="middle" x="66.5" y="-315.1" font-family="Sans-Serif" font-size="13.00" fill="#2d3436">ga.t_ga_sessions</text>
</g>
<!-- 2305ad821a2746c39cdef911c1b0920d -->
<g id="node2" class="node">
<title>2305ad821a2746c39cdef911c1b0920d</title>
<image xlink:href="icons/bigquery.png" width="101px" height="101px" preserveAspectRatio="xMinYMin meet" x="424" y="-340.5"/>
<text text-anchor="middle" x="474.5" y="-225.1" font-family="Sans-Serif" font-size="13.00" fill="#2d3436">ga.l_ga_to_ama_ga_historique_stor</text>
</g>
<!-- eeb96524ace9420188e600948555a4a3&#45;&gt;2305ad821a2746c39cdef911c1b0920d -->
<g id="edge1" class="edge">
<title>eeb96524ace9420188e600948555a4a3&#45;&gt;2305ad821a2746c39cdef911c1b0920d</title>
<path fill="none" stroke="#7b8894" d="M117.35,-335C117.35,-335 413.97,-335 413.97,-335"/>
<polygon fill="#7b8894" stroke="#7b8894" points="413.97,-338.5 423.97,-335 413.97,-331.5 413.97,-338.5"/>
<text text-anchor="middle" x="270.5" y="-322.6" font-family="Sans-Serif" font-size="13.00" fill="darkgrey">l_to_ama_ga_historique_bq</text>
</g>
<!-- 9e5dd5f932234d40949154fa85b6c663 -->
<g id="node4" class="node">
<title>9e5dd5f932234d40949154fa85b6c663</title>
<image xlink:href="icons/bigquery.png" width="101px" height="101px" preserveAspectRatio="xMinYMin meet" x="424" y="-520.5"/>
<text text-anchor="middle" x="474.5" y="-405.1" font-family="Sans-Serif" font-size="13.00" fill="#2d3436">ga.l_ga_to_ama_ga_formulaires_stor</text>
</g>
<!-- eeb96524ace9420188e600948555a4a3&#45;&gt;9e5dd5f932234d40949154fa85b6c663 -->
<g id="edge3" class="edge">
<title>eeb96524ace9420188e600948555a4a3&#45;&gt;9e5dd5f932234d40949154fa85b6c663</title>
<path fill="none" stroke="#7b8894" d="M117.35,-425C117.35,-425 413.97,-425 413.97,-425"/>
<polygon fill="#7b8894" stroke="#7b8894" points="413.97,-428.5 423.97,-425 413.97,-421.5 413.97,-428.5"/>
<text text-anchor="middle" x="270.5" y="-443.6" font-family="Sans-Serif" font-size="13.00" fill="darkgrey">l_to_ama_ga_formulaires_bq</text>
</g>
<!-- 64dc9272e6574510beb73a2dd49d5839 -->
<g id="node3" class="node">
<title>64dc9272e6574510beb73a2dd49d5839</title>
<image xlink:href="icons/storage.png" width="101px" height="101px" preserveAspectRatio="xMinYMin meet" x="749" y="-340.5"/>
<text text-anchor="middle" x="799.5" y="-225.1" font-family="Sans-Serif" font-size="13.00" fill="#2d3436">ga_engie/l_to_ama_ga_historique/ga_historique.csv</text>
</g>
<!-- 2305ad821a2746c39cdef911c1b0920d&#45;&gt;64dc9272e6574510beb73a2dd49d5839 -->
<g id="edge2" class="edge">
<title>2305ad821a2746c39cdef911c1b0920d&#45;&gt;64dc9272e6574510beb73a2dd49d5839</title>
<path fill="none" stroke="#7b8894" d="M525.28,-290C525.28,-290 738.81,-290 738.81,-290"/>
<polygon fill="#7b8894" stroke="#7b8894" points="738.81,-293.5 748.81,-290 738.81,-286.5 738.81,-293.5"/>
<text text-anchor="middle" x="637" y="-293.6" font-family="Sans-Serif" font-size="13.00" fill="darkgrey">l_to_ama_ga_historique_stor</text>
</g>
<!-- 8a25912dee2a4ee8832a4ad9cecfbfbf -->
<g id="node5" class="node">
<title>8a25912dee2a4ee8832a4ad9cecfbfbf</title>
<image xlink:href="icons/storage.png" width="101px" height="101px" preserveAspectRatio="xMinYMin meet" x="749" y="-520.5"/>
<text text-anchor="middle" x="799.5" y="-405.1" font-family="Sans-Serif" font-size="13.00" fill="#2d3436">ga_engie/l_to_ama_ga_formulaires/ga_formulaires.csv</text>
</g>
<!-- 9e5dd5f932234d40949154fa85b6c663&#45;&gt;8a25912dee2a4ee8832a4ad9cecfbfbf -->
<g id="edge4" class="edge">
<title>9e5dd5f932234d40949154fa85b6c663&#45;&gt;8a25912dee2a4ee8832a4ad9cecfbfbf</title>
<path fill="none" stroke="#7b8894" d="M525.28,-470C525.28,-470 738.81,-470 738.81,-470"/>
<polygon fill="#7b8894" stroke="#7b8894" points="738.81,-473.5 748.81,-470 738.81,-466.5 738.81,-473.5"/>
<text text-anchor="middle" x="637" y="-473.6" font-family="Sans-Serif" font-size="13.00" fill="darkgrey">l_to_ama_ga_formulaires_stor</text>
</g>
<!-- 220383fe89ea468eba8314e1834793d0 -->
<g id="node6" class="node">
<title>220383fe89ea468eba8314e1834793d0</title>
<image xlink:href="icons/bigquery.png" width="101px" height="101px" preserveAspectRatio="xMinYMin meet" x="16" y="-160.5"/>
<text text-anchor="middle" x="66.5" y="-45.1" font-family="Sans-Serif" font-size="13.00" fill="#2d3436">ga.e_gsheet_cee_souscriptions</text>
</g>
<!-- e3602f500b9f464ba3fe986f95b31e61 -->
<g id="node7" class="node">
<title>e3602f500b9f464ba3fe986f95b31e61</title>
<image xlink:href="icons/bigquery.png" width="101px" height="101px" preserveAspectRatio="xMinYMin meet" x="424" y="-160.5"/>
<text text-anchor="middle" x="474.5" y="-45.1" font-family="Sans-Serif" font-size="13.00" fill="#2d3436">comper.l_ga_to_ds_comper_e_gsheet_cee_souscriptions</text>
</g>
<!-- 220383fe89ea468eba8314e1834793d0&#45;&gt;e3602f500b9f464ba3fe986f95b31e61 -->
<g id="edge5" class="edge">
<title>220383fe89ea468eba8314e1834793d0&#45;&gt;e3602f500b9f464ba3fe986f95b31e61</title>
<path fill="none" stroke="#7b8894" d="M117.35,-110C117.35,-110 413.97,-110 413.97,-110"/>
<polygon fill="#7b8894" stroke="#7b8894" points="413.97,-113.5 423.97,-110 413.97,-106.5 413.97,-113.5"/>
<text text-anchor="middle" x="270.5" y="-113.6" font-family="Sans-Serif" font-size="13.00" fill="darkgrey">l_to_ds_comper_e_gsheet_cee_souscriptions</text>
</g>
</g>
</svg>
