<?xml version="1.0" encoding="UTF-8" standalone="no"?>
<!DOCTYPE svg PUBLIC "-//W3C//DTD SVG 1.1//EN"
 "http://www.w3.org/Graphics/SVG/1.1/DTD/svg11.dtd">
<!-- Generated by graphviz version 2.47.1 (20210417.1919)
 -->
<!-- Title: ga_historique_et_formulaires Pages: 1 -->
<svg width="1154pt" height="864pt"
 viewBox="0.00 0.00 1154.00 864.00" xmlns="http://www.w3.org/2000/svg" xmlns:xlink="http://www.w3.org/1999/xlink">
<g id="graph0" class="graph" transform="scale(1 1) rotate(0) translate(144 720)">
<title>ga_historique_et_formulaires</title>
<text text-anchor="middle" x="433" y="-9" font-family="Sans-Serif" font-size="15.00" fill="#2d3436">ga_historique_et_formulaires</text>
<g id="clust1" class="cluster">
<title>cluster_ga_historique_et_formulaires</title>
<path fill="#e5f5fd" stroke="#aeb6be" d="M20,-33C20,-33 846,-33 846,-33 852,-33 858,-39 858,-45 858,-45 858,-556 858,-556 858,-562 852,-568 846,-568 846,-568 20,-568 20,-568 14,-568 8,-562 8,-556 8,-556 8,-45 8,-45 8,-39 14,-33 20,-33"/>
<text text-anchor="middle" x="94" y="-554.4" font-family="Sans-Serif" font-size="12.00" fill="#2d3436">ga_historique_et_formulaires</text>
</g>
<!-- a5670e9d3ae44adeabf8df4cedc85113 -->
<g id="node1" class="node">
<title>a5670e9d3ae44adeabf8df4cedc85113</title>
<image xlink:href="icons/bigquery.png" width="101px" height="101px" preserveAspectRatio="xMinYMin meet" x="16" y="-430.5"/>
<text text-anchor="middle" x="66.5" y="-315.1" font-family="Sans-Serif" font-size="13.00" fill="#2d3436">ga.t_ga_sessions</text>
</g>
<!-- 11c9224206174059824f5c126408f32b -->
<g id="node2" class="node">
<title>11c9224206174059824f5c126408f32b</title>
<image xlink:href="icons/bigquery.png" width="101px" height="101px" preserveAspectRatio="xMinYMin meet" x="424" y="-340.5"/>
<text text-anchor="middle" x="474.5" y="-225.1" font-family="Sans-Serif" font-size="13.00" fill="#2d3436">ga.l_ga_to_ama_ga_historique_stor</text>
</g>
<!-- a5670e9d3ae44adeabf8df4cedc85113&#45;&gt;11c9224206174059824f5c126408f32b -->
<g id="edge1" class="edge">
<title>a5670e9d3ae44adeabf8df4cedc85113&#45;&gt;11c9224206174059824f5c126408f32b</title>
<path fill="none" stroke="#7b8894" d="M117.35,-335C117.35,-335 413.97,-335 413.97,-335"/>
<polygon fill="#7b8894" stroke="#7b8894" points="413.97,-338.5 423.97,-335 413.97,-331.5 413.97,-338.5"/>
<text text-anchor="middle" x="270.5" y="-322.6" font-family="Sans-Serif" font-size="13.00" fill="darkgrey">l_to_ama_ga_historique_bq</text>
</g>
<!-- 501ae8cacad24f0db0c00c955d76ddd8 -->
<g id="node4" class="node">
<title>501ae8cacad24f0db0c00c955d76ddd8</title>
<image xlink:href="icons/bigquery.png" width="101px" height="101px" preserveAspectRatio="xMinYMin meet" x="424" y="-520.5"/>
<text text-anchor="middle" x="474.5" y="-405.1" font-family="Sans-Serif" font-size="13.00" fill="#2d3436">ga.l_ga_to_ama_ga_formulaires_stor</text>
</g>
<!-- a5670e9d3ae44adeabf8df4cedc85113&#45;&gt;501ae8cacad24f0db0c00c955d76ddd8 -->
<g id="edge3" class="edge">
<title>a5670e9d3ae44adeabf8df4cedc85113&#45;&gt;501ae8cacad24f0db0c00c955d76ddd8</title>
<path fill="none" stroke="#7b8894" d="M117.35,-425C117.35,-425 413.97,-425 413.97,-425"/>
<polygon fill="#7b8894" stroke="#7b8894" points="413.97,-428.5 423.97,-425 413.97,-421.5 413.97,-428.5"/>
<text text-anchor="middle" x="270.5" y="-443.6" font-family="Sans-Serif" font-size="13.00" fill="darkgrey">l_to_ama_ga_formulaires_bq</text>
</g>
<!-- 41fae0d715aa4a37861703e1534ebe05 -->
<g id="node3" class="node">
<title>41fae0d715aa4a37861703e1534ebe05</title>
<image xlink:href="icons/storage.png" width="101px" height="101px" preserveAspectRatio="xMinYMin meet" x="749" y="-340.5"/>
<text text-anchor="middle" x="799.5" y="-225.1" font-family="Sans-Serif" font-size="13.00" fill="#2d3436">ga_engie/l_to_ama_ga_historique/ga_historique.csv</text>
</g>
<!-- 11c9224206174059824f5c126408f32b&#45;&gt;41fae0d715aa4a37861703e1534ebe05 -->
<g id="edge2" class="edge">
<title>11c9224206174059824f5c126408f32b&#45;&gt;41fae0d715aa4a37861703e1534ebe05</title>
<path fill="none" stroke="#7b8894" d="M525.28,-290C525.28,-290 738.81,-290 738.81,-290"/>
<polygon fill="#7b8894" stroke="#7b8894" points="738.81,-293.5 748.81,-290 738.81,-286.5 738.81,-293.5"/>
<text text-anchor="middle" x="637" y="-293.6" font-family="Sans-Serif" font-size="13.00" fill="darkgrey">l_to_ama_ga_historique_stor</text>
</g>
<!-- ffbf8ab8509d43b3b5255dc8b827fac6 -->
<g id="node5" class="node">
<title>ffbf8ab8509d43b3b5255dc8b827fac6</title>
<image xlink:href="icons/storage.png" width="101px" height="101px" preserveAspectRatio="xMinYMin meet" x="749" y="-520.5"/>
<text text-anchor="middle" x="799.5" y="-405.1" font-family="Sans-Serif" font-size="13.00" fill="#2d3436">ga_engie/l_to_ama_ga_formulaires/ga_formulaires.csv</text>
</g>
<!-- 501ae8cacad24f0db0c00c955d76ddd8&#45;&gt;ffbf8ab8509d43b3b5255dc8b827fac6 -->
<g id="edge4" class="edge">
<title>501ae8cacad24f0db0c00c955d76ddd8&#45;&gt;ffbf8ab8509d43b3b5255dc8b827fac6</title>
<path fill="none" stroke="#7b8894" d="M525.28,-470C525.28,-470 738.81,-470 738.81,-470"/>
<polygon fill="#7b8894" stroke="#7b8894" points="738.81,-473.5 748.81,-470 738.81,-466.5 738.81,-473.5"/>
<text text-anchor="middle" x="637" y="-473.6" font-family="Sans-Serif" font-size="13.00" fill="darkgrey">l_to_ama_ga_formulaires_stor</text>
</g>
<!-- 4fbc1e6f04204ede902e565c917cd367 -->
<g id="node6" class="node">
<title>4fbc1e6f04204ede902e565c917cd367</title>
<image xlink:href="icons/bigquery.png" width="101px" height="101px" preserveAspectRatio="xMinYMin meet" x="16" y="-160.5"/>
<text text-anchor="middle" x="66.5" y="-45.1" font-family="Sans-Serif" font-size="13.00" fill="#2d3436">ga.e_gsheet_cee_souscriptions</text>
</g>
<!-- 353610a8717644f1b832696fb4e9fd1b -->
<g id="node7" class="node">
<title>353610a8717644f1b832696fb4e9fd1b</title>
<image xlink:href="icons/bigquery.png" width="101px" height="101px" preserveAspectRatio="xMinYMin meet" x="424" y="-160.5"/>
<text text-anchor="middle" x="474.5" y="-45.1" font-family="Sans-Serif" font-size="13.00" fill="#2d3436">comper.l_ga_to_ds_comper_e_gsheet_cee_souscriptions</text>
</g>
<!-- 4fbc1e6f04204ede902e565c917cd367&#45;&gt;353610a8717644f1b832696fb4e9fd1b -->
<g id="edge5" class="edge">
<title>4fbc1e6f04204ede902e565c917cd367&#45;&gt;353610a8717644f1b832696fb4e9fd1b</title>
<path fill="none" stroke="#7b8894" d="M117.35,-110C117.35,-110 413.97,-110 413.97,-110"/>
<polygon fill="#7b8894" stroke="#7b8894" points="413.97,-113.5 423.97,-110 413.97,-106.5 413.97,-113.5"/>
<text text-anchor="middle" x="270.5" y="-113.6" font-family="Sans-Serif" font-size="13.00" fill="darkgrey">l_to_ds_comper_e_gsheet_cee_souscriptions</text>
</g>
</g>
</svg>
