<?xml version="1.0" encoding="UTF-8" standalone="no"?>
<!DOCTYPE svg PUBLIC "-//W3C//DTD SVG 1.1//EN"
 "http://www.w3.org/Graphics/SVG/1.1/DTD/svg11.dtd">
<!-- Generated by graphviz version 2.47.1 (20210417.1919)
 -->
<!-- Title: ga_historique_et_formulaires Pages: 1 -->
<svg width="1154pt" height="864pt"
 viewBox="0.00 0.00 1154.00 864.00" xmlns="http://www.w3.org/2000/svg" xmlns:xlink="http://www.w3.org/1999/xlink">
<g id="graph0" class="graph" transform="scale(1 1) rotate(0) translate(144 720)">
<title>ga_historique_et_formulaires</title>
<text text-anchor="middle" x="433" y="-9" font-family="Sans-Serif" font-size="15.00" fill="#2d3436">ga_historique_et_formulaires</text>
<g id="clust1" class="cluster">
<title>cluster_ga_historique_et_formulaires</title>
<path fill="#e5f5fd" stroke="#aeb6be" d="M20,-33C20,-33 846,-33 846,-33 852,-33 858,-39 858,-45 858,-45 858,-556 858,-556 858,-562 852,-568 846,-568 846,-568 20,-568 20,-568 14,-568 8,-562 8,-556 8,-556 8,-45 8,-45 8,-39 14,-33 20,-33"/>
<text text-anchor="middle" x="94" y="-554.4" font-family="Sans-Serif" font-size="12.00" fill="#2d3436">ga_historique_et_formulaires</text>
</g>
<!-- a18365eb50eb4b9dadc6511d6e9317d0 -->
<g id="node1" class="node">
<title>a18365eb50eb4b9dadc6511d6e9317d0</title>
<image xlink:href="icons/bigquery.png" width="101px" height="101px" preserveAspectRatio="xMinYMin meet" x="16" y="-430.5"/>
<text text-anchor="middle" x="66.5" y="-315.1" font-family="Sans-Serif" font-size="13.00" fill="#2d3436">ga.t_ga_sessions</text>
</g>
<!-- 50d57d93cbf442ab9f51bdc308358e95 -->
<g id="node2" class="node">
<title>50d57d93cbf442ab9f51bdc308358e95</title>
<image xlink:href="icons/bigquery.png" width="101px" height="101px" preserveAspectRatio="xMinYMin meet" x="424" y="-340.5"/>
<text text-anchor="middle" x="474.5" y="-225.1" font-family="Sans-Serif" font-size="13.00" fill="#2d3436">ga.l_ga_to_ama_ga_historique_stor</text>
</g>
<!-- a18365eb50eb4b9dadc6511d6e9317d0&#45;&gt;50d57d93cbf442ab9f51bdc308358e95 -->
<g id="edge1" class="edge">
<title>a18365eb50eb4b9dadc6511d6e9317d0&#45;&gt;50d57d93cbf442ab9f51bdc308358e95</title>
<path fill="none" stroke="#7b8894" d="M117.35,-335C117.35,-335 413.97,-335 413.97,-335"/>
<polygon fill="#7b8894" stroke="#7b8894" points="413.97,-338.5 423.97,-335 413.97,-331.5 413.97,-338.5"/>
<text text-anchor="middle" x="270.5" y="-322.6" font-family="Sans-Serif" font-size="13.00" fill="darkgrey">l_to_ama_ga_historique_bq</text>
</g>
<!-- 519478272e734b47be7ff570cb1aad87 -->
<g id="node4" class="node">
<title>519478272e734b47be7ff570cb1aad87</title>
<image xlink:href="icons/bigquery.png" width="101px" height="101px" preserveAspectRatio="xMinYMin meet" x="424" y="-520.5"/>
<text text-anchor="middle" x="474.5" y="-405.1" font-family="Sans-Serif" font-size="13.00" fill="#2d3436">ga.l_ga_to_ama_ga_formulaires_stor</text>
</g>
<!-- a18365eb50eb4b9dadc6511d6e9317d0&#45;&gt;519478272e734b47be7ff570cb1aad87 -->
<g id="edge3" class="edge">
<title>a18365eb50eb4b9dadc6511d6e9317d0&#45;&gt;519478272e734b47be7ff570cb1aad87</title>
<path fill="none" stroke="#7b8894" d="M117.35,-425C117.35,-425 413.97,-425 413.97,-425"/>
<polygon fill="#7b8894" stroke="#7b8894" points="413.97,-428.5 423.97,-425 413.97,-421.5 413.97,-428.5"/>
<text text-anchor="middle" x="270.5" y="-443.6" font-family="Sans-Serif" font-size="13.00" fill="darkgrey">l_to_ama_ga_formulaires_bq</text>
</g>
<!-- cb8afa6a761041bdb05f26aed43a9270 -->
<g id="node3" class="node">
<title>cb8afa6a761041bdb05f26aed43a9270</title>
<image xlink:href="icons/storage.png" width="101px" height="101px" preserveAspectRatio="xMinYMin meet" x="749" y="-340.5"/>
<text text-anchor="middle" x="799.5" y="-225.1" font-family="Sans-Serif" font-size="13.00" fill="#2d3436">ga_engie/l_to_ama_ga_historique/ga_historique.csv</text>
</g>
<!-- 50d57d93cbf442ab9f51bdc308358e95&#45;&gt;cb8afa6a761041bdb05f26aed43a9270 -->
<g id="edge2" class="edge">
<title>50d57d93cbf442ab9f51bdc308358e95&#45;&gt;cb8afa6a761041bdb05f26aed43a9270</title>
<path fill="none" stroke="#7b8894" d="M525.28,-290C525.28,-290 738.81,-290 738.81,-290"/>
<polygon fill="#7b8894" stroke="#7b8894" points="738.81,-293.5 748.81,-290 738.81,-286.5 738.81,-293.5"/>
<text text-anchor="middle" x="637" y="-293.6" font-family="Sans-Serif" font-size="13.00" fill="darkgrey">l_to_ama_ga_historique_stor</text>
</g>
<!-- 1bc447bd4dc24ecc820409f4c4aa6b1c -->
<g id="node5" class="node">
<title>1bc447bd4dc24ecc820409f4c4aa6b1c</title>
<image xlink:href="icons/storage.png" width="101px" height="101px" preserveAspectRatio="xMinYMin meet" x="749" y="-520.5"/>
<text text-anchor="middle" x="799.5" y="-405.1" font-family="Sans-Serif" font-size="13.00" fill="#2d3436">ga_engie/l_to_ama_ga_formulaires/ga_formulaires.csv</text>
</g>
<!-- 519478272e734b47be7ff570cb1aad87&#45;&gt;1bc447bd4dc24ecc820409f4c4aa6b1c -->
<g id="edge4" class="edge">
<title>519478272e734b47be7ff570cb1aad87&#45;&gt;1bc447bd4dc24ecc820409f4c4aa6b1c</title>
<path fill="none" stroke="#7b8894" d="M525.28,-470C525.28,-470 738.81,-470 738.81,-470"/>
<polygon fill="#7b8894" stroke="#7b8894" points="738.81,-473.5 748.81,-470 738.81,-466.5 738.81,-473.5"/>
<text text-anchor="middle" x="637" y="-473.6" font-family="Sans-Serif" font-size="13.00" fill="darkgrey">l_to_ama_ga_formulaires_stor</text>
</g>
<!-- 7c5461d1ebeb48879832ec0201f4e054 -->
<g id="node6" class="node">
<title>7c5461d1ebeb48879832ec0201f4e054</title>
<image xlink:href="icons/bigquery.png" width="101px" height="101px" preserveAspectRatio="xMinYMin meet" x="16" y="-160.5"/>
<text text-anchor="middle" x="66.5" y="-45.1" font-family="Sans-Serif" font-size="13.00" fill="#2d3436">ga.e_gsheet_cee_souscriptions</text>
</g>
<!-- ec999584a8f741328c2be73403bd633a -->
<g id="node7" class="node">
<title>ec999584a8f741328c2be73403bd633a</title>
<image xlink:href="icons/bigquery.png" width="101px" height="101px" preserveAspectRatio="xMinYMin meet" x="424" y="-160.5"/>
<text text-anchor="middle" x="474.5" y="-45.1" font-family="Sans-Serif" font-size="13.00" fill="#2d3436">comper.l_ga_to_ds_comper_e_gsheet_cee_souscriptions</text>
</g>
<!-- 7c5461d1ebeb48879832ec0201f4e054&#45;&gt;ec999584a8f741328c2be73403bd633a -->
<g id="edge5" class="edge">
<title>7c5461d1ebeb48879832ec0201f4e054&#45;&gt;ec999584a8f741328c2be73403bd633a</title>
<path fill="none" stroke="#7b8894" d="M117.35,-110C117.35,-110 413.97,-110 413.97,-110"/>
<polygon fill="#7b8894" stroke="#7b8894" points="413.97,-113.5 423.97,-110 413.97,-106.5 413.97,-113.5"/>
<text text-anchor="middle" x="270.5" y="-113.6" font-family="Sans-Serif" font-size="13.00" fill="darkgrey">l_to_ds_comper_e_gsheet_cee_souscriptions</text>
</g>
</g>
</svg>
