<?xml version="1.0" encoding="UTF-8" standalone="no"?>
<!DOCTYPE svg PUBLIC "-//W3C//DTD SVG 1.1//EN"
 "http://www.w3.org/Graphics/SVG/1.1/DTD/svg11.dtd">
<!-- Generated by graphviz version 2.47.1 (20210417.1919)
 -->
<!-- Title: ga_traitements Pages: 1 -->
<svg width="1892pt" height="7186pt"
 viewBox="0.00 0.00 1892.00 7186.00" xmlns="http://www.w3.org/2000/svg" xmlns:xlink="http://www.w3.org/1999/xlink">
<g id="graph0" class="graph" transform="scale(1 1) rotate(0) translate(144 7042)">
<title>ga_traitements</title>
<text text-anchor="middle" x="802" y="-9" font-family="Sans-Serif" font-size="15.00" fill="#2d3436">ga_traitements</text>
<g id="clust1" class="cluster">
<title>cluster_ga_traitements</title>
<path fill="#e5f5fd" stroke="#aeb6be" d="M20,-33C20,-33 1584,-33 1584,-33 1590,-33 1596,-39 1596,-45 1596,-45 1596,-6878 1596,-6878 1596,-6884 1590,-6890 1584,-6890 1584,-6890 20,-6890 20,-6890 14,-6890 8,-6884 8,-6878 8,-6878 8,-45 8,-45 8,-39 14,-33 20,-33"/>
<text text-anchor="middle" x="55.5" y="-6876.4" font-family="Sans-Serif" font-size="12.00" fill="#2d3436">ga_traitements</text>
</g>
<!-- d4fa1c4f5b354b92a46b8352af8f0c66 -->
<g id="node1" class="node">
<title>d4fa1c4f5b354b92a46b8352af8f0c66</title>
<image xlink:href="icons/bigquery.png" width="101px" height="101px" preserveAspectRatio="xMinYMin meet" x="16" y="-3422.5"/>
<text text-anchor="middle" x="66.5" y="-3307.1" font-family="Sans-Serif" font-size="13.00" fill="#2d3436">160756520.ga_sessions_*</text>
</g>
<!-- fb4a534824bf47b082dacc4b425011e5 -->
<g id="node2" class="node">
<title>fb4a534824bf47b082dacc4b425011e5</title>
<image xlink:href="icons/bigquery.png" width="101px" height="101px" preserveAspectRatio="xMinYMin meet" x="277" y="-3422.5"/>
<text text-anchor="middle" x="327.5" y="-3307.1" font-family="Sans-Serif" font-size="13.00" fill="#2d3436">ga.t_ga_sessions</text>
</g>
<!-- d4fa1c4f5b354b92a46b8352af8f0c66&#45;&gt;fb4a534824bf47b082dacc4b425011e5 -->
<g id="edge1" class="edge">
<title>d4fa1c4f5b354b92a46b8352af8f0c66&#45;&gt;fb4a534824bf47b082dacc4b425011e5</title>
<path fill="none" stroke="#7b8894" d="M117.13,-3372C117.13,-3372 266.56,-3372 266.56,-3372"/>
<polygon fill="#7b8894" stroke="#7b8894" points="266.56,-3375.5 276.56,-3372 266.56,-3368.5 266.56,-3375.5"/>
<text text-anchor="middle" x="197" y="-3375.6" font-family="Sans-Serif" font-size="13.00" fill="darkgrey">t_sessions</text>
</g>
<!-- 40b27f201af245ef93013c95ed858611 -->
<g id="node5" class="node">
<title>40b27f201af245ef93013c95ed858611</title>
<image xlink:href="icons/bigquery.png" width="101px" height="101px" preserveAspectRatio="xMinYMin meet" x="832" y="-160.5"/>
<text text-anchor="middle" x="882.5" y="-45.1" font-family="Sans-Serif" font-size="13.00" fill="#2d3436">ga.t_ga_sessions_sample</text>
</g>
<!-- fb4a534824bf47b082dacc4b425011e5&#45;&gt;40b27f201af245ef93013c95ed858611 -->
<g id="edge3" class="edge">
<title>fb4a534824bf47b082dacc4b425011e5&#45;&gt;40b27f201af245ef93013c95ed858611</title>
<path fill="none" stroke="#7b8894" d="M378.01,-3315.95C401.36,-3315.95 424,-3315.95 424,-3315.95 424,-3315.95 424,-110 424,-110 424,-110 821.68,-110 821.68,-110"/>
<polygon fill="#7b8894" stroke="#7b8894" points="821.68,-113.5 831.68,-110 821.68,-106.5 821.68,-113.5"/>
<text text-anchor="middle" x="595.5" y="-216.6" font-family="Sans-Serif" font-size="13.00" fill="darkgrey">t_sessions_sample</text>
</g>
<!-- 394f4741576d4a819d363b184cefb215 -->
<g id="node6" class="node">
<title>394f4741576d4a819d363b184cefb215</title>
<image xlink:href="icons/bigquery.png" width="101px" height="101px" preserveAspectRatio="xMinYMin meet" x="832" y="-340.5"/>
<text text-anchor="middle" x="882.5" y="-225.1" font-family="Sans-Serif" font-size="13.00" fill="#2d3436">ga.t_ga_objectives_entries_vs_objectives</text>
</g>
<!-- fb4a534824bf47b082dacc4b425011e5&#45;&gt;394f4741576d4a819d363b184cefb215 -->
<g id="edge4" class="edge">
<title>fb4a534824bf47b082dacc4b425011e5&#45;&gt;394f4741576d4a819d363b184cefb215</title>
<path fill="none" stroke="#7b8894" d="M378.19,-3328.41C418.79,-3328.41 469,-3328.41 469,-3328.41 469,-3328.41 469,-290 469,-290 469,-290 821.8,-290 821.8,-290"/>
<polygon fill="#7b8894" stroke="#7b8894" points="821.8,-293.5 831.8,-290 821.8,-286.5 821.8,-293.5"/>
<text text-anchor="middle" x="595.5" y="-381.6" font-family="Sans-Serif" font-size="13.00" fill="darkgrey">t_objectives_entries_vs_objectives</text>
</g>
<!-- c6b42a2643054ab2ae0544dd792d6a03 -->
<g id="node7" class="node">
<title>c6b42a2643054ab2ae0544dd792d6a03</title>
<image xlink:href="icons/bigquery.png" width="101px" height="101px" preserveAspectRatio="xMinYMin meet" x="832" y="-700.5"/>
<text text-anchor="middle" x="882.5" y="-585.1" font-family="Sans-Serif" font-size="13.00" fill="#2d3436">ga.t_ga_objectives_events</text>
</g>
<!-- fb4a534824bf47b082dacc4b425011e5&#45;&gt;c6b42a2643054ab2ae0544dd792d6a03 -->
<g id="edge5" class="edge">
<title>fb4a534824bf47b082dacc4b425011e5&#45;&gt;c6b42a2643054ab2ae0544dd792d6a03</title>
<path fill="none" stroke="#7b8894" d="M378.24,-3353.32C446.65,-3353.32 560,-3353.32 560,-3353.32 560,-3353.32 560,-650 560,-650 560,-650 821.75,-650 821.75,-650"/>
<polygon fill="#7b8894" stroke="#7b8894" points="821.75,-653.5 831.75,-650 821.75,-646.5 821.75,-653.5"/>
<text text-anchor="middle" x="595.5" y="-720.6" font-family="Sans-Serif" font-size="13.00" fill="darkgrey">t_objectives_events</text>
</g>
<!-- 83f5eea6a2b041029612f6944f4102b1 -->
<g id="node8" class="node">
<title>83f5eea6a2b041029612f6944f4102b1</title>
<image xlink:href="icons/bigquery.png" width="101px" height="101px" preserveAspectRatio="xMinYMin meet" x="832" y="-520.5"/>
<text text-anchor="middle" x="882.5" y="-405.1" font-family="Sans-Serif" font-size="13.00" fill="#2d3436">ga.t_ga_optimizely_events</text>
</g>
<!-- fb4a534824bf47b082dacc4b425011e5&#45;&gt;83f5eea6a2b041029612f6944f4102b1 -->
<g id="edge6" class="edge">
<title>fb4a534824bf47b082dacc4b425011e5&#45;&gt;83f5eea6a2b041029612f6944f4102b1</title>
<path fill="none" stroke="#7b8894" d="M378.24,-3340.86C433.77,-3340.86 515,-3340.86 515,-3340.86 515,-3340.86 515,-470 515,-470 515,-470 821.79,-470 821.79,-470"/>
<polygon fill="#7b8894" stroke="#7b8894" points="821.79,-473.5 831.79,-470 821.79,-466.5 821.79,-473.5"/>
<text text-anchor="middle" x="595.5" y="-532.6" font-family="Sans-Serif" font-size="13.00" fill="darkgrey">t_optimizely_events</text>
</g>
<!-- a169bfbab1224c50bf998bba8960e621 -->
<g id="node11" class="node">
<title>a169bfbab1224c50bf998bba8960e621</title>
<image xlink:href="icons/bigquery.png" width="101px" height="101px" preserveAspectRatio="xMinYMin meet" x="832" y="-981.5"/>
<text text-anchor="middle" x="882.5" y="-866.1" font-family="Sans-Serif" font-size="13.00" fill="#2d3436">ga.t_ga_detail_session_checkpoint</text>
</g>
<!-- fb4a534824bf47b082dacc4b425011e5&#45;&gt;a169bfbab1224c50bf998bba8960e621 -->
<g id="edge12" class="edge">
<title>fb4a534824bf47b082dacc4b425011e5&#45;&gt;a169bfbab1224c50bf998bba8960e621</title>
<path fill="none" stroke="#7b8894" d="M378.05,-3378.23C469.03,-3378.23 651,-3378.23 651,-3378.23 651,-3378.23 651,-931 651,-931 651,-931 821.98,-931 821.98,-931"/>
<polygon fill="#7b8894" stroke="#7b8894" points="821.98,-934.5 831.98,-931 821.98,-927.5 821.98,-934.5"/>
<text text-anchor="middle" x="595.5" y="-1002.6" font-family="Sans-Serif" font-size="13.00" fill="darkgrey">t_detail_session_checkpoint</text>
</g>
<!-- e8d33de812544ca0a19ca9e4fa497a9f -->
<g id="node12" class="node">
<title>e8d33de812544ca0a19ca9e4fa497a9f</title>
<image xlink:href="icons/bigquery.png" width="101px" height="101px" preserveAspectRatio="xMinYMin meet" x="1179" y="-896.5"/>
<text text-anchor="middle" x="1229.5" y="-781.1" font-family="Sans-Serif" font-size="13.00" fill="#2d3436">ga.t_ga_fait_parcours</text>
</g>
<!-- fb4a534824bf47b082dacc4b425011e5&#45;&gt;e8d33de812544ca0a19ca9e4fa497a9f -->
<g id="edge11" class="edge">
<title>fb4a534824bf47b082dacc4b425011e5&#45;&gt;e8d33de812544ca0a19ca9e4fa497a9f</title>
<path fill="none" stroke="#7b8894" d="M378.08,-3365.77C458.12,-3365.77 605,-3365.77 605,-3365.77 605,-3365.77 605,-820 605,-820 605,-820 1168.92,-820 1168.92,-820"/>
<polygon fill="#7b8894" stroke="#7b8894" points="1168.92,-823.5 1178.92,-820 1168.92,-816.5 1168.92,-823.5"/>
<text text-anchor="middle" x="882.5" y="-808.6" font-family="Sans-Serif" font-size="13.00" fill="darkgrey">t_fait_parcours</text>
</g>
<!-- b3b3db5b4e074486bac3cc0d43cc15dd -->
<g id="node13" class="node">
<title>b3b3db5b4e074486bac3cc0d43cc15dd</title>
<image xlink:href="icons/bigquery.png" width="101px" height="101px" preserveAspectRatio="xMinYMin meet" x="1179" y="-1106.5"/>
<text text-anchor="middle" x="1229.5" y="-991.1" font-family="Sans-Serif" font-size="13.00" fill="#2d3436">ga.t_ga_parcours_checkpoint_1</text>
</g>
<!-- fb4a534824bf47b082dacc4b425011e5&#45;&gt;b3b3db5b4e074486bac3cc0d43cc15dd -->
<g id="edge14" class="edge">
<title>fb4a534824bf47b082dacc4b425011e5&#45;&gt;b3b3db5b4e074486bac3cc0d43cc15dd</title>
<path fill="none" stroke="#7b8894" d="M287,-3303.33C287,-3291.01 287,-3282 287,-3282 287,-3282 1230,-3282 1230,-3282 1230,-3282 1230,-1134.75 1230,-1134.75"/>
<polygon fill="#7b8894" stroke="#7b8894" points="1233.5,-1134.75 1230,-1124.75 1226.5,-1134.75 1233.5,-1134.75"/>
<text text-anchor="middle" x="882.5" y="-1089.6" font-family="Sans-Serif" font-size="13.00" fill="darkgrey">t_parcours_checkpoint_1</text>
</g>
<!-- 014430b34a3147ceb2cfc19f8a9616e1 -->
<g id="node15" class="node">
<title>014430b34a3147ceb2cfc19f8a9616e1</title>
<image xlink:href="icons/bigquery.png" width="101px" height="101px" preserveAspectRatio="xMinYMin meet" x="832" y="-1262.5"/>
<text text-anchor="middle" x="882.5" y="-1147.1" font-family="Sans-Serif" font-size="13.00" fill="#2d3436">ga.t_ga_qualite</text>
</g>
<!-- fb4a534824bf47b082dacc4b425011e5&#45;&gt;014430b34a3147ceb2cfc19f8a9616e1 -->
<g id="edge16" class="edge">
<title>fb4a534824bf47b082dacc4b425011e5&#45;&gt;014430b34a3147ceb2cfc19f8a9616e1</title>
<path fill="none" stroke="#7b8894" d="M378.35,-3390.68C479.44,-3390.68 696,-3390.68 696,-3390.68 696,-3390.68 696,-1212 696,-1212 696,-1212 821.54,-1212 821.54,-1212"/>
<polygon fill="#7b8894" stroke="#7b8894" points="821.54,-1215.5 831.54,-1212 821.54,-1208.5 821.54,-1215.5"/>
<text text-anchor="middle" x="595.5" y="-1216.6" font-family="Sans-Serif" font-size="13.00" fill="darkgrey">t_qualite</text>
</g>
<!-- 68477215ad1641b0b41730a504e54919 -->
<g id="node16" class="node">
<title>68477215ad1641b0b41730a504e54919</title>
<image xlink:href="icons/bigquery.png" width="101px" height="101px" preserveAspectRatio="xMinYMin meet" x="832" y="-1442.5"/>
<text text-anchor="middle" x="882.5" y="-1327.1" font-family="Sans-Serif" font-size="13.00" fill="#2d3436">ga.t_ga_recurrence_visites_ec_sessions</text>
</g>
<!-- fb4a534824bf47b082dacc4b425011e5&#45;&gt;68477215ad1641b0b41730a504e54919 -->
<g id="edge17" class="edge">
<title>fb4a534824bf47b082dacc4b425011e5&#45;&gt;68477215ad1641b0b41730a504e54919</title>
<path fill="none" stroke="#7b8894" d="M378.33,-3403.14C489.01,-3403.14 742,-3403.14 742,-3403.14 742,-3403.14 742,-1392 742,-1392 742,-1392 821.78,-1392 821.78,-1392"/>
<polygon fill="#7b8894" stroke="#7b8894" points="821.78,-1395.5 831.78,-1392 821.78,-1388.5 821.78,-1395.5"/>
<text text-anchor="middle" x="595.5" y="-1986.6" font-family="Sans-Serif" font-size="13.00" fill="darkgrey">t_visites_ec_sessions</text>
</g>
<!-- 06ab1f113f674a72afb8a32c97200130 -->
<g id="node17" class="node">
<title>06ab1f113f674a72afb8a32c97200130</title>
<image xlink:href="icons/bigquery.png" width="101px" height="101px" preserveAspectRatio="xMinYMin meet" x="832" y="-1622.5"/>
<text text-anchor="middle" x="882.5" y="-1507.1" font-family="Sans-Serif" font-size="13.00" fill="#2d3436">ga.t_ga_blog_vs_objectifs</text>
</g>
<!-- fb4a534824bf47b082dacc4b425011e5&#45;&gt;06ab1f113f674a72afb8a32c97200130 -->
<g id="edge18" class="edge">
<title>fb4a534824bf47b082dacc4b425011e5&#45;&gt;06ab1f113f674a72afb8a32c97200130</title>
<path fill="none" stroke="#7b8894" d="M378.43,-3415.59C498.07,-3415.59 787,-3415.59 787,-3415.59 787,-3415.59 787,-1611.5 787,-1611.5 787,-1611.5 821.95,-1611.5 821.95,-1611.5"/>
<polygon fill="#7b8894" stroke="#7b8894" points="821.95,-1615 831.95,-1611.5 821.95,-1608 821.95,-1615"/>
<text text-anchor="middle" x="595.5" y="-2402.6" font-family="Sans-Serif" font-size="13.00" fill="darkgrey">t_blog_vs_objectifs</text>
</g>
<!-- c95bd78c2d9f41739576bc2c1228b4a1 -->
<g id="node18" class="node">
<title>c95bd78c2d9f41739576bc2c1228b4a1</title>
<image xlink:href="icons/bigquery.png" width="101px" height="101px" preserveAspectRatio="xMinYMin meet" x="832" y="-1802.5"/>
<text text-anchor="middle" x="882.5" y="-1687.1" font-family="Sans-Serif" font-size="13.00" fill="#2d3436">ga.t_ga_faq_vs_objectifs</text>
</g>
<!-- fb4a534824bf47b082dacc4b425011e5&#45;&gt;c95bd78c2d9f41739576bc2c1228b4a1 -->
<g id="edge19" class="edge">
<title>fb4a534824bf47b082dacc4b425011e5&#45;&gt;c95bd78c2d9f41739576bc2c1228b4a1</title>
<path fill="none" stroke="#7b8894" d="M296,-3303.42C296,-2997.22 296,-1770 296,-1770 296,-1770 821.99,-1770 821.99,-1770"/>
<polygon fill="#7b8894" stroke="#7b8894" points="821.99,-1773.5 831.99,-1770 821.99,-1766.5 821.99,-1773.5"/>
<text text-anchor="middle" x="595.5" y="-2641.6" font-family="Sans-Serif" font-size="13.00" fill="darkgrey">t_ga_faq_vs_objectifs</text>
</g>
<!-- 6ce9ffdb675643b3a680bf7ac80247f9 -->
<g id="node19" class="node">
<title>6ce9ffdb675643b3a680bf7ac80247f9</title>
<image xlink:href="icons/bigquery.png" width="101px" height="101px" preserveAspectRatio="xMinYMin meet" x="832" y="-1982.5"/>
<text text-anchor="middle" x="882.5" y="-1867.1" font-family="Sans-Serif" font-size="13.00" fill="#2d3436">ga.t_ga_ec_connexions</text>
</g>
<!-- fb4a534824bf47b082dacc4b425011e5&#45;&gt;6ce9ffdb675643b3a680bf7ac80247f9 -->
<g id="edge20" class="edge">
<title>fb4a534824bf47b082dacc4b425011e5&#45;&gt;6ce9ffdb675643b3a680bf7ac80247f9</title>
<path fill="none" stroke="#7b8894" d="M305,-3303.03C305,-3016.12 305,-1932 305,-1932 305,-1932 821.76,-1932 821.76,-1932"/>
<polygon fill="#7b8894" stroke="#7b8894" points="821.76,-1935.5 831.76,-1932 821.76,-1928.5 821.76,-1935.5"/>
<text text-anchor="middle" x="595.5" y="-2791.6" font-family="Sans-Serif" font-size="13.00" fill="darkgrey">t_ec_connexions</text>
</g>
<!-- 9ec2ec9a622541cabadde62dc8c7a345 -->
<g id="node20" class="node">
<title>9ec2ec9a622541cabadde62dc8c7a345</title>
<image xlink:href="icons/bigquery.png" width="101px" height="101px" preserveAspectRatio="xMinYMin meet" x="832" y="-2162.5"/>
<text text-anchor="middle" x="882.5" y="-2047.1" font-family="Sans-Serif" font-size="13.00" fill="#2d3436">ga.t_ga_consentements_parcours</text>
</g>
<!-- fb4a534824bf47b082dacc4b425011e5&#45;&gt;9ec2ec9a622541cabadde62dc8c7a345 -->
<g id="edge21" class="edge">
<title>fb4a534824bf47b082dacc4b425011e5&#45;&gt;9ec2ec9a622541cabadde62dc8c7a345</title>
<path fill="none" stroke="#7b8894" d="M314,-3303.36C314,-3040.43 314,-2112 314,-2112 314,-2112 821.8,-2112 821.8,-2112"/>
<polygon fill="#7b8894" stroke="#7b8894" points="821.8,-2115.5 831.8,-2112 821.8,-2108.5 821.8,-2115.5"/>
<text text-anchor="middle" x="595.5" y="-2897.6" font-family="Sans-Serif" font-size="13.00" fill="darkgrey">t_consentements_parcours</text>
</g>
<!-- 6df12177c0ef41c389c6295d41a7718d -->
<g id="node21" class="node">
<title>6df12177c0ef41c389c6295d41a7718d</title>
<image xlink:href="icons/bigquery.png" width="101px" height="101px" preserveAspectRatio="xMinYMin meet" x="832" y="-2342.5"/>
<text text-anchor="middle" x="882.5" y="-2227.1" font-family="Sans-Serif" font-size="13.00" fill="#2d3436">ga.t_ga_visites_ec_recurrence_bp</text>
</g>
<!-- fb4a534824bf47b082dacc4b425011e5&#45;&gt;6df12177c0ef41c389c6295d41a7718d -->
<g id="edge22" class="edge">
<title>fb4a534824bf47b082dacc4b425011e5&#45;&gt;6df12177c0ef41c389c6295d41a7718d</title>
<path fill="none" stroke="#7b8894" d="M323,-3303.21C323,-3065.32 323,-2292 323,-2292 323,-2292 821.86,-2292 821.86,-2292"/>
<polygon fill="#7b8894" stroke="#7b8894" points="821.86,-2295.5 831.86,-2292 821.86,-2288.5 821.86,-2295.5"/>
<text text-anchor="middle" x="595.5" y="-2981.6" font-family="Sans-Serif" font-size="13.00" fill="darkgrey">t_visites_ec_recurrence_bp</text>
</g>
<!-- 722f82a147904705970337c38103130a -->
<g id="node22" class="node">
<title>722f82a147904705970337c38103130a</title>
<image xlink:href="icons/bigquery.png" width="101px" height="101px" preserveAspectRatio="xMinYMin meet" x="832" y="-2522.5"/>
<text text-anchor="middle" x="882.5" y="-2407.1" font-family="Sans-Serif" font-size="13.00" fill="#2d3436">ga.t_ga_recurrence1_moyenne_session_ec_bp_support_device_profil_mois</text>
</g>
<!-- fb4a534824bf47b082dacc4b425011e5&#45;&gt;722f82a147904705970337c38103130a -->
<g id="edge23" class="edge">
<title>fb4a534824bf47b082dacc4b425011e5&#45;&gt;722f82a147904705970337c38103130a</title>
<path fill="none" stroke="#7b8894" d="M333,-3303.24C333,-3092.86 333,-2472 333,-2472 333,-2472 821.79,-2472 821.79,-2472"/>
<polygon fill="#7b8894" stroke="#7b8894" points="821.79,-2475.5 831.79,-2472 821.79,-2468.5 821.79,-2475.5"/>
<text text-anchor="middle" x="595.5" y="-3054.6" font-family="Sans-Serif" font-size="13.00" fill="darkgrey">t_recurrence1_moyenne_session_ec_bp_support_device_profil_mois</text>
</g>
<!-- 9ed57b979eec4de782a3f71f93accf47 -->
<g id="node23" class="node">
<title>9ed57b979eec4de782a3f71f93accf47</title>
<image xlink:href="icons/bigquery.png" width="101px" height="101px" preserveAspectRatio="xMinYMin meet" x="832" y="-2702.5"/>
<text text-anchor="middle" x="882.5" y="-2587.1" font-family="Sans-Serif" font-size="13.00" fill="#2d3436">ga.t_ga_recurrence1_moyenne_session_ec_bp_support_mois</text>
</g>
<!-- fb4a534824bf47b082dacc4b425011e5&#45;&gt;9ed57b979eec4de782a3f71f93accf47 -->
<g id="edge24" class="edge">
<title>fb4a534824bf47b082dacc4b425011e5&#45;&gt;9ed57b979eec4de782a3f71f93accf47</title>
<path fill="none" stroke="#7b8894" d="M342,-3303.29C342,-3123.32 342,-2652 342,-2652 342,-2652 821.65,-2652 821.65,-2652"/>
<polygon fill="#7b8894" stroke="#7b8894" points="821.65,-2655.5 831.65,-2652 821.65,-2648.5 821.65,-2655.5"/>
<text text-anchor="middle" x="595.5" y="-3122.6" font-family="Sans-Serif" font-size="13.00" fill="darkgrey">t_recurrence1_moyenne_session_ec_bp_support_mois</text>
</g>
<!-- 3217399b601d463f9b65c4eaf1022726 -->
<g id="node24" class="node">
<title>3217399b601d463f9b65c4eaf1022726</title>
<image xlink:href="icons/bigquery.png" width="101px" height="101px" preserveAspectRatio="xMinYMin meet" x="832" y="-2882.5"/>
<text text-anchor="middle" x="882.5" y="-2767.1" font-family="Sans-Serif" font-size="13.00" fill="#2d3436">ga.t_ga_recurrence2_groupe_nb_session_ec_bp_support_mois</text>
</g>
<!-- fb4a534824bf47b082dacc4b425011e5&#45;&gt;3217399b601d463f9b65c4eaf1022726 -->
<g id="edge25" class="edge">
<title>fb4a534824bf47b082dacc4b425011e5&#45;&gt;3217399b601d463f9b65c4eaf1022726</title>
<path fill="none" stroke="#7b8894" d="M351,-3303.33C351,-3157.89 351,-2832 351,-2832 351,-2832 821.54,-2832 821.54,-2832"/>
<polygon fill="#7b8894" stroke="#7b8894" points="821.54,-2835.5 831.54,-2832 821.54,-2828.5 821.54,-2835.5"/>
<text text-anchor="middle" x="595.5" y="-3187.6" font-family="Sans-Serif" font-size="13.00" fill="darkgrey">t_recurrence2_groupe_nb_session_ec_bp_support_mois</text>
</g>
<!-- 24388f1cefbf483687e52d0dee7d56c8 -->
<g id="node25" class="node">
<title>24388f1cefbf483687e52d0dee7d56c8</title>
<image xlink:href="icons/bigquery.png" width="101px" height="101px" preserveAspectRatio="xMinYMin meet" x="832" y="-3062.5"/>
<text text-anchor="middle" x="882.5" y="-2947.1" font-family="Sans-Serif" font-size="13.00" fill="#2d3436">ga.t_ga_recurrence2_groupe_nb_session_ec_bp_profil_mois</text>
</g>
<!-- fb4a534824bf47b082dacc4b425011e5&#45;&gt;24388f1cefbf483687e52d0dee7d56c8 -->
<g id="edge26" class="edge">
<title>fb4a534824bf47b082dacc4b425011e5&#45;&gt;24388f1cefbf483687e52d0dee7d56c8</title>
<path fill="none" stroke="#7b8894" d="M360,-3303.44C360,-3198.99 360,-3012 360,-3012 360,-3012 821.93,-3012 821.93,-3012"/>
<polygon fill="#7b8894" stroke="#7b8894" points="821.93,-3015.5 831.93,-3012 821.93,-3008.5 821.93,-3015.5"/>
<text text-anchor="middle" x="595.5" y="-3250.6" font-family="Sans-Serif" font-size="13.00" fill="darkgrey">t_recurrence2_groupe_nb_session_ec_bp_profil_mois</text>
</g>
<!-- 8437ca3c47f048b3bbbeed05c47b160d -->
<g id="node26" class="node">
<title>8437ca3c47f048b3bbbeed05c47b160d</title>
<image xlink:href="icons/bigquery.png" width="101px" height="101px" preserveAspectRatio="xMinYMin meet" x="832" y="-3242.5"/>
<text text-anchor="middle" x="882.5" y="-3127.1" font-family="Sans-Serif" font-size="13.00" fill="#2d3436">ga.t_ga_recurrence3_usage_crossdevice_detail_ec_nb_idbp_mois</text>
</g>
<!-- fb4a534824bf47b082dacc4b425011e5&#45;&gt;8437ca3c47f048b3bbbeed05c47b160d -->
<g id="edge27" class="edge">
<title>fb4a534824bf47b082dacc4b425011e5&#45;&gt;8437ca3c47f048b3bbbeed05c47b160d</title>
<path fill="none" stroke="#7b8894" d="M369,-3303.44C369,-3252.57 369,-3192 369,-3192 369,-3192 821.86,-3192 821.86,-3192"/>
<polygon fill="#7b8894" stroke="#7b8894" points="821.86,-3195.5 831.86,-3192 821.86,-3188.5 821.86,-3195.5"/>
<text text-anchor="middle" x="595.5" y="-3313.6" font-family="Sans-Serif" font-size="13.00" fill="darkgrey">t_recurrence3_usage_crossdevice_detail_ec_nb_idbp_mois</text>
</g>
<!-- c330ffb68990485e8dd314a4c2f2410d -->
<g id="node27" class="node">
<title>c330ffb68990485e8dd314a4c2f2410d</title>
<image xlink:href="icons/bigquery.png" width="101px" height="101px" preserveAspectRatio="xMinYMin meet" x="832" y="-3422.5"/>
<text text-anchor="middle" x="882.5" y="-3307.1" font-family="Sans-Serif" font-size="13.00" fill="#2d3436">ga.t_ga_prog_eng_consultation_et_usage</text>
</g>
<!-- fb4a534824bf47b082dacc4b425011e5&#45;&gt;c330ffb68990485e8dd314a4c2f2410d -->
<g id="edge28" class="edge">
<title>fb4a534824bf47b082dacc4b425011e5&#45;&gt;c330ffb68990485e8dd314a4c2f2410d</title>
<path fill="none" stroke="#7b8894" d="M378.22,-3428.05C378.22,-3428.05 821.69,-3428.05 821.69,-3428.05"/>
<polygon fill="#7b8894" stroke="#7b8894" points="821.69,-3431.55 831.69,-3428.05 821.69,-3424.55 821.69,-3431.55"/>
<text text-anchor="middle" x="595.5" y="-3375.6" font-family="Sans-Serif" font-size="13.00" fill="darkgrey">t_ga_prog_eng_consultation_et_usage</text>
</g>
<!-- 03560a26732b40c68efe4ef34e492cf9 -->
<g id="node28" class="node">
<title>03560a26732b40c68efe4ef34e492cf9</title>
<image xlink:href="icons/bigquery.png" width="101px" height="101px" preserveAspectRatio="xMinYMin meet" x="832" y="-3602.5"/>
<text text-anchor="middle" x="882.5" y="-3487.1" font-family="Sans-Serif" font-size="13.00" fill="#2d3436">ga.t_ga_push_services_equipements</text>
</g>
<!-- fb4a534824bf47b082dacc4b425011e5&#45;&gt;03560a26732b40c68efe4ef34e492cf9 -->
<g id="edge29" class="edge">
<title>fb4a534824bf47b082dacc4b425011e5&#45;&gt;03560a26732b40c68efe4ef34e492cf9</title>
<path fill="none" stroke="#7b8894" d="M373,-3440.56C373,-3491.43 373,-3552 373,-3552 373,-3552 821.78,-3552 821.78,-3552"/>
<polygon fill="#7b8894" stroke="#7b8894" points="821.78,-3555.5 831.78,-3552 821.78,-3548.5 821.78,-3555.5"/>
<text text-anchor="middle" x="595.5" y="-3496.6" font-family="Sans-Serif" font-size="13.00" fill="darkgrey">t_push_ec_vs_objectives</text>
</g>
<!-- 549830b24ee045ca8301d50efd52314a -->
<g id="node29" class="node">
<title>549830b24ee045ca8301d50efd52314a</title>
<image xlink:href="icons/bigquery.png" width="101px" height="101px" preserveAspectRatio="xMinYMin meet" x="832" y="-3782.5"/>
<text text-anchor="middle" x="882.5" y="-3667.1" font-family="Sans-Serif" font-size="13.00" fill="#2d3436">comite_drc.e_ds_comite_drc_infosmensuelles</text>
</g>
<!-- fb4a534824bf47b082dacc4b425011e5&#45;&gt;549830b24ee045ca8301d50efd52314a -->
<g id="edge30" class="edge">
<title>fb4a534824bf47b082dacc4b425011e5&#45;&gt;549830b24ee045ca8301d50efd52314a</title>
<path fill="none" stroke="#7b8894" d="M368,-3440.56C368,-3545.01 368,-3732 368,-3732 368,-3732 821.76,-3732 821.76,-3732"/>
<polygon fill="#7b8894" stroke="#7b8894" points="821.76,-3735.5 831.76,-3732 821.76,-3728.5 821.76,-3735.5"/>
<text text-anchor="middle" x="595.5" y="-3646.6" font-family="Sans-Serif" font-size="13.00" fill="darkgrey">e_ds_comite_drc_infosmensuelles</text>
</g>
<!-- 482f3d397aa942c8b0f45e906de439a4 -->
<g id="node30" class="node">
<title>482f3d397aa942c8b0f45e906de439a4</title>
<image xlink:href="icons/bigquery.png" width="101px" height="101px" preserveAspectRatio="xMinYMin meet" x="832" y="-3962.5"/>
<text text-anchor="middle" x="882.5" y="-3847.1" font-family="Sans-Serif" font-size="13.00" fill="#2d3436">ds_engagement.l_ga_to_ds_engagement_services</text>
</g>
<!-- fb4a534824bf47b082dacc4b425011e5&#45;&gt;482f3d397aa942c8b0f45e906de439a4 -->
<g id="edge31" class="edge">
<title>fb4a534824bf47b082dacc4b425011e5&#45;&gt;482f3d397aa942c8b0f45e906de439a4</title>
<path fill="none" stroke="#7b8894" d="M363,-3440.67C363,-3586.11 363,-3912 363,-3912 363,-3912 821.74,-3912 821.74,-3912"/>
<polygon fill="#7b8894" stroke="#7b8894" points="821.74,-3915.5 831.74,-3912 821.74,-3908.5 821.74,-3915.5"/>
<text text-anchor="middle" x="595.5" y="-3811.6" font-family="Sans-Serif" font-size="13.00" fill="darkgrey">l_ga_to_ds_engagement_services</text>
</g>
<!-- c26c384ba702490baab9e2a50158e183 -->
<g id="node31" class="node">
<title>c26c384ba702490baab9e2a50158e183</title>
<image xlink:href="icons/bigquery.png" width="101px" height="101px" preserveAspectRatio="xMinYMin meet" x="832" y="-4142.5"/>
<text text-anchor="middle" x="882.5" y="-4027.1" font-family="Sans-Serif" font-size="13.00" fill="#2d3436">engagement.l_ga_to_ama_clics_cartes_bq</text>
</g>
<!-- fb4a534824bf47b082dacc4b425011e5&#45;&gt;c26c384ba702490baab9e2a50158e183 -->
<g id="edge32" class="edge">
<title>fb4a534824bf47b082dacc4b425011e5&#45;&gt;c26c384ba702490baab9e2a50158e183</title>
<path fill="none" stroke="#7b8894" d="M358,-3440.71C358,-3620.68 358,-4092 358,-4092 358,-4092 821.73,-4092 821.73,-4092"/>
<polygon fill="#7b8894" stroke="#7b8894" points="821.73,-4095.5 831.73,-4092 821.73,-4088.5 821.73,-4095.5"/>
<text text-anchor="middle" x="595.5" y="-3984.6" font-family="Sans-Serif" font-size="13.00" fill="darkgrey">l_ga_to_ama_clics_cartes_bq</text>
</g>
<!-- ae99263e62cb4dac97c4b838a8074908 -->
<g id="node33" class="node">
<title>ae99263e62cb4dac97c4b838a8074908</title>
<image xlink:href="icons/bigquery.png" width="101px" height="101px" preserveAspectRatio="xMinYMin meet" x="832" y="-4322.5"/>
<text text-anchor="middle" x="882.5" y="-4207.1" font-family="Sans-Serif" font-size="13.00" fill="#2d3436">ds_engagement.l_ga_to_ds_engagement_consolidation</text>
</g>
<!-- fb4a534824bf47b082dacc4b425011e5&#45;&gt;ae99263e62cb4dac97c4b838a8074908 -->
<g id="edge34" class="edge">
<title>fb4a534824bf47b082dacc4b425011e5&#45;&gt;ae99263e62cb4dac97c4b838a8074908</title>
<path fill="none" stroke="#7b8894" d="M353,-3440.76C353,-3651.14 353,-4272 353,-4272 353,-4272 821.73,-4272 821.73,-4272"/>
<polygon fill="#7b8894" stroke="#7b8894" points="821.73,-4275.5 831.73,-4272 821.73,-4268.5 821.73,-4275.5"/>
<text text-anchor="middle" x="595.5" y="-4160.6" font-family="Sans-Serif" font-size="13.00" fill="darkgrey">l_ga_to_ds_engagement_consolidation</text>
</g>
<!-- 5864b385b41a41ffbbc187b528fe3b45 -->
<g id="node34" class="node">
<title>5864b385b41a41ffbbc187b528fe3b45</title>
<image xlink:href="icons/bigquery.png" width="101px" height="101px" preserveAspectRatio="xMinYMin meet" x="832" y="-4502.5"/>
<text text-anchor="middle" x="882.5" y="-4387.1" font-family="Sans-Serif" font-size="13.00" fill="#2d3436">ds_engagement.l_to_ds_engagement_nb_idbp_et_premiere_visites</text>
</g>
<!-- fb4a534824bf47b082dacc4b425011e5&#45;&gt;5864b385b41a41ffbbc187b528fe3b45 -->
<g id="edge35" class="edge">
<title>fb4a534824bf47b082dacc4b425011e5&#45;&gt;5864b385b41a41ffbbc187b528fe3b45</title>
<path fill="none" stroke="#7b8894" d="M348,-3440.79C348,-3678.68 348,-4452 348,-4452 348,-4452 821.73,-4452 821.73,-4452"/>
<polygon fill="#7b8894" stroke="#7b8894" points="821.73,-4455.5 831.73,-4452 821.73,-4448.5 821.73,-4455.5"/>
<text text-anchor="middle" x="595.5" y="-4338.6" font-family="Sans-Serif" font-size="13.00" fill="darkgrey">l_to_ds_engagement_nb_idbp_et_premiere_visites</text>
</g>
<!-- b6adb07ff2334ff1837eae529aaa7320 -->
<g id="node35" class="node">
<title>b6adb07ff2334ff1837eae529aaa7320</title>
<image xlink:href="icons/bigquery.png" width="101px" height="101px" preserveAspectRatio="xMinYMin meet" x="832" y="-4682.5"/>
<text text-anchor="middle" x="882.5" y="-4567.1" font-family="Sans-Serif" font-size="13.00" fill="#2d3436">ds_engagement.l_to_ds_engagement_avg_sessions_per_client_last3month</text>
</g>
<!-- fb4a534824bf47b082dacc4b425011e5&#45;&gt;b6adb07ff2334ff1837eae529aaa7320 -->
<g id="edge36" class="edge">
<title>fb4a534824bf47b082dacc4b425011e5&#45;&gt;b6adb07ff2334ff1837eae529aaa7320</title>
<path fill="none" stroke="#7b8894" d="M343,-3440.64C343,-3703.57 343,-4632 343,-4632 343,-4632 821.75,-4632 821.75,-4632"/>
<polygon fill="#7b8894" stroke="#7b8894" points="821.75,-4635.5 831.75,-4632 821.75,-4628.5 821.75,-4635.5"/>
<text text-anchor="middle" x="595.5" y="-4517.6" font-family="Sans-Serif" font-size="13.00" fill="darkgrey">l_to_ds_engagement_avg_sessions_per_client_last3month</text>
</g>
<!-- be1ebadad9994bce91f283295b28287e -->
<g id="node36" class="node">
<title>be1ebadad9994bce91f283295b28287e</title>
<image xlink:href="icons/bigquery.png" width="101px" height="101px" preserveAspectRatio="xMinYMin meet" x="832" y="-4862.5"/>
<text text-anchor="middle" x="882.5" y="-4747.1" font-family="Sans-Serif" font-size="13.00" fill="#2d3436">ds_engagement.l_to_ds_engagement_recurrence_repartition_last3month</text>
</g>
<!-- fb4a534824bf47b082dacc4b425011e5&#45;&gt;be1ebadad9994bce91f283295b28287e -->
<g id="edge37" class="edge">
<title>fb4a534824bf47b082dacc4b425011e5&#45;&gt;be1ebadad9994bce91f283295b28287e</title>
<path fill="none" stroke="#7b8894" d="M338,-3440.97C338,-3727.88 338,-4812 338,-4812 338,-4812 821.76,-4812 821.76,-4812"/>
<polygon fill="#7b8894" stroke="#7b8894" points="821.76,-4815.5 831.76,-4812 821.76,-4808.5 821.76,-4815.5"/>
<text text-anchor="middle" x="595.5" y="-4697.6" font-family="Sans-Serif" font-size="13.00" fill="darkgrey">l_to_ds_engagement_recurrence_repartition_last3month</text>
</g>
<!-- 670f4d266305483c845aa4220d869d52 -->
<g id="node37" class="node">
<title>670f4d266305483c845aa4220d869d52</title>
<image xlink:href="icons/bigquery.png" width="101px" height="101px" preserveAspectRatio="xMinYMin meet" x="832" y="-5042.5"/>
<text text-anchor="middle" x="882.5" y="-4927.1" font-family="Sans-Serif" font-size="13.00" fill="#2d3436">ga.t_ga_prog_eng_consultation_et_usage_count</text>
</g>
<!-- fb4a534824bf47b082dacc4b425011e5&#45;&gt;670f4d266305483c845aa4220d869d52 -->
<g id="edge38" class="edge">
<title>fb4a534824bf47b082dacc4b425011e5&#45;&gt;670f4d266305483c845aa4220d869d52</title>
<path fill="none" stroke="#7b8894" d="M333,-3440.57C333,-3748.92 333,-4992 333,-4992 333,-4992 821.79,-4992 821.79,-4992"/>
<polygon fill="#7b8894" stroke="#7b8894" points="821.79,-4995.5 831.79,-4992 821.79,-4988.5 821.79,-4995.5"/>
<text text-anchor="middle" x="595.5" y="-4877.6" font-family="Sans-Serif" font-size="13.00" fill="darkgrey">t_ga_prog_eng_consultation_et_usage_count</text>
</g>
<!-- 0175ff6e604d47ccb64f071d69f25a3c -->
<g id="node38" class="node">
<title>0175ff6e604d47ccb64f071d69f25a3c</title>
<image xlink:href="icons/bigquery.png" width="101px" height="101px" preserveAspectRatio="xMinYMin meet" x="832" y="-5222.5"/>
<text text-anchor="middle" x="882.5" y="-5107.1" font-family="Sans-Serif" font-size="13.00" fill="#2d3436">ga.t_ga_prog_eng_projet_ka_group_by</text>
</g>
<!-- fb4a534824bf47b082dacc4b425011e5&#45;&gt;0175ff6e604d47ccb64f071d69f25a3c -->
<g id="edge39" class="edge">
<title>fb4a534824bf47b082dacc4b425011e5&#45;&gt;0175ff6e604d47ccb64f071d69f25a3c</title>
<path fill="none" stroke="#7b8894" d="M328,-3440.64C328,-3769.93 328,-5172 328,-5172 328,-5172 821.82,-5172 821.82,-5172"/>
<polygon fill="#7b8894" stroke="#7b8894" points="821.82,-5175.5 831.82,-5172 821.82,-5168.5 821.82,-5175.5"/>
<text text-anchor="middle" x="595.5" y="-5057.6" font-family="Sans-Serif" font-size="13.00" fill="darkgrey">t_ga_prog_eng_projet_ka_group_by</text>
</g>
<!-- c6de18c6d0b84688874a607a4acf742e -->
<g id="node39" class="node">
<title>c6de18c6d0b84688874a607a4acf742e</title>
<image xlink:href="icons/bigquery.png" width="101px" height="101px" preserveAspectRatio="xMinYMin meet" x="832" y="-5402.5"/>
<text text-anchor="middle" x="882.5" y="-5287.1" font-family="Sans-Serif" font-size="13.00" fill="#2d3436">ga.t_ga_prog_eng_projet_monthly</text>
</g>
<!-- fb4a534824bf47b082dacc4b425011e5&#45;&gt;c6de18c6d0b84688874a607a4acf742e -->
<g id="edge40" class="edge">
<title>fb4a534824bf47b082dacc4b425011e5&#45;&gt;c6de18c6d0b84688874a607a4acf742e</title>
<path fill="none" stroke="#7b8894" d="M323,-3440.73C323,-3790.04 323,-5352 323,-5352 323,-5352 821.86,-5352 821.86,-5352"/>
<polygon fill="#7b8894" stroke="#7b8894" points="821.86,-5355.5 831.86,-5352 821.86,-5348.5 821.86,-5355.5"/>
<text text-anchor="middle" x="595.5" y="-5237.6" font-family="Sans-Serif" font-size="13.00" fill="darkgrey">t_ga_prog_eng_projet_monthly</text>
</g>
<!-- 3cd7e61312744a249917edcb33f226f2 -->
<g id="node40" class="node">
<title>3cd7e61312744a249917edcb33f226f2</title>
<image xlink:href="icons/bigquery.png" width="101px" height="101px" preserveAspectRatio="xMinYMin meet" x="832" y="-5582.5"/>
<text text-anchor="middle" x="882.5" y="-5467.1" font-family="Sans-Serif" font-size="13.00" fill="#2d3436">ga.t_ga_bots_selfcare</text>
</g>
<!-- fb4a534824bf47b082dacc4b425011e5&#45;&gt;3cd7e61312744a249917edcb33f226f2 -->
<g id="edge41" class="edge">
<title>fb4a534824bf47b082dacc4b425011e5&#45;&gt;3cd7e61312744a249917edcb33f226f2</title>
<path fill="none" stroke="#7b8894" d="M318,-3440.51C318,-3808.31 318,-5532 318,-5532 318,-5532 821.91,-5532 821.91,-5532"/>
<polygon fill="#7b8894" stroke="#7b8894" points="821.91,-5535.5 831.91,-5532 821.91,-5528.5 821.91,-5535.5"/>
<text text-anchor="middle" x="595.5" y="-5417.6" font-family="Sans-Serif" font-size="13.00" fill="darkgrey">t_bots_selfcare</text>
</g>
<!-- e275a118986748ad89083816211dc2a5 -->
<g id="node41" class="node">
<title>e275a118986748ad89083816211dc2a5</title>
<image xlink:href="icons/bigquery.png" width="101px" height="101px" preserveAspectRatio="xMinYMin meet" x="832" y="-5762.5"/>
<text text-anchor="middle" x="882.5" y="-5647.1" font-family="Sans-Serif" font-size="13.00" fill="#2d3436">datastudio_canaux.l_to_ds_canaux_tchat</text>
</g>
<!-- fb4a534824bf47b082dacc4b425011e5&#45;&gt;e275a118986748ad89083816211dc2a5 -->
<g id="edge42" class="edge">
<title>fb4a534824bf47b082dacc4b425011e5&#45;&gt;e275a118986748ad89083816211dc2a5</title>
<path fill="none" stroke="#7b8894" d="M313,-3440.76C313,-3827.28 313,-5712 313,-5712 313,-5712 821.96,-5712 821.96,-5712"/>
<polygon fill="#7b8894" stroke="#7b8894" points="821.96,-5715.5 831.96,-5712 821.96,-5708.5 821.96,-5715.5"/>
<text text-anchor="middle" x="595.5" y="-5597.6" font-family="Sans-Serif" font-size="13.00" fill="darkgrey">l_to_ds_canaux_tchat</text>
</g>
<!-- 2e4c5c05de0e465db70a58bfcc4a0dc0 -->
<g id="node42" class="node">
<title>2e4c5c05de0e465db70a58bfcc4a0dc0</title>
<image xlink:href="icons/bigquery.png" width="101px" height="101px" preserveAspectRatio="xMinYMin meet" x="832" y="-5942.5"/>
<text text-anchor="middle" x="882.5" y="-5827.1" font-family="Sans-Serif" font-size="13.00" fill="#2d3436">datastudio_canaux.l_to_ds_canaux_consolidation_bulles</text>
</g>
<!-- fb4a534824bf47b082dacc4b425011e5&#45;&gt;2e4c5c05de0e465db70a58bfcc4a0dc0 -->
<g id="edge43" class="edge">
<title>fb4a534824bf47b082dacc4b425011e5&#45;&gt;2e4c5c05de0e465db70a58bfcc4a0dc0</title>
<path fill="none" stroke="#7b8894" d="M308,-3440.71C308,-3844.59 308,-5892 308,-5892 308,-5892 821.77,-5892 821.77,-5892"/>
<polygon fill="#7b8894" stroke="#7b8894" points="821.77,-5895.5 831.77,-5892 821.77,-5888.5 821.77,-5895.5"/>
<text text-anchor="middle" x="595.5" y="-5777.6" font-family="Sans-Serif" font-size="13.00" fill="darkgrey">l_to_ds_canaux_consolidation_bulles</text>
</g>
<!-- cb6de3a00f894cbaae180ccc6ecaa620 -->
<g id="node43" class="node">
<title>cb6de3a00f894cbaae180ccc6ecaa620</title>
<image xlink:href="icons/bigquery.png" width="101px" height="101px" preserveAspectRatio="xMinYMin meet" x="832" y="-6122.5"/>
<text text-anchor="middle" x="882.5" y="-6007.1" font-family="Sans-Serif" font-size="13.00" fill="#2d3436">datastudio_canaux.l_to_ds_canaux_tchat_hourly</text>
</g>
<!-- fb4a534824bf47b082dacc4b425011e5&#45;&gt;cb6de3a00f894cbaae180ccc6ecaa620 -->
<g id="edge44" class="edge">
<title>fb4a534824bf47b082dacc4b425011e5&#45;&gt;cb6de3a00f894cbaae180ccc6ecaa620</title>
<path fill="none" stroke="#7b8894" d="M303,-3440.77C303,-3861.68 303,-6072 303,-6072 303,-6072 821.83,-6072 821.83,-6072"/>
<polygon fill="#7b8894" stroke="#7b8894" points="821.83,-6075.5 831.83,-6072 821.83,-6068.5 821.83,-6075.5"/>
<text text-anchor="middle" x="595.5" y="-5957.6" font-family="Sans-Serif" font-size="13.00" fill="darkgrey">l_to_ds_canaux_tchat_hourly</text>
</g>
<!-- 550e923fac5d4bb4b3c4cd471404dcff -->
<g id="node44" class="node">
<title>550e923fac5d4bb4b3c4cd471404dcff</title>
<image xlink:href="icons/bigquery.png" width="101px" height="101px" preserveAspectRatio="xMinYMin meet" x="832" y="-6302.5"/>
<text text-anchor="middle" x="882.5" y="-6187.1" font-family="Sans-Serif" font-size="13.00" fill="#2d3436">datastudio_canaux.l_to_ds_canaux_tchat_eligible_hourly</text>
</g>
<!-- fb4a534824bf47b082dacc4b425011e5&#45;&gt;550e923fac5d4bb4b3c4cd471404dcff -->
<g id="edge45" class="edge">
<title>fb4a534824bf47b082dacc4b425011e5&#45;&gt;550e923fac5d4bb4b3c4cd471404dcff</title>
<path fill="none" stroke="#7b8894" d="M298,-3440.7C298,-3877.76 298,-6252 298,-6252 298,-6252 821.91,-6252 821.91,-6252"/>
<polygon fill="#7b8894" stroke="#7b8894" points="821.91,-6255.5 831.91,-6252 821.91,-6248.5 821.91,-6255.5"/>
<text text-anchor="middle" x="595.5" y="-6137.6" font-family="Sans-Serif" font-size="13.00" fill="darkgrey">l_to_ds_canaux_tchat_eligible_hourly</text>
</g>
<!-- c62ade05dcda4ea789b9261aeb6a5654 -->
<g id="node45" class="node">
<title>c62ade05dcda4ea789b9261aeb6a5654</title>
<image xlink:href="icons/bigquery.png" width="101px" height="101px" preserveAspectRatio="xMinYMin meet" x="832" y="-6482.5"/>
<text text-anchor="middle" x="882.5" y="-6367.1" font-family="Sans-Serif" font-size="13.00" fill="#2d3436">ds_maconso.l_to_ds_maconso_fonctionnalites_elec</text>
</g>
<!-- fb4a534824bf47b082dacc4b425011e5&#45;&gt;c62ade05dcda4ea789b9261aeb6a5654 -->
<g id="edge46" class="edge">
<title>fb4a534824bf47b082dacc4b425011e5&#45;&gt;c62ade05dcda4ea789b9261aeb6a5654</title>
<path fill="none" stroke="#7b8894" d="M293,-3440.57C293,-3893.06 293,-6432 293,-6432 293,-6432 821.98,-6432 821.98,-6432"/>
<polygon fill="#7b8894" stroke="#7b8894" points="821.98,-6435.5 831.98,-6432 821.98,-6428.5 821.98,-6435.5"/>
<text text-anchor="middle" x="595.5" y="-6317.6" font-family="Sans-Serif" font-size="13.00" fill="darkgrey">l_to_ds_maconso_fonctionnalites_elec</text>
</g>
<!-- 0cb082e261ab4b77b8f17193d6aec14a -->
<g id="node46" class="node">
<title>0cb082e261ab4b77b8f17193d6aec14a</title>
<image xlink:href="icons/bigquery.png" width="101px" height="101px" preserveAspectRatio="xMinYMin meet" x="832" y="-6662.5"/>
<text text-anchor="middle" x="882.5" y="-6547.1" font-family="Sans-Serif" font-size="13.00" fill="#2d3436">comper.l_ga_to_ds_comper_sessions</text>
</g>
<!-- fb4a534824bf47b082dacc4b425011e5&#45;&gt;0cb082e261ab4b77b8f17193d6aec14a -->
<g id="edge47" class="edge">
<title>fb4a534824bf47b082dacc4b425011e5&#45;&gt;0cb082e261ab4b77b8f17193d6aec14a</title>
<path fill="none" stroke="#7b8894" d="M288,-3440.79C288,-3909.28 288,-6612 288,-6612 288,-6612 821.81,-6612 821.81,-6612"/>
<polygon fill="#7b8894" stroke="#7b8894" points="821.81,-6615.5 831.81,-6612 821.81,-6608.5 821.81,-6615.5"/>
<text text-anchor="middle" x="595.5" y="-6497.6" font-family="Sans-Serif" font-size="13.00" fill="darkgrey">l_to_ds_comper_sessions</text>
</g>
<!-- 6e6b625b867743c9bbbfbf063dd59143 -->
<g id="node47" class="node">
<title>6e6b625b867743c9bbbfbf063dd59143</title>
<image xlink:href="icons/bigquery.png" width="101px" height="101px" preserveAspectRatio="xMinYMin meet" x="832" y="-6842.5"/>
<text text-anchor="middle" x="882.5" y="-6727.1" font-family="Sans-Serif" font-size="13.00" fill="#2d3436">ga.l_ga_to_ds_comper_parcours_service_equipement_ignition</text>
</g>
<!-- fb4a534824bf47b082dacc4b425011e5&#45;&gt;6e6b625b867743c9bbbfbf063dd59143 -->
<g id="edge48" class="edge">
<title>fb4a534824bf47b082dacc4b425011e5&#45;&gt;6e6b625b867743c9bbbfbf063dd59143</title>
<path fill="none" stroke="#7b8894" d="M283,-3440.7C283,-3923.86 283,-6792 283,-6792 283,-6792 821.9,-6792 821.9,-6792"/>
<polygon fill="#7b8894" stroke="#7b8894" points="821.9,-6795.5 831.9,-6792 821.9,-6788.5 821.9,-6795.5"/>
<text text-anchor="middle" x="595.5" y="-6677.6" font-family="Sans-Serif" font-size="13.00" fill="darkgrey">l_to_ds_comper_parcours_service_equipement_ignition</text>
</g>
<!-- 5003645628624c6098cbc4510ebabdde -->
<g id="node3" class="node">
<title>5003645628624c6098cbc4510ebabdde</title>
<image xlink:href="icons/bigquery.png" width="101px" height="101px" preserveAspectRatio="xMinYMin meet" x="16" y="-1701.5"/>
<text text-anchor="middle" x="66.5" y="-1586.1" font-family="Sans-Serif" font-size="13.00" fill="#2d3436">160756520.ga_sessions_</text>
</g>
<!-- 9e6674a34b734230a2362a9b3f6876ac -->
<g id="node4" class="node">
<title>9e6674a34b734230a2362a9b3f6876ac</title>
<image xlink:href="icons/bigquery.png" width="101px" height="101px" preserveAspectRatio="xMinYMin meet" x="277" y="-1701.5"/>
<text text-anchor="middle" x="327.5" y="-1586.1" font-family="Sans-Serif" font-size="13.00" fill="#2d3436">ga.t_ga_sessions_historic</text>
</g>
<!-- 5003645628624c6098cbc4510ebabdde&#45;&gt;9e6674a34b734230a2362a9b3f6876ac -->
<g id="edge2" class="edge">
<title>5003645628624c6098cbc4510ebabdde&#45;&gt;9e6674a34b734230a2362a9b3f6876ac</title>
<path fill="none" stroke="#7b8894" d="M117.13,-1651C117.13,-1651 266.56,-1651 266.56,-1651"/>
<polygon fill="#7b8894" stroke="#7b8894" points="266.56,-1654.5 276.56,-1651 266.56,-1647.5 266.56,-1654.5"/>
<text text-anchor="middle" x="197" y="-1654.6" font-family="Sans-Serif" font-size="13.00" fill="darkgrey">t_sessions_historic</text>
</g>
<!-- 461dc07c57e24981b92d78c13ba38d78 -->
<g id="node10" class="node">
<title>461dc07c57e24981b92d78c13ba38d78</title>
<image xlink:href="icons/bigquery.png" width="101px" height="101px" preserveAspectRatio="xMinYMin meet" x="1179" y="-700.5"/>
<text text-anchor="middle" x="1229.5" y="-585.1" font-family="Sans-Serif" font-size="13.00" fill="#2d3436">ga.t_ga_optimizely_vs_objectives</text>
</g>
<!-- c6b42a2643054ab2ae0544dd792d6a03&#45;&gt;461dc07c57e24981b92d78c13ba38d78 -->
<g id="edge9" class="edge">
<title>c6b42a2643054ab2ae0544dd792d6a03&#45;&gt;461dc07c57e24981b92d78c13ba38d78</title>
<path fill="none" stroke="#7b8894" d="M933.33,-650C933.33,-650 1168.82,-650 1168.82,-650"/>
<polygon fill="#7b8894" stroke="#7b8894" points="1168.82,-653.5 1178.82,-650 1168.82,-646.5 1168.82,-653.5"/>
<text text-anchor="middle" x="1065.5" y="-653.6" font-family="Sans-Serif" font-size="13.00" fill="darkgrey">t_optimizely_vs_objectives</text>
</g>
<!-- 4186ecfcf98a48f9b5967bd43e9d1b76 -->
<g id="node9" class="node">
<title>4186ecfcf98a48f9b5967bd43e9d1b76</title>
<image xlink:href="icons/bigquery.png" width="101px" height="101px" preserveAspectRatio="xMinYMin meet" x="1179" y="-520.5"/>
<text text-anchor="middle" x="1229.5" y="-405.1" font-family="Sans-Serif" font-size="13.00" fill="#2d3436">ga.t_ga_optimizely_sessions</text>
</g>
<!-- 83f5eea6a2b041029612f6944f4102b1&#45;&gt;4186ecfcf98a48f9b5967bd43e9d1b76 -->
<g id="edge7" class="edge">
<title>83f5eea6a2b041029612f6944f4102b1&#45;&gt;4186ecfcf98a48f9b5967bd43e9d1b76</title>
<path fill="none" stroke="#7b8894" d="M933.33,-470C933.33,-470 1168.82,-470 1168.82,-470"/>
<polygon fill="#7b8894" stroke="#7b8894" points="1168.82,-473.5 1178.82,-470 1168.82,-466.5 1168.82,-473.5"/>
<text text-anchor="middle" x="1065.5" y="-473.6" font-family="Sans-Serif" font-size="13.00" fill="darkgrey">t_optimizely_sessions</text>
</g>
<!-- 83f5eea6a2b041029612f6944f4102b1&#45;&gt;461dc07c57e24981b92d78c13ba38d78 -->
<g id="edge8" class="edge">
<title>83f5eea6a2b041029612f6944f4102b1&#45;&gt;461dc07c57e24981b92d78c13ba38d78</title>
<path fill="none" stroke="#7b8894" d="M883,-538.67C883,-550.99 883,-560 883,-560 883,-560 1230,-560 1230,-560 1230,-560 1230,-571.33 1230,-571.33"/>
<polygon fill="#7b8894" stroke="#7b8894" points="1226.5,-571.33 1230,-581.33 1233.5,-571.33 1226.5,-571.33"/>
<text text-anchor="middle" x="1065.5" y="-563.6" font-family="Sans-Serif" font-size="13.00" fill="darkgrey">t_optimizely_vs_objectives</text>
</g>
<!-- a169bfbab1224c50bf998bba8960e621&#45;&gt;e8d33de812544ca0a19ca9e4fa497a9f -->
<g id="edge10" class="edge">
<title>a169bfbab1224c50bf998bba8960e621&#45;&gt;e8d33de812544ca0a19ca9e4fa497a9f</title>
<path fill="none" stroke="#7b8894" d="M933.33,-888.5C933.33,-888.5 1168.82,-888.5 1168.82,-888.5"/>
<polygon fill="#7b8894" stroke="#7b8894" points="1168.82,-892 1178.82,-888.5 1168.82,-885 1168.82,-892"/>
<text text-anchor="middle" x="1065.5" y="-899.6" font-family="Sans-Serif" font-size="13.00" fill="darkgrey">t_fait_parcours</text>
</g>
<!-- a169bfbab1224c50bf998bba8960e621&#45;&gt;b3b3db5b4e074486bac3cc0d43cc15dd -->
<g id="edge13" class="edge">
<title>a169bfbab1224c50bf998bba8960e621&#45;&gt;b3b3db5b4e074486bac3cc0d43cc15dd</title>
<path fill="none" stroke="#7b8894" d="M933.33,-993.5C933.33,-993.5 1168.82,-993.5 1168.82,-993.5"/>
<polygon fill="#7b8894" stroke="#7b8894" points="1168.82,-997 1178.82,-993.5 1168.82,-990 1168.82,-997"/>
<text text-anchor="middle" x="1065.5" y="-968.6" font-family="Sans-Serif" font-size="13.00" fill="darkgrey">t_parcours_checkpoint_1</text>
</g>
<!-- 1bd9cde7986840e2a24f0974b9732663 -->
<g id="node14" class="node">
<title>1bd9cde7986840e2a24f0974b9732663</title>
<image xlink:href="icons/bigquery.png" width="101px" height="101px" preserveAspectRatio="xMinYMin meet" x="1487" y="-1106.5"/>
<text text-anchor="middle" x="1537.5" y="-991.1" font-family="Sans-Serif" font-size="13.00" fill="#2d3436">ga.t_ga_parcours_checkpoint_1_2</text>
</g>
<!-- b3b3db5b4e074486bac3cc0d43cc15dd&#45;&gt;1bd9cde7986840e2a24f0974b9732663 -->
<g id="edge15" class="edge">
<title>b3b3db5b4e074486bac3cc0d43cc15dd&#45;&gt;1bd9cde7986840e2a24f0974b9732663</title>
<path fill="none" stroke="#7b8894" d="M1280.02,-1056C1280.02,-1056 1476.96,-1056 1476.96,-1056"/>
<polygon fill="#7b8894" stroke="#7b8894" points="1476.96,-1059.5 1486.96,-1056 1476.96,-1052.5 1476.96,-1059.5"/>
<text text-anchor="middle" x="1383.5" y="-1059.6" font-family="Sans-Serif" font-size="13.00" fill="darkgrey">t_parcours_checkpoint_1_2</text>
</g>
<!-- 87e371afbd0e4f71a95c8acb3a9a5deb -->
<g id="node32" class="node">
<title>87e371afbd0e4f71a95c8acb3a9a5deb</title>
<image xlink:href="icons/storage.png" width="101px" height="101px" preserveAspectRatio="xMinYMin meet" x="1179" y="-4142.5"/>
<text text-anchor="middle" x="1229.5" y="-4027.1" font-family="Sans-Serif" font-size="13.00" fill="#2d3436">ga_engie/l_to_ama_ga_clics_engagement/ga_click_carte_pe.csv</text>
</g>
<!-- c26c384ba702490baab9e2a50158e183&#45;&gt;87e371afbd0e4f71a95c8acb3a9a5deb -->
<g id="edge33" class="edge">
<title>c26c384ba702490baab9e2a50158e183&#45;&gt;87e371afbd0e4f71a95c8acb3a9a5deb</title>
<path fill="none" stroke="#7b8894" d="M933.33,-4092C933.33,-4092 1168.82,-4092 1168.82,-4092"/>
<polygon fill="#7b8894" stroke="#7b8894" points="1168.82,-4095.5 1178.82,-4092 1168.82,-4088.5 1168.82,-4095.5"/>
<text text-anchor="middle" x="1065.5" y="-4095.6" font-family="Sans-Serif" font-size="13.00" fill="darkgrey">l_ga_to_ama_clics_cartes_stor</text>
</g>
</g>
</svg>
