<?xml version="1.0" encoding="UTF-8" standalone="no"?>
<!DOCTYPE svg PUBLIC "-//W3C//DTD SVG 1.1//EN"
 "http://www.w3.org/Graphics/SVG/1.1/DTD/svg11.dtd">
<!-- Generated by graphviz version 2.47.1 (20210417.1919)
 -->
<!-- Title: ga_traitements Pages: 1 -->
<svg width="1869pt" height="7186pt"
 viewBox="0.00 0.00 1869.00 7186.00" xmlns="http://www.w3.org/2000/svg" xmlns:xlink="http://www.w3.org/1999/xlink">
<g id="graph0" class="graph" transform="scale(1 1) rotate(0) translate(144 7042)">
<title>ga_traitements</title>
<text text-anchor="middle" x="790.5" y="-9" font-family="Sans-Serif" font-size="15.00" fill="#2d3436">ga_traitements</text>
<g id="clust1" class="cluster">
<title>cluster_ga_traitements</title>
<path fill="#e5f5fd" stroke="#aeb6be" d="M20,-33C20,-33 1561,-33 1561,-33 1567,-33 1573,-39 1573,-45 1573,-45 1573,-6878 1573,-6878 1573,-6884 1567,-6890 1561,-6890 1561,-6890 20,-6890 20,-6890 14,-6890 8,-6884 8,-6878 8,-6878 8,-45 8,-45 8,-39 14,-33 20,-33"/>
<text text-anchor="middle" x="55.5" y="-6876.4" font-family="Sans-Serif" font-size="12.00" fill="#2d3436">ga_traitements</text>
</g>
<!-- 598bf92a4d5349dd8805587df7ab2ab0 -->
<g id="node1" class="node">
<title>598bf92a4d5349dd8805587df7ab2ab0</title>
<image xlink:href="icons/bigquery.png" width="101px" height="101px" preserveAspectRatio="xMinYMin meet" x="16" y="-3511.5"/>
<text text-anchor="middle" x="66.5" y="-3396.1" font-family="Sans-Serif" font-size="13.00" fill="#2d3436">160756520.ga_sessions_*</text>
</g>
<!-- 12d61d660e814a89855a5e8f6314a4d3 -->
<g id="node2" class="node">
<title>12d61d660e814a89855a5e8f6314a4d3</title>
<image xlink:href="icons/bigquery.png" width="101px" height="101px" preserveAspectRatio="xMinYMin meet" x="277" y="-3511.5"/>
<text text-anchor="middle" x="327.5" y="-3396.1" font-family="Sans-Serif" font-size="13.00" fill="#2d3436">ga.t_ga_sessions</text>
</g>
<!-- 598bf92a4d5349dd8805587df7ab2ab0&#45;&gt;12d61d660e814a89855a5e8f6314a4d3 -->
<g id="edge1" class="edge">
<title>598bf92a4d5349dd8805587df7ab2ab0&#45;&gt;12d61d660e814a89855a5e8f6314a4d3</title>
<path fill="none" stroke="#7b8894" d="M117.13,-3461C117.13,-3461 266.56,-3461 266.56,-3461"/>
<polygon fill="#7b8894" stroke="#7b8894" points="266.56,-3464.5 276.56,-3461 266.56,-3457.5 266.56,-3464.5"/>
<text text-anchor="middle" x="197" y="-3464.6" font-family="Sans-Serif" font-size="13.00" fill="darkgrey">t_sessions</text>
</g>
<!-- 4a809f72a1c24aecbf25b061e966ee4c -->
<g id="node5" class="node">
<title>4a809f72a1c24aecbf25b061e966ee4c</title>
<image xlink:href="icons/bigquery.png" width="101px" height="101px" preserveAspectRatio="xMinYMin meet" x="832" y="-340.5"/>
<text text-anchor="middle" x="882.5" y="-225.1" font-family="Sans-Serif" font-size="13.00" fill="#2d3436">ga.t_ga_sessions_sample</text>
</g>
<!-- 12d61d660e814a89855a5e8f6314a4d3&#45;&gt;4a809f72a1c24aecbf25b061e966ee4c -->
<g id="edge3" class="edge">
<title>12d61d660e814a89855a5e8f6314a4d3&#45;&gt;4a809f72a1c24aecbf25b061e966ee4c</title>
<path fill="none" stroke="#7b8894" d="M378.2,-3403.17C426.53,-3403.17 492,-3403.17 492,-3403.17 492,-3403.17 492,-290 492,-290 492,-290 821.85,-290 821.85,-290"/>
<polygon fill="#7b8894" stroke="#7b8894" points="821.85,-293.5 831.85,-290 821.85,-286.5 821.85,-293.5"/>
<text text-anchor="middle" x="595.5" y="-420.6" font-family="Sans-Serif" font-size="13.00" fill="darkgrey">t_sessions_sample</text>
</g>
<!-- aaa0e808a4624ed3b7e5ad2cffbfaf43 -->
<g id="node6" class="node">
<title>aaa0e808a4624ed3b7e5ad2cffbfaf43</title>
<image xlink:href="icons/bigquery.png" width="101px" height="101px" preserveAspectRatio="xMinYMin meet" x="832" y="-520.5"/>
<text text-anchor="middle" x="882.5" y="-405.1" font-family="Sans-Serif" font-size="13.00" fill="#2d3436">ga.t_ga_objectives_entries_vs_objectives</text>
</g>
<!-- 12d61d660e814a89855a5e8f6314a4d3&#45;&gt;aaa0e808a4624ed3b7e5ad2cffbfaf43 -->
<g id="edge4" class="edge">
<title>12d61d660e814a89855a5e8f6314a4d3&#45;&gt;aaa0e808a4624ed3b7e5ad2cffbfaf43</title>
<path fill="none" stroke="#7b8894" d="M378.04,-3408.5C443.41,-3408.5 549,-3408.5 549,-3408.5 549,-3408.5 549,-470 549,-470 549,-470 821.85,-470 821.85,-470"/>
<polygon fill="#7b8894" stroke="#7b8894" points="821.85,-473.5 831.85,-470 821.85,-466.5 821.85,-473.5"/>
<text text-anchor="middle" x="595.5" y="-610.6" font-family="Sans-Serif" font-size="13.00" fill="darkgrey">t_objectives_entries_vs_objectives</text>
</g>
<!-- 88f853629c784bac9dce1211cc85977a -->
<g id="node7" class="node">
<title>88f853629c784bac9dce1211cc85977a</title>
<image xlink:href="icons/bigquery.png" width="101px" height="101px" preserveAspectRatio="xMinYMin meet" x="832" y="-700.5"/>
<text text-anchor="middle" x="882.5" y="-585.1" font-family="Sans-Serif" font-size="13.00" fill="#2d3436">ga.t_ga_objectives_events</text>
</g>
<!-- 12d61d660e814a89855a5e8f6314a4d3&#45;&gt;88f853629c784bac9dce1211cc85977a -->
<g id="edge5" class="edge">
<title>12d61d660e814a89855a5e8f6314a4d3&#45;&gt;88f853629c784bac9dce1211cc85977a</title>
<path fill="none" stroke="#7b8894" d="M378.08,-3413.83C458.12,-3413.83 605,-3413.83 605,-3413.83 605,-3413.83 605,-650 605,-650 605,-650 821.92,-650 821.92,-650"/>
<polygon fill="#7b8894" stroke="#7b8894" points="821.92,-653.5 831.92,-650 821.92,-646.5 821.92,-653.5"/>
<text text-anchor="middle" x="595.5" y="-810.6" font-family="Sans-Serif" font-size="13.00" fill="darkgrey">t_objectives_events</text>
</g>
<!-- 62273a13998f41e88478b40686eddad8 -->
<g id="node8" class="node">
<title>62273a13998f41e88478b40686eddad8</title>
<image xlink:href="icons/bigquery.png" width="101px" height="101px" preserveAspectRatio="xMinYMin meet" x="832" y="-160.5"/>
<text text-anchor="middle" x="882.5" y="-45.1" font-family="Sans-Serif" font-size="13.00" fill="#2d3436">ga.t_ga_optimizely_events</text>
</g>
<!-- 12d61d660e814a89855a5e8f6314a4d3&#45;&gt;62273a13998f41e88478b40686eddad8 -->
<g id="edge6" class="edge">
<title>12d61d660e814a89855a5e8f6314a4d3&#45;&gt;62273a13998f41e88478b40686eddad8</title>
<path fill="none" stroke="#7b8894" d="M378.1,-3397.83C405.98,-3397.83 435,-3397.83 435,-3397.83 435,-3397.83 435,-110 435,-110 435,-110 821.6,-110 821.6,-110"/>
<polygon fill="#7b8894" stroke="#7b8894" points="821.6,-113.5 831.6,-110 821.6,-106.5 821.6,-113.5"/>
<text text-anchor="middle" x="595.5" y="-172.6" font-family="Sans-Serif" font-size="13.00" fill="darkgrey">t_optimizely_events</text>
</g>
<!-- c84f6cdf798a47fa98b062c737ba8687 -->
<g id="node12" class="node">
<title>c84f6cdf798a47fa98b062c737ba8687</title>
<image xlink:href="icons/bigquery.png" width="101px" height="101px" preserveAspectRatio="xMinYMin meet" x="832" y="-1161.5"/>
<text text-anchor="middle" x="882.5" y="-1046.1" font-family="Sans-Serif" font-size="13.00" fill="#2d3436">ga.t_ga_detail_session_checkpoint</text>
</g>
<!-- 12d61d660e814a89855a5e8f6314a4d3&#45;&gt;c84f6cdf798a47fa98b062c737ba8687 -->
<g id="edge12" class="edge">
<title>12d61d660e814a89855a5e8f6314a4d3&#45;&gt;c84f6cdf798a47fa98b062c737ba8687</title>
<path fill="none" stroke="#7b8894" d="M378.3,-3419.17C471.88,-3419.17 662,-3419.17 662,-3419.17 662,-3419.17 662,-1111 662,-1111 662,-1111 821.91,-1111 821.91,-1111"/>
<polygon fill="#7b8894" stroke="#7b8894" points="821.91,-1114.5 831.91,-1111 821.91,-1107.5 821.91,-1114.5"/>
<text text-anchor="middle" x="595.5" y="-1182.6" font-family="Sans-Serif" font-size="13.00" fill="darkgrey">t_detail_session_checkpoint</text>
</g>
<!-- 4e9c6458e0bd481ab49ff22b55d4436b -->
<g id="node13" class="node">
<title>4e9c6458e0bd481ab49ff22b55d4436b</title>
<image xlink:href="icons/bigquery.png" width="101px" height="101px" preserveAspectRatio="xMinYMin meet" x="1156" y="-1060.5"/>
<text text-anchor="middle" x="1206.5" y="-945.1" font-family="Sans-Serif" font-size="13.00" fill="#2d3436">ga.t_ga_fait_parcours</text>
</g>
<!-- 12d61d660e814a89855a5e8f6314a4d3&#45;&gt;4e9c6458e0bd481ab49ff22b55d4436b -->
<g id="edge11" class="edge">
<title>12d61d660e814a89855a5e8f6314a4d3&#45;&gt;4e9c6458e0bd481ab49ff22b55d4436b</title>
<path fill="none" stroke="#7b8894" d="M378.24,-3454.83C541.86,-3454.83 1045,-3454.83 1045,-3454.83 1045,-3454.83 1045,-1066.5 1045,-1066.5 1045,-1066.5 1145.84,-1066.5 1145.84,-1066.5"/>
<polygon fill="#7b8894" stroke="#7b8894" points="1145.84,-1070 1155.84,-1066.5 1145.84,-1063 1145.84,-1070"/>
<text text-anchor="middle" x="882.5" y="-988.6" font-family="Sans-Serif" font-size="13.00" fill="darkgrey">t_fait_parcours</text>
</g>
<!-- 89657f91c8ff4e0cbd7d80c5a71b4666 -->
<g id="node14" class="node">
<title>89657f91c8ff4e0cbd7d80c5a71b4666</title>
<image xlink:href="icons/bigquery.png" width="101px" height="101px" preserveAspectRatio="xMinYMin meet" x="1156" y="-1290.5"/>
<text text-anchor="middle" x="1206.5" y="-1175.1" font-family="Sans-Serif" font-size="13.00" fill="#2d3436">ga.t_ga_parcours_checkpoint_1</text>
</g>
<!-- 12d61d660e814a89855a5e8f6314a4d3&#45;&gt;89657f91c8ff4e0cbd7d80c5a71b4666 -->
<g id="edge14" class="edge">
<title>12d61d660e814a89855a5e8f6314a4d3&#45;&gt;89657f91c8ff4e0cbd7d80c5a71b4666</title>
<path fill="none" stroke="#7b8894" d="M378.27,-3469.17C565.56,-3469.17 1207,-3469.17 1207,-3469.17 1207,-3469.17 1207,-1318.54 1207,-1318.54"/>
<polygon fill="#7b8894" stroke="#7b8894" points="1210.5,-1318.54 1207,-1308.54 1203.5,-1318.54 1210.5,-1318.54"/>
<text text-anchor="middle" x="882.5" y="-1269.6" font-family="Sans-Serif" font-size="13.00" fill="darkgrey">t_parcours_checkpoint_1</text>
</g>
<!-- bac25b04d2ed493f87b113aa68e849dc -->
<g id="node16" class="node">
<title>bac25b04d2ed493f87b113aa68e849dc</title>
<image xlink:href="icons/bigquery.png" width="101px" height="101px" preserveAspectRatio="xMinYMin meet" x="832" y="-1442.5"/>
<text text-anchor="middle" x="882.5" y="-1327.1" font-family="Sans-Serif" font-size="13.00" fill="#2d3436">ga.t_ga_qualite</text>
</g>
<!-- 12d61d660e814a89855a5e8f6314a4d3&#45;&gt;bac25b04d2ed493f87b113aa68e849dc -->
<g id="edge16" class="edge">
<title>12d61d660e814a89855a5e8f6314a4d3&#45;&gt;bac25b04d2ed493f87b113aa68e849dc</title>
<path fill="none" stroke="#7b8894" d="M378.28,-3424.5C484.21,-3424.5 719,-3424.5 719,-3424.5 719,-3424.5 719,-1392 719,-1392 719,-1392 821.66,-1392 821.66,-1392"/>
<polygon fill="#7b8894" stroke="#7b8894" points="821.66,-1395.5 831.66,-1392 821.66,-1388.5 821.66,-1395.5"/>
<text text-anchor="middle" x="595.5" y="-1425.6" font-family="Sans-Serif" font-size="13.00" fill="darkgrey">t_qualite</text>
</g>
<!-- aa81d0d2399043d3a104df9c6d58b2ac -->
<g id="node17" class="node">
<title>aa81d0d2399043d3a104df9c6d58b2ac</title>
<image xlink:href="icons/bigquery.png" width="101px" height="101px" preserveAspectRatio="xMinYMin meet" x="832" y="-1622.5"/>
<text text-anchor="middle" x="882.5" y="-1507.1" font-family="Sans-Serif" font-size="13.00" fill="#2d3436">ga.t_ga_recurrence_visites_ec_sessions</text>
</g>
<!-- 12d61d660e814a89855a5e8f6314a4d3&#45;&gt;aa81d0d2399043d3a104df9c6d58b2ac -->
<g id="edge17" class="edge">
<title>12d61d660e814a89855a5e8f6314a4d3&#45;&gt;aa81d0d2399043d3a104df9c6d58b2ac</title>
<path fill="none" stroke="#7b8894" d="M378.08,-3429.83C495.37,-3429.83 776,-3429.83 776,-3429.83 776,-3429.83 776,-1572 776,-1572 776,-1572 821.75,-1572 821.75,-1572"/>
<polygon fill="#7b8894" stroke="#7b8894" points="821.75,-1575.5 831.75,-1572 821.75,-1568.5 821.75,-1575.5"/>
<text text-anchor="middle" x="595.5" y="-2136.6" font-family="Sans-Serif" font-size="13.00" fill="darkgrey">t_visites_ec_sessions</text>
</g>
<!-- 08980dbfaf5042b38389a803ae286390 -->
<g id="node18" class="node">
<title>08980dbfaf5042b38389a803ae286390</title>
<image xlink:href="icons/bigquery.png" width="101px" height="101px" preserveAspectRatio="xMinYMin meet" x="832" y="-1802.5"/>
<text text-anchor="middle" x="882.5" y="-1687.1" font-family="Sans-Serif" font-size="13.00" fill="#2d3436">ga.t_ga_blog_vs_objectifs</text>
</g>
<!-- 12d61d660e814a89855a5e8f6314a4d3&#45;&gt;08980dbfaf5042b38389a803ae286390 -->
<g id="edge18" class="edge">
<title>12d61d660e814a89855a5e8f6314a4d3&#45;&gt;08980dbfaf5042b38389a803ae286390</title>
<path fill="none" stroke="#7b8894" d="M288,-3392.35C288,-3080.74 288,-1814.5 288,-1814.5 288,-1814.5 821.81,-1814.5 821.81,-1814.5"/>
<polygon fill="#7b8894" stroke="#7b8894" points="821.81,-1818 831.81,-1814.5 821.81,-1811 821.81,-1818"/>
<text text-anchor="middle" x="595.5" y="-2522.6" font-family="Sans-Serif" font-size="13.00" fill="darkgrey">t_blog_vs_objectifs</text>
</g>
<!-- 5f87397530714122acf567e989da648f -->
<g id="node19" class="node">
<title>5f87397530714122acf567e989da648f</title>
<image xlink:href="icons/bigquery.png" width="101px" height="101px" preserveAspectRatio="xMinYMin meet" x="832" y="-1982.5"/>
<text text-anchor="middle" x="882.5" y="-1867.1" font-family="Sans-Serif" font-size="13.00" fill="#2d3436">ga.t_ga_ec_connexions</text>
</g>
<!-- 12d61d660e814a89855a5e8f6314a4d3&#45;&gt;5f87397530714122acf567e989da648f -->
<g id="edge19" class="edge">
<title>12d61d660e814a89855a5e8f6314a4d3&#45;&gt;5f87397530714122acf567e989da648f</title>
<path fill="none" stroke="#7b8894" d="M298,-3392.33C298,-3094.81 298,-1932 298,-1932 298,-1932 821.91,-1932 821.91,-1932"/>
<polygon fill="#7b8894" stroke="#7b8894" points="821.91,-1935.5 831.91,-1932 821.91,-1928.5 821.91,-1935.5"/>
<text text-anchor="middle" x="595.5" y="-2746.6" font-family="Sans-Serif" font-size="13.00" fill="darkgrey">t_ec_connexions</text>
</g>
<!-- 15cd033673d1455da47cf237d7408474 -->
<g id="node20" class="node">
<title>15cd033673d1455da47cf237d7408474</title>
<image xlink:href="icons/bigquery.png" width="101px" height="101px" preserveAspectRatio="xMinYMin meet" x="832" y="-2162.5"/>
<text text-anchor="middle" x="882.5" y="-2047.1" font-family="Sans-Serif" font-size="13.00" fill="#2d3436">ga.t_ga_ec_connexions_mfa</text>
</g>
<!-- 12d61d660e814a89855a5e8f6314a4d3&#45;&gt;15cd033673d1455da47cf237d7408474 -->
<g id="edge20" class="edge">
<title>12d61d660e814a89855a5e8f6314a4d3&#45;&gt;15cd033673d1455da47cf237d7408474</title>
<path fill="none" stroke="#7b8894" d="M308,-3392.25C308,-3117.35 308,-2112 308,-2112 308,-2112 821.77,-2112 821.77,-2112"/>
<polygon fill="#7b8894" stroke="#7b8894" points="821.77,-2115.5 831.77,-2112 821.77,-2108.5 821.77,-2115.5"/>
<text text-anchor="middle" x="595.5" y="-2889.6" font-family="Sans-Serif" font-size="13.00" fill="darkgrey">t_ec_connexions_mfa</text>
</g>
<!-- 86882c4301234cccaed1b3f3d8d8d7da -->
<g id="node21" class="node">
<title>86882c4301234cccaed1b3f3d8d8d7da</title>
<image xlink:href="icons/bigquery.png" width="101px" height="101px" preserveAspectRatio="xMinYMin meet" x="832" y="-2342.5"/>
<text text-anchor="middle" x="882.5" y="-2227.1" font-family="Sans-Serif" font-size="13.00" fill="#2d3436">ga.t_ga_consentements_parcours</text>
</g>
<!-- 12d61d660e814a89855a5e8f6314a4d3&#45;&gt;86882c4301234cccaed1b3f3d8d8d7da -->
<g id="edge21" class="edge">
<title>12d61d660e814a89855a5e8f6314a4d3&#45;&gt;86882c4301234cccaed1b3f3d8d8d7da</title>
<path fill="none" stroke="#7b8894" d="M318,-3392.24C318,-3141.66 318,-2292 318,-2292 318,-2292 821.91,-2292 821.91,-2292"/>
<polygon fill="#7b8894" stroke="#7b8894" points="821.91,-2295.5 831.91,-2292 821.91,-2288.5 821.91,-2295.5"/>
<text text-anchor="middle" x="595.5" y="-2992.6" font-family="Sans-Serif" font-size="13.00" fill="darkgrey">t_consentements_parcours</text>
</g>
<!-- 8d7b003d5ed7428b8cc9b28efb0c72f1 -->
<g id="node22" class="node">
<title>8d7b003d5ed7428b8cc9b28efb0c72f1</title>
<image xlink:href="icons/bigquery.png" width="101px" height="101px" preserveAspectRatio="xMinYMin meet" x="832" y="-2522.5"/>
<text text-anchor="middle" x="882.5" y="-2407.1" font-family="Sans-Serif" font-size="13.00" fill="#2d3436">ga.t_ga_visites_ec_recurrence_bp</text>
</g>
<!-- 12d61d660e814a89855a5e8f6314a4d3&#45;&gt;8d7b003d5ed7428b8cc9b28efb0c72f1 -->
<g id="edge22" class="edge">
<title>12d61d660e814a89855a5e8f6314a4d3&#45;&gt;8d7b003d5ed7428b8cc9b28efb0c72f1</title>
<path fill="none" stroke="#7b8894" d="M328,-3392.24C328,-3167.96 328,-2472 328,-2472 328,-2472 821.82,-2472 821.82,-2472"/>
<polygon fill="#7b8894" stroke="#7b8894" points="821.82,-2475.5 831.82,-2472 821.82,-2468.5 821.82,-2475.5"/>
<text text-anchor="middle" x="595.5" y="-3074.6" font-family="Sans-Serif" font-size="13.00" fill="darkgrey">t_visites_ec_recurrence_bp</text>
</g>
<!-- fe3998bd9bec465db10aea66109da627 -->
<g id="node23" class="node">
<title>fe3998bd9bec465db10aea66109da627</title>
<image xlink:href="icons/bigquery.png" width="101px" height="101px" preserveAspectRatio="xMinYMin meet" x="832" y="-2702.5"/>
<text text-anchor="middle" x="882.5" y="-2587.1" font-family="Sans-Serif" font-size="13.00" fill="#2d3436">ga.t_ga_recurrence1_moyenne_session_ec_bp_support_device_profil_mois</text>
</g>
<!-- 12d61d660e814a89855a5e8f6314a4d3&#45;&gt;fe3998bd9bec465db10aea66109da627 -->
<g id="edge23" class="edge">
<title>12d61d660e814a89855a5e8f6314a4d3&#45;&gt;fe3998bd9bec465db10aea66109da627</title>
<path fill="none" stroke="#7b8894" d="M338,-3392.37C338,-3197.03 338,-2652 338,-2652 338,-2652 821.76,-2652 821.76,-2652"/>
<polygon fill="#7b8894" stroke="#7b8894" points="821.76,-2655.5 831.76,-2652 821.76,-2648.5 821.76,-2655.5"/>
<text text-anchor="middle" x="595.5" y="-3146.6" font-family="Sans-Serif" font-size="13.00" fill="darkgrey">t_recurrence1_moyenne_session_ec_bp_support_device_profil_mois</text>
</g>
<!-- 951ed8b71d3245c68988260e90f17b0e -->
<g id="node24" class="node">
<title>951ed8b71d3245c68988260e90f17b0e</title>
<image xlink:href="icons/bigquery.png" width="101px" height="101px" preserveAspectRatio="xMinYMin meet" x="832" y="-2882.5"/>
<text text-anchor="middle" x="882.5" y="-2767.1" font-family="Sans-Serif" font-size="13.00" fill="#2d3436">ga.t_ga_recurrence1_moyenne_session_ec_bp_support_mois</text>
</g>
<!-- 12d61d660e814a89855a5e8f6314a4d3&#45;&gt;951ed8b71d3245c68988260e90f17b0e -->
<g id="edge24" class="edge">
<title>12d61d660e814a89855a5e8f6314a4d3&#45;&gt;951ed8b71d3245c68988260e90f17b0e</title>
<path fill="none" stroke="#7b8894" d="M348,-3392.49C348,-3229.47 348,-2832 348,-2832 348,-2832 821.73,-2832 821.73,-2832"/>
<polygon fill="#7b8894" stroke="#7b8894" points="821.73,-2835.5 831.73,-2832 821.73,-2828.5 821.73,-2835.5"/>
<text text-anchor="middle" x="595.5" y="-3213.6" font-family="Sans-Serif" font-size="13.00" fill="darkgrey">t_recurrence1_moyenne_session_ec_bp_support_mois</text>
</g>
<!-- 4bc19d2002b04214acb6f90997793e9c -->
<g id="node25" class="node">
<title>4bc19d2002b04214acb6f90997793e9c</title>
<image xlink:href="icons/bigquery.png" width="101px" height="101px" preserveAspectRatio="xMinYMin meet" x="832" y="-3062.5"/>
<text text-anchor="middle" x="882.5" y="-2947.1" font-family="Sans-Serif" font-size="13.00" fill="#2d3436">ga.t_ga_recurrence2_groupe_nb_session_ec_bp_support_mois</text>
</g>
<!-- 12d61d660e814a89855a5e8f6314a4d3&#45;&gt;4bc19d2002b04214acb6f90997793e9c -->
<g id="edge25" class="edge">
<title>12d61d660e814a89855a5e8f6314a4d3&#45;&gt;4bc19d2002b04214acb6f90997793e9c</title>
<path fill="none" stroke="#7b8894" d="M358,-3392.32C358,-3266.54 358,-3012 358,-3012 358,-3012 821.73,-3012 821.73,-3012"/>
<polygon fill="#7b8894" stroke="#7b8894" points="821.73,-3015.5 831.73,-3012 821.73,-3008.5 821.73,-3015.5"/>
<text text-anchor="middle" x="595.5" y="-3278.6" font-family="Sans-Serif" font-size="13.00" fill="darkgrey">t_recurrence2_groupe_nb_session_ec_bp_support_mois</text>
</g>
<!-- 16fd0f89751441ffaa83ed81f6efd892 -->
<g id="node26" class="node">
<title>16fd0f89751441ffaa83ed81f6efd892</title>
<image xlink:href="icons/bigquery.png" width="101px" height="101px" preserveAspectRatio="xMinYMin meet" x="832" y="-3242.5"/>
<text text-anchor="middle" x="882.5" y="-3127.1" font-family="Sans-Serif" font-size="13.00" fill="#2d3436">ga.t_ga_recurrence2_groupe_nb_session_ec_bp_profil_mois</text>
</g>
<!-- 12d61d660e814a89855a5e8f6314a4d3&#45;&gt;16fd0f89751441ffaa83ed81f6efd892 -->
<g id="edge26" class="edge">
<title>12d61d660e814a89855a5e8f6314a4d3&#45;&gt;16fd0f89751441ffaa83ed81f6efd892</title>
<path fill="none" stroke="#7b8894" d="M368,-3392.42C368,-3312.73 368,-3192 368,-3192 368,-3192 821.76,-3192 821.76,-3192"/>
<polygon fill="#7b8894" stroke="#7b8894" points="821.76,-3195.5 831.76,-3192 821.76,-3188.5 821.76,-3195.5"/>
<text text-anchor="middle" x="595.5" y="-3341.6" font-family="Sans-Serif" font-size="13.00" fill="darkgrey">t_recurrence2_groupe_nb_session_ec_bp_profil_mois</text>
</g>
<!-- e15a15728c124a26ab0416c63a6e0798 -->
<g id="node27" class="node">
<title>e15a15728c124a26ab0416c63a6e0798</title>
<image xlink:href="icons/bigquery.png" width="101px" height="101px" preserveAspectRatio="xMinYMin meet" x="832" y="-3422.5"/>
<text text-anchor="middle" x="882.5" y="-3307.1" font-family="Sans-Serif" font-size="13.00" fill="#2d3436">ga.t_ga_recurrence3_usage_crossdevice_detail_ec_nb_idbp_mois</text>
</g>
<!-- 12d61d660e814a89855a5e8f6314a4d3&#45;&gt;e15a15728c124a26ab0416c63a6e0798 -->
<g id="edge27" class="edge">
<title>12d61d660e814a89855a5e8f6314a4d3&#45;&gt;e15a15728c124a26ab0416c63a6e0798</title>
<path fill="none" stroke="#7b8894" d="M378.22,-3435.17C378.22,-3435.17 821.69,-3435.17 821.69,-3435.17"/>
<polygon fill="#7b8894" stroke="#7b8894" points="821.69,-3438.67 831.69,-3435.17 821.69,-3431.67 821.69,-3438.67"/>
<text text-anchor="middle" x="595.5" y="-3404.6" font-family="Sans-Serif" font-size="13.00" fill="darkgrey">t_recurrence3_usage_crossdevice_detail_ec_nb_idbp_mois</text>
</g>
<!-- 8b1e758bdcb9408ca2bd64cb54646160 -->
<g id="node28" class="node">
<title>8b1e758bdcb9408ca2bd64cb54646160</title>
<image xlink:href="icons/bigquery.png" width="101px" height="101px" preserveAspectRatio="xMinYMin meet" x="832" y="-3602.5"/>
<text text-anchor="middle" x="882.5" y="-3487.1" font-family="Sans-Serif" font-size="13.00" fill="#2d3436">ga.t_ga_recurrence3_usage_crossdevice_detail_ec_nb_idbp_year</text>
</g>
<!-- 12d61d660e814a89855a5e8f6314a4d3&#45;&gt;8b1e758bdcb9408ca2bd64cb54646160 -->
<g id="edge28" class="edge">
<title>12d61d660e814a89855a5e8f6314a4d3&#45;&gt;8b1e758bdcb9408ca2bd64cb54646160</title>
<path fill="none" stroke="#7b8894" d="M378.22,-3506.5C378.22,-3506.5 821.69,-3506.5 821.69,-3506.5"/>
<polygon fill="#7b8894" stroke="#7b8894" points="821.69,-3510 831.69,-3506.5 821.69,-3503 821.69,-3510"/>
<text text-anchor="middle" x="595.5" y="-3525.6" font-family="Sans-Serif" font-size="13.00" fill="darkgrey">t_recurrence3_usage_crossdevice_detail_ec_nb_idbp_year</text>
</g>
<!-- 5a9107c326de4e328c09af7b8259587e -->
<g id="node29" class="node">
<title>5a9107c326de4e328c09af7b8259587e</title>
<image xlink:href="icons/bigquery.png" width="101px" height="101px" preserveAspectRatio="xMinYMin meet" x="832" y="-3782.5"/>
<text text-anchor="middle" x="882.5" y="-3667.1" font-family="Sans-Serif" font-size="13.00" fill="#2d3436">ga.t_ga_prog_eng_consultation_et_usage</text>
</g>
<!-- 12d61d660e814a89855a5e8f6314a4d3&#45;&gt;5a9107c326de4e328c09af7b8259587e -->
<g id="edge29" class="edge">
<title>12d61d660e814a89855a5e8f6314a4d3&#45;&gt;5a9107c326de4e328c09af7b8259587e</title>
<path fill="none" stroke="#7b8894" d="M373,-3529.74C373,-3610.02 373,-3732 373,-3732 373,-3732 821.78,-3732 821.78,-3732"/>
<polygon fill="#7b8894" stroke="#7b8894" points="821.78,-3735.5 831.78,-3732 821.78,-3728.5 821.78,-3735.5"/>
<text text-anchor="middle" x="595.5" y="-3675.6" font-family="Sans-Serif" font-size="13.00" fill="darkgrey">t_ga_prog_eng_consultation_et_usage</text>
</g>
<!-- c04f3b57ab9b4f3eb5f894f558e83b70 -->
<g id="node30" class="node">
<title>c04f3b57ab9b4f3eb5f894f558e83b70</title>
<image xlink:href="icons/bigquery.png" width="101px" height="101px" preserveAspectRatio="xMinYMin meet" x="832" y="-3962.5"/>
<text text-anchor="middle" x="882.5" y="-3847.1" font-family="Sans-Serif" font-size="13.00" fill="#2d3436">comite_drc.e_ds_comite_drc_infosmensuelles</text>
</g>
<!-- 12d61d660e814a89855a5e8f6314a4d3&#45;&gt;c04f3b57ab9b4f3eb5f894f558e83b70 -->
<g id="edge30" class="edge">
<title>12d61d660e814a89855a5e8f6314a4d3&#45;&gt;c04f3b57ab9b4f3eb5f894f558e83b70</title>
<path fill="none" stroke="#7b8894" d="M368,-3529.99C368,-3656.33 368,-3912 368,-3912 368,-3912 821.76,-3912 821.76,-3912"/>
<polygon fill="#7b8894" stroke="#7b8894" points="821.76,-3915.5 831.76,-3912 821.76,-3908.5 821.76,-3915.5"/>
<text text-anchor="middle" x="595.5" y="-3840.6" font-family="Sans-Serif" font-size="13.00" fill="darkgrey">e_ds_comite_drc_infosmensuelles</text>
</g>
<!-- 837591c9aa214a4982cceeeee2cd6452 -->
<g id="node31" class="node">
<title>837591c9aa214a4982cceeeee2cd6452</title>
<image xlink:href="icons/bigquery.png" width="101px" height="101px" preserveAspectRatio="xMinYMin meet" x="832" y="-4142.5"/>
<text text-anchor="middle" x="882.5" y="-4027.1" font-family="Sans-Serif" font-size="13.00" fill="#2d3436">ds_engagement.l_ga_to_ds_engagement_services</text>
</g>
<!-- 12d61d660e814a89855a5e8f6314a4d3&#45;&gt;837591c9aa214a4982cceeeee2cd6452 -->
<g id="edge31" class="edge">
<title>12d61d660e814a89855a5e8f6314a4d3&#45;&gt;837591c9aa214a4982cceeeee2cd6452</title>
<path fill="none" stroke="#7b8894" d="M363,-3529.73C363,-3693.27 363,-4092 363,-4092 363,-4092 821.74,-4092 821.74,-4092"/>
<polygon fill="#7b8894" stroke="#7b8894" points="821.74,-4095.5 831.74,-4092 821.74,-4088.5 821.74,-4095.5"/>
<text text-anchor="middle" x="595.5" y="-4013.6" font-family="Sans-Serif" font-size="13.00" fill="darkgrey">l_ga_to_ds_engagement_services</text>
</g>
<!-- b1981b0ac5bb4bdf82734eeeeb6cadee -->
<g id="node32" class="node">
<title>b1981b0ac5bb4bdf82734eeeeb6cadee</title>
<image xlink:href="icons/bigquery.png" width="101px" height="101px" preserveAspectRatio="xMinYMin meet" x="832" y="-4322.5"/>
<text text-anchor="middle" x="882.5" y="-4207.1" font-family="Sans-Serif" font-size="13.00" fill="#2d3436">ds_engagement.l_ga_to_ds_engagement_consolidation</text>
</g>
<!-- 12d61d660e814a89855a5e8f6314a4d3&#45;&gt;b1981b0ac5bb4bdf82734eeeeb6cadee -->
<g id="edge32" class="edge">
<title>12d61d660e814a89855a5e8f6314a4d3&#45;&gt;b1981b0ac5bb4bdf82734eeeeb6cadee</title>
<path fill="none" stroke="#7b8894" d="M357,-3529.8C357,-3725.62 357,-4272 357,-4272 357,-4272 821.64,-4272 821.64,-4272"/>
<polygon fill="#7b8894" stroke="#7b8894" points="821.64,-4275.5 831.64,-4272 821.64,-4268.5 821.64,-4275.5"/>
<text text-anchor="middle" x="595.5" y="-4189.6" font-family="Sans-Serif" font-size="13.00" fill="darkgrey">l_ga_to_ds_engagement_consolidation</text>
</g>
<!-- 5fa1cc3c5764444caa739282f2aeb477 -->
<g id="node33" class="node">
<title>5fa1cc3c5764444caa739282f2aeb477</title>
<image xlink:href="icons/bigquery.png" width="101px" height="101px" preserveAspectRatio="xMinYMin meet" x="832" y="-4502.5"/>
<text text-anchor="middle" x="882.5" y="-4387.1" font-family="Sans-Serif" font-size="13.00" fill="#2d3436">ds_engagement.l_to_ds_engagement_nb_idbp_et_premiere_visites</text>
</g>
<!-- 12d61d660e814a89855a5e8f6314a4d3&#45;&gt;5fa1cc3c5764444caa739282f2aeb477 -->
<g id="edge33" class="edge">
<title>12d61d660e814a89855a5e8f6314a4d3&#45;&gt;5fa1cc3c5764444caa739282f2aeb477</title>
<path fill="none" stroke="#7b8894" d="M352,-3529.51C352,-3753.82 352,-4452 352,-4452 352,-4452 821.63,-4452 821.63,-4452"/>
<polygon fill="#7b8894" stroke="#7b8894" points="821.63,-4455.5 831.63,-4452 821.63,-4448.5 821.63,-4455.5"/>
<text text-anchor="middle" x="595.5" y="-4367.6" font-family="Sans-Serif" font-size="13.00" fill="darkgrey">l_to_ds_engagement_nb_idbp_et_premiere_visites</text>
</g>
<!-- 90c991e18fcd4929afe7142c8f519386 -->
<g id="node34" class="node">
<title>90c991e18fcd4929afe7142c8f519386</title>
<image xlink:href="icons/bigquery.png" width="101px" height="101px" preserveAspectRatio="xMinYMin meet" x="832" y="-4682.5"/>
<text text-anchor="middle" x="882.5" y="-4567.1" font-family="Sans-Serif" font-size="13.00" fill="#2d3436">ds_engagement.l_to_ds_engagement_avg_sessions_per_client_last3month</text>
</g>
<!-- 12d61d660e814a89855a5e8f6314a4d3&#45;&gt;90c991e18fcd4929afe7142c8f519386 -->
<g id="edge34" class="edge">
<title>12d61d660e814a89855a5e8f6314a4d3&#45;&gt;90c991e18fcd4929afe7142c8f519386</title>
<path fill="none" stroke="#7b8894" d="M347,-3529.88C347,-3780.89 347,-4632 347,-4632 347,-4632 821.64,-4632 821.64,-4632"/>
<polygon fill="#7b8894" stroke="#7b8894" points="821.64,-4635.5 831.64,-4632 821.64,-4628.5 821.64,-4635.5"/>
<text text-anchor="middle" x="595.5" y="-4546.6" font-family="Sans-Serif" font-size="13.00" fill="darkgrey">l_to_ds_engagement_avg_sessions_per_client_last3month</text>
</g>
<!-- fa98e4dabc5542c5a97a28ec9e758d5c -->
<g id="node35" class="node">
<title>fa98e4dabc5542c5a97a28ec9e758d5c</title>
<image xlink:href="icons/bigquery.png" width="101px" height="101px" preserveAspectRatio="xMinYMin meet" x="832" y="-4862.5"/>
<text text-anchor="middle" x="882.5" y="-4747.1" font-family="Sans-Serif" font-size="13.00" fill="#2d3436">ds_engagement.l_to_ds_engagement_recurrence_repartition_last3month</text>
</g>
<!-- 12d61d660e814a89855a5e8f6314a4d3&#45;&gt;fa98e4dabc5542c5a97a28ec9e758d5c -->
<g id="edge35" class="edge">
<title>12d61d660e814a89855a5e8f6314a4d3&#45;&gt;fa98e4dabc5542c5a97a28ec9e758d5c</title>
<path fill="none" stroke="#7b8894" d="M341,-3529.85C341,-3805.16 341,-4812 341,-4812 341,-4812 821.56,-4812 821.56,-4812"/>
<polygon fill="#7b8894" stroke="#7b8894" points="821.56,-4815.5 831.56,-4812 821.56,-4808.5 821.56,-4815.5"/>
<text text-anchor="middle" x="595.5" y="-4726.6" font-family="Sans-Serif" font-size="13.00" fill="darkgrey">l_to_ds_engagement_recurrence_repartition_last3month</text>
</g>
<!-- 9680d5bc94894fd5a2ab81b8a28e527f -->
<g id="node36" class="node">
<title>9680d5bc94894fd5a2ab81b8a28e527f</title>
<image xlink:href="icons/bigquery.png" width="101px" height="101px" preserveAspectRatio="xMinYMin meet" x="832" y="-5042.5"/>
<text text-anchor="middle" x="882.5" y="-4927.1" font-family="Sans-Serif" font-size="13.00" fill="#2d3436">ga.t_ga_prog_eng_consultation_et_usage_count</text>
</g>
<!-- 12d61d660e814a89855a5e8f6314a4d3&#45;&gt;9680d5bc94894fd5a2ab81b8a28e527f -->
<g id="edge36" class="edge">
<title>12d61d660e814a89855a5e8f6314a4d3&#45;&gt;9680d5bc94894fd5a2ab81b8a28e527f</title>
<path fill="none" stroke="#7b8894" d="M336,-3529.76C336,-3827.66 336,-4992 336,-4992 336,-4992 821.58,-4992 821.58,-4992"/>
<polygon fill="#7b8894" stroke="#7b8894" points="821.58,-4995.5 831.58,-4992 821.58,-4988.5 821.58,-4995.5"/>
<text text-anchor="middle" x="595.5" y="-4906.6" font-family="Sans-Serif" font-size="13.00" fill="darkgrey">t_ga_prog_eng_consultation_et_usage_count</text>
</g>
<!-- 92b34899fe9c464ea438eca3797661a6 -->
<g id="node37" class="node">
<title>92b34899fe9c464ea438eca3797661a6</title>
<image xlink:href="icons/bigquery.png" width="101px" height="101px" preserveAspectRatio="xMinYMin meet" x="832" y="-5222.5"/>
<text text-anchor="middle" x="882.5" y="-5107.1" font-family="Sans-Serif" font-size="13.00" fill="#2d3436">ga.t_ga_prog_eng_projet_ka_group_by</text>
</g>
<!-- 12d61d660e814a89855a5e8f6314a4d3&#45;&gt;92b34899fe9c464ea438eca3797661a6 -->
<g id="edge37" class="edge">
<title>12d61d660e814a89855a5e8f6314a4d3&#45;&gt;92b34899fe9c464ea438eca3797661a6</title>
<path fill="none" stroke="#7b8894" d="M331,-3529.66C331,-3848.82 331,-5172 331,-5172 331,-5172 821.6,-5172 821.6,-5172"/>
<polygon fill="#7b8894" stroke="#7b8894" points="821.6,-5175.5 831.6,-5172 821.6,-5168.5 821.6,-5175.5"/>
<text text-anchor="middle" x="595.5" y="-5086.6" font-family="Sans-Serif" font-size="13.00" fill="darkgrey">t_ga_prog_eng_projet_ka_group_by</text>
</g>
<!-- 9e4249f51812480b9ecd82bc6874eca8 -->
<g id="node38" class="node">
<title>9e4249f51812480b9ecd82bc6874eca8</title>
<image xlink:href="icons/bigquery.png" width="101px" height="101px" preserveAspectRatio="xMinYMin meet" x="832" y="-5402.5"/>
<text text-anchor="middle" x="882.5" y="-5287.1" font-family="Sans-Serif" font-size="13.00" fill="#2d3436">ga.t_ga_prog_eng_projet_monthly</text>
</g>
<!-- 12d61d660e814a89855a5e8f6314a4d3&#45;&gt;9e4249f51812480b9ecd82bc6874eca8 -->
<g id="edge38" class="edge">
<title>12d61d660e814a89855a5e8f6314a4d3&#45;&gt;9e4249f51812480b9ecd82bc6874eca8</title>
<path fill="none" stroke="#7b8894" d="M325,-3529.7C325,-3869.25 325,-5352 325,-5352 325,-5352 821.55,-5352 821.55,-5352"/>
<polygon fill="#7b8894" stroke="#7b8894" points="821.55,-5355.5 831.55,-5352 821.55,-5348.5 821.55,-5355.5"/>
<text text-anchor="middle" x="595.5" y="-5266.6" font-family="Sans-Serif" font-size="13.00" fill="darkgrey">t_ga_prog_eng_projet_monthly</text>
</g>
<!-- 8e8a03e2462f458b9f31f17628a6626d -->
<g id="node39" class="node">
<title>8e8a03e2462f458b9f31f17628a6626d</title>
<image xlink:href="icons/bigquery.png" width="101px" height="101px" preserveAspectRatio="xMinYMin meet" x="832" y="-5582.5"/>
<text text-anchor="middle" x="882.5" y="-5467.1" font-family="Sans-Serif" font-size="13.00" fill="#2d3436">ga.t_ga_bots_selfcare</text>
</g>
<!-- 12d61d660e814a89855a5e8f6314a4d3&#45;&gt;8e8a03e2462f458b9f31f17628a6626d -->
<g id="edge39" class="edge">
<title>12d61d660e814a89855a5e8f6314a4d3&#45;&gt;8e8a03e2462f458b9f31f17628a6626d</title>
<path fill="none" stroke="#7b8894" d="M320,-3529.61C320,-3888.36 320,-5532 320,-5532 320,-5532 821.59,-5532 821.59,-5532"/>
<polygon fill="#7b8894" stroke="#7b8894" points="821.59,-5535.5 831.59,-5532 821.59,-5528.5 821.59,-5535.5"/>
<text text-anchor="middle" x="595.5" y="-5446.6" font-family="Sans-Serif" font-size="13.00" fill="darkgrey">t_bots_selfcare</text>
</g>
<!-- deccf85fcfd44be09687c91336f92ce8 -->
<g id="node40" class="node">
<title>deccf85fcfd44be09687c91336f92ce8</title>
<image xlink:href="icons/bigquery.png" width="101px" height="101px" preserveAspectRatio="xMinYMin meet" x="832" y="-5762.5"/>
<text text-anchor="middle" x="882.5" y="-5647.1" font-family="Sans-Serif" font-size="13.00" fill="#2d3436">datastudio_canaux.l_to_ds_canaux_tchat</text>
</g>
<!-- 12d61d660e814a89855a5e8f6314a4d3&#45;&gt;deccf85fcfd44be09687c91336f92ce8 -->
<g id="edge40" class="edge">
<title>12d61d660e814a89855a5e8f6314a4d3&#45;&gt;deccf85fcfd44be09687c91336f92ce8</title>
<path fill="none" stroke="#7b8894" d="M315,-3529.6C315,-3906.85 315,-5712 315,-5712 315,-5712 821.89,-5712 821.89,-5712"/>
<polygon fill="#7b8894" stroke="#7b8894" points="821.89,-5715.5 831.89,-5712 821.89,-5708.5 821.89,-5715.5"/>
<text text-anchor="middle" x="595.5" y="-5626.6" font-family="Sans-Serif" font-size="13.00" fill="darkgrey">l_to_ds_canaux_tchat</text>
</g>
<!-- c82338a65a534826a1783a2a4dfe4460 -->
<g id="node41" class="node">
<title>c82338a65a534826a1783a2a4dfe4460</title>
<image xlink:href="icons/bigquery.png" width="101px" height="101px" preserveAspectRatio="xMinYMin meet" x="832" y="-5942.5"/>
<text text-anchor="middle" x="882.5" y="-5827.1" font-family="Sans-Serif" font-size="13.00" fill="#2d3436">datastudio_canaux.l_to_ds_canaux_consolidation_bulles</text>
</g>
<!-- 12d61d660e814a89855a5e8f6314a4d3&#45;&gt;c82338a65a534826a1783a2a4dfe4460 -->
<g id="edge41" class="edge">
<title>12d61d660e814a89855a5e8f6314a4d3&#45;&gt;c82338a65a534826a1783a2a4dfe4460</title>
<path fill="none" stroke="#7b8894" d="M309,-3529.52C309,-3924.39 309,-5892 309,-5892 309,-5892 821.86,-5892 821.86,-5892"/>
<polygon fill="#7b8894" stroke="#7b8894" points="821.86,-5895.5 831.86,-5892 821.86,-5888.5 821.86,-5895.5"/>
<text text-anchor="middle" x="595.5" y="-5806.6" font-family="Sans-Serif" font-size="13.00" fill="darkgrey">l_to_ds_canaux_consolidation_bulles</text>
</g>
<!-- cfb487701ca94312878d40c9a3ab71e5 -->
<g id="node42" class="node">
<title>cfb487701ca94312878d40c9a3ab71e5</title>
<image xlink:href="icons/bigquery.png" width="101px" height="101px" preserveAspectRatio="xMinYMin meet" x="832" y="-6122.5"/>
<text text-anchor="middle" x="882.5" y="-6007.1" font-family="Sans-Serif" font-size="13.00" fill="#2d3436">datastudio_canaux.l_to_ds_canaux_tchat_hourly</text>
</g>
<!-- 12d61d660e814a89855a5e8f6314a4d3&#45;&gt;cfb487701ca94312878d40c9a3ab71e5 -->
<g id="edge42" class="edge">
<title>12d61d660e814a89855a5e8f6314a4d3&#45;&gt;cfb487701ca94312878d40c9a3ab71e5</title>
<path fill="none" stroke="#7b8894" d="M304,-3529.83C304,-3942.61 304,-6072 304,-6072 304,-6072 821.92,-6072 821.92,-6072"/>
<polygon fill="#7b8894" stroke="#7b8894" points="821.92,-6075.5 831.92,-6072 821.92,-6068.5 821.92,-6075.5"/>
<text text-anchor="middle" x="595.5" y="-5986.6" font-family="Sans-Serif" font-size="13.00" fill="darkgrey">l_to_ds_canaux_tchat_hourly</text>
</g>
<!-- fec6080382a0408bac49154b4ec03486 -->
<g id="node43" class="node">
<title>fec6080382a0408bac49154b4ec03486</title>
<image xlink:href="icons/bigquery.png" width="101px" height="101px" preserveAspectRatio="xMinYMin meet" x="832" y="-6302.5"/>
<text text-anchor="middle" x="882.5" y="-6187.1" font-family="Sans-Serif" font-size="13.00" fill="#2d3436">datastudio_canaux.l_to_ds_canaux_tchat_eligible_hourly</text>
</g>
<!-- 12d61d660e814a89855a5e8f6314a4d3&#45;&gt;fec6080382a0408bac49154b4ec03486 -->
<g id="edge43" class="edge">
<title>12d61d660e814a89855a5e8f6314a4d3&#45;&gt;fec6080382a0408bac49154b4ec03486</title>
<path fill="none" stroke="#7b8894" d="M299,-3529.64C299,-3958.55 299,-6252 299,-6252 299,-6252 821.99,-6252 821.99,-6252"/>
<polygon fill="#7b8894" stroke="#7b8894" points="821.99,-6255.5 831.99,-6252 821.99,-6248.5 821.99,-6255.5"/>
<text text-anchor="middle" x="595.5" y="-6166.6" font-family="Sans-Serif" font-size="13.00" fill="darkgrey">l_to_ds_canaux_tchat_eligible_hourly</text>
</g>
<!-- 563cbec6fb6c43908029e54026be47b4 -->
<g id="node44" class="node">
<title>563cbec6fb6c43908029e54026be47b4</title>
<image xlink:href="icons/bigquery.png" width="101px" height="101px" preserveAspectRatio="xMinYMin meet" x="832" y="-6482.5"/>
<text text-anchor="middle" x="882.5" y="-6367.1" font-family="Sans-Serif" font-size="13.00" fill="#2d3436">ds_maconso.l_to_ds_maconso_fonctionnalites_elec</text>
</g>
<!-- 12d61d660e814a89855a5e8f6314a4d3&#45;&gt;563cbec6fb6c43908029e54026be47b4 -->
<g id="edge44" class="edge">
<title>12d61d660e814a89855a5e8f6314a4d3&#45;&gt;563cbec6fb6c43908029e54026be47b4</title>
<path fill="none" stroke="#7b8894" d="M293,-3529.71C293,-3974.83 293,-6432 293,-6432 293,-6432 821.98,-6432 821.98,-6432"/>
<polygon fill="#7b8894" stroke="#7b8894" points="821.98,-6435.5 831.98,-6432 821.98,-6428.5 821.98,-6435.5"/>
<text text-anchor="middle" x="595.5" y="-6346.6" font-family="Sans-Serif" font-size="13.00" fill="darkgrey">l_to_ds_maconso_fonctionnalites_elec</text>
</g>
<!-- 7b34c13c575e486dad6afae41e22afc7 -->
<g id="node45" class="node">
<title>7b34c13c575e486dad6afae41e22afc7</title>
<image xlink:href="icons/bigquery.png" width="101px" height="101px" preserveAspectRatio="xMinYMin meet" x="832" y="-6662.5"/>
<text text-anchor="middle" x="882.5" y="-6547.1" font-family="Sans-Serif" font-size="13.00" fill="#2d3436">comper.l_ga_to_ds_comper_sessions</text>
</g>
<!-- 12d61d660e814a89855a5e8f6314a4d3&#45;&gt;7b34c13c575e486dad6afae41e22afc7 -->
<g id="edge45" class="edge">
<title>12d61d660e814a89855a5e8f6314a4d3&#45;&gt;7b34c13c575e486dad6afae41e22afc7</title>
<path fill="none" stroke="#7b8894" d="M288,-3529.74C288,-3990.55 288,-6612 288,-6612 288,-6612 821.81,-6612 821.81,-6612"/>
<polygon fill="#7b8894" stroke="#7b8894" points="821.81,-6615.5 831.81,-6612 821.81,-6608.5 821.81,-6615.5"/>
<text text-anchor="middle" x="595.5" y="-6526.6" font-family="Sans-Serif" font-size="13.00" fill="darkgrey">l_to_ds_comper_sessions</text>
</g>
<!-- 51a30b03223d4e5f842699cedb9f0f36 -->
<g id="node46" class="node">
<title>51a30b03223d4e5f842699cedb9f0f36</title>
<image xlink:href="icons/bigquery.png" width="101px" height="101px" preserveAspectRatio="xMinYMin meet" x="832" y="-6842.5"/>
<text text-anchor="middle" x="882.5" y="-6727.1" font-family="Sans-Serif" font-size="13.00" fill="#2d3436">ga.l_ga_to_ds_comper_parcours_service_equipement_ignition</text>
</g>
<!-- 12d61d660e814a89855a5e8f6314a4d3&#45;&gt;51a30b03223d4e5f842699cedb9f0f36 -->
<g id="edge46" class="edge">
<title>12d61d660e814a89855a5e8f6314a4d3&#45;&gt;51a30b03223d4e5f842699cedb9f0f36</title>
<path fill="none" stroke="#7b8894" d="M283,-3529.81C283,-4005.94 283,-6792 283,-6792 283,-6792 821.9,-6792 821.9,-6792"/>
<polygon fill="#7b8894" stroke="#7b8894" points="821.9,-6795.5 831.9,-6792 821.9,-6788.5 821.9,-6795.5"/>
<text text-anchor="middle" x="595.5" y="-6706.6" font-family="Sans-Serif" font-size="13.00" fill="darkgrey">l_to_ds_comper_parcours_service_equipement_ignition</text>
</g>
<!-- 4e8c453e868e4397abe68a8c752679a2 -->
<g id="node3" class="node">
<title>4e8c453e868e4397abe68a8c752679a2</title>
<image xlink:href="icons/bigquery.png" width="101px" height="101px" preserveAspectRatio="xMinYMin meet" x="16" y="-1790.5"/>
<text text-anchor="middle" x="66.5" y="-1675.1" font-family="Sans-Serif" font-size="13.00" fill="#2d3436">160756520.ga_sessions_</text>
</g>
<!-- b1c9940c03d14e9fb25562e228e26491 -->
<g id="node4" class="node">
<title>b1c9940c03d14e9fb25562e228e26491</title>
<image xlink:href="icons/bigquery.png" width="101px" height="101px" preserveAspectRatio="xMinYMin meet" x="277" y="-1790.5"/>
<text text-anchor="middle" x="327.5" y="-1675.1" font-family="Sans-Serif" font-size="13.00" fill="#2d3436">ga.t_ga_sessions_historic</text>
</g>
<!-- 4e8c453e868e4397abe68a8c752679a2&#45;&gt;b1c9940c03d14e9fb25562e228e26491 -->
<g id="edge2" class="edge">
<title>4e8c453e868e4397abe68a8c752679a2&#45;&gt;b1c9940c03d14e9fb25562e228e26491</title>
<path fill="none" stroke="#7b8894" d="M117.13,-1740C117.13,-1740 266.56,-1740 266.56,-1740"/>
<polygon fill="#7b8894" stroke="#7b8894" points="266.56,-1743.5 276.56,-1740 266.56,-1736.5 266.56,-1743.5"/>
<text text-anchor="middle" x="197" y="-1743.6" font-family="Sans-Serif" font-size="13.00" fill="darkgrey">t_sessions_historic</text>
</g>
<!-- d4011cf3f741472badee70fb4f4bdf59 -->
<g id="node9" class="node">
<title>d4011cf3f741472badee70fb4f4bdf59</title>
<image xlink:href="icons/bigquery.png" width="101px" height="101px" preserveAspectRatio="xMinYMin meet" x="1156" y="-160.5"/>
<text text-anchor="middle" x="1206.5" y="-45.1" font-family="Sans-Serif" font-size="13.00" fill="#2d3436">ga.t_ga_optimizely_sessions</text>
</g>
<!-- 62273a13998f41e88478b40686eddad8&#45;&gt;d4011cf3f741472badee70fb4f4bdf59 -->
<g id="edge7" class="edge">
<title>62273a13998f41e88478b40686eddad8&#45;&gt;d4011cf3f741472badee70fb4f4bdf59</title>
<path fill="none" stroke="#7b8894" d="M933.13,-110C933.13,-110 1145.96,-110 1145.96,-110"/>
<polygon fill="#7b8894" stroke="#7b8894" points="1145.96,-113.5 1155.96,-110 1145.96,-106.5 1145.96,-113.5"/>
<text text-anchor="middle" x="1054" y="-113.6" font-family="Sans-Serif" font-size="13.00" fill="darkgrey">t_optimizely_sessions</text>
</g>
<!-- e838fa46ae234fa592d4559a5ecad467 -->
<g id="node10" class="node">
<title>e838fa46ae234fa592d4559a5ecad467</title>
<image xlink:href="icons/bigquery.png" width="101px" height="101px" preserveAspectRatio="xMinYMin meet" x="1156" y="-737.5"/>
<text text-anchor="middle" x="1206.5" y="-622.1" font-family="Sans-Serif" font-size="13.00" fill="#2d3436">ga.t_ga_optimizely_vs_objectives</text>
</g>
<!-- 62273a13998f41e88478b40686eddad8&#45;&gt;e838fa46ae234fa592d4559a5ecad467 -->
<g id="edge8" class="edge">
<title>62273a13998f41e88478b40686eddad8&#45;&gt;e838fa46ae234fa592d4559a5ecad467</title>
<path fill="none" stroke="#7b8894" d="M883,-178.67C883,-190.99 883,-200 883,-200 883,-200 1207,-200 1207,-200 1207,-200 1207,-608.26 1207,-608.26"/>
<polygon fill="#7b8894" stroke="#7b8894" points="1203.5,-608.26 1207,-618.26 1210.5,-608.26 1203.5,-608.26"/>
<text text-anchor="middle" x="1054" y="-414.6" font-family="Sans-Serif" font-size="13.00" fill="darkgrey">t_optimizely_vs_objectives</text>
</g>
<!-- 8009f4c5850847ab9da6ff4f7961db1b -->
<g id="node11" class="node">
<title>8009f4c5850847ab9da6ff4f7961db1b</title>
<image xlink:href="icons/bigquery.png" width="101px" height="101px" preserveAspectRatio="xMinYMin meet" x="832" y="-880.5"/>
<text text-anchor="middle" x="882.5" y="-765.1" font-family="Sans-Serif" font-size="13.00" fill="#2d3436">[?config?].t_ga_objectives_events</text>
</g>
<!-- 8009f4c5850847ab9da6ff4f7961db1b&#45;&gt;e838fa46ae234fa592d4559a5ecad467 -->
<g id="edge9" class="edge">
<title>8009f4c5850847ab9da6ff4f7961db1b&#45;&gt;e838fa46ae234fa592d4559a5ecad467</title>
<path fill="none" stroke="#7b8894" d="M883,-761.43C883,-747.5 883,-737 883,-737 883,-737 1145.95,-737 1145.95,-737"/>
<polygon fill="#7b8894" stroke="#7b8894" points="1145.95,-740.5 1155.95,-737 1145.95,-733.5 1145.95,-740.5"/>
<text text-anchor="middle" x="1054" y="-761.6" font-family="Sans-Serif" font-size="13.00" fill="darkgrey">t_optimizely_vs_objectives</text>
</g>
<!-- c84f6cdf798a47fa98b062c737ba8687&#45;&gt;4e9c6458e0bd481ab49ff22b55d4436b -->
<g id="edge10" class="edge">
<title>c84f6cdf798a47fa98b062c737ba8687&#45;&gt;4e9c6458e0bd481ab49ff22b55d4436b</title>
<path fill="none" stroke="#7b8894" d="M933.13,-1054.5C933.13,-1054.5 1145.96,-1054.5 1145.96,-1054.5"/>
<polygon fill="#7b8894" stroke="#7b8894" points="1145.96,-1058 1155.96,-1054.5 1145.96,-1051 1145.96,-1058"/>
<text text-anchor="middle" x="1054" y="-1079.6" font-family="Sans-Serif" font-size="13.00" fill="darkgrey">t_fait_parcours</text>
</g>
<!-- c84f6cdf798a47fa98b062c737ba8687&#45;&gt;89657f91c8ff4e0cbd7d80c5a71b4666 -->
<g id="edge13" class="edge">
<title>c84f6cdf798a47fa98b062c737ba8687&#45;&gt;89657f91c8ff4e0cbd7d80c5a71b4666</title>
<path fill="none" stroke="#7b8894" d="M933.13,-1175.5C933.13,-1175.5 1145.96,-1175.5 1145.96,-1175.5"/>
<polygon fill="#7b8894" stroke="#7b8894" points="1145.96,-1179 1155.96,-1175.5 1145.96,-1172 1145.96,-1179"/>
<text text-anchor="middle" x="1054" y="-1148.6" font-family="Sans-Serif" font-size="13.00" fill="darkgrey">t_parcours_checkpoint_1</text>
</g>
<!-- 44df77ab5937482ebf3f384fe4dd6af3 -->
<g id="node15" class="node">
<title>44df77ab5937482ebf3f384fe4dd6af3</title>
<image xlink:href="icons/bigquery.png" width="101px" height="101px" preserveAspectRatio="xMinYMin meet" x="1464" y="-1290.5"/>
<text text-anchor="middle" x="1514.5" y="-1175.1" font-family="Sans-Serif" font-size="13.00" fill="#2d3436">ga.t_ga_parcours_checkpoint_1_2</text>
</g>
<!-- 89657f91c8ff4e0cbd7d80c5a71b4666&#45;&gt;44df77ab5937482ebf3f384fe4dd6af3 -->
<g id="edge15" class="edge">
<title>89657f91c8ff4e0cbd7d80c5a71b4666&#45;&gt;44df77ab5937482ebf3f384fe4dd6af3</title>
<path fill="none" stroke="#7b8894" d="M1257.02,-1240C1257.02,-1240 1453.96,-1240 1453.96,-1240"/>
<polygon fill="#7b8894" stroke="#7b8894" points="1453.96,-1243.5 1463.96,-1240 1453.96,-1236.5 1453.96,-1243.5"/>
<text text-anchor="middle" x="1360.5" y="-1243.6" font-family="Sans-Serif" font-size="13.00" fill="darkgrey">t_parcours_checkpoint_1_2</text>
</g>
</g>
</svg>
