<?xml version="1.0" encoding="UTF-8" standalone="no"?>
<!DOCTYPE svg PUBLIC "-//W3C//DTD SVG 1.1//EN"
 "http://www.w3.org/Graphics/SVG/1.1/DTD/svg11.dtd">
<!-- Generated by graphviz version 2.47.1 (20210417.1919)
 -->
<!-- Title: ga_traitements Pages: 1 -->
<svg width="1869pt" height="6646pt"
 viewBox="0.00 0.00 1869.00 6646.00" xmlns="http://www.w3.org/2000/svg" xmlns:xlink="http://www.w3.org/1999/xlink">
<g id="graph0" class="graph" transform="scale(1 1) rotate(0) translate(144 6502)">
<title>ga_traitements</title>
<text text-anchor="middle" x="790.5" y="-9" font-family="Sans-Serif" font-size="15.00" fill="#2d3436">ga_traitements</text>
<g id="clust1" class="cluster">
<title>cluster_ga_traitements</title>
<path fill="#e5f5fd" stroke="#aeb6be" d="M20,-33C20,-33 1561,-33 1561,-33 1567,-33 1573,-39 1573,-45 1573,-45 1573,-6338 1573,-6338 1573,-6344 1567,-6350 1561,-6350 1561,-6350 20,-6350 20,-6350 14,-6350 8,-6344 8,-6338 8,-6338 8,-45 8,-45 8,-39 14,-33 20,-33"/>
<text text-anchor="middle" x="55.5" y="-6336.4" font-family="Sans-Serif" font-size="12.00" fill="#2d3436">ga_traitements</text>
</g>
<!-- b39eab77cde7484bb8f3e1f4eb7464b9 -->
<g id="node1" class="node">
<title>b39eab77cde7484bb8f3e1f4eb7464b9</title>
<image xlink:href="icons/bigquery.png" width="101px" height="101px" preserveAspectRatio="xMinYMin meet" x="16" y="-3151.5"/>
<text text-anchor="middle" x="66.5" y="-3036.1" font-family="Sans-Serif" font-size="13.00" fill="#2d3436">160756520.ga_sessions_*</text>
</g>
<!-- a26cc3c3f94846aaa1362ed95f1a001c -->
<g id="node2" class="node">
<title>a26cc3c3f94846aaa1362ed95f1a001c</title>
<image xlink:href="icons/bigquery.png" width="101px" height="101px" preserveAspectRatio="xMinYMin meet" x="277" y="-3151.5"/>
<text text-anchor="middle" x="327.5" y="-3036.1" font-family="Sans-Serif" font-size="13.00" fill="#2d3436">ga.t_ga_sessions</text>
</g>
<!-- b39eab77cde7484bb8f3e1f4eb7464b9&#45;&gt;a26cc3c3f94846aaa1362ed95f1a001c -->
<g id="edge1" class="edge">
<title>b39eab77cde7484bb8f3e1f4eb7464b9&#45;&gt;a26cc3c3f94846aaa1362ed95f1a001c</title>
<path fill="none" stroke="#7b8894" d="M117.13,-3101C117.13,-3101 266.56,-3101 266.56,-3101"/>
<polygon fill="#7b8894" stroke="#7b8894" points="266.56,-3104.5 276.56,-3101 266.56,-3097.5 266.56,-3104.5"/>
<text text-anchor="middle" x="197" y="-3104.6" font-family="Sans-Serif" font-size="13.00" fill="darkgrey">t_sessions</text>
</g>
<!-- 8deb49a040c544a2a8ce2a2131bfe559 -->
<g id="node5" class="node">
<title>8deb49a040c544a2a8ce2a2131bfe559</title>
<image xlink:href="icons/bigquery.png" width="101px" height="101px" preserveAspectRatio="xMinYMin meet" x="832" y="-160.5"/>
<text text-anchor="middle" x="882.5" y="-45.1" font-family="Sans-Serif" font-size="13.00" fill="#2d3436">ga.t_ga_sessions_sample</text>
</g>
<!-- a26cc3c3f94846aaa1362ed95f1a001c&#45;&gt;8deb49a040c544a2a8ce2a2131bfe559 -->
<g id="edge3" class="edge">
<title>a26cc3c3f94846aaa1362ed95f1a001c&#45;&gt;8deb49a040c544a2a8ce2a2131bfe559</title>
<path fill="none" stroke="#7b8894" d="M378.1,-3037.83C405.98,-3037.83 435,-3037.83 435,-3037.83 435,-3037.83 435,-110 435,-110 435,-110 821.6,-110 821.6,-110"/>
<polygon fill="#7b8894" stroke="#7b8894" points="821.6,-113.5 831.6,-110 821.6,-106.5 821.6,-113.5"/>
<text text-anchor="middle" x="595.5" y="-224.6" font-family="Sans-Serif" font-size="13.00" fill="darkgrey">t_sessions_sample</text>
</g>
<!-- 3e1879e5d8414ce0a6569b5e472ac113 -->
<g id="node6" class="node">
<title>3e1879e5d8414ce0a6569b5e472ac113</title>
<image xlink:href="icons/bigquery.png" width="101px" height="101px" preserveAspectRatio="xMinYMin meet" x="832" y="-340.5"/>
<text text-anchor="middle" x="882.5" y="-225.1" font-family="Sans-Serif" font-size="13.00" fill="#2d3436">ga.t_ga_objectives_entries_vs_objectives</text>
</g>
<!-- a26cc3c3f94846aaa1362ed95f1a001c&#45;&gt;3e1879e5d8414ce0a6569b5e472ac113 -->
<g id="edge4" class="edge">
<title>a26cc3c3f94846aaa1362ed95f1a001c&#45;&gt;3e1879e5d8414ce0a6569b5e472ac113</title>
<path fill="none" stroke="#7b8894" d="M378.2,-3043.17C426.53,-3043.17 492,-3043.17 492,-3043.17 492,-3043.17 492,-290 492,-290 492,-290 821.85,-290 821.85,-290"/>
<polygon fill="#7b8894" stroke="#7b8894" points="821.85,-293.5 831.85,-290 821.85,-286.5 821.85,-293.5"/>
<text text-anchor="middle" x="595.5" y="-398.6" font-family="Sans-Serif" font-size="13.00" fill="darkgrey">t_objectives_entries_vs_objectives</text>
</g>
<!-- d2e4ca06abda4238abf1abb562611c3a -->
<g id="node7" class="node">
<title>d2e4ca06abda4238abf1abb562611c3a</title>
<image xlink:href="icons/bigquery.png" width="101px" height="101px" preserveAspectRatio="xMinYMin meet" x="832" y="-520.5"/>
<text text-anchor="middle" x="882.5" y="-405.1" font-family="Sans-Serif" font-size="13.00" fill="#2d3436">ga.t_ga_objectives_events</text>
</g>
<!-- a26cc3c3f94846aaa1362ed95f1a001c&#45;&gt;d2e4ca06abda4238abf1abb562611c3a -->
<g id="edge5" class="edge">
<title>a26cc3c3f94846aaa1362ed95f1a001c&#45;&gt;d2e4ca06abda4238abf1abb562611c3a</title>
<path fill="none" stroke="#7b8894" d="M378.04,-3048.5C443.41,-3048.5 549,-3048.5 549,-3048.5 549,-3048.5 549,-470 549,-470 549,-470 821.85,-470 821.85,-470"/>
<polygon fill="#7b8894" stroke="#7b8894" points="821.85,-473.5 831.85,-470 821.85,-466.5 821.85,-473.5"/>
<text text-anchor="middle" x="595.5" y="-565.6" font-family="Sans-Serif" font-size="13.00" fill="darkgrey">t_objectives_events</text>
</g>
<!-- 5aa3c9b1f8274edcb2461292ab140509 -->
<g id="node8" class="node">
<title>5aa3c9b1f8274edcb2461292ab140509</title>
<image xlink:href="icons/bigquery.png" width="101px" height="101px" preserveAspectRatio="xMinYMin meet" x="832" y="-700.5"/>
<text text-anchor="middle" x="882.5" y="-585.1" font-family="Sans-Serif" font-size="13.00" fill="#2d3436">ga.t_ga_optimizely_events</text>
</g>
<!-- a26cc3c3f94846aaa1362ed95f1a001c&#45;&gt;5aa3c9b1f8274edcb2461292ab140509 -->
<g id="edge6" class="edge">
<title>a26cc3c3f94846aaa1362ed95f1a001c&#45;&gt;5aa3c9b1f8274edcb2461292ab140509</title>
<path fill="none" stroke="#7b8894" d="M378.08,-3053.83C458.12,-3053.83 605,-3053.83 605,-3053.83 605,-3053.83 605,-650 605,-650 605,-650 821.92,-650 821.92,-650"/>
<polygon fill="#7b8894" stroke="#7b8894" points="821.92,-653.5 831.92,-650 821.92,-646.5 821.92,-653.5"/>
<text text-anchor="middle" x="595.5" y="-720.6" font-family="Sans-Serif" font-size="13.00" fill="darkgrey">t_optimizely_events</text>
</g>
<!-- 741c487582c9437388d23757738b177c -->
<g id="node11" class="node">
<title>741c487582c9437388d23757738b177c</title>
<image xlink:href="icons/bigquery.png" width="101px" height="101px" preserveAspectRatio="xMinYMin meet" x="832" y="-981.5"/>
<text text-anchor="middle" x="882.5" y="-866.1" font-family="Sans-Serif" font-size="13.00" fill="#2d3436">ga.t_ga_detail_session_checkpoint</text>
</g>
<!-- a26cc3c3f94846aaa1362ed95f1a001c&#45;&gt;741c487582c9437388d23757738b177c -->
<g id="edge12" class="edge">
<title>a26cc3c3f94846aaa1362ed95f1a001c&#45;&gt;741c487582c9437388d23757738b177c</title>
<path fill="none" stroke="#7b8894" d="M378.3,-3059.17C471.88,-3059.17 662,-3059.17 662,-3059.17 662,-3059.17 662,-931 662,-931 662,-931 821.91,-931 821.91,-931"/>
<polygon fill="#7b8894" stroke="#7b8894" points="821.91,-934.5 831.91,-931 821.91,-927.5 821.91,-934.5"/>
<text text-anchor="middle" x="595.5" y="-1002.6" font-family="Sans-Serif" font-size="13.00" fill="darkgrey">t_detail_session_checkpoint</text>
</g>
<!-- 5285581a41fc4d47ad4214fcf2ac853a -->
<g id="node12" class="node">
<title>5285581a41fc4d47ad4214fcf2ac853a</title>
<image xlink:href="icons/bigquery.png" width="101px" height="101px" preserveAspectRatio="xMinYMin meet" x="1156" y="-896.5"/>
<text text-anchor="middle" x="1206.5" y="-781.1" font-family="Sans-Serif" font-size="13.00" fill="#2d3436">ga.t_ga_fait_parcours</text>
</g>
<!-- a26cc3c3f94846aaa1362ed95f1a001c&#45;&gt;5285581a41fc4d47ad4214fcf2ac853a -->
<g id="edge11" class="edge">
<title>a26cc3c3f94846aaa1362ed95f1a001c&#45;&gt;5285581a41fc4d47ad4214fcf2ac853a</title>
<path fill="none" stroke="#7b8894" d="M378.24,-3094.83C541.86,-3094.83 1045,-3094.83 1045,-3094.83 1045,-3094.83 1045,-897.17 1045,-897.17 1045,-897.17 1145.84,-897.17 1145.84,-897.17"/>
<polygon fill="#7b8894" stroke="#7b8894" points="1145.84,-900.67 1155.84,-897.17 1145.84,-893.67 1145.84,-900.67"/>
<text text-anchor="middle" x="882.5" y="-808.6" font-family="Sans-Serif" font-size="13.00" fill="darkgrey">t_fait_parcours</text>
</g>
<!-- 297a7f6f615f4785a3f9a0e5a01716e9 -->
<g id="node13" class="node">
<title>297a7f6f615f4785a3f9a0e5a01716e9</title>
<image xlink:href="icons/bigquery.png" width="101px" height="101px" preserveAspectRatio="xMinYMin meet" x="1156" y="-1106.5"/>
<text text-anchor="middle" x="1206.5" y="-991.1" font-family="Sans-Serif" font-size="13.00" fill="#2d3436">ga.t_ga_parcours_checkpoint_1</text>
</g>
<!-- a26cc3c3f94846aaa1362ed95f1a001c&#45;&gt;297a7f6f615f4785a3f9a0e5a01716e9 -->
<g id="edge14" class="edge">
<title>a26cc3c3f94846aaa1362ed95f1a001c&#45;&gt;297a7f6f615f4785a3f9a0e5a01716e9</title>
<path fill="none" stroke="#7b8894" d="M378.27,-3109.17C565.56,-3109.17 1207,-3109.17 1207,-3109.17 1207,-3109.17 1207,-1134.61 1207,-1134.61"/>
<polygon fill="#7b8894" stroke="#7b8894" points="1210.5,-1134.61 1207,-1124.61 1203.5,-1134.61 1210.5,-1134.61"/>
<text text-anchor="middle" x="882.5" y="-1089.6" font-family="Sans-Serif" font-size="13.00" fill="darkgrey">t_parcours_checkpoint_1</text>
</g>
<!-- 60be5753f8e644a9a27eae43b3fdfc86 -->
<g id="node15" class="node">
<title>60be5753f8e644a9a27eae43b3fdfc86</title>
<image xlink:href="icons/bigquery.png" width="101px" height="101px" preserveAspectRatio="xMinYMin meet" x="832" y="-1262.5"/>
<text text-anchor="middle" x="882.5" y="-1147.1" font-family="Sans-Serif" font-size="13.00" fill="#2d3436">ga.t_ga_qualite</text>
</g>
<!-- a26cc3c3f94846aaa1362ed95f1a001c&#45;&gt;60be5753f8e644a9a27eae43b3fdfc86 -->
<g id="edge16" class="edge">
<title>a26cc3c3f94846aaa1362ed95f1a001c&#45;&gt;60be5753f8e644a9a27eae43b3fdfc86</title>
<path fill="none" stroke="#7b8894" d="M378.28,-3064.5C484.21,-3064.5 719,-3064.5 719,-3064.5 719,-3064.5 719,-1212 719,-1212 719,-1212 821.66,-1212 821.66,-1212"/>
<polygon fill="#7b8894" stroke="#7b8894" points="821.66,-1215.5 831.66,-1212 821.66,-1208.5 821.66,-1215.5"/>
<text text-anchor="middle" x="595.5" y="-1246.6" font-family="Sans-Serif" font-size="13.00" fill="darkgrey">t_qualite</text>
</g>
<!-- 6817a65d3f2b43df819c51a4e64b3463 -->
<g id="node16" class="node">
<title>6817a65d3f2b43df819c51a4e64b3463</title>
<image xlink:href="icons/bigquery.png" width="101px" height="101px" preserveAspectRatio="xMinYMin meet" x="832" y="-1442.5"/>
<text text-anchor="middle" x="882.5" y="-1327.1" font-family="Sans-Serif" font-size="13.00" fill="#2d3436">ga.t_ga_recurrence_visites_ec_sessions</text>
</g>
<!-- a26cc3c3f94846aaa1362ed95f1a001c&#45;&gt;6817a65d3f2b43df819c51a4e64b3463 -->
<g id="edge17" class="edge">
<title>a26cc3c3f94846aaa1362ed95f1a001c&#45;&gt;6817a65d3f2b43df819c51a4e64b3463</title>
<path fill="none" stroke="#7b8894" d="M378.08,-3069.83C495.37,-3069.83 776,-3069.83 776,-3069.83 776,-3069.83 776,-1392 776,-1392 776,-1392 821.75,-1392 821.75,-1392"/>
<polygon fill="#7b8894" stroke="#7b8894" points="821.75,-1395.5 831.75,-1392 821.75,-1388.5 821.75,-1395.5"/>
<text text-anchor="middle" x="595.5" y="-1898.6" font-family="Sans-Serif" font-size="13.00" fill="darkgrey">t_visites_ec_sessions</text>
</g>
<!-- f565a04e2ebb4179b6876e6b365b4318 -->
<g id="node17" class="node">
<title>f565a04e2ebb4179b6876e6b365b4318</title>
<image xlink:href="icons/bigquery.png" width="101px" height="101px" preserveAspectRatio="xMinYMin meet" x="832" y="-1622.5"/>
<text text-anchor="middle" x="882.5" y="-1507.1" font-family="Sans-Serif" font-size="13.00" fill="#2d3436">ga.t_ga_blog_vs_objectifs</text>
</g>
<!-- a26cc3c3f94846aaa1362ed95f1a001c&#45;&gt;f565a04e2ebb4179b6876e6b365b4318 -->
<g id="edge18" class="edge">
<title>a26cc3c3f94846aaa1362ed95f1a001c&#45;&gt;f565a04e2ebb4179b6876e6b365b4318</title>
<path fill="none" stroke="#7b8894" d="M289,-3032.23C289,-2742.3 289,-1634.5 289,-1634.5 289,-1634.5 821.9,-1634.5 821.9,-1634.5"/>
<polygon fill="#7b8894" stroke="#7b8894" points="821.9,-1638 831.9,-1634.5 821.9,-1631 821.9,-1638"/>
<text text-anchor="middle" x="595.5" y="-2255.6" font-family="Sans-Serif" font-size="13.00" fill="darkgrey">t_blog_vs_objectifs</text>
</g>
<!-- 568e6fcffd364fb19d31a73b8dd9ae3b -->
<g id="node18" class="node">
<title>568e6fcffd364fb19d31a73b8dd9ae3b</title>
<image xlink:href="icons/bigquery.png" width="101px" height="101px" preserveAspectRatio="xMinYMin meet" x="832" y="-1802.5"/>
<text text-anchor="middle" x="882.5" y="-1687.1" font-family="Sans-Serif" font-size="13.00" fill="#2d3436">ga.t_ga_ec_connexions</text>
</g>
<!-- a26cc3c3f94846aaa1362ed95f1a001c&#45;&gt;568e6fcffd364fb19d31a73b8dd9ae3b -->
<g id="edge19" class="edge">
<title>a26cc3c3f94846aaa1362ed95f1a001c&#45;&gt;568e6fcffd364fb19d31a73b8dd9ae3b</title>
<path fill="none" stroke="#7b8894" d="M300,-3032.25C300,-2757.35 300,-1752 300,-1752 300,-1752 821.83,-1752 821.83,-1752"/>
<polygon fill="#7b8894" stroke="#7b8894" points="821.83,-1755.5 831.83,-1752 821.83,-1748.5 821.83,-1755.5"/>
<text text-anchor="middle" x="595.5" y="-2464.6" font-family="Sans-Serif" font-size="13.00" fill="darkgrey">t_ec_connexions</text>
</g>
<!-- 82414b1a09594703aa56261a83010020 -->
<g id="node19" class="node">
<title>82414b1a09594703aa56261a83010020</title>
<image xlink:href="icons/bigquery.png" width="101px" height="101px" preserveAspectRatio="xMinYMin meet" x="832" y="-1982.5"/>
<text text-anchor="middle" x="882.5" y="-1867.1" font-family="Sans-Serif" font-size="13.00" fill="#2d3436">ga.t_ga_consentements_parcours</text>
</g>
<!-- a26cc3c3f94846aaa1362ed95f1a001c&#45;&gt;82414b1a09594703aa56261a83010020 -->
<g id="edge20" class="edge">
<title>a26cc3c3f94846aaa1362ed95f1a001c&#45;&gt;82414b1a09594703aa56261a83010020</title>
<path fill="none" stroke="#7b8894" d="M311,-3032.24C311,-2781.66 311,-1932 311,-1932 311,-1932 821.78,-1932 821.78,-1932"/>
<polygon fill="#7b8894" stroke="#7b8894" points="821.78,-1935.5 831.78,-1932 821.78,-1928.5 821.78,-1935.5"/>
<text text-anchor="middle" x="595.5" y="-2600.6" font-family="Sans-Serif" font-size="13.00" fill="darkgrey">t_consentements_parcours</text>
</g>
<!-- a7f7cf4ed18d4791b01c0080deab4008 -->
<g id="node20" class="node">
<title>a7f7cf4ed18d4791b01c0080deab4008</title>
<image xlink:href="icons/bigquery.png" width="101px" height="101px" preserveAspectRatio="xMinYMin meet" x="832" y="-2162.5"/>
<text text-anchor="middle" x="882.5" y="-2047.1" font-family="Sans-Serif" font-size="13.00" fill="#2d3436">ga.t_ga_visites_ec_recurrence_bp</text>
</g>
<!-- a26cc3c3f94846aaa1362ed95f1a001c&#45;&gt;a7f7cf4ed18d4791b01c0080deab4008 -->
<g id="edge21" class="edge">
<title>a26cc3c3f94846aaa1362ed95f1a001c&#45;&gt;a7f7cf4ed18d4791b01c0080deab4008</title>
<path fill="none" stroke="#7b8894" d="M322,-3032.24C322,-2807.96 322,-2112 322,-2112 322,-2112 821.77,-2112 821.77,-2112"/>
<polygon fill="#7b8894" stroke="#7b8894" points="821.77,-2115.5 831.77,-2112 821.77,-2108.5 821.77,-2115.5"/>
<text text-anchor="middle" x="595.5" y="-2699.6" font-family="Sans-Serif" font-size="13.00" fill="darkgrey">t_visites_ec_recurrence_bp</text>
</g>
<!-- d775995ffd854151aa3a90101621ec72 -->
<g id="node21" class="node">
<title>d775995ffd854151aa3a90101621ec72</title>
<image xlink:href="icons/bigquery.png" width="101px" height="101px" preserveAspectRatio="xMinYMin meet" x="832" y="-2342.5"/>
<text text-anchor="middle" x="882.5" y="-2227.1" font-family="Sans-Serif" font-size="13.00" fill="#2d3436">ga.t_ga_recurrence1_moyenne_session_ec_bp_support_device_profil_mois</text>
</g>
<!-- a26cc3c3f94846aaa1362ed95f1a001c&#45;&gt;d775995ffd854151aa3a90101621ec72 -->
<g id="edge22" class="edge">
<title>a26cc3c3f94846aaa1362ed95f1a001c&#45;&gt;d775995ffd854151aa3a90101621ec72</title>
<path fill="none" stroke="#7b8894" d="M334,-3032.37C334,-2837.03 334,-2292 334,-2292 334,-2292 821.88,-2292 821.88,-2292"/>
<polygon fill="#7b8894" stroke="#7b8894" points="821.88,-2295.5 831.88,-2292 821.88,-2288.5 821.88,-2295.5"/>
<text text-anchor="middle" x="595.5" y="-2779.6" font-family="Sans-Serif" font-size="13.00" fill="darkgrey">t_recurrence1_moyenne_session_ec_bp_support_device_profil_mois</text>
</g>
<!-- 72c8661bd73041aeb89fb238444290c1 -->
<g id="node22" class="node">
<title>72c8661bd73041aeb89fb238444290c1</title>
<image xlink:href="icons/bigquery.png" width="101px" height="101px" preserveAspectRatio="xMinYMin meet" x="832" y="-2522.5"/>
<text text-anchor="middle" x="882.5" y="-2407.1" font-family="Sans-Serif" font-size="13.00" fill="#2d3436">ga.t_ga_recurrence1_moyenne_session_ec_bp_support_mois</text>
</g>
<!-- a26cc3c3f94846aaa1362ed95f1a001c&#45;&gt;72c8661bd73041aeb89fb238444290c1 -->
<g id="edge23" class="edge">
<title>a26cc3c3f94846aaa1362ed95f1a001c&#45;&gt;72c8661bd73041aeb89fb238444290c1</title>
<path fill="none" stroke="#7b8894" d="M345,-3032.49C345,-2869.47 345,-2472 345,-2472 345,-2472 821.93,-2472 821.93,-2472"/>
<polygon fill="#7b8894" stroke="#7b8894" points="821.93,-2475.5 831.93,-2472 821.93,-2468.5 821.93,-2475.5"/>
<text text-anchor="middle" x="595.5" y="-2850.6" font-family="Sans-Serif" font-size="13.00" fill="darkgrey">t_recurrence1_moyenne_session_ec_bp_support_mois</text>
</g>
<!-- d397233fe0a540279abe35419012a3e6 -->
<g id="node23" class="node">
<title>d397233fe0a540279abe35419012a3e6</title>
<image xlink:href="icons/bigquery.png" width="101px" height="101px" preserveAspectRatio="xMinYMin meet" x="832" y="-2702.5"/>
<text text-anchor="middle" x="882.5" y="-2587.1" font-family="Sans-Serif" font-size="13.00" fill="#2d3436">ga.t_ga_recurrence2_groupe_nb_session_ec_bp_support_mois</text>
</g>
<!-- a26cc3c3f94846aaa1362ed95f1a001c&#45;&gt;d397233fe0a540279abe35419012a3e6 -->
<g id="edge24" class="edge">
<title>a26cc3c3f94846aaa1362ed95f1a001c&#45;&gt;d397233fe0a540279abe35419012a3e6</title>
<path fill="none" stroke="#7b8894" d="M356,-3032.32C356,-2906.54 356,-2652 356,-2652 356,-2652 821.54,-2652 821.54,-2652"/>
<polygon fill="#7b8894" stroke="#7b8894" points="821.54,-2655.5 831.54,-2652 821.54,-2648.5 821.54,-2655.5"/>
<text text-anchor="middle" x="595.5" y="-2917.6" font-family="Sans-Serif" font-size="13.00" fill="darkgrey">t_recurrence2_groupe_nb_session_ec_bp_support_mois</text>
</g>
<!-- 4ea646c15f6f4e58b7cfa19d27ca6a39 -->
<g id="node24" class="node">
<title>4ea646c15f6f4e58b7cfa19d27ca6a39</title>
<image xlink:href="icons/bigquery.png" width="101px" height="101px" preserveAspectRatio="xMinYMin meet" x="832" y="-2882.5"/>
<text text-anchor="middle" x="882.5" y="-2767.1" font-family="Sans-Serif" font-size="13.00" fill="#2d3436">ga.t_ga_recurrence2_groupe_nb_session_ec_bp_profil_mois</text>
</g>
<!-- a26cc3c3f94846aaa1362ed95f1a001c&#45;&gt;4ea646c15f6f4e58b7cfa19d27ca6a39 -->
<g id="edge25" class="edge">
<title>a26cc3c3f94846aaa1362ed95f1a001c&#45;&gt;4ea646c15f6f4e58b7cfa19d27ca6a39</title>
<path fill="none" stroke="#7b8894" d="M367,-3032.42C367,-2952.73 367,-2832 367,-2832 367,-2832 821.66,-2832 821.66,-2832"/>
<polygon fill="#7b8894" stroke="#7b8894" points="821.66,-2835.5 831.66,-2832 821.66,-2828.5 821.66,-2835.5"/>
<text text-anchor="middle" x="595.5" y="-2981.6" font-family="Sans-Serif" font-size="13.00" fill="darkgrey">t_recurrence2_groupe_nb_session_ec_bp_profil_mois</text>
</g>
<!-- 6d2b56d3e1b64eeab590eec95f437f1d -->
<g id="node25" class="node">
<title>6d2b56d3e1b64eeab590eec95f437f1d</title>
<image xlink:href="icons/bigquery.png" width="101px" height="101px" preserveAspectRatio="xMinYMin meet" x="832" y="-3062.5"/>
<text text-anchor="middle" x="882.5" y="-2947.1" font-family="Sans-Serif" font-size="13.00" fill="#2d3436">ga.t_ga_recurrence3_usage_crossdevice_detail_ec_nb_idbp_mois</text>
</g>
<!-- a26cc3c3f94846aaa1362ed95f1a001c&#45;&gt;6d2b56d3e1b64eeab590eec95f437f1d -->
<g id="edge26" class="edge">
<title>a26cc3c3f94846aaa1362ed95f1a001c&#45;&gt;6d2b56d3e1b64eeab590eec95f437f1d</title>
<path fill="none" stroke="#7b8894" d="M378.22,-3075.17C378.22,-3075.17 821.69,-3075.17 821.69,-3075.17"/>
<polygon fill="#7b8894" stroke="#7b8894" points="821.69,-3078.67 831.69,-3075.17 821.69,-3071.67 821.69,-3078.67"/>
<text text-anchor="middle" x="595.5" y="-3044.6" font-family="Sans-Serif" font-size="13.00" fill="darkgrey">t_recurrence3_usage_crossdevice_detail_ec_nb_idbp_mois</text>
</g>
<!-- a4f2caf3ce324068b89d7324c88f82ab -->
<g id="node26" class="node">
<title>a4f2caf3ce324068b89d7324c88f82ab</title>
<image xlink:href="icons/bigquery.png" width="101px" height="101px" preserveAspectRatio="xMinYMin meet" x="832" y="-3242.5"/>
<text text-anchor="middle" x="882.5" y="-3127.1" font-family="Sans-Serif" font-size="13.00" fill="#2d3436">ga.t_ga_prog_eng_consultation_et_usage</text>
</g>
<!-- a26cc3c3f94846aaa1362ed95f1a001c&#45;&gt;a4f2caf3ce324068b89d7324c88f82ab -->
<g id="edge27" class="edge">
<title>a26cc3c3f94846aaa1362ed95f1a001c&#45;&gt;a4f2caf3ce324068b89d7324c88f82ab</title>
<path fill="none" stroke="#7b8894" d="M378.22,-3146.5C378.22,-3146.5 821.69,-3146.5 821.69,-3146.5"/>
<polygon fill="#7b8894" stroke="#7b8894" points="821.69,-3150 831.69,-3146.5 821.69,-3143 821.69,-3150"/>
<text text-anchor="middle" x="595.5" y="-3165.6" font-family="Sans-Serif" font-size="13.00" fill="darkgrey">t_ga_prog_eng_consultation_et_usage</text>
</g>
<!-- 819bf68bbec24a5da4f74ba659777baa -->
<g id="node27" class="node">
<title>819bf68bbec24a5da4f74ba659777baa</title>
<image xlink:href="icons/bigquery.png" width="101px" height="101px" preserveAspectRatio="xMinYMin meet" x="832" y="-3422.5"/>
<text text-anchor="middle" x="882.5" y="-3307.1" font-family="Sans-Serif" font-size="13.00" fill="#2d3436">comite_drc.e_ds_comite_drc_infosmensuelles</text>
</g>
<!-- a26cc3c3f94846aaa1362ed95f1a001c&#45;&gt;819bf68bbec24a5da4f74ba659777baa -->
<g id="edge28" class="edge">
<title>a26cc3c3f94846aaa1362ed95f1a001c&#45;&gt;819bf68bbec24a5da4f74ba659777baa</title>
<path fill="none" stroke="#7b8894" d="M373,-3169.74C373,-3250.02 373,-3372 373,-3372 373,-3372 821.78,-3372 821.78,-3372"/>
<polygon fill="#7b8894" stroke="#7b8894" points="821.78,-3375.5 831.78,-3372 821.78,-3368.5 821.78,-3375.5"/>
<text text-anchor="middle" x="595.5" y="-3315.6" font-family="Sans-Serif" font-size="13.00" fill="darkgrey">e_ds_comite_drc_infosmensuelles</text>
</g>
<!-- aca6e55172784dd0b0ee2b43eb69d8d8 -->
<g id="node28" class="node">
<title>aca6e55172784dd0b0ee2b43eb69d8d8</title>
<image xlink:href="icons/bigquery.png" width="101px" height="101px" preserveAspectRatio="xMinYMin meet" x="832" y="-3602.5"/>
<text text-anchor="middle" x="882.5" y="-3487.1" font-family="Sans-Serif" font-size="13.00" fill="#2d3436">ds_engagement.l_ga_to_ds_engagement_services</text>
</g>
<!-- a26cc3c3f94846aaa1362ed95f1a001c&#45;&gt;aca6e55172784dd0b0ee2b43eb69d8d8 -->
<g id="edge29" class="edge">
<title>a26cc3c3f94846aaa1362ed95f1a001c&#45;&gt;aca6e55172784dd0b0ee2b43eb69d8d8</title>
<path fill="none" stroke="#7b8894" d="M367,-3169.99C367,-3296.33 367,-3552 367,-3552 367,-3552 821.66,-3552 821.66,-3552"/>
<polygon fill="#7b8894" stroke="#7b8894" points="821.66,-3555.5 831.66,-3552 821.66,-3548.5 821.66,-3555.5"/>
<text text-anchor="middle" x="595.5" y="-3480.6" font-family="Sans-Serif" font-size="13.00" fill="darkgrey">l_ga_to_ds_engagement_services</text>
</g>
<!-- dc0459e37a1e4328a0e1e7365e0f9176 -->
<g id="node29" class="node">
<title>dc0459e37a1e4328a0e1e7365e0f9176</title>
<image xlink:href="icons/bigquery.png" width="101px" height="101px" preserveAspectRatio="xMinYMin meet" x="832" y="-3782.5"/>
<text text-anchor="middle" x="882.5" y="-3667.1" font-family="Sans-Serif" font-size="13.00" fill="#2d3436">ds_engagement.l_ga_to_ds_engagement_consolidation</text>
</g>
<!-- a26cc3c3f94846aaa1362ed95f1a001c&#45;&gt;dc0459e37a1e4328a0e1e7365e0f9176 -->
<g id="edge30" class="edge">
<title>a26cc3c3f94846aaa1362ed95f1a001c&#45;&gt;dc0459e37a1e4328a0e1e7365e0f9176</title>
<path fill="none" stroke="#7b8894" d="M362,-3169.73C362,-3333.27 362,-3732 362,-3732 362,-3732 821.64,-3732 821.64,-3732"/>
<polygon fill="#7b8894" stroke="#7b8894" points="821.64,-3735.5 831.64,-3732 821.64,-3728.5 821.64,-3735.5"/>
<text text-anchor="middle" x="595.5" y="-3653.6" font-family="Sans-Serif" font-size="13.00" fill="darkgrey">l_ga_to_ds_engagement_consolidation</text>
</g>
<!-- fa6e0ec54e584fe6a98af8f17c74b9c8 -->
<g id="node30" class="node">
<title>fa6e0ec54e584fe6a98af8f17c74b9c8</title>
<image xlink:href="icons/bigquery.png" width="101px" height="101px" preserveAspectRatio="xMinYMin meet" x="832" y="-3962.5"/>
<text text-anchor="middle" x="882.5" y="-3847.1" font-family="Sans-Serif" font-size="13.00" fill="#2d3436">ds_engagement.l_to_ds_engagement_nb_idbp_et_premiere_visites</text>
</g>
<!-- a26cc3c3f94846aaa1362ed95f1a001c&#45;&gt;fa6e0ec54e584fe6a98af8f17c74b9c8 -->
<g id="edge31" class="edge">
<title>a26cc3c3f94846aaa1362ed95f1a001c&#45;&gt;fa6e0ec54e584fe6a98af8f17c74b9c8</title>
<path fill="none" stroke="#7b8894" d="M356,-3169.8C356,-3365.62 356,-3912 356,-3912 356,-3912 821.54,-3912 821.54,-3912"/>
<polygon fill="#7b8894" stroke="#7b8894" points="821.54,-3915.5 831.54,-3912 821.54,-3908.5 821.54,-3915.5"/>
<text text-anchor="middle" x="595.5" y="-3829.6" font-family="Sans-Serif" font-size="13.00" fill="darkgrey">l_to_ds_engagement_nb_idbp_et_premiere_visites</text>
</g>
<!-- 76a39bd3531b4216975d67e1c5023d35 -->
<g id="node31" class="node">
<title>76a39bd3531b4216975d67e1c5023d35</title>
<image xlink:href="icons/bigquery.png" width="101px" height="101px" preserveAspectRatio="xMinYMin meet" x="832" y="-4142.5"/>
<text text-anchor="middle" x="882.5" y="-4027.1" font-family="Sans-Serif" font-size="13.00" fill="#2d3436">ds_engagement.l_to_ds_engagement_avg_sessions_per_client_last3month</text>
</g>
<!-- a26cc3c3f94846aaa1362ed95f1a001c&#45;&gt;76a39bd3531b4216975d67e1c5023d35 -->
<g id="edge32" class="edge">
<title>a26cc3c3f94846aaa1362ed95f1a001c&#45;&gt;76a39bd3531b4216975d67e1c5023d35</title>
<path fill="none" stroke="#7b8894" d="M350,-3169.51C350,-3393.82 350,-4092 350,-4092 350,-4092 821.92,-4092 821.92,-4092"/>
<polygon fill="#7b8894" stroke="#7b8894" points="821.92,-4095.5 831.92,-4092 821.92,-4088.5 821.92,-4095.5"/>
<text text-anchor="middle" x="595.5" y="-4007.6" font-family="Sans-Serif" font-size="13.00" fill="darkgrey">l_to_ds_engagement_avg_sessions_per_client_last3month</text>
</g>
<!-- 67d8982a9d5143d6a008825cf3c62871 -->
<g id="node32" class="node">
<title>67d8982a9d5143d6a008825cf3c62871</title>
<image xlink:href="icons/bigquery.png" width="101px" height="101px" preserveAspectRatio="xMinYMin meet" x="832" y="-4322.5"/>
<text text-anchor="middle" x="882.5" y="-4207.1" font-family="Sans-Serif" font-size="13.00" fill="#2d3436">ds_engagement.l_to_ds_engagement_recurrence_repartition_last3month</text>
</g>
<!-- a26cc3c3f94846aaa1362ed95f1a001c&#45;&gt;67d8982a9d5143d6a008825cf3c62871 -->
<g id="edge33" class="edge">
<title>a26cc3c3f94846aaa1362ed95f1a001c&#45;&gt;67d8982a9d5143d6a008825cf3c62871</title>
<path fill="none" stroke="#7b8894" d="M345,-3169.88C345,-3420.89 345,-4272 345,-4272 345,-4272 821.93,-4272 821.93,-4272"/>
<polygon fill="#7b8894" stroke="#7b8894" points="821.93,-4275.5 831.93,-4272 821.93,-4268.5 821.93,-4275.5"/>
<text text-anchor="middle" x="595.5" y="-4186.6" font-family="Sans-Serif" font-size="13.00" fill="darkgrey">l_to_ds_engagement_recurrence_repartition_last3month</text>
</g>
<!-- 9ceb6e4123e24569a35003c50d6d65ff -->
<g id="node33" class="node">
<title>9ceb6e4123e24569a35003c50d6d65ff</title>
<image xlink:href="icons/bigquery.png" width="101px" height="101px" preserveAspectRatio="xMinYMin meet" x="832" y="-4502.5"/>
<text text-anchor="middle" x="882.5" y="-4387.1" font-family="Sans-Serif" font-size="13.00" fill="#2d3436">ga.t_ga_prog_eng_consultation_et_usage_count</text>
</g>
<!-- a26cc3c3f94846aaa1362ed95f1a001c&#45;&gt;9ceb6e4123e24569a35003c50d6d65ff -->
<g id="edge34" class="edge">
<title>a26cc3c3f94846aaa1362ed95f1a001c&#45;&gt;9ceb6e4123e24569a35003c50d6d65ff</title>
<path fill="none" stroke="#7b8894" d="M339,-3169.85C339,-3445.16 339,-4452 339,-4452 339,-4452 821.86,-4452 821.86,-4452"/>
<polygon fill="#7b8894" stroke="#7b8894" points="821.86,-4455.5 831.86,-4452 821.86,-4448.5 821.86,-4455.5"/>
<text text-anchor="middle" x="595.5" y="-4366.6" font-family="Sans-Serif" font-size="13.00" fill="darkgrey">t_ga_prog_eng_consultation_et_usage_count</text>
</g>
<!-- b0006b1ba9054d6b9fb2e296335f585a -->
<g id="node34" class="node">
<title>b0006b1ba9054d6b9fb2e296335f585a</title>
<image xlink:href="icons/bigquery.png" width="101px" height="101px" preserveAspectRatio="xMinYMin meet" x="832" y="-4682.5"/>
<text text-anchor="middle" x="882.5" y="-4567.1" font-family="Sans-Serif" font-size="13.00" fill="#2d3436">ga.t_ga_prog_eng_projet_ka_group_by</text>
</g>
<!-- a26cc3c3f94846aaa1362ed95f1a001c&#45;&gt;b0006b1ba9054d6b9fb2e296335f585a -->
<g id="edge35" class="edge">
<title>a26cc3c3f94846aaa1362ed95f1a001c&#45;&gt;b0006b1ba9054d6b9fb2e296335f585a</title>
<path fill="none" stroke="#7b8894" d="M334,-3169.76C334,-3467.66 334,-4632 334,-4632 334,-4632 821.88,-4632 821.88,-4632"/>
<polygon fill="#7b8894" stroke="#7b8894" points="821.88,-4635.5 831.88,-4632 821.88,-4628.5 821.88,-4635.5"/>
<text text-anchor="middle" x="595.5" y="-4546.6" font-family="Sans-Serif" font-size="13.00" fill="darkgrey">t_ga_prog_eng_projet_ka_group_by</text>
</g>
<!-- 9b96c39c210f4a11867182104cb85a52 -->
<g id="node35" class="node">
<title>9b96c39c210f4a11867182104cb85a52</title>
<image xlink:href="icons/bigquery.png" width="101px" height="101px" preserveAspectRatio="xMinYMin meet" x="832" y="-4862.5"/>
<text text-anchor="middle" x="882.5" y="-4747.1" font-family="Sans-Serif" font-size="13.00" fill="#2d3436">ga.t_ga_prog_eng_projet_monthly</text>
</g>
<!-- a26cc3c3f94846aaa1362ed95f1a001c&#45;&gt;9b96c39c210f4a11867182104cb85a52 -->
<g id="edge36" class="edge">
<title>a26cc3c3f94846aaa1362ed95f1a001c&#45;&gt;9b96c39c210f4a11867182104cb85a52</title>
<path fill="none" stroke="#7b8894" d="M328,-3169.66C328,-3488.82 328,-4812 328,-4812 328,-4812 821.82,-4812 821.82,-4812"/>
<polygon fill="#7b8894" stroke="#7b8894" points="821.82,-4815.5 831.82,-4812 821.82,-4808.5 821.82,-4815.5"/>
<text text-anchor="middle" x="595.5" y="-4726.6" font-family="Sans-Serif" font-size="13.00" fill="darkgrey">t_ga_prog_eng_projet_monthly</text>
</g>
<!-- 0b1d7d84373e4363a9915991624c2641 -->
<g id="node36" class="node">
<title>0b1d7d84373e4363a9915991624c2641</title>
<image xlink:href="icons/bigquery.png" width="101px" height="101px" preserveAspectRatio="xMinYMin meet" x="832" y="-5042.5"/>
<text text-anchor="middle" x="882.5" y="-4927.1" font-family="Sans-Serif" font-size="13.00" fill="#2d3436">ga.t_ga_bots_selfcare</text>
</g>
<!-- a26cc3c3f94846aaa1362ed95f1a001c&#45;&gt;0b1d7d84373e4363a9915991624c2641 -->
<g id="edge37" class="edge">
<title>a26cc3c3f94846aaa1362ed95f1a001c&#45;&gt;0b1d7d84373e4363a9915991624c2641</title>
<path fill="none" stroke="#7b8894" d="M322,-3169.7C322,-3509.25 322,-4992 322,-4992 322,-4992 821.77,-4992 821.77,-4992"/>
<polygon fill="#7b8894" stroke="#7b8894" points="821.77,-4995.5 831.77,-4992 821.77,-4988.5 821.77,-4995.5"/>
<text text-anchor="middle" x="595.5" y="-4906.6" font-family="Sans-Serif" font-size="13.00" fill="darkgrey">t_bots_selfcare</text>
</g>
<!-- a813fa4e8f4547079034f9697c82831a -->
<g id="node37" class="node">
<title>a813fa4e8f4547079034f9697c82831a</title>
<image xlink:href="icons/bigquery.png" width="101px" height="101px" preserveAspectRatio="xMinYMin meet" x="832" y="-5222.5"/>
<text text-anchor="middle" x="882.5" y="-5107.1" font-family="Sans-Serif" font-size="13.00" fill="#2d3436">datastudio_canaux.l_to_ds_canaux_tchat</text>
</g>
<!-- a26cc3c3f94846aaa1362ed95f1a001c&#45;&gt;a813fa4e8f4547079034f9697c82831a -->
<g id="edge38" class="edge">
<title>a26cc3c3f94846aaa1362ed95f1a001c&#45;&gt;a813fa4e8f4547079034f9697c82831a</title>
<path fill="none" stroke="#7b8894" d="M317,-3169.61C317,-3528.36 317,-5172 317,-5172 317,-5172 821.82,-5172 821.82,-5172"/>
<polygon fill="#7b8894" stroke="#7b8894" points="821.82,-5175.5 831.82,-5172 821.82,-5168.5 821.82,-5175.5"/>
<text text-anchor="middle" x="595.5" y="-5086.6" font-family="Sans-Serif" font-size="13.00" fill="darkgrey">l_to_ds_canaux_tchat</text>
</g>
<!-- 256cd3848a8d477097ad8c6529123321 -->
<g id="node38" class="node">
<title>256cd3848a8d477097ad8c6529123321</title>
<image xlink:href="icons/bigquery.png" width="101px" height="101px" preserveAspectRatio="xMinYMin meet" x="832" y="-5402.5"/>
<text text-anchor="middle" x="882.5" y="-5287.1" font-family="Sans-Serif" font-size="13.00" fill="#2d3436">datastudio_canaux.l_to_ds_canaux_consolidation_bulles</text>
</g>
<!-- a26cc3c3f94846aaa1362ed95f1a001c&#45;&gt;256cd3848a8d477097ad8c6529123321 -->
<g id="edge39" class="edge">
<title>a26cc3c3f94846aaa1362ed95f1a001c&#45;&gt;256cd3848a8d477097ad8c6529123321</title>
<path fill="none" stroke="#7b8894" d="M311,-3169.6C311,-3546.85 311,-5352 311,-5352 311,-5352 821.78,-5352 821.78,-5352"/>
<polygon fill="#7b8894" stroke="#7b8894" points="821.78,-5355.5 831.78,-5352 821.78,-5348.5 821.78,-5355.5"/>
<text text-anchor="middle" x="595.5" y="-5266.6" font-family="Sans-Serif" font-size="13.00" fill="darkgrey">l_to_ds_canaux_consolidation_bulles</text>
</g>
<!-- 4cdeb63c4adc4a26b52021dde614d7fe -->
<g id="node39" class="node">
<title>4cdeb63c4adc4a26b52021dde614d7fe</title>
<image xlink:href="icons/bigquery.png" width="101px" height="101px" preserveAspectRatio="xMinYMin meet" x="832" y="-5582.5"/>
<text text-anchor="middle" x="882.5" y="-5467.1" font-family="Sans-Serif" font-size="13.00" fill="#2d3436">datastudio_canaux.l_to_ds_canaux_tchat_hourly</text>
</g>
<!-- a26cc3c3f94846aaa1362ed95f1a001c&#45;&gt;4cdeb63c4adc4a26b52021dde614d7fe -->
<g id="edge40" class="edge">
<title>a26cc3c3f94846aaa1362ed95f1a001c&#45;&gt;4cdeb63c4adc4a26b52021dde614d7fe</title>
<path fill="none" stroke="#7b8894" d="M306,-3169.52C306,-3564.39 306,-5532 306,-5532 306,-5532 821.84,-5532 821.84,-5532"/>
<polygon fill="#7b8894" stroke="#7b8894" points="821.84,-5535.5 831.84,-5532 821.84,-5528.5 821.84,-5535.5"/>
<text text-anchor="middle" x="595.5" y="-5446.6" font-family="Sans-Serif" font-size="13.00" fill="darkgrey">l_to_ds_canaux_tchat_hourly</text>
</g>
<!-- 2f7f410b4a1b4e53bd1cbdf10e93f86f -->
<g id="node40" class="node">
<title>2f7f410b4a1b4e53bd1cbdf10e93f86f</title>
<image xlink:href="icons/bigquery.png" width="101px" height="101px" preserveAspectRatio="xMinYMin meet" x="832" y="-5762.5"/>
<text text-anchor="middle" x="882.5" y="-5647.1" font-family="Sans-Serif" font-size="13.00" fill="#2d3436">datastudio_canaux.l_to_ds_canaux_tchat_eligible_hourly</text>
</g>
<!-- a26cc3c3f94846aaa1362ed95f1a001c&#45;&gt;2f7f410b4a1b4e53bd1cbdf10e93f86f -->
<g id="edge41" class="edge">
<title>a26cc3c3f94846aaa1362ed95f1a001c&#45;&gt;2f7f410b4a1b4e53bd1cbdf10e93f86f</title>
<path fill="none" stroke="#7b8894" d="M300,-3169.83C300,-3582.61 300,-5712 300,-5712 300,-5712 821.83,-5712 821.83,-5712"/>
<polygon fill="#7b8894" stroke="#7b8894" points="821.83,-5715.5 831.83,-5712 821.83,-5708.5 821.83,-5715.5"/>
<text text-anchor="middle" x="595.5" y="-5626.6" font-family="Sans-Serif" font-size="13.00" fill="darkgrey">l_to_ds_canaux_tchat_eligible_hourly</text>
</g>
<!-- 1fd1d82dcd2249c6a328aa79a1947adb -->
<g id="node41" class="node">
<title>1fd1d82dcd2249c6a328aa79a1947adb</title>
<image xlink:href="icons/bigquery.png" width="101px" height="101px" preserveAspectRatio="xMinYMin meet" x="832" y="-5942.5"/>
<text text-anchor="middle" x="882.5" y="-5827.1" font-family="Sans-Serif" font-size="13.00" fill="#2d3436">ds_maconso.l_to_ds_maconso_fonctionnalites_elec</text>
</g>
<!-- a26cc3c3f94846aaa1362ed95f1a001c&#45;&gt;1fd1d82dcd2249c6a328aa79a1947adb -->
<g id="edge42" class="edge">
<title>a26cc3c3f94846aaa1362ed95f1a001c&#45;&gt;1fd1d82dcd2249c6a328aa79a1947adb</title>
<path fill="none" stroke="#7b8894" d="M294,-3169.64C294,-3598.55 294,-5892 294,-5892 294,-5892 821.82,-5892 821.82,-5892"/>
<polygon fill="#7b8894" stroke="#7b8894" points="821.82,-5895.5 831.82,-5892 821.82,-5888.5 821.82,-5895.5"/>
<text text-anchor="middle" x="595.5" y="-5806.6" font-family="Sans-Serif" font-size="13.00" fill="darkgrey">l_to_ds_maconso_fonctionnalites_elec</text>
</g>
<!-- 3d4eef074e5545e98e2039f666ba4614 -->
<g id="node42" class="node">
<title>3d4eef074e5545e98e2039f666ba4614</title>
<image xlink:href="icons/bigquery.png" width="101px" height="101px" preserveAspectRatio="xMinYMin meet" x="832" y="-6122.5"/>
<text text-anchor="middle" x="882.5" y="-6007.1" font-family="Sans-Serif" font-size="13.00" fill="#2d3436">comper.l_ga_to_ds_comper_sessions</text>
</g>
<!-- a26cc3c3f94846aaa1362ed95f1a001c&#45;&gt;3d4eef074e5545e98e2039f666ba4614 -->
<g id="edge43" class="edge">
<title>a26cc3c3f94846aaa1362ed95f1a001c&#45;&gt;3d4eef074e5545e98e2039f666ba4614</title>
<path fill="none" stroke="#7b8894" d="M289,-3169.71C289,-3614.83 289,-6072 289,-6072 289,-6072 821.9,-6072 821.9,-6072"/>
<polygon fill="#7b8894" stroke="#7b8894" points="821.9,-6075.5 831.9,-6072 821.9,-6068.5 821.9,-6075.5"/>
<text text-anchor="middle" x="595.5" y="-5986.6" font-family="Sans-Serif" font-size="13.00" fill="darkgrey">l_to_ds_comper_sessions</text>
</g>
<!-- 0316935830f84072a0034f560517bc36 -->
<g id="node43" class="node">
<title>0316935830f84072a0034f560517bc36</title>
<image xlink:href="icons/bigquery.png" width="101px" height="101px" preserveAspectRatio="xMinYMin meet" x="832" y="-6302.5"/>
<text text-anchor="middle" x="882.5" y="-6187.1" font-family="Sans-Serif" font-size="13.00" fill="#2d3436">ga.l_ga_to_ds_comper_parcours_service_equipement_ignition</text>
</g>
<!-- a26cc3c3f94846aaa1362ed95f1a001c&#45;&gt;0316935830f84072a0034f560517bc36 -->
<g id="edge44" class="edge">
<title>a26cc3c3f94846aaa1362ed95f1a001c&#45;&gt;0316935830f84072a0034f560517bc36</title>
<path fill="none" stroke="#7b8894" d="M283,-3169.74C283,-3630.55 283,-6252 283,-6252 283,-6252 821.9,-6252 821.9,-6252"/>
<polygon fill="#7b8894" stroke="#7b8894" points="821.9,-6255.5 831.9,-6252 821.9,-6248.5 821.9,-6255.5"/>
<text text-anchor="middle" x="595.5" y="-6166.6" font-family="Sans-Serif" font-size="13.00" fill="darkgrey">l_to_ds_comper_parcours_service_equipement_ignition</text>
</g>
<!-- 56923b7d662b464386ab5f354b5a9d30 -->
<g id="node3" class="node">
<title>56923b7d662b464386ab5f354b5a9d30</title>
<image xlink:href="icons/bigquery.png" width="101px" height="101px" preserveAspectRatio="xMinYMin meet" x="16" y="-1610.5"/>
<text text-anchor="middle" x="66.5" y="-1495.1" font-family="Sans-Serif" font-size="13.00" fill="#2d3436">160756520.ga_sessions_</text>
</g>
<!-- a0d3104f94c54345867cdf6d4525692f -->
<g id="node4" class="node">
<title>a0d3104f94c54345867cdf6d4525692f</title>
<image xlink:href="icons/bigquery.png" width="101px" height="101px" preserveAspectRatio="xMinYMin meet" x="277" y="-1610.5"/>
<text text-anchor="middle" x="327.5" y="-1495.1" font-family="Sans-Serif" font-size="13.00" fill="#2d3436">ga.t_ga_sessions_historic</text>
</g>
<!-- 56923b7d662b464386ab5f354b5a9d30&#45;&gt;a0d3104f94c54345867cdf6d4525692f -->
<g id="edge2" class="edge">
<title>56923b7d662b464386ab5f354b5a9d30&#45;&gt;a0d3104f94c54345867cdf6d4525692f</title>
<path fill="none" stroke="#7b8894" d="M117.13,-1560C117.13,-1560 266.56,-1560 266.56,-1560"/>
<polygon fill="#7b8894" stroke="#7b8894" points="266.56,-1563.5 276.56,-1560 266.56,-1556.5 266.56,-1563.5"/>
<text text-anchor="middle" x="197" y="-1563.6" font-family="Sans-Serif" font-size="13.00" fill="darkgrey">t_sessions_historic</text>
</g>
<!-- 7628e2ca55664f639e98c5617e278f9b -->
<g id="node10" class="node">
<title>7628e2ca55664f639e98c5617e278f9b</title>
<image xlink:href="icons/bigquery.png" width="101px" height="101px" preserveAspectRatio="xMinYMin meet" x="1156" y="-520.5"/>
<text text-anchor="middle" x="1206.5" y="-405.1" font-family="Sans-Serif" font-size="13.00" fill="#2d3436">ga.t_ga_optimizely_vs_objectives</text>
</g>
<!-- d2e4ca06abda4238abf1abb562611c3a&#45;&gt;7628e2ca55664f639e98c5617e278f9b -->
<g id="edge9" class="edge">
<title>d2e4ca06abda4238abf1abb562611c3a&#45;&gt;7628e2ca55664f639e98c5617e278f9b</title>
<path fill="none" stroke="#7b8894" d="M933.13,-470C933.13,-470 1145.96,-470 1145.96,-470"/>
<polygon fill="#7b8894" stroke="#7b8894" points="1145.96,-473.5 1155.96,-470 1145.96,-466.5 1145.96,-473.5"/>
<text text-anchor="middle" x="1054" y="-473.6" font-family="Sans-Serif" font-size="13.00" fill="darkgrey">t_optimizely_vs_objectives</text>
</g>
<!-- b561fb7290864858a26380f065ffa003 -->
<g id="node9" class="node">
<title>b561fb7290864858a26380f065ffa003</title>
<image xlink:href="icons/bigquery.png" width="101px" height="101px" preserveAspectRatio="xMinYMin meet" x="1156" y="-700.5"/>
<text text-anchor="middle" x="1206.5" y="-585.1" font-family="Sans-Serif" font-size="13.00" fill="#2d3436">ga.t_ga_optimizely_sessions</text>
</g>
<!-- 5aa3c9b1f8274edcb2461292ab140509&#45;&gt;b561fb7290864858a26380f065ffa003 -->
<g id="edge7" class="edge">
<title>5aa3c9b1f8274edcb2461292ab140509&#45;&gt;b561fb7290864858a26380f065ffa003</title>
<path fill="none" stroke="#7b8894" d="M933.13,-650C933.13,-650 1145.96,-650 1145.96,-650"/>
<polygon fill="#7b8894" stroke="#7b8894" points="1145.96,-653.5 1155.96,-650 1145.96,-646.5 1145.96,-653.5"/>
<text text-anchor="middle" x="1054" y="-653.6" font-family="Sans-Serif" font-size="13.00" fill="darkgrey">t_optimizely_sessions</text>
</g>
<!-- 5aa3c9b1f8274edcb2461292ab140509&#45;&gt;7628e2ca55664f639e98c5617e278f9b -->
<g id="edge8" class="edge">
<title>5aa3c9b1f8274edcb2461292ab140509&#45;&gt;7628e2ca55664f639e98c5617e278f9b</title>
<path fill="none" stroke="#7b8894" d="M883,-581.33C883,-569.01 883,-560 883,-560 883,-560 1207,-560 1207,-560 1207,-560 1207,-548.67 1207,-548.67"/>
<polygon fill="#7b8894" stroke="#7b8894" points="1210.5,-548.67 1207,-538.67 1203.5,-548.67 1210.5,-548.67"/>
<text text-anchor="middle" x="1054" y="-563.6" font-family="Sans-Serif" font-size="13.00" fill="darkgrey">t_optimizely_vs_objectives</text>
</g>
<!-- 741c487582c9437388d23757738b177c&#45;&gt;5285581a41fc4d47ad4214fcf2ac853a -->
<g id="edge10" class="edge">
<title>741c487582c9437388d23757738b177c&#45;&gt;5285581a41fc4d47ad4214fcf2ac853a</title>
<path fill="none" stroke="#7b8894" d="M933.13,-879.83C933.13,-879.83 1145.96,-879.83 1145.96,-879.83"/>
<polygon fill="#7b8894" stroke="#7b8894" points="1145.96,-883.33 1155.96,-879.83 1145.96,-876.33 1145.96,-883.33"/>
<text text-anchor="middle" x="1054" y="-899.6" font-family="Sans-Serif" font-size="13.00" fill="darkgrey">t_fait_parcours</text>
</g>
<!-- 741c487582c9437388d23757738b177c&#45;&gt;297a7f6f615f4785a3f9a0e5a01716e9 -->
<g id="edge13" class="edge">
<title>741c487582c9437388d23757738b177c&#45;&gt;297a7f6f615f4785a3f9a0e5a01716e9</title>
<path fill="none" stroke="#7b8894" d="M933.13,-993.5C933.13,-993.5 1145.96,-993.5 1145.96,-993.5"/>
<polygon fill="#7b8894" stroke="#7b8894" points="1145.96,-997 1155.96,-993.5 1145.96,-990 1145.96,-997"/>
<text text-anchor="middle" x="1054" y="-968.6" font-family="Sans-Serif" font-size="13.00" fill="darkgrey">t_parcours_checkpoint_1</text>
</g>
<!-- 68993004e5324c8784f72aa046a6f82c -->
<g id="node14" class="node">
<title>68993004e5324c8784f72aa046a6f82c</title>
<image xlink:href="icons/bigquery.png" width="101px" height="101px" preserveAspectRatio="xMinYMin meet" x="1464" y="-1106.5"/>
<text text-anchor="middle" x="1514.5" y="-991.1" font-family="Sans-Serif" font-size="13.00" fill="#2d3436">ga.t_ga_parcours_checkpoint_1_2</text>
</g>
<!-- 297a7f6f615f4785a3f9a0e5a01716e9&#45;&gt;68993004e5324c8784f72aa046a6f82c -->
<g id="edge15" class="edge">
<title>297a7f6f615f4785a3f9a0e5a01716e9&#45;&gt;68993004e5324c8784f72aa046a6f82c</title>
<path fill="none" stroke="#7b8894" d="M1257.02,-1056C1257.02,-1056 1453.96,-1056 1453.96,-1056"/>
<polygon fill="#7b8894" stroke="#7b8894" points="1453.96,-1059.5 1463.96,-1056 1453.96,-1052.5 1453.96,-1059.5"/>
<text text-anchor="middle" x="1360.5" y="-1059.6" font-family="Sans-Serif" font-size="13.00" fill="darkgrey">t_parcours_checkpoint_1_2</text>
</g>
</g>
</svg>
