<?xml version="1.0" encoding="UTF-8" standalone="no"?>
<!DOCTYPE svg PUBLIC "-//W3C//DTD SVG 1.1//EN"
 "http://www.w3.org/Graphics/SVG/1.1/DTD/svg11.dtd">
<!-- Generated by graphviz version 2.47.1 (20210417.1919)
 -->
<!-- Title: ga_traitements Pages: 1 -->
<svg width="1869pt" height="7186pt"
 viewBox="0.00 0.00 1869.00 7186.00" xmlns="http://www.w3.org/2000/svg" xmlns:xlink="http://www.w3.org/1999/xlink">
<g id="graph0" class="graph" transform="scale(1 1) rotate(0) translate(144 7042)">
<title>ga_traitements</title>
<text text-anchor="middle" x="790.5" y="-9" font-family="Sans-Serif" font-size="15.00" fill="#2d3436">ga_traitements</text>
<g id="clust1" class="cluster">
<title>cluster_ga_traitements</title>
<path fill="#e5f5fd" stroke="#aeb6be" d="M20,-33C20,-33 1561,-33 1561,-33 1567,-33 1573,-39 1573,-45 1573,-45 1573,-6878 1573,-6878 1573,-6884 1567,-6890 1561,-6890 1561,-6890 20,-6890 20,-6890 14,-6890 8,-6884 8,-6878 8,-6878 8,-45 8,-45 8,-39 14,-33 20,-33"/>
<text text-anchor="middle" x="55.5" y="-6876.4" font-family="Sans-Serif" font-size="12.00" fill="#2d3436">ga_traitements</text>
</g>
<!-- 8b8e49679150460898169d9eead70ec8 -->
<g id="node1" class="node">
<title>8b8e49679150460898169d9eead70ec8</title>
<image xlink:href="icons/bigquery.png" width="101px" height="101px" preserveAspectRatio="xMinYMin meet" x="16" y="-3511.5"/>
<text text-anchor="middle" x="66.5" y="-3396.1" font-family="Sans-Serif" font-size="13.00" fill="#2d3436">160756520.ga_sessions_*</text>
</g>
<!-- ec5ac5eeef454e23ad209e391e0fcba5 -->
<g id="node2" class="node">
<title>ec5ac5eeef454e23ad209e391e0fcba5</title>
<image xlink:href="icons/bigquery.png" width="101px" height="101px" preserveAspectRatio="xMinYMin meet" x="277" y="-3511.5"/>
<text text-anchor="middle" x="327.5" y="-3396.1" font-family="Sans-Serif" font-size="13.00" fill="#2d3436">ga.t_ga_sessions</text>
</g>
<!-- 8b8e49679150460898169d9eead70ec8&#45;&gt;ec5ac5eeef454e23ad209e391e0fcba5 -->
<g id="edge1" class="edge">
<title>8b8e49679150460898169d9eead70ec8&#45;&gt;ec5ac5eeef454e23ad209e391e0fcba5</title>
<path fill="none" stroke="#7b8894" d="M117.13,-3461C117.13,-3461 266.56,-3461 266.56,-3461"/>
<polygon fill="#7b8894" stroke="#7b8894" points="266.56,-3464.5 276.56,-3461 266.56,-3457.5 266.56,-3464.5"/>
<text text-anchor="middle" x="197" y="-3464.6" font-family="Sans-Serif" font-size="13.00" fill="darkgrey">t_sessions</text>
</g>
<!-- 9fb83818e5b14a46aeee7ebab82b7c01 -->
<g id="node5" class="node">
<title>9fb83818e5b14a46aeee7ebab82b7c01</title>
<image xlink:href="icons/bigquery.png" width="101px" height="101px" preserveAspectRatio="xMinYMin meet" x="832" y="-340.5"/>
<text text-anchor="middle" x="882.5" y="-225.1" font-family="Sans-Serif" font-size="13.00" fill="#2d3436">ga.t_ga_sessions_sample</text>
</g>
<!-- ec5ac5eeef454e23ad209e391e0fcba5&#45;&gt;9fb83818e5b14a46aeee7ebab82b7c01 -->
<g id="edge3" class="edge">
<title>ec5ac5eeef454e23ad209e391e0fcba5&#45;&gt;9fb83818e5b14a46aeee7ebab82b7c01</title>
<path fill="none" stroke="#7b8894" d="M378.2,-3403.17C426.53,-3403.17 492,-3403.17 492,-3403.17 492,-3403.17 492,-290 492,-290 492,-290 821.85,-290 821.85,-290"/>
<polygon fill="#7b8894" stroke="#7b8894" points="821.85,-293.5 831.85,-290 821.85,-286.5 821.85,-293.5"/>
<text text-anchor="middle" x="595.5" y="-420.6" font-family="Sans-Serif" font-size="13.00" fill="darkgrey">t_sessions_sample</text>
</g>
<!-- 2761dcb327cd44b3b23996e7db926604 -->
<g id="node6" class="node">
<title>2761dcb327cd44b3b23996e7db926604</title>
<image xlink:href="icons/bigquery.png" width="101px" height="101px" preserveAspectRatio="xMinYMin meet" x="832" y="-520.5"/>
<text text-anchor="middle" x="882.5" y="-405.1" font-family="Sans-Serif" font-size="13.00" fill="#2d3436">ga.t_ga_objectives_entries_vs_objectives</text>
</g>
<!-- ec5ac5eeef454e23ad209e391e0fcba5&#45;&gt;2761dcb327cd44b3b23996e7db926604 -->
<g id="edge4" class="edge">
<title>ec5ac5eeef454e23ad209e391e0fcba5&#45;&gt;2761dcb327cd44b3b23996e7db926604</title>
<path fill="none" stroke="#7b8894" d="M378.04,-3408.5C443.41,-3408.5 549,-3408.5 549,-3408.5 549,-3408.5 549,-470 549,-470 549,-470 821.85,-470 821.85,-470"/>
<polygon fill="#7b8894" stroke="#7b8894" points="821.85,-473.5 831.85,-470 821.85,-466.5 821.85,-473.5"/>
<text text-anchor="middle" x="595.5" y="-610.6" font-family="Sans-Serif" font-size="13.00" fill="darkgrey">t_objectives_entries_vs_objectives</text>
</g>
<!-- fa0af4c14aa54ee79fa8595674da1b4f -->
<g id="node7" class="node">
<title>fa0af4c14aa54ee79fa8595674da1b4f</title>
<image xlink:href="icons/bigquery.png" width="101px" height="101px" preserveAspectRatio="xMinYMin meet" x="832" y="-700.5"/>
<text text-anchor="middle" x="882.5" y="-585.1" font-family="Sans-Serif" font-size="13.00" fill="#2d3436">ga.t_ga_objectives_events</text>
</g>
<!-- ec5ac5eeef454e23ad209e391e0fcba5&#45;&gt;fa0af4c14aa54ee79fa8595674da1b4f -->
<g id="edge5" class="edge">
<title>ec5ac5eeef454e23ad209e391e0fcba5&#45;&gt;fa0af4c14aa54ee79fa8595674da1b4f</title>
<path fill="none" stroke="#7b8894" d="M378.08,-3413.83C458.12,-3413.83 605,-3413.83 605,-3413.83 605,-3413.83 605,-650 605,-650 605,-650 821.92,-650 821.92,-650"/>
<polygon fill="#7b8894" stroke="#7b8894" points="821.92,-653.5 831.92,-650 821.92,-646.5 821.92,-653.5"/>
<text text-anchor="middle" x="595.5" y="-810.6" font-family="Sans-Serif" font-size="13.00" fill="darkgrey">t_objectives_events</text>
</g>
<!-- d2850346b95c455788b05fa88963acd6 -->
<g id="node8" class="node">
<title>d2850346b95c455788b05fa88963acd6</title>
<image xlink:href="icons/bigquery.png" width="101px" height="101px" preserveAspectRatio="xMinYMin meet" x="832" y="-160.5"/>
<text text-anchor="middle" x="882.5" y="-45.1" font-family="Sans-Serif" font-size="13.00" fill="#2d3436">ga.t_ga_optimizely_events</text>
</g>
<!-- ec5ac5eeef454e23ad209e391e0fcba5&#45;&gt;d2850346b95c455788b05fa88963acd6 -->
<g id="edge6" class="edge">
<title>ec5ac5eeef454e23ad209e391e0fcba5&#45;&gt;d2850346b95c455788b05fa88963acd6</title>
<path fill="none" stroke="#7b8894" d="M378.1,-3397.83C405.98,-3397.83 435,-3397.83 435,-3397.83 435,-3397.83 435,-110 435,-110 435,-110 821.6,-110 821.6,-110"/>
<polygon fill="#7b8894" stroke="#7b8894" points="821.6,-113.5 831.6,-110 821.6,-106.5 821.6,-113.5"/>
<text text-anchor="middle" x="595.5" y="-172.6" font-family="Sans-Serif" font-size="13.00" fill="darkgrey">t_optimizely_events</text>
</g>
<!-- af3cc47129c74271a3c966f5cb23baf0 -->
<g id="node12" class="node">
<title>af3cc47129c74271a3c966f5cb23baf0</title>
<image xlink:href="icons/bigquery.png" width="101px" height="101px" preserveAspectRatio="xMinYMin meet" x="832" y="-1161.5"/>
<text text-anchor="middle" x="882.5" y="-1046.1" font-family="Sans-Serif" font-size="13.00" fill="#2d3436">ga.t_ga_detail_session_checkpoint</text>
</g>
<!-- ec5ac5eeef454e23ad209e391e0fcba5&#45;&gt;af3cc47129c74271a3c966f5cb23baf0 -->
<g id="edge12" class="edge">
<title>ec5ac5eeef454e23ad209e391e0fcba5&#45;&gt;af3cc47129c74271a3c966f5cb23baf0</title>
<path fill="none" stroke="#7b8894" d="M378.3,-3419.17C471.88,-3419.17 662,-3419.17 662,-3419.17 662,-3419.17 662,-1111 662,-1111 662,-1111 821.91,-1111 821.91,-1111"/>
<polygon fill="#7b8894" stroke="#7b8894" points="821.91,-1114.5 831.91,-1111 821.91,-1107.5 821.91,-1114.5"/>
<text text-anchor="middle" x="595.5" y="-1182.6" font-family="Sans-Serif" font-size="13.00" fill="darkgrey">t_detail_session_checkpoint</text>
</g>
<!-- ddfaa0dd67684cf9bd5a293f0c8278a6 -->
<g id="node13" class="node">
<title>ddfaa0dd67684cf9bd5a293f0c8278a6</title>
<image xlink:href="icons/bigquery.png" width="101px" height="101px" preserveAspectRatio="xMinYMin meet" x="1156" y="-1060.5"/>
<text text-anchor="middle" x="1206.5" y="-945.1" font-family="Sans-Serif" font-size="13.00" fill="#2d3436">ga.t_ga_fait_parcours</text>
</g>
<!-- ec5ac5eeef454e23ad209e391e0fcba5&#45;&gt;ddfaa0dd67684cf9bd5a293f0c8278a6 -->
<g id="edge11" class="edge">
<title>ec5ac5eeef454e23ad209e391e0fcba5&#45;&gt;ddfaa0dd67684cf9bd5a293f0c8278a6</title>
<path fill="none" stroke="#7b8894" d="M378.24,-3454.83C541.86,-3454.83 1045,-3454.83 1045,-3454.83 1045,-3454.83 1045,-1066.5 1045,-1066.5 1045,-1066.5 1145.84,-1066.5 1145.84,-1066.5"/>
<polygon fill="#7b8894" stroke="#7b8894" points="1145.84,-1070 1155.84,-1066.5 1145.84,-1063 1145.84,-1070"/>
<text text-anchor="middle" x="882.5" y="-988.6" font-family="Sans-Serif" font-size="13.00" fill="darkgrey">t_fait_parcours</text>
</g>
<!-- 6ad195f9031f40fd8ba09cca5e54fd62 -->
<g id="node14" class="node">
<title>6ad195f9031f40fd8ba09cca5e54fd62</title>
<image xlink:href="icons/bigquery.png" width="101px" height="101px" preserveAspectRatio="xMinYMin meet" x="1156" y="-1290.5"/>
<text text-anchor="middle" x="1206.5" y="-1175.1" font-family="Sans-Serif" font-size="13.00" fill="#2d3436">ga.t_ga_parcours_checkpoint_1</text>
</g>
<!-- ec5ac5eeef454e23ad209e391e0fcba5&#45;&gt;6ad195f9031f40fd8ba09cca5e54fd62 -->
<g id="edge14" class="edge">
<title>ec5ac5eeef454e23ad209e391e0fcba5&#45;&gt;6ad195f9031f40fd8ba09cca5e54fd62</title>
<path fill="none" stroke="#7b8894" d="M378.27,-3469.17C565.56,-3469.17 1207,-3469.17 1207,-3469.17 1207,-3469.17 1207,-1318.54 1207,-1318.54"/>
<polygon fill="#7b8894" stroke="#7b8894" points="1210.5,-1318.54 1207,-1308.54 1203.5,-1318.54 1210.5,-1318.54"/>
<text text-anchor="middle" x="882.5" y="-1269.6" font-family="Sans-Serif" font-size="13.00" fill="darkgrey">t_parcours_checkpoint_1</text>
</g>
<!-- 8ae1a53c57264f7aa29b9a10001ca6dc -->
<g id="node16" class="node">
<title>8ae1a53c57264f7aa29b9a10001ca6dc</title>
<image xlink:href="icons/bigquery.png" width="101px" height="101px" preserveAspectRatio="xMinYMin meet" x="832" y="-1442.5"/>
<text text-anchor="middle" x="882.5" y="-1327.1" font-family="Sans-Serif" font-size="13.00" fill="#2d3436">ga.t_ga_qualite</text>
</g>
<!-- ec5ac5eeef454e23ad209e391e0fcba5&#45;&gt;8ae1a53c57264f7aa29b9a10001ca6dc -->
<g id="edge16" class="edge">
<title>ec5ac5eeef454e23ad209e391e0fcba5&#45;&gt;8ae1a53c57264f7aa29b9a10001ca6dc</title>
<path fill="none" stroke="#7b8894" d="M378.28,-3424.5C484.21,-3424.5 719,-3424.5 719,-3424.5 719,-3424.5 719,-1392 719,-1392 719,-1392 821.66,-1392 821.66,-1392"/>
<polygon fill="#7b8894" stroke="#7b8894" points="821.66,-1395.5 831.66,-1392 821.66,-1388.5 821.66,-1395.5"/>
<text text-anchor="middle" x="595.5" y="-1425.6" font-family="Sans-Serif" font-size="13.00" fill="darkgrey">t_qualite</text>
</g>
<!-- 63e28599bcc742ad9a7b4505894a3661 -->
<g id="node17" class="node">
<title>63e28599bcc742ad9a7b4505894a3661</title>
<image xlink:href="icons/bigquery.png" width="101px" height="101px" preserveAspectRatio="xMinYMin meet" x="832" y="-1622.5"/>
<text text-anchor="middle" x="882.5" y="-1507.1" font-family="Sans-Serif" font-size="13.00" fill="#2d3436">ga.t_ga_recurrence_visites_ec_sessions</text>
</g>
<!-- ec5ac5eeef454e23ad209e391e0fcba5&#45;&gt;63e28599bcc742ad9a7b4505894a3661 -->
<g id="edge17" class="edge">
<title>ec5ac5eeef454e23ad209e391e0fcba5&#45;&gt;63e28599bcc742ad9a7b4505894a3661</title>
<path fill="none" stroke="#7b8894" d="M378.08,-3429.83C495.37,-3429.83 776,-3429.83 776,-3429.83 776,-3429.83 776,-1572 776,-1572 776,-1572 821.75,-1572 821.75,-1572"/>
<polygon fill="#7b8894" stroke="#7b8894" points="821.75,-1575.5 831.75,-1572 821.75,-1568.5 821.75,-1575.5"/>
<text text-anchor="middle" x="595.5" y="-2136.6" font-family="Sans-Serif" font-size="13.00" fill="darkgrey">t_visites_ec_sessions</text>
</g>
<!-- 09fad612706742009cf5706b7fa96c62 -->
<g id="node18" class="node">
<title>09fad612706742009cf5706b7fa96c62</title>
<image xlink:href="icons/bigquery.png" width="101px" height="101px" preserveAspectRatio="xMinYMin meet" x="832" y="-1802.5"/>
<text text-anchor="middle" x="882.5" y="-1687.1" font-family="Sans-Serif" font-size="13.00" fill="#2d3436">ga.t_ga_blog_vs_objectifs</text>
</g>
<!-- ec5ac5eeef454e23ad209e391e0fcba5&#45;&gt;09fad612706742009cf5706b7fa96c62 -->
<g id="edge18" class="edge">
<title>ec5ac5eeef454e23ad209e391e0fcba5&#45;&gt;09fad612706742009cf5706b7fa96c62</title>
<path fill="none" stroke="#7b8894" d="M288,-3392.35C288,-3080.74 288,-1814.5 288,-1814.5 288,-1814.5 821.81,-1814.5 821.81,-1814.5"/>
<polygon fill="#7b8894" stroke="#7b8894" points="821.81,-1818 831.81,-1814.5 821.81,-1811 821.81,-1818"/>
<text text-anchor="middle" x="595.5" y="-2522.6" font-family="Sans-Serif" font-size="13.00" fill="darkgrey">t_blog_vs_objectifs</text>
</g>
<!-- 634724659c6046d68a0257230325a289 -->
<g id="node19" class="node">
<title>634724659c6046d68a0257230325a289</title>
<image xlink:href="icons/bigquery.png" width="101px" height="101px" preserveAspectRatio="xMinYMin meet" x="832" y="-1982.5"/>
<text text-anchor="middle" x="882.5" y="-1867.1" font-family="Sans-Serif" font-size="13.00" fill="#2d3436">ga.t_ga_ec_connexions</text>
</g>
<!-- ec5ac5eeef454e23ad209e391e0fcba5&#45;&gt;634724659c6046d68a0257230325a289 -->
<g id="edge19" class="edge">
<title>ec5ac5eeef454e23ad209e391e0fcba5&#45;&gt;634724659c6046d68a0257230325a289</title>
<path fill="none" stroke="#7b8894" d="M298,-3392.33C298,-3094.81 298,-1932 298,-1932 298,-1932 821.91,-1932 821.91,-1932"/>
<polygon fill="#7b8894" stroke="#7b8894" points="821.91,-1935.5 831.91,-1932 821.91,-1928.5 821.91,-1935.5"/>
<text text-anchor="middle" x="595.5" y="-2746.6" font-family="Sans-Serif" font-size="13.00" fill="darkgrey">t_ec_connexions</text>
</g>
<!-- 8b94a12cc2fa40868e3961c2894092fd -->
<g id="node20" class="node">
<title>8b94a12cc2fa40868e3961c2894092fd</title>
<image xlink:href="icons/bigquery.png" width="101px" height="101px" preserveAspectRatio="xMinYMin meet" x="832" y="-2162.5"/>
<text text-anchor="middle" x="882.5" y="-2047.1" font-family="Sans-Serif" font-size="13.00" fill="#2d3436">ga.t_ga_ec_connexions_mfa</text>
</g>
<!-- ec5ac5eeef454e23ad209e391e0fcba5&#45;&gt;8b94a12cc2fa40868e3961c2894092fd -->
<g id="edge20" class="edge">
<title>ec5ac5eeef454e23ad209e391e0fcba5&#45;&gt;8b94a12cc2fa40868e3961c2894092fd</title>
<path fill="none" stroke="#7b8894" d="M308,-3392.25C308,-3117.35 308,-2112 308,-2112 308,-2112 821.77,-2112 821.77,-2112"/>
<polygon fill="#7b8894" stroke="#7b8894" points="821.77,-2115.5 831.77,-2112 821.77,-2108.5 821.77,-2115.5"/>
<text text-anchor="middle" x="595.5" y="-2889.6" font-family="Sans-Serif" font-size="13.00" fill="darkgrey">t_ec_connexions_mfa</text>
</g>
<!-- dabd5670adc641a7a6e504c61caa135c -->
<g id="node21" class="node">
<title>dabd5670adc641a7a6e504c61caa135c</title>
<image xlink:href="icons/bigquery.png" width="101px" height="101px" preserveAspectRatio="xMinYMin meet" x="832" y="-2342.5"/>
<text text-anchor="middle" x="882.5" y="-2227.1" font-family="Sans-Serif" font-size="13.00" fill="#2d3436">ga.t_ga_consentements_parcours</text>
</g>
<!-- ec5ac5eeef454e23ad209e391e0fcba5&#45;&gt;dabd5670adc641a7a6e504c61caa135c -->
<g id="edge21" class="edge">
<title>ec5ac5eeef454e23ad209e391e0fcba5&#45;&gt;dabd5670adc641a7a6e504c61caa135c</title>
<path fill="none" stroke="#7b8894" d="M318,-3392.24C318,-3141.66 318,-2292 318,-2292 318,-2292 821.91,-2292 821.91,-2292"/>
<polygon fill="#7b8894" stroke="#7b8894" points="821.91,-2295.5 831.91,-2292 821.91,-2288.5 821.91,-2295.5"/>
<text text-anchor="middle" x="595.5" y="-2992.6" font-family="Sans-Serif" font-size="13.00" fill="darkgrey">t_consentements_parcours</text>
</g>
<!-- d30e913cef034050bc611030e2c5c78f -->
<g id="node22" class="node">
<title>d30e913cef034050bc611030e2c5c78f</title>
<image xlink:href="icons/bigquery.png" width="101px" height="101px" preserveAspectRatio="xMinYMin meet" x="832" y="-2522.5"/>
<text text-anchor="middle" x="882.5" y="-2407.1" font-family="Sans-Serif" font-size="13.00" fill="#2d3436">ga.t_ga_visites_ec_recurrence_bp</text>
</g>
<!-- ec5ac5eeef454e23ad209e391e0fcba5&#45;&gt;d30e913cef034050bc611030e2c5c78f -->
<g id="edge22" class="edge">
<title>ec5ac5eeef454e23ad209e391e0fcba5&#45;&gt;d30e913cef034050bc611030e2c5c78f</title>
<path fill="none" stroke="#7b8894" d="M328,-3392.24C328,-3167.96 328,-2472 328,-2472 328,-2472 821.82,-2472 821.82,-2472"/>
<polygon fill="#7b8894" stroke="#7b8894" points="821.82,-2475.5 831.82,-2472 821.82,-2468.5 821.82,-2475.5"/>
<text text-anchor="middle" x="595.5" y="-3074.6" font-family="Sans-Serif" font-size="13.00" fill="darkgrey">t_visites_ec_recurrence_bp</text>
</g>
<!-- 598f3077021d4069b078e7e473ae9ae7 -->
<g id="node23" class="node">
<title>598f3077021d4069b078e7e473ae9ae7</title>
<image xlink:href="icons/bigquery.png" width="101px" height="101px" preserveAspectRatio="xMinYMin meet" x="832" y="-2702.5"/>
<text text-anchor="middle" x="882.5" y="-2587.1" font-family="Sans-Serif" font-size="13.00" fill="#2d3436">ga.t_ga_recurrence1_moyenne_session_ec_bp_support_device_profil_mois</text>
</g>
<!-- ec5ac5eeef454e23ad209e391e0fcba5&#45;&gt;598f3077021d4069b078e7e473ae9ae7 -->
<g id="edge23" class="edge">
<title>ec5ac5eeef454e23ad209e391e0fcba5&#45;&gt;598f3077021d4069b078e7e473ae9ae7</title>
<path fill="none" stroke="#7b8894" d="M338,-3392.37C338,-3197.03 338,-2652 338,-2652 338,-2652 821.76,-2652 821.76,-2652"/>
<polygon fill="#7b8894" stroke="#7b8894" points="821.76,-2655.5 831.76,-2652 821.76,-2648.5 821.76,-2655.5"/>
<text text-anchor="middle" x="595.5" y="-3146.6" font-family="Sans-Serif" font-size="13.00" fill="darkgrey">t_recurrence1_moyenne_session_ec_bp_support_device_profil_mois</text>
</g>
<!-- 681c91dab091457b879f4adc8fef8f9e -->
<g id="node24" class="node">
<title>681c91dab091457b879f4adc8fef8f9e</title>
<image xlink:href="icons/bigquery.png" width="101px" height="101px" preserveAspectRatio="xMinYMin meet" x="832" y="-2882.5"/>
<text text-anchor="middle" x="882.5" y="-2767.1" font-family="Sans-Serif" font-size="13.00" fill="#2d3436">ga.t_ga_recurrence1_moyenne_session_ec_bp_support_mois</text>
</g>
<!-- ec5ac5eeef454e23ad209e391e0fcba5&#45;&gt;681c91dab091457b879f4adc8fef8f9e -->
<g id="edge24" class="edge">
<title>ec5ac5eeef454e23ad209e391e0fcba5&#45;&gt;681c91dab091457b879f4adc8fef8f9e</title>
<path fill="none" stroke="#7b8894" d="M348,-3392.49C348,-3229.47 348,-2832 348,-2832 348,-2832 821.73,-2832 821.73,-2832"/>
<polygon fill="#7b8894" stroke="#7b8894" points="821.73,-2835.5 831.73,-2832 821.73,-2828.5 821.73,-2835.5"/>
<text text-anchor="middle" x="595.5" y="-3213.6" font-family="Sans-Serif" font-size="13.00" fill="darkgrey">t_recurrence1_moyenne_session_ec_bp_support_mois</text>
</g>
<!-- fa200d9dd6e44d01b7c40b0be595f477 -->
<g id="node25" class="node">
<title>fa200d9dd6e44d01b7c40b0be595f477</title>
<image xlink:href="icons/bigquery.png" width="101px" height="101px" preserveAspectRatio="xMinYMin meet" x="832" y="-3062.5"/>
<text text-anchor="middle" x="882.5" y="-2947.1" font-family="Sans-Serif" font-size="13.00" fill="#2d3436">ga.t_ga_recurrence2_groupe_nb_session_ec_bp_support_mois</text>
</g>
<!-- ec5ac5eeef454e23ad209e391e0fcba5&#45;&gt;fa200d9dd6e44d01b7c40b0be595f477 -->
<g id="edge25" class="edge">
<title>ec5ac5eeef454e23ad209e391e0fcba5&#45;&gt;fa200d9dd6e44d01b7c40b0be595f477</title>
<path fill="none" stroke="#7b8894" d="M358,-3392.32C358,-3266.54 358,-3012 358,-3012 358,-3012 821.73,-3012 821.73,-3012"/>
<polygon fill="#7b8894" stroke="#7b8894" points="821.73,-3015.5 831.73,-3012 821.73,-3008.5 821.73,-3015.5"/>
<text text-anchor="middle" x="595.5" y="-3278.6" font-family="Sans-Serif" font-size="13.00" fill="darkgrey">t_recurrence2_groupe_nb_session_ec_bp_support_mois</text>
</g>
<!-- 9c67e743d13a484f9e866842e571aa0e -->
<g id="node26" class="node">
<title>9c67e743d13a484f9e866842e571aa0e</title>
<image xlink:href="icons/bigquery.png" width="101px" height="101px" preserveAspectRatio="xMinYMin meet" x="832" y="-3242.5"/>
<text text-anchor="middle" x="882.5" y="-3127.1" font-family="Sans-Serif" font-size="13.00" fill="#2d3436">ga.t_ga_recurrence2_groupe_nb_session_ec_bp_profil_mois</text>
</g>
<!-- ec5ac5eeef454e23ad209e391e0fcba5&#45;&gt;9c67e743d13a484f9e866842e571aa0e -->
<g id="edge26" class="edge">
<title>ec5ac5eeef454e23ad209e391e0fcba5&#45;&gt;9c67e743d13a484f9e866842e571aa0e</title>
<path fill="none" stroke="#7b8894" d="M368,-3392.42C368,-3312.73 368,-3192 368,-3192 368,-3192 821.76,-3192 821.76,-3192"/>
<polygon fill="#7b8894" stroke="#7b8894" points="821.76,-3195.5 831.76,-3192 821.76,-3188.5 821.76,-3195.5"/>
<text text-anchor="middle" x="595.5" y="-3341.6" font-family="Sans-Serif" font-size="13.00" fill="darkgrey">t_recurrence2_groupe_nb_session_ec_bp_profil_mois</text>
</g>
<!-- 89fb653271794155b6a4b181528e7f18 -->
<g id="node27" class="node">
<title>89fb653271794155b6a4b181528e7f18</title>
<image xlink:href="icons/bigquery.png" width="101px" height="101px" preserveAspectRatio="xMinYMin meet" x="832" y="-3422.5"/>
<text text-anchor="middle" x="882.5" y="-3307.1" font-family="Sans-Serif" font-size="13.00" fill="#2d3436">ga.t_ga_recurrence3_usage_crossdevice_detail_ec_nb_idbp_mois</text>
</g>
<!-- ec5ac5eeef454e23ad209e391e0fcba5&#45;&gt;89fb653271794155b6a4b181528e7f18 -->
<g id="edge27" class="edge">
<title>ec5ac5eeef454e23ad209e391e0fcba5&#45;&gt;89fb653271794155b6a4b181528e7f18</title>
<path fill="none" stroke="#7b8894" d="M378.22,-3435.17C378.22,-3435.17 821.69,-3435.17 821.69,-3435.17"/>
<polygon fill="#7b8894" stroke="#7b8894" points="821.69,-3438.67 831.69,-3435.17 821.69,-3431.67 821.69,-3438.67"/>
<text text-anchor="middle" x="595.5" y="-3404.6" font-family="Sans-Serif" font-size="13.00" fill="darkgrey">t_recurrence3_usage_crossdevice_detail_ec_nb_idbp_mois</text>
</g>
<!-- 7d2f5fe1af0d42ecb70a30af46da91d2 -->
<g id="node28" class="node">
<title>7d2f5fe1af0d42ecb70a30af46da91d2</title>
<image xlink:href="icons/bigquery.png" width="101px" height="101px" preserveAspectRatio="xMinYMin meet" x="832" y="-3602.5"/>
<text text-anchor="middle" x="882.5" y="-3487.1" font-family="Sans-Serif" font-size="13.00" fill="#2d3436">ga.t_ga_recurrence3_usage_crossdevice_detail_ec_nb_idbp_year</text>
</g>
<!-- ec5ac5eeef454e23ad209e391e0fcba5&#45;&gt;7d2f5fe1af0d42ecb70a30af46da91d2 -->
<g id="edge28" class="edge">
<title>ec5ac5eeef454e23ad209e391e0fcba5&#45;&gt;7d2f5fe1af0d42ecb70a30af46da91d2</title>
<path fill="none" stroke="#7b8894" d="M378.22,-3506.5C378.22,-3506.5 821.69,-3506.5 821.69,-3506.5"/>
<polygon fill="#7b8894" stroke="#7b8894" points="821.69,-3510 831.69,-3506.5 821.69,-3503 821.69,-3510"/>
<text text-anchor="middle" x="595.5" y="-3525.6" font-family="Sans-Serif" font-size="13.00" fill="darkgrey">t_recurrence3_usage_crossdevice_detail_ec_nb_idbp_year</text>
</g>
<!-- e78e928498a74c4d8b0fabbadfab1ae9 -->
<g id="node29" class="node">
<title>e78e928498a74c4d8b0fabbadfab1ae9</title>
<image xlink:href="icons/bigquery.png" width="101px" height="101px" preserveAspectRatio="xMinYMin meet" x="832" y="-3782.5"/>
<text text-anchor="middle" x="882.5" y="-3667.1" font-family="Sans-Serif" font-size="13.00" fill="#2d3436">ga.t_ga_prog_eng_consultation_et_usage</text>
</g>
<!-- ec5ac5eeef454e23ad209e391e0fcba5&#45;&gt;e78e928498a74c4d8b0fabbadfab1ae9 -->
<g id="edge29" class="edge">
<title>ec5ac5eeef454e23ad209e391e0fcba5&#45;&gt;e78e928498a74c4d8b0fabbadfab1ae9</title>
<path fill="none" stroke="#7b8894" d="M373,-3529.74C373,-3610.02 373,-3732 373,-3732 373,-3732 821.78,-3732 821.78,-3732"/>
<polygon fill="#7b8894" stroke="#7b8894" points="821.78,-3735.5 831.78,-3732 821.78,-3728.5 821.78,-3735.5"/>
<text text-anchor="middle" x="595.5" y="-3675.6" font-family="Sans-Serif" font-size="13.00" fill="darkgrey">t_ga_prog_eng_consultation_et_usage</text>
</g>
<!-- 4d18bd0803d14c37b104fdc12e5bcf04 -->
<g id="node30" class="node">
<title>4d18bd0803d14c37b104fdc12e5bcf04</title>
<image xlink:href="icons/bigquery.png" width="101px" height="101px" preserveAspectRatio="xMinYMin meet" x="832" y="-3962.5"/>
<text text-anchor="middle" x="882.5" y="-3847.1" font-family="Sans-Serif" font-size="13.00" fill="#2d3436">comite_drc.e_ds_comite_drc_infosmensuelles</text>
</g>
<!-- ec5ac5eeef454e23ad209e391e0fcba5&#45;&gt;4d18bd0803d14c37b104fdc12e5bcf04 -->
<g id="edge30" class="edge">
<title>ec5ac5eeef454e23ad209e391e0fcba5&#45;&gt;4d18bd0803d14c37b104fdc12e5bcf04</title>
<path fill="none" stroke="#7b8894" d="M368,-3529.99C368,-3656.33 368,-3912 368,-3912 368,-3912 821.76,-3912 821.76,-3912"/>
<polygon fill="#7b8894" stroke="#7b8894" points="821.76,-3915.5 831.76,-3912 821.76,-3908.5 821.76,-3915.5"/>
<text text-anchor="middle" x="595.5" y="-3840.6" font-family="Sans-Serif" font-size="13.00" fill="darkgrey">e_ds_comite_drc_infosmensuelles</text>
</g>
<!-- e72c8723e38647dba763d6aa90b93d42 -->
<g id="node31" class="node">
<title>e72c8723e38647dba763d6aa90b93d42</title>
<image xlink:href="icons/bigquery.png" width="101px" height="101px" preserveAspectRatio="xMinYMin meet" x="832" y="-4142.5"/>
<text text-anchor="middle" x="882.5" y="-4027.1" font-family="Sans-Serif" font-size="13.00" fill="#2d3436">ds_engagement.l_ga_to_ds_engagement_services</text>
</g>
<!-- ec5ac5eeef454e23ad209e391e0fcba5&#45;&gt;e72c8723e38647dba763d6aa90b93d42 -->
<g id="edge31" class="edge">
<title>ec5ac5eeef454e23ad209e391e0fcba5&#45;&gt;e72c8723e38647dba763d6aa90b93d42</title>
<path fill="none" stroke="#7b8894" d="M363,-3529.73C363,-3693.27 363,-4092 363,-4092 363,-4092 821.74,-4092 821.74,-4092"/>
<polygon fill="#7b8894" stroke="#7b8894" points="821.74,-4095.5 831.74,-4092 821.74,-4088.5 821.74,-4095.5"/>
<text text-anchor="middle" x="595.5" y="-4013.6" font-family="Sans-Serif" font-size="13.00" fill="darkgrey">l_ga_to_ds_engagement_services</text>
</g>
<!-- 069ace42f7db400083abc01a7114a6c6 -->
<g id="node32" class="node">
<title>069ace42f7db400083abc01a7114a6c6</title>
<image xlink:href="icons/bigquery.png" width="101px" height="101px" preserveAspectRatio="xMinYMin meet" x="832" y="-4322.5"/>
<text text-anchor="middle" x="882.5" y="-4207.1" font-family="Sans-Serif" font-size="13.00" fill="#2d3436">ds_engagement.l_ga_to_ds_engagement_consolidation</text>
</g>
<!-- ec5ac5eeef454e23ad209e391e0fcba5&#45;&gt;069ace42f7db400083abc01a7114a6c6 -->
<g id="edge32" class="edge">
<title>ec5ac5eeef454e23ad209e391e0fcba5&#45;&gt;069ace42f7db400083abc01a7114a6c6</title>
<path fill="none" stroke="#7b8894" d="M357,-3529.8C357,-3725.62 357,-4272 357,-4272 357,-4272 821.64,-4272 821.64,-4272"/>
<polygon fill="#7b8894" stroke="#7b8894" points="821.64,-4275.5 831.64,-4272 821.64,-4268.5 821.64,-4275.5"/>
<text text-anchor="middle" x="595.5" y="-4189.6" font-family="Sans-Serif" font-size="13.00" fill="darkgrey">l_ga_to_ds_engagement_consolidation</text>
</g>
<!-- a3ecb521da4c4bd287d7e1c2be4822a4 -->
<g id="node33" class="node">
<title>a3ecb521da4c4bd287d7e1c2be4822a4</title>
<image xlink:href="icons/bigquery.png" width="101px" height="101px" preserveAspectRatio="xMinYMin meet" x="832" y="-4502.5"/>
<text text-anchor="middle" x="882.5" y="-4387.1" font-family="Sans-Serif" font-size="13.00" fill="#2d3436">ds_engagement.l_to_ds_engagement_nb_idbp_et_premiere_visites</text>
</g>
<!-- ec5ac5eeef454e23ad209e391e0fcba5&#45;&gt;a3ecb521da4c4bd287d7e1c2be4822a4 -->
<g id="edge33" class="edge">
<title>ec5ac5eeef454e23ad209e391e0fcba5&#45;&gt;a3ecb521da4c4bd287d7e1c2be4822a4</title>
<path fill="none" stroke="#7b8894" d="M352,-3529.51C352,-3753.82 352,-4452 352,-4452 352,-4452 821.63,-4452 821.63,-4452"/>
<polygon fill="#7b8894" stroke="#7b8894" points="821.63,-4455.5 831.63,-4452 821.63,-4448.5 821.63,-4455.5"/>
<text text-anchor="middle" x="595.5" y="-4367.6" font-family="Sans-Serif" font-size="13.00" fill="darkgrey">l_to_ds_engagement_nb_idbp_et_premiere_visites</text>
</g>
<!-- 8dc81961738b419387369511ca7c4cfb -->
<g id="node34" class="node">
<title>8dc81961738b419387369511ca7c4cfb</title>
<image xlink:href="icons/bigquery.png" width="101px" height="101px" preserveAspectRatio="xMinYMin meet" x="832" y="-4682.5"/>
<text text-anchor="middle" x="882.5" y="-4567.1" font-family="Sans-Serif" font-size="13.00" fill="#2d3436">ds_engagement.l_to_ds_engagement_avg_sessions_per_client_last3month</text>
</g>
<!-- ec5ac5eeef454e23ad209e391e0fcba5&#45;&gt;8dc81961738b419387369511ca7c4cfb -->
<g id="edge34" class="edge">
<title>ec5ac5eeef454e23ad209e391e0fcba5&#45;&gt;8dc81961738b419387369511ca7c4cfb</title>
<path fill="none" stroke="#7b8894" d="M347,-3529.88C347,-3780.89 347,-4632 347,-4632 347,-4632 821.64,-4632 821.64,-4632"/>
<polygon fill="#7b8894" stroke="#7b8894" points="821.64,-4635.5 831.64,-4632 821.64,-4628.5 821.64,-4635.5"/>
<text text-anchor="middle" x="595.5" y="-4546.6" font-family="Sans-Serif" font-size="13.00" fill="darkgrey">l_to_ds_engagement_avg_sessions_per_client_last3month</text>
</g>
<!-- 80a4316288e1499abf9d7324f4ed50a9 -->
<g id="node35" class="node">
<title>80a4316288e1499abf9d7324f4ed50a9</title>
<image xlink:href="icons/bigquery.png" width="101px" height="101px" preserveAspectRatio="xMinYMin meet" x="832" y="-4862.5"/>
<text text-anchor="middle" x="882.5" y="-4747.1" font-family="Sans-Serif" font-size="13.00" fill="#2d3436">ds_engagement.l_to_ds_engagement_recurrence_repartition_last3month</text>
</g>
<!-- ec5ac5eeef454e23ad209e391e0fcba5&#45;&gt;80a4316288e1499abf9d7324f4ed50a9 -->
<g id="edge35" class="edge">
<title>ec5ac5eeef454e23ad209e391e0fcba5&#45;&gt;80a4316288e1499abf9d7324f4ed50a9</title>
<path fill="none" stroke="#7b8894" d="M341,-3529.85C341,-3805.16 341,-4812 341,-4812 341,-4812 821.56,-4812 821.56,-4812"/>
<polygon fill="#7b8894" stroke="#7b8894" points="821.56,-4815.5 831.56,-4812 821.56,-4808.5 821.56,-4815.5"/>
<text text-anchor="middle" x="595.5" y="-4726.6" font-family="Sans-Serif" font-size="13.00" fill="darkgrey">l_to_ds_engagement_recurrence_repartition_last3month</text>
</g>
<!-- 95a5519df4834b64b15df5b435a75a5f -->
<g id="node36" class="node">
<title>95a5519df4834b64b15df5b435a75a5f</title>
<image xlink:href="icons/bigquery.png" width="101px" height="101px" preserveAspectRatio="xMinYMin meet" x="832" y="-5042.5"/>
<text text-anchor="middle" x="882.5" y="-4927.1" font-family="Sans-Serif" font-size="13.00" fill="#2d3436">ga.t_ga_prog_eng_consultation_et_usage_count</text>
</g>
<!-- ec5ac5eeef454e23ad209e391e0fcba5&#45;&gt;95a5519df4834b64b15df5b435a75a5f -->
<g id="edge36" class="edge">
<title>ec5ac5eeef454e23ad209e391e0fcba5&#45;&gt;95a5519df4834b64b15df5b435a75a5f</title>
<path fill="none" stroke="#7b8894" d="M336,-3529.76C336,-3827.66 336,-4992 336,-4992 336,-4992 821.58,-4992 821.58,-4992"/>
<polygon fill="#7b8894" stroke="#7b8894" points="821.58,-4995.5 831.58,-4992 821.58,-4988.5 821.58,-4995.5"/>
<text text-anchor="middle" x="595.5" y="-4906.6" font-family="Sans-Serif" font-size="13.00" fill="darkgrey">t_ga_prog_eng_consultation_et_usage_count</text>
</g>
<!-- 2863645a7c8d4c7abc4548895a551487 -->
<g id="node37" class="node">
<title>2863645a7c8d4c7abc4548895a551487</title>
<image xlink:href="icons/bigquery.png" width="101px" height="101px" preserveAspectRatio="xMinYMin meet" x="832" y="-5222.5"/>
<text text-anchor="middle" x="882.5" y="-5107.1" font-family="Sans-Serif" font-size="13.00" fill="#2d3436">ga.t_ga_prog_eng_projet_ka_group_by</text>
</g>
<!-- ec5ac5eeef454e23ad209e391e0fcba5&#45;&gt;2863645a7c8d4c7abc4548895a551487 -->
<g id="edge37" class="edge">
<title>ec5ac5eeef454e23ad209e391e0fcba5&#45;&gt;2863645a7c8d4c7abc4548895a551487</title>
<path fill="none" stroke="#7b8894" d="M331,-3529.66C331,-3848.82 331,-5172 331,-5172 331,-5172 821.6,-5172 821.6,-5172"/>
<polygon fill="#7b8894" stroke="#7b8894" points="821.6,-5175.5 831.6,-5172 821.6,-5168.5 821.6,-5175.5"/>
<text text-anchor="middle" x="595.5" y="-5086.6" font-family="Sans-Serif" font-size="13.00" fill="darkgrey">t_ga_prog_eng_projet_ka_group_by</text>
</g>
<!-- 90c6b977bdb64829bcb806fcf36310e7 -->
<g id="node38" class="node">
<title>90c6b977bdb64829bcb806fcf36310e7</title>
<image xlink:href="icons/bigquery.png" width="101px" height="101px" preserveAspectRatio="xMinYMin meet" x="832" y="-5402.5"/>
<text text-anchor="middle" x="882.5" y="-5287.1" font-family="Sans-Serif" font-size="13.00" fill="#2d3436">ga.t_ga_prog_eng_projet_monthly</text>
</g>
<!-- ec5ac5eeef454e23ad209e391e0fcba5&#45;&gt;90c6b977bdb64829bcb806fcf36310e7 -->
<g id="edge38" class="edge">
<title>ec5ac5eeef454e23ad209e391e0fcba5&#45;&gt;90c6b977bdb64829bcb806fcf36310e7</title>
<path fill="none" stroke="#7b8894" d="M325,-3529.7C325,-3869.25 325,-5352 325,-5352 325,-5352 821.55,-5352 821.55,-5352"/>
<polygon fill="#7b8894" stroke="#7b8894" points="821.55,-5355.5 831.55,-5352 821.55,-5348.5 821.55,-5355.5"/>
<text text-anchor="middle" x="595.5" y="-5266.6" font-family="Sans-Serif" font-size="13.00" fill="darkgrey">t_ga_prog_eng_projet_monthly</text>
</g>
<!-- c0c9a2e4b184405aac0fc07652532878 -->
<g id="node39" class="node">
<title>c0c9a2e4b184405aac0fc07652532878</title>
<image xlink:href="icons/bigquery.png" width="101px" height="101px" preserveAspectRatio="xMinYMin meet" x="832" y="-5582.5"/>
<text text-anchor="middle" x="882.5" y="-5467.1" font-family="Sans-Serif" font-size="13.00" fill="#2d3436">ga.t_ga_bots_selfcare</text>
</g>
<!-- ec5ac5eeef454e23ad209e391e0fcba5&#45;&gt;c0c9a2e4b184405aac0fc07652532878 -->
<g id="edge39" class="edge">
<title>ec5ac5eeef454e23ad209e391e0fcba5&#45;&gt;c0c9a2e4b184405aac0fc07652532878</title>
<path fill="none" stroke="#7b8894" d="M320,-3529.61C320,-3888.36 320,-5532 320,-5532 320,-5532 821.59,-5532 821.59,-5532"/>
<polygon fill="#7b8894" stroke="#7b8894" points="821.59,-5535.5 831.59,-5532 821.59,-5528.5 821.59,-5535.5"/>
<text text-anchor="middle" x="595.5" y="-5446.6" font-family="Sans-Serif" font-size="13.00" fill="darkgrey">t_bots_selfcare</text>
</g>
<!-- 8a78b18fbd39408ea2011db9a34db5b6 -->
<g id="node40" class="node">
<title>8a78b18fbd39408ea2011db9a34db5b6</title>
<image xlink:href="icons/bigquery.png" width="101px" height="101px" preserveAspectRatio="xMinYMin meet" x="832" y="-5762.5"/>
<text text-anchor="middle" x="882.5" y="-5647.1" font-family="Sans-Serif" font-size="13.00" fill="#2d3436">datastudio_canaux.l_to_ds_canaux_tchat</text>
</g>
<!-- ec5ac5eeef454e23ad209e391e0fcba5&#45;&gt;8a78b18fbd39408ea2011db9a34db5b6 -->
<g id="edge40" class="edge">
<title>ec5ac5eeef454e23ad209e391e0fcba5&#45;&gt;8a78b18fbd39408ea2011db9a34db5b6</title>
<path fill="none" stroke="#7b8894" d="M315,-3529.6C315,-3906.85 315,-5712 315,-5712 315,-5712 821.89,-5712 821.89,-5712"/>
<polygon fill="#7b8894" stroke="#7b8894" points="821.89,-5715.5 831.89,-5712 821.89,-5708.5 821.89,-5715.5"/>
<text text-anchor="middle" x="595.5" y="-5626.6" font-family="Sans-Serif" font-size="13.00" fill="darkgrey">l_to_ds_canaux_tchat</text>
</g>
<!-- a683383facbc4c9db058a52aecc668f3 -->
<g id="node41" class="node">
<title>a683383facbc4c9db058a52aecc668f3</title>
<image xlink:href="icons/bigquery.png" width="101px" height="101px" preserveAspectRatio="xMinYMin meet" x="832" y="-5942.5"/>
<text text-anchor="middle" x="882.5" y="-5827.1" font-family="Sans-Serif" font-size="13.00" fill="#2d3436">datastudio_canaux.l_to_ds_canaux_consolidation_bulles</text>
</g>
<!-- ec5ac5eeef454e23ad209e391e0fcba5&#45;&gt;a683383facbc4c9db058a52aecc668f3 -->
<g id="edge41" class="edge">
<title>ec5ac5eeef454e23ad209e391e0fcba5&#45;&gt;a683383facbc4c9db058a52aecc668f3</title>
<path fill="none" stroke="#7b8894" d="M309,-3529.52C309,-3924.39 309,-5892 309,-5892 309,-5892 821.86,-5892 821.86,-5892"/>
<polygon fill="#7b8894" stroke="#7b8894" points="821.86,-5895.5 831.86,-5892 821.86,-5888.5 821.86,-5895.5"/>
<text text-anchor="middle" x="595.5" y="-5806.6" font-family="Sans-Serif" font-size="13.00" fill="darkgrey">l_to_ds_canaux_consolidation_bulles</text>
</g>
<!-- 1fae65c478504899824257eb068301c6 -->
<g id="node42" class="node">
<title>1fae65c478504899824257eb068301c6</title>
<image xlink:href="icons/bigquery.png" width="101px" height="101px" preserveAspectRatio="xMinYMin meet" x="832" y="-6122.5"/>
<text text-anchor="middle" x="882.5" y="-6007.1" font-family="Sans-Serif" font-size="13.00" fill="#2d3436">datastudio_canaux.l_to_ds_canaux_tchat_hourly</text>
</g>
<!-- ec5ac5eeef454e23ad209e391e0fcba5&#45;&gt;1fae65c478504899824257eb068301c6 -->
<g id="edge42" class="edge">
<title>ec5ac5eeef454e23ad209e391e0fcba5&#45;&gt;1fae65c478504899824257eb068301c6</title>
<path fill="none" stroke="#7b8894" d="M304,-3529.83C304,-3942.61 304,-6072 304,-6072 304,-6072 821.92,-6072 821.92,-6072"/>
<polygon fill="#7b8894" stroke="#7b8894" points="821.92,-6075.5 831.92,-6072 821.92,-6068.5 821.92,-6075.5"/>
<text text-anchor="middle" x="595.5" y="-5986.6" font-family="Sans-Serif" font-size="13.00" fill="darkgrey">l_to_ds_canaux_tchat_hourly</text>
</g>
<!-- 22206413fdfc4ad78850dcc8de2068a3 -->
<g id="node43" class="node">
<title>22206413fdfc4ad78850dcc8de2068a3</title>
<image xlink:href="icons/bigquery.png" width="101px" height="101px" preserveAspectRatio="xMinYMin meet" x="832" y="-6302.5"/>
<text text-anchor="middle" x="882.5" y="-6187.1" font-family="Sans-Serif" font-size="13.00" fill="#2d3436">datastudio_canaux.l_to_ds_canaux_tchat_eligible_hourly</text>
</g>
<!-- ec5ac5eeef454e23ad209e391e0fcba5&#45;&gt;22206413fdfc4ad78850dcc8de2068a3 -->
<g id="edge43" class="edge">
<title>ec5ac5eeef454e23ad209e391e0fcba5&#45;&gt;22206413fdfc4ad78850dcc8de2068a3</title>
<path fill="none" stroke="#7b8894" d="M299,-3529.64C299,-3958.55 299,-6252 299,-6252 299,-6252 821.99,-6252 821.99,-6252"/>
<polygon fill="#7b8894" stroke="#7b8894" points="821.99,-6255.5 831.99,-6252 821.99,-6248.5 821.99,-6255.5"/>
<text text-anchor="middle" x="595.5" y="-6166.6" font-family="Sans-Serif" font-size="13.00" fill="darkgrey">l_to_ds_canaux_tchat_eligible_hourly</text>
</g>
<!-- 449b547fb45844ef94a8feeaa129a5a8 -->
<g id="node44" class="node">
<title>449b547fb45844ef94a8feeaa129a5a8</title>
<image xlink:href="icons/bigquery.png" width="101px" height="101px" preserveAspectRatio="xMinYMin meet" x="832" y="-6482.5"/>
<text text-anchor="middle" x="882.5" y="-6367.1" font-family="Sans-Serif" font-size="13.00" fill="#2d3436">ds_maconso.l_to_ds_maconso_fonctionnalites_elec</text>
</g>
<!-- ec5ac5eeef454e23ad209e391e0fcba5&#45;&gt;449b547fb45844ef94a8feeaa129a5a8 -->
<g id="edge44" class="edge">
<title>ec5ac5eeef454e23ad209e391e0fcba5&#45;&gt;449b547fb45844ef94a8feeaa129a5a8</title>
<path fill="none" stroke="#7b8894" d="M293,-3529.71C293,-3974.83 293,-6432 293,-6432 293,-6432 821.98,-6432 821.98,-6432"/>
<polygon fill="#7b8894" stroke="#7b8894" points="821.98,-6435.5 831.98,-6432 821.98,-6428.5 821.98,-6435.5"/>
<text text-anchor="middle" x="595.5" y="-6346.6" font-family="Sans-Serif" font-size="13.00" fill="darkgrey">l_to_ds_maconso_fonctionnalites_elec</text>
</g>
<!-- 78a07576995c412ea7ee10f9dacf56d4 -->
<g id="node45" class="node">
<title>78a07576995c412ea7ee10f9dacf56d4</title>
<image xlink:href="icons/bigquery.png" width="101px" height="101px" preserveAspectRatio="xMinYMin meet" x="832" y="-6662.5"/>
<text text-anchor="middle" x="882.5" y="-6547.1" font-family="Sans-Serif" font-size="13.00" fill="#2d3436">comper.l_ga_to_ds_comper_sessions</text>
</g>
<!-- ec5ac5eeef454e23ad209e391e0fcba5&#45;&gt;78a07576995c412ea7ee10f9dacf56d4 -->
<g id="edge45" class="edge">
<title>ec5ac5eeef454e23ad209e391e0fcba5&#45;&gt;78a07576995c412ea7ee10f9dacf56d4</title>
<path fill="none" stroke="#7b8894" d="M288,-3529.74C288,-3990.55 288,-6612 288,-6612 288,-6612 821.81,-6612 821.81,-6612"/>
<polygon fill="#7b8894" stroke="#7b8894" points="821.81,-6615.5 831.81,-6612 821.81,-6608.5 821.81,-6615.5"/>
<text text-anchor="middle" x="595.5" y="-6526.6" font-family="Sans-Serif" font-size="13.00" fill="darkgrey">l_to_ds_comper_sessions</text>
</g>
<!-- 97068e3fbbc24f9ea13aa1fa3534b8a6 -->
<g id="node46" class="node">
<title>97068e3fbbc24f9ea13aa1fa3534b8a6</title>
<image xlink:href="icons/bigquery.png" width="101px" height="101px" preserveAspectRatio="xMinYMin meet" x="832" y="-6842.5"/>
<text text-anchor="middle" x="882.5" y="-6727.1" font-family="Sans-Serif" font-size="13.00" fill="#2d3436">ga.l_ga_to_ds_comper_parcours_service_equipement_ignition</text>
</g>
<!-- ec5ac5eeef454e23ad209e391e0fcba5&#45;&gt;97068e3fbbc24f9ea13aa1fa3534b8a6 -->
<g id="edge46" class="edge">
<title>ec5ac5eeef454e23ad209e391e0fcba5&#45;&gt;97068e3fbbc24f9ea13aa1fa3534b8a6</title>
<path fill="none" stroke="#7b8894" d="M283,-3529.81C283,-4005.94 283,-6792 283,-6792 283,-6792 821.9,-6792 821.9,-6792"/>
<polygon fill="#7b8894" stroke="#7b8894" points="821.9,-6795.5 831.9,-6792 821.9,-6788.5 821.9,-6795.5"/>
<text text-anchor="middle" x="595.5" y="-6706.6" font-family="Sans-Serif" font-size="13.00" fill="darkgrey">l_to_ds_comper_parcours_service_equipement_ignition</text>
</g>
<!-- 741d2e88e15a412b94ec623fed4265d6 -->
<g id="node3" class="node">
<title>741d2e88e15a412b94ec623fed4265d6</title>
<image xlink:href="icons/bigquery.png" width="101px" height="101px" preserveAspectRatio="xMinYMin meet" x="16" y="-1790.5"/>
<text text-anchor="middle" x="66.5" y="-1675.1" font-family="Sans-Serif" font-size="13.00" fill="#2d3436">160756520.ga_sessions_</text>
</g>
<!-- f4bf97db8a344d8ba4650b8dd59f515a -->
<g id="node4" class="node">
<title>f4bf97db8a344d8ba4650b8dd59f515a</title>
<image xlink:href="icons/bigquery.png" width="101px" height="101px" preserveAspectRatio="xMinYMin meet" x="277" y="-1790.5"/>
<text text-anchor="middle" x="327.5" y="-1675.1" font-family="Sans-Serif" font-size="13.00" fill="#2d3436">ga.t_ga_sessions_historic</text>
</g>
<!-- 741d2e88e15a412b94ec623fed4265d6&#45;&gt;f4bf97db8a344d8ba4650b8dd59f515a -->
<g id="edge2" class="edge">
<title>741d2e88e15a412b94ec623fed4265d6&#45;&gt;f4bf97db8a344d8ba4650b8dd59f515a</title>
<path fill="none" stroke="#7b8894" d="M117.13,-1740C117.13,-1740 266.56,-1740 266.56,-1740"/>
<polygon fill="#7b8894" stroke="#7b8894" points="266.56,-1743.5 276.56,-1740 266.56,-1736.5 266.56,-1743.5"/>
<text text-anchor="middle" x="197" y="-1743.6" font-family="Sans-Serif" font-size="13.00" fill="darkgrey">t_sessions_historic</text>
</g>
<!-- 37886c8e76b4410385ecc1eb887e34a2 -->
<g id="node9" class="node">
<title>37886c8e76b4410385ecc1eb887e34a2</title>
<image xlink:href="icons/bigquery.png" width="101px" height="101px" preserveAspectRatio="xMinYMin meet" x="1156" y="-160.5"/>
<text text-anchor="middle" x="1206.5" y="-45.1" font-family="Sans-Serif" font-size="13.00" fill="#2d3436">ga.t_ga_optimizely_sessions</text>
</g>
<!-- d2850346b95c455788b05fa88963acd6&#45;&gt;37886c8e76b4410385ecc1eb887e34a2 -->
<g id="edge7" class="edge">
<title>d2850346b95c455788b05fa88963acd6&#45;&gt;37886c8e76b4410385ecc1eb887e34a2</title>
<path fill="none" stroke="#7b8894" d="M933.13,-110C933.13,-110 1145.96,-110 1145.96,-110"/>
<polygon fill="#7b8894" stroke="#7b8894" points="1145.96,-113.5 1155.96,-110 1145.96,-106.5 1145.96,-113.5"/>
<text text-anchor="middle" x="1054" y="-113.6" font-family="Sans-Serif" font-size="13.00" fill="darkgrey">t_optimizely_sessions</text>
</g>
<!-- 1e99e97a6b3042f785d41703e64d7155 -->
<g id="node10" class="node">
<title>1e99e97a6b3042f785d41703e64d7155</title>
<image xlink:href="icons/bigquery.png" width="101px" height="101px" preserveAspectRatio="xMinYMin meet" x="1156" y="-737.5"/>
<text text-anchor="middle" x="1206.5" y="-622.1" font-family="Sans-Serif" font-size="13.00" fill="#2d3436">ga.t_ga_optimizely_vs_objectives</text>
</g>
<!-- d2850346b95c455788b05fa88963acd6&#45;&gt;1e99e97a6b3042f785d41703e64d7155 -->
<g id="edge8" class="edge">
<title>d2850346b95c455788b05fa88963acd6&#45;&gt;1e99e97a6b3042f785d41703e64d7155</title>
<path fill="none" stroke="#7b8894" d="M883,-178.67C883,-190.99 883,-200 883,-200 883,-200 1207,-200 1207,-200 1207,-200 1207,-608.26 1207,-608.26"/>
<polygon fill="#7b8894" stroke="#7b8894" points="1203.5,-608.26 1207,-618.26 1210.5,-608.26 1203.5,-608.26"/>
<text text-anchor="middle" x="1054" y="-414.6" font-family="Sans-Serif" font-size="13.00" fill="darkgrey">t_optimizely_vs_objectives</text>
</g>
<!-- 0e6612f85f404db58b0721d6592c7b0e -->
<g id="node11" class="node">
<title>0e6612f85f404db58b0721d6592c7b0e</title>
<image xlink:href="icons/bigquery.png" width="101px" height="101px" preserveAspectRatio="xMinYMin meet" x="832" y="-880.5"/>
<text text-anchor="middle" x="882.5" y="-765.1" font-family="Sans-Serif" font-size="13.00" fill="#2d3436">[?config?].t_ga_objectives_events</text>
</g>
<!-- 0e6612f85f404db58b0721d6592c7b0e&#45;&gt;1e99e97a6b3042f785d41703e64d7155 -->
<g id="edge9" class="edge">
<title>0e6612f85f404db58b0721d6592c7b0e&#45;&gt;1e99e97a6b3042f785d41703e64d7155</title>
<path fill="none" stroke="#7b8894" d="M883,-761.43C883,-747.5 883,-737 883,-737 883,-737 1145.95,-737 1145.95,-737"/>
<polygon fill="#7b8894" stroke="#7b8894" points="1145.95,-740.5 1155.95,-737 1145.95,-733.5 1145.95,-740.5"/>
<text text-anchor="middle" x="1054" y="-761.6" font-family="Sans-Serif" font-size="13.00" fill="darkgrey">t_optimizely_vs_objectives</text>
</g>
<!-- af3cc47129c74271a3c966f5cb23baf0&#45;&gt;ddfaa0dd67684cf9bd5a293f0c8278a6 -->
<g id="edge10" class="edge">
<title>af3cc47129c74271a3c966f5cb23baf0&#45;&gt;ddfaa0dd67684cf9bd5a293f0c8278a6</title>
<path fill="none" stroke="#7b8894" d="M933.13,-1054.5C933.13,-1054.5 1145.96,-1054.5 1145.96,-1054.5"/>
<polygon fill="#7b8894" stroke="#7b8894" points="1145.96,-1058 1155.96,-1054.5 1145.96,-1051 1145.96,-1058"/>
<text text-anchor="middle" x="1054" y="-1079.6" font-family="Sans-Serif" font-size="13.00" fill="darkgrey">t_fait_parcours</text>
</g>
<!-- af3cc47129c74271a3c966f5cb23baf0&#45;&gt;6ad195f9031f40fd8ba09cca5e54fd62 -->
<g id="edge13" class="edge">
<title>af3cc47129c74271a3c966f5cb23baf0&#45;&gt;6ad195f9031f40fd8ba09cca5e54fd62</title>
<path fill="none" stroke="#7b8894" d="M933.13,-1175.5C933.13,-1175.5 1145.96,-1175.5 1145.96,-1175.5"/>
<polygon fill="#7b8894" stroke="#7b8894" points="1145.96,-1179 1155.96,-1175.5 1145.96,-1172 1145.96,-1179"/>
<text text-anchor="middle" x="1054" y="-1148.6" font-family="Sans-Serif" font-size="13.00" fill="darkgrey">t_parcours_checkpoint_1</text>
</g>
<!-- 357a5a864ade48f7811caaff3724b11d -->
<g id="node15" class="node">
<title>357a5a864ade48f7811caaff3724b11d</title>
<image xlink:href="icons/bigquery.png" width="101px" height="101px" preserveAspectRatio="xMinYMin meet" x="1464" y="-1290.5"/>
<text text-anchor="middle" x="1514.5" y="-1175.1" font-family="Sans-Serif" font-size="13.00" fill="#2d3436">ga.t_ga_parcours_checkpoint_1_2</text>
</g>
<!-- 6ad195f9031f40fd8ba09cca5e54fd62&#45;&gt;357a5a864ade48f7811caaff3724b11d -->
<g id="edge15" class="edge">
<title>6ad195f9031f40fd8ba09cca5e54fd62&#45;&gt;357a5a864ade48f7811caaff3724b11d</title>
<path fill="none" stroke="#7b8894" d="M1257.02,-1240C1257.02,-1240 1453.96,-1240 1453.96,-1240"/>
<polygon fill="#7b8894" stroke="#7b8894" points="1453.96,-1243.5 1463.96,-1240 1453.96,-1236.5 1453.96,-1243.5"/>
<text text-anchor="middle" x="1360.5" y="-1243.6" font-family="Sans-Serif" font-size="13.00" fill="darkgrey">t_parcours_checkpoint_1_2</text>
</g>
</g>
</svg>
