<?xml version="1.0" encoding="UTF-8" standalone="no"?>
<!DOCTYPE svg PUBLIC "-//W3C//DTD SVG 1.1//EN"
 "http://www.w3.org/Graphics/SVG/1.1/DTD/svg11.dtd">
<!-- Generated by graphviz version 2.47.1 (20210417.1919)
 -->
<!-- Title: hit_measurement_protocol Pages: 1 -->
<svg width="1139pt" height="1883pt"
 viewBox="0.00 0.00 1139.00 1883.00" xmlns="http://www.w3.org/2000/svg" xmlns:xlink="http://www.w3.org/1999/xlink">
<g id="graph0" class="graph" transform="scale(1 1) rotate(0) translate(144 1739)">
<title>hit_measurement_protocol</title>
<text text-anchor="middle" x="425.5" y="-9" font-family="Sans-Serif" font-size="15.00" fill="#2d3436">hit_measurement_protocol</text>
<g id="clust1" class="cluster">
<title>cluster_hit_measurement_protocol</title>
<path fill="#e5f5fd" stroke="#aeb6be" d="M20,-33C20,-33 831,-33 831,-33 837,-33 843,-39 843,-45 843,-45 843,-1575 843,-1575 843,-1581 837,-1587 831,-1587 831,-1587 20,-1587 20,-1587 14,-1587 8,-1581 8,-1575 8,-1575 8,-45 8,-45 8,-39 14,-33 20,-33"/>
<text text-anchor="middle" x="87.5" y="-1573.4" font-family="Sans-Serif" font-size="12.00" fill="#2d3436">hit_measurement_protocol</text>
</g>
<!-- 595d060fd26242dc897d05f9eb26b1f3 -->
<g id="node1" class="node">
<title>595d060fd26242dc897d05f9eb26b1f3</title>
<image xlink:href="icons/bigquery.png" width="101px" height="101px" preserveAspectRatio="xMinYMin meet" x="16" y="-1469.5"/>
<text text-anchor="middle" x="66.5" y="-1354.1" font-family="Sans-Serif" font-size="13.00" fill="#2d3436">ga.l_ga_to_ama_ga_formulaires_stor_2021*</text>
</g>
<!-- 8733aae4c89f4871b66804ac25c55c99 -->
<g id="node2" class="node">
<title>8733aae4c89f4871b66804ac25c55c99</title>
<image xlink:href="icons/bigquery.png" width="101px" height="101px" preserveAspectRatio="xMinYMin meet" x="374" y="-1218.5"/>
<text text-anchor="middle" x="424.5" y="-1103.1" font-family="Sans-Serif" font-size="13.00" fill="#2d3436">ga.t_ga_contrats_form_valeurs</text>
</g>
<!-- 595d060fd26242dc897d05f9eb26b1f3&#45;&gt;8733aae4c89f4871b66804ac25c55c99 -->
<g id="edge1" class="edge">
<title>595d060fd26242dc897d05f9eb26b1f3&#45;&gt;8733aae4c89f4871b66804ac25c55c99</title>
<path fill="none" stroke="#7b8894" d="M117.26,-1371.25C212.39,-1371.25 408,-1371.25 408,-1371.25 408,-1371.25 408,-1246.53 408,-1246.53"/>
<polygon fill="#7b8894" stroke="#7b8894" points="411.5,-1246.53 408,-1236.53 404.5,-1246.53 411.5,-1246.53"/>
<text text-anchor="middle" x="245.5" y="-1362.6" font-family="Sans-Serif" font-size="13.00" fill="darkgrey">t_contrats_form_valeurs</text>
</g>
<!-- c5ea95950cc445c5ad3e8fae59be1f53 -->
<g id="node6" class="node">
<title>c5ea95950cc445c5ad3e8fae59be1f53</title>
<image xlink:href="icons/bigquery.png" width="101px" height="101px" preserveAspectRatio="xMinYMin meet" x="734" y="-940.5"/>
<text text-anchor="middle" x="784.5" y="-825.1" font-family="Sans-Serif" font-size="13.00" fill="#2d3436">ga.t_ga_contrats_form_valeurs_envoyes</text>
</g>
<!-- 8733aae4c89f4871b66804ac25c55c99&#45;&gt;c5ea95950cc445c5ad3e8fae59be1f53 -->
<g id="edge5" class="edge">
<title>8733aae4c89f4871b66804ac25c55c99&#45;&gt;c5ea95950cc445c5ad3e8fae59be1f53</title>
<path fill="none" stroke="#7b8894" d="M425,-1099.38C425,-1036.46 425,-953 425,-953 425,-953 723.75,-953 723.75,-953"/>
<polygon fill="#7b8894" stroke="#7b8894" points="723.75,-956.5 733.75,-953 723.75,-949.5 723.75,-956.5"/>
<text text-anchor="middle" x="604.5" y="-972.6" font-family="Sans-Serif" font-size="13.00" fill="darkgrey">l_to_ga_contrats_form_valeurs</text>
</g>
<!-- 563e7ba3dd4644f382585e059408969b -->
<g id="node7" class="node">
<title>563e7ba3dd4644f382585e059408969b</title>
<image xlink:href="icons/google_analytics.png" width="101px" height="101px" preserveAspectRatio="xMinYMin meet" x="734" y="-1135.5"/>
<text text-anchor="middle" x="784.5" y="-1019.6" font-family="Sans-Serif" font-size="13.00" fill="#2d3436">UA&#45;55400352&#45;1</text>
<text text-anchor="middle" x="784.5" y="-1005.6" font-family="Sans-Serif" font-size="13.00" fill="#2d3436">ga.t_ga_contrats_form_valeurs</text>
</g>
<!-- 8733aae4c89f4871b66804ac25c55c99&#45;&gt;563e7ba3dd4644f382585e059408969b -->
<g id="edge6" class="edge">
<title>8733aae4c89f4871b66804ac25c55c99&#45;&gt;563e7ba3dd4644f382585e059408969b</title>
<path fill="none" stroke="#7b8894" d="M475.32,-1133.75C475.32,-1133.75 723.94,-1133.75 723.94,-1133.75"/>
<polygon fill="#7b8894" stroke="#7b8894" points="723.94,-1137.25 733.94,-1133.75 723.94,-1130.25 723.94,-1137.25"/>
<text text-anchor="middle" x="604.5" y="-1114.6" font-family="Sans-Serif" font-size="13.00" fill="darkgrey">l_to_ga_contrats_form_valeurs</text>
</g>
<!-- d7dfbd8d46ef4347a18c34a757b91a92 -->
<g id="node8" class="node">
<title>d7dfbd8d46ef4347a18c34a757b91a92</title>
<image xlink:href="icons/bigquery.png" width="101px" height="101px" preserveAspectRatio="xMinYMin meet" x="734" y="-1330.5"/>
<text text-anchor="middle" x="784.5" y="-1215.1" font-family="Sans-Serif" font-size="13.00" fill="#2d3436">ga.t_ga_contrats_form_valeurs_envoyes_test</text>
</g>
<!-- 8733aae4c89f4871b66804ac25c55c99&#45;&gt;d7dfbd8d46ef4347a18c34a757b91a92 -->
<g id="edge7" class="edge">
<title>8733aae4c89f4871b66804ac25c55c99&#45;&gt;d7dfbd8d46ef4347a18c34a757b91a92</title>
<path fill="none" stroke="#7b8894" d="M475.32,-1224C475.32,-1224 723.94,-1224 723.94,-1224"/>
<polygon fill="#7b8894" stroke="#7b8894" points="723.94,-1227.5 733.94,-1224 723.94,-1220.5 723.94,-1227.5"/>
<text text-anchor="middle" x="604.5" y="-1227.6" font-family="Sans-Serif" font-size="13.00" fill="darkgrey">l_to_ga_contrats_form_valeurs_gclid</text>
</g>
<!-- c8960e8776fe44ebb3c587441f675815 -->
<g id="node9" class="node">
<title>c8960e8776fe44ebb3c587441f675815</title>
<image xlink:href="icons/google_analytics.png" width="101px" height="101px" preserveAspectRatio="xMinYMin meet" x="734" y="-1525.5"/>
<text text-anchor="middle" x="784.5" y="-1409.6" font-family="Sans-Serif" font-size="13.00" fill="#2d3436">UA&#45;55400352&#45;2</text>
<text text-anchor="middle" x="784.5" y="-1395.6" font-family="Sans-Serif" font-size="13.00" fill="#2d3436">ga.t_ga_contrats_form_valeurs</text>
</g>
<!-- 8733aae4c89f4871b66804ac25c55c99&#45;&gt;c8960e8776fe44ebb3c587441f675815 -->
<g id="edge8" class="edge">
<title>8733aae4c89f4871b66804ac25c55c99&#45;&gt;c8960e8776fe44ebb3c587441f675815</title>
<path fill="none" stroke="#7b8894" d="M442,-1236.57C442,-1317.08 442,-1439.75 442,-1439.75 442,-1439.75 723.96,-1439.75 723.96,-1439.75"/>
<polygon fill="#7b8894" stroke="#7b8894" points="723.96,-1443.25 733.96,-1439.75 723.96,-1436.25 723.96,-1443.25"/>
<text text-anchor="middle" x="604.5" y="-1396.6" font-family="Sans-Serif" font-size="13.00" fill="darkgrey">l_to_ga_contrats_form_valeurs_gclid</text>
</g>
<!-- db2aa01b453d4549a09b59b08ed5b2d7 -->
<g id="node3" class="node">
<title>db2aa01b453d4549a09b59b08ed5b2d7</title>
<image xlink:href="icons/bigquery.png" width="101px" height="101px" preserveAspectRatio="xMinYMin meet" x="16" y="-1289.5"/>
<text text-anchor="middle" x="66.5" y="-1174.1" font-family="Sans-Serif" font-size="13.00" fill="#2d3436">amadeus.e_ama_formulaires_stor</text>
</g>
<!-- db2aa01b453d4549a09b59b08ed5b2d7&#45;&gt;8733aae4c89f4871b66804ac25c55c99 -->
<g id="edge2" class="edge">
<title>db2aa01b453d4549a09b59b08ed5b2d7&#45;&gt;8733aae4c89f4871b66804ac25c55c99</title>
<path fill="none" stroke="#7b8894" d="M117.03,-1203.5C117.03,-1203.5 363.93,-1203.5 363.93,-1203.5"/>
<polygon fill="#7b8894" stroke="#7b8894" points="363.93,-1207 373.93,-1203.5 363.93,-1200 363.93,-1207"/>
<text text-anchor="middle" x="245.5" y="-1212.6" font-family="Sans-Serif" font-size="13.00" fill="darkgrey">t_contrats_form_valeurs</text>
</g>
<!-- 25b48fbe910a4f188c4346057503c32d -->
<g id="node4" class="node">
<title>25b48fbe910a4f188c4346057503c32d</title>
<image xlink:href="icons/bigquery.png" width="101px" height="101px" preserveAspectRatio="xMinYMin meet" x="16" y="-1109.5"/>
<text text-anchor="middle" x="66.5" y="-994.1" font-family="Sans-Serif" font-size="13.00" fill="#2d3436">hit_measurement_protocol.t_ga_sessions</text>
</g>
<!-- 25b48fbe910a4f188c4346057503c32d&#45;&gt;8733aae4c89f4871b66804ac25c55c99 -->
<g id="edge3" class="edge">
<title>25b48fbe910a4f188c4346057503c32d&#45;&gt;8733aae4c89f4871b66804ac25c55c99</title>
<path fill="none" stroke="#7b8894" d="M117.03,-1113.5C117.03,-1113.5 363.93,-1113.5 363.93,-1113.5"/>
<polygon fill="#7b8894" stroke="#7b8894" points="363.93,-1117 373.93,-1113.5 363.93,-1110 363.93,-1117"/>
<text text-anchor="middle" x="245.5" y="-1091.6" font-family="Sans-Serif" font-size="13.00" fill="darkgrey">t_contrats_form_valeurs</text>
</g>
<!-- 7cfd3af8920147e5989034d490dd4b92 -->
<g id="node5" class="node">
<title>7cfd3af8920147e5989034d490dd4b92</title>
<image xlink:href="icons/bigquery.png" width="101px" height="101px" preserveAspectRatio="xMinYMin meet" x="16" y="-929.5"/>
<text text-anchor="middle" x="66.5" y="-814.1" font-family="Sans-Serif" font-size="13.00" fill="#2d3436">hit_measurement_protocol.t_ga_contrats_form_valeurs_envoyes</text>
</g>
<!-- 7cfd3af8920147e5989034d490dd4b92&#45;&gt;8733aae4c89f4871b66804ac25c55c99 -->
<g id="edge4" class="edge">
<title>7cfd3af8920147e5989034d490dd4b92&#45;&gt;8733aae4c89f4871b66804ac25c55c99</title>
<path fill="none" stroke="#7b8894" d="M117.15,-884.5C210.45,-884.5 400,-884.5 400,-884.5 400,-884.5 400,-1089.37 400,-1089.37"/>
<polygon fill="#7b8894" stroke="#7b8894" points="396.5,-1089.37 400,-1099.37 403.5,-1089.37 396.5,-1089.37"/>
<text text-anchor="middle" x="245.5" y="-955.6" font-family="Sans-Serif" font-size="13.00" fill="darkgrey">t_contrats_form_valeurs</text>
</g>
<!-- 9631c92a8a9d4aac9804a3fe154e4cf3 -->
<g id="node10" class="node">
<title>9631c92a8a9d4aac9804a3fe154e4cf3</title>
<image xlink:href="icons/bigquery.png" width="101px" height="101px" preserveAspectRatio="xMinYMin meet" x="16" y="-542.5"/>
<text text-anchor="middle" x="66.5" y="-427.1" font-family="Sans-Serif" font-size="13.00" fill="#2d3436">ga.t_ga_sessions</text>
</g>
<!-- e8c0f7e99db044208254318b239aa038 -->
<g id="node11" class="node">
<title>e8c0f7e99db044208254318b239aa038</title>
<image xlink:href="icons/bigquery.png" width="101px" height="101px" preserveAspectRatio="xMinYMin meet" x="374" y="-355.5"/>
<text text-anchor="middle" x="424.5" y="-240.1" font-family="Sans-Serif" font-size="13.00" fill="#2d3436">my_power.t_mypower_ventes_a_envoyer</text>
</g>
<!-- 9631c92a8a9d4aac9804a3fe154e4cf3&#45;&gt;e8c0f7e99db044208254318b239aa038 -->
<g id="edge9" class="edge">
<title>9631c92a8a9d4aac9804a3fe154e4cf3&#45;&gt;e8c0f7e99db044208254318b239aa038</title>
<path fill="none" stroke="#7b8894" d="M117.14,-427C219.64,-427 442,-427 442,-427 442,-427 442,-383.84 442,-383.84"/>
<polygon fill="#7b8894" stroke="#7b8894" points="445.5,-383.84 442,-373.84 438.5,-383.84 445.5,-383.84"/>
<text text-anchor="middle" x="245.5" y="-438.6" font-family="Sans-Serif" font-size="13.00" fill="darkgrey">t_mypower_ventes_a_envoyer</text>
</g>
<!-- da01780a1696430fbb0fcccce4f153d6 -->
<g id="node15" class="node">
<title>da01780a1696430fbb0fcccce4f153d6</title>
<image xlink:href="icons/bigquery.png" width="101px" height="101px" preserveAspectRatio="xMinYMin meet" x="374" y="-549.5"/>
<text text-anchor="middle" x="424.5" y="-434.1" font-family="Sans-Serif" font-size="13.00" fill="#2d3436">my_power.t_mypower_opportunites_a_envoyer</text>
</g>
<!-- 9631c92a8a9d4aac9804a3fe154e4cf3&#45;&gt;da01780a1696430fbb0fcccce4f153d6 -->
<g id="edge13" class="edge">
<title>9631c92a8a9d4aac9804a3fe154e4cf3&#45;&gt;da01780a1696430fbb0fcccce4f153d6</title>
<path fill="none" stroke="#7b8894" d="M117.03,-495.5C117.03,-495.5 363.93,-495.5 363.93,-495.5"/>
<polygon fill="#7b8894" stroke="#7b8894" points="363.93,-499 373.93,-495.5 363.93,-492 363.93,-499"/>
<text text-anchor="middle" x="245.5" y="-502.6" font-family="Sans-Serif" font-size="13.00" fill="darkgrey">t_mypower_opportunites_a_envoyer</text>
</g>
<!-- 462ea89111ae467aacb94798ee3b55a4 -->
<g id="node13" class="node">
<title>462ea89111ae467aacb94798ee3b55a4</title>
<image xlink:href="icons/bigquery.png" width="101px" height="101px" preserveAspectRatio="xMinYMin meet" x="734" y="-160.5"/>
<text text-anchor="middle" x="784.5" y="-45.1" font-family="Sans-Serif" font-size="13.00" fill="#2d3436">my_power.t_mypower_ventes_envoyees</text>
</g>
<!-- e8c0f7e99db044208254318b239aa038&#45;&gt;462ea89111ae467aacb94798ee3b55a4 -->
<g id="edge11" class="edge">
<title>e8c0f7e99db044208254318b239aa038&#45;&gt;462ea89111ae467aacb94798ee3b55a4</title>
<path fill="none" stroke="#7b8894" d="M425,-236.25C425,-180.11 425,-110 425,-110 425,-110 723.75,-110 723.75,-110"/>
<polygon fill="#7b8894" stroke="#7b8894" points="723.75,-113.5 733.75,-110 723.75,-106.5 723.75,-113.5"/>
<text text-anchor="middle" x="604.5" y="-179.6" font-family="Sans-Serif" font-size="13.00" fill="darkgrey">t_mypower_ventes_envoyees</text>
</g>
<!-- 81e25c96e5f44ef5b8a4a669b8a612d5 -->
<g id="node14" class="node">
<title>81e25c96e5f44ef5b8a4a669b8a612d5</title>
<image xlink:href="icons/google_analytics.png" width="101px" height="101px" preserveAspectRatio="xMinYMin meet" x="734" y="-355.5"/>
<text text-anchor="middle" x="784.5" y="-239.6" font-family="Sans-Serif" font-size="13.00" fill="#2d3436">UA&#45;55400352&#45;1</text>
<text text-anchor="middle" x="784.5" y="-225.6" font-family="Sans-Serif" font-size="13.00" fill="#2d3436">my_power.t_mypower_ventes_a_envoyer</text>
</g>
<!-- e8c0f7e99db044208254318b239aa038&#45;&gt;81e25c96e5f44ef5b8a4a669b8a612d5 -->
<g id="edge12" class="edge">
<title>e8c0f7e99db044208254318b239aa038&#45;&gt;81e25c96e5f44ef5b8a4a669b8a612d5</title>
<path fill="none" stroke="#7b8894" d="M475.32,-305C475.32,-305 723.94,-305 723.94,-305"/>
<polygon fill="#7b8894" stroke="#7b8894" points="723.94,-308.5 733.94,-305 723.94,-301.5 723.94,-308.5"/>
<text text-anchor="middle" x="604.5" y="-308.6" font-family="Sans-Serif" font-size="13.00" fill="darkgrey">t_mypower_ventes_envoyees</text>
</g>
<!-- 40dad1cf02bf4800a8a6f77baba87ae0 -->
<g id="node12" class="node">
<title>40dad1cf02bf4800a8a6f77baba87ae0</title>
<image xlink:href="icons/bigquery.png" width="101px" height="101px" preserveAspectRatio="xMinYMin meet" x="16" y="-360.5"/>
<text text-anchor="middle" x="66.5" y="-245.1" font-family="Sans-Serif" font-size="13.00" fill="#2d3436">my_power.t_mypower_lead_opportunite_vente</text>
</g>
<!-- 40dad1cf02bf4800a8a6f77baba87ae0&#45;&gt;e8c0f7e99db044208254318b239aa038 -->
<g id="edge10" class="edge">
<title>40dad1cf02bf4800a8a6f77baba87ae0&#45;&gt;e8c0f7e99db044208254318b239aa038</title>
<path fill="none" stroke="#7b8894" d="M117.03,-307.5C117.03,-307.5 363.93,-307.5 363.93,-307.5"/>
<polygon fill="#7b8894" stroke="#7b8894" points="363.93,-311 373.93,-307.5 363.93,-304 363.93,-311"/>
<text text-anchor="middle" x="245.5" y="-309.6" font-family="Sans-Serif" font-size="13.00" fill="darkgrey">t_mypower_ventes_a_envoyer</text>
</g>
<!-- 40dad1cf02bf4800a8a6f77baba87ae0&#45;&gt;da01780a1696430fbb0fcccce4f153d6 -->
<g id="edge14" class="edge">
<title>40dad1cf02bf4800a8a6f77baba87ae0&#45;&gt;da01780a1696430fbb0fcccce4f153d6</title>
<path fill="none" stroke="#7b8894" d="M67,-378.89C67,-381.64 67,-383.25 67,-383.25 67,-383.25 408,-383.25 408,-383.25 408,-383.25 408,-420.33 408,-420.33"/>
<polygon fill="#7b8894" stroke="#7b8894" points="404.5,-420.33 408,-430.33 411.5,-420.33 404.5,-420.33"/>
<text text-anchor="middle" x="245.5" y="-372.6" font-family="Sans-Serif" font-size="13.00" fill="darkgrey">t_mypower_opportunites_a_envoyer</text>
</g>
<!-- 595fef7c502e4980ac1b21811a4897e9 -->
<g id="node16" class="node">
<title>595fef7c502e4980ac1b21811a4897e9</title>
<image xlink:href="icons/bigquery.png" width="101px" height="101px" preserveAspectRatio="xMinYMin meet" x="734" y="-550.5"/>
<text text-anchor="middle" x="784.5" y="-435.1" font-family="Sans-Serif" font-size="13.00" fill="#2d3436">my_power.t_mypower_opportunites_envoyees</text>
</g>
<!-- da01780a1696430fbb0fcccce4f153d6&#45;&gt;595fef7c502e4980ac1b21811a4897e9 -->
<g id="edge15" class="edge">
<title>da01780a1696430fbb0fcccce4f153d6&#45;&gt;595fef7c502e4980ac1b21811a4897e9</title>
<path fill="none" stroke="#7b8894" d="M475.32,-499.5C475.32,-499.5 723.94,-499.5 723.94,-499.5"/>
<polygon fill="#7b8894" stroke="#7b8894" points="723.94,-503 733.94,-499.5 723.94,-496 723.94,-503"/>
<text text-anchor="middle" x="604.5" y="-502.6" font-family="Sans-Serif" font-size="13.00" fill="darkgrey">t_mypower_opportunites_envoyees</text>
</g>
<!-- 2ba9443be6494d5baea0910cfb402fe7 -->
<g id="node17" class="node">
<title>2ba9443be6494d5baea0910cfb402fe7</title>
<image xlink:href="icons/google_analytics.png" width="101px" height="101px" preserveAspectRatio="xMinYMin meet" x="734" y="-745.5"/>
<text text-anchor="middle" x="784.5" y="-629.6" font-family="Sans-Serif" font-size="13.00" fill="#2d3436">UA&#45;55400352&#45;1</text>
<text text-anchor="middle" x="784.5" y="-615.6" font-family="Sans-Serif" font-size="13.00" fill="#2d3436">my_power.t_mypower_opportunites_a_envoyer</text>
</g>
<!-- da01780a1696430fbb0fcccce4f153d6&#45;&gt;2ba9443be6494d5baea0910cfb402fe7 -->
<g id="edge16" class="edge">
<title>da01780a1696430fbb0fcccce4f153d6&#45;&gt;2ba9443be6494d5baea0910cfb402fe7</title>
<path fill="none" stroke="#7b8894" d="M450,-567.55C450,-624.07 450,-695 450,-695 450,-695 723.7,-695 723.7,-695"/>
<polygon fill="#7b8894" stroke="#7b8894" points="723.7,-698.5 733.7,-695 723.7,-691.5 723.7,-698.5"/>
<text text-anchor="middle" x="604.5" y="-632.6" font-family="Sans-Serif" font-size="13.00" fill="darkgrey">t_mypower_opportunites_envoyees</text>
</g>
</g>
</svg>
