<?xml version="1.0" encoding="UTF-8" standalone="no"?>
<!DOCTYPE svg PUBLIC "-//W3C//DTD SVG 1.1//EN"
 "http://www.w3.org/Graphics/SVG/1.1/DTD/svg11.dtd">
<!-- Generated by graphviz version 2.47.1 (20210417.1919)
 -->
<!-- Title: hit_measurement_protocol Pages: 1 -->
<svg width="1132pt" height="1493pt"
 viewBox="0.00 0.00 1132.00 1493.00" xmlns="http://www.w3.org/2000/svg" xmlns:xlink="http://www.w3.org/1999/xlink">
<g id="graph0" class="graph" transform="scale(1 1) rotate(0) translate(144 1349)">
<title>hit_measurement_protocol</title>
<text text-anchor="middle" x="422" y="-9" font-family="Sans-Serif" font-size="15.00" fill="#2d3436">hit_measurement_protocol</text>
<g id="clust1" class="cluster">
<title>cluster_hit_measurement_protocol</title>
<path fill="#e5f5fd" stroke="#aeb6be" d="M20,-33C20,-33 824,-33 824,-33 830,-33 836,-39 836,-45 836,-45 836,-1185 836,-1185 836,-1191 830,-1197 824,-1197 824,-1197 20,-1197 20,-1197 14,-1197 8,-1191 8,-1185 8,-1185 8,-45 8,-45 8,-39 14,-33 20,-33"/>
<text text-anchor="middle" x="87.5" y="-1183.4" font-family="Sans-Serif" font-size="12.00" fill="#2d3436">hit_measurement_protocol</text>
</g>
<!-- d80119da524c495ba6f521caecbe96c2 -->
<g id="node1" class="node">
<title>d80119da524c495ba6f521caecbe96c2</title>
<image xlink:href="icons/bigquery.png" width="101px" height="101px" preserveAspectRatio="xMinYMin meet" x="16" y="-1149.5"/>
<text text-anchor="middle" x="66.5" y="-1034.1" font-family="Sans-Serif" font-size="13.00" fill="#2d3436">ga.l_ga_to_ama_ga_formulaires_stor_2021*</text>
</g>
<!-- 088ba903d14248bc8360f93fed92ae5e -->
<g id="node2" class="node">
<title>088ba903d14248bc8360f93fed92ae5e</title>
<image xlink:href="icons/bigquery.png" width="101px" height="101px" preserveAspectRatio="xMinYMin meet" x="374" y="-951.5"/>
<text text-anchor="middle" x="424.5" y="-836.1" font-family="Sans-Serif" font-size="13.00" fill="#2d3436">ga.t_ga_contrats_form_valeurs</text>
</g>
<!-- d80119da524c495ba6f521caecbe96c2&#45;&gt;088ba903d14248bc8360f93fed92ae5e -->
<g id="edge1" class="edge">
<title>d80119da524c495ba6f521caecbe96c2&#45;&gt;088ba903d14248bc8360f93fed92ae5e</title>
<path fill="none" stroke="#7b8894" d="M117.1,-1099C215.92,-1099 425,-1099 425,-1099 425,-1099 425,-979.7 425,-979.7"/>
<polygon fill="#7b8894" stroke="#7b8894" points="428.5,-979.7 425,-969.7 421.5,-979.7 428.5,-979.7"/>
<text text-anchor="middle" x="245.5" y="-1029.6" font-family="Sans-Serif" font-size="13.00" fill="darkgrey">t_contrats_form_valeurs</text>
</g>
<!-- 887c64e666f146469aa456184abda129 -->
<g id="node6" class="node">
<title>887c64e666f146469aa456184abda129</title>
<image xlink:href="icons/bigquery.png" width="101px" height="101px" preserveAspectRatio="xMinYMin meet" x="727" y="-940.5"/>
<text text-anchor="middle" x="777.5" y="-825.1" font-family="Sans-Serif" font-size="13.00" fill="#2d3436">ga.t_ga_contrats_form_valeurs_envoyes</text>
</g>
<!-- 088ba903d14248bc8360f93fed92ae5e&#45;&gt;887c64e666f146469aa456184abda129 -->
<g id="edge5" class="edge">
<title>088ba903d14248bc8360f93fed92ae5e&#45;&gt;887c64e666f146469aa456184abda129</title>
<path fill="none" stroke="#7b8894" d="M475.08,-895.5C475.08,-895.5 716.73,-895.5 716.73,-895.5"/>
<polygon fill="#7b8894" stroke="#7b8894" points="716.73,-899 726.73,-895.5 716.73,-892 716.73,-899"/>
<text text-anchor="middle" x="601" y="-900.6" font-family="Sans-Serif" font-size="13.00" fill="darkgrey">l_to_ga_contrats_form_valeurs</text>
</g>
<!-- 1801f13303d74b76993caef69a7c57d1 -->
<g id="node7" class="node">
<title>1801f13303d74b76993caef69a7c57d1</title>
<image xlink:href="icons/google_analytics.png" width="101px" height="101px" preserveAspectRatio="xMinYMin meet" x="727" y="-1135.5"/>
<text text-anchor="middle" x="777.5" y="-1019.6" font-family="Sans-Serif" font-size="13.00" fill="#2d3436">UA&#45;55400352&#45;1</text>
<text text-anchor="middle" x="777.5" y="-1005.6" font-family="Sans-Serif" font-size="13.00" fill="#2d3436">ga.t_ga_contrats_form_valeurs</text>
</g>
<!-- 088ba903d14248bc8360f93fed92ae5e&#45;&gt;1801f13303d74b76993caef69a7c57d1 -->
<g id="edge6" class="edge">
<title>088ba903d14248bc8360f93fed92ae5e&#45;&gt;1801f13303d74b76993caef69a7c57d1</title>
<path fill="none" stroke="#7b8894" d="M475.15,-964C572.89,-964 778,-964 778,-964 778,-964 778,-991.95 778,-991.95"/>
<polygon fill="#7b8894" stroke="#7b8894" points="774.5,-991.95 778,-1001.95 781.5,-991.95 774.5,-991.95"/>
<text text-anchor="middle" x="601" y="-1028.6" font-family="Sans-Serif" font-size="13.00" fill="darkgrey">l_to_ga_contrats_form_valeurs</text>
</g>
<!-- fea409d7b67c4c858f097870579af5a6 -->
<g id="node3" class="node">
<title>fea409d7b67c4c858f097870579af5a6</title>
<image xlink:href="icons/bigquery.png" width="101px" height="101px" preserveAspectRatio="xMinYMin meet" x="16" y="-969.5"/>
<text text-anchor="middle" x="66.5" y="-854.1" font-family="Sans-Serif" font-size="13.00" fill="#2d3436">amadeus.e_ama_formulaires_stor</text>
</g>
<!-- fea409d7b67c4c858f097870579af5a6&#45;&gt;088ba903d14248bc8360f93fed92ae5e -->
<g id="edge2" class="edge">
<title>fea409d7b67c4c858f097870579af5a6&#45;&gt;088ba903d14248bc8360f93fed92ae5e</title>
<path fill="none" stroke="#7b8894" d="M117.03,-910C117.03,-910 363.93,-910 363.93,-910"/>
<polygon fill="#7b8894" stroke="#7b8894" points="363.93,-913.5 373.93,-910 363.93,-906.5 363.93,-913.5"/>
<text text-anchor="middle" x="245.5" y="-908.6" font-family="Sans-Serif" font-size="13.00" fill="darkgrey">t_contrats_form_valeurs</text>
</g>
<!-- 1e31fbe6c8484c0a90aad07d306cc1b5 -->
<g id="node4" class="node">
<title>1e31fbe6c8484c0a90aad07d306cc1b5</title>
<image xlink:href="icons/bigquery.png" width="101px" height="101px" preserveAspectRatio="xMinYMin meet" x="16" y="-789.5"/>
<text text-anchor="middle" x="66.5" y="-674.1" font-family="Sans-Serif" font-size="13.00" fill="#2d3436">hit_measurement_protocol.t_ga_sessions</text>
</g>
<!-- 1e31fbe6c8484c0a90aad07d306cc1b5&#45;&gt;088ba903d14248bc8360f93fed92ae5e -->
<g id="edge3" class="edge">
<title>1e31fbe6c8484c0a90aad07d306cc1b5&#45;&gt;088ba903d14248bc8360f93fed92ae5e</title>
<path fill="none" stroke="#7b8894" d="M67,-807.65C67,-826.33 67,-841.5 67,-841.5 67,-841.5 363.66,-841.5 363.66,-841.5"/>
<polygon fill="#7b8894" stroke="#7b8894" points="363.66,-845 373.66,-841.5 363.66,-838 363.66,-845"/>
<text text-anchor="middle" x="245.5" y="-794.6" font-family="Sans-Serif" font-size="13.00" fill="darkgrey">t_contrats_form_valeurs</text>
</g>
<!-- 800b7c1be8b947aeb2352586753c2fe5 -->
<g id="node5" class="node">
<title>800b7c1be8b947aeb2352586753c2fe5</title>
<image xlink:href="icons/bigquery.png" width="101px" height="101px" preserveAspectRatio="xMinYMin meet" x="16" y="-609.5"/>
<text text-anchor="middle" x="66.5" y="-494.1" font-family="Sans-Serif" font-size="13.00" fill="#2d3436">hit_measurement_protocol.t_ga_contrats_form_valeurs_envoyes</text>
</g>
<!-- 800b7c1be8b947aeb2352586753c2fe5&#45;&gt;088ba903d14248bc8360f93fed92ae5e -->
<g id="edge4" class="edge">
<title>800b7c1be8b947aeb2352586753c2fe5&#45;&gt;088ba903d14248bc8360f93fed92ae5e</title>
<path fill="none" stroke="#7b8894" d="M117.26,-622.33C212.39,-622.33 408,-622.33 408,-622.33 408,-622.33 408,-822.47 408,-822.47"/>
<polygon fill="#7b8894" stroke="#7b8894" points="404.5,-822.47 408,-832.47 411.5,-822.47 404.5,-822.47"/>
<text text-anchor="middle" x="245.5" y="-568.6" font-family="Sans-Serif" font-size="13.00" fill="darkgrey">t_contrats_form_valeurs</text>
</g>
<!-- cfff023786ac434c9bbe22a7ed1aa640 -->
<g id="node8" class="node">
<title>cfff023786ac434c9bbe22a7ed1aa640</title>
<image xlink:href="icons/bigquery.png" width="101px" height="101px" preserveAspectRatio="xMinYMin meet" x="16" y="-429.5"/>
<text text-anchor="middle" x="66.5" y="-314.1" font-family="Sans-Serif" font-size="13.00" fill="#2d3436">ga.t_ga_sessions</text>
</g>
<!-- 3bd3325ac8064fcf9e49474f94db2a7f -->
<g id="node9" class="node">
<title>3bd3325ac8064fcf9e49474f94db2a7f</title>
<image xlink:href="icons/bigquery.png" width="101px" height="101px" preserveAspectRatio="xMinYMin meet" x="374" y="-276.5"/>
<text text-anchor="middle" x="424.5" y="-161.1" font-family="Sans-Serif" font-size="13.00" fill="#2d3436">my_power.t_mypower_ventes_a_envoyer</text>
</g>
<!-- cfff023786ac434c9bbe22a7ed1aa640&#45;&gt;3bd3325ac8064fcf9e49474f94db2a7f -->
<g id="edge7" class="edge">
<title>cfff023786ac434c9bbe22a7ed1aa640&#45;&gt;3bd3325ac8064fcf9e49474f94db2a7f</title>
<path fill="none" stroke="#7b8894" d="M67,-310.4C67,-293.93 67,-281 67,-281 67,-281 363.66,-281 363.66,-281"/>
<polygon fill="#7b8894" stroke="#7b8894" points="363.66,-284.5 373.66,-281 363.66,-277.5 363.66,-284.5"/>
<text text-anchor="middle" x="245.5" y="-354.6" font-family="Sans-Serif" font-size="13.00" fill="darkgrey">t_mypower_ventes_a_envoyer</text>
</g>
<!-- ca9b4c639162450b99a351fa741833cd -->
<g id="node13" class="node">
<title>ca9b4c639162450b99a351fa741833cd</title>
<image xlink:href="icons/bigquery.png" width="101px" height="101px" preserveAspectRatio="xMinYMin meet" x="374" y="-517.5"/>
<text text-anchor="middle" x="424.5" y="-402.1" font-family="Sans-Serif" font-size="13.00" fill="#2d3436">my_power.t_mypower_opportunites_a_envoyer</text>
</g>
<!-- cfff023786ac434c9bbe22a7ed1aa640&#45;&gt;ca9b4c639162450b99a351fa741833cd -->
<g id="edge11" class="edge">
<title>cfff023786ac434c9bbe22a7ed1aa640&#45;&gt;ca9b4c639162450b99a351fa741833cd</title>
<path fill="none" stroke="#7b8894" d="M117.03,-431.17C117.03,-431.17 363.93,-431.17 363.93,-431.17"/>
<polygon fill="#7b8894" stroke="#7b8894" points="363.93,-434.67 373.93,-431.17 363.93,-427.67 363.93,-434.67"/>
<text text-anchor="middle" x="245.5" y="-464.6" font-family="Sans-Serif" font-size="13.00" fill="darkgrey">t_mypower_opportunites_a_envoyer</text>
</g>
<!-- 1f76cf68283a45058e138e27bb7b2116 -->
<g id="node11" class="node">
<title>1f76cf68283a45058e138e27bb7b2116</title>
<image xlink:href="icons/bigquery.png" width="101px" height="101px" preserveAspectRatio="xMinYMin meet" x="727" y="-160.5"/>
<text text-anchor="middle" x="777.5" y="-45.1" font-family="Sans-Serif" font-size="13.00" fill="#2d3436">my_power.t_mypower_ventes_envoyees</text>
</g>
<!-- 3bd3325ac8064fcf9e49474f94db2a7f&#45;&gt;1f76cf68283a45058e138e27bb7b2116 -->
<g id="edge9" class="edge">
<title>3bd3325ac8064fcf9e49474f94db2a7f&#45;&gt;1f76cf68283a45058e138e27bb7b2116</title>
<path fill="none" stroke="#7b8894" d="M475.08,-168C475.08,-168 716.73,-168 716.73,-168"/>
<polygon fill="#7b8894" stroke="#7b8894" points="716.73,-171.5 726.73,-168 716.73,-164.5 716.73,-171.5"/>
<text text-anchor="middle" x="601" y="-179.6" font-family="Sans-Serif" font-size="13.00" fill="darkgrey">t_mypower_ventes_envoyees</text>
</g>
<!-- 01660821e4a5493d8fbb16aec999058c -->
<g id="node12" class="node">
<title>01660821e4a5493d8fbb16aec999058c</title>
<image xlink:href="icons/google_analytics.png" width="101px" height="101px" preserveAspectRatio="xMinYMin meet" x="727" y="-355.5"/>
<text text-anchor="middle" x="777.5" y="-239.6" font-family="Sans-Serif" font-size="13.00" fill="#2d3436">UA&#45;55400352&#45;1</text>
<text text-anchor="middle" x="777.5" y="-225.6" font-family="Sans-Serif" font-size="13.00" fill="#2d3436">my_power.t_mypower_ventes_a_envoyer</text>
</g>
<!-- 3bd3325ac8064fcf9e49474f94db2a7f&#45;&gt;01660821e4a5493d8fbb16aec999058c -->
<g id="edge10" class="edge">
<title>3bd3325ac8064fcf9e49474f94db2a7f&#45;&gt;01660821e4a5493d8fbb16aec999058c</title>
<path fill="none" stroke="#7b8894" d="M475.08,-258.25C475.08,-258.25 716.73,-258.25 716.73,-258.25"/>
<polygon fill="#7b8894" stroke="#7b8894" points="716.73,-261.75 726.73,-258.25 716.73,-254.75 716.73,-261.75"/>
<text text-anchor="middle" x="601" y="-282.6" font-family="Sans-Serif" font-size="13.00" fill="darkgrey">t_mypower_ventes_envoyees</text>
</g>
<!-- 7ae45b89134b42459ab4834cb3c1a14c -->
<g id="node10" class="node">
<title>7ae45b89134b42459ab4834cb3c1a14c</title>
<image xlink:href="icons/bigquery.png" width="101px" height="101px" preserveAspectRatio="xMinYMin meet" x="16" y="-249.5"/>
<text text-anchor="middle" x="66.5" y="-134.1" font-family="Sans-Serif" font-size="13.00" fill="#2d3436">my_power.t_mypower_lead_opportunite_vente</text>
</g>
<!-- 7ae45b89134b42459ab4834cb3c1a14c&#45;&gt;3bd3325ac8064fcf9e49474f94db2a7f -->
<g id="edge8" class="edge">
<title>7ae45b89134b42459ab4834cb3c1a14c&#45;&gt;3bd3325ac8064fcf9e49474f94db2a7f</title>
<path fill="none" stroke="#7b8894" d="M117.03,-194.17C117.03,-194.17 363.93,-194.17 363.93,-194.17"/>
<polygon fill="#7b8894" stroke="#7b8894" points="363.93,-197.67 373.93,-194.17 363.93,-190.67 363.93,-197.67"/>
<text text-anchor="middle" x="245.5" y="-209.6" font-family="Sans-Serif" font-size="13.00" fill="darkgrey">t_mypower_ventes_a_envoyer</text>
</g>
<!-- 7ae45b89134b42459ab4834cb3c1a14c&#45;&gt;ca9b4c639162450b99a351fa741833cd -->
<g id="edge12" class="edge">
<title>7ae45b89134b42459ab4834cb3c1a14c&#45;&gt;ca9b4c639162450b99a351fa741833cd</title>
<path fill="none" stroke="#7b8894" d="M117.46,-230.83C170.53,-230.83 246,-230.83 246,-230.83 246,-230.83 246,-414.83 246,-414.83 246,-414.83 363.83,-414.83 363.83,-414.83"/>
<polygon fill="#7b8894" stroke="#7b8894" points="363.83,-418.33 373.83,-414.83 363.83,-411.33 363.83,-418.33"/>
<text text-anchor="middle" x="245.5" y="-278.6" font-family="Sans-Serif" font-size="13.00" fill="darkgrey">t_mypower_opportunites_a_envoyer</text>
</g>
<!-- 2f265ad6f8d746bd8e5d1a0da4b87fcb -->
<g id="node14" class="node">
<title>2f265ad6f8d746bd8e5d1a0da4b87fcb</title>
<image xlink:href="icons/bigquery.png" width="101px" height="101px" preserveAspectRatio="xMinYMin meet" x="727" y="-550.5"/>
<text text-anchor="middle" x="777.5" y="-435.1" font-family="Sans-Serif" font-size="13.00" fill="#2d3436">my_power.t_mypower_opportunites_envoyees</text>
</g>
<!-- ca9b4c639162450b99a351fa741833cd&#45;&gt;2f265ad6f8d746bd8e5d1a0da4b87fcb -->
<g id="edge13" class="edge">
<title>ca9b4c639162450b99a351fa741833cd&#45;&gt;2f265ad6f8d746bd8e5d1a0da4b87fcb</title>
<path fill="none" stroke="#7b8894" d="M475.08,-483.5C475.08,-483.5 716.73,-483.5 716.73,-483.5"/>
<polygon fill="#7b8894" stroke="#7b8894" points="716.73,-487 726.73,-483.5 716.73,-480 716.73,-487"/>
<text text-anchor="middle" x="601" y="-481.6" font-family="Sans-Serif" font-size="13.00" fill="darkgrey">t_mypower_opportunites_envoyees</text>
</g>
<!-- e2014fccf2544b1396e67f5c63ffb2d7 -->
<g id="node15" class="node">
<title>e2014fccf2544b1396e67f5c63ffb2d7</title>
<image xlink:href="icons/google_analytics.png" width="101px" height="101px" preserveAspectRatio="xMinYMin meet" x="727" y="-745.5"/>
<text text-anchor="middle" x="777.5" y="-629.6" font-family="Sans-Serif" font-size="13.00" fill="#2d3436">UA&#45;55400352&#45;1</text>
<text text-anchor="middle" x="777.5" y="-615.6" font-family="Sans-Serif" font-size="13.00" fill="#2d3436">my_power.t_mypower_opportunites_a_envoyer</text>
</g>
<!-- ca9b4c639162450b99a351fa741833cd&#45;&gt;e2014fccf2544b1396e67f5c63ffb2d7 -->
<g id="edge14" class="edge">
<title>ca9b4c639162450b99a351fa741833cd&#45;&gt;e2014fccf2544b1396e67f5c63ffb2d7</title>
<path fill="none" stroke="#7b8894" d="M442,-535.93C442,-575.41 442,-617.17 442,-617.17 442,-617.17 716.91,-617.17 716.91,-617.17"/>
<polygon fill="#7b8894" stroke="#7b8894" points="716.91,-620.67 726.91,-617.17 716.91,-613.67 716.91,-620.67"/>
<text text-anchor="middle" x="601" y="-632.6" font-family="Sans-Serif" font-size="13.00" fill="darkgrey">t_mypower_opportunites_envoyees</text>
</g>
</g>
</svg>
