<?xml version="1.0" encoding="UTF-8" standalone="no"?>
<!DOCTYPE svg PUBLIC "-//W3C//DTD SVG 1.1//EN"
 "http://www.w3.org/Graphics/SVG/1.1/DTD/svg11.dtd">
<!-- Generated by graphviz version 2.47.1 (20210417.1919)
 -->
<!-- Title: hit_measurement_protocol Pages: 1 -->
<svg width="1132pt" height="1493pt"
 viewBox="0.00 0.00 1132.00 1493.00" xmlns="http://www.w3.org/2000/svg" xmlns:xlink="http://www.w3.org/1999/xlink">
<g id="graph0" class="graph" transform="scale(1 1) rotate(0) translate(144 1349)">
<title>hit_measurement_protocol</title>
<text text-anchor="middle" x="422" y="-9" font-family="Sans-Serif" font-size="15.00" fill="#2d3436">hit_measurement_protocol</text>
<g id="clust1" class="cluster">
<title>cluster_hit_measurement_protocol</title>
<path fill="#e5f5fd" stroke="#aeb6be" d="M20,-33C20,-33 824,-33 824,-33 830,-33 836,-39 836,-45 836,-45 836,-1185 836,-1185 836,-1191 830,-1197 824,-1197 824,-1197 20,-1197 20,-1197 14,-1197 8,-1191 8,-1185 8,-1185 8,-45 8,-45 8,-39 14,-33 20,-33"/>
<text text-anchor="middle" x="87.5" y="-1183.4" font-family="Sans-Serif" font-size="12.00" fill="#2d3436">hit_measurement_protocol</text>
</g>
<!-- 4469871527e94b36846859738df01db7 -->
<g id="node1" class="node">
<title>4469871527e94b36846859738df01db7</title>
<image xlink:href="icons/bigquery.png" width="101px" height="101px" preserveAspectRatio="xMinYMin meet" x="16" y="-1149.5"/>
<text text-anchor="middle" x="66.5" y="-1034.1" font-family="Sans-Serif" font-size="13.00" fill="#2d3436">ga.l_ga_to_ama_ga_formulaires_stor_2021*</text>
</g>
<!-- b9a6c209c5b5424ca92dc53110dfc0bf -->
<g id="node2" class="node">
<title>b9a6c209c5b5424ca92dc53110dfc0bf</title>
<image xlink:href="icons/bigquery.png" width="101px" height="101px" preserveAspectRatio="xMinYMin meet" x="374" y="-951.5"/>
<text text-anchor="middle" x="424.5" y="-836.1" font-family="Sans-Serif" font-size="13.00" fill="#2d3436">ga.t_ga_contrats_form_valeurs</text>
</g>
<!-- 4469871527e94b36846859738df01db7&#45;&gt;b9a6c209c5b5424ca92dc53110dfc0bf -->
<g id="edge1" class="edge">
<title>4469871527e94b36846859738df01db7&#45;&gt;b9a6c209c5b5424ca92dc53110dfc0bf</title>
<path fill="none" stroke="#7b8894" d="M117.1,-1099C215.92,-1099 425,-1099 425,-1099 425,-1099 425,-979.7 425,-979.7"/>
<polygon fill="#7b8894" stroke="#7b8894" points="428.5,-979.7 425,-969.7 421.5,-979.7 428.5,-979.7"/>
<text text-anchor="middle" x="245.5" y="-1029.6" font-family="Sans-Serif" font-size="13.00" fill="darkgrey">t_contrats_form_valeurs</text>
</g>
<!-- 78637ad70bfd49b3a41cf078abd25750 -->
<g id="node6" class="node">
<title>78637ad70bfd49b3a41cf078abd25750</title>
<image xlink:href="icons/bigquery.png" width="101px" height="101px" preserveAspectRatio="xMinYMin meet" x="727" y="-940.5"/>
<text text-anchor="middle" x="777.5" y="-825.1" font-family="Sans-Serif" font-size="13.00" fill="#2d3436">ga.t_ga_contrats_form_valeurs_envoyes</text>
</g>
<!-- b9a6c209c5b5424ca92dc53110dfc0bf&#45;&gt;78637ad70bfd49b3a41cf078abd25750 -->
<g id="edge5" class="edge">
<title>b9a6c209c5b5424ca92dc53110dfc0bf&#45;&gt;78637ad70bfd49b3a41cf078abd25750</title>
<path fill="none" stroke="#7b8894" d="M475.08,-895.5C475.08,-895.5 716.73,-895.5 716.73,-895.5"/>
<polygon fill="#7b8894" stroke="#7b8894" points="716.73,-899 726.73,-895.5 716.73,-892 716.73,-899"/>
<text text-anchor="middle" x="601" y="-900.6" font-family="Sans-Serif" font-size="13.00" fill="darkgrey">l_to_ga_contrats_form_valeurs</text>
</g>
<!-- 05efa9ac96474453ae4bc2f157ee51af -->
<g id="node7" class="node">
<title>05efa9ac96474453ae4bc2f157ee51af</title>
<image xlink:href="icons/google_analytics.png" width="101px" height="101px" preserveAspectRatio="xMinYMin meet" x="727" y="-1135.5"/>
<text text-anchor="middle" x="777.5" y="-1019.6" font-family="Sans-Serif" font-size="13.00" fill="#2d3436">UA&#45;55400352&#45;1</text>
<text text-anchor="middle" x="777.5" y="-1005.6" font-family="Sans-Serif" font-size="13.00" fill="#2d3436">ga.t_ga_contrats_form_valeurs</text>
</g>
<!-- b9a6c209c5b5424ca92dc53110dfc0bf&#45;&gt;05efa9ac96474453ae4bc2f157ee51af -->
<g id="edge6" class="edge">
<title>b9a6c209c5b5424ca92dc53110dfc0bf&#45;&gt;05efa9ac96474453ae4bc2f157ee51af</title>
<path fill="none" stroke="#7b8894" d="M475.15,-964C572.89,-964 778,-964 778,-964 778,-964 778,-991.95 778,-991.95"/>
<polygon fill="#7b8894" stroke="#7b8894" points="774.5,-991.95 778,-1001.95 781.5,-991.95 774.5,-991.95"/>
<text text-anchor="middle" x="601" y="-1028.6" font-family="Sans-Serif" font-size="13.00" fill="darkgrey">l_to_ga_contrats_form_valeurs</text>
</g>
<!-- e61805e2778e418fbe82d55aaba2422e -->
<g id="node3" class="node">
<title>e61805e2778e418fbe82d55aaba2422e</title>
<image xlink:href="icons/bigquery.png" width="101px" height="101px" preserveAspectRatio="xMinYMin meet" x="16" y="-969.5"/>
<text text-anchor="middle" x="66.5" y="-854.1" font-family="Sans-Serif" font-size="13.00" fill="#2d3436">amadeus.e_ama_formulaires_stor</text>
</g>
<!-- e61805e2778e418fbe82d55aaba2422e&#45;&gt;b9a6c209c5b5424ca92dc53110dfc0bf -->
<g id="edge2" class="edge">
<title>e61805e2778e418fbe82d55aaba2422e&#45;&gt;b9a6c209c5b5424ca92dc53110dfc0bf</title>
<path fill="none" stroke="#7b8894" d="M117.03,-910C117.03,-910 363.93,-910 363.93,-910"/>
<polygon fill="#7b8894" stroke="#7b8894" points="363.93,-913.5 373.93,-910 363.93,-906.5 363.93,-913.5"/>
<text text-anchor="middle" x="245.5" y="-908.6" font-family="Sans-Serif" font-size="13.00" fill="darkgrey">t_contrats_form_valeurs</text>
</g>
<!-- 2e8464ffe8134525aba2e294a0e76fdd -->
<g id="node4" class="node">
<title>2e8464ffe8134525aba2e294a0e76fdd</title>
<image xlink:href="icons/bigquery.png" width="101px" height="101px" preserveAspectRatio="xMinYMin meet" x="16" y="-789.5"/>
<text text-anchor="middle" x="66.5" y="-674.1" font-family="Sans-Serif" font-size="13.00" fill="#2d3436">hit_measurement_protocol.t_ga_sessions</text>
</g>
<!-- 2e8464ffe8134525aba2e294a0e76fdd&#45;&gt;b9a6c209c5b5424ca92dc53110dfc0bf -->
<g id="edge3" class="edge">
<title>2e8464ffe8134525aba2e294a0e76fdd&#45;&gt;b9a6c209c5b5424ca92dc53110dfc0bf</title>
<path fill="none" stroke="#7b8894" d="M67,-807.65C67,-826.33 67,-841.5 67,-841.5 67,-841.5 363.66,-841.5 363.66,-841.5"/>
<polygon fill="#7b8894" stroke="#7b8894" points="363.66,-845 373.66,-841.5 363.66,-838 363.66,-845"/>
<text text-anchor="middle" x="245.5" y="-794.6" font-family="Sans-Serif" font-size="13.00" fill="darkgrey">t_contrats_form_valeurs</text>
</g>
<!-- 0befafd01223489880999241c39a725a -->
<g id="node5" class="node">
<title>0befafd01223489880999241c39a725a</title>
<image xlink:href="icons/bigquery.png" width="101px" height="101px" preserveAspectRatio="xMinYMin meet" x="16" y="-609.5"/>
<text text-anchor="middle" x="66.5" y="-494.1" font-family="Sans-Serif" font-size="13.00" fill="#2d3436">hit_measurement_protocol.t_ga_contrats_form_valeurs_envoyes</text>
</g>
<!-- 0befafd01223489880999241c39a725a&#45;&gt;b9a6c209c5b5424ca92dc53110dfc0bf -->
<g id="edge4" class="edge">
<title>0befafd01223489880999241c39a725a&#45;&gt;b9a6c209c5b5424ca92dc53110dfc0bf</title>
<path fill="none" stroke="#7b8894" d="M117.26,-622.33C212.39,-622.33 408,-622.33 408,-622.33 408,-622.33 408,-822.47 408,-822.47"/>
<polygon fill="#7b8894" stroke="#7b8894" points="404.5,-822.47 408,-832.47 411.5,-822.47 404.5,-822.47"/>
<text text-anchor="middle" x="245.5" y="-568.6" font-family="Sans-Serif" font-size="13.00" fill="darkgrey">t_contrats_form_valeurs</text>
</g>
<!-- f0b19a36b30a4202ab9be73a34d412a7 -->
<g id="node8" class="node">
<title>f0b19a36b30a4202ab9be73a34d412a7</title>
<image xlink:href="icons/bigquery.png" width="101px" height="101px" preserveAspectRatio="xMinYMin meet" x="16" y="-429.5"/>
<text text-anchor="middle" x="66.5" y="-314.1" font-family="Sans-Serif" font-size="13.00" fill="#2d3436">ga.t_ga_sessions</text>
</g>
<!-- f146ff5b7cc047eba7b520bdc48cb4fb -->
<g id="node9" class="node">
<title>f146ff5b7cc047eba7b520bdc48cb4fb</title>
<image xlink:href="icons/bigquery.png" width="101px" height="101px" preserveAspectRatio="xMinYMin meet" x="374" y="-276.5"/>
<text text-anchor="middle" x="424.5" y="-161.1" font-family="Sans-Serif" font-size="13.00" fill="#2d3436">my_power.t_mypower_ventes_a_envoyer</text>
</g>
<!-- f0b19a36b30a4202ab9be73a34d412a7&#45;&gt;f146ff5b7cc047eba7b520bdc48cb4fb -->
<g id="edge7" class="edge">
<title>f0b19a36b30a4202ab9be73a34d412a7&#45;&gt;f146ff5b7cc047eba7b520bdc48cb4fb</title>
<path fill="none" stroke="#7b8894" d="M67,-310.4C67,-293.93 67,-281 67,-281 67,-281 363.66,-281 363.66,-281"/>
<polygon fill="#7b8894" stroke="#7b8894" points="363.66,-284.5 373.66,-281 363.66,-277.5 363.66,-284.5"/>
<text text-anchor="middle" x="245.5" y="-354.6" font-family="Sans-Serif" font-size="13.00" fill="darkgrey">t_mypower_ventes_a_envoyer</text>
</g>
<!-- 6bdddaf56d5c4d85bad5951ecdee0069 -->
<g id="node13" class="node">
<title>6bdddaf56d5c4d85bad5951ecdee0069</title>
<image xlink:href="icons/bigquery.png" width="101px" height="101px" preserveAspectRatio="xMinYMin meet" x="374" y="-517.5"/>
<text text-anchor="middle" x="424.5" y="-402.1" font-family="Sans-Serif" font-size="13.00" fill="#2d3436">my_power.t_mypower_opportunites_a_envoyer</text>
</g>
<!-- f0b19a36b30a4202ab9be73a34d412a7&#45;&gt;6bdddaf56d5c4d85bad5951ecdee0069 -->
<g id="edge11" class="edge">
<title>f0b19a36b30a4202ab9be73a34d412a7&#45;&gt;6bdddaf56d5c4d85bad5951ecdee0069</title>
<path fill="none" stroke="#7b8894" d="M117.03,-431.17C117.03,-431.17 363.93,-431.17 363.93,-431.17"/>
<polygon fill="#7b8894" stroke="#7b8894" points="363.93,-434.67 373.93,-431.17 363.93,-427.67 363.93,-434.67"/>
<text text-anchor="middle" x="245.5" y="-464.6" font-family="Sans-Serif" font-size="13.00" fill="darkgrey">t_mypower_opportunites_a_envoyer</text>
</g>
<!-- 61e1386823024a50975489e51ff709e8 -->
<g id="node11" class="node">
<title>61e1386823024a50975489e51ff709e8</title>
<image xlink:href="icons/bigquery.png" width="101px" height="101px" preserveAspectRatio="xMinYMin meet" x="727" y="-160.5"/>
<text text-anchor="middle" x="777.5" y="-45.1" font-family="Sans-Serif" font-size="13.00" fill="#2d3436">my_power.t_mypower_ventes_envoyees</text>
</g>
<!-- f146ff5b7cc047eba7b520bdc48cb4fb&#45;&gt;61e1386823024a50975489e51ff709e8 -->
<g id="edge9" class="edge">
<title>f146ff5b7cc047eba7b520bdc48cb4fb&#45;&gt;61e1386823024a50975489e51ff709e8</title>
<path fill="none" stroke="#7b8894" d="M475.08,-168C475.08,-168 716.73,-168 716.73,-168"/>
<polygon fill="#7b8894" stroke="#7b8894" points="716.73,-171.5 726.73,-168 716.73,-164.5 716.73,-171.5"/>
<text text-anchor="middle" x="601" y="-179.6" font-family="Sans-Serif" font-size="13.00" fill="darkgrey">t_mypower_ventes_envoyees</text>
</g>
<!-- 192b3d47bd5c48f2abe40884841fec30 -->
<g id="node12" class="node">
<title>192b3d47bd5c48f2abe40884841fec30</title>
<image xlink:href="icons/google_analytics.png" width="101px" height="101px" preserveAspectRatio="xMinYMin meet" x="727" y="-355.5"/>
<text text-anchor="middle" x="777.5" y="-239.6" font-family="Sans-Serif" font-size="13.00" fill="#2d3436">UA&#45;55400352&#45;1</text>
<text text-anchor="middle" x="777.5" y="-225.6" font-family="Sans-Serif" font-size="13.00" fill="#2d3436">my_power.t_mypower_ventes_a_envoyer</text>
</g>
<!-- f146ff5b7cc047eba7b520bdc48cb4fb&#45;&gt;192b3d47bd5c48f2abe40884841fec30 -->
<g id="edge10" class="edge">
<title>f146ff5b7cc047eba7b520bdc48cb4fb&#45;&gt;192b3d47bd5c48f2abe40884841fec30</title>
<path fill="none" stroke="#7b8894" d="M475.08,-258.25C475.08,-258.25 716.73,-258.25 716.73,-258.25"/>
<polygon fill="#7b8894" stroke="#7b8894" points="716.73,-261.75 726.73,-258.25 716.73,-254.75 716.73,-261.75"/>
<text text-anchor="middle" x="601" y="-282.6" font-family="Sans-Serif" font-size="13.00" fill="darkgrey">t_mypower_ventes_envoyees</text>
</g>
<!-- 22595b0a51b44b67a5c204e29e498c19 -->
<g id="node10" class="node">
<title>22595b0a51b44b67a5c204e29e498c19</title>
<image xlink:href="icons/bigquery.png" width="101px" height="101px" preserveAspectRatio="xMinYMin meet" x="16" y="-249.5"/>
<text text-anchor="middle" x="66.5" y="-134.1" font-family="Sans-Serif" font-size="13.00" fill="#2d3436">my_power.t_mypower_lead_opportunite_vente</text>
</g>
<!-- 22595b0a51b44b67a5c204e29e498c19&#45;&gt;f146ff5b7cc047eba7b520bdc48cb4fb -->
<g id="edge8" class="edge">
<title>22595b0a51b44b67a5c204e29e498c19&#45;&gt;f146ff5b7cc047eba7b520bdc48cb4fb</title>
<path fill="none" stroke="#7b8894" d="M117.03,-194.17C117.03,-194.17 363.93,-194.17 363.93,-194.17"/>
<polygon fill="#7b8894" stroke="#7b8894" points="363.93,-197.67 373.93,-194.17 363.93,-190.67 363.93,-197.67"/>
<text text-anchor="middle" x="245.5" y="-209.6" font-family="Sans-Serif" font-size="13.00" fill="darkgrey">t_mypower_ventes_a_envoyer</text>
</g>
<!-- 22595b0a51b44b67a5c204e29e498c19&#45;&gt;6bdddaf56d5c4d85bad5951ecdee0069 -->
<g id="edge12" class="edge">
<title>22595b0a51b44b67a5c204e29e498c19&#45;&gt;6bdddaf56d5c4d85bad5951ecdee0069</title>
<path fill="none" stroke="#7b8894" d="M117.46,-230.83C170.53,-230.83 246,-230.83 246,-230.83 246,-230.83 246,-414.83 246,-414.83 246,-414.83 363.83,-414.83 363.83,-414.83"/>
<polygon fill="#7b8894" stroke="#7b8894" points="363.83,-418.33 373.83,-414.83 363.83,-411.33 363.83,-418.33"/>
<text text-anchor="middle" x="245.5" y="-278.6" font-family="Sans-Serif" font-size="13.00" fill="darkgrey">t_mypower_opportunites_a_envoyer</text>
</g>
<!-- ae89695873644ec6a3f3870b2609e5eb -->
<g id="node14" class="node">
<title>ae89695873644ec6a3f3870b2609e5eb</title>
<image xlink:href="icons/bigquery.png" width="101px" height="101px" preserveAspectRatio="xMinYMin meet" x="727" y="-550.5"/>
<text text-anchor="middle" x="777.5" y="-435.1" font-family="Sans-Serif" font-size="13.00" fill="#2d3436">my_power.t_mypower_opportunites_envoyees</text>
</g>
<!-- 6bdddaf56d5c4d85bad5951ecdee0069&#45;&gt;ae89695873644ec6a3f3870b2609e5eb -->
<g id="edge13" class="edge">
<title>6bdddaf56d5c4d85bad5951ecdee0069&#45;&gt;ae89695873644ec6a3f3870b2609e5eb</title>
<path fill="none" stroke="#7b8894" d="M475.08,-483.5C475.08,-483.5 716.73,-483.5 716.73,-483.5"/>
<polygon fill="#7b8894" stroke="#7b8894" points="716.73,-487 726.73,-483.5 716.73,-480 716.73,-487"/>
<text text-anchor="middle" x="601" y="-481.6" font-family="Sans-Serif" font-size="13.00" fill="darkgrey">t_mypower_opportunites_envoyees</text>
</g>
<!-- 5f58a996456045be9e187347f2cbdcb4 -->
<g id="node15" class="node">
<title>5f58a996456045be9e187347f2cbdcb4</title>
<image xlink:href="icons/google_analytics.png" width="101px" height="101px" preserveAspectRatio="xMinYMin meet" x="727" y="-745.5"/>
<text text-anchor="middle" x="777.5" y="-629.6" font-family="Sans-Serif" font-size="13.00" fill="#2d3436">UA&#45;55400352&#45;1</text>
<text text-anchor="middle" x="777.5" y="-615.6" font-family="Sans-Serif" font-size="13.00" fill="#2d3436">my_power.t_mypower_opportunites_a_envoyer</text>
</g>
<!-- 6bdddaf56d5c4d85bad5951ecdee0069&#45;&gt;5f58a996456045be9e187347f2cbdcb4 -->
<g id="edge14" class="edge">
<title>6bdddaf56d5c4d85bad5951ecdee0069&#45;&gt;5f58a996456045be9e187347f2cbdcb4</title>
<path fill="none" stroke="#7b8894" d="M442,-535.93C442,-575.41 442,-617.17 442,-617.17 442,-617.17 716.91,-617.17 716.91,-617.17"/>
<polygon fill="#7b8894" stroke="#7b8894" points="716.91,-620.67 726.91,-617.17 716.91,-613.67 716.91,-620.67"/>
<text text-anchor="middle" x="601" y="-632.6" font-family="Sans-Serif" font-size="13.00" fill="darkgrey">t_mypower_opportunites_envoyees</text>
</g>
</g>
</svg>
