<?xml version="1.0" encoding="UTF-8" standalone="no"?>
<!DOCTYPE svg PUBLIC "-//W3C//DTD SVG 1.1//EN"
 "http://www.w3.org/Graphics/SVG/1.1/DTD/svg11.dtd">
<!-- Generated by graphviz version 2.47.1 (20210417.1919)
 -->
<!-- Title: import_data Pages: 1 -->
<svg width="1056pt" height="1493pt"
 viewBox="0.00 0.00 1056.00 1493.00" xmlns="http://www.w3.org/2000/svg" xmlns:xlink="http://www.w3.org/1999/xlink">
<g id="graph0" class="graph" transform="scale(1 1) rotate(0) translate(144 1349)">
<title>import_data</title>
<text text-anchor="middle" x="384" y="-9" font-family="Sans-Serif" font-size="15.00" fill="#2d3436">import_data</text>
<g id="clust1" class="cluster">
<title>cluster_import_data</title>
<path fill="#e5f5fd" stroke="#aeb6be" d="M20,-33C20,-33 748,-33 748,-33 754,-33 760,-39 760,-45 760,-45 760,-1185 760,-1185 760,-1191 754,-1197 748,-1197 748,-1197 20,-1197 20,-1197 14,-1197 8,-1191 8,-1185 8,-1185 8,-45 8,-45 8,-39 14,-33 20,-33"/>
<text text-anchor="middle" x="48.5" y="-1183.4" font-family="Sans-Serif" font-size="12.00" fill="#2d3436">import_data</text>
</g>
<!-- dd164e2d194c4daa998b493791a6e0fa -->
<g id="node1" class="node">
<title>dd164e2d194c4daa998b493791a6e0fa</title>
<image xlink:href="icons/bigquery.png" width="101px" height="101px" preserveAspectRatio="xMinYMin meet" x="16" y="-1121.5"/>
<text text-anchor="middle" x="66.5" y="-1006.1" font-family="Sans-Serif" font-size="13.00" fill="#2d3436">amadeus.e_ama_formulaires_stor</text>
</g>
<!-- 94a88129b6024e7db1f33dc45f2424dc -->
<g id="node2" class="node">
<title>94a88129b6024e7db1f33dc45f2424dc</title>
<image xlink:href="icons/bigquery.png" width="101px" height="101px" preserveAspectRatio="xMinYMin meet" x="352" y="-1014.5"/>
<text text-anchor="middle" x="402.5" y="-899.1" font-family="Sans-Serif" font-size="13.00" fill="#2d3436">amadeus.t_ama_import_data_formulaires</text>
</g>
<!-- dd164e2d194c4daa998b493791a6e0fa&#45;&gt;94a88129b6024e7db1f33dc45f2424dc -->
<g id="edge1" class="edge">
<title>dd164e2d194c4daa998b493791a6e0fa&#45;&gt;94a88129b6024e7db1f33dc45f2424dc</title>
<path fill="none" stroke="#7b8894" d="M117.17,-1017.5C117.17,-1017.5 341.97,-1017.5 341.97,-1017.5"/>
<polygon fill="#7b8894" stroke="#7b8894" points="341.97,-1021 351.97,-1017.5 341.97,-1014 341.97,-1021"/>
<text text-anchor="middle" x="234.5" y="-983.6" font-family="Sans-Serif" font-size="13.00" fill="darkgrey">t_import_data_formulaires</text>
</g>
<!-- 81e38b44efa24ea08f929cd5b6c93ba0 -->
<g id="node4" class="node">
<title>81e38b44efa24ea08f929cd5b6c93ba0</title>
<image xlink:href="icons/storage.png" width="101px" height="101px" preserveAspectRatio="xMinYMin meet" x="651" y="-940.5"/>
<text text-anchor="middle" x="701.5" y="-825.1" font-family="Sans-Serif" font-size="13.00" fill="#2d3436">amadeus_bi/l_to_ga_contrats_formulaires/contrats.csv</text>
</g>
<!-- 94a88129b6024e7db1f33dc45f2424dc&#45;&gt;81e38b44efa24ea08f929cd5b6c93ba0 -->
<g id="edge3" class="edge">
<title>94a88129b6024e7db1f33dc45f2424dc&#45;&gt;81e38b44efa24ea08f929cd5b6c93ba0</title>
<path fill="none" stroke="#7b8894" d="M453.22,-927C453.22,-927 640.53,-927 640.53,-927"/>
<polygon fill="#7b8894" stroke="#7b8894" points="640.53,-930.5 650.53,-927 640.53,-923.5 640.53,-930.5"/>
<text text-anchor="middle" x="552" y="-904.6" font-family="Sans-Serif" font-size="13.00" fill="darkgrey">l_to_ga_formulaires</text>
</g>
<!-- 5774fb0faede4fe3bebe26dc7210d957 -->
<g id="node5" class="node">
<title>5774fb0faede4fe3bebe26dc7210d957</title>
<image xlink:href="icons/google_analytics.png" width="101px" height="101px" preserveAspectRatio="xMinYMin meet" x="651" y="-1135.5"/>
<text text-anchor="middle" x="701.5" y="-1019.6" font-family="Sans-Serif" font-size="13.00" fill="#2d3436">UA&#45;55400352&#45;1</text>
<text text-anchor="middle" x="701.5" y="-1005.6" font-family="Sans-Serif" font-size="13.00" fill="#2d3436">XQtX7fGUTnCqBdwu5n0QLQ</text>
</g>
<!-- 94a88129b6024e7db1f33dc45f2424dc&#45;&gt;5774fb0faede4fe3bebe26dc7210d957 -->
<g id="edge4" class="edge">
<title>94a88129b6024e7db1f33dc45f2424dc&#45;&gt;5774fb0faede4fe3bebe26dc7210d957</title>
<path fill="none" stroke="#7b8894" d="M453.22,-1017.25C453.22,-1017.25 640.53,-1017.25 640.53,-1017.25"/>
<polygon fill="#7b8894" stroke="#7b8894" points="640.53,-1020.75 650.53,-1017.25 640.53,-1013.75 640.53,-1020.75"/>
<text text-anchor="middle" x="552" y="-988.6" font-family="Sans-Serif" font-size="13.00" fill="darkgrey">l_to_ga_formulaires</text>
</g>
<!-- 80db2308b6fd441dae406526f46a5fa6 -->
<g id="node3" class="node">
<title>80db2308b6fd441dae406526f46a5fa6</title>
<image xlink:href="icons/bigquery.png" width="101px" height="101px" preserveAspectRatio="xMinYMin meet" x="16" y="-941.5"/>
<text text-anchor="middle" x="66.5" y="-826.1" font-family="Sans-Serif" font-size="13.00" fill="#2d3436">amadeus.t_import_data_formulaires_valeurs_nulles</text>
</g>
<!-- 80db2308b6fd441dae406526f46a5fa6&#45;&gt;94a88129b6024e7db1f33dc45f2424dc -->
<g id="edge2" class="edge">
<title>80db2308b6fd441dae406526f46a5fa6&#45;&gt;94a88129b6024e7db1f33dc45f2424dc</title>
<path fill="none" stroke="#7b8894" d="M117.17,-927.5C117.17,-927.5 341.97,-927.5 341.97,-927.5"/>
<polygon fill="#7b8894" stroke="#7b8894" points="341.97,-931 351.97,-927.5 341.97,-924 341.97,-931"/>
<text text-anchor="middle" x="234.5" y="-905.6" font-family="Sans-Serif" font-size="13.00" fill="darkgrey">t_import_data_formulaires</text>
</g>
<!-- c6b355c326ad455cbdfe8737dc76c4bd -->
<g id="node6" class="node">
<title>c6b355c326ad455cbdfe8737dc76c4bd</title>
<image xlink:href="icons/bigquery.png" width="101px" height="101px" preserveAspectRatio="xMinYMin meet" x="16" y="-750.5"/>
<text text-anchor="middle" x="66.5" y="-635.1" font-family="Sans-Serif" font-size="13.00" fill="#2d3436">ga.t_ga_sessions</text>
</g>
<!-- 2c0ccde2228c45e6b8c0e665019bd92e -->
<g id="node7" class="node">
<title>2c0ccde2228c45e6b8c0e665019bd92e</title>
<image xlink:href="icons/bigquery.png" width="101px" height="101px" preserveAspectRatio="xMinYMin meet" x="352" y="-720.5"/>
<text text-anchor="middle" x="402.5" y="-605.1" font-family="Sans-Serif" font-size="13.00" fill="#2d3436">amadeus.t_ama_import_data_page_destination</text>
</g>
<!-- c6b355c326ad455cbdfe8737dc76c4bd&#45;&gt;2c0ccde2228c45e6b8c0e665019bd92e -->
<g id="edge5" class="edge">
<title>c6b355c326ad455cbdfe8737dc76c4bd&#45;&gt;2c0ccde2228c45e6b8c0e665019bd92e</title>
<path fill="none" stroke="#7b8894" d="M117.17,-685C117.17,-685 341.97,-685 341.97,-685"/>
<polygon fill="#7b8894" stroke="#7b8894" points="341.97,-688.5 351.97,-685 341.97,-681.5 341.97,-688.5"/>
<text text-anchor="middle" x="234.5" y="-695.6" font-family="Sans-Serif" font-size="13.00" fill="darkgrey">t_import_data_page_destination</text>
</g>
<!-- ed1157089b254cc39a076be90432feb6 -->
<g id="node9" class="node">
<title>ed1157089b254cc39a076be90432feb6</title>
<image xlink:href="icons/storage.png" width="101px" height="101px" preserveAspectRatio="xMinYMin meet" x="651" y="-550.5"/>
<text text-anchor="middle" x="701.5" y="-435.1" font-family="Sans-Serif" font-size="13.00" fill="#2d3436">ga_engie/l_to_ga_page_destination/page_destination.csv</text>
</g>
<!-- 2c0ccde2228c45e6b8c0e665019bd92e&#45;&gt;ed1157089b254cc39a076be90432feb6 -->
<g id="edge7" class="edge">
<title>2c0ccde2228c45e6b8c0e665019bd92e&#45;&gt;ed1157089b254cc39a076be90432feb6</title>
<path fill="none" stroke="#7b8894" d="M453.31,-606.75C538.75,-606.75 702,-606.75 702,-606.75 702,-606.75 702,-578.51 702,-578.51"/>
<polygon fill="#7b8894" stroke="#7b8894" points="705.5,-578.51 702,-568.51 698.5,-578.51 705.5,-578.51"/>
<text text-anchor="middle" x="552" y="-560.6" font-family="Sans-Serif" font-size="13.00" fill="darkgrey">l_to_ga_page_destination</text>
</g>
<!-- fe7ea9be137547fb988dbc1b8ecb5d4d -->
<g id="node10" class="node">
<title>fe7ea9be137547fb988dbc1b8ecb5d4d</title>
<image xlink:href="icons/google_analytics.png" width="101px" height="101px" preserveAspectRatio="xMinYMin meet" x="651" y="-745.5"/>
<text text-anchor="middle" x="701.5" y="-629.6" font-family="Sans-Serif" font-size="13.00" fill="#2d3436">UA&#45;55400352&#45;1</text>
<text text-anchor="middle" x="701.5" y="-615.6" font-family="Sans-Serif" font-size="13.00" fill="#2d3436">Yq4fPPyUR721ZidM1AnRLA</text>
</g>
<!-- 2c0ccde2228c45e6b8c0e665019bd92e&#45;&gt;fe7ea9be137547fb988dbc1b8ecb5d4d -->
<g id="edge8" class="edge">
<title>2c0ccde2228c45e6b8c0e665019bd92e&#45;&gt;fe7ea9be137547fb988dbc1b8ecb5d4d</title>
<path fill="none" stroke="#7b8894" d="M453.22,-675.25C453.22,-675.25 640.53,-675.25 640.53,-675.25"/>
<polygon fill="#7b8894" stroke="#7b8894" points="640.53,-678.75 650.53,-675.25 640.53,-671.75 640.53,-678.75"/>
<text text-anchor="middle" x="552" y="-680.6" font-family="Sans-Serif" font-size="13.00" fill="darkgrey">l_to_ga_page_destination</text>
</g>
<!-- 11ced5d2f4274e64aa0a74d2cd147fad -->
<g id="node8" class="node">
<title>11ced5d2f4274e64aa0a74d2cd147fad</title>
<image xlink:href="icons/bigquery.png" width="101px" height="101px" preserveAspectRatio="xMinYMin meet" x="16" y="-570.5"/>
<text text-anchor="middle" x="66.5" y="-455.1" font-family="Sans-Serif" font-size="13.00" fill="#2d3436">ga.t_import_data_page_destination_valeurs_nulles</text>
</g>
<!-- 11ced5d2f4274e64aa0a74d2cd147fad&#45;&gt;2c0ccde2228c45e6b8c0e665019bd92e -->
<g id="edge6" class="edge">
<title>11ced5d2f4274e64aa0a74d2cd147fad&#45;&gt;2c0ccde2228c45e6b8c0e665019bd92e</title>
<path fill="none" stroke="#7b8894" d="M117.24,-578.5C211.25,-578.5 403,-578.5 403,-578.5 403,-578.5 403,-591.12 403,-591.12"/>
<polygon fill="#7b8894" stroke="#7b8894" points="399.5,-591.12 403,-601.12 406.5,-591.12 399.5,-591.12"/>
<text text-anchor="middle" x="234.5" y="-578.6" font-family="Sans-Serif" font-size="13.00" fill="darkgrey">t_import_data_page_destination</text>
</g>
<!-- 2d9994a43456431188697295619e3c6b -->
<g id="node11" class="node">
<title>2d9994a43456431188697295619e3c6b</title>
<image xlink:href="icons/bigquery.png" width="101px" height="101px" preserveAspectRatio="xMinYMin meet" x="16" y="-361.5"/>
<text text-anchor="middle" x="66.5" y="-246.1" font-family="Sans-Serif" font-size="13.00" fill="#2d3436">my_power_eu.vente</text>
</g>
<!-- b70d2ca4076f49f5a687eb2b790401cf -->
<g id="node12" class="node">
<title>b70d2ca4076f49f5a687eb2b790401cf</title>
<image xlink:href="icons/bigquery.png" width="101px" height="101px" preserveAspectRatio="xMinYMin meet" x="352" y="-344.5"/>
<text text-anchor="middle" x="402.5" y="-229.1" font-family="Sans-Serif" font-size="13.00" fill="#2d3436">my_power_eu.t_sf_mypower_contrats</text>
</g>
<!-- 2d9994a43456431188697295619e3c6b&#45;&gt;b70d2ca4076f49f5a687eb2b790401cf -->
<g id="edge9" class="edge">
<title>2d9994a43456431188697295619e3c6b&#45;&gt;b70d2ca4076f49f5a687eb2b790401cf</title>
<path fill="none" stroke="#7b8894" d="M117.17,-302.5C117.17,-302.5 341.97,-302.5 341.97,-302.5"/>
<polygon fill="#7b8894" stroke="#7b8894" points="341.97,-306 351.97,-302.5 341.97,-299 341.97,-306"/>
<text text-anchor="middle" x="234.5" y="-303.6" font-family="Sans-Serif" font-size="13.00" fill="darkgrey">t_import_data_mypower</text>
</g>
<!-- 38ec34fa8c3d4449a9d8f53ffe71178e -->
<g id="node14" class="node">
<title>38ec34fa8c3d4449a9d8f53ffe71178e</title>
<image xlink:href="icons/storage.png" width="101px" height="101px" preserveAspectRatio="xMinYMin meet" x="651" y="-160.5"/>
<text text-anchor="middle" x="701.5" y="-45.1" font-family="Sans-Serif" font-size="13.00" fill="#2d3436">amadeus_bi/test_spreadsheet/mypower.csv</text>
</g>
<!-- b70d2ca4076f49f5a687eb2b790401cf&#45;&gt;38ec34fa8c3d4449a9d8f53ffe71178e -->
<g id="edge11" class="edge">
<title>b70d2ca4076f49f5a687eb2b790401cf&#45;&gt;38ec34fa8c3d4449a9d8f53ffe71178e</title>
<path fill="none" stroke="#7b8894" d="M403,-225.43C403,-176.93 403,-120.5 403,-120.5 403,-120.5 640.86,-120.5 640.86,-120.5"/>
<polygon fill="#7b8894" stroke="#7b8894" points="640.86,-124 650.86,-120.5 640.86,-117 640.86,-124"/>
<text text-anchor="middle" x="552" y="-177.6" font-family="Sans-Serif" font-size="13.00" fill="darkgrey">l_to_ga_mypower</text>
</g>
<!-- 5b4c8d29a55641ee98c01cfa8cdeecfc -->
<g id="node15" class="node">
<title>5b4c8d29a55641ee98c01cfa8cdeecfc</title>
<image xlink:href="icons/google_analytics.png" width="101px" height="101px" preserveAspectRatio="xMinYMin meet" x="651" y="-355.5"/>
<text text-anchor="middle" x="701.5" y="-239.6" font-family="Sans-Serif" font-size="13.00" fill="#2d3436">UA&#45;55400352&#45;1</text>
<text text-anchor="middle" x="701.5" y="-225.6" font-family="Sans-Serif" font-size="13.00" fill="#2d3436">hwqt699ETJiIjHpvGJCvEw</text>
</g>
<!-- b70d2ca4076f49f5a687eb2b790401cf&#45;&gt;5b4c8d29a55641ee98c01cfa8cdeecfc -->
<g id="edge12" class="edge">
<title>b70d2ca4076f49f5a687eb2b790401cf&#45;&gt;5b4c8d29a55641ee98c01cfa8cdeecfc</title>
<path fill="none" stroke="#7b8894" d="M453.22,-294C453.22,-294 640.53,-294 640.53,-294"/>
<polygon fill="#7b8894" stroke="#7b8894" points="640.53,-297.5 650.53,-294 640.53,-290.5 640.53,-297.5"/>
<text text-anchor="middle" x="552" y="-304.6" font-family="Sans-Serif" font-size="13.00" fill="darkgrey">l_to_ga_mypower</text>
</g>
<!-- 31acb627156146939a34c7cd7f26e203 -->
<g id="node13" class="node">
<title>31acb627156146939a34c7cd7f26e203</title>
<image xlink:href="icons/bigquery.png" width="101px" height="101px" preserveAspectRatio="xMinYMin meet" x="16" y="-181.5"/>
<text text-anchor="middle" x="66.5" y="-66.1" font-family="Sans-Serif" font-size="13.00" fill="#2d3436">my_power_eu.opportunite</text>
</g>
<!-- 31acb627156146939a34c7cd7f26e203&#45;&gt;b70d2ca4076f49f5a687eb2b790401cf -->
<g id="edge10" class="edge">
<title>31acb627156146939a34c7cd7f26e203&#45;&gt;b70d2ca4076f49f5a687eb2b790401cf</title>
<path fill="none" stroke="#7b8894" d="M67,-199.7C67,-218.6 67,-234 67,-234 67,-234 341.91,-234 341.91,-234"/>
<polygon fill="#7b8894" stroke="#7b8894" points="341.91,-237.5 351.91,-234 341.91,-230.5 341.91,-237.5"/>
<text text-anchor="middle" x="234.5" y="-187.6" font-family="Sans-Serif" font-size="13.00" fill="darkgrey">t_import_data_mypower</text>
</g>
</g>
</svg>
