<?xml version="1.0" encoding="UTF-8" standalone="no"?>
<!DOCTYPE svg PUBLIC "-//W3C//DTD SVG 1.1//EN"
 "http://www.w3.org/Graphics/SVG/1.1/DTD/svg11.dtd">
<!-- Generated by graphviz version 2.47.1 (20210417.1919)
 -->
<!-- Title: import_data Pages: 1 -->
<svg width="1056pt" height="1493pt"
 viewBox="0.00 0.00 1056.00 1493.00" xmlns="http://www.w3.org/2000/svg" xmlns:xlink="http://www.w3.org/1999/xlink">
<g id="graph0" class="graph" transform="scale(1 1) rotate(0) translate(144 1349)">
<title>import_data</title>
<text text-anchor="middle" x="384" y="-9" font-family="Sans-Serif" font-size="15.00" fill="#2d3436">import_data</text>
<g id="clust1" class="cluster">
<title>cluster_import_data</title>
<path fill="#e5f5fd" stroke="#aeb6be" d="M20,-33C20,-33 748,-33 748,-33 754,-33 760,-39 760,-45 760,-45 760,-1185 760,-1185 760,-1191 754,-1197 748,-1197 748,-1197 20,-1197 20,-1197 14,-1197 8,-1191 8,-1185 8,-1185 8,-45 8,-45 8,-39 14,-33 20,-33"/>
<text text-anchor="middle" x="48.5" y="-1183.4" font-family="Sans-Serif" font-size="12.00" fill="#2d3436">import_data</text>
</g>
<!-- 20e359ab0a7047e4a1b175376dfcf97b -->
<g id="node1" class="node">
<title>20e359ab0a7047e4a1b175376dfcf97b</title>
<image xlink:href="icons/bigquery.png" width="101px" height="101px" preserveAspectRatio="xMinYMin meet" x="16" y="-1121.5"/>
<text text-anchor="middle" x="66.5" y="-1006.1" font-family="Sans-Serif" font-size="13.00" fill="#2d3436">amadeus.e_ama_formulaires_stor</text>
</g>
<!-- 548faa49ccf14e59ab4e7dc1b6dca284 -->
<g id="node2" class="node">
<title>548faa49ccf14e59ab4e7dc1b6dca284</title>
<image xlink:href="icons/bigquery.png" width="101px" height="101px" preserveAspectRatio="xMinYMin meet" x="352" y="-1014.5"/>
<text text-anchor="middle" x="402.5" y="-899.1" font-family="Sans-Serif" font-size="13.00" fill="#2d3436">amadeus.t_ama_import_data_formulaires</text>
</g>
<!-- 20e359ab0a7047e4a1b175376dfcf97b&#45;&gt;548faa49ccf14e59ab4e7dc1b6dca284 -->
<g id="edge1" class="edge">
<title>20e359ab0a7047e4a1b175376dfcf97b&#45;&gt;548faa49ccf14e59ab4e7dc1b6dca284</title>
<path fill="none" stroke="#7b8894" d="M117.17,-1017.5C117.17,-1017.5 341.97,-1017.5 341.97,-1017.5"/>
<polygon fill="#7b8894" stroke="#7b8894" points="341.97,-1021 351.97,-1017.5 341.97,-1014 341.97,-1021"/>
<text text-anchor="middle" x="234.5" y="-983.6" font-family="Sans-Serif" font-size="13.00" fill="darkgrey">t_import_data_formulaires</text>
</g>
<!-- 6f8916da26414ac59c01ba6fb056e4e1 -->
<g id="node4" class="node">
<title>6f8916da26414ac59c01ba6fb056e4e1</title>
<image xlink:href="icons/storage.png" width="101px" height="101px" preserveAspectRatio="xMinYMin meet" x="651" y="-940.5"/>
<text text-anchor="middle" x="701.5" y="-825.1" font-family="Sans-Serif" font-size="13.00" fill="#2d3436">amadeus_bi/l_to_ga_contrats_formulaires/contrats.csv</text>
</g>
<!-- 548faa49ccf14e59ab4e7dc1b6dca284&#45;&gt;6f8916da26414ac59c01ba6fb056e4e1 -->
<g id="edge3" class="edge">
<title>548faa49ccf14e59ab4e7dc1b6dca284&#45;&gt;6f8916da26414ac59c01ba6fb056e4e1</title>
<path fill="none" stroke="#7b8894" d="M453.22,-927C453.22,-927 640.53,-927 640.53,-927"/>
<polygon fill="#7b8894" stroke="#7b8894" points="640.53,-930.5 650.53,-927 640.53,-923.5 640.53,-930.5"/>
<text text-anchor="middle" x="552" y="-904.6" font-family="Sans-Serif" font-size="13.00" fill="darkgrey">l_to_ga_formulaires</text>
</g>
<!-- 9fcb20f3ea234ebfb01c59b70b34a66e -->
<g id="node5" class="node">
<title>9fcb20f3ea234ebfb01c59b70b34a66e</title>
<image xlink:href="icons/google_analytics.png" width="101px" height="101px" preserveAspectRatio="xMinYMin meet" x="651" y="-1135.5"/>
<text text-anchor="middle" x="701.5" y="-1019.6" font-family="Sans-Serif" font-size="13.00" fill="#2d3436">UA&#45;55400352&#45;1</text>
<text text-anchor="middle" x="701.5" y="-1005.6" font-family="Sans-Serif" font-size="13.00" fill="#2d3436">XQtX7fGUTnCqBdwu5n0QLQ</text>
</g>
<!-- 548faa49ccf14e59ab4e7dc1b6dca284&#45;&gt;9fcb20f3ea234ebfb01c59b70b34a66e -->
<g id="edge4" class="edge">
<title>548faa49ccf14e59ab4e7dc1b6dca284&#45;&gt;9fcb20f3ea234ebfb01c59b70b34a66e</title>
<path fill="none" stroke="#7b8894" d="M453.22,-1017.25C453.22,-1017.25 640.53,-1017.25 640.53,-1017.25"/>
<polygon fill="#7b8894" stroke="#7b8894" points="640.53,-1020.75 650.53,-1017.25 640.53,-1013.75 640.53,-1020.75"/>
<text text-anchor="middle" x="552" y="-988.6" font-family="Sans-Serif" font-size="13.00" fill="darkgrey">l_to_ga_formulaires</text>
</g>
<!-- 797a50face5e4d5fa9d247b833e760fc -->
<g id="node3" class="node">
<title>797a50face5e4d5fa9d247b833e760fc</title>
<image xlink:href="icons/bigquery.png" width="101px" height="101px" preserveAspectRatio="xMinYMin meet" x="16" y="-941.5"/>
<text text-anchor="middle" x="66.5" y="-826.1" font-family="Sans-Serif" font-size="13.00" fill="#2d3436">amadeus.t_import_data_formulaires_valeurs_nulles</text>
</g>
<!-- 797a50face5e4d5fa9d247b833e760fc&#45;&gt;548faa49ccf14e59ab4e7dc1b6dca284 -->
<g id="edge2" class="edge">
<title>797a50face5e4d5fa9d247b833e760fc&#45;&gt;548faa49ccf14e59ab4e7dc1b6dca284</title>
<path fill="none" stroke="#7b8894" d="M117.17,-927.5C117.17,-927.5 341.97,-927.5 341.97,-927.5"/>
<polygon fill="#7b8894" stroke="#7b8894" points="341.97,-931 351.97,-927.5 341.97,-924 341.97,-931"/>
<text text-anchor="middle" x="234.5" y="-905.6" font-family="Sans-Serif" font-size="13.00" fill="darkgrey">t_import_data_formulaires</text>
</g>
<!-- 3b21af1bb11f439690d7ae2f77e0c2b4 -->
<g id="node6" class="node">
<title>3b21af1bb11f439690d7ae2f77e0c2b4</title>
<image xlink:href="icons/bigquery.png" width="101px" height="101px" preserveAspectRatio="xMinYMin meet" x="16" y="-750.5"/>
<text text-anchor="middle" x="66.5" y="-635.1" font-family="Sans-Serif" font-size="13.00" fill="#2d3436">ga.t_ga_sessions</text>
</g>
<!-- c642ebeef19c42b0ad8410a7778cdc94 -->
<g id="node7" class="node">
<title>c642ebeef19c42b0ad8410a7778cdc94</title>
<image xlink:href="icons/bigquery.png" width="101px" height="101px" preserveAspectRatio="xMinYMin meet" x="352" y="-720.5"/>
<text text-anchor="middle" x="402.5" y="-605.1" font-family="Sans-Serif" font-size="13.00" fill="#2d3436">amadeus.t_ama_import_data_page_destination</text>
</g>
<!-- 3b21af1bb11f439690d7ae2f77e0c2b4&#45;&gt;c642ebeef19c42b0ad8410a7778cdc94 -->
<g id="edge5" class="edge">
<title>3b21af1bb11f439690d7ae2f77e0c2b4&#45;&gt;c642ebeef19c42b0ad8410a7778cdc94</title>
<path fill="none" stroke="#7b8894" d="M117.17,-685C117.17,-685 341.97,-685 341.97,-685"/>
<polygon fill="#7b8894" stroke="#7b8894" points="341.97,-688.5 351.97,-685 341.97,-681.5 341.97,-688.5"/>
<text text-anchor="middle" x="234.5" y="-695.6" font-family="Sans-Serif" font-size="13.00" fill="darkgrey">t_import_data_page_destination</text>
</g>
<!-- 30ffd53ae6004a87b4f8d6b631b590b6 -->
<g id="node9" class="node">
<title>30ffd53ae6004a87b4f8d6b631b590b6</title>
<image xlink:href="icons/storage.png" width="101px" height="101px" preserveAspectRatio="xMinYMin meet" x="651" y="-550.5"/>
<text text-anchor="middle" x="701.5" y="-435.1" font-family="Sans-Serif" font-size="13.00" fill="#2d3436">ga_engie/l_to_ga_page_destination/page_destination.csv</text>
</g>
<!-- c642ebeef19c42b0ad8410a7778cdc94&#45;&gt;30ffd53ae6004a87b4f8d6b631b590b6 -->
<g id="edge7" class="edge">
<title>c642ebeef19c42b0ad8410a7778cdc94&#45;&gt;30ffd53ae6004a87b4f8d6b631b590b6</title>
<path fill="none" stroke="#7b8894" d="M453.31,-606.75C538.75,-606.75 702,-606.75 702,-606.75 702,-606.75 702,-578.51 702,-578.51"/>
<polygon fill="#7b8894" stroke="#7b8894" points="705.5,-578.51 702,-568.51 698.5,-578.51 705.5,-578.51"/>
<text text-anchor="middle" x="552" y="-560.6" font-family="Sans-Serif" font-size="13.00" fill="darkgrey">l_to_ga_page_destination</text>
</g>
<!-- ddaba291607f4eaeaf5ecd1dafee464b -->
<g id="node10" class="node">
<title>ddaba291607f4eaeaf5ecd1dafee464b</title>
<image xlink:href="icons/google_analytics.png" width="101px" height="101px" preserveAspectRatio="xMinYMin meet" x="651" y="-745.5"/>
<text text-anchor="middle" x="701.5" y="-629.6" font-family="Sans-Serif" font-size="13.00" fill="#2d3436">UA&#45;55400352&#45;1</text>
<text text-anchor="middle" x="701.5" y="-615.6" font-family="Sans-Serif" font-size="13.00" fill="#2d3436">Yq4fPPyUR721ZidM1AnRLA</text>
</g>
<!-- c642ebeef19c42b0ad8410a7778cdc94&#45;&gt;ddaba291607f4eaeaf5ecd1dafee464b -->
<g id="edge8" class="edge">
<title>c642ebeef19c42b0ad8410a7778cdc94&#45;&gt;ddaba291607f4eaeaf5ecd1dafee464b</title>
<path fill="none" stroke="#7b8894" d="M453.22,-675.25C453.22,-675.25 640.53,-675.25 640.53,-675.25"/>
<polygon fill="#7b8894" stroke="#7b8894" points="640.53,-678.75 650.53,-675.25 640.53,-671.75 640.53,-678.75"/>
<text text-anchor="middle" x="552" y="-680.6" font-family="Sans-Serif" font-size="13.00" fill="darkgrey">l_to_ga_page_destination</text>
</g>
<!-- d121feda398f49a49f83015485752ddf -->
<g id="node8" class="node">
<title>d121feda398f49a49f83015485752ddf</title>
<image xlink:href="icons/bigquery.png" width="101px" height="101px" preserveAspectRatio="xMinYMin meet" x="16" y="-570.5"/>
<text text-anchor="middle" x="66.5" y="-455.1" font-family="Sans-Serif" font-size="13.00" fill="#2d3436">[?config?].t_import_data_page_destination_valeurs_nulles</text>
</g>
<!-- d121feda398f49a49f83015485752ddf&#45;&gt;c642ebeef19c42b0ad8410a7778cdc94 -->
<g id="edge6" class="edge">
<title>d121feda398f49a49f83015485752ddf&#45;&gt;c642ebeef19c42b0ad8410a7778cdc94</title>
<path fill="none" stroke="#7b8894" d="M117.24,-578.5C211.25,-578.5 403,-578.5 403,-578.5 403,-578.5 403,-591.12 403,-591.12"/>
<polygon fill="#7b8894" stroke="#7b8894" points="399.5,-591.12 403,-601.12 406.5,-591.12 399.5,-591.12"/>
<text text-anchor="middle" x="234.5" y="-578.6" font-family="Sans-Serif" font-size="13.00" fill="darkgrey">t_import_data_page_destination</text>
</g>
<!-- 061f66189acc4829ae5bcf3a5cfc3936 -->
<g id="node11" class="node">
<title>061f66189acc4829ae5bcf3a5cfc3936</title>
<image xlink:href="icons/bigquery.png" width="101px" height="101px" preserveAspectRatio="xMinYMin meet" x="16" y="-361.5"/>
<text text-anchor="middle" x="66.5" y="-246.1" font-family="Sans-Serif" font-size="13.00" fill="#2d3436">my_power_eu.vente</text>
</g>
<!-- 2ae6a1c538ce4eb5ac6e362bcb6ddf6e -->
<g id="node12" class="node">
<title>2ae6a1c538ce4eb5ac6e362bcb6ddf6e</title>
<image xlink:href="icons/bigquery.png" width="101px" height="101px" preserveAspectRatio="xMinYMin meet" x="352" y="-344.5"/>
<text text-anchor="middle" x="402.5" y="-229.1" font-family="Sans-Serif" font-size="13.00" fill="#2d3436">my_power_eu.t_sf_mypower_contrats</text>
</g>
<!-- 061f66189acc4829ae5bcf3a5cfc3936&#45;&gt;2ae6a1c538ce4eb5ac6e362bcb6ddf6e -->
<g id="edge9" class="edge">
<title>061f66189acc4829ae5bcf3a5cfc3936&#45;&gt;2ae6a1c538ce4eb5ac6e362bcb6ddf6e</title>
<path fill="none" stroke="#7b8894" d="M117.17,-302.5C117.17,-302.5 341.97,-302.5 341.97,-302.5"/>
<polygon fill="#7b8894" stroke="#7b8894" points="341.97,-306 351.97,-302.5 341.97,-299 341.97,-306"/>
<text text-anchor="middle" x="234.5" y="-303.6" font-family="Sans-Serif" font-size="13.00" fill="darkgrey">t_import_data_mypower</text>
</g>
<!-- c37d1c135af14f9698e3be58736d3ef2 -->
<g id="node14" class="node">
<title>c37d1c135af14f9698e3be58736d3ef2</title>
<image xlink:href="icons/storage.png" width="101px" height="101px" preserveAspectRatio="xMinYMin meet" x="651" y="-160.5"/>
<text text-anchor="middle" x="701.5" y="-45.1" font-family="Sans-Serif" font-size="13.00" fill="#2d3436">amadeus_bi/test_spreadsheet/mypower.csv</text>
</g>
<!-- 2ae6a1c538ce4eb5ac6e362bcb6ddf6e&#45;&gt;c37d1c135af14f9698e3be58736d3ef2 -->
<g id="edge11" class="edge">
<title>2ae6a1c538ce4eb5ac6e362bcb6ddf6e&#45;&gt;c37d1c135af14f9698e3be58736d3ef2</title>
<path fill="none" stroke="#7b8894" d="M403,-225.43C403,-176.93 403,-120.5 403,-120.5 403,-120.5 640.86,-120.5 640.86,-120.5"/>
<polygon fill="#7b8894" stroke="#7b8894" points="640.86,-124 650.86,-120.5 640.86,-117 640.86,-124"/>
<text text-anchor="middle" x="552" y="-177.6" font-family="Sans-Serif" font-size="13.00" fill="darkgrey">l_to_ga_mypower</text>
</g>
<!-- 18c5271f6dad4a64886d01db5c697770 -->
<g id="node15" class="node">
<title>18c5271f6dad4a64886d01db5c697770</title>
<image xlink:href="icons/google_analytics.png" width="101px" height="101px" preserveAspectRatio="xMinYMin meet" x="651" y="-355.5"/>
<text text-anchor="middle" x="701.5" y="-239.6" font-family="Sans-Serif" font-size="13.00" fill="#2d3436">UA&#45;55400352&#45;1</text>
<text text-anchor="middle" x="701.5" y="-225.6" font-family="Sans-Serif" font-size="13.00" fill="#2d3436">hwqt699ETJiIjHpvGJCvEw</text>
</g>
<!-- 2ae6a1c538ce4eb5ac6e362bcb6ddf6e&#45;&gt;18c5271f6dad4a64886d01db5c697770 -->
<g id="edge12" class="edge">
<title>2ae6a1c538ce4eb5ac6e362bcb6ddf6e&#45;&gt;18c5271f6dad4a64886d01db5c697770</title>
<path fill="none" stroke="#7b8894" d="M453.22,-294C453.22,-294 640.53,-294 640.53,-294"/>
<polygon fill="#7b8894" stroke="#7b8894" points="640.53,-297.5 650.53,-294 640.53,-290.5 640.53,-297.5"/>
<text text-anchor="middle" x="552" y="-304.6" font-family="Sans-Serif" font-size="13.00" fill="darkgrey">l_to_ga_mypower</text>
</g>
<!-- 180bbf67b0924fbfbd2d46fcc2a7f4b6 -->
<g id="node13" class="node">
<title>180bbf67b0924fbfbd2d46fcc2a7f4b6</title>
<image xlink:href="icons/bigquery.png" width="101px" height="101px" preserveAspectRatio="xMinYMin meet" x="16" y="-181.5"/>
<text text-anchor="middle" x="66.5" y="-66.1" font-family="Sans-Serif" font-size="13.00" fill="#2d3436">my_power_eu.opportunite</text>
</g>
<!-- 180bbf67b0924fbfbd2d46fcc2a7f4b6&#45;&gt;2ae6a1c538ce4eb5ac6e362bcb6ddf6e -->
<g id="edge10" class="edge">
<title>180bbf67b0924fbfbd2d46fcc2a7f4b6&#45;&gt;2ae6a1c538ce4eb5ac6e362bcb6ddf6e</title>
<path fill="none" stroke="#7b8894" d="M67,-199.7C67,-218.6 67,-234 67,-234 67,-234 341.91,-234 341.91,-234"/>
<polygon fill="#7b8894" stroke="#7b8894" points="341.91,-237.5 351.91,-234 341.91,-230.5 341.91,-237.5"/>
<text text-anchor="middle" x="234.5" y="-187.6" font-family="Sans-Serif" font-size="13.00" fill="darkgrey">t_import_data_mypower</text>
</g>
</g>
</svg>
