<?xml version="1.0" encoding="UTF-8" standalone="no"?>
<!DOCTYPE svg PUBLIC "-//W3C//DTD SVG 1.1//EN"
 "http://www.w3.org/Graphics/SVG/1.1/DTD/svg11.dtd">
<!-- Generated by graphviz version 2.47.1 (20210417.1919)
 -->
<!-- Title: import_data Pages: 1 -->
<svg width="1056pt" height="1493pt"
 viewBox="0.00 0.00 1056.00 1493.00" xmlns="http://www.w3.org/2000/svg" xmlns:xlink="http://www.w3.org/1999/xlink">
<g id="graph0" class="graph" transform="scale(1 1) rotate(0) translate(144 1349)">
<title>import_data</title>
<text text-anchor="middle" x="384" y="-9" font-family="Sans-Serif" font-size="15.00" fill="#2d3436">import_data</text>
<g id="clust1" class="cluster">
<title>cluster_import_data</title>
<path fill="#e5f5fd" stroke="#aeb6be" d="M20,-33C20,-33 748,-33 748,-33 754,-33 760,-39 760,-45 760,-45 760,-1185 760,-1185 760,-1191 754,-1197 748,-1197 748,-1197 20,-1197 20,-1197 14,-1197 8,-1191 8,-1185 8,-1185 8,-45 8,-45 8,-39 14,-33 20,-33"/>
<text text-anchor="middle" x="48.5" y="-1183.4" font-family="Sans-Serif" font-size="12.00" fill="#2d3436">import_data</text>
</g>
<!-- 80c741532bfc43f7a6569a7bf15220f5 -->
<g id="node1" class="node">
<title>80c741532bfc43f7a6569a7bf15220f5</title>
<image xlink:href="icons/bigquery.png" width="101px" height="101px" preserveAspectRatio="xMinYMin meet" x="16" y="-1121.5"/>
<text text-anchor="middle" x="66.5" y="-1006.1" font-family="Sans-Serif" font-size="13.00" fill="#2d3436">amadeus.e_ama_formulaires_stor</text>
</g>
<!-- 3531e0dca606485aa7c3dc2624760d99 -->
<g id="node2" class="node">
<title>3531e0dca606485aa7c3dc2624760d99</title>
<image xlink:href="icons/bigquery.png" width="101px" height="101px" preserveAspectRatio="xMinYMin meet" x="352" y="-1014.5"/>
<text text-anchor="middle" x="402.5" y="-899.1" font-family="Sans-Serif" font-size="13.00" fill="#2d3436">amadeus.t_ama_import_data_formulaires</text>
</g>
<!-- 80c741532bfc43f7a6569a7bf15220f5&#45;&gt;3531e0dca606485aa7c3dc2624760d99 -->
<g id="edge1" class="edge">
<title>80c741532bfc43f7a6569a7bf15220f5&#45;&gt;3531e0dca606485aa7c3dc2624760d99</title>
<path fill="none" stroke="#7b8894" d="M117.17,-1017.5C117.17,-1017.5 341.97,-1017.5 341.97,-1017.5"/>
<polygon fill="#7b8894" stroke="#7b8894" points="341.97,-1021 351.97,-1017.5 341.97,-1014 341.97,-1021"/>
<text text-anchor="middle" x="234.5" y="-983.6" font-family="Sans-Serif" font-size="13.00" fill="darkgrey">t_import_data_formulaires</text>
</g>
<!-- f7ff472e33764224b6b38b6e49306f0c -->
<g id="node4" class="node">
<title>f7ff472e33764224b6b38b6e49306f0c</title>
<image xlink:href="icons/storage.png" width="101px" height="101px" preserveAspectRatio="xMinYMin meet" x="651" y="-940.5"/>
<text text-anchor="middle" x="701.5" y="-825.1" font-family="Sans-Serif" font-size="13.00" fill="#2d3436">amadeus_bi/l_to_ga_contrats_formulaires/contrats.csv</text>
</g>
<!-- 3531e0dca606485aa7c3dc2624760d99&#45;&gt;f7ff472e33764224b6b38b6e49306f0c -->
<g id="edge3" class="edge">
<title>3531e0dca606485aa7c3dc2624760d99&#45;&gt;f7ff472e33764224b6b38b6e49306f0c</title>
<path fill="none" stroke="#7b8894" d="M453.22,-927C453.22,-927 640.53,-927 640.53,-927"/>
<polygon fill="#7b8894" stroke="#7b8894" points="640.53,-930.5 650.53,-927 640.53,-923.5 640.53,-930.5"/>
<text text-anchor="middle" x="552" y="-904.6" font-family="Sans-Serif" font-size="13.00" fill="darkgrey">l_to_ga_formulaires</text>
</g>
<!-- d360704bd3fb46f19cbdc23f8099fe74 -->
<g id="node5" class="node">
<title>d360704bd3fb46f19cbdc23f8099fe74</title>
<image xlink:href="icons/google_analytics.png" width="101px" height="101px" preserveAspectRatio="xMinYMin meet" x="651" y="-1135.5"/>
<text text-anchor="middle" x="701.5" y="-1019.6" font-family="Sans-Serif" font-size="13.00" fill="#2d3436">UA&#45;55400352&#45;1</text>
<text text-anchor="middle" x="701.5" y="-1005.6" font-family="Sans-Serif" font-size="13.00" fill="#2d3436">XQtX7fGUTnCqBdwu5n0QLQ</text>
</g>
<!-- 3531e0dca606485aa7c3dc2624760d99&#45;&gt;d360704bd3fb46f19cbdc23f8099fe74 -->
<g id="edge4" class="edge">
<title>3531e0dca606485aa7c3dc2624760d99&#45;&gt;d360704bd3fb46f19cbdc23f8099fe74</title>
<path fill="none" stroke="#7b8894" d="M453.22,-1017.25C453.22,-1017.25 640.53,-1017.25 640.53,-1017.25"/>
<polygon fill="#7b8894" stroke="#7b8894" points="640.53,-1020.75 650.53,-1017.25 640.53,-1013.75 640.53,-1020.75"/>
<text text-anchor="middle" x="552" y="-988.6" font-family="Sans-Serif" font-size="13.00" fill="darkgrey">l_to_ga_formulaires</text>
</g>
<!-- 566f230a977547eb95f6987e9cec9515 -->
<g id="node3" class="node">
<title>566f230a977547eb95f6987e9cec9515</title>
<image xlink:href="icons/bigquery.png" width="101px" height="101px" preserveAspectRatio="xMinYMin meet" x="16" y="-941.5"/>
<text text-anchor="middle" x="66.5" y="-826.1" font-family="Sans-Serif" font-size="13.00" fill="#2d3436">amadeus.t_import_data_formulaires_valeurs_nulles</text>
</g>
<!-- 566f230a977547eb95f6987e9cec9515&#45;&gt;3531e0dca606485aa7c3dc2624760d99 -->
<g id="edge2" class="edge">
<title>566f230a977547eb95f6987e9cec9515&#45;&gt;3531e0dca606485aa7c3dc2624760d99</title>
<path fill="none" stroke="#7b8894" d="M117.17,-927.5C117.17,-927.5 341.97,-927.5 341.97,-927.5"/>
<polygon fill="#7b8894" stroke="#7b8894" points="341.97,-931 351.97,-927.5 341.97,-924 341.97,-931"/>
<text text-anchor="middle" x="234.5" y="-905.6" font-family="Sans-Serif" font-size="13.00" fill="darkgrey">t_import_data_formulaires</text>
</g>
<!-- dfac0c8bfbf342429720d99ee1422cf0 -->
<g id="node6" class="node">
<title>dfac0c8bfbf342429720d99ee1422cf0</title>
<image xlink:href="icons/bigquery.png" width="101px" height="101px" preserveAspectRatio="xMinYMin meet" x="16" y="-750.5"/>
<text text-anchor="middle" x="66.5" y="-635.1" font-family="Sans-Serif" font-size="13.00" fill="#2d3436">ga.t_ga_sessions</text>
</g>
<!-- 3da47050b6ab428aae990cd609dcf102 -->
<g id="node7" class="node">
<title>3da47050b6ab428aae990cd609dcf102</title>
<image xlink:href="icons/bigquery.png" width="101px" height="101px" preserveAspectRatio="xMinYMin meet" x="352" y="-720.5"/>
<text text-anchor="middle" x="402.5" y="-605.1" font-family="Sans-Serif" font-size="13.00" fill="#2d3436">amadeus.t_ama_import_data_page_destination</text>
</g>
<!-- dfac0c8bfbf342429720d99ee1422cf0&#45;&gt;3da47050b6ab428aae990cd609dcf102 -->
<g id="edge5" class="edge">
<title>dfac0c8bfbf342429720d99ee1422cf0&#45;&gt;3da47050b6ab428aae990cd609dcf102</title>
<path fill="none" stroke="#7b8894" d="M117.17,-685C117.17,-685 341.97,-685 341.97,-685"/>
<polygon fill="#7b8894" stroke="#7b8894" points="341.97,-688.5 351.97,-685 341.97,-681.5 341.97,-688.5"/>
<text text-anchor="middle" x="234.5" y="-695.6" font-family="Sans-Serif" font-size="13.00" fill="darkgrey">t_import_data_page_destination</text>
</g>
<!-- 2bbac10fdf35447596e145a4c24adb09 -->
<g id="node9" class="node">
<title>2bbac10fdf35447596e145a4c24adb09</title>
<image xlink:href="icons/storage.png" width="101px" height="101px" preserveAspectRatio="xMinYMin meet" x="651" y="-550.5"/>
<text text-anchor="middle" x="701.5" y="-435.1" font-family="Sans-Serif" font-size="13.00" fill="#2d3436">ga_engie/l_to_ga_page_destination/page_destination.csv</text>
</g>
<!-- 3da47050b6ab428aae990cd609dcf102&#45;&gt;2bbac10fdf35447596e145a4c24adb09 -->
<g id="edge7" class="edge">
<title>3da47050b6ab428aae990cd609dcf102&#45;&gt;2bbac10fdf35447596e145a4c24adb09</title>
<path fill="none" stroke="#7b8894" d="M453.31,-606.75C538.75,-606.75 702,-606.75 702,-606.75 702,-606.75 702,-578.51 702,-578.51"/>
<polygon fill="#7b8894" stroke="#7b8894" points="705.5,-578.51 702,-568.51 698.5,-578.51 705.5,-578.51"/>
<text text-anchor="middle" x="552" y="-560.6" font-family="Sans-Serif" font-size="13.00" fill="darkgrey">l_to_ga_page_destination</text>
</g>
<!-- 628173dff1a14898bdf31eda2749b8e2 -->
<g id="node10" class="node">
<title>628173dff1a14898bdf31eda2749b8e2</title>
<image xlink:href="icons/google_analytics.png" width="101px" height="101px" preserveAspectRatio="xMinYMin meet" x="651" y="-745.5"/>
<text text-anchor="middle" x="701.5" y="-629.6" font-family="Sans-Serif" font-size="13.00" fill="#2d3436">UA&#45;55400352&#45;1</text>
<text text-anchor="middle" x="701.5" y="-615.6" font-family="Sans-Serif" font-size="13.00" fill="#2d3436">Yq4fPPyUR721ZidM1AnRLA</text>
</g>
<!-- 3da47050b6ab428aae990cd609dcf102&#45;&gt;628173dff1a14898bdf31eda2749b8e2 -->
<g id="edge8" class="edge">
<title>3da47050b6ab428aae990cd609dcf102&#45;&gt;628173dff1a14898bdf31eda2749b8e2</title>
<path fill="none" stroke="#7b8894" d="M453.22,-675.25C453.22,-675.25 640.53,-675.25 640.53,-675.25"/>
<polygon fill="#7b8894" stroke="#7b8894" points="640.53,-678.75 650.53,-675.25 640.53,-671.75 640.53,-678.75"/>
<text text-anchor="middle" x="552" y="-680.6" font-family="Sans-Serif" font-size="13.00" fill="darkgrey">l_to_ga_page_destination</text>
</g>
<!-- 0ca5025529934bb8a4f094e87fe73f8c -->
<g id="node8" class="node">
<title>0ca5025529934bb8a4f094e87fe73f8c</title>
<image xlink:href="icons/bigquery.png" width="101px" height="101px" preserveAspectRatio="xMinYMin meet" x="16" y="-570.5"/>
<text text-anchor="middle" x="66.5" y="-455.1" font-family="Sans-Serif" font-size="13.00" fill="#2d3436">[?config?].t_import_data_page_destination_valeurs_nulles</text>
</g>
<!-- 0ca5025529934bb8a4f094e87fe73f8c&#45;&gt;3da47050b6ab428aae990cd609dcf102 -->
<g id="edge6" class="edge">
<title>0ca5025529934bb8a4f094e87fe73f8c&#45;&gt;3da47050b6ab428aae990cd609dcf102</title>
<path fill="none" stroke="#7b8894" d="M117.24,-578.5C211.25,-578.5 403,-578.5 403,-578.5 403,-578.5 403,-591.12 403,-591.12"/>
<polygon fill="#7b8894" stroke="#7b8894" points="399.5,-591.12 403,-601.12 406.5,-591.12 399.5,-591.12"/>
<text text-anchor="middle" x="234.5" y="-578.6" font-family="Sans-Serif" font-size="13.00" fill="darkgrey">t_import_data_page_destination</text>
</g>
<!-- 266db77fad6c49ee9a1488c954d374e8 -->
<g id="node11" class="node">
<title>266db77fad6c49ee9a1488c954d374e8</title>
<image xlink:href="icons/bigquery.png" width="101px" height="101px" preserveAspectRatio="xMinYMin meet" x="16" y="-361.5"/>
<text text-anchor="middle" x="66.5" y="-246.1" font-family="Sans-Serif" font-size="13.00" fill="#2d3436">my_power_eu.vente</text>
</g>
<!-- 4bd4e1ddda5f4d59a5bb7761f56bf9f7 -->
<g id="node12" class="node">
<title>4bd4e1ddda5f4d59a5bb7761f56bf9f7</title>
<image xlink:href="icons/bigquery.png" width="101px" height="101px" preserveAspectRatio="xMinYMin meet" x="352" y="-344.5"/>
<text text-anchor="middle" x="402.5" y="-229.1" font-family="Sans-Serif" font-size="13.00" fill="#2d3436">my_power_eu.t_sf_mypower_contrats</text>
</g>
<!-- 266db77fad6c49ee9a1488c954d374e8&#45;&gt;4bd4e1ddda5f4d59a5bb7761f56bf9f7 -->
<g id="edge9" class="edge">
<title>266db77fad6c49ee9a1488c954d374e8&#45;&gt;4bd4e1ddda5f4d59a5bb7761f56bf9f7</title>
<path fill="none" stroke="#7b8894" d="M117.17,-302.5C117.17,-302.5 341.97,-302.5 341.97,-302.5"/>
<polygon fill="#7b8894" stroke="#7b8894" points="341.97,-306 351.97,-302.5 341.97,-299 341.97,-306"/>
<text text-anchor="middle" x="234.5" y="-303.6" font-family="Sans-Serif" font-size="13.00" fill="darkgrey">t_import_data_mypower</text>
</g>
<!-- 9bd5c25943f04297baef7e95565a4a93 -->
<g id="node14" class="node">
<title>9bd5c25943f04297baef7e95565a4a93</title>
<image xlink:href="icons/storage.png" width="101px" height="101px" preserveAspectRatio="xMinYMin meet" x="651" y="-160.5"/>
<text text-anchor="middle" x="701.5" y="-45.1" font-family="Sans-Serif" font-size="13.00" fill="#2d3436">amadeus_bi/test_spreadsheet/mypower.csv</text>
</g>
<!-- 4bd4e1ddda5f4d59a5bb7761f56bf9f7&#45;&gt;9bd5c25943f04297baef7e95565a4a93 -->
<g id="edge11" class="edge">
<title>4bd4e1ddda5f4d59a5bb7761f56bf9f7&#45;&gt;9bd5c25943f04297baef7e95565a4a93</title>
<path fill="none" stroke="#7b8894" d="M403,-225.43C403,-176.93 403,-120.5 403,-120.5 403,-120.5 640.86,-120.5 640.86,-120.5"/>
<polygon fill="#7b8894" stroke="#7b8894" points="640.86,-124 650.86,-120.5 640.86,-117 640.86,-124"/>
<text text-anchor="middle" x="552" y="-177.6" font-family="Sans-Serif" font-size="13.00" fill="darkgrey">l_to_ga_mypower</text>
</g>
<!-- 36163c836b1c4f7db80cc2bc19eec2f3 -->
<g id="node15" class="node">
<title>36163c836b1c4f7db80cc2bc19eec2f3</title>
<image xlink:href="icons/google_analytics.png" width="101px" height="101px" preserveAspectRatio="xMinYMin meet" x="651" y="-355.5"/>
<text text-anchor="middle" x="701.5" y="-239.6" font-family="Sans-Serif" font-size="13.00" fill="#2d3436">UA&#45;55400352&#45;1</text>
<text text-anchor="middle" x="701.5" y="-225.6" font-family="Sans-Serif" font-size="13.00" fill="#2d3436">hwqt699ETJiIjHpvGJCvEw</text>
</g>
<!-- 4bd4e1ddda5f4d59a5bb7761f56bf9f7&#45;&gt;36163c836b1c4f7db80cc2bc19eec2f3 -->
<g id="edge12" class="edge">
<title>4bd4e1ddda5f4d59a5bb7761f56bf9f7&#45;&gt;36163c836b1c4f7db80cc2bc19eec2f3</title>
<path fill="none" stroke="#7b8894" d="M453.22,-294C453.22,-294 640.53,-294 640.53,-294"/>
<polygon fill="#7b8894" stroke="#7b8894" points="640.53,-297.5 650.53,-294 640.53,-290.5 640.53,-297.5"/>
<text text-anchor="middle" x="552" y="-304.6" font-family="Sans-Serif" font-size="13.00" fill="darkgrey">l_to_ga_mypower</text>
</g>
<!-- b2a5fdc8a72b458fa1308a9f182a4022 -->
<g id="node13" class="node">
<title>b2a5fdc8a72b458fa1308a9f182a4022</title>
<image xlink:href="icons/bigquery.png" width="101px" height="101px" preserveAspectRatio="xMinYMin meet" x="16" y="-181.5"/>
<text text-anchor="middle" x="66.5" y="-66.1" font-family="Sans-Serif" font-size="13.00" fill="#2d3436">my_power_eu.opportunite</text>
</g>
<!-- b2a5fdc8a72b458fa1308a9f182a4022&#45;&gt;4bd4e1ddda5f4d59a5bb7761f56bf9f7 -->
<g id="edge10" class="edge">
<title>b2a5fdc8a72b458fa1308a9f182a4022&#45;&gt;4bd4e1ddda5f4d59a5bb7761f56bf9f7</title>
<path fill="none" stroke="#7b8894" d="M67,-199.7C67,-218.6 67,-234 67,-234 67,-234 341.91,-234 341.91,-234"/>
<polygon fill="#7b8894" stroke="#7b8894" points="341.91,-237.5 351.91,-234 341.91,-230.5 341.91,-237.5"/>
<text text-anchor="middle" x="234.5" y="-187.6" font-family="Sans-Serif" font-size="13.00" fill="darkgrey">t_import_data_mypower</text>
</g>
</g>
</svg>
