<?xml version="1.0" encoding="UTF-8" standalone="no"?>
<!DOCTYPE svg PUBLIC "-//W3C//DTD SVG 1.1//EN"
 "http://www.w3.org/Graphics/SVG/1.1/DTD/svg11.dtd">
<!-- Generated by graphviz version 2.47.1 (20210417.1919)
 -->
<!-- Title: import_data Pages: 1 -->
<svg width="1056pt" height="1493pt"
 viewBox="0.00 0.00 1056.00 1493.00" xmlns="http://www.w3.org/2000/svg" xmlns:xlink="http://www.w3.org/1999/xlink">
<g id="graph0" class="graph" transform="scale(1 1) rotate(0) translate(144 1349)">
<title>import_data</title>
<text text-anchor="middle" x="384" y="-9" font-family="Sans-Serif" font-size="15.00" fill="#2d3436">import_data</text>
<g id="clust1" class="cluster">
<title>cluster_import_data</title>
<path fill="#e5f5fd" stroke="#aeb6be" d="M20,-33C20,-33 748,-33 748,-33 754,-33 760,-39 760,-45 760,-45 760,-1185 760,-1185 760,-1191 754,-1197 748,-1197 748,-1197 20,-1197 20,-1197 14,-1197 8,-1191 8,-1185 8,-1185 8,-45 8,-45 8,-39 14,-33 20,-33"/>
<text text-anchor="middle" x="48.5" y="-1183.4" font-family="Sans-Serif" font-size="12.00" fill="#2d3436">import_data</text>
</g>
<!-- 8dd103adff7f4fff8e4ddb96b84ca2a9 -->
<g id="node1" class="node">
<title>8dd103adff7f4fff8e4ddb96b84ca2a9</title>
<image xlink:href="icons/bigquery.png" width="101px" height="101px" preserveAspectRatio="xMinYMin meet" x="16" y="-1121.5"/>
<text text-anchor="middle" x="66.5" y="-1006.1" font-family="Sans-Serif" font-size="13.00" fill="#2d3436">amadeus.e_ama_formulaires_stor</text>
</g>
<!-- 59422207e4c841b48266eeb6bc31520c -->
<g id="node2" class="node">
<title>59422207e4c841b48266eeb6bc31520c</title>
<image xlink:href="icons/bigquery.png" width="101px" height="101px" preserveAspectRatio="xMinYMin meet" x="352" y="-1014.5"/>
<text text-anchor="middle" x="402.5" y="-899.1" font-family="Sans-Serif" font-size="13.00" fill="#2d3436">amadeus.t_ama_import_data_formulaires</text>
</g>
<!-- 8dd103adff7f4fff8e4ddb96b84ca2a9&#45;&gt;59422207e4c841b48266eeb6bc31520c -->
<g id="edge1" class="edge">
<title>8dd103adff7f4fff8e4ddb96b84ca2a9&#45;&gt;59422207e4c841b48266eeb6bc31520c</title>
<path fill="none" stroke="#7b8894" d="M117.17,-1017.5C117.17,-1017.5 341.97,-1017.5 341.97,-1017.5"/>
<polygon fill="#7b8894" stroke="#7b8894" points="341.97,-1021 351.97,-1017.5 341.97,-1014 341.97,-1021"/>
<text text-anchor="middle" x="234.5" y="-983.6" font-family="Sans-Serif" font-size="13.00" fill="darkgrey">t_import_data_formulaires</text>
</g>
<!-- f71540f65a524893a20d07bf61104a5f -->
<g id="node4" class="node">
<title>f71540f65a524893a20d07bf61104a5f</title>
<image xlink:href="icons/storage.png" width="101px" height="101px" preserveAspectRatio="xMinYMin meet" x="651" y="-940.5"/>
<text text-anchor="middle" x="701.5" y="-825.1" font-family="Sans-Serif" font-size="13.00" fill="#2d3436">amadeus_bi/l_to_ga_contrats_formulaires/contrats.csv</text>
</g>
<!-- 59422207e4c841b48266eeb6bc31520c&#45;&gt;f71540f65a524893a20d07bf61104a5f -->
<g id="edge3" class="edge">
<title>59422207e4c841b48266eeb6bc31520c&#45;&gt;f71540f65a524893a20d07bf61104a5f</title>
<path fill="none" stroke="#7b8894" d="M453.22,-927C453.22,-927 640.53,-927 640.53,-927"/>
<polygon fill="#7b8894" stroke="#7b8894" points="640.53,-930.5 650.53,-927 640.53,-923.5 640.53,-930.5"/>
<text text-anchor="middle" x="552" y="-904.6" font-family="Sans-Serif" font-size="13.00" fill="darkgrey">l_to_ga_formulaires</text>
</g>
<!-- e103b7a33f6c4ee580d766681593829b -->
<g id="node5" class="node">
<title>e103b7a33f6c4ee580d766681593829b</title>
<image xlink:href="icons/google_analytics.png" width="101px" height="101px" preserveAspectRatio="xMinYMin meet" x="651" y="-1135.5"/>
<text text-anchor="middle" x="701.5" y="-1019.6" font-family="Sans-Serif" font-size="13.00" fill="#2d3436">UA&#45;55400352&#45;1</text>
<text text-anchor="middle" x="701.5" y="-1005.6" font-family="Sans-Serif" font-size="13.00" fill="#2d3436">XQtX7fGUTnCqBdwu5n0QLQ</text>
</g>
<!-- 59422207e4c841b48266eeb6bc31520c&#45;&gt;e103b7a33f6c4ee580d766681593829b -->
<g id="edge4" class="edge">
<title>59422207e4c841b48266eeb6bc31520c&#45;&gt;e103b7a33f6c4ee580d766681593829b</title>
<path fill="none" stroke="#7b8894" d="M453.22,-1017.25C453.22,-1017.25 640.53,-1017.25 640.53,-1017.25"/>
<polygon fill="#7b8894" stroke="#7b8894" points="640.53,-1020.75 650.53,-1017.25 640.53,-1013.75 640.53,-1020.75"/>
<text text-anchor="middle" x="552" y="-988.6" font-family="Sans-Serif" font-size="13.00" fill="darkgrey">l_to_ga_formulaires</text>
</g>
<!-- a8efd8573728419abb1a88e6f7e0360e -->
<g id="node3" class="node">
<title>a8efd8573728419abb1a88e6f7e0360e</title>
<image xlink:href="icons/bigquery.png" width="101px" height="101px" preserveAspectRatio="xMinYMin meet" x="16" y="-941.5"/>
<text text-anchor="middle" x="66.5" y="-826.1" font-family="Sans-Serif" font-size="13.00" fill="#2d3436">amadeus.t_import_data_formulaires_valeurs_nulles</text>
</g>
<!-- a8efd8573728419abb1a88e6f7e0360e&#45;&gt;59422207e4c841b48266eeb6bc31520c -->
<g id="edge2" class="edge">
<title>a8efd8573728419abb1a88e6f7e0360e&#45;&gt;59422207e4c841b48266eeb6bc31520c</title>
<path fill="none" stroke="#7b8894" d="M117.17,-927.5C117.17,-927.5 341.97,-927.5 341.97,-927.5"/>
<polygon fill="#7b8894" stroke="#7b8894" points="341.97,-931 351.97,-927.5 341.97,-924 341.97,-931"/>
<text text-anchor="middle" x="234.5" y="-905.6" font-family="Sans-Serif" font-size="13.00" fill="darkgrey">t_import_data_formulaires</text>
</g>
<!-- 4ce779b4a5c841bc9ea7595aff1280d8 -->
<g id="node6" class="node">
<title>4ce779b4a5c841bc9ea7595aff1280d8</title>
<image xlink:href="icons/bigquery.png" width="101px" height="101px" preserveAspectRatio="xMinYMin meet" x="16" y="-750.5"/>
<text text-anchor="middle" x="66.5" y="-635.1" font-family="Sans-Serif" font-size="13.00" fill="#2d3436">ga.t_ga_sessions</text>
</g>
<!-- 0c78f4b1d9aa4931bb08000865d21b14 -->
<g id="node7" class="node">
<title>0c78f4b1d9aa4931bb08000865d21b14</title>
<image xlink:href="icons/bigquery.png" width="101px" height="101px" preserveAspectRatio="xMinYMin meet" x="352" y="-720.5"/>
<text text-anchor="middle" x="402.5" y="-605.1" font-family="Sans-Serif" font-size="13.00" fill="#2d3436">amadeus.t_ama_import_data_page_destination</text>
</g>
<!-- 4ce779b4a5c841bc9ea7595aff1280d8&#45;&gt;0c78f4b1d9aa4931bb08000865d21b14 -->
<g id="edge5" class="edge">
<title>4ce779b4a5c841bc9ea7595aff1280d8&#45;&gt;0c78f4b1d9aa4931bb08000865d21b14</title>
<path fill="none" stroke="#7b8894" d="M117.17,-685C117.17,-685 341.97,-685 341.97,-685"/>
<polygon fill="#7b8894" stroke="#7b8894" points="341.97,-688.5 351.97,-685 341.97,-681.5 341.97,-688.5"/>
<text text-anchor="middle" x="234.5" y="-695.6" font-family="Sans-Serif" font-size="13.00" fill="darkgrey">t_import_data_page_destination</text>
</g>
<!-- fef0349e15f04006b86ddb00f4dacf6c -->
<g id="node9" class="node">
<title>fef0349e15f04006b86ddb00f4dacf6c</title>
<image xlink:href="icons/storage.png" width="101px" height="101px" preserveAspectRatio="xMinYMin meet" x="651" y="-550.5"/>
<text text-anchor="middle" x="701.5" y="-435.1" font-family="Sans-Serif" font-size="13.00" fill="#2d3436">ga_engie/l_to_ga_page_destination/page_destination.csv</text>
</g>
<!-- 0c78f4b1d9aa4931bb08000865d21b14&#45;&gt;fef0349e15f04006b86ddb00f4dacf6c -->
<g id="edge7" class="edge">
<title>0c78f4b1d9aa4931bb08000865d21b14&#45;&gt;fef0349e15f04006b86ddb00f4dacf6c</title>
<path fill="none" stroke="#7b8894" d="M453.31,-606.75C538.75,-606.75 702,-606.75 702,-606.75 702,-606.75 702,-578.51 702,-578.51"/>
<polygon fill="#7b8894" stroke="#7b8894" points="705.5,-578.51 702,-568.51 698.5,-578.51 705.5,-578.51"/>
<text text-anchor="middle" x="552" y="-560.6" font-family="Sans-Serif" font-size="13.00" fill="darkgrey">l_to_ga_page_destination</text>
</g>
<!-- 65de02f412f3497d8eda365efb53fee4 -->
<g id="node10" class="node">
<title>65de02f412f3497d8eda365efb53fee4</title>
<image xlink:href="icons/google_analytics.png" width="101px" height="101px" preserveAspectRatio="xMinYMin meet" x="651" y="-745.5"/>
<text text-anchor="middle" x="701.5" y="-629.6" font-family="Sans-Serif" font-size="13.00" fill="#2d3436">UA&#45;55400352&#45;1</text>
<text text-anchor="middle" x="701.5" y="-615.6" font-family="Sans-Serif" font-size="13.00" fill="#2d3436">Yq4fPPyUR721ZidM1AnRLA</text>
</g>
<!-- 0c78f4b1d9aa4931bb08000865d21b14&#45;&gt;65de02f412f3497d8eda365efb53fee4 -->
<g id="edge8" class="edge">
<title>0c78f4b1d9aa4931bb08000865d21b14&#45;&gt;65de02f412f3497d8eda365efb53fee4</title>
<path fill="none" stroke="#7b8894" d="M453.22,-675.25C453.22,-675.25 640.53,-675.25 640.53,-675.25"/>
<polygon fill="#7b8894" stroke="#7b8894" points="640.53,-678.75 650.53,-675.25 640.53,-671.75 640.53,-678.75"/>
<text text-anchor="middle" x="552" y="-680.6" font-family="Sans-Serif" font-size="13.00" fill="darkgrey">l_to_ga_page_destination</text>
</g>
<!-- 956d2e62829844a99001be6b9dd7c364 -->
<g id="node8" class="node">
<title>956d2e62829844a99001be6b9dd7c364</title>
<image xlink:href="icons/bigquery.png" width="101px" height="101px" preserveAspectRatio="xMinYMin meet" x="16" y="-570.5"/>
<text text-anchor="middle" x="66.5" y="-455.1" font-family="Sans-Serif" font-size="13.00" fill="#2d3436">ga.t_import_data_page_destination_valeurs_nulles</text>
</g>
<!-- 956d2e62829844a99001be6b9dd7c364&#45;&gt;0c78f4b1d9aa4931bb08000865d21b14 -->
<g id="edge6" class="edge">
<title>956d2e62829844a99001be6b9dd7c364&#45;&gt;0c78f4b1d9aa4931bb08000865d21b14</title>
<path fill="none" stroke="#7b8894" d="M117.24,-578.5C211.25,-578.5 403,-578.5 403,-578.5 403,-578.5 403,-591.12 403,-591.12"/>
<polygon fill="#7b8894" stroke="#7b8894" points="399.5,-591.12 403,-601.12 406.5,-591.12 399.5,-591.12"/>
<text text-anchor="middle" x="234.5" y="-578.6" font-family="Sans-Serif" font-size="13.00" fill="darkgrey">t_import_data_page_destination</text>
</g>
<!-- 59d06cc23e9a458fbc5c74ab69ed997d -->
<g id="node11" class="node">
<title>59d06cc23e9a458fbc5c74ab69ed997d</title>
<image xlink:href="icons/bigquery.png" width="101px" height="101px" preserveAspectRatio="xMinYMin meet" x="16" y="-361.5"/>
<text text-anchor="middle" x="66.5" y="-246.1" font-family="Sans-Serif" font-size="13.00" fill="#2d3436">my_power_eu.vente</text>
</g>
<!-- 3534d83ed6684538bd6bb61a4101ff95 -->
<g id="node12" class="node">
<title>3534d83ed6684538bd6bb61a4101ff95</title>
<image xlink:href="icons/bigquery.png" width="101px" height="101px" preserveAspectRatio="xMinYMin meet" x="352" y="-344.5"/>
<text text-anchor="middle" x="402.5" y="-229.1" font-family="Sans-Serif" font-size="13.00" fill="#2d3436">my_power_eu.t_sf_mypower_contrats</text>
</g>
<!-- 59d06cc23e9a458fbc5c74ab69ed997d&#45;&gt;3534d83ed6684538bd6bb61a4101ff95 -->
<g id="edge9" class="edge">
<title>59d06cc23e9a458fbc5c74ab69ed997d&#45;&gt;3534d83ed6684538bd6bb61a4101ff95</title>
<path fill="none" stroke="#7b8894" d="M117.17,-302.5C117.17,-302.5 341.97,-302.5 341.97,-302.5"/>
<polygon fill="#7b8894" stroke="#7b8894" points="341.97,-306 351.97,-302.5 341.97,-299 341.97,-306"/>
<text text-anchor="middle" x="234.5" y="-303.6" font-family="Sans-Serif" font-size="13.00" fill="darkgrey">t_import_data_mypower</text>
</g>
<!-- d28ba8bf724d4851baf6c0ffc91dfa11 -->
<g id="node14" class="node">
<title>d28ba8bf724d4851baf6c0ffc91dfa11</title>
<image xlink:href="icons/storage.png" width="101px" height="101px" preserveAspectRatio="xMinYMin meet" x="651" y="-160.5"/>
<text text-anchor="middle" x="701.5" y="-45.1" font-family="Sans-Serif" font-size="13.00" fill="#2d3436">amadeus_bi/test_spreadsheet/mypower.csv</text>
</g>
<!-- 3534d83ed6684538bd6bb61a4101ff95&#45;&gt;d28ba8bf724d4851baf6c0ffc91dfa11 -->
<g id="edge11" class="edge">
<title>3534d83ed6684538bd6bb61a4101ff95&#45;&gt;d28ba8bf724d4851baf6c0ffc91dfa11</title>
<path fill="none" stroke="#7b8894" d="M403,-225.43C403,-176.93 403,-120.5 403,-120.5 403,-120.5 640.86,-120.5 640.86,-120.5"/>
<polygon fill="#7b8894" stroke="#7b8894" points="640.86,-124 650.86,-120.5 640.86,-117 640.86,-124"/>
<text text-anchor="middle" x="552" y="-177.6" font-family="Sans-Serif" font-size="13.00" fill="darkgrey">l_to_ga_mypower</text>
</g>
<!-- 939b9718bd8c4be5810904e5ecc03494 -->
<g id="node15" class="node">
<title>939b9718bd8c4be5810904e5ecc03494</title>
<image xlink:href="icons/google_analytics.png" width="101px" height="101px" preserveAspectRatio="xMinYMin meet" x="651" y="-355.5"/>
<text text-anchor="middle" x="701.5" y="-239.6" font-family="Sans-Serif" font-size="13.00" fill="#2d3436">UA&#45;55400352&#45;1</text>
<text text-anchor="middle" x="701.5" y="-225.6" font-family="Sans-Serif" font-size="13.00" fill="#2d3436">hwqt699ETJiIjHpvGJCvEw</text>
</g>
<!-- 3534d83ed6684538bd6bb61a4101ff95&#45;&gt;939b9718bd8c4be5810904e5ecc03494 -->
<g id="edge12" class="edge">
<title>3534d83ed6684538bd6bb61a4101ff95&#45;&gt;939b9718bd8c4be5810904e5ecc03494</title>
<path fill="none" stroke="#7b8894" d="M453.22,-294C453.22,-294 640.53,-294 640.53,-294"/>
<polygon fill="#7b8894" stroke="#7b8894" points="640.53,-297.5 650.53,-294 640.53,-290.5 640.53,-297.5"/>
<text text-anchor="middle" x="552" y="-304.6" font-family="Sans-Serif" font-size="13.00" fill="darkgrey">l_to_ga_mypower</text>
</g>
<!-- cab035c73195429fb79a9aab7646792f -->
<g id="node13" class="node">
<title>cab035c73195429fb79a9aab7646792f</title>
<image xlink:href="icons/bigquery.png" width="101px" height="101px" preserveAspectRatio="xMinYMin meet" x="16" y="-181.5"/>
<text text-anchor="middle" x="66.5" y="-66.1" font-family="Sans-Serif" font-size="13.00" fill="#2d3436">my_power_eu.opportunite</text>
</g>
<!-- cab035c73195429fb79a9aab7646792f&#45;&gt;3534d83ed6684538bd6bb61a4101ff95 -->
<g id="edge10" class="edge">
<title>cab035c73195429fb79a9aab7646792f&#45;&gt;3534d83ed6684538bd6bb61a4101ff95</title>
<path fill="none" stroke="#7b8894" d="M67,-199.7C67,-218.6 67,-234 67,-234 67,-234 341.91,-234 341.91,-234"/>
<polygon fill="#7b8894" stroke="#7b8894" points="341.91,-237.5 351.91,-234 341.91,-230.5 341.91,-237.5"/>
<text text-anchor="middle" x="234.5" y="-187.6" font-family="Sans-Serif" font-size="13.00" fill="darkgrey">t_import_data_mypower</text>
</g>
</g>
</svg>
