<?xml version="1.0" encoding="UTF-8" standalone="no"?>
<!DOCTYPE svg PUBLIC "-//W3C//DTD SVG 1.1//EN"
 "http://www.w3.org/Graphics/SVG/1.1/DTD/svg11.dtd">
<!-- Generated by graphviz version 2.47.1 (20210417.1919)
 -->
<!-- Title: kwanko Pages: 1 -->
<svg width="1000pt" height="1224pt"
 viewBox="0.00 0.00 1000.00 1224.00" xmlns="http://www.w3.org/2000/svg" xmlns:xlink="http://www.w3.org/1999/xlink">
<g id="graph0" class="graph" transform="scale(1 1) rotate(0) translate(144 1080)">
<title>kwanko</title>
<text text-anchor="middle" x="356" y="-9" font-family="Sans-Serif" font-size="15.00" fill="#2d3436">kwanko</text>
<g id="clust1" class="cluster">
<title>cluster_kwanko</title>
<path fill="#e5f5fd" stroke="#aeb6be" d="M20,-33C20,-33 692,-33 692,-33 698,-33 704,-39 704,-45 704,-45 704,-916 704,-916 704,-922 698,-928 692,-928 692,-928 20,-928 20,-928 14,-928 8,-922 8,-916 8,-916 8,-45 8,-45 8,-39 14,-33 20,-33"/>
<text text-anchor="middle" x="36.5" y="-914.4" font-family="Sans-Serif" font-size="12.00" fill="#2d3436">kwanko</text>
</g>
<!-- faa2e7be4d454b9fa98782fadc227aa7 -->
<g id="node1" class="node">
<title>faa2e7be4d454b9fa98782fadc227aa7</title>
<image xlink:href="icons/storage.png" width="101px" height="101px" preserveAspectRatio="xMinYMin meet" x="16" y="-880.5"/>
<text text-anchor="middle" x="66.5" y="-765.1" font-family="Sans-Serif" font-size="13.00" fill="#2d3436">kwanko.kwanko_formulaires</text>
</g>
<!-- db6301e2142f49aebf19acfecf25eeab -->
<g id="node2" class="node">
<title>db6301e2142f49aebf19acfecf25eeab</title>
<image xlink:href="icons/bigquery.png" width="101px" height="101px" preserveAspectRatio="xMinYMin meet" x="295" y="-880.5"/>
<text text-anchor="middle" x="345.5" y="-765.1" font-family="Sans-Serif" font-size="13.00" fill="#2d3436">kwanko.e_kwa_formulaires_stor</text>
</g>
<!-- faa2e7be4d454b9fa98782fadc227aa7&#45;&gt;db6301e2142f49aebf19acfecf25eeab -->
<g id="edge1" class="edge">
<title>faa2e7be4d454b9fa98782fadc227aa7&#45;&gt;db6301e2142f49aebf19acfecf25eeab</title>
<path fill="none" stroke="#7b8894" d="M117.02,-830C117.02,-830 284.88,-830 284.88,-830"/>
<polygon fill="#7b8894" stroke="#7b8894" points="284.88,-833.5 294.88,-830 284.88,-826.5 284.88,-833.5"/>
<text text-anchor="middle" x="206" y="-833.6" font-family="Sans-Serif" font-size="13.00" fill="darkgrey">e_formulaires</text>
</g>
<!-- 40c3fa86a38a428abd4e90eef2af7b93 -->
<g id="node6" class="node">
<title>40c3fa86a38a428abd4e90eef2af7b93</title>
<image xlink:href="icons/bigquery.png" width="101px" height="101px" preserveAspectRatio="xMinYMin meet" x="595" y="-520.5"/>
<text text-anchor="middle" x="645.5" y="-405.1" font-family="Sans-Serif" font-size="13.00" fill="#2d3436">kwanko.l_kwa_formulaires_traitements</text>
</g>
<!-- db6301e2142f49aebf19acfecf25eeab&#45;&gt;40c3fa86a38a428abd4e90eef2af7b93 -->
<g id="edge4" class="edge">
<title>db6301e2142f49aebf19acfecf25eeab&#45;&gt;40c3fa86a38a428abd4e90eef2af7b93</title>
<path fill="none" stroke="#7b8894" d="M396.16,-830C485.8,-830 663,-830 663,-830 663,-830 663,-548.56 663,-548.56"/>
<polygon fill="#7b8894" stroke="#7b8894" points="666.5,-548.56 663,-538.56 659.5,-548.56 666.5,-548.56"/>
<text text-anchor="middle" x="495.5" y="-744.6" font-family="Sans-Serif" font-size="13.00" fill="darkgrey">t_formulaires_traitements</text>
</g>
<!-- 2ad3721604a8436088bd57760e85783e -->
<g id="node3" class="node">
<title>2ad3721604a8436088bd57760e85783e</title>
<image xlink:href="icons/storage.png" width="101px" height="101px" preserveAspectRatio="xMinYMin meet" x="16" y="-700.5"/>
<text text-anchor="middle" x="66.5" y="-585.1" font-family="Sans-Serif" font-size="13.00" fill="#2d3436">kwanko.validation_manuelle_kwanko</text>
</g>
<!-- 5df4786047874be68d52028b0df8fb41 -->
<g id="node4" class="node">
<title>5df4786047874be68d52028b0df8fb41</title>
<image xlink:href="icons/bigquery.png" width="101px" height="101px" preserveAspectRatio="xMinYMin meet" x="295" y="-700.5"/>
<text text-anchor="middle" x="345.5" y="-585.1" font-family="Sans-Serif" font-size="13.00" fill="#2d3436">kwanko.e_kwa_validation_manuelle_stor</text>
</g>
<!-- 2ad3721604a8436088bd57760e85783e&#45;&gt;5df4786047874be68d52028b0df8fb41 -->
<g id="edge2" class="edge">
<title>2ad3721604a8436088bd57760e85783e&#45;&gt;5df4786047874be68d52028b0df8fb41</title>
<path fill="none" stroke="#7b8894" d="M117.02,-650C117.02,-650 284.88,-650 284.88,-650"/>
<polygon fill="#7b8894" stroke="#7b8894" points="284.88,-653.5 294.88,-650 284.88,-646.5 284.88,-653.5"/>
<text text-anchor="middle" x="206" y="-653.6" font-family="Sans-Serif" font-size="13.00" fill="darkgrey">e_validation_manuelle</text>
</g>
<!-- 5df4786047874be68d52028b0df8fb41&#45;&gt;40c3fa86a38a428abd4e90eef2af7b93 -->
<g id="edge6" class="edge">
<title>5df4786047874be68d52028b0df8fb41&#45;&gt;40c3fa86a38a428abd4e90eef2af7b93</title>
<path fill="none" stroke="#7b8894" d="M396.18,-650C477.73,-650 629,-650 629,-650 629,-650 629,-548.56 629,-548.56"/>
<polygon fill="#7b8894" stroke="#7b8894" points="632.5,-548.56 629,-538.56 625.5,-548.56 632.5,-548.56"/>
<text text-anchor="middle" x="495.5" y="-594.6" font-family="Sans-Serif" font-size="13.00" fill="darkgrey">t_formulaires_traitements</text>
</g>
<!-- a85e06cc0ea942838f7c9d732575d0be -->
<g id="node5" class="node">
<title>a85e06cc0ea942838f7c9d732575d0be</title>
<image xlink:href="icons/bigquery.png" width="101px" height="101px" preserveAspectRatio="xMinYMin meet" x="295" y="-520.5"/>
<text text-anchor="middle" x="345.5" y="-405.1" font-family="Sans-Serif" font-size="13.00" fill="#2d3436">amadeus.e_ama_formulaires_stor</text>
</g>
<!-- a85e06cc0ea942838f7c9d732575d0be&#45;&gt;40c3fa86a38a428abd4e90eef2af7b93 -->
<g id="edge3" class="edge">
<title>a85e06cc0ea942838f7c9d732575d0be&#45;&gt;40c3fa86a38a428abd4e90eef2af7b93</title>
<path fill="none" stroke="#7b8894" d="M396.05,-470C396.05,-470 584.99,-470 584.99,-470"/>
<polygon fill="#7b8894" stroke="#7b8894" points="584.99,-473.5 594.99,-470 584.99,-466.5 584.99,-473.5"/>
<text text-anchor="middle" x="495.5" y="-473.6" font-family="Sans-Serif" font-size="13.00" fill="darkgrey">t_formulaires_traitements</text>
</g>
<!-- 0c57eae898224c8f95c0fa31e28e5973 -->
<g id="node7" class="node">
<title>0c57eae898224c8f95c0fa31e28e5973</title>
<image xlink:href="icons/bigquery.png" width="101px" height="101px" preserveAspectRatio="xMinYMin meet" x="295" y="-340.5"/>
<text text-anchor="middle" x="345.5" y="-225.1" font-family="Sans-Serif" font-size="13.00" fill="#2d3436">ga.t_ga_formulaires</text>
</g>
<!-- 0c57eae898224c8f95c0fa31e28e5973&#45;&gt;40c3fa86a38a428abd4e90eef2af7b93 -->
<g id="edge5" class="edge">
<title>0c57eae898224c8f95c0fa31e28e5973&#45;&gt;40c3fa86a38a428abd4e90eef2af7b93</title>
<path fill="none" stroke="#7b8894" d="M396.18,-290C477.73,-290 629,-290 629,-290 629,-290 629,-391.44 629,-391.44"/>
<polygon fill="#7b8894" stroke="#7b8894" points="625.5,-391.44 629,-401.44 632.5,-391.44 625.5,-391.44"/>
<text text-anchor="middle" x="495.5" y="-352.6" font-family="Sans-Serif" font-size="13.00" fill="darkgrey">t_formulaires_traitements</text>
</g>
<!-- 2e0be966d7b047b7ad5004ca64202a1d -->
<g id="node8" class="node">
<title>2e0be966d7b047b7ad5004ca64202a1d</title>
<image xlink:href="icons/bigquery.png" width="101px" height="101px" preserveAspectRatio="xMinYMin meet" x="295" y="-160.5"/>
<text text-anchor="middle" x="345.5" y="-45.1" font-family="Sans-Serif" font-size="13.00" fill="#2d3436">kwanko.e_kwa_formulaires_a_exclure_csv</text>
</g>
<!-- 2e0be966d7b047b7ad5004ca64202a1d&#45;&gt;40c3fa86a38a428abd4e90eef2af7b93 -->
<g id="edge7" class="edge">
<title>2e0be966d7b047b7ad5004ca64202a1d&#45;&gt;40c3fa86a38a428abd4e90eef2af7b93</title>
<path fill="none" stroke="#7b8894" d="M396.16,-110C485.8,-110 663,-110 663,-110 663,-110 663,-391.44 663,-391.44"/>
<polygon fill="#7b8894" stroke="#7b8894" points="659.5,-391.44 663,-401.44 666.5,-391.44 659.5,-391.44"/>
<text text-anchor="middle" x="495.5" y="-201.6" font-family="Sans-Serif" font-size="13.00" fill="darkgrey">t_formulaires_traitements</text>
</g>
</g>
</svg>
