<?xml version="1.0" encoding="UTF-8" standalone="no"?>
<!DOCTYPE svg PUBLIC "-//W3C//DTD SVG 1.1//EN"
 "http://www.w3.org/Graphics/SVG/1.1/DTD/svg11.dtd">
<!-- Generated by graphviz version 2.47.1 (20210417.1919)
 -->
<!-- Title: kwanko Pages: 1 -->
<svg width="1000pt" height="1404pt"
 viewBox="0.00 0.00 1000.00 1404.00" xmlns="http://www.w3.org/2000/svg" xmlns:xlink="http://www.w3.org/1999/xlink">
<g id="graph0" class="graph" transform="scale(1 1) rotate(0) translate(144 1260)">
<title>kwanko</title>
<text text-anchor="middle" x="356" y="-9" font-family="Sans-Serif" font-size="15.00" fill="#2d3436">kwanko</text>
<g id="clust1" class="cluster">
<title>cluster_kwanko</title>
<path fill="#e5f5fd" stroke="#aeb6be" d="M20,-33C20,-33 692,-33 692,-33 698,-33 704,-39 704,-45 704,-45 704,-1096 704,-1096 704,-1102 698,-1108 692,-1108 692,-1108 20,-1108 20,-1108 14,-1108 8,-1102 8,-1096 8,-1096 8,-45 8,-45 8,-39 14,-33 20,-33"/>
<text text-anchor="middle" x="36.5" y="-1094.4" font-family="Sans-Serif" font-size="12.00" fill="#2d3436">kwanko</text>
</g>
<!-- 12c82f23b7964562ad0da5439a3f1fab -->
<g id="node1" class="node">
<title>12c82f23b7964562ad0da5439a3f1fab</title>
<image xlink:href="icons/storage.png" width="101px" height="101px" preserveAspectRatio="xMinYMin meet" x="16" y="-1060.5"/>
<text text-anchor="middle" x="66.5" y="-945.1" font-family="Sans-Serif" font-size="13.00" fill="#2d3436">kwanko.kwanko_formulaires</text>
</g>
<!-- d3557232c0d74e67be7e3c7b77ecafae -->
<g id="node2" class="node">
<title>d3557232c0d74e67be7e3c7b77ecafae</title>
<image xlink:href="icons/bigquery.png" width="101px" height="101px" preserveAspectRatio="xMinYMin meet" x="295" y="-1060.5"/>
<text text-anchor="middle" x="345.5" y="-945.1" font-family="Sans-Serif" font-size="13.00" fill="#2d3436">kwanko.e_kwa_formulaires_stor</text>
</g>
<!-- 12c82f23b7964562ad0da5439a3f1fab&#45;&gt;d3557232c0d74e67be7e3c7b77ecafae -->
<g id="edge1" class="edge">
<title>12c82f23b7964562ad0da5439a3f1fab&#45;&gt;d3557232c0d74e67be7e3c7b77ecafae</title>
<path fill="none" stroke="#7b8894" d="M117.02,-1010C117.02,-1010 284.88,-1010 284.88,-1010"/>
<polygon fill="#7b8894" stroke="#7b8894" points="284.88,-1013.5 294.88,-1010 284.88,-1006.5 284.88,-1013.5"/>
<text text-anchor="middle" x="206" y="-1013.6" font-family="Sans-Serif" font-size="13.00" fill="darkgrey">e_formulaires</text>
</g>
<!-- c3db596038af4a19a7e5a12eab828545 -->
<g id="node6" class="node">
<title>c3db596038af4a19a7e5a12eab828545</title>
<image xlink:href="icons/bigquery.png" width="101px" height="101px" preserveAspectRatio="xMinYMin meet" x="595" y="-520.5"/>
<text text-anchor="middle" x="645.5" y="-405.1" font-family="Sans-Serif" font-size="13.00" fill="#2d3436">kwanko.l_kwa_formulaires_traitements</text>
</g>
<!-- d3557232c0d74e67be7e3c7b77ecafae&#45;&gt;c3db596038af4a19a7e5a12eab828545 -->
<g id="edge4" class="edge">
<title>d3557232c0d74e67be7e3c7b77ecafae&#45;&gt;c3db596038af4a19a7e5a12eab828545</title>
<path fill="none" stroke="#7b8894" d="M396.16,-1010C485.8,-1010 663,-1010 663,-1010 663,-1010 663,-548.67 663,-548.67"/>
<polygon fill="#7b8894" stroke="#7b8894" points="666.5,-548.67 663,-538.67 659.5,-548.67 666.5,-548.67"/>
<text text-anchor="middle" x="495.5" y="-834.6" font-family="Sans-Serif" font-size="13.00" fill="darkgrey">t_formulaires_traitements</text>
</g>
<!-- 5a55beb74dda4a8db856ac1f2344e6cb -->
<g id="node3" class="node">
<title>5a55beb74dda4a8db856ac1f2344e6cb</title>
<image xlink:href="icons/storage.png" width="101px" height="101px" preserveAspectRatio="xMinYMin meet" x="16" y="-880.5"/>
<text text-anchor="middle" x="66.5" y="-765.1" font-family="Sans-Serif" font-size="13.00" fill="#2d3436">kwanko.validation_manuelle_kwanko</text>
</g>
<!-- 3fff13c224ba4ad1988a1a66c5262530 -->
<g id="node4" class="node">
<title>3fff13c224ba4ad1988a1a66c5262530</title>
<image xlink:href="icons/bigquery.png" width="101px" height="101px" preserveAspectRatio="xMinYMin meet" x="295" y="-880.5"/>
<text text-anchor="middle" x="345.5" y="-765.1" font-family="Sans-Serif" font-size="13.00" fill="#2d3436">kwanko.e_kwa_validation_manuelle_stor</text>
</g>
<!-- 5a55beb74dda4a8db856ac1f2344e6cb&#45;&gt;3fff13c224ba4ad1988a1a66c5262530 -->
<g id="edge2" class="edge">
<title>5a55beb74dda4a8db856ac1f2344e6cb&#45;&gt;3fff13c224ba4ad1988a1a66c5262530</title>
<path fill="none" stroke="#7b8894" d="M117.02,-830C117.02,-830 284.88,-830 284.88,-830"/>
<polygon fill="#7b8894" stroke="#7b8894" points="284.88,-833.5 294.88,-830 284.88,-826.5 284.88,-833.5"/>
<text text-anchor="middle" x="206" y="-833.6" font-family="Sans-Serif" font-size="13.00" fill="darkgrey">e_validation_manuelle</text>
</g>
<!-- 9168ac305c0d40639c6d1df0d9c54d94 -->
<g id="node5" class="node">
<title>9168ac305c0d40639c6d1df0d9c54d94</title>
<image xlink:href="icons/bigquery.png" width="101px" height="101px" preserveAspectRatio="xMinYMin meet" x="295" y="-700.5"/>
<text text-anchor="middle" x="345.5" y="-585.1" font-family="Sans-Serif" font-size="13.00" fill="#2d3436">amadeus.e_ama_formulaires_stor</text>
</g>
<!-- 9168ac305c0d40639c6d1df0d9c54d94&#45;&gt;c3db596038af4a19a7e5a12eab828545 -->
<g id="edge3" class="edge">
<title>9168ac305c0d40639c6d1df0d9c54d94&#45;&gt;c3db596038af4a19a7e5a12eab828545</title>
<path fill="none" stroke="#7b8894" d="M396.18,-650C477.73,-650 629,-650 629,-650 629,-650 629,-548.56 629,-548.56"/>
<polygon fill="#7b8894" stroke="#7b8894" points="632.5,-548.56 629,-538.56 625.5,-548.56 632.5,-548.56"/>
<text text-anchor="middle" x="495.5" y="-594.6" font-family="Sans-Serif" font-size="13.00" fill="darkgrey">t_formulaires_traitements</text>
</g>
<!-- 12f5861a4ad84955a307931e244b8f96 -->
<g id="node7" class="node">
<title>12f5861a4ad84955a307931e244b8f96</title>
<image xlink:href="icons/bigquery.png" width="101px" height="101px" preserveAspectRatio="xMinYMin meet" x="295" y="-520.5"/>
<text text-anchor="middle" x="345.5" y="-405.1" font-family="Sans-Serif" font-size="13.00" fill="#2d3436">ga.t_ga_formulaires</text>
</g>
<!-- 12f5861a4ad84955a307931e244b8f96&#45;&gt;c3db596038af4a19a7e5a12eab828545 -->
<g id="edge5" class="edge">
<title>12f5861a4ad84955a307931e244b8f96&#45;&gt;c3db596038af4a19a7e5a12eab828545</title>
<path fill="none" stroke="#7b8894" d="M396.05,-470C396.05,-470 584.99,-470 584.99,-470"/>
<polygon fill="#7b8894" stroke="#7b8894" points="584.99,-473.5 594.99,-470 584.99,-466.5 584.99,-473.5"/>
<text text-anchor="middle" x="495.5" y="-473.6" font-family="Sans-Serif" font-size="13.00" fill="darkgrey">t_formulaires_traitements</text>
</g>
<!-- 96900b63feb347c58909df74f3d97f0b -->
<g id="node8" class="node">
<title>96900b63feb347c58909df74f3d97f0b</title>
<image xlink:href="icons/bigquery.png" width="101px" height="101px" preserveAspectRatio="xMinYMin meet" x="295" y="-340.5"/>
<text text-anchor="middle" x="345.5" y="-225.1" font-family="Sans-Serif" font-size="13.00" fill="#2d3436">[?config?].e_kwa_validation_manuelle_stor</text>
</g>
<!-- 96900b63feb347c58909df74f3d97f0b&#45;&gt;c3db596038af4a19a7e5a12eab828545 -->
<g id="edge6" class="edge">
<title>96900b63feb347c58909df74f3d97f0b&#45;&gt;c3db596038af4a19a7e5a12eab828545</title>
<path fill="none" stroke="#7b8894" d="M396.18,-290C477.73,-290 629,-290 629,-290 629,-290 629,-391.44 629,-391.44"/>
<polygon fill="#7b8894" stroke="#7b8894" points="625.5,-391.44 629,-401.44 632.5,-391.44 625.5,-391.44"/>
<text text-anchor="middle" x="495.5" y="-352.6" font-family="Sans-Serif" font-size="13.00" fill="darkgrey">t_formulaires_traitements</text>
</g>
<!-- 36d79189035143aa9aeafe7087f3f505 -->
<g id="node9" class="node">
<title>36d79189035143aa9aeafe7087f3f505</title>
<image xlink:href="icons/bigquery.png" width="101px" height="101px" preserveAspectRatio="xMinYMin meet" x="295" y="-160.5"/>
<text text-anchor="middle" x="345.5" y="-45.1" font-family="Sans-Serif" font-size="13.00" fill="#2d3436">[?config?].e_kwa_formulaires_a_exclure_csv</text>
</g>
<!-- 36d79189035143aa9aeafe7087f3f505&#45;&gt;c3db596038af4a19a7e5a12eab828545 -->
<g id="edge7" class="edge">
<title>36d79189035143aa9aeafe7087f3f505&#45;&gt;c3db596038af4a19a7e5a12eab828545</title>
<path fill="none" stroke="#7b8894" d="M396.16,-110C485.8,-110 663,-110 663,-110 663,-110 663,-391.44 663,-391.44"/>
<polygon fill="#7b8894" stroke="#7b8894" points="659.5,-391.44 663,-401.44 666.5,-391.44 659.5,-391.44"/>
<text text-anchor="middle" x="495.5" y="-201.6" font-family="Sans-Serif" font-size="13.00" fill="darkgrey">t_formulaires_traitements</text>
</g>
</g>
</svg>
