<?xml version="1.0" encoding="UTF-8" standalone="no"?>
<!DOCTYPE svg PUBLIC "-//W3C//DTD SVG 1.1//EN"
 "http://www.w3.org/Graphics/SVG/1.1/DTD/svg11.dtd">
<!-- Generated by graphviz version 2.47.1 (20210417.1919)
 -->
<!-- Title: kwanko Pages: 1 -->
<svg width="1000pt" height="1404pt"
 viewBox="0.00 0.00 1000.00 1404.00" xmlns="http://www.w3.org/2000/svg" xmlns:xlink="http://www.w3.org/1999/xlink">
<g id="graph0" class="graph" transform="scale(1 1) rotate(0) translate(144 1260)">
<title>kwanko</title>
<text text-anchor="middle" x="356" y="-9" font-family="Sans-Serif" font-size="15.00" fill="#2d3436">kwanko</text>
<g id="clust1" class="cluster">
<title>cluster_kwanko</title>
<path fill="#e5f5fd" stroke="#aeb6be" d="M20,-33C20,-33 692,-33 692,-33 698,-33 704,-39 704,-45 704,-45 704,-1096 704,-1096 704,-1102 698,-1108 692,-1108 692,-1108 20,-1108 20,-1108 14,-1108 8,-1102 8,-1096 8,-1096 8,-45 8,-45 8,-39 14,-33 20,-33"/>
<text text-anchor="middle" x="36.5" y="-1094.4" font-family="Sans-Serif" font-size="12.00" fill="#2d3436">kwanko</text>
</g>
<!-- e6d9084997e34b3bb41f94859fef361b -->
<g id="node1" class="node">
<title>e6d9084997e34b3bb41f94859fef361b</title>
<image xlink:href="icons/storage.png" width="101px" height="101px" preserveAspectRatio="xMinYMin meet" x="16" y="-1060.5"/>
<text text-anchor="middle" x="66.5" y="-945.1" font-family="Sans-Serif" font-size="13.00" fill="#2d3436">kwanko.kwanko_formulaires</text>
</g>
<!-- e34d91f1850f4aba9c1ba72b698e0f1b -->
<g id="node2" class="node">
<title>e34d91f1850f4aba9c1ba72b698e0f1b</title>
<image xlink:href="icons/bigquery.png" width="101px" height="101px" preserveAspectRatio="xMinYMin meet" x="295" y="-1060.5"/>
<text text-anchor="middle" x="345.5" y="-945.1" font-family="Sans-Serif" font-size="13.00" fill="#2d3436">kwanko.e_kwa_formulaires_stor</text>
</g>
<!-- e6d9084997e34b3bb41f94859fef361b&#45;&gt;e34d91f1850f4aba9c1ba72b698e0f1b -->
<g id="edge1" class="edge">
<title>e6d9084997e34b3bb41f94859fef361b&#45;&gt;e34d91f1850f4aba9c1ba72b698e0f1b</title>
<path fill="none" stroke="#7b8894" d="M117.02,-1010C117.02,-1010 284.88,-1010 284.88,-1010"/>
<polygon fill="#7b8894" stroke="#7b8894" points="284.88,-1013.5 294.88,-1010 284.88,-1006.5 284.88,-1013.5"/>
<text text-anchor="middle" x="206" y="-1013.6" font-family="Sans-Serif" font-size="13.00" fill="darkgrey">e_formulaires</text>
</g>
<!-- 4dde612929aa402381fc4af937f2b46f -->
<g id="node6" class="node">
<title>4dde612929aa402381fc4af937f2b46f</title>
<image xlink:href="icons/bigquery.png" width="101px" height="101px" preserveAspectRatio="xMinYMin meet" x="595" y="-520.5"/>
<text text-anchor="middle" x="645.5" y="-405.1" font-family="Sans-Serif" font-size="13.00" fill="#2d3436">kwanko.l_kwa_formulaires_traitements</text>
</g>
<!-- e34d91f1850f4aba9c1ba72b698e0f1b&#45;&gt;4dde612929aa402381fc4af937f2b46f -->
<g id="edge4" class="edge">
<title>e34d91f1850f4aba9c1ba72b698e0f1b&#45;&gt;4dde612929aa402381fc4af937f2b46f</title>
<path fill="none" stroke="#7b8894" d="M396.16,-1010C485.8,-1010 663,-1010 663,-1010 663,-1010 663,-548.67 663,-548.67"/>
<polygon fill="#7b8894" stroke="#7b8894" points="666.5,-548.67 663,-538.67 659.5,-548.67 666.5,-548.67"/>
<text text-anchor="middle" x="495.5" y="-834.6" font-family="Sans-Serif" font-size="13.00" fill="darkgrey">t_formulaires_traitements</text>
</g>
<!-- a7b2fd6c4ccb46e5b736cf62fd7ff5e0 -->
<g id="node3" class="node">
<title>a7b2fd6c4ccb46e5b736cf62fd7ff5e0</title>
<image xlink:href="icons/storage.png" width="101px" height="101px" preserveAspectRatio="xMinYMin meet" x="16" y="-880.5"/>
<text text-anchor="middle" x="66.5" y="-765.1" font-family="Sans-Serif" font-size="13.00" fill="#2d3436">kwanko.validation_manuelle_kwanko</text>
</g>
<!-- 58c7c6034bb042ed9cc5b9edf868ad8e -->
<g id="node4" class="node">
<title>58c7c6034bb042ed9cc5b9edf868ad8e</title>
<image xlink:href="icons/bigquery.png" width="101px" height="101px" preserveAspectRatio="xMinYMin meet" x="295" y="-880.5"/>
<text text-anchor="middle" x="345.5" y="-765.1" font-family="Sans-Serif" font-size="13.00" fill="#2d3436">kwanko.e_kwa_validation_manuelle_stor</text>
</g>
<!-- a7b2fd6c4ccb46e5b736cf62fd7ff5e0&#45;&gt;58c7c6034bb042ed9cc5b9edf868ad8e -->
<g id="edge2" class="edge">
<title>a7b2fd6c4ccb46e5b736cf62fd7ff5e0&#45;&gt;58c7c6034bb042ed9cc5b9edf868ad8e</title>
<path fill="none" stroke="#7b8894" d="M117.02,-830C117.02,-830 284.88,-830 284.88,-830"/>
<polygon fill="#7b8894" stroke="#7b8894" points="284.88,-833.5 294.88,-830 284.88,-826.5 284.88,-833.5"/>
<text text-anchor="middle" x="206" y="-833.6" font-family="Sans-Serif" font-size="13.00" fill="darkgrey">e_validation_manuelle</text>
</g>
<!-- 007c363a3c1f40518ada68029244367a -->
<g id="node5" class="node">
<title>007c363a3c1f40518ada68029244367a</title>
<image xlink:href="icons/bigquery.png" width="101px" height="101px" preserveAspectRatio="xMinYMin meet" x="295" y="-700.5"/>
<text text-anchor="middle" x="345.5" y="-585.1" font-family="Sans-Serif" font-size="13.00" fill="#2d3436">amadeus.e_ama_formulaires_stor</text>
</g>
<!-- 007c363a3c1f40518ada68029244367a&#45;&gt;4dde612929aa402381fc4af937f2b46f -->
<g id="edge3" class="edge">
<title>007c363a3c1f40518ada68029244367a&#45;&gt;4dde612929aa402381fc4af937f2b46f</title>
<path fill="none" stroke="#7b8894" d="M396.18,-650C477.73,-650 629,-650 629,-650 629,-650 629,-548.56 629,-548.56"/>
<polygon fill="#7b8894" stroke="#7b8894" points="632.5,-548.56 629,-538.56 625.5,-548.56 632.5,-548.56"/>
<text text-anchor="middle" x="495.5" y="-594.6" font-family="Sans-Serif" font-size="13.00" fill="darkgrey">t_formulaires_traitements</text>
</g>
<!-- b1898ac1a1244f33b88088ff66f0d90e -->
<g id="node7" class="node">
<title>b1898ac1a1244f33b88088ff66f0d90e</title>
<image xlink:href="icons/bigquery.png" width="101px" height="101px" preserveAspectRatio="xMinYMin meet" x="295" y="-520.5"/>
<text text-anchor="middle" x="345.5" y="-405.1" font-family="Sans-Serif" font-size="13.00" fill="#2d3436">ga.t_ga_formulaires</text>
</g>
<!-- b1898ac1a1244f33b88088ff66f0d90e&#45;&gt;4dde612929aa402381fc4af937f2b46f -->
<g id="edge5" class="edge">
<title>b1898ac1a1244f33b88088ff66f0d90e&#45;&gt;4dde612929aa402381fc4af937f2b46f</title>
<path fill="none" stroke="#7b8894" d="M396.05,-470C396.05,-470 584.99,-470 584.99,-470"/>
<polygon fill="#7b8894" stroke="#7b8894" points="584.99,-473.5 594.99,-470 584.99,-466.5 584.99,-473.5"/>
<text text-anchor="middle" x="495.5" y="-473.6" font-family="Sans-Serif" font-size="13.00" fill="darkgrey">t_formulaires_traitements</text>
</g>
<!-- 74d8652669ff4e6187f20ff235b3afc1 -->
<g id="node8" class="node">
<title>74d8652669ff4e6187f20ff235b3afc1</title>
<image xlink:href="icons/bigquery.png" width="101px" height="101px" preserveAspectRatio="xMinYMin meet" x="295" y="-340.5"/>
<text text-anchor="middle" x="345.5" y="-225.1" font-family="Sans-Serif" font-size="13.00" fill="#2d3436">[?config?].e_kwa_validation_manuelle_stor</text>
</g>
<!-- 74d8652669ff4e6187f20ff235b3afc1&#45;&gt;4dde612929aa402381fc4af937f2b46f -->
<g id="edge6" class="edge">
<title>74d8652669ff4e6187f20ff235b3afc1&#45;&gt;4dde612929aa402381fc4af937f2b46f</title>
<path fill="none" stroke="#7b8894" d="M396.18,-290C477.73,-290 629,-290 629,-290 629,-290 629,-391.44 629,-391.44"/>
<polygon fill="#7b8894" stroke="#7b8894" points="625.5,-391.44 629,-401.44 632.5,-391.44 625.5,-391.44"/>
<text text-anchor="middle" x="495.5" y="-352.6" font-family="Sans-Serif" font-size="13.00" fill="darkgrey">t_formulaires_traitements</text>
</g>
<!-- a939c3b21ac34f62bb58ebeffeabbb7a -->
<g id="node9" class="node">
<title>a939c3b21ac34f62bb58ebeffeabbb7a</title>
<image xlink:href="icons/bigquery.png" width="101px" height="101px" preserveAspectRatio="xMinYMin meet" x="295" y="-160.5"/>
<text text-anchor="middle" x="345.5" y="-45.1" font-family="Sans-Serif" font-size="13.00" fill="#2d3436">[?config?].e_kwa_formulaires_a_exclure_csv</text>
</g>
<!-- a939c3b21ac34f62bb58ebeffeabbb7a&#45;&gt;4dde612929aa402381fc4af937f2b46f -->
<g id="edge7" class="edge">
<title>a939c3b21ac34f62bb58ebeffeabbb7a&#45;&gt;4dde612929aa402381fc4af937f2b46f</title>
<path fill="none" stroke="#7b8894" d="M396.16,-110C485.8,-110 663,-110 663,-110 663,-110 663,-391.44 663,-391.44"/>
<polygon fill="#7b8894" stroke="#7b8894" points="659.5,-391.44 663,-401.44 666.5,-391.44 659.5,-391.44"/>
<text text-anchor="middle" x="495.5" y="-201.6" font-family="Sans-Serif" font-size="13.00" fill="darkgrey">t_formulaires_traitements</text>
</g>
</g>
</svg>
