<?xml version="1.0" encoding="UTF-8" standalone="no"?>
<!DOCTYPE svg PUBLIC "-//W3C//DTD SVG 1.1//EN"
 "http://www.w3.org/Graphics/SVG/1.1/DTD/svg11.dtd">
<!-- Generated by graphviz version 2.47.1 (20210417.1919)
 -->
<!-- Title: my_power Pages: 1 -->
<svg width="1157pt" height="1404pt"
 viewBox="0.00 0.00 1157.00 1404.00" xmlns="http://www.w3.org/2000/svg" xmlns:xlink="http://www.w3.org/1999/xlink">
<g id="graph0" class="graph" transform="scale(1 1) rotate(0) translate(144 1260)">
<title>my_power</title>
<text text-anchor="middle" x="434.5" y="-9" font-family="Sans-Serif" font-size="15.00" fill="#2d3436">my_power</text>
<g id="clust1" class="cluster">
<title>cluster_my_power</title>
<path fill="#e5f5fd" stroke="#aeb6be" d="M20,-33C20,-33 849,-33 849,-33 855,-33 861,-39 861,-45 861,-45 861,-1096 861,-1096 861,-1102 855,-1108 849,-1108 849,-1108 20,-1108 20,-1108 14,-1108 8,-1102 8,-1096 8,-1096 8,-45 8,-45 8,-39 14,-33 20,-33"/>
<text text-anchor="middle" x="44.5" y="-1094.4" font-family="Sans-Serif" font-size="12.00" fill="#2d3436">my_power</text>
</g>
<!-- 2df12363af1b481288534fd0d59f8fb2 -->
<g id="node1" class="node">
<title>2df12363af1b481288534fd0d59f8fb2</title>
<image xlink:href="icons/bigquery.png" width="101px" height="101px" preserveAspectRatio="xMinYMin meet" x="16" y="-1060.5"/>
<text text-anchor="middle" x="66.5" y="-945.1" font-family="Sans-Serif" font-size="13.00" fill="#2d3436">my_power.t_ga_sessions</text>
</g>
<!-- 84ae3f6dda33403fabc3303a85f65ece -->
<g id="node2" class="node">
<title>84ae3f6dda33403fabc3303a85f65ece</title>
<image xlink:href="icons/bigquery.png" width="101px" height="101px" preserveAspectRatio="xMinYMin meet" x="359" y="-1060.5"/>
<text text-anchor="middle" x="409.5" y="-945.1" font-family="Sans-Serif" font-size="13.00" fill="#2d3436">my_power.t_mypower_lead_opportunite_vente_biaises</text>
</g>
<!-- 2df12363af1b481288534fd0d59f8fb2&#45;&gt;84ae3f6dda33403fabc3303a85f65ece -->
<g id="edge1" class="edge">
<title>2df12363af1b481288534fd0d59f8fb2&#45;&gt;84ae3f6dda33403fabc3303a85f65ece</title>
<path fill="none" stroke="#7b8894" d="M117.11,-1044.25C117.11,-1044.25 348.96,-1044.25 348.96,-1044.25"/>
<polygon fill="#7b8894" stroke="#7b8894" points="348.96,-1047.75 358.96,-1044.25 348.96,-1040.75 348.96,-1047.75"/>
<text text-anchor="middle" x="238" y="-1013.6" font-family="Sans-Serif" font-size="13.00" fill="darkgrey">t_lead_opportunite_vente_biaises</text>
</g>
<!-- eec9e7643f4842a98b679459f36b0d65 -->
<g id="node6" class="node">
<title>eec9e7643f4842a98b679459f36b0d65</title>
<image xlink:href="icons/bigquery.png" width="101px" height="101px" preserveAspectRatio="xMinYMin meet" x="752" y="-1057.5"/>
<text text-anchor="middle" x="802.5" y="-942.1" font-family="Sans-Serif" font-size="13.00" fill="#2d3436">my_power.t_mypower_lead_opportunite_vente_jusquau10juin</text>
</g>
<!-- 84ae3f6dda33403fabc3303a85f65ece&#45;&gt;eec9e7643f4842a98b679459f36b0d65 -->
<g id="edge5" class="edge">
<title>84ae3f6dda33403fabc3303a85f65ece&#45;&gt;eec9e7643f4842a98b679459f36b0d65</title>
<path fill="none" stroke="#7b8894" d="M460.07,-1008.5C460.07,-1008.5 741.81,-1008.5 741.81,-1008.5"/>
<polygon fill="#7b8894" stroke="#7b8894" points="741.81,-1012 751.81,-1008.5 741.81,-1005 741.81,-1012"/>
<text text-anchor="middle" x="606" y="-1013.6" font-family="Sans-Serif" font-size="13.00" fill="darkgrey">t_lead_opportunite_vente_jusquau10juin</text>
</g>
<!-- 784eb04b8b3f469ba107e52026dc193c -->
<g id="node8" class="node">
<title>784eb04b8b3f469ba107e52026dc193c</title>
<image xlink:href="icons/bigquery.png" width="101px" height="101px" preserveAspectRatio="xMinYMin meet" x="752" y="-874.5"/>
<text text-anchor="middle" x="802.5" y="-759.1" font-family="Sans-Serif" font-size="13.00" fill="#2d3436">my_power.t_mypower_lead_opportunite_vente_apartir_28juillet</text>
</g>
<!-- 84ae3f6dda33403fabc3303a85f65ece&#45;&gt;784eb04b8b3f469ba107e52026dc193c -->
<g id="edge7" class="edge">
<title>84ae3f6dda33403fabc3303a85f65ece&#45;&gt;784eb04b8b3f469ba107e52026dc193c</title>
<path fill="none" stroke="#7b8894" d="M435,-941.45C435,-923.22 435,-908.5 435,-908.5 435,-908.5 786,-908.5 786,-908.5 786,-908.5 786,-902.61 786,-902.61"/>
<polygon fill="#7b8894" stroke="#7b8894" points="789.5,-902.61 786,-892.61 782.5,-902.61 789.5,-902.61"/>
<text text-anchor="middle" x="606" y="-951.6" font-family="Sans-Serif" font-size="13.00" fill="darkgrey">t_lead_opportunite_vente_apartir_28juillet</text>
</g>
<!-- 6a58a6d714de4196b6fdba5d9e479c09 -->
<g id="node3" class="node">
<title>6a58a6d714de4196b6fdba5d9e479c09</title>
<image xlink:href="icons/bigquery.png" width="101px" height="101px" preserveAspectRatio="xMinYMin meet" x="16" y="-880.5"/>
<text text-anchor="middle" x="66.5" y="-765.1" font-family="Sans-Serif" font-size="13.00" fill="#2d3436">ga.e_gsheet_lead</text>
</g>
<!-- 6a58a6d714de4196b6fdba5d9e479c09&#45;&gt;84ae3f6dda33403fabc3303a85f65ece -->
<g id="edge2" class="edge">
<title>6a58a6d714de4196b6fdba5d9e479c09&#45;&gt;84ae3f6dda33403fabc3303a85f65ece</title>
<path fill="none" stroke="#7b8894" d="M67,-898.68C67,-915.36 67,-928.5 67,-928.5 67,-928.5 385,-928.5 385,-928.5 385,-928.5 385,-931.23 385,-931.23"/>
<polygon fill="#7b8894" stroke="#7b8894" points="381.5,-931.23 385,-941.23 388.5,-931.23 381.5,-931.23"/>
<text text-anchor="middle" x="238" y="-892.6" font-family="Sans-Serif" font-size="13.00" fill="darkgrey">t_lead_opportunite_vente_biaises</text>
</g>
<!-- e7b672a0bd8a4494936bc778205b4d2c -->
<g id="node4" class="node">
<title>e7b672a0bd8a4494936bc778205b4d2c</title>
<image xlink:href="icons/bigquery.png" width="101px" height="101px" preserveAspectRatio="xMinYMin meet" x="16" y="-700.5"/>
<text text-anchor="middle" x="66.5" y="-585.1" font-family="Sans-Serif" font-size="13.00" fill="#2d3436">[?config?].e_gsheet_vente</text>
</g>
<!-- e7b672a0bd8a4494936bc778205b4d2c&#45;&gt;84ae3f6dda33403fabc3303a85f65ece -->
<g id="edge3" class="edge">
<title>e7b672a0bd8a4494936bc778205b4d2c&#45;&gt;84ae3f6dda33403fabc3303a85f65ece</title>
<path fill="none" stroke="#7b8894" d="M117.34,-650C154.35,-650 198,-650 198,-650 198,-650 198,-1010 198,-1010 198,-1010 348.84,-1010 348.84,-1010"/>
<polygon fill="#7b8894" stroke="#7b8894" points="348.84,-1013.5 358.84,-1010 348.84,-1006.5 348.84,-1013.5"/>
<text text-anchor="middle" x="238" y="-741.6" font-family="Sans-Serif" font-size="13.00" fill="darkgrey">t_lead_opportunite_vente_biaises</text>
</g>
<!-- 98c7bdb5dbbb49a99621a878b173c292 -->
<g id="node5" class="node">
<title>98c7bdb5dbbb49a99621a878b173c292</title>
<image xlink:href="icons/bigquery.png" width="101px" height="101px" preserveAspectRatio="xMinYMin meet" x="16" y="-520.5"/>
<text text-anchor="middle" x="66.5" y="-405.1" font-family="Sans-Serif" font-size="13.00" fill="#2d3436">[?config?].e_gsheet_opportunite</text>
</g>
<!-- 98c7bdb5dbbb49a99621a878b173c292&#45;&gt;84ae3f6dda33403fabc3303a85f65ece -->
<g id="edge4" class="edge">
<title>98c7bdb5dbbb49a99621a878b173c292&#45;&gt;84ae3f6dda33403fabc3303a85f65ece</title>
<path fill="none" stroke="#7b8894" d="M117.13,-470C179.98,-470 279,-470 279,-470 279,-470 279,-975.75 279,-975.75 279,-975.75 348.67,-975.75 348.67,-975.75"/>
<polygon fill="#7b8894" stroke="#7b8894" points="348.67,-979.25 358.67,-975.75 348.67,-972.25 348.67,-979.25"/>
<text text-anchor="middle" x="238" y="-532.6" font-family="Sans-Serif" font-size="13.00" fill="darkgrey">t_lead_opportunite_vente_biaises</text>
</g>
<!-- 8a07fd35fa034bb3a327ed6df4343b92 -->
<g id="node7" class="node">
<title>8a07fd35fa034bb3a327ed6df4343b92</title>
<image xlink:href="icons/bigquery.png" width="101px" height="101px" preserveAspectRatio="xMinYMin meet" x="359" y="-880.5"/>
<text text-anchor="middle" x="409.5" y="-765.1" font-family="Sans-Serif" font-size="13.00" fill="#2d3436">[?config?].e_gsheet_classification_campagne</text>
</g>
<!-- 8a07fd35fa034bb3a327ed6df4343b92&#45;&gt;eec9e7643f4842a98b679459f36b0d65 -->
<g id="edge6" class="edge">
<title>8a07fd35fa034bb3a327ed6df4343b92&#45;&gt;eec9e7643f4842a98b679459f36b0d65</title>
<path fill="none" stroke="#7b8894" d="M410,-898.86C410,-910.28 410,-918.5 410,-918.5 410,-918.5 820,-918.5 820,-918.5 820,-918.5 820,-928.14 820,-928.14"/>
<polygon fill="#7b8894" stroke="#7b8894" points="816.5,-928.14 820,-938.14 823.5,-928.14 816.5,-928.14"/>
<text text-anchor="middle" x="606" y="-889.6" font-family="Sans-Serif" font-size="13.00" fill="darkgrey">t_lead_opportunite_vente_jusquau10juin</text>
</g>
<!-- 8a07fd35fa034bb3a327ed6df4343b92&#45;&gt;784eb04b8b3f469ba107e52026dc193c -->
<g id="edge8" class="edge">
<title>8a07fd35fa034bb3a327ed6df4343b92&#45;&gt;784eb04b8b3f469ba107e52026dc193c</title>
<path fill="none" stroke="#7b8894" d="M460.07,-827C460.07,-827 741.81,-827 741.81,-827"/>
<polygon fill="#7b8894" stroke="#7b8894" points="741.81,-830.5 751.81,-827 741.81,-823.5 741.81,-830.5"/>
<text text-anchor="middle" x="606" y="-827.6" font-family="Sans-Serif" font-size="13.00" fill="darkgrey">t_lead_opportunite_vente_apartir_28juillet</text>
</g>
<!-- c0112a5818f64605ada7cda2db9ce2a6 -->
<g id="node9" class="node">
<title>c0112a5818f64605ada7cda2db9ce2a6</title>
<image xlink:href="icons/bigquery.png" width="101px" height="101px" preserveAspectRatio="xMinYMin meet" x="359" y="-700.5"/>
<text text-anchor="middle" x="409.5" y="-585.1" font-family="Sans-Serif" font-size="13.00" fill="#2d3436">[?config?].e_mypower_lead_opportunite_vente_06_12aout</text>
</g>
<!-- c0112a5818f64605ada7cda2db9ce2a6&#45;&gt;784eb04b8b3f469ba107e52026dc193c -->
<g id="edge9" class="edge">
<title>c0112a5818f64605ada7cda2db9ce2a6&#45;&gt;784eb04b8b3f469ba107e52026dc193c</title>
<path fill="none" stroke="#7b8894" d="M460.25,-672.83C570.08,-672.83 820,-672.83 820,-672.83 820,-672.83 820,-745.49 820,-745.49"/>
<polygon fill="#7b8894" stroke="#7b8894" points="816.5,-745.49 820,-755.49 823.5,-745.49 816.5,-745.49"/>
<text text-anchor="middle" x="606" y="-740.6" font-family="Sans-Serif" font-size="13.00" fill="darkgrey">t_lead_opportunite_vente_apartir_28juillet</text>
</g>
<!-- d41dc535a6704a41b59bb7a4c88c3ebd -->
<g id="node11" class="node">
<title>d41dc535a6704a41b59bb7a4c88c3ebd</title>
<image xlink:href="icons/bigquery.png" width="101px" height="101px" preserveAspectRatio="xMinYMin meet" x="752" y="-430.5"/>
<text text-anchor="middle" x="802.5" y="-315.1" font-family="Sans-Serif" font-size="13.00" fill="#2d3436">my_power.t_mypower_lead_opportunite_vente</text>
</g>
<!-- c0112a5818f64605ada7cda2db9ce2a6&#45;&gt;d41dc535a6704a41b59bb7a4c88c3ebd -->
<g id="edge13" class="edge">
<title>c0112a5818f64605ada7cda2db9ce2a6&#45;&gt;d41dc535a6704a41b59bb7a4c88c3ebd</title>
<path fill="none" stroke="#7b8894" d="M460.28,-627.17C563.04,-627.17 786,-627.17 786,-627.17 786,-627.17 786,-458.52 786,-458.52"/>
<polygon fill="#7b8894" stroke="#7b8894" points="789.5,-458.52 786,-448.52 782.5,-458.52 789.5,-458.52"/>
<text text-anchor="middle" x="606" y="-594.6" font-family="Sans-Serif" font-size="13.00" fill="darkgrey">t_lead_opportunite_vente</text>
</g>
<!-- d62e31e5fbf140c0a80e4fd324b96bf8 -->
<g id="node10" class="node">
<title>d62e31e5fbf140c0a80e4fd324b96bf8</title>
<image xlink:href="icons/bigquery.png" width="101px" height="101px" preserveAspectRatio="xMinYMin meet" x="359" y="-340.5"/>
<text text-anchor="middle" x="409.5" y="-225.1" font-family="Sans-Serif" font-size="13.00" fill="#2d3436">my_power.e_mypower_lead_opportunite_vente_juin_juillet</text>
</g>
<!-- d62e31e5fbf140c0a80e4fd324b96bf8&#45;&gt;d41dc535a6704a41b59bb7a4c88c3ebd -->
<g id="edge10" class="edge">
<title>d62e31e5fbf140c0a80e4fd324b96bf8&#45;&gt;d41dc535a6704a41b59bb7a4c88c3ebd</title>
<path fill="none" stroke="#7b8894" d="M460.07,-335C460.07,-335 741.81,-335 741.81,-335"/>
<polygon fill="#7b8894" stroke="#7b8894" points="741.81,-338.5 751.81,-335 741.81,-331.5 741.81,-338.5"/>
<text text-anchor="middle" x="606" y="-323.6" font-family="Sans-Serif" font-size="13.00" fill="darkgrey">t_lead_opportunite_vente</text>
</g>
<!-- ccc90d1a4dd044eb993603922c6e22b4 -->
<g id="node12" class="node">
<title>ccc90d1a4dd044eb993603922c6e22b4</title>
<image xlink:href="icons/bigquery.png" width="101px" height="101px" preserveAspectRatio="xMinYMin meet" x="359" y="-160.5"/>
<text text-anchor="middle" x="409.5" y="-45.1" font-family="Sans-Serif" font-size="13.00" fill="#2d3436">[?config?].t_mypower_lead_opportunite_vente_jusquau10juin</text>
</g>
<!-- ccc90d1a4dd044eb993603922c6e22b4&#45;&gt;d41dc535a6704a41b59bb7a4c88c3ebd -->
<g id="edge11" class="edge">
<title>ccc90d1a4dd044eb993603922c6e22b4&#45;&gt;d41dc535a6704a41b59bb7a4c88c3ebd</title>
<path fill="none" stroke="#7b8894" d="M460.14,-110C566.42,-110 803,-110 803,-110 803,-110 803,-301.17 803,-301.17"/>
<polygon fill="#7b8894" stroke="#7b8894" points="799.5,-301.17 803,-311.17 806.5,-301.17 799.5,-301.17"/>
<text text-anchor="middle" x="606" y="-187.6" font-family="Sans-Serif" font-size="13.00" fill="darkgrey">t_lead_opportunite_vente</text>
</g>
<!-- a16bc052ea20482d81862dfa8cf4b0ae -->
<g id="node13" class="node">
<title>a16bc052ea20482d81862dfa8cf4b0ae</title>
<image xlink:href="icons/bigquery.png" width="101px" height="101px" preserveAspectRatio="xMinYMin meet" x="359" y="-520.5"/>
<text text-anchor="middle" x="409.5" y="-405.1" font-family="Sans-Serif" font-size="13.00" fill="#2d3436">[?config?].t_mypower_lead_opportunite_vente_apartir_28juillet</text>
</g>
<!-- a16bc052ea20482d81862dfa8cf4b0ae&#45;&gt;d41dc535a6704a41b59bb7a4c88c3ebd -->
<g id="edge12" class="edge">
<title>a16bc052ea20482d81862dfa8cf4b0ae&#45;&gt;d41dc535a6704a41b59bb7a4c88c3ebd</title>
<path fill="none" stroke="#7b8894" d="M460.07,-425C460.07,-425 741.81,-425 741.81,-425"/>
<polygon fill="#7b8894" stroke="#7b8894" points="741.81,-428.5 751.81,-425 741.81,-421.5 741.81,-428.5"/>
<text text-anchor="middle" x="606" y="-444.6" font-family="Sans-Serif" font-size="13.00" fill="darkgrey">t_lead_opportunite_vente</text>
</g>
</g>
</svg>
