<?xml version="1.0" encoding="UTF-8" standalone="no"?>
<!DOCTYPE svg PUBLIC "-//W3C//DTD SVG 1.1//EN"
 "http://www.w3.org/Graphics/SVG/1.1/DTD/svg11.dtd">
<!-- Generated by graphviz version 2.47.1 (20210417.1919)
 -->
<!-- Title: my_power Pages: 1 -->
<svg width="1497pt" height="1044pt"
 viewBox="0.00 0.00 1497.00 1044.00" xmlns="http://www.w3.org/2000/svg" xmlns:xlink="http://www.w3.org/1999/xlink">
<g id="graph0" class="graph" transform="scale(1 1) rotate(0) translate(144 900)">
<title>my_power</title>
<text text-anchor="middle" x="604.5" y="-9" font-family="Sans-Serif" font-size="15.00" fill="#2d3436">my_power</text>
<g id="clust1" class="cluster">
<title>cluster_my_power</title>
<path fill="#e5f5fd" stroke="#aeb6be" d="M20,-33C20,-33 1189,-33 1189,-33 1195,-33 1201,-39 1201,-45 1201,-45 1201,-736 1201,-736 1201,-742 1195,-748 1189,-748 1189,-748 20,-748 20,-748 14,-748 8,-742 8,-736 8,-736 8,-45 8,-45 8,-39 14,-33 20,-33"/>
<text text-anchor="middle" x="44.5" y="-734.4" font-family="Sans-Serif" font-size="12.00" fill="#2d3436">my_power</text>
</g>
<!-- e52e41133c25461fa2e2c287fc69a16c -->
<g id="node1" class="node">
<title>e52e41133c25461fa2e2c287fc69a16c</title>
<image xlink:href="icons/bigquery.png" width="101px" height="101px" preserveAspectRatio="xMinYMin meet" x="16" y="-700.5"/>
<text text-anchor="middle" x="66.5" y="-585.1" font-family="Sans-Serif" font-size="13.00" fill="#2d3436">my_power.t_ga_sessions</text>
</g>
<!-- 1d974675ad1947b88c22728a26037da7 -->
<g id="node2" class="node">
<title>1d974675ad1947b88c22728a26037da7</title>
<image xlink:href="icons/bigquery.png" width="101px" height="101px" preserveAspectRatio="xMinYMin meet" x="359" y="-621.5"/>
<text text-anchor="middle" x="409.5" y="-506.1" font-family="Sans-Serif" font-size="13.00" fill="#2d3436">my_power.t_mypower_lead_opportunite_vente_biaises</text>
</g>
<!-- e52e41133c25461fa2e2c287fc69a16c&#45;&gt;1d974675ad1947b88c22728a26037da7 -->
<g id="edge1" class="edge">
<title>e52e41133c25461fa2e2c287fc69a16c&#45;&gt;1d974675ad1947b88c22728a26037da7</title>
<path fill="none" stroke="#7b8894" d="M117.11,-610.5C117.11,-610.5 348.96,-610.5 348.96,-610.5"/>
<polygon fill="#7b8894" stroke="#7b8894" points="348.96,-614 358.96,-610.5 348.96,-607 348.96,-614"/>
<text text-anchor="middle" x="238" y="-613.6" font-family="Sans-Serif" font-size="13.00" fill="darkgrey">t_lead_opportunite_vente_biaises</text>
</g>
<!-- 50339bf82c7c49fcaffd6befadb7ad49 -->
<g id="node6" class="node">
<title>50339bf82c7c49fcaffd6befadb7ad49</title>
<image xlink:href="icons/bigquery.png" width="101px" height="101px" preserveAspectRatio="xMinYMin meet" x="773" y="-621.5"/>
<text text-anchor="middle" x="823.5" y="-506.1" font-family="Sans-Serif" font-size="13.00" fill="#2d3436">my_power.t_mypower_lead_opportunite_vente_jusquau10juin</text>
</g>
<!-- 1d974675ad1947b88c22728a26037da7&#45;&gt;50339bf82c7c49fcaffd6befadb7ad49 -->
<g id="edge5" class="edge">
<title>1d974675ad1947b88c22728a26037da7&#45;&gt;50339bf82c7c49fcaffd6befadb7ad49</title>
<path fill="none" stroke="#7b8894" d="M460.26,-571C460.26,-571 762.97,-571 762.97,-571"/>
<polygon fill="#7b8894" stroke="#7b8894" points="762.97,-574.5 772.97,-571 762.97,-567.5 762.97,-574.5"/>
<text text-anchor="middle" x="606" y="-577.6" font-family="Sans-Serif" font-size="13.00" fill="darkgrey">t_lead_opportunite_vente_jusquau10juin</text>
</g>
<!-- 8f8f70cb20334723b92acd53c79fa037 -->
<g id="node8" class="node">
<title>8f8f70cb20334723b92acd53c79fa037</title>
<image xlink:href="icons/bigquery.png" width="101px" height="101px" preserveAspectRatio="xMinYMin meet" x="773" y="-441.5"/>
<text text-anchor="middle" x="823.5" y="-326.1" font-family="Sans-Serif" font-size="13.00" fill="#2d3436">my_power.t_mypower_lead_opportunite_vente_apartir_28juillet</text>
</g>
<!-- 1d974675ad1947b88c22728a26037da7&#45;&gt;8f8f70cb20334723b92acd53c79fa037 -->
<g id="edge7" class="edge">
<title>1d974675ad1947b88c22728a26037da7&#45;&gt;8f8f70cb20334723b92acd53c79fa037</title>
<path fill="none" stroke="#7b8894" d="M393,-502.22C393,-493.84 393,-488.17 393,-488.17 393,-488.17 807,-488.17 807,-488.17 807,-488.17 807,-469.54 807,-469.54"/>
<polygon fill="#7b8894" stroke="#7b8894" points="810.5,-469.54 807,-459.54 803.5,-469.54 810.5,-469.54"/>
<text text-anchor="middle" x="606" y="-515.6" font-family="Sans-Serif" font-size="13.00" fill="darkgrey">t_lead_opportunite_vente_apartir_28juillet</text>
</g>
<!-- 42ad0994f495406296f2f7823d20b185 -->
<g id="node3" class="node">
<title>42ad0994f495406296f2f7823d20b185</title>
<image xlink:href="icons/bigquery.png" width="101px" height="101px" preserveAspectRatio="xMinYMin meet" x="16" y="-520.5"/>
<text text-anchor="middle" x="66.5" y="-405.1" font-family="Sans-Serif" font-size="13.00" fill="#2d3436">ga.e_gsheet_lead</text>
</g>
<!-- 42ad0994f495406296f2f7823d20b185&#45;&gt;1d974675ad1947b88c22728a26037da7 -->
<g id="edge2" class="edge">
<title>42ad0994f495406296f2f7823d20b185&#45;&gt;1d974675ad1947b88c22728a26037da7</title>
<path fill="none" stroke="#7b8894" d="M117.11,-529.5C117.11,-529.5 348.96,-529.5 348.96,-529.5"/>
<polygon fill="#7b8894" stroke="#7b8894" points="348.96,-533 358.96,-529.5 348.96,-526 348.96,-533"/>
<text text-anchor="middle" x="238" y="-512.6" font-family="Sans-Serif" font-size="13.00" fill="darkgrey">t_lead_opportunite_vente_biaises</text>
</g>
<!-- 5d3047717c97424d99fe2a18ee8cf43e -->
<g id="node4" class="node">
<title>5d3047717c97424d99fe2a18ee8cf43e</title>
<image xlink:href="icons/bigquery.png" width="101px" height="101px" preserveAspectRatio="xMinYMin meet" x="16" y="-340.5"/>
<text text-anchor="middle" x="66.5" y="-225.1" font-family="Sans-Serif" font-size="13.00" fill="#2d3436">my_power.e_gsheet_vente</text>
</g>
<!-- 5d3047717c97424d99fe2a18ee8cf43e&#45;&gt;1d974675ad1947b88c22728a26037da7 -->
<g id="edge3" class="edge">
<title>5d3047717c97424d99fe2a18ee8cf43e&#45;&gt;1d974675ad1947b88c22728a26037da7</title>
<path fill="none" stroke="#7b8894" d="M117.34,-340.5C154.35,-340.5 198,-340.5 198,-340.5 198,-340.5 198,-520.5 198,-520.5 198,-520.5 348.84,-520.5 348.84,-520.5"/>
<polygon fill="#7b8894" stroke="#7b8894" points="348.84,-524 358.84,-520.5 348.84,-517 348.84,-524"/>
<text text-anchor="middle" x="238" y="-371.6" font-family="Sans-Serif" font-size="13.00" fill="darkgrey">t_lead_opportunite_vente_biaises</text>
</g>
<!-- bbdbb00666ab43cd870c48b555721848 -->
<g id="node5" class="node">
<title>bbdbb00666ab43cd870c48b555721848</title>
<image xlink:href="icons/bigquery.png" width="101px" height="101px" preserveAspectRatio="xMinYMin meet" x="16" y="-160.5"/>
<text text-anchor="middle" x="66.5" y="-45.1" font-family="Sans-Serif" font-size="13.00" fill="#2d3436">my_power.e_gsheet_opportunite</text>
</g>
<!-- bbdbb00666ab43cd870c48b555721848&#45;&gt;1d974675ad1947b88c22728a26037da7 -->
<g id="edge4" class="edge">
<title>bbdbb00666ab43cd870c48b555721848&#45;&gt;1d974675ad1947b88c22728a26037da7</title>
<path fill="none" stroke="#7b8894" d="M117.13,-160.5C179.98,-160.5 279,-160.5 279,-160.5 279,-160.5 279,-511.5 279,-511.5 279,-511.5 348.67,-511.5 348.67,-511.5"/>
<polygon fill="#7b8894" stroke="#7b8894" points="348.67,-515 358.67,-511.5 348.67,-508 348.67,-515"/>
<text text-anchor="middle" x="238" y="-172.6" font-family="Sans-Serif" font-size="13.00" fill="darkgrey">t_lead_opportunite_vente_biaises</text>
</g>
<!-- 5c849d6b28ce48fab862d0ff9ca4b1f1 -->
<g id="node11" class="node">
<title>5c849d6b28ce48fab862d0ff9ca4b1f1</title>
<image xlink:href="icons/bigquery.png" width="101px" height="101px" preserveAspectRatio="xMinYMin meet" x="1092" y="-339.5"/>
<text text-anchor="middle" x="1142.5" y="-224.1" font-family="Sans-Serif" font-size="13.00" fill="#2d3436">my_power.t_mypower_lead_opportunite_vente</text>
</g>
<!-- 50339bf82c7c49fcaffd6befadb7ad49&#45;&gt;5c849d6b28ce48fab862d0ff9ca4b1f1 -->
<g id="edge11" class="edge">
<title>50339bf82c7c49fcaffd6befadb7ad49&#45;&gt;5c849d6b28ce48fab862d0ff9ca4b1f1</title>
<path fill="none" stroke="#7b8894" d="M874.13,-571C964.22,-571 1143,-571 1143,-571 1143,-571 1143,-367.62 1143,-367.62"/>
<polygon fill="#7b8894" stroke="#7b8894" points="1146.5,-367.62 1143,-357.62 1139.5,-367.62 1146.5,-367.62"/>
<text text-anchor="middle" x="993.5" y="-495.6" font-family="Sans-Serif" font-size="13.00" fill="darkgrey">t_lead_opportunite_vente</text>
</g>
<!-- 3ee0d1fc45e84c7284c96b9951548b90 -->
<g id="node7" class="node">
<title>3ee0d1fc45e84c7284c96b9951548b90</title>
<image xlink:href="icons/bigquery.png" width="101px" height="101px" preserveAspectRatio="xMinYMin meet" x="359" y="-441.5"/>
<text text-anchor="middle" x="409.5" y="-326.1" font-family="Sans-Serif" font-size="13.00" fill="#2d3436">my_power.e_gsheet_classification_campagne</text>
</g>
<!-- 3ee0d1fc45e84c7284c96b9951548b90&#45;&gt;50339bf82c7c49fcaffd6befadb7ad49 -->
<g id="edge6" class="edge">
<title>3ee0d1fc45e84c7284c96b9951548b90&#45;&gt;50339bf82c7c49fcaffd6befadb7ad49</title>
<path fill="none" stroke="#7b8894" d="M427,-459.78C427,-468.16 427,-473.83 427,-473.83 427,-473.83 841,-473.83 841,-473.83 841,-473.83 841,-492.46 841,-492.46"/>
<polygon fill="#7b8894" stroke="#7b8894" points="837.5,-492.46 841,-502.46 844.5,-492.46 837.5,-492.46"/>
<text text-anchor="middle" x="606" y="-453.6" font-family="Sans-Serif" font-size="13.00" fill="darkgrey">t_lead_opportunite_vente_jusquau10juin</text>
</g>
<!-- 3ee0d1fc45e84c7284c96b9951548b90&#45;&gt;8f8f70cb20334723b92acd53c79fa037 -->
<g id="edge8" class="edge">
<title>3ee0d1fc45e84c7284c96b9951548b90&#45;&gt;8f8f70cb20334723b92acd53c79fa037</title>
<path fill="none" stroke="#7b8894" d="M460.26,-391C460.26,-391 762.97,-391 762.97,-391"/>
<polygon fill="#7b8894" stroke="#7b8894" points="762.97,-394.5 772.97,-391 762.97,-387.5 762.97,-394.5"/>
<text text-anchor="middle" x="606" y="-391.6" font-family="Sans-Serif" font-size="13.00" fill="darkgrey">t_lead_opportunite_vente_apartir_28juillet</text>
</g>
<!-- 8f8f70cb20334723b92acd53c79fa037&#45;&gt;5c849d6b28ce48fab862d0ff9ca4b1f1 -->
<g id="edge12" class="edge">
<title>8f8f70cb20334723b92acd53c79fa037&#45;&gt;5c849d6b28ce48fab862d0ff9ca4b1f1</title>
<path fill="none" stroke="#7b8894" d="M874.05,-340C874.05,-340 1081.93,-340 1081.93,-340"/>
<polygon fill="#7b8894" stroke="#7b8894" points="1081.93,-343.5 1091.93,-340 1081.93,-336.5 1081.93,-343.5"/>
<text text-anchor="middle" x="993.5" y="-355.6" font-family="Sans-Serif" font-size="13.00" fill="darkgrey">t_lead_opportunite_vente</text>
</g>
<!-- 36ae2cbeedbc48d19e791f2eb6dcda29 -->
<g id="node9" class="node">
<title>36ae2cbeedbc48d19e791f2eb6dcda29</title>
<image xlink:href="icons/bigquery.png" width="101px" height="101px" preserveAspectRatio="xMinYMin meet" x="359" y="-261.5"/>
<text text-anchor="middle" x="409.5" y="-146.1" font-family="Sans-Serif" font-size="13.00" fill="#2d3436">my_power.e_mypower_lead_opportunite_vente_06_12aout</text>
</g>
<!-- 36ae2cbeedbc48d19e791f2eb6dcda29&#45;&gt;8f8f70cb20334723b92acd53c79fa037 -->
<g id="edge9" class="edge">
<title>36ae2cbeedbc48d19e791f2eb6dcda29&#45;&gt;8f8f70cb20334723b92acd53c79fa037</title>
<path fill="none" stroke="#7b8894" d="M460.25,-264.75C567.41,-264.75 807,-264.75 807,-264.75 807,-264.75 807,-312.33 807,-312.33"/>
<polygon fill="#7b8894" stroke="#7b8894" points="803.5,-312.33 807,-322.33 810.5,-312.33 803.5,-312.33"/>
<text text-anchor="middle" x="606" y="-325.6" font-family="Sans-Serif" font-size="13.00" fill="darkgrey">t_lead_opportunite_vente_apartir_28juillet</text>
</g>
<!-- 36ae2cbeedbc48d19e791f2eb6dcda29&#45;&gt;5c849d6b28ce48fab862d0ff9ca4b1f1 -->
<g id="edge13" class="edge">
<title>36ae2cbeedbc48d19e791f2eb6dcda29&#45;&gt;5c849d6b28ce48fab862d0ff9ca4b1f1</title>
<path fill="none" stroke="#7b8894" d="M460.17,-250C460.17,-250 1081.82,-250 1081.82,-250"/>
<polygon fill="#7b8894" stroke="#7b8894" points="1081.82,-253.5 1091.82,-250 1081.82,-246.5 1081.82,-253.5"/>
<text text-anchor="middle" x="823.5" y="-268.6" font-family="Sans-Serif" font-size="13.00" fill="darkgrey">t_lead_opportunite_vente</text>
</g>
<!-- 1b02fe48d7cb46c0a290c4a34afa09f3 -->
<g id="node10" class="node">
<title>1b02fe48d7cb46c0a290c4a34afa09f3</title>
<image xlink:href="icons/bigquery.png" width="101px" height="101px" preserveAspectRatio="xMinYMin meet" x="773" y="-160.5"/>
<text text-anchor="middle" x="823.5" y="-45.1" font-family="Sans-Serif" font-size="13.00" fill="#2d3436">my_power.e_mypower_lead_opportunite_vente_juin_juillet</text>
</g>
<!-- 1b02fe48d7cb46c0a290c4a34afa09f3&#45;&gt;5c849d6b28ce48fab862d0ff9ca4b1f1 -->
<g id="edge10" class="edge">
<title>1b02fe48d7cb46c0a290c4a34afa09f3&#45;&gt;5c849d6b28ce48fab862d0ff9ca4b1f1</title>
<path fill="none" stroke="#7b8894" d="M841,-178.85C841,-207.96 841,-235.25 841,-235.25 841,-235.25 1081.7,-235.25 1081.7,-235.25"/>
<polygon fill="#7b8894" stroke="#7b8894" points="1081.7,-238.75 1091.7,-235.25 1081.7,-231.75 1081.7,-238.75"/>
<text text-anchor="middle" x="993.5" y="-180.6" font-family="Sans-Serif" font-size="13.00" fill="darkgrey">t_lead_opportunite_vente</text>
</g>
</g>
</svg>
