<?xml version="1.0" encoding="UTF-8" standalone="no"?>
<!DOCTYPE svg PUBLIC "-//W3C//DTD SVG 1.1//EN"
 "http://www.w3.org/Graphics/SVG/1.1/DTD/svg11.dtd">
<!-- Generated by graphviz version 2.47.1 (20210417.1919)
 -->
<!-- Title: my_power Pages: 1 -->
<svg width="1157pt" height="1404pt"
 viewBox="0.00 0.00 1157.00 1404.00" xmlns="http://www.w3.org/2000/svg" xmlns:xlink="http://www.w3.org/1999/xlink">
<g id="graph0" class="graph" transform="scale(1 1) rotate(0) translate(144 1260)">
<title>my_power</title>
<text text-anchor="middle" x="434.5" y="-9" font-family="Sans-Serif" font-size="15.00" fill="#2d3436">my_power</text>
<g id="clust1" class="cluster">
<title>cluster_my_power</title>
<path fill="#e5f5fd" stroke="#aeb6be" d="M20,-33C20,-33 849,-33 849,-33 855,-33 861,-39 861,-45 861,-45 861,-1096 861,-1096 861,-1102 855,-1108 849,-1108 849,-1108 20,-1108 20,-1108 14,-1108 8,-1102 8,-1096 8,-1096 8,-45 8,-45 8,-39 14,-33 20,-33"/>
<text text-anchor="middle" x="44.5" y="-1094.4" font-family="Sans-Serif" font-size="12.00" fill="#2d3436">my_power</text>
</g>
<!-- 0ba897ae56d54e1ab4aa5e9113344216 -->
<g id="node1" class="node">
<title>0ba897ae56d54e1ab4aa5e9113344216</title>
<image xlink:href="icons/bigquery.png" width="101px" height="101px" preserveAspectRatio="xMinYMin meet" x="16" y="-1060.5"/>
<text text-anchor="middle" x="66.5" y="-945.1" font-family="Sans-Serif" font-size="13.00" fill="#2d3436">my_power.t_ga_sessions</text>
</g>
<!-- 73bd9d55d2a94de58db68ddef21e12fe -->
<g id="node2" class="node">
<title>73bd9d55d2a94de58db68ddef21e12fe</title>
<image xlink:href="icons/bigquery.png" width="101px" height="101px" preserveAspectRatio="xMinYMin meet" x="359" y="-1060.5"/>
<text text-anchor="middle" x="409.5" y="-945.1" font-family="Sans-Serif" font-size="13.00" fill="#2d3436">my_power.t_mypower_lead_opportunite_vente_biaises</text>
</g>
<!-- 0ba897ae56d54e1ab4aa5e9113344216&#45;&gt;73bd9d55d2a94de58db68ddef21e12fe -->
<g id="edge1" class="edge">
<title>0ba897ae56d54e1ab4aa5e9113344216&#45;&gt;73bd9d55d2a94de58db68ddef21e12fe</title>
<path fill="none" stroke="#7b8894" d="M117.11,-1044.25C117.11,-1044.25 348.96,-1044.25 348.96,-1044.25"/>
<polygon fill="#7b8894" stroke="#7b8894" points="348.96,-1047.75 358.96,-1044.25 348.96,-1040.75 348.96,-1047.75"/>
<text text-anchor="middle" x="238" y="-1013.6" font-family="Sans-Serif" font-size="13.00" fill="darkgrey">t_lead_opportunite_vente_biaises</text>
</g>
<!-- 94957b6a78834483a090082a2896c0c3 -->
<g id="node6" class="node">
<title>94957b6a78834483a090082a2896c0c3</title>
<image xlink:href="icons/bigquery.png" width="101px" height="101px" preserveAspectRatio="xMinYMin meet" x="752" y="-1057.5"/>
<text text-anchor="middle" x="802.5" y="-942.1" font-family="Sans-Serif" font-size="13.00" fill="#2d3436">my_power.t_mypower_lead_opportunite_vente_jusquau10juin</text>
</g>
<!-- 73bd9d55d2a94de58db68ddef21e12fe&#45;&gt;94957b6a78834483a090082a2896c0c3 -->
<g id="edge5" class="edge">
<title>73bd9d55d2a94de58db68ddef21e12fe&#45;&gt;94957b6a78834483a090082a2896c0c3</title>
<path fill="none" stroke="#7b8894" d="M460.07,-1008.5C460.07,-1008.5 741.81,-1008.5 741.81,-1008.5"/>
<polygon fill="#7b8894" stroke="#7b8894" points="741.81,-1012 751.81,-1008.5 741.81,-1005 741.81,-1012"/>
<text text-anchor="middle" x="606" y="-1013.6" font-family="Sans-Serif" font-size="13.00" fill="darkgrey">t_lead_opportunite_vente_jusquau10juin</text>
</g>
<!-- 1970d8fe4c8945ed9087d77f186dcc27 -->
<g id="node8" class="node">
<title>1970d8fe4c8945ed9087d77f186dcc27</title>
<image xlink:href="icons/bigquery.png" width="101px" height="101px" preserveAspectRatio="xMinYMin meet" x="752" y="-874.5"/>
<text text-anchor="middle" x="802.5" y="-759.1" font-family="Sans-Serif" font-size="13.00" fill="#2d3436">my_power.t_mypower_lead_opportunite_vente_apartir_28juillet</text>
</g>
<!-- 73bd9d55d2a94de58db68ddef21e12fe&#45;&gt;1970d8fe4c8945ed9087d77f186dcc27 -->
<g id="edge7" class="edge">
<title>73bd9d55d2a94de58db68ddef21e12fe&#45;&gt;1970d8fe4c8945ed9087d77f186dcc27</title>
<path fill="none" stroke="#7b8894" d="M435,-941.45C435,-923.22 435,-908.5 435,-908.5 435,-908.5 786,-908.5 786,-908.5 786,-908.5 786,-902.61 786,-902.61"/>
<polygon fill="#7b8894" stroke="#7b8894" points="789.5,-902.61 786,-892.61 782.5,-902.61 789.5,-902.61"/>
<text text-anchor="middle" x="606" y="-951.6" font-family="Sans-Serif" font-size="13.00" fill="darkgrey">t_lead_opportunite_vente_apartir_28juillet</text>
</g>
<!-- d75dcf438a6c47cdbc36a037c2a8615a -->
<g id="node3" class="node">
<title>d75dcf438a6c47cdbc36a037c2a8615a</title>
<image xlink:href="icons/bigquery.png" width="101px" height="101px" preserveAspectRatio="xMinYMin meet" x="16" y="-880.5"/>
<text text-anchor="middle" x="66.5" y="-765.1" font-family="Sans-Serif" font-size="13.00" fill="#2d3436">ga.e_gsheet_lead</text>
</g>
<!-- d75dcf438a6c47cdbc36a037c2a8615a&#45;&gt;73bd9d55d2a94de58db68ddef21e12fe -->
<g id="edge2" class="edge">
<title>d75dcf438a6c47cdbc36a037c2a8615a&#45;&gt;73bd9d55d2a94de58db68ddef21e12fe</title>
<path fill="none" stroke="#7b8894" d="M67,-898.68C67,-915.36 67,-928.5 67,-928.5 67,-928.5 385,-928.5 385,-928.5 385,-928.5 385,-931.23 385,-931.23"/>
<polygon fill="#7b8894" stroke="#7b8894" points="381.5,-931.23 385,-941.23 388.5,-931.23 381.5,-931.23"/>
<text text-anchor="middle" x="238" y="-892.6" font-family="Sans-Serif" font-size="13.00" fill="darkgrey">t_lead_opportunite_vente_biaises</text>
</g>
<!-- cffa2b70fdf947a2868d8febc16cee3d -->
<g id="node4" class="node">
<title>cffa2b70fdf947a2868d8febc16cee3d</title>
<image xlink:href="icons/bigquery.png" width="101px" height="101px" preserveAspectRatio="xMinYMin meet" x="16" y="-700.5"/>
<text text-anchor="middle" x="66.5" y="-585.1" font-family="Sans-Serif" font-size="13.00" fill="#2d3436">[?config?].e_gsheet_vente</text>
</g>
<!-- cffa2b70fdf947a2868d8febc16cee3d&#45;&gt;73bd9d55d2a94de58db68ddef21e12fe -->
<g id="edge3" class="edge">
<title>cffa2b70fdf947a2868d8febc16cee3d&#45;&gt;73bd9d55d2a94de58db68ddef21e12fe</title>
<path fill="none" stroke="#7b8894" d="M117.34,-650C154.35,-650 198,-650 198,-650 198,-650 198,-1010 198,-1010 198,-1010 348.84,-1010 348.84,-1010"/>
<polygon fill="#7b8894" stroke="#7b8894" points="348.84,-1013.5 358.84,-1010 348.84,-1006.5 348.84,-1013.5"/>
<text text-anchor="middle" x="238" y="-741.6" font-family="Sans-Serif" font-size="13.00" fill="darkgrey">t_lead_opportunite_vente_biaises</text>
</g>
<!-- 59451793b899495ba8cc0a305abd4a35 -->
<g id="node5" class="node">
<title>59451793b899495ba8cc0a305abd4a35</title>
<image xlink:href="icons/bigquery.png" width="101px" height="101px" preserveAspectRatio="xMinYMin meet" x="16" y="-520.5"/>
<text text-anchor="middle" x="66.5" y="-405.1" font-family="Sans-Serif" font-size="13.00" fill="#2d3436">[?config?].e_gsheet_opportunite</text>
</g>
<!-- 59451793b899495ba8cc0a305abd4a35&#45;&gt;73bd9d55d2a94de58db68ddef21e12fe -->
<g id="edge4" class="edge">
<title>59451793b899495ba8cc0a305abd4a35&#45;&gt;73bd9d55d2a94de58db68ddef21e12fe</title>
<path fill="none" stroke="#7b8894" d="M117.13,-470C179.98,-470 279,-470 279,-470 279,-470 279,-975.75 279,-975.75 279,-975.75 348.67,-975.75 348.67,-975.75"/>
<polygon fill="#7b8894" stroke="#7b8894" points="348.67,-979.25 358.67,-975.75 348.67,-972.25 348.67,-979.25"/>
<text text-anchor="middle" x="238" y="-532.6" font-family="Sans-Serif" font-size="13.00" fill="darkgrey">t_lead_opportunite_vente_biaises</text>
</g>
<!-- eb8437277bdc408791f73fb621ba8a94 -->
<g id="node7" class="node">
<title>eb8437277bdc408791f73fb621ba8a94</title>
<image xlink:href="icons/bigquery.png" width="101px" height="101px" preserveAspectRatio="xMinYMin meet" x="359" y="-880.5"/>
<text text-anchor="middle" x="409.5" y="-765.1" font-family="Sans-Serif" font-size="13.00" fill="#2d3436">[?config?].e_gsheet_classification_campagne</text>
</g>
<!-- eb8437277bdc408791f73fb621ba8a94&#45;&gt;94957b6a78834483a090082a2896c0c3 -->
<g id="edge6" class="edge">
<title>eb8437277bdc408791f73fb621ba8a94&#45;&gt;94957b6a78834483a090082a2896c0c3</title>
<path fill="none" stroke="#7b8894" d="M410,-898.86C410,-910.28 410,-918.5 410,-918.5 410,-918.5 820,-918.5 820,-918.5 820,-918.5 820,-928.14 820,-928.14"/>
<polygon fill="#7b8894" stroke="#7b8894" points="816.5,-928.14 820,-938.14 823.5,-928.14 816.5,-928.14"/>
<text text-anchor="middle" x="606" y="-889.6" font-family="Sans-Serif" font-size="13.00" fill="darkgrey">t_lead_opportunite_vente_jusquau10juin</text>
</g>
<!-- eb8437277bdc408791f73fb621ba8a94&#45;&gt;1970d8fe4c8945ed9087d77f186dcc27 -->
<g id="edge8" class="edge">
<title>eb8437277bdc408791f73fb621ba8a94&#45;&gt;1970d8fe4c8945ed9087d77f186dcc27</title>
<path fill="none" stroke="#7b8894" d="M460.07,-827C460.07,-827 741.81,-827 741.81,-827"/>
<polygon fill="#7b8894" stroke="#7b8894" points="741.81,-830.5 751.81,-827 741.81,-823.5 741.81,-830.5"/>
<text text-anchor="middle" x="606" y="-827.6" font-family="Sans-Serif" font-size="13.00" fill="darkgrey">t_lead_opportunite_vente_apartir_28juillet</text>
</g>
<!-- 3d0745a5ab554c41ac3a091b45539f3b -->
<g id="node9" class="node">
<title>3d0745a5ab554c41ac3a091b45539f3b</title>
<image xlink:href="icons/bigquery.png" width="101px" height="101px" preserveAspectRatio="xMinYMin meet" x="359" y="-700.5"/>
<text text-anchor="middle" x="409.5" y="-585.1" font-family="Sans-Serif" font-size="13.00" fill="#2d3436">[?config?].e_mypower_lead_opportunite_vente_06_12aout</text>
</g>
<!-- 3d0745a5ab554c41ac3a091b45539f3b&#45;&gt;1970d8fe4c8945ed9087d77f186dcc27 -->
<g id="edge9" class="edge">
<title>3d0745a5ab554c41ac3a091b45539f3b&#45;&gt;1970d8fe4c8945ed9087d77f186dcc27</title>
<path fill="none" stroke="#7b8894" d="M460.25,-672.83C570.08,-672.83 820,-672.83 820,-672.83 820,-672.83 820,-745.49 820,-745.49"/>
<polygon fill="#7b8894" stroke="#7b8894" points="816.5,-745.49 820,-755.49 823.5,-745.49 816.5,-745.49"/>
<text text-anchor="middle" x="606" y="-740.6" font-family="Sans-Serif" font-size="13.00" fill="darkgrey">t_lead_opportunite_vente_apartir_28juillet</text>
</g>
<!-- 72d9f3409a0341c6bebebbccb083bf1f -->
<g id="node11" class="node">
<title>72d9f3409a0341c6bebebbccb083bf1f</title>
<image xlink:href="icons/bigquery.png" width="101px" height="101px" preserveAspectRatio="xMinYMin meet" x="752" y="-430.5"/>
<text text-anchor="middle" x="802.5" y="-315.1" font-family="Sans-Serif" font-size="13.00" fill="#2d3436">my_power.t_mypower_lead_opportunite_vente</text>
</g>
<!-- 3d0745a5ab554c41ac3a091b45539f3b&#45;&gt;72d9f3409a0341c6bebebbccb083bf1f -->
<g id="edge13" class="edge">
<title>3d0745a5ab554c41ac3a091b45539f3b&#45;&gt;72d9f3409a0341c6bebebbccb083bf1f</title>
<path fill="none" stroke="#7b8894" d="M460.28,-627.17C563.04,-627.17 786,-627.17 786,-627.17 786,-627.17 786,-458.52 786,-458.52"/>
<polygon fill="#7b8894" stroke="#7b8894" points="789.5,-458.52 786,-448.52 782.5,-458.52 789.5,-458.52"/>
<text text-anchor="middle" x="606" y="-594.6" font-family="Sans-Serif" font-size="13.00" fill="darkgrey">t_lead_opportunite_vente</text>
</g>
<!-- 8f8ae2ea036f4bb7a4d07c6424cffe7e -->
<g id="node10" class="node">
<title>8f8ae2ea036f4bb7a4d07c6424cffe7e</title>
<image xlink:href="icons/bigquery.png" width="101px" height="101px" preserveAspectRatio="xMinYMin meet" x="359" y="-340.5"/>
<text text-anchor="middle" x="409.5" y="-225.1" font-family="Sans-Serif" font-size="13.00" fill="#2d3436">my_power.e_mypower_lead_opportunite_vente_juin_juillet</text>
</g>
<!-- 8f8ae2ea036f4bb7a4d07c6424cffe7e&#45;&gt;72d9f3409a0341c6bebebbccb083bf1f -->
<g id="edge10" class="edge">
<title>8f8ae2ea036f4bb7a4d07c6424cffe7e&#45;&gt;72d9f3409a0341c6bebebbccb083bf1f</title>
<path fill="none" stroke="#7b8894" d="M460.07,-335C460.07,-335 741.81,-335 741.81,-335"/>
<polygon fill="#7b8894" stroke="#7b8894" points="741.81,-338.5 751.81,-335 741.81,-331.5 741.81,-338.5"/>
<text text-anchor="middle" x="606" y="-323.6" font-family="Sans-Serif" font-size="13.00" fill="darkgrey">t_lead_opportunite_vente</text>
</g>
<!-- cca70d87d33b46f4a576e79e8ad7c3e4 -->
<g id="node12" class="node">
<title>cca70d87d33b46f4a576e79e8ad7c3e4</title>
<image xlink:href="icons/bigquery.png" width="101px" height="101px" preserveAspectRatio="xMinYMin meet" x="359" y="-160.5"/>
<text text-anchor="middle" x="409.5" y="-45.1" font-family="Sans-Serif" font-size="13.00" fill="#2d3436">[?config?].t_mypower_lead_opportunite_vente_jusquau10juin</text>
</g>
<!-- cca70d87d33b46f4a576e79e8ad7c3e4&#45;&gt;72d9f3409a0341c6bebebbccb083bf1f -->
<g id="edge11" class="edge">
<title>cca70d87d33b46f4a576e79e8ad7c3e4&#45;&gt;72d9f3409a0341c6bebebbccb083bf1f</title>
<path fill="none" stroke="#7b8894" d="M460.14,-110C566.42,-110 803,-110 803,-110 803,-110 803,-301.17 803,-301.17"/>
<polygon fill="#7b8894" stroke="#7b8894" points="799.5,-301.17 803,-311.17 806.5,-301.17 799.5,-301.17"/>
<text text-anchor="middle" x="606" y="-187.6" font-family="Sans-Serif" font-size="13.00" fill="darkgrey">t_lead_opportunite_vente</text>
</g>
<!-- 4a57782d352d45139100c196840b53d1 -->
<g id="node13" class="node">
<title>4a57782d352d45139100c196840b53d1</title>
<image xlink:href="icons/bigquery.png" width="101px" height="101px" preserveAspectRatio="xMinYMin meet" x="359" y="-520.5"/>
<text text-anchor="middle" x="409.5" y="-405.1" font-family="Sans-Serif" font-size="13.00" fill="#2d3436">[?config?].t_mypower_lead_opportunite_vente_apartir_28juillet</text>
</g>
<!-- 4a57782d352d45139100c196840b53d1&#45;&gt;72d9f3409a0341c6bebebbccb083bf1f -->
<g id="edge12" class="edge">
<title>4a57782d352d45139100c196840b53d1&#45;&gt;72d9f3409a0341c6bebebbccb083bf1f</title>
<path fill="none" stroke="#7b8894" d="M460.07,-425C460.07,-425 741.81,-425 741.81,-425"/>
<polygon fill="#7b8894" stroke="#7b8894" points="741.81,-428.5 751.81,-425 741.81,-421.5 741.81,-428.5"/>
<text text-anchor="middle" x="606" y="-444.6" font-family="Sans-Serif" font-size="13.00" fill="darkgrey">t_lead_opportunite_vente</text>
</g>
</g>
</svg>
