<?xml version="1.0" encoding="UTF-8" standalone="no"?>
<!DOCTYPE svg PUBLIC "-//W3C//DTD SVG 1.1//EN"
 "http://www.w3.org/Graphics/SVG/1.1/DTD/svg11.dtd">
<!-- Generated by graphviz version 2.47.1 (20210417.1919)
 -->
<!-- Title: my_power Pages: 1 -->
<svg width="1497pt" height="1044pt"
 viewBox="0.00 0.00 1497.00 1044.00" xmlns="http://www.w3.org/2000/svg" xmlns:xlink="http://www.w3.org/1999/xlink">
<g id="graph0" class="graph" transform="scale(1 1) rotate(0) translate(144 900)">
<title>my_power</title>
<text text-anchor="middle" x="604.5" y="-9" font-family="Sans-Serif" font-size="15.00" fill="#2d3436">my_power</text>
<g id="clust1" class="cluster">
<title>cluster_my_power</title>
<path fill="#e5f5fd" stroke="#aeb6be" d="M20,-33C20,-33 1189,-33 1189,-33 1195,-33 1201,-39 1201,-45 1201,-45 1201,-736 1201,-736 1201,-742 1195,-748 1189,-748 1189,-748 20,-748 20,-748 14,-748 8,-742 8,-736 8,-736 8,-45 8,-45 8,-39 14,-33 20,-33"/>
<text text-anchor="middle" x="44.5" y="-734.4" font-family="Sans-Serif" font-size="12.00" fill="#2d3436">my_power</text>
</g>
<!-- b90c451e619c499b815987eac4e604c1 -->
<g id="node1" class="node">
<title>b90c451e619c499b815987eac4e604c1</title>
<image xlink:href="icons/bigquery.png" width="101px" height="101px" preserveAspectRatio="xMinYMin meet" x="16" y="-700.5"/>
<text text-anchor="middle" x="66.5" y="-585.1" font-family="Sans-Serif" font-size="13.00" fill="#2d3436">my_power.t_ga_sessions</text>
</g>
<!-- 0750535364e04d7485dc6d16886e39f0 -->
<g id="node2" class="node">
<title>0750535364e04d7485dc6d16886e39f0</title>
<image xlink:href="icons/bigquery.png" width="101px" height="101px" preserveAspectRatio="xMinYMin meet" x="359" y="-621.5"/>
<text text-anchor="middle" x="409.5" y="-506.1" font-family="Sans-Serif" font-size="13.00" fill="#2d3436">my_power.t_mypower_lead_opportunite_vente_biaises</text>
</g>
<!-- b90c451e619c499b815987eac4e604c1&#45;&gt;0750535364e04d7485dc6d16886e39f0 -->
<g id="edge1" class="edge">
<title>b90c451e619c499b815987eac4e604c1&#45;&gt;0750535364e04d7485dc6d16886e39f0</title>
<path fill="none" stroke="#7b8894" d="M117.11,-610.5C117.11,-610.5 348.96,-610.5 348.96,-610.5"/>
<polygon fill="#7b8894" stroke="#7b8894" points="348.96,-614 358.96,-610.5 348.96,-607 348.96,-614"/>
<text text-anchor="middle" x="238" y="-613.6" font-family="Sans-Serif" font-size="13.00" fill="darkgrey">t_lead_opportunite_vente_biaises</text>
</g>
<!-- 9d7ced5c86994f4faffaaa51ac7fcb85 -->
<g id="node6" class="node">
<title>9d7ced5c86994f4faffaaa51ac7fcb85</title>
<image xlink:href="icons/bigquery.png" width="101px" height="101px" preserveAspectRatio="xMinYMin meet" x="773" y="-621.5"/>
<text text-anchor="middle" x="823.5" y="-506.1" font-family="Sans-Serif" font-size="13.00" fill="#2d3436">my_power.t_mypower_lead_opportunite_vente_jusquau10juin</text>
</g>
<!-- 0750535364e04d7485dc6d16886e39f0&#45;&gt;9d7ced5c86994f4faffaaa51ac7fcb85 -->
<g id="edge5" class="edge">
<title>0750535364e04d7485dc6d16886e39f0&#45;&gt;9d7ced5c86994f4faffaaa51ac7fcb85</title>
<path fill="none" stroke="#7b8894" d="M460.26,-571C460.26,-571 762.97,-571 762.97,-571"/>
<polygon fill="#7b8894" stroke="#7b8894" points="762.97,-574.5 772.97,-571 762.97,-567.5 762.97,-574.5"/>
<text text-anchor="middle" x="606" y="-577.6" font-family="Sans-Serif" font-size="13.00" fill="darkgrey">t_lead_opportunite_vente_jusquau10juin</text>
</g>
<!-- eb1e76c997f54f5c8405afbd81604ce7 -->
<g id="node8" class="node">
<title>eb1e76c997f54f5c8405afbd81604ce7</title>
<image xlink:href="icons/bigquery.png" width="101px" height="101px" preserveAspectRatio="xMinYMin meet" x="773" y="-441.5"/>
<text text-anchor="middle" x="823.5" y="-326.1" font-family="Sans-Serif" font-size="13.00" fill="#2d3436">my_power.t_mypower_lead_opportunite_vente_apartir_28juillet</text>
</g>
<!-- 0750535364e04d7485dc6d16886e39f0&#45;&gt;eb1e76c997f54f5c8405afbd81604ce7 -->
<g id="edge7" class="edge">
<title>0750535364e04d7485dc6d16886e39f0&#45;&gt;eb1e76c997f54f5c8405afbd81604ce7</title>
<path fill="none" stroke="#7b8894" d="M393,-502.22C393,-493.84 393,-488.17 393,-488.17 393,-488.17 807,-488.17 807,-488.17 807,-488.17 807,-469.54 807,-469.54"/>
<polygon fill="#7b8894" stroke="#7b8894" points="810.5,-469.54 807,-459.54 803.5,-469.54 810.5,-469.54"/>
<text text-anchor="middle" x="606" y="-515.6" font-family="Sans-Serif" font-size="13.00" fill="darkgrey">t_lead_opportunite_vente_apartir_28juillet</text>
</g>
<!-- 6e34ffecd7cc4e4f9c7a9e931c49b0ab -->
<g id="node3" class="node">
<title>6e34ffecd7cc4e4f9c7a9e931c49b0ab</title>
<image xlink:href="icons/bigquery.png" width="101px" height="101px" preserveAspectRatio="xMinYMin meet" x="16" y="-520.5"/>
<text text-anchor="middle" x="66.5" y="-405.1" font-family="Sans-Serif" font-size="13.00" fill="#2d3436">ga.e_gsheet_lead</text>
</g>
<!-- 6e34ffecd7cc4e4f9c7a9e931c49b0ab&#45;&gt;0750535364e04d7485dc6d16886e39f0 -->
<g id="edge2" class="edge">
<title>6e34ffecd7cc4e4f9c7a9e931c49b0ab&#45;&gt;0750535364e04d7485dc6d16886e39f0</title>
<path fill="none" stroke="#7b8894" d="M117.11,-529.5C117.11,-529.5 348.96,-529.5 348.96,-529.5"/>
<polygon fill="#7b8894" stroke="#7b8894" points="348.96,-533 358.96,-529.5 348.96,-526 348.96,-533"/>
<text text-anchor="middle" x="238" y="-512.6" font-family="Sans-Serif" font-size="13.00" fill="darkgrey">t_lead_opportunite_vente_biaises</text>
</g>
<!-- a0c52b3340644070a70a30bc9b7595b9 -->
<g id="node4" class="node">
<title>a0c52b3340644070a70a30bc9b7595b9</title>
<image xlink:href="icons/bigquery.png" width="101px" height="101px" preserveAspectRatio="xMinYMin meet" x="16" y="-340.5"/>
<text text-anchor="middle" x="66.5" y="-225.1" font-family="Sans-Serif" font-size="13.00" fill="#2d3436">my_power.e_gsheet_vente</text>
</g>
<!-- a0c52b3340644070a70a30bc9b7595b9&#45;&gt;0750535364e04d7485dc6d16886e39f0 -->
<g id="edge3" class="edge">
<title>a0c52b3340644070a70a30bc9b7595b9&#45;&gt;0750535364e04d7485dc6d16886e39f0</title>
<path fill="none" stroke="#7b8894" d="M117.34,-340.5C154.35,-340.5 198,-340.5 198,-340.5 198,-340.5 198,-520.5 198,-520.5 198,-520.5 348.84,-520.5 348.84,-520.5"/>
<polygon fill="#7b8894" stroke="#7b8894" points="348.84,-524 358.84,-520.5 348.84,-517 348.84,-524"/>
<text text-anchor="middle" x="238" y="-371.6" font-family="Sans-Serif" font-size="13.00" fill="darkgrey">t_lead_opportunite_vente_biaises</text>
</g>
<!-- b01880e16c45476189f4b48beafaccdd -->
<g id="node5" class="node">
<title>b01880e16c45476189f4b48beafaccdd</title>
<image xlink:href="icons/bigquery.png" width="101px" height="101px" preserveAspectRatio="xMinYMin meet" x="16" y="-160.5"/>
<text text-anchor="middle" x="66.5" y="-45.1" font-family="Sans-Serif" font-size="13.00" fill="#2d3436">my_power.e_gsheet_opportunite</text>
</g>
<!-- b01880e16c45476189f4b48beafaccdd&#45;&gt;0750535364e04d7485dc6d16886e39f0 -->
<g id="edge4" class="edge">
<title>b01880e16c45476189f4b48beafaccdd&#45;&gt;0750535364e04d7485dc6d16886e39f0</title>
<path fill="none" stroke="#7b8894" d="M117.13,-160.5C179.98,-160.5 279,-160.5 279,-160.5 279,-160.5 279,-511.5 279,-511.5 279,-511.5 348.67,-511.5 348.67,-511.5"/>
<polygon fill="#7b8894" stroke="#7b8894" points="348.67,-515 358.67,-511.5 348.67,-508 348.67,-515"/>
<text text-anchor="middle" x="238" y="-172.6" font-family="Sans-Serif" font-size="13.00" fill="darkgrey">t_lead_opportunite_vente_biaises</text>
</g>
<!-- 4f6b84d664e147eca198caeb273f1aaf -->
<g id="node11" class="node">
<title>4f6b84d664e147eca198caeb273f1aaf</title>
<image xlink:href="icons/bigquery.png" width="101px" height="101px" preserveAspectRatio="xMinYMin meet" x="1092" y="-339.5"/>
<text text-anchor="middle" x="1142.5" y="-224.1" font-family="Sans-Serif" font-size="13.00" fill="#2d3436">my_power.t_mypower_lead_opportunite_vente</text>
</g>
<!-- 9d7ced5c86994f4faffaaa51ac7fcb85&#45;&gt;4f6b84d664e147eca198caeb273f1aaf -->
<g id="edge11" class="edge">
<title>9d7ced5c86994f4faffaaa51ac7fcb85&#45;&gt;4f6b84d664e147eca198caeb273f1aaf</title>
<path fill="none" stroke="#7b8894" d="M874.13,-571C964.22,-571 1143,-571 1143,-571 1143,-571 1143,-367.62 1143,-367.62"/>
<polygon fill="#7b8894" stroke="#7b8894" points="1146.5,-367.62 1143,-357.62 1139.5,-367.62 1146.5,-367.62"/>
<text text-anchor="middle" x="993.5" y="-495.6" font-family="Sans-Serif" font-size="13.00" fill="darkgrey">t_lead_opportunite_vente</text>
</g>
<!-- 58b3b09871d2425c989179c0723d039a -->
<g id="node7" class="node">
<title>58b3b09871d2425c989179c0723d039a</title>
<image xlink:href="icons/bigquery.png" width="101px" height="101px" preserveAspectRatio="xMinYMin meet" x="359" y="-441.5"/>
<text text-anchor="middle" x="409.5" y="-326.1" font-family="Sans-Serif" font-size="13.00" fill="#2d3436">my_power.e_gsheet_classification_campagne</text>
</g>
<!-- 58b3b09871d2425c989179c0723d039a&#45;&gt;9d7ced5c86994f4faffaaa51ac7fcb85 -->
<g id="edge6" class="edge">
<title>58b3b09871d2425c989179c0723d039a&#45;&gt;9d7ced5c86994f4faffaaa51ac7fcb85</title>
<path fill="none" stroke="#7b8894" d="M427,-459.78C427,-468.16 427,-473.83 427,-473.83 427,-473.83 841,-473.83 841,-473.83 841,-473.83 841,-492.46 841,-492.46"/>
<polygon fill="#7b8894" stroke="#7b8894" points="837.5,-492.46 841,-502.46 844.5,-492.46 837.5,-492.46"/>
<text text-anchor="middle" x="606" y="-453.6" font-family="Sans-Serif" font-size="13.00" fill="darkgrey">t_lead_opportunite_vente_jusquau10juin</text>
</g>
<!-- 58b3b09871d2425c989179c0723d039a&#45;&gt;eb1e76c997f54f5c8405afbd81604ce7 -->
<g id="edge8" class="edge">
<title>58b3b09871d2425c989179c0723d039a&#45;&gt;eb1e76c997f54f5c8405afbd81604ce7</title>
<path fill="none" stroke="#7b8894" d="M460.26,-391C460.26,-391 762.97,-391 762.97,-391"/>
<polygon fill="#7b8894" stroke="#7b8894" points="762.97,-394.5 772.97,-391 762.97,-387.5 762.97,-394.5"/>
<text text-anchor="middle" x="606" y="-391.6" font-family="Sans-Serif" font-size="13.00" fill="darkgrey">t_lead_opportunite_vente_apartir_28juillet</text>
</g>
<!-- eb1e76c997f54f5c8405afbd81604ce7&#45;&gt;4f6b84d664e147eca198caeb273f1aaf -->
<g id="edge12" class="edge">
<title>eb1e76c997f54f5c8405afbd81604ce7&#45;&gt;4f6b84d664e147eca198caeb273f1aaf</title>
<path fill="none" stroke="#7b8894" d="M874.05,-340C874.05,-340 1081.93,-340 1081.93,-340"/>
<polygon fill="#7b8894" stroke="#7b8894" points="1081.93,-343.5 1091.93,-340 1081.93,-336.5 1081.93,-343.5"/>
<text text-anchor="middle" x="993.5" y="-355.6" font-family="Sans-Serif" font-size="13.00" fill="darkgrey">t_lead_opportunite_vente</text>
</g>
<!-- 497323e836934c75bc4d0104c49980bf -->
<g id="node9" class="node">
<title>497323e836934c75bc4d0104c49980bf</title>
<image xlink:href="icons/bigquery.png" width="101px" height="101px" preserveAspectRatio="xMinYMin meet" x="359" y="-261.5"/>
<text text-anchor="middle" x="409.5" y="-146.1" font-family="Sans-Serif" font-size="13.00" fill="#2d3436">my_power.e_mypower_lead_opportunite_vente_06_12aout</text>
</g>
<!-- 497323e836934c75bc4d0104c49980bf&#45;&gt;eb1e76c997f54f5c8405afbd81604ce7 -->
<g id="edge9" class="edge">
<title>497323e836934c75bc4d0104c49980bf&#45;&gt;eb1e76c997f54f5c8405afbd81604ce7</title>
<path fill="none" stroke="#7b8894" d="M460.25,-264.75C567.41,-264.75 807,-264.75 807,-264.75 807,-264.75 807,-312.33 807,-312.33"/>
<polygon fill="#7b8894" stroke="#7b8894" points="803.5,-312.33 807,-322.33 810.5,-312.33 803.5,-312.33"/>
<text text-anchor="middle" x="606" y="-325.6" font-family="Sans-Serif" font-size="13.00" fill="darkgrey">t_lead_opportunite_vente_apartir_28juillet</text>
</g>
<!-- 497323e836934c75bc4d0104c49980bf&#45;&gt;4f6b84d664e147eca198caeb273f1aaf -->
<g id="edge13" class="edge">
<title>497323e836934c75bc4d0104c49980bf&#45;&gt;4f6b84d664e147eca198caeb273f1aaf</title>
<path fill="none" stroke="#7b8894" d="M460.17,-250C460.17,-250 1081.82,-250 1081.82,-250"/>
<polygon fill="#7b8894" stroke="#7b8894" points="1081.82,-253.5 1091.82,-250 1081.82,-246.5 1081.82,-253.5"/>
<text text-anchor="middle" x="823.5" y="-268.6" font-family="Sans-Serif" font-size="13.00" fill="darkgrey">t_lead_opportunite_vente</text>
</g>
<!-- 28dd2a786cc643219bf983c9a609e3d1 -->
<g id="node10" class="node">
<title>28dd2a786cc643219bf983c9a609e3d1</title>
<image xlink:href="icons/bigquery.png" width="101px" height="101px" preserveAspectRatio="xMinYMin meet" x="773" y="-160.5"/>
<text text-anchor="middle" x="823.5" y="-45.1" font-family="Sans-Serif" font-size="13.00" fill="#2d3436">my_power.e_mypower_lead_opportunite_vente_juin_juillet</text>
</g>
<!-- 28dd2a786cc643219bf983c9a609e3d1&#45;&gt;4f6b84d664e147eca198caeb273f1aaf -->
<g id="edge10" class="edge">
<title>28dd2a786cc643219bf983c9a609e3d1&#45;&gt;4f6b84d664e147eca198caeb273f1aaf</title>
<path fill="none" stroke="#7b8894" d="M841,-178.85C841,-207.96 841,-235.25 841,-235.25 841,-235.25 1081.7,-235.25 1081.7,-235.25"/>
<polygon fill="#7b8894" stroke="#7b8894" points="1081.7,-238.75 1091.7,-235.25 1081.7,-231.75 1081.7,-238.75"/>
<text text-anchor="middle" x="993.5" y="-180.6" font-family="Sans-Serif" font-size="13.00" fill="darkgrey">t_lead_opportunite_vente</text>
</g>
</g>
</svg>
