<?xml version="1.0" encoding="UTF-8" standalone="no"?>
<!DOCTYPE svg PUBLIC "-//W3C//DTD SVG 1.1//EN"
 "http://www.w3.org/Graphics/SVG/1.1/DTD/svg11.dtd">
<!-- Generated by graphviz version 2.47.1 (20210417.1919)
 -->
<!-- Title: predictive_engagement Pages: 1 -->
<svg width="718pt" height="504pt"
 viewBox="0.00 0.00 718.00 504.00" xmlns="http://www.w3.org/2000/svg" xmlns:xlink="http://www.w3.org/1999/xlink">
<g id="graph0" class="graph" transform="scale(1 1) rotate(0) translate(144 360)">
<title>predictive_engagement</title>
<text text-anchor="middle" x="215" y="-9" font-family="Sans-Serif" font-size="15.00" fill="#2d3436">predictive_engagement</text>
<g id="clust1" class="cluster">
<title>cluster_predictive_engagement</title>
<path fill="#e5f5fd" stroke="#aeb6be" d="M20,-33C20,-33 410,-33 410,-33 416,-33 422,-39 422,-45 422,-45 422,-196 422,-196 422,-202 416,-208 410,-208 410,-208 20,-208 20,-208 14,-208 8,-202 8,-196 8,-196 8,-45 8,-45 8,-39 14,-33 20,-33"/>
<text text-anchor="middle" x="78" y="-194.4" font-family="Sans-Serif" font-size="12.00" fill="#2d3436">predictive_engagement</text>
</g>
<!-- 2d76afd8ea5040c69d01d7d30b71597b -->
<g id="node1" class="node">
<title>2d76afd8ea5040c69d01d7d30b71597b</title>
<image xlink:href="icons/bigquery.png" width="101px" height="101px" preserveAspectRatio="xMinYMin meet" x="16" y="-160.5"/>
<text text-anchor="middle" x="66.5" y="-45.1" font-family="Sans-Serif" font-size="13.00" fill="#2d3436">genesys.e_genesys_predictive_engagement</text>
</g>
<!-- 1767b99fd4b04844b72a7526ed937914 -->
<g id="node2" class="node">
<title>1767b99fd4b04844b72a7526ed937914</title>
<image xlink:href="icons/bigquery.png" width="101px" height="101px" preserveAspectRatio="xMinYMin meet" x="313" y="-160.5"/>
<text text-anchor="middle" x="363.5" y="-45.1" font-family="Sans-Serif" font-size="13.00" fill="#2d3436">genesys.t_genesys_predictive_engagement</text>
</g>
<!-- 2d76afd8ea5040c69d01d7d30b71597b&#45;&gt;1767b99fd4b04844b72a7526ed937914 -->
<g id="edge1" class="edge">
<title>2d76afd8ea5040c69d01d7d30b71597b&#45;&gt;1767b99fd4b04844b72a7526ed937914</title>
<path fill="none" stroke="#7b8894" d="M117.22,-110C117.22,-110 302.99,-110 302.99,-110"/>
<polygon fill="#7b8894" stroke="#7b8894" points="302.99,-113.5 312.99,-110 302.99,-106.5 302.99,-113.5"/>
<text text-anchor="middle" x="215" y="-113.6" font-family="Sans-Serif" font-size="13.00" fill="darkgrey">t_predictive_engagement</text>
</g>
</g>
</svg>
