<?xml version="1.0" encoding="UTF-8" standalone="no"?>
<!DOCTYPE svg PUBLIC "-//W3C//DTD SVG 1.1//EN"
 "http://www.w3.org/Graphics/SVG/1.1/DTD/svg11.dtd">
<!-- Generated by graphviz version 2.47.1 (20210417.1919)
 -->
<!-- Title: sea_ga_gads Pages: 1 -->
<svg width="698pt" height="4644pt"
 viewBox="0.00 0.00 698.00 4644.00" xmlns="http://www.w3.org/2000/svg" xmlns:xlink="http://www.w3.org/1999/xlink">
<g id="graph0" class="graph" transform="scale(1 1) rotate(0) translate(144 4500)">
<title>sea_ga_gads</title>
<text text-anchor="middle" x="205" y="-9" font-family="Sans-Serif" font-size="15.00" fill="#2d3436">sea_ga_gads</text>
<g id="clust1" class="cluster">
<title>cluster_sea_ga_gads</title>
<path fill="#e5f5fd" stroke="#aeb6be" d="M20,-33C20,-33 390,-33 390,-33 396,-33 402,-39 402,-45 402,-45 402,-4336 402,-4336 402,-4342 396,-4348 390,-4348 390,-4348 20,-4348 20,-4348 14,-4348 8,-4342 8,-4336 8,-4336 8,-45 8,-45 8,-39 14,-33 20,-33"/>
<text text-anchor="middle" x="50.5" y="-4334.4" font-family="Sans-Serif" font-size="12.00" fill="#2d3436">sea_ga_gads</text>
</g>
<!-- ae41882e653e4021b4c19f6812250c96 -->
<g id="node1" class="node">
<title>ae41882e653e4021b4c19f6812250c96</title>
<image xlink:href="icons/bigquery.png" width="101px" height="101px" preserveAspectRatio="xMinYMin meet" x="16" y="-4300.5"/>
<text text-anchor="middle" x="66.5" y="-4185.1" font-family="Sans-Serif" font-size="13.00" fill="#2d3436">sea_ga_gads.e_gsheet_WCB_Bing_2019</text>
</g>
<!-- 830bc2bb84ed4a1e9c48717584bdef38 -->
<g id="node2" class="node">
<title>830bc2bb84ed4a1e9c48717584bdef38</title>
<image xlink:href="icons/bigquery.png" width="101px" height="101px" preserveAspectRatio="xMinYMin meet" x="293" y="-2680.5"/>
<text text-anchor="middle" x="343.5" y="-2565.1" font-family="Sans-Serif" font-size="13.00" fill="#2d3436">sea_ga_gads.l_ga_gads_to_ds_sea_ga_gads</text>
</g>
<!-- ae41882e653e4021b4c19f6812250c96&#45;&gt;830bc2bb84ed4a1e9c48717584bdef38 -->
<g id="edge1" class="edge">
<title>ae41882e653e4021b4c19f6812250c96&#45;&gt;830bc2bb84ed4a1e9c48717584bdef38</title>
<path fill="none" stroke="#7b8894" d="M117.16,-4250C206.8,-4250 384,-4250 384,-4250 384,-4250 384,-2708.57 384,-2708.57"/>
<polygon fill="#7b8894" stroke="#7b8894" points="387.5,-2708.57 384,-2698.57 380.5,-2708.57 387.5,-2708.57"/>
<text text-anchor="middle" x="205" y="-4135.6" font-family="Sans-Serif" font-size="13.00" fill="darkgrey">l_to_ds_sea_ga_gads</text>
</g>
<!-- 2f06aba962d94c6aab72e280089b4fb9 -->
<g id="node3" class="node">
<title>2f06aba962d94c6aab72e280089b4fb9</title>
<image xlink:href="icons/bigquery.png" width="101px" height="101px" preserveAspectRatio="xMinYMin meet" x="16" y="-4120.5"/>
<text text-anchor="middle" x="66.5" y="-4005.1" font-family="Sans-Serif" font-size="13.00" fill="#2d3436">[?config?].e_gsheet_WCB_Bing_2020</text>
</g>
<!-- 2f06aba962d94c6aab72e280089b4fb9&#45;&gt;830bc2bb84ed4a1e9c48717584bdef38 -->
<g id="edge2" class="edge">
<title>2f06aba962d94c6aab72e280089b4fb9&#45;&gt;830bc2bb84ed4a1e9c48717584bdef38</title>
<path fill="none" stroke="#7b8894" d="M117.28,-4070C204.62,-4070 374,-4070 374,-4070 374,-4070 374,-2708.97 374,-2708.97"/>
<polygon fill="#7b8894" stroke="#7b8894" points="377.5,-2708.97 374,-2698.97 370.5,-2708.97 377.5,-2708.97"/>
<text text-anchor="middle" x="205" y="-3955.6" font-family="Sans-Serif" font-size="13.00" fill="darkgrey">l_to_ds_sea_ga_gads</text>
</g>
<!-- 11daeff5d199400cac02de2ad6d2613b -->
<g id="node4" class="node">
<title>11daeff5d199400cac02de2ad6d2613b</title>
<image xlink:href="icons/bigquery.png" width="101px" height="101px" preserveAspectRatio="xMinYMin meet" x="16" y="-3940.5"/>
<text text-anchor="middle" x="66.5" y="-3825.1" font-family="Sans-Serif" font-size="13.00" fill="#2d3436">[?config?].e_gsheet_WCB_Bing_2021</text>
</g>
<!-- 11daeff5d199400cac02de2ad6d2613b&#45;&gt;830bc2bb84ed4a1e9c48717584bdef38 -->
<g id="edge3" class="edge">
<title>11daeff5d199400cac02de2ad6d2613b&#45;&gt;830bc2bb84ed4a1e9c48717584bdef38</title>
<path fill="none" stroke="#7b8894" d="M117.3,-3890C202.27,-3890 364,-3890 364,-3890 364,-3890 364,-2708.64 364,-2708.64"/>
<polygon fill="#7b8894" stroke="#7b8894" points="367.5,-2708.64 364,-2698.64 360.5,-2708.64 367.5,-2708.64"/>
<text text-anchor="middle" x="205" y="-3775.6" font-family="Sans-Serif" font-size="13.00" fill="darkgrey">l_to_ds_sea_ga_gads</text>
</g>
<!-- 6e6ec813b9844aa8a10506c2b53aca8e -->
<g id="node5" class="node">
<title>6e6ec813b9844aa8a10506c2b53aca8e</title>
<image xlink:href="icons/bigquery.png" width="101px" height="101px" preserveAspectRatio="xMinYMin meet" x="16" y="-3760.5"/>
<text text-anchor="middle" x="66.5" y="-3645.1" font-family="Sans-Serif" font-size="13.00" fill="#2d3436">[?config?].t_ga_WCB_bing</text>
</g>
<!-- 6e6ec813b9844aa8a10506c2b53aca8e&#45;&gt;830bc2bb84ed4a1e9c48717584bdef38 -->
<g id="edge4" class="edge">
<title>6e6ec813b9844aa8a10506c2b53aca8e&#45;&gt;830bc2bb84ed4a1e9c48717584bdef38</title>
<path fill="none" stroke="#7b8894" d="M117.24,-3710C199.77,-3710 354,-3710 354,-3710 354,-3710 354,-2708.79 354,-2708.79"/>
<polygon fill="#7b8894" stroke="#7b8894" points="357.5,-2708.79 354,-2698.79 350.5,-2708.79 357.5,-2708.79"/>
<text text-anchor="middle" x="205" y="-3596.6" font-family="Sans-Serif" font-size="13.00" fill="darkgrey">l_to_ds_sea_ga_gads</text>
</g>
<!-- c934348568db4544b0ca572169f2d6df -->
<g id="node6" class="node">
<title>c934348568db4544b0ca572169f2d6df</title>
<image xlink:href="icons/bigquery.png" width="101px" height="101px" preserveAspectRatio="xMinYMin meet" x="16" y="-3580.5"/>
<text text-anchor="middle" x="66.5" y="-3465.1" font-family="Sans-Serif" font-size="13.00" fill="#2d3436">[?config?].e_gsheet_WCB_Google_2019</text>
</g>
<!-- c934348568db4544b0ca572169f2d6df&#45;&gt;830bc2bb84ed4a1e9c48717584bdef38 -->
<g id="edge5" class="edge">
<title>c934348568db4544b0ca572169f2d6df&#45;&gt;830bc2bb84ed4a1e9c48717584bdef38</title>
<path fill="none" stroke="#7b8894" d="M117.08,-3530C197.12,-3530 344,-3530 344,-3530 344,-3530 344,-2708.76 344,-2708.76"/>
<polygon fill="#7b8894" stroke="#7b8894" points="347.5,-2708.76 344,-2698.76 340.5,-2708.76 347.5,-2708.76"/>
<text text-anchor="middle" x="205" y="-3418.6" font-family="Sans-Serif" font-size="13.00" fill="darkgrey">l_to_ds_sea_ga_gads</text>
</g>
<!-- 527ac7029d4f49a8bcf232c66e93f5e8 -->
<g id="node7" class="node">
<title>527ac7029d4f49a8bcf232c66e93f5e8</title>
<image xlink:href="icons/bigquery.png" width="101px" height="101px" preserveAspectRatio="xMinYMin meet" x="16" y="-3400.5"/>
<text text-anchor="middle" x="66.5" y="-3285.1" font-family="Sans-Serif" font-size="13.00" fill="#2d3436">[?config?].e_gsheet_WCB_Google_2020</text>
</g>
<!-- 527ac7029d4f49a8bcf232c66e93f5e8&#45;&gt;830bc2bb84ed4a1e9c48717584bdef38 -->
<g id="edge6" class="edge">
<title>527ac7029d4f49a8bcf232c66e93f5e8&#45;&gt;830bc2bb84ed4a1e9c48717584bdef38</title>
<path fill="none" stroke="#7b8894" d="M117.13,-3350C194.68,-3350 334,-3350 334,-3350 334,-3350 334,-2708.71 334,-2708.71"/>
<polygon fill="#7b8894" stroke="#7b8894" points="337.5,-2708.71 334,-2698.71 330.5,-2708.71 337.5,-2708.71"/>
<text text-anchor="middle" x="205" y="-3242.6" font-family="Sans-Serif" font-size="13.00" fill="darkgrey">l_to_ds_sea_ga_gads</text>
</g>
<!-- 5d16c5cf50c2460cad50575986bd82dc -->
<g id="node8" class="node">
<title>5d16c5cf50c2460cad50575986bd82dc</title>
<image xlink:href="icons/bigquery.png" width="101px" height="101px" preserveAspectRatio="xMinYMin meet" x="16" y="-3220.5"/>
<text text-anchor="middle" x="66.5" y="-3105.1" font-family="Sans-Serif" font-size="13.00" fill="#2d3436">[?config?].e_gsheet_WCB_Google_2021</text>
</g>
<!-- 5d16c5cf50c2460cad50575986bd82dc&#45;&gt;830bc2bb84ed4a1e9c48717584bdef38 -->
<g id="edge7" class="edge">
<title>5d16c5cf50c2460cad50575986bd82dc&#45;&gt;830bc2bb84ed4a1e9c48717584bdef38</title>
<path fill="none" stroke="#7b8894" d="M117.07,-3170C192.06,-3170 324,-3170 324,-3170 324,-3170 324,-2708.67 324,-2708.67"/>
<polygon fill="#7b8894" stroke="#7b8894" points="327.5,-2708.67 324,-2698.67 320.5,-2708.67 327.5,-2708.67"/>
<text text-anchor="middle" x="205" y="-3069.6" font-family="Sans-Serif" font-size="13.00" fill="darkgrey">l_to_ds_sea_ga_gads</text>
</g>
<!-- 3e7590bd4bc547e8964a752411307db4 -->
<g id="node9" class="node">
<title>3e7590bd4bc547e8964a752411307db4</title>
<image xlink:href="icons/bigquery.png" width="101px" height="101px" preserveAspectRatio="xMinYMin meet" x="16" y="-3040.5"/>
<text text-anchor="middle" x="66.5" y="-2925.1" font-family="Sans-Serif" font-size="13.00" fill="#2d3436">[?config?].t_ga_WCB_google</text>
</g>
<!-- 3e7590bd4bc547e8964a752411307db4&#45;&gt;830bc2bb84ed4a1e9c48717584bdef38 -->
<g id="edge8" class="edge">
<title>3e7590bd4bc547e8964a752411307db4&#45;&gt;830bc2bb84ed4a1e9c48717584bdef38</title>
<path fill="none" stroke="#7b8894" d="M117.18,-2990C189.59,-2990 314,-2990 314,-2990 314,-2990 314,-2708.56 314,-2708.56"/>
<polygon fill="#7b8894" stroke="#7b8894" points="317.5,-2708.56 314,-2698.56 310.5,-2708.56 317.5,-2708.56"/>
<text text-anchor="middle" x="205" y="-2904.6" font-family="Sans-Serif" font-size="13.00" fill="darkgrey">l_to_ds_sea_ga_gads</text>
</g>
<!-- 4214d5729b4044daae53102c0e605ec4 -->
<g id="node10" class="node">
<title>4214d5729b4044daae53102c0e605ec4</title>
<image xlink:href="icons/bigquery.png" width="101px" height="101px" preserveAspectRatio="xMinYMin meet" x="16" y="-2860.5"/>
<text text-anchor="middle" x="66.5" y="-2745.1" font-family="Sans-Serif" font-size="13.00" fill="#2d3436">[?config?].e_gsheet_click_to_call_Google_campagne</text>
</g>
<!-- 4214d5729b4044daae53102c0e605ec4&#45;&gt;830bc2bb84ed4a1e9c48717584bdef38 -->
<g id="edge9" class="edge">
<title>4214d5729b4044daae53102c0e605ec4&#45;&gt;830bc2bb84ed4a1e9c48717584bdef38</title>
<path fill="none" stroke="#7b8894" d="M117.16,-2810C186.91,-2810 304,-2810 304,-2810 304,-2810 304,-2708.56 304,-2708.56"/>
<polygon fill="#7b8894" stroke="#7b8894" points="307.5,-2708.56 304,-2698.56 300.5,-2708.56 307.5,-2708.56"/>
<text text-anchor="middle" x="205" y="-2754.6" font-family="Sans-Serif" font-size="13.00" fill="darkgrey">l_to_ds_sea_ga_gads</text>
</g>
<!-- 976e1795bae940838ca97b52e345afa0 -->
<g id="node11" class="node">
<title>976e1795bae940838ca97b52e345afa0</title>
<image xlink:href="icons/bigquery.png" width="101px" height="101px" preserveAspectRatio="xMinYMin meet" x="16" y="-2680.5"/>
<text text-anchor="middle" x="66.5" y="-2565.1" font-family="Sans-Serif" font-size="13.00" fill="#2d3436">[?config?].e_gsheet_click_to_call_Google_campagne_2021</text>
</g>
<!-- 976e1795bae940838ca97b52e345afa0&#45;&gt;830bc2bb84ed4a1e9c48717584bdef38 -->
<g id="edge10" class="edge">
<title>976e1795bae940838ca97b52e345afa0&#45;&gt;830bc2bb84ed4a1e9c48717584bdef38</title>
<path fill="none" stroke="#7b8894" d="M117.31,-2630C117.31,-2630 282.55,-2630 282.55,-2630"/>
<polygon fill="#7b8894" stroke="#7b8894" points="282.55,-2633.5 292.55,-2630 282.55,-2626.5 282.55,-2633.5"/>
<text text-anchor="middle" x="205" y="-2633.6" font-family="Sans-Serif" font-size="13.00" fill="darkgrey">l_to_ds_sea_ga_gads</text>
</g>
<!-- c59d3c2fdd89475dab137cde88458573 -->
<g id="node12" class="node">
<title>c59d3c2fdd89475dab137cde88458573</title>
<image xlink:href="icons/bigquery.png" width="101px" height="101px" preserveAspectRatio="xMinYMin meet" x="16" y="-2500.5"/>
<text text-anchor="middle" x="66.5" y="-2385.1" font-family="Sans-Serif" font-size="13.00" fill="#2d3436">[?config?].t_ga_goal1_goal2_bing</text>
</g>
<!-- c59d3c2fdd89475dab137cde88458573&#45;&gt;830bc2bb84ed4a1e9c48717584bdef38 -->
<g id="edge11" class="edge">
<title>c59d3c2fdd89475dab137cde88458573&#45;&gt;830bc2bb84ed4a1e9c48717584bdef38</title>
<path fill="none" stroke="#7b8894" d="M117.16,-2450C186.91,-2450 304,-2450 304,-2450 304,-2450 304,-2551.44 304,-2551.44"/>
<polygon fill="#7b8894" stroke="#7b8894" points="300.5,-2551.44 304,-2561.44 307.5,-2551.44 300.5,-2551.44"/>
<text text-anchor="middle" x="205" y="-2512.6" font-family="Sans-Serif" font-size="13.00" fill="darkgrey">l_to_ds_sea_ga_gads</text>
</g>
<!-- fb40b1a1eb1940109953a3a26e7422b6 -->
<g id="node13" class="node">
<title>fb40b1a1eb1940109953a3a26e7422b6</title>
<image xlink:href="icons/bigquery.png" width="101px" height="101px" preserveAspectRatio="xMinYMin meet" x="16" y="-2320.5"/>
<text text-anchor="middle" x="66.5" y="-2205.1" font-family="Sans-Serif" font-size="13.00" fill="#2d3436">[?config?].e_gsheet_goal1_goal2_bing_campagne_2019</text>
</g>
<!-- fb40b1a1eb1940109953a3a26e7422b6&#45;&gt;830bc2bb84ed4a1e9c48717584bdef38 -->
<g id="edge12" class="edge">
<title>fb40b1a1eb1940109953a3a26e7422b6&#45;&gt;830bc2bb84ed4a1e9c48717584bdef38</title>
<path fill="none" stroke="#7b8894" d="M117.18,-2270C189.59,-2270 314,-2270 314,-2270 314,-2270 314,-2551.44 314,-2551.44"/>
<polygon fill="#7b8894" stroke="#7b8894" points="310.5,-2551.44 314,-2561.44 317.5,-2551.44 310.5,-2551.44"/>
<text text-anchor="middle" x="205" y="-2361.6" font-family="Sans-Serif" font-size="13.00" fill="darkgrey">l_to_ds_sea_ga_gads</text>
</g>
<!-- c35f5d5750944ce4988ff77cffd33667 -->
<g id="node14" class="node">
<title>c35f5d5750944ce4988ff77cffd33667</title>
<image xlink:href="icons/bigquery.png" width="101px" height="101px" preserveAspectRatio="xMinYMin meet" x="16" y="-2140.5"/>
<text text-anchor="middle" x="66.5" y="-2025.1" font-family="Sans-Serif" font-size="13.00" fill="#2d3436">[?config?].e_gsheet_goal1_goal2_bing_campagne_2020</text>
</g>
<!-- c35f5d5750944ce4988ff77cffd33667&#45;&gt;830bc2bb84ed4a1e9c48717584bdef38 -->
<g id="edge13" class="edge">
<title>c35f5d5750944ce4988ff77cffd33667&#45;&gt;830bc2bb84ed4a1e9c48717584bdef38</title>
<path fill="none" stroke="#7b8894" d="M117.07,-2090C192.06,-2090 324,-2090 324,-2090 324,-2090 324,-2551.33 324,-2551.33"/>
<polygon fill="#7b8894" stroke="#7b8894" points="320.5,-2551.33 324,-2561.33 327.5,-2551.33 320.5,-2551.33"/>
<text text-anchor="middle" x="205" y="-2196.6" font-family="Sans-Serif" font-size="13.00" fill="darkgrey">l_to_ds_sea_ga_gads</text>
</g>
<!-- b4cc78474184461eb3e9dd0bafb742d1 -->
<g id="node15" class="node">
<title>b4cc78474184461eb3e9dd0bafb742d1</title>
<image xlink:href="icons/bigquery.png" width="101px" height="101px" preserveAspectRatio="xMinYMin meet" x="16" y="-1960.5"/>
<text text-anchor="middle" x="66.5" y="-1845.1" font-family="Sans-Serif" font-size="13.00" fill="#2d3436">[?config?].e_gsheet_goal1_goal2_Bing_campagne_2021</text>
</g>
<!-- b4cc78474184461eb3e9dd0bafb742d1&#45;&gt;830bc2bb84ed4a1e9c48717584bdef38 -->
<g id="edge14" class="edge">
<title>b4cc78474184461eb3e9dd0bafb742d1&#45;&gt;830bc2bb84ed4a1e9c48717584bdef38</title>
<path fill="none" stroke="#7b8894" d="M117.13,-1910C194.68,-1910 334,-1910 334,-1910 334,-1910 334,-2551.29 334,-2551.29"/>
<polygon fill="#7b8894" stroke="#7b8894" points="330.5,-2551.29 334,-2561.29 337.5,-2551.29 330.5,-2551.29"/>
<text text-anchor="middle" x="205" y="-2023.6" font-family="Sans-Serif" font-size="13.00" fill="darkgrey">l_to_ds_sea_ga_gads</text>
</g>
<!-- ebc52e24bdc6437aaa66cc836bb79e2d -->
<g id="node16" class="node">
<title>ebc52e24bdc6437aaa66cc836bb79e2d</title>
<image xlink:href="icons/bigquery.png" width="101px" height="101px" preserveAspectRatio="xMinYMin meet" x="16" y="-1780.5"/>
<text text-anchor="middle" x="66.5" y="-1665.1" font-family="Sans-Serif" font-size="13.00" fill="#2d3436">[?config?].t_ga_click_to_call</text>
</g>
<!-- ebc52e24bdc6437aaa66cc836bb79e2d&#45;&gt;830bc2bb84ed4a1e9c48717584bdef38 -->
<g id="edge15" class="edge">
<title>ebc52e24bdc6437aaa66cc836bb79e2d&#45;&gt;830bc2bb84ed4a1e9c48717584bdef38</title>
<path fill="none" stroke="#7b8894" d="M117.08,-1730C197.12,-1730 344,-1730 344,-1730 344,-1730 344,-2551.24 344,-2551.24"/>
<polygon fill="#7b8894" stroke="#7b8894" points="340.5,-2551.24 344,-2561.24 347.5,-2551.24 340.5,-2551.24"/>
<text text-anchor="middle" x="205" y="-1847.6" font-family="Sans-Serif" font-size="13.00" fill="darkgrey">l_to_ds_sea_ga_gads</text>
</g>
<!-- 5f400083cd634de9b322c03c73d64b8c -->
<g id="node17" class="node">
<title>5f400083cd634de9b322c03c73d64b8c</title>
<image xlink:href="icons/bigquery.png" width="101px" height="101px" preserveAspectRatio="xMinYMin meet" x="16" y="-1600.5"/>
<text text-anchor="middle" x="66.5" y="-1485.1" font-family="Sans-Serif" font-size="13.00" fill="#2d3436">[?config?].e_gsheet_goal1_goal2_google_campagne_2019</text>
</g>
<!-- 5f400083cd634de9b322c03c73d64b8c&#45;&gt;830bc2bb84ed4a1e9c48717584bdef38 -->
<g id="edge16" class="edge">
<title>5f400083cd634de9b322c03c73d64b8c&#45;&gt;830bc2bb84ed4a1e9c48717584bdef38</title>
<path fill="none" stroke="#7b8894" d="M117.24,-1550C199.77,-1550 354,-1550 354,-1550 354,-1550 354,-2551.21 354,-2551.21"/>
<polygon fill="#7b8894" stroke="#7b8894" points="350.5,-2551.21 354,-2561.21 357.5,-2551.21 350.5,-2551.21"/>
<text text-anchor="middle" x="205" y="-1669.6" font-family="Sans-Serif" font-size="13.00" fill="darkgrey">l_to_ds_sea_ga_gads</text>
</g>
<!-- c8c020b9b11e44dda0a0e0495fc31018 -->
<g id="node18" class="node">
<title>c8c020b9b11e44dda0a0e0495fc31018</title>
<image xlink:href="icons/bigquery.png" width="101px" height="101px" preserveAspectRatio="xMinYMin meet" x="16" y="-1420.5"/>
<text text-anchor="middle" x="66.5" y="-1305.1" font-family="Sans-Serif" font-size="13.00" fill="#2d3436">[?config?].e_gsheet_goal1_goal2_google_campagne_2020</text>
</g>
<!-- c8c020b9b11e44dda0a0e0495fc31018&#45;&gt;830bc2bb84ed4a1e9c48717584bdef38 -->
<g id="edge17" class="edge">
<title>c8c020b9b11e44dda0a0e0495fc31018&#45;&gt;830bc2bb84ed4a1e9c48717584bdef38</title>
<path fill="none" stroke="#7b8894" d="M117.3,-1370C202.27,-1370 364,-1370 364,-1370 364,-1370 364,-2551.36 364,-2551.36"/>
<polygon fill="#7b8894" stroke="#7b8894" points="360.5,-2551.36 364,-2561.36 367.5,-2551.36 360.5,-2551.36"/>
<text text-anchor="middle" x="205" y="-1490.6" font-family="Sans-Serif" font-size="13.00" fill="darkgrey">l_to_ds_sea_ga_gads</text>
</g>
<!-- ada5e7ad750a46048c039da2b6e5ee7e -->
<g id="node19" class="node">
<title>ada5e7ad750a46048c039da2b6e5ee7e</title>
<image xlink:href="icons/bigquery.png" width="101px" height="101px" preserveAspectRatio="xMinYMin meet" x="16" y="-1240.5"/>
<text text-anchor="middle" x="66.5" y="-1125.1" font-family="Sans-Serif" font-size="13.00" fill="#2d3436">[?config?].e_gsheet_goal1_goal2_Google_campagne_2021</text>
</g>
<!-- ada5e7ad750a46048c039da2b6e5ee7e&#45;&gt;830bc2bb84ed4a1e9c48717584bdef38 -->
<g id="edge18" class="edge">
<title>ada5e7ad750a46048c039da2b6e5ee7e&#45;&gt;830bc2bb84ed4a1e9c48717584bdef38</title>
<path fill="none" stroke="#7b8894" d="M117.28,-1190C204.62,-1190 374,-1190 374,-1190 374,-1190 374,-2551.03 374,-2551.03"/>
<polygon fill="#7b8894" stroke="#7b8894" points="370.5,-2551.03 374,-2561.03 377.5,-2551.03 370.5,-2551.03"/>
<text text-anchor="middle" x="205" y="-1310.6" font-family="Sans-Serif" font-size="13.00" fill="darkgrey">l_to_ds_sea_ga_gads</text>
</g>
<!-- 4d557e9dc3864239a21fe88480d6c555 -->
<g id="node20" class="node">
<title>4d557e9dc3864239a21fe88480d6c555</title>
<image xlink:href="icons/bigquery.png" width="101px" height="101px" preserveAspectRatio="xMinYMin meet" x="16" y="-1060.5"/>
<text text-anchor="middle" x="66.5" y="-945.1" font-family="Sans-Serif" font-size="13.00" fill="#2d3436">[?config?].t_ga_goal1_goal2_google</text>
</g>
<!-- 4d557e9dc3864239a21fe88480d6c555&#45;&gt;830bc2bb84ed4a1e9c48717584bdef38 -->
<g id="edge19" class="edge">
<title>4d557e9dc3864239a21fe88480d6c555&#45;&gt;830bc2bb84ed4a1e9c48717584bdef38</title>
<path fill="none" stroke="#7b8894" d="M117.16,-1010C206.8,-1010 384,-1010 384,-1010 384,-1010 384,-2551.43 384,-2551.43"/>
<polygon fill="#7b8894" stroke="#7b8894" points="380.5,-2551.43 384,-2561.43 387.5,-2551.43 380.5,-2551.43"/>
<text text-anchor="middle" x="205" y="-1130.6" font-family="Sans-Serif" font-size="13.00" fill="darkgrey">l_to_ds_sea_ga_gads</text>
</g>
<!-- bfd6ce0d1d554c7eab983f47d0b31ffe -->
<g id="node21" class="node">
<title>bfd6ce0d1d554c7eab983f47d0b31ffe</title>
<image xlink:href="icons/bigquery.png" width="101px" height="101px" preserveAspectRatio="xMinYMin meet" x="16" y="-880.5"/>
<text text-anchor="middle" x="66.5" y="-765.1" font-family="Sans-Serif" font-size="13.00" fill="#2d3436">sea_ga_gads.e_gsheet_goal1_goal2_Bing_campagne_yesterday</text>
</g>
<!-- 65e1d8edd8364a20b8ed60859f972071 -->
<g id="node22" class="node">
<title>65e1d8edd8364a20b8ed60859f972071</title>
<image xlink:href="icons/bigquery.png" width="101px" height="101px" preserveAspectRatio="xMinYMin meet" x="293" y="-880.5"/>
<text text-anchor="middle" x="343.5" y="-765.1" font-family="Sans-Serif" font-size="13.00" fill="#2d3436">sea_ga_gads.t_ga_goal1_goal2_bing</text>
</g>
<!-- bfd6ce0d1d554c7eab983f47d0b31ffe&#45;&gt;65e1d8edd8364a20b8ed60859f972071 -->
<g id="edge20" class="edge">
<title>bfd6ce0d1d554c7eab983f47d0b31ffe&#45;&gt;65e1d8edd8364a20b8ed60859f972071</title>
<path fill="none" stroke="#7b8894" d="M117.31,-830C117.31,-830 282.55,-830 282.55,-830"/>
<polygon fill="#7b8894" stroke="#7b8894" points="282.55,-833.5 292.55,-830 282.55,-826.5 282.55,-833.5"/>
<text text-anchor="middle" x="205" y="-833.6" font-family="Sans-Serif" font-size="13.00" fill="darkgrey">t_goal1_goal2_bing</text>
</g>
<!-- 2e860c6072634519a60dce90472c4af0 -->
<g id="node23" class="node">
<title>2e860c6072634519a60dce90472c4af0</title>
<image xlink:href="icons/bigquery.png" width="101px" height="101px" preserveAspectRatio="xMinYMin meet" x="16" y="-700.5"/>
<text text-anchor="middle" x="66.5" y="-585.1" font-family="Sans-Serif" font-size="13.00" fill="#2d3436">sea_ga_gads.e_gsheet_goal1_goal2_Google_campagne_yesterday</text>
</g>
<!-- 786d4a239d4d40d38babddee17e517b1 -->
<g id="node24" class="node">
<title>786d4a239d4d40d38babddee17e517b1</title>
<image xlink:href="icons/bigquery.png" width="101px" height="101px" preserveAspectRatio="xMinYMin meet" x="293" y="-700.5"/>
<text text-anchor="middle" x="343.5" y="-585.1" font-family="Sans-Serif" font-size="13.00" fill="#2d3436">sea_ga_gads.t_ga_goal1_goal2_google</text>
</g>
<!-- 2e860c6072634519a60dce90472c4af0&#45;&gt;786d4a239d4d40d38babddee17e517b1 -->
<g id="edge21" class="edge">
<title>2e860c6072634519a60dce90472c4af0&#45;&gt;786d4a239d4d40d38babddee17e517b1</title>
<path fill="none" stroke="#7b8894" d="M117.31,-650C117.31,-650 282.55,-650 282.55,-650"/>
<polygon fill="#7b8894" stroke="#7b8894" points="282.55,-653.5 292.55,-650 282.55,-646.5 282.55,-653.5"/>
<text text-anchor="middle" x="205" y="-653.6" font-family="Sans-Serif" font-size="13.00" fill="darkgrey">t_goal1_goal2_google</text>
</g>
<!-- bd5f0293c8e04b32a7d94fafd5484f84 -->
<g id="node25" class="node">
<title>bd5f0293c8e04b32a7d94fafd5484f84</title>
<image xlink:href="icons/bigquery.png" width="101px" height="101px" preserveAspectRatio="xMinYMin meet" x="16" y="-520.5"/>
<text text-anchor="middle" x="66.5" y="-405.1" font-family="Sans-Serif" font-size="13.00" fill="#2d3436">sea_ga_gads.e_gsheet_click_to_call_Google_campagne_yesterday</text>
</g>
<!-- 9aac14c69e834ad8a6e4b7d7daccce38 -->
<g id="node26" class="node">
<title>9aac14c69e834ad8a6e4b7d7daccce38</title>
<image xlink:href="icons/bigquery.png" width="101px" height="101px" preserveAspectRatio="xMinYMin meet" x="293" y="-520.5"/>
<text text-anchor="middle" x="343.5" y="-405.1" font-family="Sans-Serif" font-size="13.00" fill="#2d3436">sea_ga_gads.t_ga_click_to_call</text>
</g>
<!-- bd5f0293c8e04b32a7d94fafd5484f84&#45;&gt;9aac14c69e834ad8a6e4b7d7daccce38 -->
<g id="edge22" class="edge">
<title>bd5f0293c8e04b32a7d94fafd5484f84&#45;&gt;9aac14c69e834ad8a6e4b7d7daccce38</title>
<path fill="none" stroke="#7b8894" d="M117.31,-470C117.31,-470 282.55,-470 282.55,-470"/>
<polygon fill="#7b8894" stroke="#7b8894" points="282.55,-473.5 292.55,-470 282.55,-466.5 282.55,-473.5"/>
<text text-anchor="middle" x="205" y="-473.6" font-family="Sans-Serif" font-size="13.00" fill="darkgrey">t_click_to_call</text>
</g>
<!-- 50a5e933291d49e39f99d08b5f2b1365 -->
<g id="node27" class="node">
<title>50a5e933291d49e39f99d08b5f2b1365</title>
<image xlink:href="icons/bigquery.png" width="101px" height="101px" preserveAspectRatio="xMinYMin meet" x="16" y="-340.5"/>
<text text-anchor="middle" x="66.5" y="-225.1" font-family="Sans-Serif" font-size="13.00" fill="#2d3436">sea_ga_gads.e_gsheet_WCB_Bing_yesterday</text>
</g>
<!-- e193d6238fcd41f7b010c80152e9c5b7 -->
<g id="node28" class="node">
<title>e193d6238fcd41f7b010c80152e9c5b7</title>
<image xlink:href="icons/bigquery.png" width="101px" height="101px" preserveAspectRatio="xMinYMin meet" x="293" y="-340.5"/>
<text text-anchor="middle" x="343.5" y="-225.1" font-family="Sans-Serif" font-size="13.00" fill="#2d3436">sea_ga_gads.t_ga_WCB_bing</text>
</g>
<!-- 50a5e933291d49e39f99d08b5f2b1365&#45;&gt;e193d6238fcd41f7b010c80152e9c5b7 -->
<g id="edge23" class="edge">
<title>50a5e933291d49e39f99d08b5f2b1365&#45;&gt;e193d6238fcd41f7b010c80152e9c5b7</title>
<path fill="none" stroke="#7b8894" d="M117.31,-290C117.31,-290 282.55,-290 282.55,-290"/>
<polygon fill="#7b8894" stroke="#7b8894" points="282.55,-293.5 292.55,-290 282.55,-286.5 282.55,-293.5"/>
<text text-anchor="middle" x="205" y="-293.6" font-family="Sans-Serif" font-size="13.00" fill="darkgrey">t_appel_wcb_bing</text>
</g>
<!-- 95054b74350240bdace7721160b5fb5f -->
<g id="node29" class="node">
<title>95054b74350240bdace7721160b5fb5f</title>
<image xlink:href="icons/bigquery.png" width="101px" height="101px" preserveAspectRatio="xMinYMin meet" x="16" y="-160.5"/>
<text text-anchor="middle" x="66.5" y="-45.1" font-family="Sans-Serif" font-size="13.00" fill="#2d3436">sea_ga_gads.e_gsheet_WCB_Google_yesterday</text>
</g>
<!-- 16f9af04d0e94070a65308abfd1f18c2 -->
<g id="node30" class="node">
<title>16f9af04d0e94070a65308abfd1f18c2</title>
<image xlink:href="icons/bigquery.png" width="101px" height="101px" preserveAspectRatio="xMinYMin meet" x="293" y="-160.5"/>
<text text-anchor="middle" x="343.5" y="-45.1" font-family="Sans-Serif" font-size="13.00" fill="#2d3436">sea_ga_gads.t_ga_WCB_google</text>
</g>
<!-- 95054b74350240bdace7721160b5fb5f&#45;&gt;16f9af04d0e94070a65308abfd1f18c2 -->
<g id="edge24" class="edge">
<title>95054b74350240bdace7721160b5fb5f&#45;&gt;16f9af04d0e94070a65308abfd1f18c2</title>
<path fill="none" stroke="#7b8894" d="M117.31,-110C117.31,-110 282.55,-110 282.55,-110"/>
<polygon fill="#7b8894" stroke="#7b8894" points="282.55,-113.5 292.55,-110 282.55,-106.5 282.55,-113.5"/>
<text text-anchor="middle" x="205" y="-113.6" font-family="Sans-Serif" font-size="13.00" fill="darkgrey">t_appel_wcb_google</text>
</g>
</g>
</svg>
