<?xml version="1.0" encoding="UTF-8" standalone="no"?>
<!DOCTYPE svg PUBLIC "-//W3C//DTD SVG 1.1//EN"
 "http://www.w3.org/Graphics/SVG/1.1/DTD/svg11.dtd">
<!-- Generated by graphviz version 2.47.1 (20210417.1919)
 -->
<!-- Title: search_console Pages: 1 -->
<svg width="1214pt" height="684pt"
 viewBox="0.00 0.00 1214.00 684.00" xmlns="http://www.w3.org/2000/svg" xmlns:xlink="http://www.w3.org/1999/xlink">
<g id="graph0" class="graph" transform="scale(1 1) rotate(0) translate(144 540)">
<title>search_console</title>
<text text-anchor="middle" x="463" y="-9" font-family="Sans-Serif" font-size="15.00" fill="#2d3436">search_console</text>
<g id="clust1" class="cluster">
<title>cluster_search_console</title>
<path fill="#e5f5fd" stroke="#aeb6be" d="M20,-33C20,-33 906,-33 906,-33 912,-33 918,-39 918,-45 918,-45 918,-376 918,-376 918,-382 912,-388 906,-388 906,-388 20,-388 20,-388 14,-388 8,-382 8,-376 8,-376 8,-45 8,-45 8,-39 14,-33 20,-33"/>
<text text-anchor="middle" x="56.5" y="-374.4" font-family="Sans-Serif" font-size="12.00" fill="#2d3436">search_console</text>
</g>
<!-- 1f6961459dcf4e8fa9a30e768208a02d -->
<g id="node1" class="node">
<title>1f6961459dcf4e8fa9a30e768208a02d</title>
<image xlink:href="icons/storage.png" width="101px" height="101px" preserveAspectRatio="xMinYMin meet" x="16" y="-340.5"/>
<text text-anchor="middle" x="66.5" y="-225.1" font-family="Sans-Serif" font-size="13.00" fill="#2d3436">search_console.gsc_data_bypage</text>
</g>
<!-- bec212621a48432aa37f17d996107f8d -->
<g id="node2" class="node">
<title>bec212621a48432aa37f17d996107f8d</title>
<image xlink:href="icons/bigquery.png" width="101px" height="101px" preserveAspectRatio="xMinYMin meet" x="306" y="-340.5"/>
<text text-anchor="middle" x="356.5" y="-225.1" font-family="Sans-Serif" font-size="13.00" fill="#2d3436">search_console.e_searchcons_historique_bypage_api</text>
</g>
<!-- 1f6961459dcf4e8fa9a30e768208a02d&#45;&gt;bec212621a48432aa37f17d996107f8d -->
<g id="edge1" class="edge">
<title>1f6961459dcf4e8fa9a30e768208a02d&#45;&gt;bec212621a48432aa37f17d996107f8d</title>
<path fill="none" stroke="#7b8894" d="M117.01,-290C117.01,-290 295.59,-290 295.59,-290"/>
<polygon fill="#7b8894" stroke="#7b8894" points="295.59,-293.5 305.59,-290 295.59,-286.5 295.59,-293.5"/>
<text text-anchor="middle" x="211.5" y="-293.6" font-family="Sans-Serif" font-size="13.00" fill="darkgrey">e_historique_bypage</text>
</g>
<!-- 6beb2a2c54f84da99985007bf07f68b8 -->
<g id="node3" class="node">
<title>6beb2a2c54f84da99985007bf07f68b8</title>
<image xlink:href="icons/storage.png" width="101px" height="101px" preserveAspectRatio="xMinYMin meet" x="16" y="-160.5"/>
<text text-anchor="middle" x="66.5" y="-45.1" font-family="Sans-Serif" font-size="13.00" fill="#2d3436">search_console.gsc_data_byproperty</text>
</g>
<!-- 14b687c0a8754fd69f278bf346a1992a -->
<g id="node4" class="node">
<title>14b687c0a8754fd69f278bf346a1992a</title>
<image xlink:href="icons/bigquery.png" width="101px" height="101px" preserveAspectRatio="xMinYMin meet" x="306" y="-160.5"/>
<text text-anchor="middle" x="356.5" y="-45.1" font-family="Sans-Serif" font-size="13.00" fill="#2d3436">search_console.e_searchcons_historique_byproperty_api</text>
</g>
<!-- 6beb2a2c54f84da99985007bf07f68b8&#45;&gt;14b687c0a8754fd69f278bf346a1992a -->
<g id="edge2" class="edge">
<title>6beb2a2c54f84da99985007bf07f68b8&#45;&gt;14b687c0a8754fd69f278bf346a1992a</title>
<path fill="none" stroke="#7b8894" d="M117.01,-110C117.01,-110 295.59,-110 295.59,-110"/>
<polygon fill="#7b8894" stroke="#7b8894" points="295.59,-113.5 305.59,-110 295.59,-106.5 295.59,-113.5"/>
<text text-anchor="middle" x="211.5" y="-113.6" font-family="Sans-Serif" font-size="13.00" fill="darkgrey">e_historique_byproperty</text>
</g>
<!-- e7749ea38a354574a15be7d2a3b44a35 -->
<g id="node5" class="node">
<title>e7749ea38a354574a15be7d2a3b44a35</title>
<image xlink:href="icons/bigquery.png" width="101px" height="101px" preserveAspectRatio="xMinYMin meet" x="573" y="-160.5"/>
<text text-anchor="middle" x="623.5" y="-45.1" font-family="Sans-Serif" font-size="13.00" fill="#2d3436">search_console.t_format_mots_cles_2020</text>
</g>
<!-- 14b687c0a8754fd69f278bf346a1992a&#45;&gt;e7749ea38a354574a15be7d2a3b44a35 -->
<g id="edge3" class="edge">
<title>14b687c0a8754fd69f278bf346a1992a&#45;&gt;e7749ea38a354574a15be7d2a3b44a35</title>
<path fill="none" stroke="#7b8894" d="M407.03,-110C407.03,-110 562.72,-110 562.72,-110"/>
<polygon fill="#7b8894" stroke="#7b8894" points="562.72,-113.5 572.72,-110 562.72,-106.5 562.72,-113.5"/>
<text text-anchor="middle" x="490" y="-113.6" font-family="Sans-Serif" font-size="13.00" fill="darkgrey">t_format_mots_cles</text>
</g>
<!-- e22af01fa3f146229beed0fc95580202 -->
<g id="node6" class="node">
<title>e22af01fa3f146229beed0fc95580202</title>
<image xlink:href="icons/bigquery.png" width="101px" height="101px" preserveAspectRatio="xMinYMin meet" x="809" y="-160.5"/>
<text text-anchor="middle" x="859.5" y="-45.1" font-family="Sans-Serif" font-size="13.00" fill="#2d3436">search_console.t_searchcons_ngram</text>
</g>
<!-- e7749ea38a354574a15be7d2a3b44a35&#45;&gt;e22af01fa3f146229beed0fc95580202 -->
<g id="edge4" class="edge">
<title>e7749ea38a354574a15be7d2a3b44a35&#45;&gt;e22af01fa3f146229beed0fc95580202</title>
<path fill="none" stroke="#7b8894" d="M674.13,-110C674.13,-110 798.96,-110 798.96,-110"/>
<polygon fill="#7b8894" stroke="#7b8894" points="798.96,-113.5 808.96,-110 798.96,-106.5 798.96,-113.5"/>
<text text-anchor="middle" x="741.5" y="-113.6" font-family="Sans-Serif" font-size="13.00" fill="darkgrey">t_ngram_2020</text>
</g>
</g>
</svg>
