<?xml version="1.0" encoding="UTF-8" standalone="no"?>
<!DOCTYPE svg PUBLIC "-//W3C//DTD SVG 1.1//EN"
 "http://www.w3.org/Graphics/SVG/1.1/DTD/svg11.dtd">
<!-- Generated by graphviz version 2.47.1 (20210417.1919)
 -->
<!-- Title: wizaly Pages: 1 -->
<svg width="1151pt" height="864pt"
 viewBox="0.00 0.00 1151.00 864.00" xmlns="http://www.w3.org/2000/svg" xmlns:xlink="http://www.w3.org/1999/xlink">
<g id="graph0" class="graph" transform="scale(1 1) rotate(0) translate(144 720)">
<title>wizaly</title>
<text text-anchor="middle" x="431.5" y="-9" font-family="Sans-Serif" font-size="15.00" fill="#2d3436">wizaly</text>
<g id="clust1" class="cluster">
<title>cluster_wizaly</title>
<path fill="#e5f5fd" stroke="#aeb6be" d="M20,-33C20,-33 843,-33 843,-33 849,-33 855,-39 855,-45 855,-45 855,-556 855,-556 855,-562 849,-568 843,-568 843,-568 20,-568 20,-568 14,-568 8,-562 8,-556 8,-556 8,-45 8,-45 8,-39 14,-33 20,-33"/>
<text text-anchor="middle" x="32.5" y="-554.4" font-family="Sans-Serif" font-size="12.00" fill="#2d3436">wizaly</text>
</g>
<!-- 9ee0c55776114118868e7fd3bde20449 -->
<g id="node1" class="node">
<title>9ee0c55776114118868e7fd3bde20449</title>
<image xlink:href="icons/bigquery.png" width="101px" height="101px" preserveAspectRatio="xMinYMin meet" x="16" y="-520.5"/>
<text text-anchor="middle" x="66.5" y="-405.1" font-family="Sans-Serif" font-size="13.00" fill="#2d3436">ga.t_ga_sessions</text>
</g>
<!-- 4417fd5691134393bc394b6f69384c63 -->
<g id="node2" class="node">
<title>4417fd5691134393bc394b6f69384c63</title>
<image xlink:href="icons/bigquery.png" width="101px" height="101px" preserveAspectRatio="xMinYMin meet" x="360" y="-238.5"/>
<text text-anchor="middle" x="410.5" y="-123.1" font-family="Sans-Serif" font-size="13.00" fill="#2d3436">amadeus.t_ama_import_wizaly_contrats</text>
</g>
<!-- 9ee0c55776114118868e7fd3bde20449&#45;&gt;4417fd5691134393bc394b6f69384c63 -->
<g id="edge1" class="edge">
<title>9ee0c55776114118868e7fd3bde20449&#45;&gt;4417fd5691134393bc394b6f69384c63</title>
<path fill="none" stroke="#7b8894" d="M117.34,-413.17C154.35,-413.17 198,-413.17 198,-413.17 198,-413.17 198,-244.83 198,-244.83 198,-244.83 349.87,-244.83 349.87,-244.83"/>
<polygon fill="#7b8894" stroke="#7b8894" points="349.87,-248.33 359.87,-244.83 349.87,-241.33 349.87,-248.33"/>
<text text-anchor="middle" x="238.5" y="-408.6" font-family="Sans-Serif" font-size="13.00" fill="darkgrey">t_import_wizaly_contrats</text>
</g>
<!-- 53aeca7fcf90415c849f886a7ec5b40f -->
<g id="node6" class="node">
<title>53aeca7fcf90415c849f886a7ec5b40f</title>
<image xlink:href="icons/bigquery.png" width="101px" height="101px" preserveAspectRatio="xMinYMin meet" x="360" y="-418.5"/>
<text text-anchor="middle" x="410.5" y="-303.1" font-family="Sans-Serif" font-size="13.00" fill="#2d3436">amadeus.t_ama_import_wizaly_pc_transformees</text>
</g>
<!-- 9ee0c55776114118868e7fd3bde20449&#45;&gt;53aeca7fcf90415c849f886a7ec5b40f -->
<g id="edge5" class="edge">
<title>9ee0c55776114118868e7fd3bde20449&#45;&gt;53aeca7fcf90415c849f886a7ec5b40f</title>
<path fill="none" stroke="#7b8894" d="M117.26,-424.83C117.26,-424.83 349.81,-424.83 349.81,-424.83"/>
<polygon fill="#7b8894" stroke="#7b8894" points="349.81,-428.33 359.81,-424.83 349.81,-421.33 349.81,-428.33"/>
<text text-anchor="middle" x="238.5" y="-472.6" font-family="Sans-Serif" font-size="13.00" fill="darkgrey">t_import_wizaly_pc_transformees</text>
</g>
<!-- ae7692e11b6047f4821bca0ce161f6da -->
<g id="node5" class="node">
<title>ae7692e11b6047f4821bca0ce161f6da</title>
<image xlink:href="icons/storage.png" width="101px" height="101px" preserveAspectRatio="xMinYMin meet" x="746" y="-238.5"/>
<text text-anchor="middle" x="796.5" y="-123.1" font-family="Sans-Serif" font-size="13.00" fill="#2d3436">amadeus_bi/wizaly/l_ama_to_wiz_import_wizaly_contrats_stor.csv</text>
</g>
<!-- 4417fd5691134393bc394b6f69384c63&#45;&gt;ae7692e11b6047f4821bca0ce161f6da -->
<g id="edge4" class="edge">
<title>4417fd5691134393bc394b6f69384c63&#45;&gt;ae7692e11b6047f4821bca0ce161f6da</title>
<path fill="none" stroke="#7b8894" d="M461.36,-188C461.36,-188 735.83,-188 735.83,-188"/>
<polygon fill="#7b8894" stroke="#7b8894" points="735.83,-191.5 745.83,-188 735.83,-184.5 735.83,-191.5"/>
<text text-anchor="middle" x="603.5" y="-191.6" font-family="Sans-Serif" font-size="13.00" fill="darkgrey">l_to_wiz_import_wizaly_contrats</text>
</g>
<!-- 9562941e364d4ca8bc4ca518d35fbc4f -->
<g id="node3" class="node">
<title>9562941e364d4ca8bc4ca518d35fbc4f</title>
<image xlink:href="icons/bigquery.png" width="101px" height="101px" preserveAspectRatio="xMinYMin meet" x="16" y="-340.5"/>
<text text-anchor="middle" x="66.5" y="-225.1" font-family="Sans-Serif" font-size="13.00" fill="#2d3436">amadeus.e_ama_formulaires_stor</text>
</g>
<!-- 9562941e364d4ca8bc4ca518d35fbc4f&#45;&gt;4417fd5691134393bc394b6f69384c63 -->
<g id="edge2" class="edge">
<title>9562941e364d4ca8bc4ca518d35fbc4f&#45;&gt;4417fd5691134393bc394b6f69384c63</title>
<path fill="none" stroke="#7b8894" d="M117.26,-233.17C117.26,-233.17 349.81,-233.17 349.81,-233.17"/>
<polygon fill="#7b8894" stroke="#7b8894" points="349.81,-236.67 359.81,-233.17 349.81,-229.67 349.81,-236.67"/>
<text text-anchor="middle" x="238.5" y="-201.6" font-family="Sans-Serif" font-size="13.00" fill="darkgrey">t_import_wizaly_contrats</text>
</g>
<!-- 9562941e364d4ca8bc4ca518d35fbc4f&#45;&gt;53aeca7fcf90415c849f886a7ec5b40f -->
<g id="edge6" class="edge">
<title>9562941e364d4ca8bc4ca518d35fbc4f&#45;&gt;53aeca7fcf90415c849f886a7ec5b40f</title>
<path fill="none" stroke="#7b8894" d="M117.26,-338.83C117.26,-338.83 349.81,-338.83 349.81,-338.83"/>
<polygon fill="#7b8894" stroke="#7b8894" points="349.81,-342.33 359.81,-338.83 349.81,-335.33 349.81,-342.33"/>
<text text-anchor="middle" x="238.5" y="-343.6" font-family="Sans-Serif" font-size="13.00" fill="darkgrey">t_import_wizaly_pc_transformees</text>
</g>
<!-- 43eb1ff2a01548a28fcde04d99e2e14d -->
<g id="node4" class="node">
<title>43eb1ff2a01548a28fcde04d99e2e14d</title>
<image xlink:href="icons/bigquery.png" width="101px" height="101px" preserveAspectRatio="xMinYMin meet" x="16" y="-160.5"/>
<text text-anchor="middle" x="66.5" y="-45.1" font-family="Sans-Serif" font-size="13.00" fill="#2d3436">wizaly.t_ama_libelle_offres</text>
</g>
<!-- 43eb1ff2a01548a28fcde04d99e2e14d&#45;&gt;4417fd5691134393bc394b6f69384c63 -->
<g id="edge3" class="edge">
<title>43eb1ff2a01548a28fcde04d99e2e14d&#45;&gt;4417fd5691134393bc394b6f69384c63</title>
<path fill="none" stroke="#7b8894" d="M117.26,-139.17C117.26,-139.17 349.81,-139.17 349.81,-139.17"/>
<polygon fill="#7b8894" stroke="#7b8894" points="349.81,-142.67 359.81,-139.17 349.81,-135.67 349.81,-142.67"/>
<text text-anchor="middle" x="238.5" y="-114.6" font-family="Sans-Serif" font-size="13.00" fill="darkgrey">t_import_wizaly_contrats</text>
</g>
<!-- 43eb1ff2a01548a28fcde04d99e2e14d&#45;&gt;53aeca7fcf90415c849f886a7ec5b40f -->
<g id="edge7" class="edge">
<title>43eb1ff2a01548a28fcde04d99e2e14d&#45;&gt;53aeca7fcf90415c849f886a7ec5b40f</title>
<path fill="none" stroke="#7b8894" d="M117.13,-158.83C179.98,-158.83 279,-158.83 279,-158.83 279,-158.83 279,-319.17 279,-319.17 279,-319.17 349.66,-319.17 349.66,-319.17"/>
<polygon fill="#7b8894" stroke="#7b8894" points="349.66,-322.67 359.66,-319.17 349.66,-315.67 349.66,-322.67"/>
<text text-anchor="middle" x="238.5" y="-275.6" font-family="Sans-Serif" font-size="13.00" fill="darkgrey">t_import_wizaly_pc_transformees</text>
</g>
<!-- 997643f4d83845d39885c00ad6abf83d -->
<g id="node7" class="node">
<title>997643f4d83845d39885c00ad6abf83d</title>
<image xlink:href="icons/storage.png" width="101px" height="101px" preserveAspectRatio="xMinYMin meet" x="746" y="-418.5"/>
<text text-anchor="middle" x="796.5" y="-303.1" font-family="Sans-Serif" font-size="13.00" fill="#2d3436">amadeus_bi/wizaly/l_ama_to_wiz_import_wizaly_pc_transformees_stor.csv</text>
</g>
<!-- 53aeca7fcf90415c849f886a7ec5b40f&#45;&gt;997643f4d83845d39885c00ad6abf83d -->
<g id="edge8" class="edge">
<title>53aeca7fcf90415c849f886a7ec5b40f&#45;&gt;997643f4d83845d39885c00ad6abf83d</title>
<path fill="none" stroke="#7b8894" d="M461.36,-368C461.36,-368 735.83,-368 735.83,-368"/>
<polygon fill="#7b8894" stroke="#7b8894" points="735.83,-371.5 745.83,-368 735.83,-364.5 735.83,-371.5"/>
<text text-anchor="middle" x="603.5" y="-371.6" font-family="Sans-Serif" font-size="13.00" fill="darkgrey">l_to_wiz_import_wizaly_pc_transformees</text>
</g>
</g>
</svg>
