<?xml version="1.0" encoding="UTF-8" standalone="no"?>
<!DOCTYPE svg PUBLIC "-//W3C//DTD SVG 1.1//EN"
 "http://www.w3.org/Graphics/SVG/1.1/DTD/svg11.dtd">
<!-- Generated by graphviz version 2.47.1 (20210417.1919)
 -->
<!-- Title: wizaly Pages: 1 -->
<svg width="1151pt" height="864pt"
 viewBox="0.00 0.00 1151.00 864.00" xmlns="http://www.w3.org/2000/svg" xmlns:xlink="http://www.w3.org/1999/xlink">
<g id="graph0" class="graph" transform="scale(1 1) rotate(0) translate(144 720)">
<title>wizaly</title>
<text text-anchor="middle" x="431.5" y="-9" font-family="Sans-Serif" font-size="15.00" fill="#2d3436">wizaly</text>
<g id="clust1" class="cluster">
<title>cluster_wizaly</title>
<path fill="#e5f5fd" stroke="#aeb6be" d="M20,-33C20,-33 843,-33 843,-33 849,-33 855,-39 855,-45 855,-45 855,-556 855,-556 855,-562 849,-568 843,-568 843,-568 20,-568 20,-568 14,-568 8,-562 8,-556 8,-556 8,-45 8,-45 8,-39 14,-33 20,-33"/>
<text text-anchor="middle" x="32.5" y="-554.4" font-family="Sans-Serif" font-size="12.00" fill="#2d3436">wizaly</text>
</g>
<!-- f88c20aea85b4442b97904e8edc19931 -->
<g id="node1" class="node">
<title>f88c20aea85b4442b97904e8edc19931</title>
<image xlink:href="icons/bigquery.png" width="101px" height="101px" preserveAspectRatio="xMinYMin meet" x="16" y="-520.5"/>
<text text-anchor="middle" x="66.5" y="-405.1" font-family="Sans-Serif" font-size="13.00" fill="#2d3436">ga.t_ga_sessions</text>
</g>
<!-- be3eb435767f44118d3826d0b6295c34 -->
<g id="node2" class="node">
<title>be3eb435767f44118d3826d0b6295c34</title>
<image xlink:href="icons/bigquery.png" width="101px" height="101px" preserveAspectRatio="xMinYMin meet" x="360" y="-238.5"/>
<text text-anchor="middle" x="410.5" y="-123.1" font-family="Sans-Serif" font-size="13.00" fill="#2d3436">amadeus.t_ama_import_wizaly_contrats</text>
</g>
<!-- f88c20aea85b4442b97904e8edc19931&#45;&gt;be3eb435767f44118d3826d0b6295c34 -->
<g id="edge1" class="edge">
<title>f88c20aea85b4442b97904e8edc19931&#45;&gt;be3eb435767f44118d3826d0b6295c34</title>
<path fill="none" stroke="#7b8894" d="M117.34,-413.17C154.35,-413.17 198,-413.17 198,-413.17 198,-413.17 198,-244.83 198,-244.83 198,-244.83 349.87,-244.83 349.87,-244.83"/>
<polygon fill="#7b8894" stroke="#7b8894" points="349.87,-248.33 359.87,-244.83 349.87,-241.33 349.87,-248.33"/>
<text text-anchor="middle" x="238.5" y="-408.6" font-family="Sans-Serif" font-size="13.00" fill="darkgrey">t_import_wizaly_contrats</text>
</g>
<!-- e0fde8e9aee241bdb11d087ff6d5d585 -->
<g id="node6" class="node">
<title>e0fde8e9aee241bdb11d087ff6d5d585</title>
<image xlink:href="icons/bigquery.png" width="101px" height="101px" preserveAspectRatio="xMinYMin meet" x="360" y="-418.5"/>
<text text-anchor="middle" x="410.5" y="-303.1" font-family="Sans-Serif" font-size="13.00" fill="#2d3436">amadeus.t_ama_import_wizaly_pc_transformees</text>
</g>
<!-- f88c20aea85b4442b97904e8edc19931&#45;&gt;e0fde8e9aee241bdb11d087ff6d5d585 -->
<g id="edge5" class="edge">
<title>f88c20aea85b4442b97904e8edc19931&#45;&gt;e0fde8e9aee241bdb11d087ff6d5d585</title>
<path fill="none" stroke="#7b8894" d="M117.26,-424.83C117.26,-424.83 349.81,-424.83 349.81,-424.83"/>
<polygon fill="#7b8894" stroke="#7b8894" points="349.81,-428.33 359.81,-424.83 349.81,-421.33 349.81,-428.33"/>
<text text-anchor="middle" x="238.5" y="-472.6" font-family="Sans-Serif" font-size="13.00" fill="darkgrey">t_import_wizaly_pc_transformees</text>
</g>
<!-- 02198e41db8d4a0081a47b804361c2a1 -->
<g id="node5" class="node">
<title>02198e41db8d4a0081a47b804361c2a1</title>
<image xlink:href="icons/storage.png" width="101px" height="101px" preserveAspectRatio="xMinYMin meet" x="746" y="-238.5"/>
<text text-anchor="middle" x="796.5" y="-123.1" font-family="Sans-Serif" font-size="13.00" fill="#2d3436">amadeus_bi/wizaly/l_ama_to_wiz_import_wizaly_contrats_stor.csv</text>
</g>
<!-- be3eb435767f44118d3826d0b6295c34&#45;&gt;02198e41db8d4a0081a47b804361c2a1 -->
<g id="edge4" class="edge">
<title>be3eb435767f44118d3826d0b6295c34&#45;&gt;02198e41db8d4a0081a47b804361c2a1</title>
<path fill="none" stroke="#7b8894" d="M461.36,-188C461.36,-188 735.83,-188 735.83,-188"/>
<polygon fill="#7b8894" stroke="#7b8894" points="735.83,-191.5 745.83,-188 735.83,-184.5 735.83,-191.5"/>
<text text-anchor="middle" x="603.5" y="-191.6" font-family="Sans-Serif" font-size="13.00" fill="darkgrey">l_to_wiz_import_wizaly_contrats</text>
</g>
<!-- d87b628330304d3989367f96b2dd3317 -->
<g id="node3" class="node">
<title>d87b628330304d3989367f96b2dd3317</title>
<image xlink:href="icons/bigquery.png" width="101px" height="101px" preserveAspectRatio="xMinYMin meet" x="16" y="-340.5"/>
<text text-anchor="middle" x="66.5" y="-225.1" font-family="Sans-Serif" font-size="13.00" fill="#2d3436">amadeus.e_ama_formulaires_stor</text>
</g>
<!-- d87b628330304d3989367f96b2dd3317&#45;&gt;be3eb435767f44118d3826d0b6295c34 -->
<g id="edge2" class="edge">
<title>d87b628330304d3989367f96b2dd3317&#45;&gt;be3eb435767f44118d3826d0b6295c34</title>
<path fill="none" stroke="#7b8894" d="M117.26,-233.17C117.26,-233.17 349.81,-233.17 349.81,-233.17"/>
<polygon fill="#7b8894" stroke="#7b8894" points="349.81,-236.67 359.81,-233.17 349.81,-229.67 349.81,-236.67"/>
<text text-anchor="middle" x="238.5" y="-201.6" font-family="Sans-Serif" font-size="13.00" fill="darkgrey">t_import_wizaly_contrats</text>
</g>
<!-- d87b628330304d3989367f96b2dd3317&#45;&gt;e0fde8e9aee241bdb11d087ff6d5d585 -->
<g id="edge6" class="edge">
<title>d87b628330304d3989367f96b2dd3317&#45;&gt;e0fde8e9aee241bdb11d087ff6d5d585</title>
<path fill="none" stroke="#7b8894" d="M117.26,-338.83C117.26,-338.83 349.81,-338.83 349.81,-338.83"/>
<polygon fill="#7b8894" stroke="#7b8894" points="349.81,-342.33 359.81,-338.83 349.81,-335.33 349.81,-342.33"/>
<text text-anchor="middle" x="238.5" y="-343.6" font-family="Sans-Serif" font-size="13.00" fill="darkgrey">t_import_wizaly_pc_transformees</text>
</g>
<!-- 133c8d8636c14ab7813b566ad09b737d -->
<g id="node4" class="node">
<title>133c8d8636c14ab7813b566ad09b737d</title>
<image xlink:href="icons/bigquery.png" width="101px" height="101px" preserveAspectRatio="xMinYMin meet" x="16" y="-160.5"/>
<text text-anchor="middle" x="66.5" y="-45.1" font-family="Sans-Serif" font-size="13.00" fill="#2d3436">wizaly.t_ama_libelle_offres</text>
</g>
<!-- 133c8d8636c14ab7813b566ad09b737d&#45;&gt;be3eb435767f44118d3826d0b6295c34 -->
<g id="edge3" class="edge">
<title>133c8d8636c14ab7813b566ad09b737d&#45;&gt;be3eb435767f44118d3826d0b6295c34</title>
<path fill="none" stroke="#7b8894" d="M117.26,-139.17C117.26,-139.17 349.81,-139.17 349.81,-139.17"/>
<polygon fill="#7b8894" stroke="#7b8894" points="349.81,-142.67 359.81,-139.17 349.81,-135.67 349.81,-142.67"/>
<text text-anchor="middle" x="238.5" y="-114.6" font-family="Sans-Serif" font-size="13.00" fill="darkgrey">t_import_wizaly_contrats</text>
</g>
<!-- 133c8d8636c14ab7813b566ad09b737d&#45;&gt;e0fde8e9aee241bdb11d087ff6d5d585 -->
<g id="edge7" class="edge">
<title>133c8d8636c14ab7813b566ad09b737d&#45;&gt;e0fde8e9aee241bdb11d087ff6d5d585</title>
<path fill="none" stroke="#7b8894" d="M117.13,-158.83C179.98,-158.83 279,-158.83 279,-158.83 279,-158.83 279,-319.17 279,-319.17 279,-319.17 349.66,-319.17 349.66,-319.17"/>
<polygon fill="#7b8894" stroke="#7b8894" points="349.66,-322.67 359.66,-319.17 349.66,-315.67 349.66,-322.67"/>
<text text-anchor="middle" x="238.5" y="-275.6" font-family="Sans-Serif" font-size="13.00" fill="darkgrey">t_import_wizaly_pc_transformees</text>
</g>
<!-- 0018de0a21e74550b06b30e8f19a7091 -->
<g id="node7" class="node">
<title>0018de0a21e74550b06b30e8f19a7091</title>
<image xlink:href="icons/storage.png" width="101px" height="101px" preserveAspectRatio="xMinYMin meet" x="746" y="-418.5"/>
<text text-anchor="middle" x="796.5" y="-303.1" font-family="Sans-Serif" font-size="13.00" fill="#2d3436">amadeus_bi/wizaly/l_ama_to_wiz_import_wizaly_pc_transformees_stor.csv</text>
</g>
<!-- e0fde8e9aee241bdb11d087ff6d5d585&#45;&gt;0018de0a21e74550b06b30e8f19a7091 -->
<g id="edge8" class="edge">
<title>e0fde8e9aee241bdb11d087ff6d5d585&#45;&gt;0018de0a21e74550b06b30e8f19a7091</title>
<path fill="none" stroke="#7b8894" d="M461.36,-368C461.36,-368 735.83,-368 735.83,-368"/>
<polygon fill="#7b8894" stroke="#7b8894" points="735.83,-371.5 745.83,-368 735.83,-364.5 735.83,-371.5"/>
<text text-anchor="middle" x="603.5" y="-371.6" font-family="Sans-Serif" font-size="13.00" fill="darkgrey">l_to_wiz_import_wizaly_pc_transformees</text>
</g>
</g>
</svg>
