<?xml version="1.0" encoding="UTF-8" standalone="no"?>
<!DOCTYPE svg PUBLIC "-//W3C//DTD SVG 1.1//EN"
 "http://www.w3.org/Graphics/SVG/1.1/DTD/svg11.dtd">
<!-- Generated by graphviz version 2.47.1 (20210417.1919)
 -->
<!-- Title: wizaly Pages: 1 -->
<svg width="1151pt" height="864pt"
 viewBox="0.00 0.00 1151.00 864.00" xmlns="http://www.w3.org/2000/svg" xmlns:xlink="http://www.w3.org/1999/xlink">
<g id="graph0" class="graph" transform="scale(1 1) rotate(0) translate(144 720)">
<title>wizaly</title>
<text text-anchor="middle" x="431.5" y="-9" font-family="Sans-Serif" font-size="15.00" fill="#2d3436">wizaly</text>
<g id="clust1" class="cluster">
<title>cluster_wizaly</title>
<path fill="#e5f5fd" stroke="#aeb6be" d="M20,-33C20,-33 843,-33 843,-33 849,-33 855,-39 855,-45 855,-45 855,-556 855,-556 855,-562 849,-568 843,-568 843,-568 20,-568 20,-568 14,-568 8,-562 8,-556 8,-556 8,-45 8,-45 8,-39 14,-33 20,-33"/>
<text text-anchor="middle" x="32.5" y="-554.4" font-family="Sans-Serif" font-size="12.00" fill="#2d3436">wizaly</text>
</g>
<!-- a1da8ebd9e6f4b5c80909b4b158698ce -->
<g id="node1" class="node">
<title>a1da8ebd9e6f4b5c80909b4b158698ce</title>
<image xlink:href="icons/bigquery.png" width="101px" height="101px" preserveAspectRatio="xMinYMin meet" x="16" y="-520.5"/>
<text text-anchor="middle" x="66.5" y="-405.1" font-family="Sans-Serif" font-size="13.00" fill="#2d3436">ga.t_ga_sessions</text>
</g>
<!-- ab7438e92f0649189689a12e9fa98866 -->
<g id="node2" class="node">
<title>ab7438e92f0649189689a12e9fa98866</title>
<image xlink:href="icons/bigquery.png" width="101px" height="101px" preserveAspectRatio="xMinYMin meet" x="360" y="-238.5"/>
<text text-anchor="middle" x="410.5" y="-123.1" font-family="Sans-Serif" font-size="13.00" fill="#2d3436">amadeus.t_ama_import_wizaly_contrats</text>
</g>
<!-- a1da8ebd9e6f4b5c80909b4b158698ce&#45;&gt;ab7438e92f0649189689a12e9fa98866 -->
<g id="edge1" class="edge">
<title>a1da8ebd9e6f4b5c80909b4b158698ce&#45;&gt;ab7438e92f0649189689a12e9fa98866</title>
<path fill="none" stroke="#7b8894" d="M117.34,-413.17C154.35,-413.17 198,-413.17 198,-413.17 198,-413.17 198,-244.83 198,-244.83 198,-244.83 349.87,-244.83 349.87,-244.83"/>
<polygon fill="#7b8894" stroke="#7b8894" points="349.87,-248.33 359.87,-244.83 349.87,-241.33 349.87,-248.33"/>
<text text-anchor="middle" x="238.5" y="-408.6" font-family="Sans-Serif" font-size="13.00" fill="darkgrey">t_import_wizaly_contrats</text>
</g>
<!-- 4de4e99d174049b08dd00840128405a0 -->
<g id="node6" class="node">
<title>4de4e99d174049b08dd00840128405a0</title>
<image xlink:href="icons/bigquery.png" width="101px" height="101px" preserveAspectRatio="xMinYMin meet" x="360" y="-418.5"/>
<text text-anchor="middle" x="410.5" y="-303.1" font-family="Sans-Serif" font-size="13.00" fill="#2d3436">amadeus.t_ama_import_wizaly_pc_transformees</text>
</g>
<!-- a1da8ebd9e6f4b5c80909b4b158698ce&#45;&gt;4de4e99d174049b08dd00840128405a0 -->
<g id="edge5" class="edge">
<title>a1da8ebd9e6f4b5c80909b4b158698ce&#45;&gt;4de4e99d174049b08dd00840128405a0</title>
<path fill="none" stroke="#7b8894" d="M117.26,-424.83C117.26,-424.83 349.81,-424.83 349.81,-424.83"/>
<polygon fill="#7b8894" stroke="#7b8894" points="349.81,-428.33 359.81,-424.83 349.81,-421.33 349.81,-428.33"/>
<text text-anchor="middle" x="238.5" y="-472.6" font-family="Sans-Serif" font-size="13.00" fill="darkgrey">t_import_wizaly_pc_transformees</text>
</g>
<!-- 106fa2803b784803bff0f162a2c65047 -->
<g id="node5" class="node">
<title>106fa2803b784803bff0f162a2c65047</title>
<image xlink:href="icons/storage.png" width="101px" height="101px" preserveAspectRatio="xMinYMin meet" x="746" y="-238.5"/>
<text text-anchor="middle" x="796.5" y="-123.1" font-family="Sans-Serif" font-size="13.00" fill="#2d3436">amadeus_bi/wizaly/l_ama_to_wiz_import_wizaly_contrats_stor.csv</text>
</g>
<!-- ab7438e92f0649189689a12e9fa98866&#45;&gt;106fa2803b784803bff0f162a2c65047 -->
<g id="edge4" class="edge">
<title>ab7438e92f0649189689a12e9fa98866&#45;&gt;106fa2803b784803bff0f162a2c65047</title>
<path fill="none" stroke="#7b8894" d="M461.36,-188C461.36,-188 735.83,-188 735.83,-188"/>
<polygon fill="#7b8894" stroke="#7b8894" points="735.83,-191.5 745.83,-188 735.83,-184.5 735.83,-191.5"/>
<text text-anchor="middle" x="603.5" y="-191.6" font-family="Sans-Serif" font-size="13.00" fill="darkgrey">l_to_wiz_import_wizaly_contrats</text>
</g>
<!-- 0c147027aefc4f858c947cbda4349c04 -->
<g id="node3" class="node">
<title>0c147027aefc4f858c947cbda4349c04</title>
<image xlink:href="icons/bigquery.png" width="101px" height="101px" preserveAspectRatio="xMinYMin meet" x="16" y="-340.5"/>
<text text-anchor="middle" x="66.5" y="-225.1" font-family="Sans-Serif" font-size="13.00" fill="#2d3436">amadeus.e_ama_formulaires_stor</text>
</g>
<!-- 0c147027aefc4f858c947cbda4349c04&#45;&gt;ab7438e92f0649189689a12e9fa98866 -->
<g id="edge2" class="edge">
<title>0c147027aefc4f858c947cbda4349c04&#45;&gt;ab7438e92f0649189689a12e9fa98866</title>
<path fill="none" stroke="#7b8894" d="M117.26,-233.17C117.26,-233.17 349.81,-233.17 349.81,-233.17"/>
<polygon fill="#7b8894" stroke="#7b8894" points="349.81,-236.67 359.81,-233.17 349.81,-229.67 349.81,-236.67"/>
<text text-anchor="middle" x="238.5" y="-201.6" font-family="Sans-Serif" font-size="13.00" fill="darkgrey">t_import_wizaly_contrats</text>
</g>
<!-- 0c147027aefc4f858c947cbda4349c04&#45;&gt;4de4e99d174049b08dd00840128405a0 -->
<g id="edge6" class="edge">
<title>0c147027aefc4f858c947cbda4349c04&#45;&gt;4de4e99d174049b08dd00840128405a0</title>
<path fill="none" stroke="#7b8894" d="M117.26,-338.83C117.26,-338.83 349.81,-338.83 349.81,-338.83"/>
<polygon fill="#7b8894" stroke="#7b8894" points="349.81,-342.33 359.81,-338.83 349.81,-335.33 349.81,-342.33"/>
<text text-anchor="middle" x="238.5" y="-343.6" font-family="Sans-Serif" font-size="13.00" fill="darkgrey">t_import_wizaly_pc_transformees</text>
</g>
<!-- d8f32f412496440495a573cdc3b31827 -->
<g id="node4" class="node">
<title>d8f32f412496440495a573cdc3b31827</title>
<image xlink:href="icons/bigquery.png" width="101px" height="101px" preserveAspectRatio="xMinYMin meet" x="16" y="-160.5"/>
<text text-anchor="middle" x="66.5" y="-45.1" font-family="Sans-Serif" font-size="13.00" fill="#2d3436">[?config?].t_ama_libelle_offres</text>
</g>
<!-- d8f32f412496440495a573cdc3b31827&#45;&gt;ab7438e92f0649189689a12e9fa98866 -->
<g id="edge3" class="edge">
<title>d8f32f412496440495a573cdc3b31827&#45;&gt;ab7438e92f0649189689a12e9fa98866</title>
<path fill="none" stroke="#7b8894" d="M117.26,-139.17C117.26,-139.17 349.81,-139.17 349.81,-139.17"/>
<polygon fill="#7b8894" stroke="#7b8894" points="349.81,-142.67 359.81,-139.17 349.81,-135.67 349.81,-142.67"/>
<text text-anchor="middle" x="238.5" y="-114.6" font-family="Sans-Serif" font-size="13.00" fill="darkgrey">t_import_wizaly_contrats</text>
</g>
<!-- d8f32f412496440495a573cdc3b31827&#45;&gt;4de4e99d174049b08dd00840128405a0 -->
<g id="edge7" class="edge">
<title>d8f32f412496440495a573cdc3b31827&#45;&gt;4de4e99d174049b08dd00840128405a0</title>
<path fill="none" stroke="#7b8894" d="M117.13,-158.83C179.98,-158.83 279,-158.83 279,-158.83 279,-158.83 279,-319.17 279,-319.17 279,-319.17 349.66,-319.17 349.66,-319.17"/>
<polygon fill="#7b8894" stroke="#7b8894" points="349.66,-322.67 359.66,-319.17 349.66,-315.67 349.66,-322.67"/>
<text text-anchor="middle" x="238.5" y="-275.6" font-family="Sans-Serif" font-size="13.00" fill="darkgrey">t_import_wizaly_pc_transformees</text>
</g>
<!-- 53794f424a5a4f829d51a664e8614e6d -->
<g id="node7" class="node">
<title>53794f424a5a4f829d51a664e8614e6d</title>
<image xlink:href="icons/storage.png" width="101px" height="101px" preserveAspectRatio="xMinYMin meet" x="746" y="-418.5"/>
<text text-anchor="middle" x="796.5" y="-303.1" font-family="Sans-Serif" font-size="13.00" fill="#2d3436">amadeus_bi/wizaly/l_ama_to_wiz_import_wizaly_pc_transformees_stor.csv</text>
</g>
<!-- 4de4e99d174049b08dd00840128405a0&#45;&gt;53794f424a5a4f829d51a664e8614e6d -->
<g id="edge8" class="edge">
<title>4de4e99d174049b08dd00840128405a0&#45;&gt;53794f424a5a4f829d51a664e8614e6d</title>
<path fill="none" stroke="#7b8894" d="M461.36,-368C461.36,-368 735.83,-368 735.83,-368"/>
<polygon fill="#7b8894" stroke="#7b8894" points="735.83,-371.5 745.83,-368 735.83,-364.5 735.83,-371.5"/>
<text text-anchor="middle" x="603.5" y="-371.6" font-family="Sans-Serif" font-size="13.00" fill="darkgrey">l_to_wiz_import_wizaly_pc_transformees</text>
</g>
</g>
</svg>
