<?xml version="1.0" encoding="UTF-8" standalone="no"?>
<!DOCTYPE svg PUBLIC "-//W3C//DTD SVG 1.1//EN"
 "http://www.w3.org/Graphics/SVG/1.1/DTD/svg11.dtd">
<!-- Generated by graphviz version 2.47.1 (20210417.1919)
 -->
<!-- Title: wizaly Pages: 1 -->
<svg width="1151pt" height="864pt"
 viewBox="0.00 0.00 1151.00 864.00" xmlns="http://www.w3.org/2000/svg" xmlns:xlink="http://www.w3.org/1999/xlink">
<g id="graph0" class="graph" transform="scale(1 1) rotate(0) translate(144 720)">
<title>wizaly</title>
<text text-anchor="middle" x="431.5" y="-9" font-family="Sans-Serif" font-size="15.00" fill="#2d3436">wizaly</text>
<g id="clust1" class="cluster">
<title>cluster_wizaly</title>
<path fill="#e5f5fd" stroke="#aeb6be" d="M20,-33C20,-33 843,-33 843,-33 849,-33 855,-39 855,-45 855,-45 855,-556 855,-556 855,-562 849,-568 843,-568 843,-568 20,-568 20,-568 14,-568 8,-562 8,-556 8,-556 8,-45 8,-45 8,-39 14,-33 20,-33"/>
<text text-anchor="middle" x="32.5" y="-554.4" font-family="Sans-Serif" font-size="12.00" fill="#2d3436">wizaly</text>
</g>
<!-- f0e914cfecea4ed2bfb5a05dadd85bcb -->
<g id="node1" class="node">
<title>f0e914cfecea4ed2bfb5a05dadd85bcb</title>
<image xlink:href="icons/bigquery.png" width="101px" height="101px" preserveAspectRatio="xMinYMin meet" x="16" y="-520.5"/>
<text text-anchor="middle" x="66.5" y="-405.1" font-family="Sans-Serif" font-size="13.00" fill="#2d3436">ga.t_ga_sessions</text>
</g>
<!-- a773360887df4c0a98f570b77572ccef -->
<g id="node2" class="node">
<title>a773360887df4c0a98f570b77572ccef</title>
<image xlink:href="icons/bigquery.png" width="101px" height="101px" preserveAspectRatio="xMinYMin meet" x="360" y="-238.5"/>
<text text-anchor="middle" x="410.5" y="-123.1" font-family="Sans-Serif" font-size="13.00" fill="#2d3436">amadeus.t_ama_import_wizaly_contrats</text>
</g>
<!-- f0e914cfecea4ed2bfb5a05dadd85bcb&#45;&gt;a773360887df4c0a98f570b77572ccef -->
<g id="edge1" class="edge">
<title>f0e914cfecea4ed2bfb5a05dadd85bcb&#45;&gt;a773360887df4c0a98f570b77572ccef</title>
<path fill="none" stroke="#7b8894" d="M117.34,-413.17C154.35,-413.17 198,-413.17 198,-413.17 198,-413.17 198,-244.83 198,-244.83 198,-244.83 349.87,-244.83 349.87,-244.83"/>
<polygon fill="#7b8894" stroke="#7b8894" points="349.87,-248.33 359.87,-244.83 349.87,-241.33 349.87,-248.33"/>
<text text-anchor="middle" x="238.5" y="-408.6" font-family="Sans-Serif" font-size="13.00" fill="darkgrey">t_import_wizaly_contrats</text>
</g>
<!-- cca23a1993fb442ca843315786545905 -->
<g id="node6" class="node">
<title>cca23a1993fb442ca843315786545905</title>
<image xlink:href="icons/bigquery.png" width="101px" height="101px" preserveAspectRatio="xMinYMin meet" x="360" y="-418.5"/>
<text text-anchor="middle" x="410.5" y="-303.1" font-family="Sans-Serif" font-size="13.00" fill="#2d3436">amadeus.t_ama_import_wizaly_pc_transformees</text>
</g>
<!-- f0e914cfecea4ed2bfb5a05dadd85bcb&#45;&gt;cca23a1993fb442ca843315786545905 -->
<g id="edge5" class="edge">
<title>f0e914cfecea4ed2bfb5a05dadd85bcb&#45;&gt;cca23a1993fb442ca843315786545905</title>
<path fill="none" stroke="#7b8894" d="M117.26,-424.83C117.26,-424.83 349.81,-424.83 349.81,-424.83"/>
<polygon fill="#7b8894" stroke="#7b8894" points="349.81,-428.33 359.81,-424.83 349.81,-421.33 349.81,-428.33"/>
<text text-anchor="middle" x="238.5" y="-472.6" font-family="Sans-Serif" font-size="13.00" fill="darkgrey">t_import_wizaly_pc_transformees</text>
</g>
<!-- da6e5a857b334c379a936636f601155b -->
<g id="node5" class="node">
<title>da6e5a857b334c379a936636f601155b</title>
<image xlink:href="icons/storage.png" width="101px" height="101px" preserveAspectRatio="xMinYMin meet" x="746" y="-238.5"/>
<text text-anchor="middle" x="796.5" y="-123.1" font-family="Sans-Serif" font-size="13.00" fill="#2d3436">amadeus_bi/wizaly/l_ama_to_wiz_import_wizaly_contrats_stor.csv</text>
</g>
<!-- a773360887df4c0a98f570b77572ccef&#45;&gt;da6e5a857b334c379a936636f601155b -->
<g id="edge4" class="edge">
<title>a773360887df4c0a98f570b77572ccef&#45;&gt;da6e5a857b334c379a936636f601155b</title>
<path fill="none" stroke="#7b8894" d="M461.36,-188C461.36,-188 735.83,-188 735.83,-188"/>
<polygon fill="#7b8894" stroke="#7b8894" points="735.83,-191.5 745.83,-188 735.83,-184.5 735.83,-191.5"/>
<text text-anchor="middle" x="603.5" y="-191.6" font-family="Sans-Serif" font-size="13.00" fill="darkgrey">l_to_wiz_import_wizaly_contrats</text>
</g>
<!-- 65da05c519764669950256c870151ed7 -->
<g id="node3" class="node">
<title>65da05c519764669950256c870151ed7</title>
<image xlink:href="icons/bigquery.png" width="101px" height="101px" preserveAspectRatio="xMinYMin meet" x="16" y="-340.5"/>
<text text-anchor="middle" x="66.5" y="-225.1" font-family="Sans-Serif" font-size="13.00" fill="#2d3436">amadeus.e_ama_formulaires_stor</text>
</g>
<!-- 65da05c519764669950256c870151ed7&#45;&gt;a773360887df4c0a98f570b77572ccef -->
<g id="edge2" class="edge">
<title>65da05c519764669950256c870151ed7&#45;&gt;a773360887df4c0a98f570b77572ccef</title>
<path fill="none" stroke="#7b8894" d="M117.26,-233.17C117.26,-233.17 349.81,-233.17 349.81,-233.17"/>
<polygon fill="#7b8894" stroke="#7b8894" points="349.81,-236.67 359.81,-233.17 349.81,-229.67 349.81,-236.67"/>
<text text-anchor="middle" x="238.5" y="-201.6" font-family="Sans-Serif" font-size="13.00" fill="darkgrey">t_import_wizaly_contrats</text>
</g>
<!-- 65da05c519764669950256c870151ed7&#45;&gt;cca23a1993fb442ca843315786545905 -->
<g id="edge6" class="edge">
<title>65da05c519764669950256c870151ed7&#45;&gt;cca23a1993fb442ca843315786545905</title>
<path fill="none" stroke="#7b8894" d="M117.26,-338.83C117.26,-338.83 349.81,-338.83 349.81,-338.83"/>
<polygon fill="#7b8894" stroke="#7b8894" points="349.81,-342.33 359.81,-338.83 349.81,-335.33 349.81,-342.33"/>
<text text-anchor="middle" x="238.5" y="-343.6" font-family="Sans-Serif" font-size="13.00" fill="darkgrey">t_import_wizaly_pc_transformees</text>
</g>
<!-- 291188269d114015ac81336e56634600 -->
<g id="node4" class="node">
<title>291188269d114015ac81336e56634600</title>
<image xlink:href="icons/bigquery.png" width="101px" height="101px" preserveAspectRatio="xMinYMin meet" x="16" y="-160.5"/>
<text text-anchor="middle" x="66.5" y="-45.1" font-family="Sans-Serif" font-size="13.00" fill="#2d3436">wizaly.t_ama_libelle_offres</text>
</g>
<!-- 291188269d114015ac81336e56634600&#45;&gt;a773360887df4c0a98f570b77572ccef -->
<g id="edge3" class="edge">
<title>291188269d114015ac81336e56634600&#45;&gt;a773360887df4c0a98f570b77572ccef</title>
<path fill="none" stroke="#7b8894" d="M117.26,-139.17C117.26,-139.17 349.81,-139.17 349.81,-139.17"/>
<polygon fill="#7b8894" stroke="#7b8894" points="349.81,-142.67 359.81,-139.17 349.81,-135.67 349.81,-142.67"/>
<text text-anchor="middle" x="238.5" y="-114.6" font-family="Sans-Serif" font-size="13.00" fill="darkgrey">t_import_wizaly_contrats</text>
</g>
<!-- 291188269d114015ac81336e56634600&#45;&gt;cca23a1993fb442ca843315786545905 -->
<g id="edge7" class="edge">
<title>291188269d114015ac81336e56634600&#45;&gt;cca23a1993fb442ca843315786545905</title>
<path fill="none" stroke="#7b8894" d="M117.13,-158.83C179.98,-158.83 279,-158.83 279,-158.83 279,-158.83 279,-319.17 279,-319.17 279,-319.17 349.66,-319.17 349.66,-319.17"/>
<polygon fill="#7b8894" stroke="#7b8894" points="349.66,-322.67 359.66,-319.17 349.66,-315.67 349.66,-322.67"/>
<text text-anchor="middle" x="238.5" y="-275.6" font-family="Sans-Serif" font-size="13.00" fill="darkgrey">t_import_wizaly_pc_transformees</text>
</g>
<!-- 300e7e2268b64b02930f07ac6917fda4 -->
<g id="node7" class="node">
<title>300e7e2268b64b02930f07ac6917fda4</title>
<image xlink:href="icons/storage.png" width="101px" height="101px" preserveAspectRatio="xMinYMin meet" x="746" y="-418.5"/>
<text text-anchor="middle" x="796.5" y="-303.1" font-family="Sans-Serif" font-size="13.00" fill="#2d3436">amadeus_bi/wizaly/l_ama_to_wiz_import_wizaly_pc_transformees_stor.csv</text>
</g>
<!-- cca23a1993fb442ca843315786545905&#45;&gt;300e7e2268b64b02930f07ac6917fda4 -->
<g id="edge8" class="edge">
<title>cca23a1993fb442ca843315786545905&#45;&gt;300e7e2268b64b02930f07ac6917fda4</title>
<path fill="none" stroke="#7b8894" d="M461.36,-368C461.36,-368 735.83,-368 735.83,-368"/>
<polygon fill="#7b8894" stroke="#7b8894" points="735.83,-371.5 745.83,-368 735.83,-364.5 735.83,-371.5"/>
<text text-anchor="middle" x="603.5" y="-371.6" font-family="Sans-Serif" font-size="13.00" fill="darkgrey">l_to_wiz_import_wizaly_pc_transformees</text>
</g>
</g>
</svg>
